M48
;DRILL file {KiCad (5.0.2)-1} date 16/02/2019 22:02:21
;FORMAT={-:-/ absolute / metric / decimal}
FMAT,2
METRIC,TZ
T1C0.400
T2C0.900
T3C1.500
%
G90
G05
T1
X82.08Y-113.13
X82.11Y-116.95
X83.4Y-95.5
X83.5Y-121.65
X84.51Y-143.02
X84.66Y-115.66
X84.68Y-132.25
X84.99Y-111.92
X85.06Y-137.45
X85.14Y-142.21
X85.455Y-113.955
X86.46Y-122.71
X89.26Y-125.75
X89.36Y-141.85
X90.22Y-141.85
X90.51Y-125.74
X90.64Y-121.46
X91.083Y-143.619
X91.1Y-142.805
X91.11Y-142.005
X91.35Y-127.09
X91.5Y-105.9
X91.57Y-131.09
X91.57Y-130.151
X92.53Y-125.66
X92.625Y-115.4
X93.08Y-143.59
X93.39Y-101.97
X93.483Y-129.247
X93.483Y-128.363
X94.35Y-143.55
X94.86Y-119.49
X95.22Y-127.738
X95.73Y-143.48
X95.89Y-103.97
X95.93Y-127.113
X96.78Y-119.54
X96.825Y-106.75
X97.02Y-143.444
X97.11Y-140.08
X97.71Y-125.56
X97.95Y-100.275
X98.02Y-143.56
X98.16Y-127.72
X98.378Y-140.452
X98.49Y-110.7
X99.495Y-126.418
X99.71Y-142.865
X100.97Y-143.51
X101.05Y-92.8
X101.2Y-116.72
X101.21Y-119.48
X102.375Y-97.475
X102.47Y-130.68
X103.575Y-124.6
X103.81Y-106.75
X104.45Y-120.05
X104.677Y-113.838
X104.84Y-111.95
X105.94Y-121.08
X106.493Y-114.587
X106.54Y-117.405
X106.55Y-118.69
X106.575Y-119.925
X106.58Y-130.34
X106.6Y-116.135
X106.67Y-112.
X107.175Y-108.
X107.37Y-105.7
X108.15Y-123.52
X108.17Y-130.37
X109.05Y-143.615
X109.38Y-113.59
X110.125Y-95.5
X110.54Y-109.88
X110.54Y-112.04
X110.68Y-143.52
X111.57Y-116.41
X111.57Y-118.155
X111.61Y-125.07
X111.61Y-126.64
X112.06Y-120.78
X112.481Y-129.49
X112.55Y-135.97
X112.93Y-142.94
X113.79Y-142.575
X113.98Y-122.35
X114.01Y-126.42
X114.05Y-128.29
X114.14Y-131.15
X114.71Y-135.29
X114.93Y-114.24
X115.07Y-117.47
X115.13Y-137.18
X115.488Y-143.537
X115.97Y-142.67
X116.1Y-112.9
X117.04Y-98.69
X117.08Y-143.21
X117.24Y-115.29
X117.32Y-123.34
X117.67Y-128.69
X118.225Y-109.725
X118.86Y-142.83
X119.054Y-143.623
X119.425Y-134.
X119.9Y-125.45
X120.13Y-123.82
X120.32Y-132.06
X120.34Y-128.97
X121.25Y-116.14
X122.02Y-143.31
X122.07Y-137.91
X122.2Y-140.993
X122.35Y-110.16
X122.41Y-117.71
X123.1Y-143.28
X123.26Y-102.49
X124.3Y-115.6
X124.41Y-135.28
X124.43Y-136.55
X125.14Y-104.025
X125.16Y-108.91
X125.785Y-108.21
X125.809Y-142.055
X126.3Y-118.6
X127.07Y-133.08
X127.39Y-140.13
X127.48Y-101.04
X127.575Y-123.5
X127.65Y-134.9
X128.51Y-101.01
X128.87Y-131.58
X129.Y-110.175
X129.45Y-95.175
X129.63Y-133.1
X130.38Y-142.95
X130.41Y-135.92
T2
X92.1Y-93.3
X98.9Y-93.3
X118.9Y-93.3
X125.7Y-93.3
T3
X113.525Y-94.95
X113.525Y-101.95
X86.8Y-94.95
X86.8Y-101.95
T0
M30
