G04 #@! TF.GenerationSoftware,KiCad,Pcbnew,(5.0.2)-1*
G04 #@! TF.CreationDate,2019-03-05T12:52:00+01:00*
G04 #@! TF.ProjectId,GBDSO,47424453-4f2e-46b6-9963-61645f706362,rev?*
G04 #@! TF.SameCoordinates,Original*
G04 #@! TF.FileFunction,Other,Comment*
%FSLAX46Y46*%
G04 Gerber Fmt 4.6, Leading zero omitted, Abs format (unit mm)*
G04 Created by KiCad (PCBNEW (5.0.2)-1) date 05/03/2019 12:52:00*
%MOMM*%
%LPD*%
G01*
G04 APERTURE LIST*
%ADD10C,0.300000*%
G04 APERTURE END LIST*
D10*
X77481428Y-116160000D02*
X77481428Y-115874285D01*
X77410000Y-115731428D01*
X77338571Y-115660000D01*
X77124285Y-115517142D01*
X76838571Y-115445714D01*
X76267142Y-115445714D01*
X76124285Y-115517142D01*
X76052857Y-115588571D01*
X75981428Y-115731428D01*
X75981428Y-116017142D01*
X76052857Y-116160000D01*
X76124285Y-116231428D01*
X76267142Y-116302857D01*
X76624285Y-116302857D01*
X76767142Y-116231428D01*
X76838571Y-116160000D01*
X76910000Y-116017142D01*
X76910000Y-115731428D01*
X76838571Y-115588571D01*
X76767142Y-115517142D01*
X76624285Y-115445714D01*
X75981428Y-117731428D02*
X75981428Y-116874285D01*
X75981428Y-117302857D02*
X77481428Y-117302857D01*
X77267142Y-117160000D01*
X77124285Y-117017142D01*
X77052857Y-116874285D01*
X76124285Y-118374285D02*
X76052857Y-118445714D01*
X75981428Y-118374285D01*
X76052857Y-118302857D01*
X76124285Y-118374285D01*
X75981428Y-118374285D01*
X77481428Y-119374285D02*
X77481428Y-119517142D01*
X77410000Y-119660000D01*
X77338571Y-119731428D01*
X77195714Y-119802857D01*
X76910000Y-119874285D01*
X76552857Y-119874285D01*
X76267142Y-119802857D01*
X76124285Y-119731428D01*
X76052857Y-119660000D01*
X75981428Y-119517142D01*
X75981428Y-119374285D01*
X76052857Y-119231428D01*
X76124285Y-119160000D01*
X76267142Y-119088571D01*
X76552857Y-119017142D01*
X76910000Y-119017142D01*
X77195714Y-119088571D01*
X77338571Y-119160000D01*
X77410000Y-119231428D01*
X77481428Y-119374285D01*
X77481428Y-120802857D02*
X77481428Y-120945714D01*
X77410000Y-121088571D01*
X77338571Y-121160000D01*
X77195714Y-121231428D01*
X76910000Y-121302857D01*
X76552857Y-121302857D01*
X76267142Y-121231428D01*
X76124285Y-121160000D01*
X76052857Y-121088571D01*
X75981428Y-120945714D01*
X75981428Y-120802857D01*
X76052857Y-120660000D01*
X76124285Y-120588571D01*
X76267142Y-120517142D01*
X76552857Y-120445714D01*
X76910000Y-120445714D01*
X77195714Y-120517142D01*
X77338571Y-120588571D01*
X77410000Y-120660000D01*
X77481428Y-120802857D01*
X77481428Y-122231428D02*
X77481428Y-122374285D01*
X77410000Y-122517142D01*
X77338571Y-122588571D01*
X77195714Y-122660000D01*
X76910000Y-122731428D01*
X76552857Y-122731428D01*
X76267142Y-122660000D01*
X76124285Y-122588571D01*
X76052857Y-122517142D01*
X75981428Y-122374285D01*
X75981428Y-122231428D01*
X76052857Y-122088571D01*
X76124285Y-122017142D01*
X76267142Y-121945714D01*
X76552857Y-121874285D01*
X76910000Y-121874285D01*
X77195714Y-121945714D01*
X77338571Y-122017142D01*
X77410000Y-122088571D01*
X77481428Y-122231428D01*
X75981428Y-124517142D02*
X76981428Y-124517142D01*
X76838571Y-124517142D02*
X76910000Y-124588571D01*
X76981428Y-124731428D01*
X76981428Y-124945714D01*
X76910000Y-125088571D01*
X76767142Y-125160000D01*
X75981428Y-125160000D01*
X76767142Y-125160000D02*
X76910000Y-125231428D01*
X76981428Y-125374285D01*
X76981428Y-125588571D01*
X76910000Y-125731428D01*
X76767142Y-125802857D01*
X75981428Y-125802857D01*
X75981428Y-126517142D02*
X76981428Y-126517142D01*
X76838571Y-126517142D02*
X76910000Y-126588571D01*
X76981428Y-126731428D01*
X76981428Y-126945714D01*
X76910000Y-127088571D01*
X76767142Y-127160000D01*
X75981428Y-127160000D01*
X76767142Y-127160000D02*
X76910000Y-127231428D01*
X76981428Y-127374285D01*
X76981428Y-127588571D01*
X76910000Y-127731428D01*
X76767142Y-127802857D01*
X75981428Y-127802857D01*
X78760000Y-91160000D02*
X78760000Y-152160000D01*
X80760000Y-91160000D02*
X78173579Y-91160000D01*
X80760000Y-152160000D02*
X78173579Y-152160000D01*
X78760000Y-152160000D02*
X78173579Y-151033496D01*
X78760000Y-152160000D02*
X79346421Y-151033496D01*
X78760000Y-91160000D02*
X78173579Y-92286504D01*
X78760000Y-91160000D02*
X79346421Y-92286504D01*
X100831428Y-85738571D02*
X100117142Y-85738571D01*
X100045714Y-86452857D01*
X100117142Y-86381428D01*
X100260000Y-86310000D01*
X100617142Y-86310000D01*
X100760000Y-86381428D01*
X100831428Y-86452857D01*
X100902857Y-86595714D01*
X100902857Y-86952857D01*
X100831428Y-87095714D01*
X100760000Y-87167142D01*
X100617142Y-87238571D01*
X100260000Y-87238571D01*
X100117142Y-87167142D01*
X100045714Y-87095714D01*
X102331428Y-87238571D02*
X101474285Y-87238571D01*
X101902857Y-87238571D02*
X101902857Y-85738571D01*
X101760000Y-85952857D01*
X101617142Y-86095714D01*
X101474285Y-86167142D01*
X102974285Y-87095714D02*
X103045714Y-87167142D01*
X102974285Y-87238571D01*
X102902857Y-87167142D01*
X102974285Y-87095714D01*
X102974285Y-87238571D01*
X103974285Y-85738571D02*
X104117142Y-85738571D01*
X104260000Y-85810000D01*
X104331428Y-85881428D01*
X104402857Y-86024285D01*
X104474285Y-86310000D01*
X104474285Y-86667142D01*
X104402857Y-86952857D01*
X104331428Y-87095714D01*
X104260000Y-87167142D01*
X104117142Y-87238571D01*
X103974285Y-87238571D01*
X103831428Y-87167142D01*
X103760000Y-87095714D01*
X103688571Y-86952857D01*
X103617142Y-86667142D01*
X103617142Y-86310000D01*
X103688571Y-86024285D01*
X103760000Y-85881428D01*
X103831428Y-85810000D01*
X103974285Y-85738571D01*
X105402857Y-85738571D02*
X105545714Y-85738571D01*
X105688571Y-85810000D01*
X105760000Y-85881428D01*
X105831428Y-86024285D01*
X105902857Y-86310000D01*
X105902857Y-86667142D01*
X105831428Y-86952857D01*
X105760000Y-87095714D01*
X105688571Y-87167142D01*
X105545714Y-87238571D01*
X105402857Y-87238571D01*
X105260000Y-87167142D01*
X105188571Y-87095714D01*
X105117142Y-86952857D01*
X105045714Y-86667142D01*
X105045714Y-86310000D01*
X105117142Y-86024285D01*
X105188571Y-85881428D01*
X105260000Y-85810000D01*
X105402857Y-85738571D01*
X106831428Y-85738571D02*
X106974285Y-85738571D01*
X107117142Y-85810000D01*
X107188571Y-85881428D01*
X107260000Y-86024285D01*
X107331428Y-86310000D01*
X107331428Y-86667142D01*
X107260000Y-86952857D01*
X107188571Y-87095714D01*
X107117142Y-87167142D01*
X106974285Y-87238571D01*
X106831428Y-87238571D01*
X106688571Y-87167142D01*
X106617142Y-87095714D01*
X106545714Y-86952857D01*
X106474285Y-86667142D01*
X106474285Y-86310000D01*
X106545714Y-86024285D01*
X106617142Y-85881428D01*
X106688571Y-85810000D01*
X106831428Y-85738571D01*
X109117142Y-87238571D02*
X109117142Y-86238571D01*
X109117142Y-86381428D02*
X109188571Y-86310000D01*
X109331428Y-86238571D01*
X109545714Y-86238571D01*
X109688571Y-86310000D01*
X109760000Y-86452857D01*
X109760000Y-87238571D01*
X109760000Y-86452857D02*
X109831428Y-86310000D01*
X109974285Y-86238571D01*
X110188571Y-86238571D01*
X110331428Y-86310000D01*
X110402857Y-86452857D01*
X110402857Y-87238571D01*
X111117142Y-87238571D02*
X111117142Y-86238571D01*
X111117142Y-86381428D02*
X111188571Y-86310000D01*
X111331428Y-86238571D01*
X111545714Y-86238571D01*
X111688571Y-86310000D01*
X111760000Y-86452857D01*
X111760000Y-87238571D01*
X111760000Y-86452857D02*
X111831428Y-86310000D01*
X111974285Y-86238571D01*
X112188571Y-86238571D01*
X112331428Y-86310000D01*
X112402857Y-86452857D01*
X112402857Y-87238571D01*
X80760000Y-88660000D02*
X131760000Y-88660000D01*
X80760000Y-91160000D02*
X80760000Y-88073579D01*
X131760000Y-91160000D02*
X131760000Y-88073579D01*
X131760000Y-88660000D02*
X130633496Y-89246421D01*
X131760000Y-88660000D02*
X130633496Y-88073579D01*
X80760000Y-88660000D02*
X81886504Y-89246421D01*
X80760000Y-88660000D02*
X81886504Y-88073579D01*
M02*
