G04 #@! TF.GenerationSoftware,KiCad,Pcbnew,(5.1.8)-1*
G04 #@! TF.CreationDate,2021-01-08T18:54:06+01:00*
G04 #@! TF.ProjectId,GBDSO,47424453-4f2e-46b6-9963-61645f706362,rev?*
G04 #@! TF.SameCoordinates,Original*
G04 #@! TF.FileFunction,Profile,NP*
%FSLAX46Y46*%
G04 Gerber Fmt 4.6, Leading zero omitted, Abs format (unit mm)*
G04 Created by KiCad (PCBNEW (5.1.8)-1) date 2021-01-08 18:54:06*
%MOMM*%
%LPD*%
G01*
G04 APERTURE LIST*
G04 #@! TA.AperFunction,Profile*
%ADD10C,0.150000*%
G04 #@! TD*
G04 #@! TA.AperFunction,Profile*
%ADD11C,0.100000*%
G04 #@! TD*
G04 APERTURE END LIST*
D10*
X136414000Y-80772000D02*
G75*
G02*
X138414000Y-80772000I1000000J0D01*
G01*
X138414000Y-74244200D02*
G75*
G02*
X136414000Y-74244200I-1000000J0D01*
G01*
X136414000Y-102311200D02*
G75*
G02*
X138414000Y-102311200I1000000J0D01*
G01*
X138414000Y-95783400D02*
G75*
G02*
X136414000Y-95783400I-1000000J0D01*
G01*
D11*
X165030409Y-88630000D02*
G75*
G03*
X165030409Y-88630000I-1100409J0D01*
G01*
D10*
X138409687Y-123628703D02*
X139409687Y-123628703D01*
X139409687Y-123628703D02*
X139409687Y-130628703D01*
X188420000Y-123630000D02*
X188420000Y-130630000D01*
X189420000Y-123630000D02*
X188420000Y-123630000D01*
X184410000Y-72630000D02*
X189410000Y-72630000D01*
X184410000Y-69630000D02*
X184410000Y-72630000D01*
X136414000Y-122021600D02*
X136410000Y-130330000D01*
X138414000Y-80772000D02*
X138414000Y-95783400D01*
X136410000Y-109900000D02*
X136414000Y-115493800D01*
X138414000Y-102311200D02*
X138410000Y-109900000D01*
X138410000Y-109900000D02*
X138414000Y-115493800D01*
X136414000Y-102311200D02*
X136410000Y-109900000D01*
X136414000Y-80772000D02*
X136414000Y-95783400D01*
X138414000Y-122021600D02*
X138410000Y-123630000D01*
X138414000Y-115493800D02*
G75*
G02*
X136414000Y-115493800I-1000000J0D01*
G01*
X136414000Y-122021600D02*
G75*
G02*
X138414000Y-122021600I1000000J0D01*
G01*
X104370000Y-80820000D02*
X104380000Y-119820000D01*
X104380000Y-119820000D02*
X113390000Y-119820000D01*
X113390000Y-119820000D02*
X113390000Y-130330000D01*
X113390000Y-130330000D02*
X136410000Y-130330000D01*
X136410000Y-70310000D02*
X136414000Y-74244200D01*
X113370000Y-70310000D02*
X136410000Y-70310000D01*
X113370000Y-80820000D02*
X113370000Y-70310000D01*
X104370000Y-80820000D02*
X113370000Y-80820000D01*
D11*
X167570000Y-115170000D02*
G75*
G03*
X167570000Y-115170000I-3650000J0D01*
G01*
D10*
X189420000Y-123630000D02*
X189410000Y-72630000D01*
X188420000Y-130630000D02*
X139410000Y-130630000D01*
X138410000Y-69630000D02*
X138414000Y-74244200D01*
X138410000Y-69630000D02*
X184410000Y-69630000D01*
M02*
