G04 #@! TF.GenerationSoftware,KiCad,Pcbnew,(5.1.6)-1*
G04 #@! TF.CreationDate,2020-06-17T21:22:11+02:00*
G04 #@! TF.ProjectId,GBDSO,47424453-4f2e-46b6-9963-61645f706362,rev?*
G04 #@! TF.SameCoordinates,Original*
G04 #@! TF.FileFunction,Legend,Bot*
G04 #@! TF.FilePolarity,Positive*
%FSLAX46Y46*%
G04 Gerber Fmt 4.6, Leading zero omitted, Abs format (unit mm)*
G04 Created by KiCad (PCBNEW (5.1.6)-1) date 2020-06-17 21:22:11*
%MOMM*%
%LPD*%
G01*
G04 APERTURE LIST*
%ADD10C,0.250000*%
%ADD11C,0.120000*%
%ADD12C,0.150000*%
G04 APERTURE END LIST*
D10*
X113975714Y-90309166D02*
X114785238Y-90309166D01*
X114880476Y-90261547D01*
X114928095Y-90213928D01*
X114975714Y-90118690D01*
X114975714Y-89975833D01*
X114928095Y-89880595D01*
X114594761Y-90309166D02*
X114642380Y-90213928D01*
X114642380Y-90023452D01*
X114594761Y-89928214D01*
X114547142Y-89880595D01*
X114451904Y-89832976D01*
X114166190Y-89832976D01*
X114070952Y-89880595D01*
X114023333Y-89928214D01*
X113975714Y-90023452D01*
X113975714Y-90213928D01*
X114023333Y-90309166D01*
X114642380Y-90785357D02*
X113975714Y-90785357D01*
X113642380Y-90785357D02*
X113690000Y-90737738D01*
X113737619Y-90785357D01*
X113690000Y-90832976D01*
X113642380Y-90785357D01*
X113737619Y-90785357D01*
X113975714Y-91118690D02*
X113975714Y-91499642D01*
X113642380Y-91261547D02*
X114499523Y-91261547D01*
X114594761Y-91309166D01*
X114642380Y-91404404D01*
X114642380Y-91499642D01*
X114642380Y-91832976D02*
X113642380Y-91832976D01*
X114642380Y-92261547D02*
X114118571Y-92261547D01*
X114023333Y-92213928D01*
X113975714Y-92118690D01*
X113975714Y-91975833D01*
X114023333Y-91880595D01*
X114070952Y-91832976D01*
X113975714Y-93166309D02*
X114642380Y-93166309D01*
X113975714Y-92737738D02*
X114499523Y-92737738D01*
X114594761Y-92785357D01*
X114642380Y-92880595D01*
X114642380Y-93023452D01*
X114594761Y-93118690D01*
X114547142Y-93166309D01*
X114642380Y-93642500D02*
X113642380Y-93642500D01*
X114023333Y-93642500D02*
X113975714Y-93737738D01*
X113975714Y-93928214D01*
X114023333Y-94023452D01*
X114070952Y-94071071D01*
X114166190Y-94118690D01*
X114451904Y-94118690D01*
X114547142Y-94071071D01*
X114594761Y-94023452D01*
X114642380Y-93928214D01*
X114642380Y-93737738D01*
X114594761Y-93642500D01*
X114547142Y-94547261D02*
X114594761Y-94594880D01*
X114642380Y-94547261D01*
X114594761Y-94499642D01*
X114547142Y-94547261D01*
X114642380Y-94547261D01*
X114594761Y-95452023D02*
X114642380Y-95356785D01*
X114642380Y-95166309D01*
X114594761Y-95071071D01*
X114547142Y-95023452D01*
X114451904Y-94975833D01*
X114166190Y-94975833D01*
X114070952Y-95023452D01*
X114023333Y-95071071D01*
X113975714Y-95166309D01*
X113975714Y-95356785D01*
X114023333Y-95452023D01*
X114642380Y-96023452D02*
X114594761Y-95928214D01*
X114547142Y-95880595D01*
X114451904Y-95832976D01*
X114166190Y-95832976D01*
X114070952Y-95880595D01*
X114023333Y-95928214D01*
X113975714Y-96023452D01*
X113975714Y-96166309D01*
X114023333Y-96261547D01*
X114070952Y-96309166D01*
X114166190Y-96356785D01*
X114451904Y-96356785D01*
X114547142Y-96309166D01*
X114594761Y-96261547D01*
X114642380Y-96166309D01*
X114642380Y-96023452D01*
X114642380Y-96785357D02*
X113975714Y-96785357D01*
X114070952Y-96785357D02*
X114023333Y-96832976D01*
X113975714Y-96928214D01*
X113975714Y-97071071D01*
X114023333Y-97166309D01*
X114118571Y-97213928D01*
X114642380Y-97213928D01*
X114118571Y-97213928D02*
X114023333Y-97261547D01*
X113975714Y-97356785D01*
X113975714Y-97499642D01*
X114023333Y-97594880D01*
X114118571Y-97642499D01*
X114642380Y-97642499D01*
X113594761Y-98832976D02*
X114880476Y-97975833D01*
X113975714Y-99166309D02*
X114975714Y-99166309D01*
X114023333Y-99166309D02*
X113975714Y-99261547D01*
X113975714Y-99452023D01*
X114023333Y-99547261D01*
X114070952Y-99594880D01*
X114166190Y-99642499D01*
X114451904Y-99642499D01*
X114547142Y-99594880D01*
X114594761Y-99547261D01*
X114642380Y-99452023D01*
X114642380Y-99261547D01*
X114594761Y-99166309D01*
X113975714Y-99975833D02*
X114642380Y-100213928D01*
X113975714Y-100452023D02*
X114642380Y-100213928D01*
X114880476Y-100118690D01*
X114928095Y-100071071D01*
X114975714Y-99975833D01*
X114642380Y-100832976D02*
X113975714Y-100832976D01*
X114166190Y-100832976D02*
X114070952Y-100880595D01*
X114023333Y-100928214D01*
X113975714Y-101023452D01*
X113975714Y-101118690D01*
X114642380Y-101594880D02*
X114594761Y-101499642D01*
X114547142Y-101452023D01*
X114451904Y-101404404D01*
X114166190Y-101404404D01*
X114070952Y-101452023D01*
X114023333Y-101499642D01*
X113975714Y-101594880D01*
X113975714Y-101737738D01*
X114023333Y-101832976D01*
X114070952Y-101880595D01*
X114166190Y-101928214D01*
X114451904Y-101928214D01*
X114547142Y-101880595D01*
X114594761Y-101832976D01*
X114642380Y-101737738D01*
X114642380Y-101594880D01*
X114594761Y-102737738D02*
X114642380Y-102642499D01*
X114642380Y-102452023D01*
X114594761Y-102356785D01*
X114499523Y-102309166D01*
X114118571Y-102309166D01*
X114023333Y-102356785D01*
X113975714Y-102452023D01*
X113975714Y-102642499D01*
X114023333Y-102737738D01*
X114118571Y-102785357D01*
X114213809Y-102785357D01*
X114309047Y-102309166D01*
X114594761Y-103166309D02*
X114642380Y-103261547D01*
X114642380Y-103452023D01*
X114594761Y-103547261D01*
X114499523Y-103594880D01*
X114451904Y-103594880D01*
X114356666Y-103547261D01*
X114309047Y-103452023D01*
X114309047Y-103309166D01*
X114261428Y-103213928D01*
X114166190Y-103166309D01*
X114118571Y-103166309D01*
X114023333Y-103213928D01*
X113975714Y-103309166D01*
X113975714Y-103452023D01*
X114023333Y-103547261D01*
X113975714Y-104023452D02*
X114975714Y-104023452D01*
X114023333Y-104023452D02*
X113975714Y-104118690D01*
X113975714Y-104309166D01*
X114023333Y-104404404D01*
X114070952Y-104452023D01*
X114166190Y-104499642D01*
X114451904Y-104499642D01*
X114547142Y-104452023D01*
X114594761Y-104404404D01*
X114642380Y-104309166D01*
X114642380Y-104118690D01*
X114594761Y-104023452D01*
X113594761Y-105642499D02*
X114880476Y-104785357D01*
X113690000Y-106499642D02*
X113642380Y-106404404D01*
X113642380Y-106261547D01*
X113690000Y-106118690D01*
X113785238Y-106023452D01*
X113880476Y-105975833D01*
X114070952Y-105928214D01*
X114213809Y-105928214D01*
X114404285Y-105975833D01*
X114499523Y-106023452D01*
X114594761Y-106118690D01*
X114642380Y-106261547D01*
X114642380Y-106356785D01*
X114594761Y-106499642D01*
X114547142Y-106547261D01*
X114213809Y-106547261D01*
X114213809Y-106356785D01*
X114118571Y-107309166D02*
X114166190Y-107452023D01*
X114213809Y-107499642D01*
X114309047Y-107547261D01*
X114451904Y-107547261D01*
X114547142Y-107499642D01*
X114594761Y-107452023D01*
X114642380Y-107356785D01*
X114642380Y-106975833D01*
X113642380Y-106975833D01*
X113642380Y-107309166D01*
X113690000Y-107404404D01*
X113737619Y-107452023D01*
X113832857Y-107499642D01*
X113928095Y-107499642D01*
X114023333Y-107452023D01*
X114070952Y-107404404D01*
X114118571Y-107309166D01*
X114118571Y-106975833D01*
X114642380Y-107975833D02*
X113642380Y-107975833D01*
X113642380Y-108213928D01*
X113690000Y-108356785D01*
X113785238Y-108452023D01*
X113880476Y-108499642D01*
X114070952Y-108547261D01*
X114213809Y-108547261D01*
X114404285Y-108499642D01*
X114499523Y-108452023D01*
X114594761Y-108356785D01*
X114642380Y-108213928D01*
X114642380Y-107975833D01*
X114594761Y-108928214D02*
X114642380Y-109071071D01*
X114642380Y-109309166D01*
X114594761Y-109404404D01*
X114547142Y-109452023D01*
X114451904Y-109499642D01*
X114356666Y-109499642D01*
X114261428Y-109452023D01*
X114213809Y-109404404D01*
X114166190Y-109309166D01*
X114118571Y-109118690D01*
X114070952Y-109023452D01*
X114023333Y-108975833D01*
X113928095Y-108928214D01*
X113832857Y-108928214D01*
X113737619Y-108975833D01*
X113690000Y-109023452D01*
X113642380Y-109118690D01*
X113642380Y-109356785D01*
X113690000Y-109499642D01*
X113642380Y-110118690D02*
X113642380Y-110309166D01*
X113690000Y-110404404D01*
X113785238Y-110499642D01*
X113975714Y-110547261D01*
X114309047Y-110547261D01*
X114499523Y-110499642D01*
X114594761Y-110404404D01*
X114642380Y-110309166D01*
X114642380Y-110118690D01*
X114594761Y-110023452D01*
X114499523Y-109928214D01*
X114309047Y-109880595D01*
X113975714Y-109880595D01*
X113785238Y-109928214D01*
X113690000Y-110023452D01*
X113642380Y-110118690D01*
X129947619Y-72105000D02*
X130042857Y-72057380D01*
X130185714Y-72057380D01*
X130328571Y-72105000D01*
X130423809Y-72200238D01*
X130471428Y-72295476D01*
X130519047Y-72485952D01*
X130519047Y-72628809D01*
X130471428Y-72819285D01*
X130423809Y-72914523D01*
X130328571Y-73009761D01*
X130185714Y-73057380D01*
X130090476Y-73057380D01*
X129947619Y-73009761D01*
X129900000Y-72962142D01*
X129900000Y-72628809D01*
X130090476Y-72628809D01*
X129138095Y-72533571D02*
X128995238Y-72581190D01*
X128947619Y-72628809D01*
X128900000Y-72724047D01*
X128900000Y-72866904D01*
X128947619Y-72962142D01*
X128995238Y-73009761D01*
X129090476Y-73057380D01*
X129471428Y-73057380D01*
X129471428Y-72057380D01*
X129138095Y-72057380D01*
X129042857Y-72105000D01*
X128995238Y-72152619D01*
X128947619Y-72247857D01*
X128947619Y-72343095D01*
X128995238Y-72438333D01*
X129042857Y-72485952D01*
X129138095Y-72533571D01*
X129471428Y-72533571D01*
X128471428Y-73057380D02*
X128471428Y-72057380D01*
X128233333Y-72057380D01*
X128090476Y-72105000D01*
X127995238Y-72200238D01*
X127947619Y-72295476D01*
X127900000Y-72485952D01*
X127900000Y-72628809D01*
X127947619Y-72819285D01*
X127995238Y-72914523D01*
X128090476Y-73009761D01*
X128233333Y-73057380D01*
X128471428Y-73057380D01*
X127519047Y-73009761D02*
X127376190Y-73057380D01*
X127138095Y-73057380D01*
X127042857Y-73009761D01*
X126995238Y-72962142D01*
X126947619Y-72866904D01*
X126947619Y-72771666D01*
X126995238Y-72676428D01*
X127042857Y-72628809D01*
X127138095Y-72581190D01*
X127328571Y-72533571D01*
X127423809Y-72485952D01*
X127471428Y-72438333D01*
X127519047Y-72343095D01*
X127519047Y-72247857D01*
X127471428Y-72152619D01*
X127423809Y-72105000D01*
X127328571Y-72057380D01*
X127090476Y-72057380D01*
X126947619Y-72105000D01*
X126328571Y-72057380D02*
X126138095Y-72057380D01*
X126042857Y-72105000D01*
X125947619Y-72200238D01*
X125900000Y-72390714D01*
X125900000Y-72724047D01*
X125947619Y-72914523D01*
X126042857Y-73009761D01*
X126138095Y-73057380D01*
X126328571Y-73057380D01*
X126423809Y-73009761D01*
X126519047Y-72914523D01*
X126566666Y-72724047D01*
X126566666Y-72390714D01*
X126519047Y-72200238D01*
X126423809Y-72105000D01*
X126328571Y-72057380D01*
X124709523Y-72533571D02*
X124376190Y-72533571D01*
X124233333Y-73057380D02*
X124709523Y-73057380D01*
X124709523Y-72057380D01*
X124233333Y-72057380D01*
X123804761Y-73057380D02*
X123804761Y-72057380D01*
X123423809Y-72057380D01*
X123328571Y-72105000D01*
X123280952Y-72152619D01*
X123233333Y-72247857D01*
X123233333Y-72390714D01*
X123280952Y-72485952D01*
X123328571Y-72533571D01*
X123423809Y-72581190D01*
X123804761Y-72581190D01*
X122233333Y-73057380D02*
X122566666Y-72581190D01*
X122804761Y-73057380D02*
X122804761Y-72057380D01*
X122423809Y-72057380D01*
X122328571Y-72105000D01*
X122280952Y-72152619D01*
X122233333Y-72247857D01*
X122233333Y-72390714D01*
X122280952Y-72485952D01*
X122328571Y-72533571D01*
X122423809Y-72581190D01*
X122804761Y-72581190D01*
X121614285Y-72057380D02*
X121423809Y-72057380D01*
X121328571Y-72105000D01*
X121233333Y-72200238D01*
X121185714Y-72390714D01*
X121185714Y-72724047D01*
X121233333Y-72914523D01*
X121328571Y-73009761D01*
X121423809Y-73057380D01*
X121614285Y-73057380D01*
X121709523Y-73009761D01*
X121804761Y-72914523D01*
X121852380Y-72724047D01*
X121852380Y-72390714D01*
X121804761Y-72200238D01*
X121709523Y-72105000D01*
X121614285Y-72057380D01*
X120757142Y-73057380D02*
X120757142Y-72057380D01*
X120423809Y-72771666D01*
X120090476Y-72057380D01*
X120090476Y-73057380D01*
X131495238Y-74521666D02*
X131019047Y-74521666D01*
X131590476Y-74807380D02*
X131257142Y-73807380D01*
X130923809Y-74807380D01*
X130161904Y-74807380D02*
X130161904Y-73807380D01*
X130161904Y-74759761D02*
X130257142Y-74807380D01*
X130447619Y-74807380D01*
X130542857Y-74759761D01*
X130590476Y-74712142D01*
X130638095Y-74616904D01*
X130638095Y-74331190D01*
X130590476Y-74235952D01*
X130542857Y-74188333D01*
X130447619Y-74140714D01*
X130257142Y-74140714D01*
X130161904Y-74188333D01*
X129257142Y-74807380D02*
X129257142Y-74283571D01*
X129304761Y-74188333D01*
X129400000Y-74140714D01*
X129590476Y-74140714D01*
X129685714Y-74188333D01*
X129257142Y-74759761D02*
X129352380Y-74807380D01*
X129590476Y-74807380D01*
X129685714Y-74759761D01*
X129733333Y-74664523D01*
X129733333Y-74569285D01*
X129685714Y-74474047D01*
X129590476Y-74426428D01*
X129352380Y-74426428D01*
X129257142Y-74378809D01*
X128780952Y-74140714D02*
X128780952Y-75140714D01*
X128780952Y-74188333D02*
X128685714Y-74140714D01*
X128495238Y-74140714D01*
X128400000Y-74188333D01*
X128352380Y-74235952D01*
X128304761Y-74331190D01*
X128304761Y-74616904D01*
X128352380Y-74712142D01*
X128400000Y-74759761D01*
X128495238Y-74807380D01*
X128685714Y-74807380D01*
X128780952Y-74759761D01*
X128019047Y-74140714D02*
X127638095Y-74140714D01*
X127876190Y-73807380D02*
X127876190Y-74664523D01*
X127828571Y-74759761D01*
X127733333Y-74807380D01*
X127638095Y-74807380D01*
X126923809Y-74759761D02*
X127019047Y-74807380D01*
X127209523Y-74807380D01*
X127304761Y-74759761D01*
X127352380Y-74664523D01*
X127352380Y-74283571D01*
X127304761Y-74188333D01*
X127209523Y-74140714D01*
X127019047Y-74140714D01*
X126923809Y-74188333D01*
X126876190Y-74283571D01*
X126876190Y-74378809D01*
X127352380Y-74474047D01*
X126447619Y-74807380D02*
X126447619Y-74140714D01*
X126447619Y-74331190D02*
X126400000Y-74235952D01*
X126352380Y-74188333D01*
X126257142Y-74140714D01*
X126161904Y-74140714D01*
X124733333Y-74283571D02*
X124590476Y-74331190D01*
X124542857Y-74378809D01*
X124495238Y-74474047D01*
X124495238Y-74616904D01*
X124542857Y-74712142D01*
X124590476Y-74759761D01*
X124685714Y-74807380D01*
X125066666Y-74807380D01*
X125066666Y-73807380D01*
X124733333Y-73807380D01*
X124638095Y-73855000D01*
X124590476Y-73902619D01*
X124542857Y-73997857D01*
X124542857Y-74093095D01*
X124590476Y-74188333D01*
X124638095Y-74235952D01*
X124733333Y-74283571D01*
X125066666Y-74283571D01*
X123923809Y-74807380D02*
X124019047Y-74759761D01*
X124066666Y-74712142D01*
X124114285Y-74616904D01*
X124114285Y-74331190D01*
X124066666Y-74235952D01*
X124019047Y-74188333D01*
X123923809Y-74140714D01*
X123780952Y-74140714D01*
X123685714Y-74188333D01*
X123638095Y-74235952D01*
X123590476Y-74331190D01*
X123590476Y-74616904D01*
X123638095Y-74712142D01*
X123685714Y-74759761D01*
X123780952Y-74807380D01*
X123923809Y-74807380D01*
X122733333Y-74807380D02*
X122733333Y-74283571D01*
X122780952Y-74188333D01*
X122876190Y-74140714D01*
X123066666Y-74140714D01*
X123161904Y-74188333D01*
X122733333Y-74759761D02*
X122828571Y-74807380D01*
X123066666Y-74807380D01*
X123161904Y-74759761D01*
X123209523Y-74664523D01*
X123209523Y-74569285D01*
X123161904Y-74474047D01*
X123066666Y-74426428D01*
X122828571Y-74426428D01*
X122733333Y-74378809D01*
X122257142Y-74807380D02*
X122257142Y-74140714D01*
X122257142Y-74331190D02*
X122209523Y-74235952D01*
X122161904Y-74188333D01*
X122066666Y-74140714D01*
X121971428Y-74140714D01*
X121209523Y-74807380D02*
X121209523Y-73807380D01*
X121209523Y-74759761D02*
X121304761Y-74807380D01*
X121495238Y-74807380D01*
X121590476Y-74759761D01*
X121638095Y-74712142D01*
X121685714Y-74616904D01*
X121685714Y-74331190D01*
X121638095Y-74235952D01*
X121590476Y-74188333D01*
X121495238Y-74140714D01*
X121304761Y-74140714D01*
X121209523Y-74188333D01*
X120114285Y-74140714D02*
X119733333Y-74140714D01*
X119971428Y-74807380D02*
X119971428Y-73950238D01*
X119923809Y-73855000D01*
X119828571Y-73807380D01*
X119733333Y-73807380D01*
X119257142Y-74807380D02*
X119352380Y-74759761D01*
X119400000Y-74712142D01*
X119447619Y-74616904D01*
X119447619Y-74331190D01*
X119400000Y-74235952D01*
X119352380Y-74188333D01*
X119257142Y-74140714D01*
X119114285Y-74140714D01*
X119019047Y-74188333D01*
X118971428Y-74235952D01*
X118923809Y-74331190D01*
X118923809Y-74616904D01*
X118971428Y-74712142D01*
X119019047Y-74759761D01*
X119114285Y-74807380D01*
X119257142Y-74807380D01*
X118495238Y-74807380D02*
X118495238Y-74140714D01*
X118495238Y-74331190D02*
X118447619Y-74235952D01*
X118400000Y-74188333D01*
X118304761Y-74140714D01*
X118209523Y-74140714D01*
X129209523Y-76557380D02*
X129209523Y-75557380D01*
X128828571Y-75557380D01*
X128733333Y-75605000D01*
X128685714Y-75652619D01*
X128638095Y-75747857D01*
X128638095Y-75890714D01*
X128685714Y-75985952D01*
X128733333Y-76033571D01*
X128828571Y-76081190D01*
X129209523Y-76081190D01*
X128209523Y-76557380D02*
X128209523Y-75890714D01*
X128209523Y-76081190D02*
X128161904Y-75985952D01*
X128114285Y-75938333D01*
X128019047Y-75890714D01*
X127923809Y-75890714D01*
X127447619Y-76557380D02*
X127542857Y-76509761D01*
X127590476Y-76462142D01*
X127638095Y-76366904D01*
X127638095Y-76081190D01*
X127590476Y-75985952D01*
X127542857Y-75938333D01*
X127447619Y-75890714D01*
X127304761Y-75890714D01*
X127209523Y-75938333D01*
X127161904Y-75985952D01*
X127114285Y-76081190D01*
X127114285Y-76366904D01*
X127161904Y-76462142D01*
X127209523Y-76509761D01*
X127304761Y-76557380D01*
X127447619Y-76557380D01*
X126257142Y-75890714D02*
X126257142Y-76700238D01*
X126304761Y-76795476D01*
X126352380Y-76843095D01*
X126447619Y-76890714D01*
X126590476Y-76890714D01*
X126685714Y-76843095D01*
X126257142Y-76509761D02*
X126352380Y-76557380D01*
X126542857Y-76557380D01*
X126638095Y-76509761D01*
X126685714Y-76462142D01*
X126733333Y-76366904D01*
X126733333Y-76081190D01*
X126685714Y-75985952D01*
X126638095Y-75938333D01*
X126542857Y-75890714D01*
X126352380Y-75890714D01*
X126257142Y-75938333D01*
X125780952Y-76557380D02*
X125780952Y-75890714D01*
X125780952Y-76081190D02*
X125733333Y-75985952D01*
X125685714Y-75938333D01*
X125590476Y-75890714D01*
X125495238Y-75890714D01*
X124733333Y-76557380D02*
X124733333Y-76033571D01*
X124780952Y-75938333D01*
X124876190Y-75890714D01*
X125066666Y-75890714D01*
X125161904Y-75938333D01*
X124733333Y-76509761D02*
X124828571Y-76557380D01*
X125066666Y-76557380D01*
X125161904Y-76509761D01*
X125209523Y-76414523D01*
X125209523Y-76319285D01*
X125161904Y-76224047D01*
X125066666Y-76176428D01*
X124828571Y-76176428D01*
X124733333Y-76128809D01*
X124257142Y-76557380D02*
X124257142Y-75890714D01*
X124257142Y-75985952D02*
X124209523Y-75938333D01*
X124114285Y-75890714D01*
X123971428Y-75890714D01*
X123876190Y-75938333D01*
X123828571Y-76033571D01*
X123828571Y-76557380D01*
X123828571Y-76033571D02*
X123780952Y-75938333D01*
X123685714Y-75890714D01*
X123542857Y-75890714D01*
X123447619Y-75938333D01*
X123400000Y-76033571D01*
X123400000Y-76557380D01*
X122923809Y-76557380D02*
X122923809Y-75890714D01*
X122923809Y-75985952D02*
X122876190Y-75938333D01*
X122780952Y-75890714D01*
X122638095Y-75890714D01*
X122542857Y-75938333D01*
X122495238Y-76033571D01*
X122495238Y-76557380D01*
X122495238Y-76033571D02*
X122447619Y-75938333D01*
X122352380Y-75890714D01*
X122209523Y-75890714D01*
X122114285Y-75938333D01*
X122066666Y-76033571D01*
X122066666Y-76557380D01*
X121209523Y-76509761D02*
X121304761Y-76557380D01*
X121495238Y-76557380D01*
X121590476Y-76509761D01*
X121638095Y-76414523D01*
X121638095Y-76033571D01*
X121590476Y-75938333D01*
X121495238Y-75890714D01*
X121304761Y-75890714D01*
X121209523Y-75938333D01*
X121161904Y-76033571D01*
X121161904Y-76128809D01*
X121638095Y-76224047D01*
X120733333Y-76557380D02*
X120733333Y-75890714D01*
X120733333Y-76081190D02*
X120685714Y-75985952D01*
X120638095Y-75938333D01*
X120542857Y-75890714D01*
X120447619Y-75890714D01*
X128900000Y-79771666D02*
X128423809Y-79771666D01*
X128995238Y-80057380D02*
X128661904Y-79057380D01*
X128328571Y-80057380D01*
X128138095Y-79057380D02*
X127566666Y-79057380D01*
X127852380Y-80057380D02*
X127852380Y-79057380D01*
X127280952Y-79152619D02*
X127233333Y-79105000D01*
X127138095Y-79057380D01*
X126900000Y-79057380D01*
X126804761Y-79105000D01*
X126757142Y-79152619D01*
X126709523Y-79247857D01*
X126709523Y-79343095D01*
X126757142Y-79485952D01*
X127328571Y-80057380D01*
X126709523Y-80057380D01*
X126376190Y-79057380D02*
X125709523Y-79057380D01*
X126138095Y-80057380D01*
X124757142Y-79962142D02*
X124804761Y-80009761D01*
X124947619Y-80057380D01*
X125042857Y-80057380D01*
X125185714Y-80009761D01*
X125280952Y-79914523D01*
X125328571Y-79819285D01*
X125376190Y-79628809D01*
X125376190Y-79485952D01*
X125328571Y-79295476D01*
X125280952Y-79200238D01*
X125185714Y-79105000D01*
X125042857Y-79057380D01*
X124947619Y-79057380D01*
X124804761Y-79105000D01*
X124757142Y-79152619D01*
X124376190Y-79152619D02*
X124328571Y-79105000D01*
X124233333Y-79057380D01*
X123995238Y-79057380D01*
X123900000Y-79105000D01*
X123852380Y-79152619D01*
X123804761Y-79247857D01*
X123804761Y-79343095D01*
X123852380Y-79485952D01*
X124423809Y-80057380D01*
X123804761Y-80057380D01*
X122900000Y-79057380D02*
X123376190Y-79057380D01*
X123423809Y-79533571D01*
X123376190Y-79485952D01*
X123280952Y-79438333D01*
X123042857Y-79438333D01*
X122947619Y-79485952D01*
X122900000Y-79533571D01*
X122852380Y-79628809D01*
X122852380Y-79866904D01*
X122900000Y-79962142D01*
X122947619Y-80009761D01*
X123042857Y-80057380D01*
X123280952Y-80057380D01*
X123376190Y-80009761D01*
X123423809Y-79962142D01*
X121995238Y-79057380D02*
X122185714Y-79057380D01*
X122280952Y-79105000D01*
X122328571Y-79152619D01*
X122423809Y-79295476D01*
X122471428Y-79485952D01*
X122471428Y-79866904D01*
X122423809Y-79962142D01*
X122376190Y-80009761D01*
X122280952Y-80057380D01*
X122090476Y-80057380D01*
X121995238Y-80009761D01*
X121947619Y-79962142D01*
X121900000Y-79866904D01*
X121900000Y-79628809D01*
X121947619Y-79533571D01*
X121995238Y-79485952D01*
X122090476Y-79438333D01*
X122280952Y-79438333D01*
X122376190Y-79485952D01*
X122423809Y-79533571D01*
X122471428Y-79628809D01*
X120900000Y-80057380D02*
X121233333Y-79581190D01*
X121471428Y-80057380D02*
X121471428Y-79057380D01*
X121090476Y-79057380D01*
X120995238Y-79105000D01*
X120947619Y-79152619D01*
X120900000Y-79247857D01*
X120900000Y-79390714D01*
X120947619Y-79485952D01*
X120995238Y-79533571D01*
X121090476Y-79581190D01*
X121471428Y-79581190D01*
X132209523Y-81807380D02*
X132209523Y-80807380D01*
X131828571Y-80807380D01*
X131733333Y-80855000D01*
X131685714Y-80902619D01*
X131638095Y-80997857D01*
X131638095Y-81140714D01*
X131685714Y-81235952D01*
X131733333Y-81283571D01*
X131828571Y-81331190D01*
X132209523Y-81331190D01*
X130733333Y-81807380D02*
X131209523Y-81807380D01*
X131209523Y-80807380D01*
X129828571Y-81712142D02*
X129876190Y-81759761D01*
X130019047Y-81807380D01*
X130114285Y-81807380D01*
X130257142Y-81759761D01*
X130352380Y-81664523D01*
X130400000Y-81569285D01*
X130447619Y-81378809D01*
X130447619Y-81235952D01*
X130400000Y-81045476D01*
X130352380Y-80950238D01*
X130257142Y-80855000D01*
X130114285Y-80807380D01*
X130019047Y-80807380D01*
X129876190Y-80855000D01*
X129828571Y-80902619D01*
X128828571Y-81712142D02*
X128876190Y-81759761D01*
X129019047Y-81807380D01*
X129114285Y-81807380D01*
X129257142Y-81759761D01*
X129352380Y-81664523D01*
X129400000Y-81569285D01*
X129447619Y-81378809D01*
X129447619Y-81235952D01*
X129400000Y-81045476D01*
X129352380Y-80950238D01*
X129257142Y-80855000D01*
X129114285Y-80807380D01*
X129019047Y-80807380D01*
X128876190Y-80855000D01*
X128828571Y-80902619D01*
X128495238Y-80807380D02*
X127876190Y-80807380D01*
X128209523Y-81188333D01*
X128066666Y-81188333D01*
X127971428Y-81235952D01*
X127923809Y-81283571D01*
X127876190Y-81378809D01*
X127876190Y-81616904D01*
X127923809Y-81712142D01*
X127971428Y-81759761D01*
X128066666Y-81807380D01*
X128352380Y-81807380D01*
X128447619Y-81759761D01*
X128495238Y-81712142D01*
X127495238Y-80902619D02*
X127447619Y-80855000D01*
X127352380Y-80807380D01*
X127114285Y-80807380D01*
X127019047Y-80855000D01*
X126971428Y-80902619D01*
X126923809Y-80997857D01*
X126923809Y-81093095D01*
X126971428Y-81235952D01*
X127542857Y-81807380D01*
X126923809Y-81807380D01*
X125733333Y-81426428D02*
X124971428Y-81426428D01*
X124495238Y-81140714D02*
X123733333Y-81426428D01*
X124495238Y-81712142D01*
X122495238Y-81807380D02*
X122495238Y-80807380D01*
X122114285Y-80807380D01*
X122019047Y-80855000D01*
X121971428Y-80902619D01*
X121923809Y-80997857D01*
X121923809Y-81140714D01*
X121971428Y-81235952D01*
X122019047Y-81283571D01*
X122114285Y-81331190D01*
X122495238Y-81331190D01*
X121495238Y-81807380D02*
X121495238Y-80807380D01*
X121257142Y-80807380D01*
X121114285Y-80855000D01*
X121019047Y-80950238D01*
X120971428Y-81045476D01*
X120923809Y-81235952D01*
X120923809Y-81378809D01*
X120971428Y-81569285D01*
X121019047Y-81664523D01*
X121114285Y-81759761D01*
X121257142Y-81807380D01*
X121495238Y-81807380D01*
X120495238Y-81807380D02*
X120495238Y-80807380D01*
X120019047Y-81807380D02*
X120019047Y-80807380D01*
X119638095Y-80807380D01*
X119542857Y-80855000D01*
X119495238Y-80902619D01*
X119447619Y-80997857D01*
X119447619Y-81140714D01*
X119495238Y-81235952D01*
X119542857Y-81283571D01*
X119638095Y-81331190D01*
X120019047Y-81331190D01*
X119066666Y-80902619D02*
X119019047Y-80855000D01*
X118923809Y-80807380D01*
X118685714Y-80807380D01*
X118590476Y-80855000D01*
X118542857Y-80902619D01*
X118495238Y-80997857D01*
X118495238Y-81093095D01*
X118542857Y-81235952D01*
X119114285Y-81807380D01*
X118495238Y-81807380D01*
X117923809Y-81235952D02*
X118019047Y-81188333D01*
X118066666Y-81140714D01*
X118114285Y-81045476D01*
X118114285Y-80997857D01*
X118066666Y-80902619D01*
X118019047Y-80855000D01*
X117923809Y-80807380D01*
X117733333Y-80807380D01*
X117638095Y-80855000D01*
X117590476Y-80902619D01*
X117542857Y-80997857D01*
X117542857Y-81045476D01*
X117590476Y-81140714D01*
X117638095Y-81188333D01*
X117733333Y-81235952D01*
X117923809Y-81235952D01*
X118019047Y-81283571D01*
X118066666Y-81331190D01*
X118114285Y-81426428D01*
X118114285Y-81616904D01*
X118066666Y-81712142D01*
X118019047Y-81759761D01*
X117923809Y-81807380D01*
X117733333Y-81807380D01*
X117638095Y-81759761D01*
X117590476Y-81712142D01*
X117542857Y-81616904D01*
X117542857Y-81426428D01*
X117590476Y-81331190D01*
X117638095Y-81283571D01*
X117733333Y-81235952D01*
X187640833Y-119925714D02*
X187640833Y-120735238D01*
X187688452Y-120830476D01*
X187736071Y-120878095D01*
X187831309Y-120925714D01*
X187974166Y-120925714D01*
X188069404Y-120878095D01*
X187640833Y-120544761D02*
X187736071Y-120592380D01*
X187926547Y-120592380D01*
X188021785Y-120544761D01*
X188069404Y-120497142D01*
X188117023Y-120401904D01*
X188117023Y-120116190D01*
X188069404Y-120020952D01*
X188021785Y-119973333D01*
X187926547Y-119925714D01*
X187736071Y-119925714D01*
X187640833Y-119973333D01*
X187164642Y-120592380D02*
X187164642Y-119925714D01*
X187164642Y-119592380D02*
X187212261Y-119640000D01*
X187164642Y-119687619D01*
X187117023Y-119640000D01*
X187164642Y-119592380D01*
X187164642Y-119687619D01*
X186831309Y-119925714D02*
X186450357Y-119925714D01*
X186688452Y-119592380D02*
X186688452Y-120449523D01*
X186640833Y-120544761D01*
X186545595Y-120592380D01*
X186450357Y-120592380D01*
X186117023Y-120592380D02*
X186117023Y-119592380D01*
X185688452Y-120592380D02*
X185688452Y-120068571D01*
X185736071Y-119973333D01*
X185831309Y-119925714D01*
X185974166Y-119925714D01*
X186069404Y-119973333D01*
X186117023Y-120020952D01*
X184783690Y-119925714D02*
X184783690Y-120592380D01*
X185212261Y-119925714D02*
X185212261Y-120449523D01*
X185164642Y-120544761D01*
X185069404Y-120592380D01*
X184926547Y-120592380D01*
X184831309Y-120544761D01*
X184783690Y-120497142D01*
X184307500Y-120592380D02*
X184307500Y-119592380D01*
X184307500Y-119973333D02*
X184212261Y-119925714D01*
X184021785Y-119925714D01*
X183926547Y-119973333D01*
X183878928Y-120020952D01*
X183831309Y-120116190D01*
X183831309Y-120401904D01*
X183878928Y-120497142D01*
X183926547Y-120544761D01*
X184021785Y-120592380D01*
X184212261Y-120592380D01*
X184307500Y-120544761D01*
X183402738Y-120497142D02*
X183355119Y-120544761D01*
X183402738Y-120592380D01*
X183450357Y-120544761D01*
X183402738Y-120497142D01*
X183402738Y-120592380D01*
X182497976Y-120544761D02*
X182593214Y-120592380D01*
X182783690Y-120592380D01*
X182878928Y-120544761D01*
X182926547Y-120497142D01*
X182974166Y-120401904D01*
X182974166Y-120116190D01*
X182926547Y-120020952D01*
X182878928Y-119973333D01*
X182783690Y-119925714D01*
X182593214Y-119925714D01*
X182497976Y-119973333D01*
X181926547Y-120592380D02*
X182021785Y-120544761D01*
X182069404Y-120497142D01*
X182117023Y-120401904D01*
X182117023Y-120116190D01*
X182069404Y-120020952D01*
X182021785Y-119973333D01*
X181926547Y-119925714D01*
X181783690Y-119925714D01*
X181688452Y-119973333D01*
X181640833Y-120020952D01*
X181593214Y-120116190D01*
X181593214Y-120401904D01*
X181640833Y-120497142D01*
X181688452Y-120544761D01*
X181783690Y-120592380D01*
X181926547Y-120592380D01*
X181164642Y-120592380D02*
X181164642Y-119925714D01*
X181164642Y-120020952D02*
X181117023Y-119973333D01*
X181021785Y-119925714D01*
X180878928Y-119925714D01*
X180783690Y-119973333D01*
X180736071Y-120068571D01*
X180736071Y-120592380D01*
X180736071Y-120068571D02*
X180688452Y-119973333D01*
X180593214Y-119925714D01*
X180450357Y-119925714D01*
X180355119Y-119973333D01*
X180307500Y-120068571D01*
X180307500Y-120592380D01*
X179117023Y-119544761D02*
X179974166Y-120830476D01*
X178783690Y-119925714D02*
X178783690Y-120925714D01*
X178783690Y-119973333D02*
X178688452Y-119925714D01*
X178497976Y-119925714D01*
X178402738Y-119973333D01*
X178355119Y-120020952D01*
X178307500Y-120116190D01*
X178307500Y-120401904D01*
X178355119Y-120497142D01*
X178402738Y-120544761D01*
X178497976Y-120592380D01*
X178688452Y-120592380D01*
X178783690Y-120544761D01*
X177974166Y-119925714D02*
X177736071Y-120592380D01*
X177497976Y-119925714D02*
X177736071Y-120592380D01*
X177831309Y-120830476D01*
X177878928Y-120878095D01*
X177974166Y-120925714D01*
X177117023Y-120592380D02*
X177117023Y-119925714D01*
X177117023Y-120116190D02*
X177069404Y-120020952D01*
X177021785Y-119973333D01*
X176926547Y-119925714D01*
X176831309Y-119925714D01*
X176355119Y-120592380D02*
X176450357Y-120544761D01*
X176497976Y-120497142D01*
X176545595Y-120401904D01*
X176545595Y-120116190D01*
X176497976Y-120020952D01*
X176450357Y-119973333D01*
X176355119Y-119925714D01*
X176212261Y-119925714D01*
X176117023Y-119973333D01*
X176069404Y-120020952D01*
X176021785Y-120116190D01*
X176021785Y-120401904D01*
X176069404Y-120497142D01*
X176117023Y-120544761D01*
X176212261Y-120592380D01*
X176355119Y-120592380D01*
X175212261Y-120544761D02*
X175307500Y-120592380D01*
X175497976Y-120592380D01*
X175593214Y-120544761D01*
X175640833Y-120449523D01*
X175640833Y-120068571D01*
X175593214Y-119973333D01*
X175497976Y-119925714D01*
X175307500Y-119925714D01*
X175212261Y-119973333D01*
X175164642Y-120068571D01*
X175164642Y-120163809D01*
X175640833Y-120259047D01*
X174783690Y-120544761D02*
X174688452Y-120592380D01*
X174497976Y-120592380D01*
X174402738Y-120544761D01*
X174355119Y-120449523D01*
X174355119Y-120401904D01*
X174402738Y-120306666D01*
X174497976Y-120259047D01*
X174640833Y-120259047D01*
X174736071Y-120211428D01*
X174783690Y-120116190D01*
X174783690Y-120068571D01*
X174736071Y-119973333D01*
X174640833Y-119925714D01*
X174497976Y-119925714D01*
X174402738Y-119973333D01*
X173926547Y-119925714D02*
X173926547Y-120925714D01*
X173926547Y-119973333D02*
X173831309Y-119925714D01*
X173640833Y-119925714D01*
X173545595Y-119973333D01*
X173497976Y-120020952D01*
X173450357Y-120116190D01*
X173450357Y-120401904D01*
X173497976Y-120497142D01*
X173545595Y-120544761D01*
X173640833Y-120592380D01*
X173831309Y-120592380D01*
X173926547Y-120544761D01*
X172307500Y-119544761D02*
X173164642Y-120830476D01*
X171450357Y-119640000D02*
X171545595Y-119592380D01*
X171688452Y-119592380D01*
X171831309Y-119640000D01*
X171926547Y-119735238D01*
X171974166Y-119830476D01*
X172021785Y-120020952D01*
X172021785Y-120163809D01*
X171974166Y-120354285D01*
X171926547Y-120449523D01*
X171831309Y-120544761D01*
X171688452Y-120592380D01*
X171593214Y-120592380D01*
X171450357Y-120544761D01*
X171402738Y-120497142D01*
X171402738Y-120163809D01*
X171593214Y-120163809D01*
X170640833Y-120068571D02*
X170497976Y-120116190D01*
X170450357Y-120163809D01*
X170402738Y-120259047D01*
X170402738Y-120401904D01*
X170450357Y-120497142D01*
X170497976Y-120544761D01*
X170593214Y-120592380D01*
X170974166Y-120592380D01*
X170974166Y-119592380D01*
X170640833Y-119592380D01*
X170545595Y-119640000D01*
X170497976Y-119687619D01*
X170450357Y-119782857D01*
X170450357Y-119878095D01*
X170497976Y-119973333D01*
X170545595Y-120020952D01*
X170640833Y-120068571D01*
X170974166Y-120068571D01*
X169974166Y-120592380D02*
X169974166Y-119592380D01*
X169736071Y-119592380D01*
X169593214Y-119640000D01*
X169497976Y-119735238D01*
X169450357Y-119830476D01*
X169402738Y-120020952D01*
X169402738Y-120163809D01*
X169450357Y-120354285D01*
X169497976Y-120449523D01*
X169593214Y-120544761D01*
X169736071Y-120592380D01*
X169974166Y-120592380D01*
X169021785Y-120544761D02*
X168878928Y-120592380D01*
X168640833Y-120592380D01*
X168545595Y-120544761D01*
X168497976Y-120497142D01*
X168450357Y-120401904D01*
X168450357Y-120306666D01*
X168497976Y-120211428D01*
X168545595Y-120163809D01*
X168640833Y-120116190D01*
X168831309Y-120068571D01*
X168926547Y-120020952D01*
X168974166Y-119973333D01*
X169021785Y-119878095D01*
X169021785Y-119782857D01*
X168974166Y-119687619D01*
X168926547Y-119640000D01*
X168831309Y-119592380D01*
X168593214Y-119592380D01*
X168450357Y-119640000D01*
X167831309Y-119592380D02*
X167640833Y-119592380D01*
X167545595Y-119640000D01*
X167450357Y-119735238D01*
X167402738Y-119925714D01*
X167402738Y-120259047D01*
X167450357Y-120449523D01*
X167545595Y-120544761D01*
X167640833Y-120592380D01*
X167831309Y-120592380D01*
X167926547Y-120544761D01*
X168021785Y-120449523D01*
X168069404Y-120259047D01*
X168069404Y-119925714D01*
X168021785Y-119735238D01*
X167926547Y-119640000D01*
X167831309Y-119592380D01*
X187615595Y-75260000D02*
X187710833Y-75212380D01*
X187853690Y-75212380D01*
X187996547Y-75260000D01*
X188091785Y-75355238D01*
X188139404Y-75450476D01*
X188187023Y-75640952D01*
X188187023Y-75783809D01*
X188139404Y-75974285D01*
X188091785Y-76069523D01*
X187996547Y-76164761D01*
X187853690Y-76212380D01*
X187758452Y-76212380D01*
X187615595Y-76164761D01*
X187567976Y-76117142D01*
X187567976Y-75783809D01*
X187758452Y-75783809D01*
X186806071Y-75688571D02*
X186663214Y-75736190D01*
X186615595Y-75783809D01*
X186567976Y-75879047D01*
X186567976Y-76021904D01*
X186615595Y-76117142D01*
X186663214Y-76164761D01*
X186758452Y-76212380D01*
X187139404Y-76212380D01*
X187139404Y-75212380D01*
X186806071Y-75212380D01*
X186710833Y-75260000D01*
X186663214Y-75307619D01*
X186615595Y-75402857D01*
X186615595Y-75498095D01*
X186663214Y-75593333D01*
X186710833Y-75640952D01*
X186806071Y-75688571D01*
X187139404Y-75688571D01*
X186139404Y-76212380D02*
X186139404Y-75212380D01*
X185901309Y-75212380D01*
X185758452Y-75260000D01*
X185663214Y-75355238D01*
X185615595Y-75450476D01*
X185567976Y-75640952D01*
X185567976Y-75783809D01*
X185615595Y-75974285D01*
X185663214Y-76069523D01*
X185758452Y-76164761D01*
X185901309Y-76212380D01*
X186139404Y-76212380D01*
X185187023Y-76164761D02*
X185044166Y-76212380D01*
X184806071Y-76212380D01*
X184710833Y-76164761D01*
X184663214Y-76117142D01*
X184615595Y-76021904D01*
X184615595Y-75926666D01*
X184663214Y-75831428D01*
X184710833Y-75783809D01*
X184806071Y-75736190D01*
X184996547Y-75688571D01*
X185091785Y-75640952D01*
X185139404Y-75593333D01*
X185187023Y-75498095D01*
X185187023Y-75402857D01*
X185139404Y-75307619D01*
X185091785Y-75260000D01*
X184996547Y-75212380D01*
X184758452Y-75212380D01*
X184615595Y-75260000D01*
X183996547Y-75212380D02*
X183806071Y-75212380D01*
X183710833Y-75260000D01*
X183615595Y-75355238D01*
X183567976Y-75545714D01*
X183567976Y-75879047D01*
X183615595Y-76069523D01*
X183710833Y-76164761D01*
X183806071Y-76212380D01*
X183996547Y-76212380D01*
X184091785Y-76164761D01*
X184187023Y-76069523D01*
X184234642Y-75879047D01*
X184234642Y-75545714D01*
X184187023Y-75355238D01*
X184091785Y-75260000D01*
X183996547Y-75212380D01*
X182377500Y-76212380D02*
X182377500Y-75212380D01*
X182377500Y-75593333D02*
X182282261Y-75545714D01*
X182091785Y-75545714D01*
X181996547Y-75593333D01*
X181948928Y-75640952D01*
X181901309Y-75736190D01*
X181901309Y-76021904D01*
X181948928Y-76117142D01*
X181996547Y-76164761D01*
X182091785Y-76212380D01*
X182282261Y-76212380D01*
X182377500Y-76164761D01*
X181567976Y-75545714D02*
X181329880Y-76212380D01*
X181091785Y-75545714D02*
X181329880Y-76212380D01*
X181425119Y-76450476D01*
X181472738Y-76498095D01*
X181567976Y-76545714D01*
X179996547Y-76164761D02*
X179853690Y-76212380D01*
X179615595Y-76212380D01*
X179520357Y-76164761D01*
X179472738Y-76117142D01*
X179425119Y-76021904D01*
X179425119Y-75926666D01*
X179472738Y-75831428D01*
X179520357Y-75783809D01*
X179615595Y-75736190D01*
X179806071Y-75688571D01*
X179901309Y-75640952D01*
X179948928Y-75593333D01*
X179996547Y-75498095D01*
X179996547Y-75402857D01*
X179948928Y-75307619D01*
X179901309Y-75260000D01*
X179806071Y-75212380D01*
X179567976Y-75212380D01*
X179425119Y-75260000D01*
X179139404Y-75545714D02*
X178758452Y-75545714D01*
X178996547Y-75212380D02*
X178996547Y-76069523D01*
X178948928Y-76164761D01*
X178853690Y-76212380D01*
X178758452Y-76212380D01*
X178044166Y-76164761D02*
X178139404Y-76212380D01*
X178329880Y-76212380D01*
X178425119Y-76164761D01*
X178472738Y-76069523D01*
X178472738Y-75688571D01*
X178425119Y-75593333D01*
X178329880Y-75545714D01*
X178139404Y-75545714D01*
X178044166Y-75593333D01*
X177996547Y-75688571D01*
X177996547Y-75783809D01*
X178472738Y-75879047D01*
X177663214Y-75545714D02*
X177425119Y-76212380D01*
X177187023Y-75545714D01*
X176425119Y-76164761D02*
X176520357Y-76212380D01*
X176710833Y-76212380D01*
X176806071Y-76164761D01*
X176853690Y-76069523D01*
X176853690Y-75688571D01*
X176806071Y-75593333D01*
X176710833Y-75545714D01*
X176520357Y-75545714D01*
X176425119Y-75593333D01*
X176377500Y-75688571D01*
X176377500Y-75783809D01*
X176853690Y-75879047D01*
X175282261Y-75212380D02*
X175044166Y-76212380D01*
X174853690Y-75498095D01*
X174663214Y-76212380D01*
X174425119Y-75212380D01*
X174044166Y-76212380D02*
X174044166Y-75545714D01*
X174044166Y-75212380D02*
X174091785Y-75260000D01*
X174044166Y-75307619D01*
X173996547Y-75260000D01*
X174044166Y-75212380D01*
X174044166Y-75307619D01*
X173425119Y-76212380D02*
X173520357Y-76164761D01*
X173567976Y-76069523D01*
X173567976Y-75212380D01*
X172901309Y-76212380D02*
X172996547Y-76164761D01*
X173044166Y-76069523D01*
X173044166Y-75212380D01*
X172520357Y-76212380D02*
X172520357Y-75545714D01*
X172520357Y-75212380D02*
X172567976Y-75260000D01*
X172520357Y-75307619D01*
X172472738Y-75260000D01*
X172520357Y-75212380D01*
X172520357Y-75307619D01*
X172091785Y-76164761D02*
X171996547Y-76212380D01*
X171806071Y-76212380D01*
X171710833Y-76164761D01*
X171663214Y-76069523D01*
X171663214Y-76021904D01*
X171710833Y-75926666D01*
X171806071Y-75879047D01*
X171948928Y-75879047D01*
X172044166Y-75831428D01*
X172091785Y-75736190D01*
X172091785Y-75688571D01*
X172044166Y-75593333D01*
X171948928Y-75545714D01*
X171806071Y-75545714D01*
X171710833Y-75593333D01*
X170187023Y-76593333D02*
X170234642Y-76545714D01*
X170329880Y-76402857D01*
X170377500Y-76307619D01*
X170425119Y-76164761D01*
X170472738Y-75926666D01*
X170472738Y-75736190D01*
X170425119Y-75498095D01*
X170377500Y-75355238D01*
X170329880Y-75260000D01*
X170234642Y-75117142D01*
X170187023Y-75069523D01*
X169853690Y-75307619D02*
X169806071Y-75260000D01*
X169710833Y-75212380D01*
X169472738Y-75212380D01*
X169377500Y-75260000D01*
X169329880Y-75307619D01*
X169282261Y-75402857D01*
X169282261Y-75498095D01*
X169329880Y-75640952D01*
X169901309Y-76212380D01*
X169282261Y-76212380D01*
X168663214Y-75212380D02*
X168567976Y-75212380D01*
X168472738Y-75260000D01*
X168425119Y-75307619D01*
X168377500Y-75402857D01*
X168329880Y-75593333D01*
X168329880Y-75831428D01*
X168377500Y-76021904D01*
X168425119Y-76117142D01*
X168472738Y-76164761D01*
X168567976Y-76212380D01*
X168663214Y-76212380D01*
X168758452Y-76164761D01*
X168806071Y-76117142D01*
X168853690Y-76021904D01*
X168901309Y-75831428D01*
X168901309Y-75593333D01*
X168853690Y-75402857D01*
X168806071Y-75307619D01*
X168758452Y-75260000D01*
X168663214Y-75212380D01*
X167710833Y-75212380D02*
X167615595Y-75212380D01*
X167520357Y-75260000D01*
X167472738Y-75307619D01*
X167425119Y-75402857D01*
X167377500Y-75593333D01*
X167377500Y-75831428D01*
X167425119Y-76021904D01*
X167472738Y-76117142D01*
X167520357Y-76164761D01*
X167615595Y-76212380D01*
X167710833Y-76212380D01*
X167806071Y-76164761D01*
X167853690Y-76117142D01*
X167901309Y-76021904D01*
X167948928Y-75831428D01*
X167948928Y-75593333D01*
X167901309Y-75402857D01*
X167853690Y-75307619D01*
X167806071Y-75260000D01*
X167710833Y-75212380D01*
X166758452Y-75212380D02*
X166663214Y-75212380D01*
X166567976Y-75260000D01*
X166520357Y-75307619D01*
X166472738Y-75402857D01*
X166425119Y-75593333D01*
X166425119Y-75831428D01*
X166472738Y-76021904D01*
X166520357Y-76117142D01*
X166567976Y-76164761D01*
X166663214Y-76212380D01*
X166758452Y-76212380D01*
X166853690Y-76164761D01*
X166901309Y-76117142D01*
X166948928Y-76021904D01*
X166996547Y-75831428D01*
X166996547Y-75593333D01*
X166948928Y-75402857D01*
X166901309Y-75307619D01*
X166853690Y-75260000D01*
X166758452Y-75212380D01*
X165282261Y-75164761D02*
X166139404Y-76450476D01*
X164425119Y-76212380D02*
X164996547Y-76212380D01*
X164710833Y-76212380D02*
X164710833Y-75212380D01*
X164806071Y-75355238D01*
X164901309Y-75450476D01*
X164996547Y-75498095D01*
X163806071Y-75212380D02*
X163710833Y-75212380D01*
X163615595Y-75260000D01*
X163567976Y-75307619D01*
X163520357Y-75402857D01*
X163472738Y-75593333D01*
X163472738Y-75831428D01*
X163520357Y-76021904D01*
X163567976Y-76117142D01*
X163615595Y-76164761D01*
X163710833Y-76212380D01*
X163806071Y-76212380D01*
X163901309Y-76164761D01*
X163948928Y-76117142D01*
X163996547Y-76021904D01*
X164044166Y-75831428D01*
X164044166Y-75593333D01*
X163996547Y-75402857D01*
X163948928Y-75307619D01*
X163901309Y-75260000D01*
X163806071Y-75212380D01*
X163139404Y-76593333D02*
X163091785Y-76545714D01*
X162996547Y-76402857D01*
X162948928Y-76307619D01*
X162901309Y-76164761D01*
X162853690Y-75926666D01*
X162853690Y-75736190D01*
X162901309Y-75498095D01*
X162948928Y-75355238D01*
X162996547Y-75260000D01*
X163091785Y-75117142D01*
X163139404Y-75069523D01*
D11*
X144770000Y-120940000D02*
X145370000Y-120940000D01*
X144070000Y-117490000D02*
X144070000Y-120290000D01*
X145370000Y-116840000D02*
X144770000Y-116840000D01*
X146070000Y-120290000D02*
X146070000Y-117490000D01*
X145370000Y-120940000D02*
G75*
G03*
X146070000Y-120240000I0J700000D01*
G01*
X144070000Y-120240000D02*
G75*
G03*
X144770000Y-120940000I700000J0D01*
G01*
X144770000Y-116840000D02*
G75*
G03*
X144070000Y-117540000I0J-700000D01*
G01*
X146070000Y-117540000D02*
G75*
G03*
X145370000Y-116840000I-700000J0D01*
G01*
D12*
X146459285Y-118265000D02*
X146995000Y-118265000D01*
X147102142Y-118229285D01*
X147173571Y-118157857D01*
X147209285Y-118050714D01*
X147209285Y-117979285D01*
X147209285Y-118622142D02*
X146459285Y-118622142D01*
X146459285Y-118907857D01*
X146495000Y-118979285D01*
X146530714Y-119015000D01*
X146602142Y-119050714D01*
X146709285Y-119050714D01*
X146780714Y-119015000D01*
X146816428Y-118979285D01*
X146852142Y-118907857D01*
X146852142Y-118622142D01*
X147209285Y-119765000D02*
X147209285Y-119336428D01*
X147209285Y-119550714D02*
X146459285Y-119550714D01*
X146566428Y-119479285D01*
X146637857Y-119407857D01*
X146673571Y-119336428D01*
X145522380Y-121775714D02*
X145522380Y-121204285D01*
X145522380Y-121490000D02*
X144522380Y-121490000D01*
X144665238Y-121394761D01*
X144760476Y-121299523D01*
X144808095Y-121204285D01*
X144522380Y-115956666D02*
X144522380Y-116575714D01*
X144903333Y-116242380D01*
X144903333Y-116385238D01*
X144950952Y-116480476D01*
X144998571Y-116528095D01*
X145093809Y-116575714D01*
X145331904Y-116575714D01*
X145427142Y-116528095D01*
X145474761Y-116480476D01*
X145522380Y-116385238D01*
X145522380Y-116099523D01*
X145474761Y-116004285D01*
X145427142Y-115956666D01*
M02*
