G04 #@! TF.GenerationSoftware,KiCad,Pcbnew,(5.1.8)-1*
G04 #@! TF.CreationDate,2020-12-25T10:55:44+01:00*
G04 #@! TF.ProjectId,GBDSO,47424453-4f2e-46b6-9963-61645f706362,rev?*
G04 #@! TF.SameCoordinates,Original*
G04 #@! TF.FileFunction,Legend,Bot*
G04 #@! TF.FilePolarity,Positive*
%FSLAX46Y46*%
G04 Gerber Fmt 4.6, Leading zero omitted, Abs format (unit mm)*
G04 Created by KiCad (PCBNEW (5.1.8)-1) date 2020-12-25 10:55:44*
%MOMM*%
%LPD*%
G01*
G04 APERTURE LIST*
%ADD10C,0.250000*%
%ADD11C,0.010000*%
%ADD12C,0.120000*%
%ADD13C,0.150000*%
G04 APERTURE END LIST*
D10*
X113975714Y-90309166D02*
X114785238Y-90309166D01*
X114880476Y-90261547D01*
X114928095Y-90213928D01*
X114975714Y-90118690D01*
X114975714Y-89975833D01*
X114928095Y-89880595D01*
X114594761Y-90309166D02*
X114642380Y-90213928D01*
X114642380Y-90023452D01*
X114594761Y-89928214D01*
X114547142Y-89880595D01*
X114451904Y-89832976D01*
X114166190Y-89832976D01*
X114070952Y-89880595D01*
X114023333Y-89928214D01*
X113975714Y-90023452D01*
X113975714Y-90213928D01*
X114023333Y-90309166D01*
X114642380Y-90785357D02*
X113975714Y-90785357D01*
X113642380Y-90785357D02*
X113690000Y-90737738D01*
X113737619Y-90785357D01*
X113690000Y-90832976D01*
X113642380Y-90785357D01*
X113737619Y-90785357D01*
X113975714Y-91118690D02*
X113975714Y-91499642D01*
X113642380Y-91261547D02*
X114499523Y-91261547D01*
X114594761Y-91309166D01*
X114642380Y-91404404D01*
X114642380Y-91499642D01*
X114642380Y-91832976D02*
X113642380Y-91832976D01*
X114642380Y-92261547D02*
X114118571Y-92261547D01*
X114023333Y-92213928D01*
X113975714Y-92118690D01*
X113975714Y-91975833D01*
X114023333Y-91880595D01*
X114070952Y-91832976D01*
X113975714Y-93166309D02*
X114642380Y-93166309D01*
X113975714Y-92737738D02*
X114499523Y-92737738D01*
X114594761Y-92785357D01*
X114642380Y-92880595D01*
X114642380Y-93023452D01*
X114594761Y-93118690D01*
X114547142Y-93166309D01*
X114642380Y-93642500D02*
X113642380Y-93642500D01*
X114023333Y-93642500D02*
X113975714Y-93737738D01*
X113975714Y-93928214D01*
X114023333Y-94023452D01*
X114070952Y-94071071D01*
X114166190Y-94118690D01*
X114451904Y-94118690D01*
X114547142Y-94071071D01*
X114594761Y-94023452D01*
X114642380Y-93928214D01*
X114642380Y-93737738D01*
X114594761Y-93642500D01*
X114547142Y-94547261D02*
X114594761Y-94594880D01*
X114642380Y-94547261D01*
X114594761Y-94499642D01*
X114547142Y-94547261D01*
X114642380Y-94547261D01*
X114594761Y-95452023D02*
X114642380Y-95356785D01*
X114642380Y-95166309D01*
X114594761Y-95071071D01*
X114547142Y-95023452D01*
X114451904Y-94975833D01*
X114166190Y-94975833D01*
X114070952Y-95023452D01*
X114023333Y-95071071D01*
X113975714Y-95166309D01*
X113975714Y-95356785D01*
X114023333Y-95452023D01*
X114642380Y-96023452D02*
X114594761Y-95928214D01*
X114547142Y-95880595D01*
X114451904Y-95832976D01*
X114166190Y-95832976D01*
X114070952Y-95880595D01*
X114023333Y-95928214D01*
X113975714Y-96023452D01*
X113975714Y-96166309D01*
X114023333Y-96261547D01*
X114070952Y-96309166D01*
X114166190Y-96356785D01*
X114451904Y-96356785D01*
X114547142Y-96309166D01*
X114594761Y-96261547D01*
X114642380Y-96166309D01*
X114642380Y-96023452D01*
X114642380Y-96785357D02*
X113975714Y-96785357D01*
X114070952Y-96785357D02*
X114023333Y-96832976D01*
X113975714Y-96928214D01*
X113975714Y-97071071D01*
X114023333Y-97166309D01*
X114118571Y-97213928D01*
X114642380Y-97213928D01*
X114118571Y-97213928D02*
X114023333Y-97261547D01*
X113975714Y-97356785D01*
X113975714Y-97499642D01*
X114023333Y-97594880D01*
X114118571Y-97642499D01*
X114642380Y-97642499D01*
X113594761Y-98832976D02*
X114880476Y-97975833D01*
X113975714Y-99166309D02*
X114975714Y-99166309D01*
X114023333Y-99166309D02*
X113975714Y-99261547D01*
X113975714Y-99452023D01*
X114023333Y-99547261D01*
X114070952Y-99594880D01*
X114166190Y-99642499D01*
X114451904Y-99642499D01*
X114547142Y-99594880D01*
X114594761Y-99547261D01*
X114642380Y-99452023D01*
X114642380Y-99261547D01*
X114594761Y-99166309D01*
X113975714Y-99975833D02*
X114642380Y-100213928D01*
X113975714Y-100452023D02*
X114642380Y-100213928D01*
X114880476Y-100118690D01*
X114928095Y-100071071D01*
X114975714Y-99975833D01*
X114642380Y-100832976D02*
X113975714Y-100832976D01*
X114166190Y-100832976D02*
X114070952Y-100880595D01*
X114023333Y-100928214D01*
X113975714Y-101023452D01*
X113975714Y-101118690D01*
X114642380Y-101594880D02*
X114594761Y-101499642D01*
X114547142Y-101452023D01*
X114451904Y-101404404D01*
X114166190Y-101404404D01*
X114070952Y-101452023D01*
X114023333Y-101499642D01*
X113975714Y-101594880D01*
X113975714Y-101737738D01*
X114023333Y-101832976D01*
X114070952Y-101880595D01*
X114166190Y-101928214D01*
X114451904Y-101928214D01*
X114547142Y-101880595D01*
X114594761Y-101832976D01*
X114642380Y-101737738D01*
X114642380Y-101594880D01*
X114594761Y-102737738D02*
X114642380Y-102642499D01*
X114642380Y-102452023D01*
X114594761Y-102356785D01*
X114499523Y-102309166D01*
X114118571Y-102309166D01*
X114023333Y-102356785D01*
X113975714Y-102452023D01*
X113975714Y-102642499D01*
X114023333Y-102737738D01*
X114118571Y-102785357D01*
X114213809Y-102785357D01*
X114309047Y-102309166D01*
X114594761Y-103166309D02*
X114642380Y-103261547D01*
X114642380Y-103452023D01*
X114594761Y-103547261D01*
X114499523Y-103594880D01*
X114451904Y-103594880D01*
X114356666Y-103547261D01*
X114309047Y-103452023D01*
X114309047Y-103309166D01*
X114261428Y-103213928D01*
X114166190Y-103166309D01*
X114118571Y-103166309D01*
X114023333Y-103213928D01*
X113975714Y-103309166D01*
X113975714Y-103452023D01*
X114023333Y-103547261D01*
X113975714Y-104023452D02*
X114975714Y-104023452D01*
X114023333Y-104023452D02*
X113975714Y-104118690D01*
X113975714Y-104309166D01*
X114023333Y-104404404D01*
X114070952Y-104452023D01*
X114166190Y-104499642D01*
X114451904Y-104499642D01*
X114547142Y-104452023D01*
X114594761Y-104404404D01*
X114642380Y-104309166D01*
X114642380Y-104118690D01*
X114594761Y-104023452D01*
X113594761Y-105642499D02*
X114880476Y-104785357D01*
X113690000Y-106499642D02*
X113642380Y-106404404D01*
X113642380Y-106261547D01*
X113690000Y-106118690D01*
X113785238Y-106023452D01*
X113880476Y-105975833D01*
X114070952Y-105928214D01*
X114213809Y-105928214D01*
X114404285Y-105975833D01*
X114499523Y-106023452D01*
X114594761Y-106118690D01*
X114642380Y-106261547D01*
X114642380Y-106356785D01*
X114594761Y-106499642D01*
X114547142Y-106547261D01*
X114213809Y-106547261D01*
X114213809Y-106356785D01*
X114118571Y-107309166D02*
X114166190Y-107452023D01*
X114213809Y-107499642D01*
X114309047Y-107547261D01*
X114451904Y-107547261D01*
X114547142Y-107499642D01*
X114594761Y-107452023D01*
X114642380Y-107356785D01*
X114642380Y-106975833D01*
X113642380Y-106975833D01*
X113642380Y-107309166D01*
X113690000Y-107404404D01*
X113737619Y-107452023D01*
X113832857Y-107499642D01*
X113928095Y-107499642D01*
X114023333Y-107452023D01*
X114070952Y-107404404D01*
X114118571Y-107309166D01*
X114118571Y-106975833D01*
X114642380Y-107975833D02*
X113642380Y-107975833D01*
X113642380Y-108213928D01*
X113690000Y-108356785D01*
X113785238Y-108452023D01*
X113880476Y-108499642D01*
X114070952Y-108547261D01*
X114213809Y-108547261D01*
X114404285Y-108499642D01*
X114499523Y-108452023D01*
X114594761Y-108356785D01*
X114642380Y-108213928D01*
X114642380Y-107975833D01*
X114594761Y-108928214D02*
X114642380Y-109071071D01*
X114642380Y-109309166D01*
X114594761Y-109404404D01*
X114547142Y-109452023D01*
X114451904Y-109499642D01*
X114356666Y-109499642D01*
X114261428Y-109452023D01*
X114213809Y-109404404D01*
X114166190Y-109309166D01*
X114118571Y-109118690D01*
X114070952Y-109023452D01*
X114023333Y-108975833D01*
X113928095Y-108928214D01*
X113832857Y-108928214D01*
X113737619Y-108975833D01*
X113690000Y-109023452D01*
X113642380Y-109118690D01*
X113642380Y-109356785D01*
X113690000Y-109499642D01*
X113642380Y-110118690D02*
X113642380Y-110309166D01*
X113690000Y-110404404D01*
X113785238Y-110499642D01*
X113975714Y-110547261D01*
X114309047Y-110547261D01*
X114499523Y-110499642D01*
X114594761Y-110404404D01*
X114642380Y-110309166D01*
X114642380Y-110118690D01*
X114594761Y-110023452D01*
X114499523Y-109928214D01*
X114309047Y-109880595D01*
X113975714Y-109880595D01*
X113785238Y-109928214D01*
X113690000Y-110023452D01*
X113642380Y-110118690D01*
X129947619Y-72105000D02*
X130042857Y-72057380D01*
X130185714Y-72057380D01*
X130328571Y-72105000D01*
X130423809Y-72200238D01*
X130471428Y-72295476D01*
X130519047Y-72485952D01*
X130519047Y-72628809D01*
X130471428Y-72819285D01*
X130423809Y-72914523D01*
X130328571Y-73009761D01*
X130185714Y-73057380D01*
X130090476Y-73057380D01*
X129947619Y-73009761D01*
X129900000Y-72962142D01*
X129900000Y-72628809D01*
X130090476Y-72628809D01*
X129138095Y-72533571D02*
X128995238Y-72581190D01*
X128947619Y-72628809D01*
X128900000Y-72724047D01*
X128900000Y-72866904D01*
X128947619Y-72962142D01*
X128995238Y-73009761D01*
X129090476Y-73057380D01*
X129471428Y-73057380D01*
X129471428Y-72057380D01*
X129138095Y-72057380D01*
X129042857Y-72105000D01*
X128995238Y-72152619D01*
X128947619Y-72247857D01*
X128947619Y-72343095D01*
X128995238Y-72438333D01*
X129042857Y-72485952D01*
X129138095Y-72533571D01*
X129471428Y-72533571D01*
X128471428Y-73057380D02*
X128471428Y-72057380D01*
X128233333Y-72057380D01*
X128090476Y-72105000D01*
X127995238Y-72200238D01*
X127947619Y-72295476D01*
X127900000Y-72485952D01*
X127900000Y-72628809D01*
X127947619Y-72819285D01*
X127995238Y-72914523D01*
X128090476Y-73009761D01*
X128233333Y-73057380D01*
X128471428Y-73057380D01*
X127519047Y-73009761D02*
X127376190Y-73057380D01*
X127138095Y-73057380D01*
X127042857Y-73009761D01*
X126995238Y-72962142D01*
X126947619Y-72866904D01*
X126947619Y-72771666D01*
X126995238Y-72676428D01*
X127042857Y-72628809D01*
X127138095Y-72581190D01*
X127328571Y-72533571D01*
X127423809Y-72485952D01*
X127471428Y-72438333D01*
X127519047Y-72343095D01*
X127519047Y-72247857D01*
X127471428Y-72152619D01*
X127423809Y-72105000D01*
X127328571Y-72057380D01*
X127090476Y-72057380D01*
X126947619Y-72105000D01*
X126328571Y-72057380D02*
X126138095Y-72057380D01*
X126042857Y-72105000D01*
X125947619Y-72200238D01*
X125900000Y-72390714D01*
X125900000Y-72724047D01*
X125947619Y-72914523D01*
X126042857Y-73009761D01*
X126138095Y-73057380D01*
X126328571Y-73057380D01*
X126423809Y-73009761D01*
X126519047Y-72914523D01*
X126566666Y-72724047D01*
X126566666Y-72390714D01*
X126519047Y-72200238D01*
X126423809Y-72105000D01*
X126328571Y-72057380D01*
X124709523Y-72533571D02*
X124376190Y-72533571D01*
X124233333Y-73057380D02*
X124709523Y-73057380D01*
X124709523Y-72057380D01*
X124233333Y-72057380D01*
X123804761Y-73057380D02*
X123804761Y-72057380D01*
X123423809Y-72057380D01*
X123328571Y-72105000D01*
X123280952Y-72152619D01*
X123233333Y-72247857D01*
X123233333Y-72390714D01*
X123280952Y-72485952D01*
X123328571Y-72533571D01*
X123423809Y-72581190D01*
X123804761Y-72581190D01*
X122233333Y-73057380D02*
X122566666Y-72581190D01*
X122804761Y-73057380D02*
X122804761Y-72057380D01*
X122423809Y-72057380D01*
X122328571Y-72105000D01*
X122280952Y-72152619D01*
X122233333Y-72247857D01*
X122233333Y-72390714D01*
X122280952Y-72485952D01*
X122328571Y-72533571D01*
X122423809Y-72581190D01*
X122804761Y-72581190D01*
X121614285Y-72057380D02*
X121423809Y-72057380D01*
X121328571Y-72105000D01*
X121233333Y-72200238D01*
X121185714Y-72390714D01*
X121185714Y-72724047D01*
X121233333Y-72914523D01*
X121328571Y-73009761D01*
X121423809Y-73057380D01*
X121614285Y-73057380D01*
X121709523Y-73009761D01*
X121804761Y-72914523D01*
X121852380Y-72724047D01*
X121852380Y-72390714D01*
X121804761Y-72200238D01*
X121709523Y-72105000D01*
X121614285Y-72057380D01*
X120757142Y-73057380D02*
X120757142Y-72057380D01*
X120423809Y-72771666D01*
X120090476Y-72057380D01*
X120090476Y-73057380D01*
X131495238Y-74521666D02*
X131019047Y-74521666D01*
X131590476Y-74807380D02*
X131257142Y-73807380D01*
X130923809Y-74807380D01*
X130161904Y-74807380D02*
X130161904Y-73807380D01*
X130161904Y-74759761D02*
X130257142Y-74807380D01*
X130447619Y-74807380D01*
X130542857Y-74759761D01*
X130590476Y-74712142D01*
X130638095Y-74616904D01*
X130638095Y-74331190D01*
X130590476Y-74235952D01*
X130542857Y-74188333D01*
X130447619Y-74140714D01*
X130257142Y-74140714D01*
X130161904Y-74188333D01*
X129257142Y-74807380D02*
X129257142Y-74283571D01*
X129304761Y-74188333D01*
X129400000Y-74140714D01*
X129590476Y-74140714D01*
X129685714Y-74188333D01*
X129257142Y-74759761D02*
X129352380Y-74807380D01*
X129590476Y-74807380D01*
X129685714Y-74759761D01*
X129733333Y-74664523D01*
X129733333Y-74569285D01*
X129685714Y-74474047D01*
X129590476Y-74426428D01*
X129352380Y-74426428D01*
X129257142Y-74378809D01*
X128780952Y-74140714D02*
X128780952Y-75140714D01*
X128780952Y-74188333D02*
X128685714Y-74140714D01*
X128495238Y-74140714D01*
X128400000Y-74188333D01*
X128352380Y-74235952D01*
X128304761Y-74331190D01*
X128304761Y-74616904D01*
X128352380Y-74712142D01*
X128400000Y-74759761D01*
X128495238Y-74807380D01*
X128685714Y-74807380D01*
X128780952Y-74759761D01*
X128019047Y-74140714D02*
X127638095Y-74140714D01*
X127876190Y-73807380D02*
X127876190Y-74664523D01*
X127828571Y-74759761D01*
X127733333Y-74807380D01*
X127638095Y-74807380D01*
X126923809Y-74759761D02*
X127019047Y-74807380D01*
X127209523Y-74807380D01*
X127304761Y-74759761D01*
X127352380Y-74664523D01*
X127352380Y-74283571D01*
X127304761Y-74188333D01*
X127209523Y-74140714D01*
X127019047Y-74140714D01*
X126923809Y-74188333D01*
X126876190Y-74283571D01*
X126876190Y-74378809D01*
X127352380Y-74474047D01*
X126447619Y-74807380D02*
X126447619Y-74140714D01*
X126447619Y-74331190D02*
X126400000Y-74235952D01*
X126352380Y-74188333D01*
X126257142Y-74140714D01*
X126161904Y-74140714D01*
X124733333Y-74283571D02*
X124590476Y-74331190D01*
X124542857Y-74378809D01*
X124495238Y-74474047D01*
X124495238Y-74616904D01*
X124542857Y-74712142D01*
X124590476Y-74759761D01*
X124685714Y-74807380D01*
X125066666Y-74807380D01*
X125066666Y-73807380D01*
X124733333Y-73807380D01*
X124638095Y-73855000D01*
X124590476Y-73902619D01*
X124542857Y-73997857D01*
X124542857Y-74093095D01*
X124590476Y-74188333D01*
X124638095Y-74235952D01*
X124733333Y-74283571D01*
X125066666Y-74283571D01*
X123923809Y-74807380D02*
X124019047Y-74759761D01*
X124066666Y-74712142D01*
X124114285Y-74616904D01*
X124114285Y-74331190D01*
X124066666Y-74235952D01*
X124019047Y-74188333D01*
X123923809Y-74140714D01*
X123780952Y-74140714D01*
X123685714Y-74188333D01*
X123638095Y-74235952D01*
X123590476Y-74331190D01*
X123590476Y-74616904D01*
X123638095Y-74712142D01*
X123685714Y-74759761D01*
X123780952Y-74807380D01*
X123923809Y-74807380D01*
X122733333Y-74807380D02*
X122733333Y-74283571D01*
X122780952Y-74188333D01*
X122876190Y-74140714D01*
X123066666Y-74140714D01*
X123161904Y-74188333D01*
X122733333Y-74759761D02*
X122828571Y-74807380D01*
X123066666Y-74807380D01*
X123161904Y-74759761D01*
X123209523Y-74664523D01*
X123209523Y-74569285D01*
X123161904Y-74474047D01*
X123066666Y-74426428D01*
X122828571Y-74426428D01*
X122733333Y-74378809D01*
X122257142Y-74807380D02*
X122257142Y-74140714D01*
X122257142Y-74331190D02*
X122209523Y-74235952D01*
X122161904Y-74188333D01*
X122066666Y-74140714D01*
X121971428Y-74140714D01*
X121209523Y-74807380D02*
X121209523Y-73807380D01*
X121209523Y-74759761D02*
X121304761Y-74807380D01*
X121495238Y-74807380D01*
X121590476Y-74759761D01*
X121638095Y-74712142D01*
X121685714Y-74616904D01*
X121685714Y-74331190D01*
X121638095Y-74235952D01*
X121590476Y-74188333D01*
X121495238Y-74140714D01*
X121304761Y-74140714D01*
X121209523Y-74188333D01*
X120114285Y-74140714D02*
X119733333Y-74140714D01*
X119971428Y-74807380D02*
X119971428Y-73950238D01*
X119923809Y-73855000D01*
X119828571Y-73807380D01*
X119733333Y-73807380D01*
X119257142Y-74807380D02*
X119352380Y-74759761D01*
X119400000Y-74712142D01*
X119447619Y-74616904D01*
X119447619Y-74331190D01*
X119400000Y-74235952D01*
X119352380Y-74188333D01*
X119257142Y-74140714D01*
X119114285Y-74140714D01*
X119019047Y-74188333D01*
X118971428Y-74235952D01*
X118923809Y-74331190D01*
X118923809Y-74616904D01*
X118971428Y-74712142D01*
X119019047Y-74759761D01*
X119114285Y-74807380D01*
X119257142Y-74807380D01*
X118495238Y-74807380D02*
X118495238Y-74140714D01*
X118495238Y-74331190D02*
X118447619Y-74235952D01*
X118400000Y-74188333D01*
X118304761Y-74140714D01*
X118209523Y-74140714D01*
X129209523Y-76557380D02*
X129209523Y-75557380D01*
X128828571Y-75557380D01*
X128733333Y-75605000D01*
X128685714Y-75652619D01*
X128638095Y-75747857D01*
X128638095Y-75890714D01*
X128685714Y-75985952D01*
X128733333Y-76033571D01*
X128828571Y-76081190D01*
X129209523Y-76081190D01*
X128209523Y-76557380D02*
X128209523Y-75890714D01*
X128209523Y-76081190D02*
X128161904Y-75985952D01*
X128114285Y-75938333D01*
X128019047Y-75890714D01*
X127923809Y-75890714D01*
X127447619Y-76557380D02*
X127542857Y-76509761D01*
X127590476Y-76462142D01*
X127638095Y-76366904D01*
X127638095Y-76081190D01*
X127590476Y-75985952D01*
X127542857Y-75938333D01*
X127447619Y-75890714D01*
X127304761Y-75890714D01*
X127209523Y-75938333D01*
X127161904Y-75985952D01*
X127114285Y-76081190D01*
X127114285Y-76366904D01*
X127161904Y-76462142D01*
X127209523Y-76509761D01*
X127304761Y-76557380D01*
X127447619Y-76557380D01*
X126257142Y-75890714D02*
X126257142Y-76700238D01*
X126304761Y-76795476D01*
X126352380Y-76843095D01*
X126447619Y-76890714D01*
X126590476Y-76890714D01*
X126685714Y-76843095D01*
X126257142Y-76509761D02*
X126352380Y-76557380D01*
X126542857Y-76557380D01*
X126638095Y-76509761D01*
X126685714Y-76462142D01*
X126733333Y-76366904D01*
X126733333Y-76081190D01*
X126685714Y-75985952D01*
X126638095Y-75938333D01*
X126542857Y-75890714D01*
X126352380Y-75890714D01*
X126257142Y-75938333D01*
X125780952Y-76557380D02*
X125780952Y-75890714D01*
X125780952Y-76081190D02*
X125733333Y-75985952D01*
X125685714Y-75938333D01*
X125590476Y-75890714D01*
X125495238Y-75890714D01*
X124733333Y-76557380D02*
X124733333Y-76033571D01*
X124780952Y-75938333D01*
X124876190Y-75890714D01*
X125066666Y-75890714D01*
X125161904Y-75938333D01*
X124733333Y-76509761D02*
X124828571Y-76557380D01*
X125066666Y-76557380D01*
X125161904Y-76509761D01*
X125209523Y-76414523D01*
X125209523Y-76319285D01*
X125161904Y-76224047D01*
X125066666Y-76176428D01*
X124828571Y-76176428D01*
X124733333Y-76128809D01*
X124257142Y-76557380D02*
X124257142Y-75890714D01*
X124257142Y-75985952D02*
X124209523Y-75938333D01*
X124114285Y-75890714D01*
X123971428Y-75890714D01*
X123876190Y-75938333D01*
X123828571Y-76033571D01*
X123828571Y-76557380D01*
X123828571Y-76033571D02*
X123780952Y-75938333D01*
X123685714Y-75890714D01*
X123542857Y-75890714D01*
X123447619Y-75938333D01*
X123400000Y-76033571D01*
X123400000Y-76557380D01*
X122923809Y-76557380D02*
X122923809Y-75890714D01*
X122923809Y-75985952D02*
X122876190Y-75938333D01*
X122780952Y-75890714D01*
X122638095Y-75890714D01*
X122542857Y-75938333D01*
X122495238Y-76033571D01*
X122495238Y-76557380D01*
X122495238Y-76033571D02*
X122447619Y-75938333D01*
X122352380Y-75890714D01*
X122209523Y-75890714D01*
X122114285Y-75938333D01*
X122066666Y-76033571D01*
X122066666Y-76557380D01*
X121209523Y-76509761D02*
X121304761Y-76557380D01*
X121495238Y-76557380D01*
X121590476Y-76509761D01*
X121638095Y-76414523D01*
X121638095Y-76033571D01*
X121590476Y-75938333D01*
X121495238Y-75890714D01*
X121304761Y-75890714D01*
X121209523Y-75938333D01*
X121161904Y-76033571D01*
X121161904Y-76128809D01*
X121638095Y-76224047D01*
X120733333Y-76557380D02*
X120733333Y-75890714D01*
X120733333Y-76081190D02*
X120685714Y-75985952D01*
X120638095Y-75938333D01*
X120542857Y-75890714D01*
X120447619Y-75890714D01*
X128900000Y-79771666D02*
X128423809Y-79771666D01*
X128995238Y-80057380D02*
X128661904Y-79057380D01*
X128328571Y-80057380D01*
X128138095Y-79057380D02*
X127566666Y-79057380D01*
X127852380Y-80057380D02*
X127852380Y-79057380D01*
X127280952Y-79152619D02*
X127233333Y-79105000D01*
X127138095Y-79057380D01*
X126900000Y-79057380D01*
X126804761Y-79105000D01*
X126757142Y-79152619D01*
X126709523Y-79247857D01*
X126709523Y-79343095D01*
X126757142Y-79485952D01*
X127328571Y-80057380D01*
X126709523Y-80057380D01*
X126376190Y-79057380D02*
X125709523Y-79057380D01*
X126138095Y-80057380D01*
X124757142Y-79962142D02*
X124804761Y-80009761D01*
X124947619Y-80057380D01*
X125042857Y-80057380D01*
X125185714Y-80009761D01*
X125280952Y-79914523D01*
X125328571Y-79819285D01*
X125376190Y-79628809D01*
X125376190Y-79485952D01*
X125328571Y-79295476D01*
X125280952Y-79200238D01*
X125185714Y-79105000D01*
X125042857Y-79057380D01*
X124947619Y-79057380D01*
X124804761Y-79105000D01*
X124757142Y-79152619D01*
X124376190Y-79152619D02*
X124328571Y-79105000D01*
X124233333Y-79057380D01*
X123995238Y-79057380D01*
X123900000Y-79105000D01*
X123852380Y-79152619D01*
X123804761Y-79247857D01*
X123804761Y-79343095D01*
X123852380Y-79485952D01*
X124423809Y-80057380D01*
X123804761Y-80057380D01*
X122900000Y-79057380D02*
X123376190Y-79057380D01*
X123423809Y-79533571D01*
X123376190Y-79485952D01*
X123280952Y-79438333D01*
X123042857Y-79438333D01*
X122947619Y-79485952D01*
X122900000Y-79533571D01*
X122852380Y-79628809D01*
X122852380Y-79866904D01*
X122900000Y-79962142D01*
X122947619Y-80009761D01*
X123042857Y-80057380D01*
X123280952Y-80057380D01*
X123376190Y-80009761D01*
X123423809Y-79962142D01*
X121995238Y-79057380D02*
X122185714Y-79057380D01*
X122280952Y-79105000D01*
X122328571Y-79152619D01*
X122423809Y-79295476D01*
X122471428Y-79485952D01*
X122471428Y-79866904D01*
X122423809Y-79962142D01*
X122376190Y-80009761D01*
X122280952Y-80057380D01*
X122090476Y-80057380D01*
X121995238Y-80009761D01*
X121947619Y-79962142D01*
X121900000Y-79866904D01*
X121900000Y-79628809D01*
X121947619Y-79533571D01*
X121995238Y-79485952D01*
X122090476Y-79438333D01*
X122280952Y-79438333D01*
X122376190Y-79485952D01*
X122423809Y-79533571D01*
X122471428Y-79628809D01*
X120900000Y-80057380D02*
X121233333Y-79581190D01*
X121471428Y-80057380D02*
X121471428Y-79057380D01*
X121090476Y-79057380D01*
X120995238Y-79105000D01*
X120947619Y-79152619D01*
X120900000Y-79247857D01*
X120900000Y-79390714D01*
X120947619Y-79485952D01*
X120995238Y-79533571D01*
X121090476Y-79581190D01*
X121471428Y-79581190D01*
X132209523Y-81807380D02*
X132209523Y-80807380D01*
X131828571Y-80807380D01*
X131733333Y-80855000D01*
X131685714Y-80902619D01*
X131638095Y-80997857D01*
X131638095Y-81140714D01*
X131685714Y-81235952D01*
X131733333Y-81283571D01*
X131828571Y-81331190D01*
X132209523Y-81331190D01*
X130733333Y-81807380D02*
X131209523Y-81807380D01*
X131209523Y-80807380D01*
X129828571Y-81712142D02*
X129876190Y-81759761D01*
X130019047Y-81807380D01*
X130114285Y-81807380D01*
X130257142Y-81759761D01*
X130352380Y-81664523D01*
X130400000Y-81569285D01*
X130447619Y-81378809D01*
X130447619Y-81235952D01*
X130400000Y-81045476D01*
X130352380Y-80950238D01*
X130257142Y-80855000D01*
X130114285Y-80807380D01*
X130019047Y-80807380D01*
X129876190Y-80855000D01*
X129828571Y-80902619D01*
X128828571Y-81712142D02*
X128876190Y-81759761D01*
X129019047Y-81807380D01*
X129114285Y-81807380D01*
X129257142Y-81759761D01*
X129352380Y-81664523D01*
X129400000Y-81569285D01*
X129447619Y-81378809D01*
X129447619Y-81235952D01*
X129400000Y-81045476D01*
X129352380Y-80950238D01*
X129257142Y-80855000D01*
X129114285Y-80807380D01*
X129019047Y-80807380D01*
X128876190Y-80855000D01*
X128828571Y-80902619D01*
X128495238Y-80807380D02*
X127876190Y-80807380D01*
X128209523Y-81188333D01*
X128066666Y-81188333D01*
X127971428Y-81235952D01*
X127923809Y-81283571D01*
X127876190Y-81378809D01*
X127876190Y-81616904D01*
X127923809Y-81712142D01*
X127971428Y-81759761D01*
X128066666Y-81807380D01*
X128352380Y-81807380D01*
X128447619Y-81759761D01*
X128495238Y-81712142D01*
X127495238Y-80902619D02*
X127447619Y-80855000D01*
X127352380Y-80807380D01*
X127114285Y-80807380D01*
X127019047Y-80855000D01*
X126971428Y-80902619D01*
X126923809Y-80997857D01*
X126923809Y-81093095D01*
X126971428Y-81235952D01*
X127542857Y-81807380D01*
X126923809Y-81807380D01*
X125733333Y-81426428D02*
X124971428Y-81426428D01*
X124495238Y-81140714D02*
X123733333Y-81426428D01*
X124495238Y-81712142D01*
X122495238Y-81807380D02*
X122495238Y-80807380D01*
X122114285Y-80807380D01*
X122019047Y-80855000D01*
X121971428Y-80902619D01*
X121923809Y-80997857D01*
X121923809Y-81140714D01*
X121971428Y-81235952D01*
X122019047Y-81283571D01*
X122114285Y-81331190D01*
X122495238Y-81331190D01*
X121495238Y-81807380D02*
X121495238Y-80807380D01*
X121257142Y-80807380D01*
X121114285Y-80855000D01*
X121019047Y-80950238D01*
X120971428Y-81045476D01*
X120923809Y-81235952D01*
X120923809Y-81378809D01*
X120971428Y-81569285D01*
X121019047Y-81664523D01*
X121114285Y-81759761D01*
X121257142Y-81807380D01*
X121495238Y-81807380D01*
X120495238Y-81807380D02*
X120495238Y-80807380D01*
X120019047Y-81807380D02*
X120019047Y-80807380D01*
X119638095Y-80807380D01*
X119542857Y-80855000D01*
X119495238Y-80902619D01*
X119447619Y-80997857D01*
X119447619Y-81140714D01*
X119495238Y-81235952D01*
X119542857Y-81283571D01*
X119638095Y-81331190D01*
X120019047Y-81331190D01*
X119066666Y-80902619D02*
X119019047Y-80855000D01*
X118923809Y-80807380D01*
X118685714Y-80807380D01*
X118590476Y-80855000D01*
X118542857Y-80902619D01*
X118495238Y-80997857D01*
X118495238Y-81093095D01*
X118542857Y-81235952D01*
X119114285Y-81807380D01*
X118495238Y-81807380D01*
X117923809Y-81235952D02*
X118019047Y-81188333D01*
X118066666Y-81140714D01*
X118114285Y-81045476D01*
X118114285Y-80997857D01*
X118066666Y-80902619D01*
X118019047Y-80855000D01*
X117923809Y-80807380D01*
X117733333Y-80807380D01*
X117638095Y-80855000D01*
X117590476Y-80902619D01*
X117542857Y-80997857D01*
X117542857Y-81045476D01*
X117590476Y-81140714D01*
X117638095Y-81188333D01*
X117733333Y-81235952D01*
X117923809Y-81235952D01*
X118019047Y-81283571D01*
X118066666Y-81331190D01*
X118114285Y-81426428D01*
X118114285Y-81616904D01*
X118066666Y-81712142D01*
X118019047Y-81759761D01*
X117923809Y-81807380D01*
X117733333Y-81807380D01*
X117638095Y-81759761D01*
X117590476Y-81712142D01*
X117542857Y-81616904D01*
X117542857Y-81426428D01*
X117590476Y-81331190D01*
X117638095Y-81283571D01*
X117733333Y-81235952D01*
X187640833Y-119925714D02*
X187640833Y-120735238D01*
X187688452Y-120830476D01*
X187736071Y-120878095D01*
X187831309Y-120925714D01*
X187974166Y-120925714D01*
X188069404Y-120878095D01*
X187640833Y-120544761D02*
X187736071Y-120592380D01*
X187926547Y-120592380D01*
X188021785Y-120544761D01*
X188069404Y-120497142D01*
X188117023Y-120401904D01*
X188117023Y-120116190D01*
X188069404Y-120020952D01*
X188021785Y-119973333D01*
X187926547Y-119925714D01*
X187736071Y-119925714D01*
X187640833Y-119973333D01*
X187164642Y-120592380D02*
X187164642Y-119925714D01*
X187164642Y-119592380D02*
X187212261Y-119640000D01*
X187164642Y-119687619D01*
X187117023Y-119640000D01*
X187164642Y-119592380D01*
X187164642Y-119687619D01*
X186831309Y-119925714D02*
X186450357Y-119925714D01*
X186688452Y-119592380D02*
X186688452Y-120449523D01*
X186640833Y-120544761D01*
X186545595Y-120592380D01*
X186450357Y-120592380D01*
X186117023Y-120592380D02*
X186117023Y-119592380D01*
X185688452Y-120592380D02*
X185688452Y-120068571D01*
X185736071Y-119973333D01*
X185831309Y-119925714D01*
X185974166Y-119925714D01*
X186069404Y-119973333D01*
X186117023Y-120020952D01*
X184783690Y-119925714D02*
X184783690Y-120592380D01*
X185212261Y-119925714D02*
X185212261Y-120449523D01*
X185164642Y-120544761D01*
X185069404Y-120592380D01*
X184926547Y-120592380D01*
X184831309Y-120544761D01*
X184783690Y-120497142D01*
X184307500Y-120592380D02*
X184307500Y-119592380D01*
X184307500Y-119973333D02*
X184212261Y-119925714D01*
X184021785Y-119925714D01*
X183926547Y-119973333D01*
X183878928Y-120020952D01*
X183831309Y-120116190D01*
X183831309Y-120401904D01*
X183878928Y-120497142D01*
X183926547Y-120544761D01*
X184021785Y-120592380D01*
X184212261Y-120592380D01*
X184307500Y-120544761D01*
X183402738Y-120497142D02*
X183355119Y-120544761D01*
X183402738Y-120592380D01*
X183450357Y-120544761D01*
X183402738Y-120497142D01*
X183402738Y-120592380D01*
X182497976Y-120544761D02*
X182593214Y-120592380D01*
X182783690Y-120592380D01*
X182878928Y-120544761D01*
X182926547Y-120497142D01*
X182974166Y-120401904D01*
X182974166Y-120116190D01*
X182926547Y-120020952D01*
X182878928Y-119973333D01*
X182783690Y-119925714D01*
X182593214Y-119925714D01*
X182497976Y-119973333D01*
X181926547Y-120592380D02*
X182021785Y-120544761D01*
X182069404Y-120497142D01*
X182117023Y-120401904D01*
X182117023Y-120116190D01*
X182069404Y-120020952D01*
X182021785Y-119973333D01*
X181926547Y-119925714D01*
X181783690Y-119925714D01*
X181688452Y-119973333D01*
X181640833Y-120020952D01*
X181593214Y-120116190D01*
X181593214Y-120401904D01*
X181640833Y-120497142D01*
X181688452Y-120544761D01*
X181783690Y-120592380D01*
X181926547Y-120592380D01*
X181164642Y-120592380D02*
X181164642Y-119925714D01*
X181164642Y-120020952D02*
X181117023Y-119973333D01*
X181021785Y-119925714D01*
X180878928Y-119925714D01*
X180783690Y-119973333D01*
X180736071Y-120068571D01*
X180736071Y-120592380D01*
X180736071Y-120068571D02*
X180688452Y-119973333D01*
X180593214Y-119925714D01*
X180450357Y-119925714D01*
X180355119Y-119973333D01*
X180307500Y-120068571D01*
X180307500Y-120592380D01*
X179117023Y-119544761D02*
X179974166Y-120830476D01*
X178783690Y-119925714D02*
X178783690Y-120925714D01*
X178783690Y-119973333D02*
X178688452Y-119925714D01*
X178497976Y-119925714D01*
X178402738Y-119973333D01*
X178355119Y-120020952D01*
X178307500Y-120116190D01*
X178307500Y-120401904D01*
X178355119Y-120497142D01*
X178402738Y-120544761D01*
X178497976Y-120592380D01*
X178688452Y-120592380D01*
X178783690Y-120544761D01*
X177974166Y-119925714D02*
X177736071Y-120592380D01*
X177497976Y-119925714D02*
X177736071Y-120592380D01*
X177831309Y-120830476D01*
X177878928Y-120878095D01*
X177974166Y-120925714D01*
X177117023Y-120592380D02*
X177117023Y-119925714D01*
X177117023Y-120116190D02*
X177069404Y-120020952D01*
X177021785Y-119973333D01*
X176926547Y-119925714D01*
X176831309Y-119925714D01*
X176355119Y-120592380D02*
X176450357Y-120544761D01*
X176497976Y-120497142D01*
X176545595Y-120401904D01*
X176545595Y-120116190D01*
X176497976Y-120020952D01*
X176450357Y-119973333D01*
X176355119Y-119925714D01*
X176212261Y-119925714D01*
X176117023Y-119973333D01*
X176069404Y-120020952D01*
X176021785Y-120116190D01*
X176021785Y-120401904D01*
X176069404Y-120497142D01*
X176117023Y-120544761D01*
X176212261Y-120592380D01*
X176355119Y-120592380D01*
X175212261Y-120544761D02*
X175307500Y-120592380D01*
X175497976Y-120592380D01*
X175593214Y-120544761D01*
X175640833Y-120449523D01*
X175640833Y-120068571D01*
X175593214Y-119973333D01*
X175497976Y-119925714D01*
X175307500Y-119925714D01*
X175212261Y-119973333D01*
X175164642Y-120068571D01*
X175164642Y-120163809D01*
X175640833Y-120259047D01*
X174783690Y-120544761D02*
X174688452Y-120592380D01*
X174497976Y-120592380D01*
X174402738Y-120544761D01*
X174355119Y-120449523D01*
X174355119Y-120401904D01*
X174402738Y-120306666D01*
X174497976Y-120259047D01*
X174640833Y-120259047D01*
X174736071Y-120211428D01*
X174783690Y-120116190D01*
X174783690Y-120068571D01*
X174736071Y-119973333D01*
X174640833Y-119925714D01*
X174497976Y-119925714D01*
X174402738Y-119973333D01*
X173926547Y-119925714D02*
X173926547Y-120925714D01*
X173926547Y-119973333D02*
X173831309Y-119925714D01*
X173640833Y-119925714D01*
X173545595Y-119973333D01*
X173497976Y-120020952D01*
X173450357Y-120116190D01*
X173450357Y-120401904D01*
X173497976Y-120497142D01*
X173545595Y-120544761D01*
X173640833Y-120592380D01*
X173831309Y-120592380D01*
X173926547Y-120544761D01*
X172307500Y-119544761D02*
X173164642Y-120830476D01*
X171450357Y-119640000D02*
X171545595Y-119592380D01*
X171688452Y-119592380D01*
X171831309Y-119640000D01*
X171926547Y-119735238D01*
X171974166Y-119830476D01*
X172021785Y-120020952D01*
X172021785Y-120163809D01*
X171974166Y-120354285D01*
X171926547Y-120449523D01*
X171831309Y-120544761D01*
X171688452Y-120592380D01*
X171593214Y-120592380D01*
X171450357Y-120544761D01*
X171402738Y-120497142D01*
X171402738Y-120163809D01*
X171593214Y-120163809D01*
X170640833Y-120068571D02*
X170497976Y-120116190D01*
X170450357Y-120163809D01*
X170402738Y-120259047D01*
X170402738Y-120401904D01*
X170450357Y-120497142D01*
X170497976Y-120544761D01*
X170593214Y-120592380D01*
X170974166Y-120592380D01*
X170974166Y-119592380D01*
X170640833Y-119592380D01*
X170545595Y-119640000D01*
X170497976Y-119687619D01*
X170450357Y-119782857D01*
X170450357Y-119878095D01*
X170497976Y-119973333D01*
X170545595Y-120020952D01*
X170640833Y-120068571D01*
X170974166Y-120068571D01*
X169974166Y-120592380D02*
X169974166Y-119592380D01*
X169736071Y-119592380D01*
X169593214Y-119640000D01*
X169497976Y-119735238D01*
X169450357Y-119830476D01*
X169402738Y-120020952D01*
X169402738Y-120163809D01*
X169450357Y-120354285D01*
X169497976Y-120449523D01*
X169593214Y-120544761D01*
X169736071Y-120592380D01*
X169974166Y-120592380D01*
X169021785Y-120544761D02*
X168878928Y-120592380D01*
X168640833Y-120592380D01*
X168545595Y-120544761D01*
X168497976Y-120497142D01*
X168450357Y-120401904D01*
X168450357Y-120306666D01*
X168497976Y-120211428D01*
X168545595Y-120163809D01*
X168640833Y-120116190D01*
X168831309Y-120068571D01*
X168926547Y-120020952D01*
X168974166Y-119973333D01*
X169021785Y-119878095D01*
X169021785Y-119782857D01*
X168974166Y-119687619D01*
X168926547Y-119640000D01*
X168831309Y-119592380D01*
X168593214Y-119592380D01*
X168450357Y-119640000D01*
X167831309Y-119592380D02*
X167640833Y-119592380D01*
X167545595Y-119640000D01*
X167450357Y-119735238D01*
X167402738Y-119925714D01*
X167402738Y-120259047D01*
X167450357Y-120449523D01*
X167545595Y-120544761D01*
X167640833Y-120592380D01*
X167831309Y-120592380D01*
X167926547Y-120544761D01*
X168021785Y-120449523D01*
X168069404Y-120259047D01*
X168069404Y-119925714D01*
X168021785Y-119735238D01*
X167926547Y-119640000D01*
X167831309Y-119592380D01*
X187615595Y-75260000D02*
X187710833Y-75212380D01*
X187853690Y-75212380D01*
X187996547Y-75260000D01*
X188091785Y-75355238D01*
X188139404Y-75450476D01*
X188187023Y-75640952D01*
X188187023Y-75783809D01*
X188139404Y-75974285D01*
X188091785Y-76069523D01*
X187996547Y-76164761D01*
X187853690Y-76212380D01*
X187758452Y-76212380D01*
X187615595Y-76164761D01*
X187567976Y-76117142D01*
X187567976Y-75783809D01*
X187758452Y-75783809D01*
X186806071Y-75688571D02*
X186663214Y-75736190D01*
X186615595Y-75783809D01*
X186567976Y-75879047D01*
X186567976Y-76021904D01*
X186615595Y-76117142D01*
X186663214Y-76164761D01*
X186758452Y-76212380D01*
X187139404Y-76212380D01*
X187139404Y-75212380D01*
X186806071Y-75212380D01*
X186710833Y-75260000D01*
X186663214Y-75307619D01*
X186615595Y-75402857D01*
X186615595Y-75498095D01*
X186663214Y-75593333D01*
X186710833Y-75640952D01*
X186806071Y-75688571D01*
X187139404Y-75688571D01*
X186139404Y-76212380D02*
X186139404Y-75212380D01*
X185901309Y-75212380D01*
X185758452Y-75260000D01*
X185663214Y-75355238D01*
X185615595Y-75450476D01*
X185567976Y-75640952D01*
X185567976Y-75783809D01*
X185615595Y-75974285D01*
X185663214Y-76069523D01*
X185758452Y-76164761D01*
X185901309Y-76212380D01*
X186139404Y-76212380D01*
X185187023Y-76164761D02*
X185044166Y-76212380D01*
X184806071Y-76212380D01*
X184710833Y-76164761D01*
X184663214Y-76117142D01*
X184615595Y-76021904D01*
X184615595Y-75926666D01*
X184663214Y-75831428D01*
X184710833Y-75783809D01*
X184806071Y-75736190D01*
X184996547Y-75688571D01*
X185091785Y-75640952D01*
X185139404Y-75593333D01*
X185187023Y-75498095D01*
X185187023Y-75402857D01*
X185139404Y-75307619D01*
X185091785Y-75260000D01*
X184996547Y-75212380D01*
X184758452Y-75212380D01*
X184615595Y-75260000D01*
X183996547Y-75212380D02*
X183806071Y-75212380D01*
X183710833Y-75260000D01*
X183615595Y-75355238D01*
X183567976Y-75545714D01*
X183567976Y-75879047D01*
X183615595Y-76069523D01*
X183710833Y-76164761D01*
X183806071Y-76212380D01*
X183996547Y-76212380D01*
X184091785Y-76164761D01*
X184187023Y-76069523D01*
X184234642Y-75879047D01*
X184234642Y-75545714D01*
X184187023Y-75355238D01*
X184091785Y-75260000D01*
X183996547Y-75212380D01*
X182377500Y-76212380D02*
X182377500Y-75212380D01*
X182377500Y-75593333D02*
X182282261Y-75545714D01*
X182091785Y-75545714D01*
X181996547Y-75593333D01*
X181948928Y-75640952D01*
X181901309Y-75736190D01*
X181901309Y-76021904D01*
X181948928Y-76117142D01*
X181996547Y-76164761D01*
X182091785Y-76212380D01*
X182282261Y-76212380D01*
X182377500Y-76164761D01*
X181567976Y-75545714D02*
X181329880Y-76212380D01*
X181091785Y-75545714D02*
X181329880Y-76212380D01*
X181425119Y-76450476D01*
X181472738Y-76498095D01*
X181567976Y-76545714D01*
X179996547Y-76164761D02*
X179853690Y-76212380D01*
X179615595Y-76212380D01*
X179520357Y-76164761D01*
X179472738Y-76117142D01*
X179425119Y-76021904D01*
X179425119Y-75926666D01*
X179472738Y-75831428D01*
X179520357Y-75783809D01*
X179615595Y-75736190D01*
X179806071Y-75688571D01*
X179901309Y-75640952D01*
X179948928Y-75593333D01*
X179996547Y-75498095D01*
X179996547Y-75402857D01*
X179948928Y-75307619D01*
X179901309Y-75260000D01*
X179806071Y-75212380D01*
X179567976Y-75212380D01*
X179425119Y-75260000D01*
X179139404Y-75545714D02*
X178758452Y-75545714D01*
X178996547Y-75212380D02*
X178996547Y-76069523D01*
X178948928Y-76164761D01*
X178853690Y-76212380D01*
X178758452Y-76212380D01*
X178044166Y-76164761D02*
X178139404Y-76212380D01*
X178329880Y-76212380D01*
X178425119Y-76164761D01*
X178472738Y-76069523D01*
X178472738Y-75688571D01*
X178425119Y-75593333D01*
X178329880Y-75545714D01*
X178139404Y-75545714D01*
X178044166Y-75593333D01*
X177996547Y-75688571D01*
X177996547Y-75783809D01*
X178472738Y-75879047D01*
X177663214Y-75545714D02*
X177425119Y-76212380D01*
X177187023Y-75545714D01*
X176425119Y-76164761D02*
X176520357Y-76212380D01*
X176710833Y-76212380D01*
X176806071Y-76164761D01*
X176853690Y-76069523D01*
X176853690Y-75688571D01*
X176806071Y-75593333D01*
X176710833Y-75545714D01*
X176520357Y-75545714D01*
X176425119Y-75593333D01*
X176377500Y-75688571D01*
X176377500Y-75783809D01*
X176853690Y-75879047D01*
X175282261Y-75212380D02*
X175044166Y-76212380D01*
X174853690Y-75498095D01*
X174663214Y-76212380D01*
X174425119Y-75212380D01*
X174044166Y-76212380D02*
X174044166Y-75545714D01*
X174044166Y-75212380D02*
X174091785Y-75260000D01*
X174044166Y-75307619D01*
X173996547Y-75260000D01*
X174044166Y-75212380D01*
X174044166Y-75307619D01*
X173425119Y-76212380D02*
X173520357Y-76164761D01*
X173567976Y-76069523D01*
X173567976Y-75212380D01*
X172901309Y-76212380D02*
X172996547Y-76164761D01*
X173044166Y-76069523D01*
X173044166Y-75212380D01*
X172520357Y-76212380D02*
X172520357Y-75545714D01*
X172520357Y-75212380D02*
X172567976Y-75260000D01*
X172520357Y-75307619D01*
X172472738Y-75260000D01*
X172520357Y-75212380D01*
X172520357Y-75307619D01*
X172091785Y-76164761D02*
X171996547Y-76212380D01*
X171806071Y-76212380D01*
X171710833Y-76164761D01*
X171663214Y-76069523D01*
X171663214Y-76021904D01*
X171710833Y-75926666D01*
X171806071Y-75879047D01*
X171948928Y-75879047D01*
X172044166Y-75831428D01*
X172091785Y-75736190D01*
X172091785Y-75688571D01*
X172044166Y-75593333D01*
X171948928Y-75545714D01*
X171806071Y-75545714D01*
X171710833Y-75593333D01*
X170187023Y-76593333D02*
X170234642Y-76545714D01*
X170329880Y-76402857D01*
X170377500Y-76307619D01*
X170425119Y-76164761D01*
X170472738Y-75926666D01*
X170472738Y-75736190D01*
X170425119Y-75498095D01*
X170377500Y-75355238D01*
X170329880Y-75260000D01*
X170234642Y-75117142D01*
X170187023Y-75069523D01*
X169853690Y-75307619D02*
X169806071Y-75260000D01*
X169710833Y-75212380D01*
X169472738Y-75212380D01*
X169377500Y-75260000D01*
X169329880Y-75307619D01*
X169282261Y-75402857D01*
X169282261Y-75498095D01*
X169329880Y-75640952D01*
X169901309Y-76212380D01*
X169282261Y-76212380D01*
X168663214Y-75212380D02*
X168567976Y-75212380D01*
X168472738Y-75260000D01*
X168425119Y-75307619D01*
X168377500Y-75402857D01*
X168329880Y-75593333D01*
X168329880Y-75831428D01*
X168377500Y-76021904D01*
X168425119Y-76117142D01*
X168472738Y-76164761D01*
X168567976Y-76212380D01*
X168663214Y-76212380D01*
X168758452Y-76164761D01*
X168806071Y-76117142D01*
X168853690Y-76021904D01*
X168901309Y-75831428D01*
X168901309Y-75593333D01*
X168853690Y-75402857D01*
X168806071Y-75307619D01*
X168758452Y-75260000D01*
X168663214Y-75212380D01*
X167710833Y-75212380D02*
X167615595Y-75212380D01*
X167520357Y-75260000D01*
X167472738Y-75307619D01*
X167425119Y-75402857D01*
X167377500Y-75593333D01*
X167377500Y-75831428D01*
X167425119Y-76021904D01*
X167472738Y-76117142D01*
X167520357Y-76164761D01*
X167615595Y-76212380D01*
X167710833Y-76212380D01*
X167806071Y-76164761D01*
X167853690Y-76117142D01*
X167901309Y-76021904D01*
X167948928Y-75831428D01*
X167948928Y-75593333D01*
X167901309Y-75402857D01*
X167853690Y-75307619D01*
X167806071Y-75260000D01*
X167710833Y-75212380D01*
X166758452Y-75212380D02*
X166663214Y-75212380D01*
X166567976Y-75260000D01*
X166520357Y-75307619D01*
X166472738Y-75402857D01*
X166425119Y-75593333D01*
X166425119Y-75831428D01*
X166472738Y-76021904D01*
X166520357Y-76117142D01*
X166567976Y-76164761D01*
X166663214Y-76212380D01*
X166758452Y-76212380D01*
X166853690Y-76164761D01*
X166901309Y-76117142D01*
X166948928Y-76021904D01*
X166996547Y-75831428D01*
X166996547Y-75593333D01*
X166948928Y-75402857D01*
X166901309Y-75307619D01*
X166853690Y-75260000D01*
X166758452Y-75212380D01*
X165282261Y-75164761D02*
X166139404Y-76450476D01*
X164425119Y-76212380D02*
X164996547Y-76212380D01*
X164710833Y-76212380D02*
X164710833Y-75212380D01*
X164806071Y-75355238D01*
X164901309Y-75450476D01*
X164996547Y-75498095D01*
X163806071Y-75212380D02*
X163710833Y-75212380D01*
X163615595Y-75260000D01*
X163567976Y-75307619D01*
X163520357Y-75402857D01*
X163472738Y-75593333D01*
X163472738Y-75831428D01*
X163520357Y-76021904D01*
X163567976Y-76117142D01*
X163615595Y-76164761D01*
X163710833Y-76212380D01*
X163806071Y-76212380D01*
X163901309Y-76164761D01*
X163948928Y-76117142D01*
X163996547Y-76021904D01*
X164044166Y-75831428D01*
X164044166Y-75593333D01*
X163996547Y-75402857D01*
X163948928Y-75307619D01*
X163901309Y-75260000D01*
X163806071Y-75212380D01*
X163139404Y-76593333D02*
X163091785Y-76545714D01*
X162996547Y-76402857D01*
X162948928Y-76307619D01*
X162901309Y-76164761D01*
X162853690Y-75926666D01*
X162853690Y-75736190D01*
X162901309Y-75498095D01*
X162948928Y-75355238D01*
X162996547Y-75260000D01*
X163091785Y-75117142D01*
X163139404Y-75069523D01*
D11*
G36*
X166852600Y-92405200D02*
G01*
X165633400Y-92405200D01*
X165633400Y-93624400D01*
X161925000Y-93624400D01*
X161925000Y-92405200D01*
X160705800Y-92405200D01*
X160705800Y-91186000D01*
X159432576Y-91186000D01*
X159461200Y-92379800D01*
X160083500Y-92394063D01*
X160705800Y-92408327D01*
X160705800Y-93621272D01*
X159461200Y-93649800D01*
X159446902Y-94245101D01*
X159432604Y-94840403D01*
X158837302Y-94854701D01*
X158242000Y-94869000D01*
X158227737Y-95491300D01*
X158213473Y-96113600D01*
X156997400Y-96113600D01*
X156997400Y-99825127D01*
X157619700Y-99810863D01*
X158242000Y-99796600D01*
X158252140Y-98628200D01*
X158255148Y-98291292D01*
X158258026Y-97986875D01*
X158260617Y-97730174D01*
X158262765Y-97536416D01*
X158264311Y-97420828D01*
X158264840Y-97396300D01*
X158295552Y-97366936D01*
X158392542Y-97347397D01*
X158567289Y-97336436D01*
X158831273Y-97332811D01*
X158850697Y-97332800D01*
X159433994Y-97332800D01*
X159461200Y-99796600D01*
X160083500Y-99810863D01*
X160705800Y-99825127D01*
X160705800Y-101041200D01*
X161916534Y-101041200D01*
X162257478Y-101039835D01*
X162564109Y-101036005D01*
X162821970Y-101030101D01*
X163016608Y-101022518D01*
X163133566Y-101013648D01*
X163161134Y-101007333D01*
X163174639Y-100945793D01*
X163185586Y-100804477D01*
X163192764Y-100605198D01*
X163195000Y-100397733D01*
X163195000Y-99822000D01*
X160705800Y-99822000D01*
X160705800Y-98602800D01*
X166852600Y-98602800D01*
X166852600Y-99822000D01*
X168122600Y-99822000D01*
X168122600Y-97329575D01*
X168719500Y-97343887D01*
X169316400Y-97358200D01*
X169330004Y-98590100D01*
X169343607Y-99822000D01*
X170561000Y-99822000D01*
X170561000Y-96113600D01*
X169344928Y-96113600D01*
X169316983Y-94894400D01*
X166852600Y-94894400D01*
X166852600Y-96116824D01*
X165658800Y-96088200D01*
X165630176Y-94894400D01*
X161925000Y-94894400D01*
X161925000Y-96116824D01*
X160731200Y-96088200D01*
X160702576Y-94894400D01*
X161925000Y-94894400D01*
X165630176Y-94894400D01*
X166852600Y-94894400D01*
X169316983Y-94894400D01*
X169316400Y-94869000D01*
X168721099Y-94854701D01*
X168125797Y-94840403D01*
X168111499Y-94245101D01*
X168097200Y-93649800D01*
X167491808Y-93624400D01*
X166886415Y-93599000D01*
X166889043Y-93116400D01*
X166890802Y-92892353D01*
X166893314Y-92696581D01*
X166896157Y-92558566D01*
X166897535Y-92521112D01*
X166904763Y-92473070D01*
X166932017Y-92440489D01*
X166996548Y-92419732D01*
X167115607Y-92407166D01*
X167306447Y-92399155D01*
X167500300Y-92394112D01*
X168097200Y-92379800D01*
X168111513Y-91782900D01*
X168125825Y-91186000D01*
X166852600Y-91186000D01*
X166852600Y-92405200D01*
G37*
X166852600Y-92405200D02*
X165633400Y-92405200D01*
X165633400Y-93624400D01*
X161925000Y-93624400D01*
X161925000Y-92405200D01*
X160705800Y-92405200D01*
X160705800Y-91186000D01*
X159432576Y-91186000D01*
X159461200Y-92379800D01*
X160083500Y-92394063D01*
X160705800Y-92408327D01*
X160705800Y-93621272D01*
X159461200Y-93649800D01*
X159446902Y-94245101D01*
X159432604Y-94840403D01*
X158837302Y-94854701D01*
X158242000Y-94869000D01*
X158227737Y-95491300D01*
X158213473Y-96113600D01*
X156997400Y-96113600D01*
X156997400Y-99825127D01*
X157619700Y-99810863D01*
X158242000Y-99796600D01*
X158252140Y-98628200D01*
X158255148Y-98291292D01*
X158258026Y-97986875D01*
X158260617Y-97730174D01*
X158262765Y-97536416D01*
X158264311Y-97420828D01*
X158264840Y-97396300D01*
X158295552Y-97366936D01*
X158392542Y-97347397D01*
X158567289Y-97336436D01*
X158831273Y-97332811D01*
X158850697Y-97332800D01*
X159433994Y-97332800D01*
X159461200Y-99796600D01*
X160083500Y-99810863D01*
X160705800Y-99825127D01*
X160705800Y-101041200D01*
X161916534Y-101041200D01*
X162257478Y-101039835D01*
X162564109Y-101036005D01*
X162821970Y-101030101D01*
X163016608Y-101022518D01*
X163133566Y-101013648D01*
X163161134Y-101007333D01*
X163174639Y-100945793D01*
X163185586Y-100804477D01*
X163192764Y-100605198D01*
X163195000Y-100397733D01*
X163195000Y-99822000D01*
X160705800Y-99822000D01*
X160705800Y-98602800D01*
X166852600Y-98602800D01*
X166852600Y-99822000D01*
X168122600Y-99822000D01*
X168122600Y-97329575D01*
X168719500Y-97343887D01*
X169316400Y-97358200D01*
X169330004Y-98590100D01*
X169343607Y-99822000D01*
X170561000Y-99822000D01*
X170561000Y-96113600D01*
X169344928Y-96113600D01*
X169316983Y-94894400D01*
X166852600Y-94894400D01*
X166852600Y-96116824D01*
X165658800Y-96088200D01*
X165630176Y-94894400D01*
X161925000Y-94894400D01*
X161925000Y-96116824D01*
X160731200Y-96088200D01*
X160702576Y-94894400D01*
X161925000Y-94894400D01*
X165630176Y-94894400D01*
X166852600Y-94894400D01*
X169316983Y-94894400D01*
X169316400Y-94869000D01*
X168721099Y-94854701D01*
X168125797Y-94840403D01*
X168111499Y-94245101D01*
X168097200Y-93649800D01*
X167491808Y-93624400D01*
X166886415Y-93599000D01*
X166889043Y-93116400D01*
X166890802Y-92892353D01*
X166893314Y-92696581D01*
X166896157Y-92558566D01*
X166897535Y-92521112D01*
X166904763Y-92473070D01*
X166932017Y-92440489D01*
X166996548Y-92419732D01*
X167115607Y-92407166D01*
X167306447Y-92399155D01*
X167500300Y-92394112D01*
X168097200Y-92379800D01*
X168111513Y-91782900D01*
X168125825Y-91186000D01*
X166852600Y-91186000D01*
X166852600Y-92405200D01*
G36*
X164414200Y-101041200D02*
G01*
X165627965Y-101041200D01*
X166018665Y-101040337D01*
X166319227Y-101037295D01*
X166541101Y-101031389D01*
X166695740Y-101021936D01*
X166794594Y-101008253D01*
X166849114Y-100989656D01*
X166870179Y-100967064D01*
X166881175Y-100887182D01*
X166888065Y-100731133D01*
X166890075Y-100524296D01*
X166888314Y-100370164D01*
X166878000Y-99847400D01*
X165646100Y-99833796D01*
X164414200Y-99820193D01*
X164414200Y-101041200D01*
G37*
X164414200Y-101041200D02*
X165627965Y-101041200D01*
X166018665Y-101040337D01*
X166319227Y-101037295D01*
X166541101Y-101031389D01*
X166695740Y-101021936D01*
X166794594Y-101008253D01*
X166849114Y-100989656D01*
X166870179Y-100967064D01*
X166881175Y-100887182D01*
X166888065Y-100731133D01*
X166890075Y-100524296D01*
X166888314Y-100370164D01*
X166878000Y-99847400D01*
X165646100Y-99833796D01*
X164414200Y-99820193D01*
X164414200Y-101041200D01*
G36*
X154152600Y-103606600D02*
G01*
X154160836Y-103681973D01*
X154202863Y-103719575D01*
X154304664Y-103732396D01*
X154406600Y-103733600D01*
X154660600Y-103733600D01*
X154660600Y-105257600D01*
X155168600Y-105257600D01*
X155168600Y-103733600D01*
X155422600Y-103733600D01*
X155573347Y-103729482D01*
X155648551Y-103708468D01*
X155674194Y-103657568D01*
X155676600Y-103606600D01*
X155676600Y-103479600D01*
X154152600Y-103479600D01*
X154152600Y-103606600D01*
G37*
X154152600Y-103606600D02*
X154160836Y-103681973D01*
X154202863Y-103719575D01*
X154304664Y-103732396D01*
X154406600Y-103733600D01*
X154660600Y-103733600D01*
X154660600Y-105257600D01*
X155168600Y-105257600D01*
X155168600Y-103733600D01*
X155422600Y-103733600D01*
X155573347Y-103729482D01*
X155648551Y-103708468D01*
X155674194Y-103657568D01*
X155676600Y-103606600D01*
X155676600Y-103479600D01*
X154152600Y-103479600D01*
X154152600Y-103606600D01*
G36*
X156658277Y-103480091D02*
G01*
X156452512Y-103483090D01*
X156317331Y-103490885D01*
X156237225Y-103505765D01*
X156196686Y-103530016D01*
X156180207Y-103565928D01*
X156175434Y-103593900D01*
X156117585Y-103696599D01*
X156044900Y-103724433D01*
X155975995Y-103746379D01*
X155942005Y-103804924D01*
X155931129Y-103927600D01*
X155930600Y-103991133D01*
X155934855Y-104140558D01*
X155956456Y-104214613D01*
X156008664Y-104239446D01*
X156057600Y-104241600D01*
X156157596Y-104274194D01*
X156190163Y-104346406D01*
X156153008Y-104419878D01*
X156070300Y-104453966D01*
X156012315Y-104470118D01*
X155976722Y-104512814D01*
X155956648Y-104603872D01*
X155945222Y-104765108D01*
X155941164Y-104863900D01*
X155926327Y-105257600D01*
X156438600Y-105257600D01*
X156438600Y-104495600D01*
X157196149Y-104495600D01*
X157211075Y-104863900D01*
X157226000Y-105232200D01*
X157708600Y-105263166D01*
X157708600Y-103733600D01*
X157200600Y-103733600D01*
X157200600Y-104246051D01*
X156832300Y-104231125D01*
X156464000Y-104216200D01*
X156433034Y-103733600D01*
X157200600Y-103733600D01*
X157708600Y-103733600D01*
X157708600Y-103479600D01*
X156950134Y-103479600D01*
X156658277Y-103480091D01*
G37*
X156658277Y-103480091D02*
X156452512Y-103483090D01*
X156317331Y-103490885D01*
X156237225Y-103505765D01*
X156196686Y-103530016D01*
X156180207Y-103565928D01*
X156175434Y-103593900D01*
X156117585Y-103696599D01*
X156044900Y-103724433D01*
X155975995Y-103746379D01*
X155942005Y-103804924D01*
X155931129Y-103927600D01*
X155930600Y-103991133D01*
X155934855Y-104140558D01*
X155956456Y-104214613D01*
X156008664Y-104239446D01*
X156057600Y-104241600D01*
X156157596Y-104274194D01*
X156190163Y-104346406D01*
X156153008Y-104419878D01*
X156070300Y-104453966D01*
X156012315Y-104470118D01*
X155976722Y-104512814D01*
X155956648Y-104603872D01*
X155945222Y-104765108D01*
X155941164Y-104863900D01*
X155926327Y-105257600D01*
X156438600Y-105257600D01*
X156438600Y-104495600D01*
X157196149Y-104495600D01*
X157211075Y-104863900D01*
X157226000Y-105232200D01*
X157708600Y-105263166D01*
X157708600Y-103733600D01*
X157200600Y-103733600D01*
X157200600Y-104246051D01*
X156832300Y-104231125D01*
X156464000Y-104216200D01*
X156433034Y-103733600D01*
X157200600Y-103733600D01*
X157708600Y-103733600D01*
X157708600Y-103479600D01*
X156950134Y-103479600D01*
X156658277Y-103480091D01*
G36*
X158718784Y-103469614D02*
G01*
X158689083Y-103471809D01*
X158475766Y-103489419D01*
X158460483Y-103725809D01*
X158443828Y-103872752D01*
X158410640Y-103943195D01*
X158348551Y-103962153D01*
X158343600Y-103962200D01*
X158290750Y-103972921D01*
X158257080Y-104018956D01*
X158235654Y-104121108D01*
X158219540Y-104300184D01*
X158216600Y-104343200D01*
X158200894Y-104538697D01*
X158180936Y-104654759D01*
X158148954Y-104713488D01*
X158097174Y-104736988D01*
X158076900Y-104740433D01*
X158007995Y-104762379D01*
X157974005Y-104820924D01*
X157963129Y-104943600D01*
X157962600Y-105007133D01*
X157962600Y-105257600D01*
X158470600Y-105257600D01*
X158470600Y-104749600D01*
X159227034Y-104749600D01*
X159258000Y-105232200D01*
X159740600Y-105263166D01*
X159740600Y-105009916D01*
X159735188Y-104857143D01*
X159711207Y-104778344D01*
X159657041Y-104746131D01*
X159626300Y-104740433D01*
X159567167Y-104723123D01*
X159530132Y-104677129D01*
X159507424Y-104580348D01*
X159491269Y-104410676D01*
X159486600Y-104343200D01*
X159475974Y-104212475D01*
X158978600Y-104212475D01*
X158968193Y-104363120D01*
X158931081Y-104438107D01*
X158889700Y-104457537D01*
X158795122Y-104465065D01*
X158744997Y-104419744D01*
X158726270Y-104302254D01*
X158724600Y-104213201D01*
X158730029Y-104073309D01*
X158756589Y-104007480D01*
X158819690Y-103988337D01*
X158851600Y-103987600D01*
X158930445Y-103997284D01*
X158967484Y-104044614D01*
X158978201Y-104157003D01*
X158978600Y-104212475D01*
X159475974Y-104212475D01*
X159470707Y-104147690D01*
X159450781Y-104032935D01*
X159419887Y-103978129D01*
X159371089Y-103962467D01*
X159359600Y-103962200D01*
X159295584Y-103945694D01*
X159261011Y-103879537D01*
X159243630Y-103738767D01*
X159242640Y-103723920D01*
X159228442Y-103578805D01*
X159196999Y-103506359D01*
X159128090Y-103477692D01*
X159064840Y-103469920D01*
X158904058Y-103463952D01*
X158718784Y-103469614D01*
G37*
X158718784Y-103469614D02*
X158689083Y-103471809D01*
X158475766Y-103489419D01*
X158460483Y-103725809D01*
X158443828Y-103872752D01*
X158410640Y-103943195D01*
X158348551Y-103962153D01*
X158343600Y-103962200D01*
X158290750Y-103972921D01*
X158257080Y-104018956D01*
X158235654Y-104121108D01*
X158219540Y-104300184D01*
X158216600Y-104343200D01*
X158200894Y-104538697D01*
X158180936Y-104654759D01*
X158148954Y-104713488D01*
X158097174Y-104736988D01*
X158076900Y-104740433D01*
X158007995Y-104762379D01*
X157974005Y-104820924D01*
X157963129Y-104943600D01*
X157962600Y-105007133D01*
X157962600Y-105257600D01*
X158470600Y-105257600D01*
X158470600Y-104749600D01*
X159227034Y-104749600D01*
X159258000Y-105232200D01*
X159740600Y-105263166D01*
X159740600Y-105009916D01*
X159735188Y-104857143D01*
X159711207Y-104778344D01*
X159657041Y-104746131D01*
X159626300Y-104740433D01*
X159567167Y-104723123D01*
X159530132Y-104677129D01*
X159507424Y-104580348D01*
X159491269Y-104410676D01*
X159486600Y-104343200D01*
X159475974Y-104212475D01*
X158978600Y-104212475D01*
X158968193Y-104363120D01*
X158931081Y-104438107D01*
X158889700Y-104457537D01*
X158795122Y-104465065D01*
X158744997Y-104419744D01*
X158726270Y-104302254D01*
X158724600Y-104213201D01*
X158730029Y-104073309D01*
X158756589Y-104007480D01*
X158819690Y-103988337D01*
X158851600Y-103987600D01*
X158930445Y-103997284D01*
X158967484Y-104044614D01*
X158978201Y-104157003D01*
X158978600Y-104212475D01*
X159475974Y-104212475D01*
X159470707Y-104147690D01*
X159450781Y-104032935D01*
X159419887Y-103978129D01*
X159371089Y-103962467D01*
X159359600Y-103962200D01*
X159295584Y-103945694D01*
X159261011Y-103879537D01*
X159243630Y-103738767D01*
X159242640Y-103723920D01*
X159228442Y-103578805D01*
X159196999Y-103506359D01*
X159128090Y-103477692D01*
X159064840Y-103469920D01*
X158904058Y-103463952D01*
X158718784Y-103469614D01*
G36*
X160459840Y-103479982D02*
G01*
X160253422Y-103482636D01*
X160119025Y-103489815D01*
X160041859Y-103503776D01*
X160007134Y-103526776D01*
X160000059Y-103561069D01*
X160003767Y-103593900D01*
X160028776Y-103665347D01*
X160095854Y-103703312D01*
X160232634Y-103721720D01*
X160261300Y-103723683D01*
X160502600Y-103739166D01*
X160502600Y-105257600D01*
X161010600Y-105257600D01*
X161010600Y-103733600D01*
X161264600Y-103733600D01*
X161415347Y-103729482D01*
X161490551Y-103708468D01*
X161516194Y-103657568D01*
X161518600Y-103606600D01*
X161518600Y-103479600D01*
X160753067Y-103479600D01*
X160459840Y-103479982D01*
G37*
X160459840Y-103479982D02*
X160253422Y-103482636D01*
X160119025Y-103489815D01*
X160041859Y-103503776D01*
X160007134Y-103526776D01*
X160000059Y-103561069D01*
X160003767Y-103593900D01*
X160028776Y-103665347D01*
X160095854Y-103703312D01*
X160232634Y-103721720D01*
X160261300Y-103723683D01*
X160502600Y-103739166D01*
X160502600Y-105257600D01*
X161010600Y-105257600D01*
X161010600Y-103733600D01*
X161264600Y-103733600D01*
X161415347Y-103729482D01*
X161490551Y-103708468D01*
X161516194Y-103657568D01*
X161518600Y-103606600D01*
X161518600Y-103479600D01*
X160753067Y-103479600D01*
X160459840Y-103479982D01*
G36*
X162026600Y-103609793D02*
G01*
X162009847Y-103704826D01*
X161942389Y-103727158D01*
X161912300Y-103724093D01*
X161826149Y-103731735D01*
X161798746Y-103806179D01*
X161798000Y-103835200D01*
X161806236Y-103910573D01*
X161848263Y-103948175D01*
X161950064Y-103960996D01*
X162052000Y-103962200D01*
X162202927Y-103957720D01*
X162277628Y-103936585D01*
X162301351Y-103887251D01*
X162301967Y-103847900D01*
X162309775Y-103779311D01*
X162356536Y-103745437D01*
X162467736Y-103734341D01*
X162546050Y-103733600D01*
X162794167Y-103733600D01*
X162778684Y-103974900D01*
X162763200Y-104216200D01*
X162394900Y-104231125D01*
X162202430Y-104242179D01*
X162090757Y-104260003D01*
X162039081Y-104290739D01*
X162026600Y-104339918D01*
X161980374Y-104427551D01*
X161896884Y-104466342D01*
X161818560Y-104495581D01*
X161783382Y-104551377D01*
X161778517Y-104664288D01*
X161782584Y-104738549D01*
X161799335Y-104887781D01*
X161833816Y-104963190D01*
X161900074Y-104992488D01*
X161912300Y-104994433D01*
X162003866Y-105039601D01*
X162026600Y-105134133D01*
X162030085Y-105190165D01*
X162052906Y-105226012D01*
X162113609Y-105246181D01*
X162230743Y-105255181D01*
X162422855Y-105257519D01*
X162534600Y-105257600D01*
X162765142Y-105256756D01*
X162912632Y-105251216D01*
X162995618Y-105236466D01*
X163032648Y-105207991D01*
X163042270Y-105161279D01*
X163042600Y-105133974D01*
X163065961Y-105038365D01*
X163154858Y-104998093D01*
X163182300Y-104994274D01*
X163297171Y-104952181D01*
X163338234Y-104863900D01*
X163339581Y-104798782D01*
X163304412Y-104764624D01*
X163209656Y-104751540D01*
X163071534Y-104749600D01*
X162908829Y-104753900D01*
X162823605Y-104772535D01*
X162791904Y-104814109D01*
X162788600Y-104851200D01*
X162774481Y-104913373D01*
X162715180Y-104943618D01*
X162585285Y-104952638D01*
X162547300Y-104952838D01*
X162306000Y-104952877D01*
X162311648Y-104736938D01*
X162317295Y-104521000D01*
X162679948Y-104506074D01*
X162868197Y-104496152D01*
X162976718Y-104480289D01*
X163027356Y-104450272D01*
X163041957Y-104397888D01*
X163042600Y-104369748D01*
X163066692Y-104275499D01*
X163157384Y-104235687D01*
X163182300Y-104232274D01*
X163268283Y-104212587D01*
X163312416Y-104160270D01*
X163332303Y-104046513D01*
X163337336Y-103978528D01*
X163342432Y-103833862D01*
X163323537Y-103761510D01*
X163266233Y-103732640D01*
X163210336Y-103724528D01*
X163094459Y-103683611D01*
X163051767Y-103593900D01*
X163039079Y-103541803D01*
X163006085Y-103508543D01*
X162933586Y-103489905D01*
X162802382Y-103481674D01*
X162593273Y-103479636D01*
X162531067Y-103479600D01*
X162026600Y-103479600D01*
X162026600Y-103609793D01*
G37*
X162026600Y-103609793D02*
X162009847Y-103704826D01*
X161942389Y-103727158D01*
X161912300Y-103724093D01*
X161826149Y-103731735D01*
X161798746Y-103806179D01*
X161798000Y-103835200D01*
X161806236Y-103910573D01*
X161848263Y-103948175D01*
X161950064Y-103960996D01*
X162052000Y-103962200D01*
X162202927Y-103957720D01*
X162277628Y-103936585D01*
X162301351Y-103887251D01*
X162301967Y-103847900D01*
X162309775Y-103779311D01*
X162356536Y-103745437D01*
X162467736Y-103734341D01*
X162546050Y-103733600D01*
X162794167Y-103733600D01*
X162778684Y-103974900D01*
X162763200Y-104216200D01*
X162394900Y-104231125D01*
X162202430Y-104242179D01*
X162090757Y-104260003D01*
X162039081Y-104290739D01*
X162026600Y-104339918D01*
X161980374Y-104427551D01*
X161896884Y-104466342D01*
X161818560Y-104495581D01*
X161783382Y-104551377D01*
X161778517Y-104664288D01*
X161782584Y-104738549D01*
X161799335Y-104887781D01*
X161833816Y-104963190D01*
X161900074Y-104992488D01*
X161912300Y-104994433D01*
X162003866Y-105039601D01*
X162026600Y-105134133D01*
X162030085Y-105190165D01*
X162052906Y-105226012D01*
X162113609Y-105246181D01*
X162230743Y-105255181D01*
X162422855Y-105257519D01*
X162534600Y-105257600D01*
X162765142Y-105256756D01*
X162912632Y-105251216D01*
X162995618Y-105236466D01*
X163032648Y-105207991D01*
X163042270Y-105161279D01*
X163042600Y-105133974D01*
X163065961Y-105038365D01*
X163154858Y-104998093D01*
X163182300Y-104994274D01*
X163297171Y-104952181D01*
X163338234Y-104863900D01*
X163339581Y-104798782D01*
X163304412Y-104764624D01*
X163209656Y-104751540D01*
X163071534Y-104749600D01*
X162908829Y-104753900D01*
X162823605Y-104772535D01*
X162791904Y-104814109D01*
X162788600Y-104851200D01*
X162774481Y-104913373D01*
X162715180Y-104943618D01*
X162585285Y-104952638D01*
X162547300Y-104952838D01*
X162306000Y-104952877D01*
X162311648Y-104736938D01*
X162317295Y-104521000D01*
X162679948Y-104506074D01*
X162868197Y-104496152D01*
X162976718Y-104480289D01*
X163027356Y-104450272D01*
X163041957Y-104397888D01*
X163042600Y-104369748D01*
X163066692Y-104275499D01*
X163157384Y-104235687D01*
X163182300Y-104232274D01*
X163268283Y-104212587D01*
X163312416Y-104160270D01*
X163332303Y-104046513D01*
X163337336Y-103978528D01*
X163342432Y-103833862D01*
X163323537Y-103761510D01*
X163266233Y-103732640D01*
X163210336Y-103724528D01*
X163094459Y-103683611D01*
X163051767Y-103593900D01*
X163039079Y-103541803D01*
X163006085Y-103508543D01*
X162933586Y-103489905D01*
X162802382Y-103481674D01*
X162593273Y-103479636D01*
X162531067Y-103479600D01*
X162026600Y-103479600D01*
X162026600Y-103609793D01*
G36*
X164841491Y-103480387D02*
G01*
X164694901Y-103485872D01*
X164612681Y-103500741D01*
X164576219Y-103529681D01*
X164566899Y-103577378D01*
X164566600Y-103606600D01*
X164546362Y-103702389D01*
X164465669Y-103732791D01*
X164436067Y-103733600D01*
X164340921Y-103750183D01*
X164318568Y-103817130D01*
X164321767Y-103847900D01*
X164343446Y-103916424D01*
X164401260Y-103950461D01*
X164522557Y-103961578D01*
X164592000Y-103962200D01*
X164745040Y-103956823D01*
X164824063Y-103932983D01*
X164856420Y-103879110D01*
X164862234Y-103847900D01*
X164886396Y-103776005D01*
X164950976Y-103742484D01*
X165084866Y-103733652D01*
X165103534Y-103733600D01*
X165328600Y-103733600D01*
X165328600Y-104241600D01*
X164947600Y-104241600D01*
X164752453Y-104244149D01*
X164637924Y-104255389D01*
X164583087Y-104280706D01*
X164567015Y-104325487D01*
X164566600Y-104339666D01*
X164523768Y-104427737D01*
X164452300Y-104453966D01*
X164383776Y-104475645D01*
X164349739Y-104533459D01*
X164338622Y-104654756D01*
X164338000Y-104724200D01*
X164343544Y-104877554D01*
X164367634Y-104956731D01*
X164421458Y-104988884D01*
X164449177Y-104994023D01*
X164549712Y-105052704D01*
X164576177Y-105121023D01*
X164590121Y-105172514D01*
X164627207Y-105205986D01*
X164706827Y-105226243D01*
X164848375Y-105238090D01*
X165071245Y-105246330D01*
X165083532Y-105246694D01*
X165309923Y-105252230D01*
X165454253Y-105250142D01*
X165535993Y-105236617D01*
X165574610Y-105207839D01*
X165589574Y-105159996D01*
X165591532Y-105147176D01*
X165653263Y-105040731D01*
X165735000Y-105003600D01*
X165847037Y-104936324D01*
X165878234Y-104861817D01*
X165879177Y-104797562D01*
X165842599Y-104764028D01*
X165745371Y-104751352D01*
X165615067Y-104749600D01*
X165452644Y-104754183D01*
X165365711Y-104774354D01*
X165328331Y-104819742D01*
X165319434Y-104859375D01*
X165290305Y-104932361D01*
X165212352Y-104965578D01*
X165100000Y-104973675D01*
X164896800Y-104978200D01*
X164865834Y-104495600D01*
X165224217Y-104495600D01*
X165410943Y-104493671D01*
X165518114Y-104482818D01*
X165567764Y-104455439D01*
X165581931Y-104403932D01*
X165582600Y-104371974D01*
X165605961Y-104276365D01*
X165694858Y-104236093D01*
X165722300Y-104232274D01*
X165808283Y-104212587D01*
X165852416Y-104160270D01*
X165872303Y-104046513D01*
X165877336Y-103978528D01*
X165882432Y-103833862D01*
X165863537Y-103761510D01*
X165806233Y-103732640D01*
X165750336Y-103724528D01*
X165634459Y-103683611D01*
X165591767Y-103593900D01*
X165579079Y-103541803D01*
X165546085Y-103508543D01*
X165473586Y-103489905D01*
X165342382Y-103481674D01*
X165133273Y-103479636D01*
X165071067Y-103479600D01*
X164841491Y-103480387D01*
G37*
X164841491Y-103480387D02*
X164694901Y-103485872D01*
X164612681Y-103500741D01*
X164576219Y-103529681D01*
X164566899Y-103577378D01*
X164566600Y-103606600D01*
X164546362Y-103702389D01*
X164465669Y-103732791D01*
X164436067Y-103733600D01*
X164340921Y-103750183D01*
X164318568Y-103817130D01*
X164321767Y-103847900D01*
X164343446Y-103916424D01*
X164401260Y-103950461D01*
X164522557Y-103961578D01*
X164592000Y-103962200D01*
X164745040Y-103956823D01*
X164824063Y-103932983D01*
X164856420Y-103879110D01*
X164862234Y-103847900D01*
X164886396Y-103776005D01*
X164950976Y-103742484D01*
X165084866Y-103733652D01*
X165103534Y-103733600D01*
X165328600Y-103733600D01*
X165328600Y-104241600D01*
X164947600Y-104241600D01*
X164752453Y-104244149D01*
X164637924Y-104255389D01*
X164583087Y-104280706D01*
X164567015Y-104325487D01*
X164566600Y-104339666D01*
X164523768Y-104427737D01*
X164452300Y-104453966D01*
X164383776Y-104475645D01*
X164349739Y-104533459D01*
X164338622Y-104654756D01*
X164338000Y-104724200D01*
X164343544Y-104877554D01*
X164367634Y-104956731D01*
X164421458Y-104988884D01*
X164449177Y-104994023D01*
X164549712Y-105052704D01*
X164576177Y-105121023D01*
X164590121Y-105172514D01*
X164627207Y-105205986D01*
X164706827Y-105226243D01*
X164848375Y-105238090D01*
X165071245Y-105246330D01*
X165083532Y-105246694D01*
X165309923Y-105252230D01*
X165454253Y-105250142D01*
X165535993Y-105236617D01*
X165574610Y-105207839D01*
X165589574Y-105159996D01*
X165591532Y-105147176D01*
X165653263Y-105040731D01*
X165735000Y-105003600D01*
X165847037Y-104936324D01*
X165878234Y-104861817D01*
X165879177Y-104797562D01*
X165842599Y-104764028D01*
X165745371Y-104751352D01*
X165615067Y-104749600D01*
X165452644Y-104754183D01*
X165365711Y-104774354D01*
X165328331Y-104819742D01*
X165319434Y-104859375D01*
X165290305Y-104932361D01*
X165212352Y-104965578D01*
X165100000Y-104973675D01*
X164896800Y-104978200D01*
X164865834Y-104495600D01*
X165224217Y-104495600D01*
X165410943Y-104493671D01*
X165518114Y-104482818D01*
X165567764Y-104455439D01*
X165581931Y-104403932D01*
X165582600Y-104371974D01*
X165605961Y-104276365D01*
X165694858Y-104236093D01*
X165722300Y-104232274D01*
X165808283Y-104212587D01*
X165852416Y-104160270D01*
X165872303Y-104046513D01*
X165877336Y-103978528D01*
X165882432Y-103833862D01*
X165863537Y-103761510D01*
X165806233Y-103732640D01*
X165750336Y-103724528D01*
X165634459Y-103683611D01*
X165591767Y-103593900D01*
X165579079Y-103541803D01*
X165546085Y-103508543D01*
X165473586Y-103489905D01*
X165342382Y-103481674D01*
X165133273Y-103479636D01*
X165071067Y-103479600D01*
X164841491Y-103480387D01*
G36*
X166644683Y-103480677D02*
G01*
X166490719Y-103486521D01*
X166400930Y-103501047D01*
X166356607Y-103528172D01*
X166339038Y-103571811D01*
X166335434Y-103593900D01*
X166277936Y-103696190D01*
X166201882Y-103724828D01*
X166112838Y-103763295D01*
X166100282Y-103851828D01*
X166122590Y-103918159D01*
X166182879Y-103951087D01*
X166308247Y-103961703D01*
X166370000Y-103962200D01*
X166520054Y-103958184D01*
X166592651Y-103938438D01*
X166611848Y-103891413D01*
X166608107Y-103847900D01*
X166607528Y-103780435D01*
X166646230Y-103746493D01*
X166748162Y-103734730D01*
X166849407Y-103733600D01*
X167106600Y-103733600D01*
X167106600Y-103989826D01*
X167096135Y-104158316D01*
X167063758Y-104233030D01*
X167043100Y-104237807D01*
X166961246Y-104234365D01*
X166812757Y-104233755D01*
X166662100Y-104235581D01*
X166486623Y-104242806D01*
X166390267Y-104260853D01*
X166350619Y-104296929D01*
X166344600Y-104337692D01*
X166298383Y-104427742D01*
X166214884Y-104466342D01*
X166136560Y-104495581D01*
X166101382Y-104551377D01*
X166096517Y-104664288D01*
X166100584Y-104738549D01*
X166117595Y-104888258D01*
X166152471Y-104963851D01*
X166218788Y-104992722D01*
X166227177Y-104994023D01*
X166327712Y-105052704D01*
X166354177Y-105121023D01*
X166368256Y-105172796D01*
X166405715Y-105206342D01*
X166486080Y-105226556D01*
X166628877Y-105238334D01*
X166853631Y-105246572D01*
X166855117Y-105246616D01*
X167068057Y-105249332D01*
X167241465Y-105244781D01*
X167351168Y-105233946D01*
X167375817Y-105225450D01*
X167406423Y-105149070D01*
X167411400Y-105096733D01*
X167451118Y-105018209D01*
X167513000Y-105003600D01*
X167592671Y-104973834D01*
X167614600Y-104876600D01*
X167606365Y-104801226D01*
X167564338Y-104763624D01*
X167462537Y-104750803D01*
X167360600Y-104749600D01*
X167207479Y-104755344D01*
X167131176Y-104778738D01*
X167107260Y-104829019D01*
X167106600Y-104845642D01*
X167075200Y-104920168D01*
X166967674Y-104957325D01*
X166941500Y-104960800D01*
X166757824Y-104973112D01*
X166653782Y-104948132D01*
X166610343Y-104872819D01*
X166608480Y-104734132D01*
X166608587Y-104732652D01*
X166624000Y-104521000D01*
X167005000Y-104495600D01*
X167200498Y-104479893D01*
X167316560Y-104459935D01*
X167375289Y-104427953D01*
X167398789Y-104376173D01*
X167402234Y-104355900D01*
X167452555Y-104260341D01*
X167516534Y-104241600D01*
X167575533Y-104227114D01*
X167604944Y-104167226D01*
X167614285Y-104037284D01*
X167614600Y-103987600D01*
X167609251Y-103835249D01*
X167586547Y-103759266D01*
X167536500Y-103734686D01*
X167513000Y-103733600D01*
X167433330Y-103703834D01*
X167411400Y-103606600D01*
X167411400Y-103479600D01*
X166881534Y-103479600D01*
X166644683Y-103480677D01*
G37*
X166644683Y-103480677D02*
X166490719Y-103486521D01*
X166400930Y-103501047D01*
X166356607Y-103528172D01*
X166339038Y-103571811D01*
X166335434Y-103593900D01*
X166277936Y-103696190D01*
X166201882Y-103724828D01*
X166112838Y-103763295D01*
X166100282Y-103851828D01*
X166122590Y-103918159D01*
X166182879Y-103951087D01*
X166308247Y-103961703D01*
X166370000Y-103962200D01*
X166520054Y-103958184D01*
X166592651Y-103938438D01*
X166611848Y-103891413D01*
X166608107Y-103847900D01*
X166607528Y-103780435D01*
X166646230Y-103746493D01*
X166748162Y-103734730D01*
X166849407Y-103733600D01*
X167106600Y-103733600D01*
X167106600Y-103989826D01*
X167096135Y-104158316D01*
X167063758Y-104233030D01*
X167043100Y-104237807D01*
X166961246Y-104234365D01*
X166812757Y-104233755D01*
X166662100Y-104235581D01*
X166486623Y-104242806D01*
X166390267Y-104260853D01*
X166350619Y-104296929D01*
X166344600Y-104337692D01*
X166298383Y-104427742D01*
X166214884Y-104466342D01*
X166136560Y-104495581D01*
X166101382Y-104551377D01*
X166096517Y-104664288D01*
X166100584Y-104738549D01*
X166117595Y-104888258D01*
X166152471Y-104963851D01*
X166218788Y-104992722D01*
X166227177Y-104994023D01*
X166327712Y-105052704D01*
X166354177Y-105121023D01*
X166368256Y-105172796D01*
X166405715Y-105206342D01*
X166486080Y-105226556D01*
X166628877Y-105238334D01*
X166853631Y-105246572D01*
X166855117Y-105246616D01*
X167068057Y-105249332D01*
X167241465Y-105244781D01*
X167351168Y-105233946D01*
X167375817Y-105225450D01*
X167406423Y-105149070D01*
X167411400Y-105096733D01*
X167451118Y-105018209D01*
X167513000Y-105003600D01*
X167592671Y-104973834D01*
X167614600Y-104876600D01*
X167606365Y-104801226D01*
X167564338Y-104763624D01*
X167462537Y-104750803D01*
X167360600Y-104749600D01*
X167207479Y-104755344D01*
X167131176Y-104778738D01*
X167107260Y-104829019D01*
X167106600Y-104845642D01*
X167075200Y-104920168D01*
X166967674Y-104957325D01*
X166941500Y-104960800D01*
X166757824Y-104973112D01*
X166653782Y-104948132D01*
X166610343Y-104872819D01*
X166608480Y-104734132D01*
X166608587Y-104732652D01*
X166624000Y-104521000D01*
X167005000Y-104495600D01*
X167200498Y-104479893D01*
X167316560Y-104459935D01*
X167375289Y-104427953D01*
X167398789Y-104376173D01*
X167402234Y-104355900D01*
X167452555Y-104260341D01*
X167516534Y-104241600D01*
X167575533Y-104227114D01*
X167604944Y-104167226D01*
X167614285Y-104037284D01*
X167614600Y-103987600D01*
X167609251Y-103835249D01*
X167586547Y-103759266D01*
X167536500Y-103734686D01*
X167513000Y-103733600D01*
X167433330Y-103703834D01*
X167411400Y-103606600D01*
X167411400Y-103479600D01*
X166881534Y-103479600D01*
X166644683Y-103480677D01*
G36*
X167877767Y-103593900D02*
G01*
X167891581Y-103647261D01*
X167927803Y-103681721D01*
X168006094Y-103702382D01*
X168146117Y-103714348D01*
X168367530Y-103722725D01*
X168374870Y-103722951D01*
X168586360Y-103734404D01*
X168757613Y-103752987D01*
X168864555Y-103775615D01*
X168887218Y-103788635D01*
X168900356Y-103868719D01*
X168892259Y-104000543D01*
X168888242Y-104027884D01*
X168857788Y-104216200D01*
X168486961Y-104231190D01*
X168296512Y-104240973D01*
X168187081Y-104256001D01*
X168138108Y-104283629D01*
X168129032Y-104331217D01*
X168132068Y-104358190D01*
X168149440Y-104416696D01*
X168195923Y-104452042D01*
X168294029Y-104471666D01*
X168466271Y-104483006D01*
X168516300Y-104485125D01*
X168884600Y-104500051D01*
X168884600Y-104726425D01*
X168876944Y-104862562D01*
X168857598Y-104944461D01*
X168846500Y-104954937D01*
X168781719Y-104956993D01*
X168640612Y-104960683D01*
X168448427Y-104965363D01*
X168351200Y-104967637D01*
X168134769Y-104973739D01*
X168000377Y-104983767D01*
X167928482Y-105003601D01*
X167899543Y-105039121D01*
X167894018Y-105096208D01*
X167894000Y-105105200D01*
X167894000Y-105232200D01*
X168633532Y-105246202D01*
X168898062Y-105248870D01*
X169125705Y-105246743D01*
X169297499Y-105240339D01*
X169394485Y-105230176D01*
X169408232Y-105225035D01*
X169419877Y-105164925D01*
X169429893Y-105020715D01*
X169437590Y-104809904D01*
X169442277Y-104549986D01*
X169443400Y-104334733D01*
X169443400Y-103479600D01*
X167861534Y-103479600D01*
X167877767Y-103593900D01*
G37*
X167877767Y-103593900D02*
X167891581Y-103647261D01*
X167927803Y-103681721D01*
X168006094Y-103702382D01*
X168146117Y-103714348D01*
X168367530Y-103722725D01*
X168374870Y-103722951D01*
X168586360Y-103734404D01*
X168757613Y-103752987D01*
X168864555Y-103775615D01*
X168887218Y-103788635D01*
X168900356Y-103868719D01*
X168892259Y-104000543D01*
X168888242Y-104027884D01*
X168857788Y-104216200D01*
X168486961Y-104231190D01*
X168296512Y-104240973D01*
X168187081Y-104256001D01*
X168138108Y-104283629D01*
X168129032Y-104331217D01*
X168132068Y-104358190D01*
X168149440Y-104416696D01*
X168195923Y-104452042D01*
X168294029Y-104471666D01*
X168466271Y-104483006D01*
X168516300Y-104485125D01*
X168884600Y-104500051D01*
X168884600Y-104726425D01*
X168876944Y-104862562D01*
X168857598Y-104944461D01*
X168846500Y-104954937D01*
X168781719Y-104956993D01*
X168640612Y-104960683D01*
X168448427Y-104965363D01*
X168351200Y-104967637D01*
X168134769Y-104973739D01*
X168000377Y-104983767D01*
X167928482Y-105003601D01*
X167899543Y-105039121D01*
X167894018Y-105096208D01*
X167894000Y-105105200D01*
X167894000Y-105232200D01*
X168633532Y-105246202D01*
X168898062Y-105248870D01*
X169125705Y-105246743D01*
X169297499Y-105240339D01*
X169394485Y-105230176D01*
X169408232Y-105225035D01*
X169419877Y-105164925D01*
X169429893Y-105020715D01*
X169437590Y-104809904D01*
X169442277Y-104549986D01*
X169443400Y-104334733D01*
X169443400Y-103479600D01*
X167861534Y-103479600D01*
X167877767Y-103593900D01*
G36*
X169900600Y-103606600D02*
G01*
X169822106Y-103710803D01*
X169746674Y-103733600D01*
X169683329Y-103744786D01*
X169655320Y-103795632D01*
X169652961Y-103912064D01*
X169656517Y-103974900D01*
X169673169Y-104124711D01*
X169707260Y-104200614D01*
X169772713Y-104230243D01*
X169786300Y-104232433D01*
X169880266Y-104278554D01*
X169899106Y-104356799D01*
X169844977Y-104433335D01*
X169771406Y-104466211D01*
X169704877Y-104488225D01*
X169667513Y-104528264D01*
X169652505Y-104610106D01*
X169653045Y-104757527D01*
X169657106Y-104865418D01*
X169672000Y-105232200D01*
X170180000Y-105232200D01*
X170192740Y-104521000D01*
X170942000Y-104521000D01*
X170953414Y-105232200D01*
X171178198Y-105247241D01*
X171322550Y-105248867D01*
X171421179Y-105235246D01*
X171439192Y-105226075D01*
X171451182Y-105165606D01*
X171461496Y-105021066D01*
X171469421Y-104809979D01*
X171474245Y-104549869D01*
X171475400Y-104334733D01*
X171475400Y-103733600D01*
X170960605Y-103733600D01*
X170959475Y-103898700D01*
X170952643Y-104074963D01*
X170920998Y-104177777D01*
X170843324Y-104225231D01*
X170698403Y-104235415D01*
X170569570Y-104231126D01*
X170230800Y-104216200D01*
X170202892Y-104038400D01*
X170186239Y-103891183D01*
X170204604Y-103800981D01*
X170275543Y-103753915D01*
X170416609Y-103736107D01*
X170588438Y-103733600D01*
X170960605Y-103733600D01*
X171475400Y-103733600D01*
X171475400Y-103479600D01*
X169948886Y-103479600D01*
X169900600Y-103606600D01*
G37*
X169900600Y-103606600D02*
X169822106Y-103710803D01*
X169746674Y-103733600D01*
X169683329Y-103744786D01*
X169655320Y-103795632D01*
X169652961Y-103912064D01*
X169656517Y-103974900D01*
X169673169Y-104124711D01*
X169707260Y-104200614D01*
X169772713Y-104230243D01*
X169786300Y-104232433D01*
X169880266Y-104278554D01*
X169899106Y-104356799D01*
X169844977Y-104433335D01*
X169771406Y-104466211D01*
X169704877Y-104488225D01*
X169667513Y-104528264D01*
X169652505Y-104610106D01*
X169653045Y-104757527D01*
X169657106Y-104865418D01*
X169672000Y-105232200D01*
X170180000Y-105232200D01*
X170192740Y-104521000D01*
X170942000Y-104521000D01*
X170953414Y-105232200D01*
X171178198Y-105247241D01*
X171322550Y-105248867D01*
X171421179Y-105235246D01*
X171439192Y-105226075D01*
X171451182Y-105165606D01*
X171461496Y-105021066D01*
X171469421Y-104809979D01*
X171474245Y-104549869D01*
X171475400Y-104334733D01*
X171475400Y-103733600D01*
X170960605Y-103733600D01*
X170959475Y-103898700D01*
X170952643Y-104074963D01*
X170920998Y-104177777D01*
X170843324Y-104225231D01*
X170698403Y-104235415D01*
X170569570Y-104231126D01*
X170230800Y-104216200D01*
X170202892Y-104038400D01*
X170186239Y-103891183D01*
X170204604Y-103800981D01*
X170275543Y-103753915D01*
X170416609Y-103736107D01*
X170588438Y-103733600D01*
X170960605Y-103733600D01*
X171475400Y-103733600D01*
X171475400Y-103479600D01*
X169948886Y-103479600D01*
X169900600Y-103606600D01*
G36*
X172707300Y-103490941D02*
G01*
X172394455Y-103499307D01*
X172172979Y-103511519D01*
X172032683Y-103528624D01*
X171963375Y-103551668D01*
X171951650Y-103568500D01*
X171940693Y-103668475D01*
X171938950Y-103682800D01*
X171890202Y-103720838D01*
X171802817Y-103733600D01*
X171724811Y-103741003D01*
X171689285Y-103781021D01*
X171683479Y-103880364D01*
X171688517Y-103972855D01*
X171705424Y-104122473D01*
X171741464Y-104200599D01*
X171812551Y-104237291D01*
X171831000Y-104241981D01*
X171935852Y-104302117D01*
X171958000Y-104371025D01*
X171966753Y-104416731D01*
X172005149Y-104447648D01*
X172091399Y-104468239D01*
X172243712Y-104482972D01*
X172466000Y-104495600D01*
X172974000Y-104521000D01*
X173003852Y-105257600D01*
X173456600Y-105257600D01*
X173456600Y-103733600D01*
X172999400Y-103733600D01*
X172999400Y-103953733D01*
X172992195Y-104096285D01*
X172974107Y-104191969D01*
X172965534Y-104207733D01*
X172901064Y-104224769D01*
X172764519Y-104236932D01*
X172585398Y-104241599D01*
X172584534Y-104241600D01*
X172237400Y-104241600D01*
X172237400Y-103733600D01*
X172999400Y-103733600D01*
X173456600Y-103733600D01*
X173456600Y-103476883D01*
X172707300Y-103490941D01*
G37*
X172707300Y-103490941D02*
X172394455Y-103499307D01*
X172172979Y-103511519D01*
X172032683Y-103528624D01*
X171963375Y-103551668D01*
X171951650Y-103568500D01*
X171940693Y-103668475D01*
X171938950Y-103682800D01*
X171890202Y-103720838D01*
X171802817Y-103733600D01*
X171724811Y-103741003D01*
X171689285Y-103781021D01*
X171683479Y-103880364D01*
X171688517Y-103972855D01*
X171705424Y-104122473D01*
X171741464Y-104200599D01*
X171812551Y-104237291D01*
X171831000Y-104241981D01*
X171935852Y-104302117D01*
X171958000Y-104371025D01*
X171966753Y-104416731D01*
X172005149Y-104447648D01*
X172091399Y-104468239D01*
X172243712Y-104482972D01*
X172466000Y-104495600D01*
X172974000Y-104521000D01*
X173003852Y-105257600D01*
X173456600Y-105257600D01*
X173456600Y-103733600D01*
X172999400Y-103733600D01*
X172999400Y-103953733D01*
X172992195Y-104096285D01*
X172974107Y-104191969D01*
X172965534Y-104207733D01*
X172901064Y-104224769D01*
X172764519Y-104236932D01*
X172585398Y-104241599D01*
X172584534Y-104241600D01*
X172237400Y-104241600D01*
X172237400Y-103733600D01*
X172999400Y-103733600D01*
X173456600Y-103733600D01*
X173456600Y-103476883D01*
X172707300Y-103490941D01*
D12*
X146070000Y-120290000D02*
X146070000Y-117490000D01*
X145370000Y-116840000D02*
X144770000Y-116840000D01*
X144070000Y-117490000D02*
X144070000Y-120290000D01*
X144770000Y-120940000D02*
X145370000Y-120940000D01*
X145370000Y-120940000D02*
G75*
G03*
X146070000Y-120240000I0J700000D01*
G01*
X144070000Y-120240000D02*
G75*
G03*
X144770000Y-120940000I700000J0D01*
G01*
X144770000Y-116840000D02*
G75*
G03*
X144070000Y-117540000I0J-700000D01*
G01*
X146070000Y-117540000D02*
G75*
G03*
X145370000Y-116840000I-700000J0D01*
G01*
D13*
X146459285Y-118265000D02*
X146995000Y-118265000D01*
X147102142Y-118229285D01*
X147173571Y-118157857D01*
X147209285Y-118050714D01*
X147209285Y-117979285D01*
X147209285Y-118622142D02*
X146459285Y-118622142D01*
X146459285Y-118907857D01*
X146495000Y-118979285D01*
X146530714Y-119015000D01*
X146602142Y-119050714D01*
X146709285Y-119050714D01*
X146780714Y-119015000D01*
X146816428Y-118979285D01*
X146852142Y-118907857D01*
X146852142Y-118622142D01*
X147209285Y-119765000D02*
X147209285Y-119336428D01*
X147209285Y-119550714D02*
X146459285Y-119550714D01*
X146566428Y-119479285D01*
X146637857Y-119407857D01*
X146673571Y-119336428D01*
X145522380Y-121775714D02*
X145522380Y-121204285D01*
X145522380Y-121490000D02*
X144522380Y-121490000D01*
X144665238Y-121394761D01*
X144760476Y-121299523D01*
X144808095Y-121204285D01*
X144522380Y-115956666D02*
X144522380Y-116575714D01*
X144903333Y-116242380D01*
X144903333Y-116385238D01*
X144950952Y-116480476D01*
X144998571Y-116528095D01*
X145093809Y-116575714D01*
X145331904Y-116575714D01*
X145427142Y-116528095D01*
X145474761Y-116480476D01*
X145522380Y-116385238D01*
X145522380Y-116099523D01*
X145474761Y-116004285D01*
X145427142Y-115956666D01*
M02*
