G04 #@! TF.GenerationSoftware,KiCad,Pcbnew,(5.0.2)-1*
G04 #@! TF.CreationDate,2019-03-06T17:36:21+01:00*
G04 #@! TF.ProjectId,GBDSO,47424453-4f2e-46b6-9963-61645f706362,rev?*
G04 #@! TF.SameCoordinates,Original*
G04 #@! TF.FileFunction,Other,Comment*
%FSLAX46Y46*%
G04 Gerber Fmt 4.6, Leading zero omitted, Abs format (unit mm)*
G04 Created by KiCad (PCBNEW (5.0.2)-1) date 06/03/2019 17:36:21*
%MOMM*%
%LPD*%
G01*
G04 APERTURE LIST*
%ADD10C,0.300000*%
G04 APERTURE END LIST*
D10*
X48365516Y-98619746D02*
X47508374Y-98619134D01*
X47936945Y-98619440D02*
X47938016Y-97119440D01*
X47795006Y-97333624D01*
X47652047Y-97476379D01*
X47509139Y-97547706D01*
X49651945Y-97620665D02*
X49651230Y-98620665D01*
X49295210Y-97048981D02*
X48937302Y-98120155D01*
X49865873Y-98120818D01*
X50437046Y-98478369D02*
X50508424Y-98549848D01*
X50436944Y-98621226D01*
X50365567Y-98549746D01*
X50437046Y-98478369D01*
X50436944Y-98621226D01*
X51438016Y-97121940D02*
X51580873Y-97122043D01*
X51723679Y-97193573D01*
X51795056Y-97265053D01*
X51866383Y-97407961D01*
X51937607Y-97693726D01*
X51937352Y-98050869D01*
X51865720Y-98336532D01*
X51794189Y-98479338D01*
X51722709Y-98550716D01*
X51579801Y-98622042D01*
X51436944Y-98621940D01*
X51294138Y-98550410D01*
X51222760Y-98478930D01*
X51151434Y-98336022D01*
X51080210Y-98050257D01*
X51080465Y-97693114D01*
X51152097Y-97407451D01*
X51223628Y-97264645D01*
X51295107Y-97193267D01*
X51438016Y-97121940D01*
X52866587Y-97122961D02*
X53009444Y-97123063D01*
X53152250Y-97194594D01*
X53223627Y-97266073D01*
X53294954Y-97408981D01*
X53366178Y-97694746D01*
X53365923Y-98051889D01*
X53294291Y-98337552D01*
X53222760Y-98480359D01*
X53151280Y-98551736D01*
X53008372Y-98623063D01*
X52865515Y-98622961D01*
X52722709Y-98551430D01*
X52651332Y-98479950D01*
X52580005Y-98337042D01*
X52508781Y-98051277D01*
X52509036Y-97694134D01*
X52580668Y-97408471D01*
X52652199Y-97265665D01*
X52723678Y-97194287D01*
X52866587Y-97122961D01*
X54295158Y-97123981D02*
X54438015Y-97124083D01*
X54580821Y-97195614D01*
X54652198Y-97267094D01*
X54723525Y-97410002D01*
X54794749Y-97695767D01*
X54794494Y-98052910D01*
X54722862Y-98338573D01*
X54651331Y-98481379D01*
X54579851Y-98552756D01*
X54436943Y-98624083D01*
X54294086Y-98623981D01*
X54151280Y-98552450D01*
X54079903Y-98480971D01*
X54008576Y-98338063D01*
X53937352Y-98052297D01*
X53937607Y-97695155D01*
X54009239Y-97409491D01*
X54080770Y-97266685D01*
X54152250Y-97195308D01*
X54295158Y-97123981D01*
X56579800Y-98625614D02*
X56580514Y-97625614D01*
X56580412Y-97768471D02*
X56651892Y-97697093D01*
X56794800Y-97625767D01*
X57009086Y-97625920D01*
X57151892Y-97697451D01*
X57223218Y-97840359D01*
X57222657Y-98626073D01*
X57223218Y-97840359D02*
X57294749Y-97697553D01*
X57437657Y-97626226D01*
X57651943Y-97626379D01*
X57794749Y-97697910D01*
X57866075Y-97840818D01*
X57865514Y-98626532D01*
X58579799Y-98627042D02*
X58580514Y-97627042D01*
X58580412Y-97769900D02*
X58651891Y-97698522D01*
X58794799Y-97627195D01*
X59009085Y-97627349D01*
X59151891Y-97698879D01*
X59223218Y-97841787D01*
X59222656Y-98627501D01*
X59223218Y-97841787D02*
X59294748Y-97698981D01*
X59437656Y-97627655D01*
X59651942Y-97627808D01*
X59794748Y-97699338D01*
X59866075Y-97842246D01*
X59865513Y-98627961D01*
X60721643Y-100050001D02*
X46721643Y-100040001D01*
X60720000Y-102350000D02*
X60722062Y-99463580D01*
X46720000Y-102340000D02*
X46722062Y-99453580D01*
X46721643Y-100040001D02*
X47848565Y-99454385D01*
X46721643Y-100040001D02*
X47847728Y-100627226D01*
X60721643Y-100050001D02*
X59595558Y-99462776D01*
X60721643Y-100050001D02*
X59594721Y-100635617D01*
X42638204Y-115566383D02*
X42638680Y-116494954D01*
X42066995Y-115995247D01*
X42067105Y-116209533D01*
X41995749Y-116352427D01*
X41924357Y-116423892D01*
X41781537Y-116495394D01*
X41424394Y-116495577D01*
X41281500Y-116424222D01*
X41210035Y-116352830D01*
X41138533Y-116210009D01*
X41138314Y-115781438D01*
X41209669Y-115638544D01*
X41281061Y-115567079D01*
X41139046Y-117210009D02*
X41139193Y-117495723D01*
X41210695Y-117638544D01*
X41282160Y-117709936D01*
X41496519Y-117852683D01*
X41782270Y-117923965D01*
X42353698Y-117923672D01*
X42496519Y-117852170D01*
X42567910Y-117780705D01*
X42639266Y-117637811D01*
X42639119Y-117352097D01*
X42567617Y-117209276D01*
X42496152Y-117137884D01*
X42353259Y-117066529D01*
X41996116Y-117066712D01*
X41853295Y-117138214D01*
X41781903Y-117209679D01*
X41710548Y-117352573D01*
X41710694Y-117638287D01*
X41782196Y-117781108D01*
X41853661Y-117852500D01*
X41996555Y-117923855D01*
X41282599Y-118567078D02*
X41211207Y-118638544D01*
X41139742Y-118567152D01*
X41211134Y-118495686D01*
X41282599Y-118567078D01*
X41139742Y-118567152D01*
X42640255Y-119566382D02*
X42640328Y-119709239D01*
X42568973Y-119852133D01*
X42497581Y-119923598D01*
X42354760Y-119995100D01*
X42069083Y-120066675D01*
X41711940Y-120066858D01*
X41426189Y-119995576D01*
X41283295Y-119924221D01*
X41211830Y-119852829D01*
X41140328Y-119710009D01*
X41140255Y-119567152D01*
X41211610Y-119424258D01*
X41283002Y-119352793D01*
X41425823Y-119281291D01*
X41711500Y-119209716D01*
X42068643Y-119209532D01*
X42354394Y-119280815D01*
X42497288Y-119352170D01*
X42568753Y-119423562D01*
X42640255Y-119566382D01*
X42640987Y-120994954D02*
X42641061Y-121137811D01*
X42569705Y-121280704D01*
X42498313Y-121352170D01*
X42355493Y-121423671D01*
X42069815Y-121495246D01*
X41712673Y-121495430D01*
X41426922Y-121424148D01*
X41284028Y-121352792D01*
X41212563Y-121281400D01*
X41141061Y-121138580D01*
X41140988Y-120995723D01*
X41212343Y-120852829D01*
X41283735Y-120781364D01*
X41426555Y-120709862D01*
X41712233Y-120638287D01*
X42069376Y-120638104D01*
X42355127Y-120709386D01*
X42498020Y-120780741D01*
X42569486Y-120852133D01*
X42640987Y-120994954D01*
X42641720Y-122423525D02*
X42641793Y-122566382D01*
X42570438Y-122709276D01*
X42499046Y-122780741D01*
X42356226Y-122852243D01*
X42070548Y-122923818D01*
X41713405Y-122924001D01*
X41427654Y-122852719D01*
X41284760Y-122781364D01*
X41213295Y-122709972D01*
X41141793Y-122567151D01*
X41141720Y-122424294D01*
X41213076Y-122281400D01*
X41284467Y-122209935D01*
X41427288Y-122138433D01*
X41712966Y-122066858D01*
X42070108Y-122066675D01*
X42355859Y-122137957D01*
X42498753Y-122209312D01*
X42570218Y-122280704D01*
X42641720Y-122423525D01*
X41142892Y-124710008D02*
X42142892Y-124709495D01*
X42000035Y-124709568D02*
X42071500Y-124780960D01*
X42143002Y-124923781D01*
X42143112Y-125138067D01*
X42071757Y-125280960D01*
X41928936Y-125352462D01*
X41143222Y-125352865D01*
X41928936Y-125352462D02*
X42071830Y-125423817D01*
X42143332Y-125566638D01*
X42143442Y-125780924D01*
X42072086Y-125923817D01*
X41929266Y-125995319D01*
X41143552Y-125995722D01*
X41143918Y-126710008D02*
X42143918Y-126709495D01*
X42001061Y-126709568D02*
X42072526Y-126780960D01*
X42144028Y-126923781D01*
X42144138Y-127138066D01*
X42072782Y-127280960D01*
X41929962Y-127352462D01*
X41144248Y-127352865D01*
X41929962Y-127352462D02*
X42072856Y-127423817D01*
X42144357Y-127566638D01*
X42144467Y-127780923D01*
X42073112Y-127923817D01*
X41930292Y-127995319D01*
X41144577Y-127995722D01*
X43929999Y-141351441D02*
X43909999Y-102351441D01*
X46740000Y-141350000D02*
X43343579Y-141351742D01*
X46720000Y-102350000D02*
X43323579Y-102351742D01*
X43909999Y-102351441D02*
X44496997Y-103477644D01*
X43909999Y-102351441D02*
X43324156Y-103478245D01*
X43929999Y-141351441D02*
X44515842Y-140224637D01*
X43929999Y-141351441D02*
X43343001Y-140225238D01*
X56178571Y-153567142D02*
X56178571Y-154424285D01*
X56178571Y-153995714D02*
X54678571Y-153995714D01*
X54892857Y-154138571D01*
X55035714Y-154281428D01*
X55107142Y-154424285D01*
X54678571Y-153067142D02*
X54678571Y-152138571D01*
X55250000Y-152638571D01*
X55250000Y-152424285D01*
X55321428Y-152281428D01*
X55392857Y-152210000D01*
X55535714Y-152138571D01*
X55892857Y-152138571D01*
X56035714Y-152210000D01*
X56107142Y-152281428D01*
X56178571Y-152424285D01*
X56178571Y-152852857D01*
X56107142Y-152995714D01*
X56035714Y-153067142D01*
X56035714Y-151495714D02*
X56107142Y-151424285D01*
X56178571Y-151495714D01*
X56107142Y-151567142D01*
X56035714Y-151495714D01*
X56178571Y-151495714D01*
X54678571Y-150924285D02*
X54678571Y-149924285D01*
X56178571Y-150567142D01*
X54678571Y-149067142D02*
X54678571Y-148924285D01*
X54750000Y-148781428D01*
X54821428Y-148710000D01*
X54964285Y-148638571D01*
X55250000Y-148567142D01*
X55607142Y-148567142D01*
X55892857Y-148638571D01*
X56035714Y-148710000D01*
X56107142Y-148781428D01*
X56178571Y-148924285D01*
X56178571Y-149067142D01*
X56107142Y-149210000D01*
X56035714Y-149281428D01*
X55892857Y-149352857D01*
X55607142Y-149424285D01*
X55250000Y-149424285D01*
X54964285Y-149352857D01*
X54821428Y-149281428D01*
X54750000Y-149210000D01*
X54678571Y-149067142D01*
X54678571Y-147638571D02*
X54678571Y-147495714D01*
X54750000Y-147352857D01*
X54821428Y-147281428D01*
X54964285Y-147210000D01*
X55250000Y-147138571D01*
X55607142Y-147138571D01*
X55892857Y-147210000D01*
X56035714Y-147281428D01*
X56107142Y-147352857D01*
X56178571Y-147495714D01*
X56178571Y-147638571D01*
X56107142Y-147781428D01*
X56035714Y-147852857D01*
X55892857Y-147924285D01*
X55607142Y-147995714D01*
X55250000Y-147995714D01*
X54964285Y-147924285D01*
X54821428Y-147852857D01*
X54750000Y-147781428D01*
X54678571Y-147638571D01*
X56178571Y-145352857D02*
X55178571Y-145352857D01*
X55321428Y-145352857D02*
X55250000Y-145281428D01*
X55178571Y-145138571D01*
X55178571Y-144924285D01*
X55250000Y-144781428D01*
X55392857Y-144710000D01*
X56178571Y-144710000D01*
X55392857Y-144710000D02*
X55250000Y-144638571D01*
X55178571Y-144495714D01*
X55178571Y-144281428D01*
X55250000Y-144138571D01*
X55392857Y-144067142D01*
X56178571Y-144067142D01*
X56178571Y-143352857D02*
X55178571Y-143352857D01*
X55321428Y-143352857D02*
X55250000Y-143281428D01*
X55178571Y-143138571D01*
X55178571Y-142924285D01*
X55250000Y-142781428D01*
X55392857Y-142710000D01*
X56178571Y-142710000D01*
X55392857Y-142710000D02*
X55250000Y-142638571D01*
X55178571Y-142495714D01*
X55178571Y-142281428D01*
X55250000Y-142138571D01*
X55392857Y-142067142D01*
X56178571Y-142067142D01*
X57600000Y-155060000D02*
X57600000Y-141360000D01*
X60750000Y-155060000D02*
X57013579Y-155060000D01*
X60750000Y-141360000D02*
X57013579Y-141360000D01*
X57600000Y-141360000D02*
X58186421Y-142486504D01*
X57600000Y-141360000D02*
X57013579Y-142486504D01*
X57600000Y-155060000D02*
X58186421Y-153933496D01*
X57600000Y-155060000D02*
X57013579Y-153933496D01*
X64389957Y-160260595D02*
X63532815Y-160260118D01*
X63961386Y-160260357D02*
X63962219Y-158760357D01*
X63819243Y-158974563D01*
X63676307Y-159117341D01*
X63533410Y-159188690D01*
X65247576Y-159403928D02*
X65104759Y-159332420D01*
X65033370Y-159260952D01*
X64962021Y-159118055D01*
X64962061Y-159046627D01*
X65033568Y-158903809D01*
X65105037Y-158832420D01*
X65247934Y-158761071D01*
X65533648Y-158761230D01*
X65676465Y-158832738D01*
X65747854Y-158904206D01*
X65819203Y-159047103D01*
X65819164Y-159118531D01*
X65747656Y-159261349D01*
X65676187Y-159332738D01*
X65533291Y-159404087D01*
X65247576Y-159403928D01*
X65104680Y-159475277D01*
X65033211Y-159546666D01*
X64961703Y-159689484D01*
X64961545Y-159975198D01*
X65032894Y-160118095D01*
X65104283Y-160189563D01*
X65247100Y-160261071D01*
X65532814Y-160261230D01*
X65675711Y-160189880D01*
X65747179Y-160118491D01*
X65818687Y-159975674D01*
X65818846Y-159689960D01*
X65747497Y-159547063D01*
X65676108Y-159475595D01*
X65533291Y-159404087D01*
X66461465Y-160118888D02*
X66532854Y-160190357D01*
X66461386Y-160261745D01*
X66389997Y-160190277D01*
X66461465Y-160118888D01*
X66461386Y-160261745D01*
X67462219Y-158762301D02*
X67605076Y-158762381D01*
X67747893Y-158833889D01*
X67819282Y-158905357D01*
X67890632Y-159048254D01*
X67961901Y-159334007D01*
X67961703Y-159691150D01*
X67890116Y-159976825D01*
X67818608Y-160119642D01*
X67747140Y-160191031D01*
X67604243Y-160262380D01*
X67461386Y-160262301D01*
X67318568Y-160190793D01*
X67247179Y-160119325D01*
X67175830Y-159976428D01*
X67104560Y-159690674D01*
X67104759Y-159333531D01*
X67176346Y-159047857D01*
X67247854Y-158905039D01*
X67319322Y-158833650D01*
X67462219Y-158762301D01*
X68890790Y-158763095D02*
X69033647Y-158763174D01*
X69176465Y-158834682D01*
X69247854Y-158906150D01*
X69319203Y-159049047D01*
X69390473Y-159334801D01*
X69390274Y-159691944D01*
X69318687Y-159977618D01*
X69247179Y-160120436D01*
X69175711Y-160191825D01*
X69032814Y-160263174D01*
X68889957Y-160263095D01*
X68747139Y-160191587D01*
X68675750Y-160120118D01*
X68604401Y-159977222D01*
X68533131Y-159691468D01*
X68533330Y-159334325D01*
X68604917Y-159048650D01*
X68676425Y-158905833D01*
X68747893Y-158834444D01*
X68890790Y-158763095D01*
X70319361Y-158763889D02*
X70462218Y-158763968D01*
X70605036Y-158835476D01*
X70676425Y-158906944D01*
X70747774Y-159049841D01*
X70819044Y-159335595D01*
X70818845Y-159692738D01*
X70747258Y-159978412D01*
X70675750Y-160121230D01*
X70604282Y-160192618D01*
X70461385Y-160263968D01*
X70318528Y-160263888D01*
X70175711Y-160192380D01*
X70104322Y-160120912D01*
X70032972Y-159978015D01*
X69961703Y-159692261D01*
X69961901Y-159335119D01*
X70033488Y-159049444D01*
X70104996Y-158906627D01*
X70176465Y-158835238D01*
X70319361Y-158763889D01*
X72604242Y-160265158D02*
X72604797Y-159265158D01*
X72604718Y-159408015D02*
X72676186Y-159336627D01*
X72819083Y-159265277D01*
X73033369Y-159265396D01*
X73176186Y-159336904D01*
X73247535Y-159479801D01*
X73247099Y-160265515D01*
X73247535Y-159479801D02*
X73319043Y-159336984D01*
X73461940Y-159265634D01*
X73676226Y-159265754D01*
X73819043Y-159337261D01*
X73890393Y-159480158D01*
X73889956Y-160265872D01*
X74604242Y-160266269D02*
X74604797Y-159266269D01*
X74604718Y-159409127D02*
X74676186Y-159337738D01*
X74819083Y-159266388D01*
X75033369Y-159266507D01*
X75176186Y-159338015D01*
X75247535Y-159480912D01*
X75247099Y-160266626D01*
X75247535Y-159480912D02*
X75319043Y-159338095D01*
X75461940Y-159266746D01*
X75676226Y-159266865D01*
X75819043Y-159338373D01*
X75890392Y-159481269D01*
X75889956Y-160266984D01*
X78748644Y-157490000D02*
X60748644Y-157480000D01*
X78750000Y-155050000D02*
X78748319Y-158076420D01*
X60750000Y-155040000D02*
X60748319Y-158066420D01*
X60748644Y-157480000D02*
X61875473Y-156894205D01*
X60748644Y-157480000D02*
X61874822Y-158067046D01*
X78748644Y-157490000D02*
X77622466Y-156902954D01*
X78748644Y-157490000D02*
X77621815Y-158075795D01*
X74260000Y-83441428D02*
X74331428Y-83370000D01*
X74474285Y-83298571D01*
X74831428Y-83298571D01*
X74974285Y-83370000D01*
X75045714Y-83441428D01*
X75117142Y-83584285D01*
X75117142Y-83727142D01*
X75045714Y-83941428D01*
X74188571Y-84798571D01*
X75117142Y-84798571D01*
X75760000Y-84655714D02*
X75831428Y-84727142D01*
X75760000Y-84798571D01*
X75688571Y-84727142D01*
X75760000Y-84655714D01*
X75760000Y-84798571D01*
X76760000Y-83298571D02*
X76902857Y-83298571D01*
X77045714Y-83370000D01*
X77117142Y-83441428D01*
X77188571Y-83584285D01*
X77260000Y-83870000D01*
X77260000Y-84227142D01*
X77188571Y-84512857D01*
X77117142Y-84655714D01*
X77045714Y-84727142D01*
X76902857Y-84798571D01*
X76760000Y-84798571D01*
X76617142Y-84727142D01*
X76545714Y-84655714D01*
X76474285Y-84512857D01*
X76402857Y-84227142D01*
X76402857Y-83870000D01*
X76474285Y-83584285D01*
X76545714Y-83441428D01*
X76617142Y-83370000D01*
X76760000Y-83298571D01*
X78188571Y-83298571D02*
X78331428Y-83298571D01*
X78474285Y-83370000D01*
X78545714Y-83441428D01*
X78617142Y-83584285D01*
X78688571Y-83870000D01*
X78688571Y-84227142D01*
X78617142Y-84512857D01*
X78545714Y-84655714D01*
X78474285Y-84727142D01*
X78331428Y-84798571D01*
X78188571Y-84798571D01*
X78045714Y-84727142D01*
X77974285Y-84655714D01*
X77902857Y-84512857D01*
X77831428Y-84227142D01*
X77831428Y-83870000D01*
X77902857Y-83584285D01*
X77974285Y-83441428D01*
X78045714Y-83370000D01*
X78188571Y-83298571D01*
X79617142Y-83298571D02*
X79760000Y-83298571D01*
X79902857Y-83370000D01*
X79974285Y-83441428D01*
X80045714Y-83584285D01*
X80117142Y-83870000D01*
X80117142Y-84227142D01*
X80045714Y-84512857D01*
X79974285Y-84655714D01*
X79902857Y-84727142D01*
X79760000Y-84798571D01*
X79617142Y-84798571D01*
X79474285Y-84727142D01*
X79402857Y-84655714D01*
X79331428Y-84512857D01*
X79260000Y-84227142D01*
X79260000Y-83870000D01*
X79331428Y-83584285D01*
X79402857Y-83441428D01*
X79474285Y-83370000D01*
X79617142Y-83298571D01*
X81902857Y-84798571D02*
X81902857Y-83798571D01*
X81902857Y-83941428D02*
X81974285Y-83870000D01*
X82117142Y-83798571D01*
X82331428Y-83798571D01*
X82474285Y-83870000D01*
X82545714Y-84012857D01*
X82545714Y-84798571D01*
X82545714Y-84012857D02*
X82617142Y-83870000D01*
X82760000Y-83798571D01*
X82974285Y-83798571D01*
X83117142Y-83870000D01*
X83188571Y-84012857D01*
X83188571Y-84798571D01*
X83902857Y-84798571D02*
X83902857Y-83798571D01*
X83902857Y-83941428D02*
X83974285Y-83870000D01*
X84117142Y-83798571D01*
X84331428Y-83798571D01*
X84474285Y-83870000D01*
X84545714Y-84012857D01*
X84545714Y-84798571D01*
X84545714Y-84012857D02*
X84617142Y-83870000D01*
X84760000Y-83798571D01*
X84974285Y-83798571D01*
X85117142Y-83870000D01*
X85188571Y-84012857D01*
X85188571Y-84798571D01*
X80760000Y-86220000D02*
X78760000Y-86220000D01*
X80760000Y-91160000D02*
X80760000Y-85633579D01*
X78760000Y-91160000D02*
X78760000Y-85633579D01*
X78760000Y-86220000D02*
X79886504Y-85633579D01*
X78760000Y-86220000D02*
X79886504Y-86806421D01*
X80760000Y-86220000D02*
X79633496Y-85633579D01*
X80760000Y-86220000D02*
X79633496Y-86806421D01*
X135031243Y-127159619D02*
X135031243Y-127445333D01*
X135102672Y-127588190D01*
X135174100Y-127659619D01*
X135388386Y-127802476D01*
X135674100Y-127873904D01*
X136245529Y-127873904D01*
X136388386Y-127802476D01*
X136459814Y-127731047D01*
X136531243Y-127588190D01*
X136531243Y-127302476D01*
X136459814Y-127159619D01*
X136388386Y-127088190D01*
X136245529Y-127016761D01*
X135888386Y-127016761D01*
X135745529Y-127088190D01*
X135674100Y-127159619D01*
X135602672Y-127302476D01*
X135602672Y-127588190D01*
X135674100Y-127731047D01*
X135745529Y-127802476D01*
X135888386Y-127873904D01*
X136531243Y-125588190D02*
X136531243Y-126445333D01*
X136531243Y-126016761D02*
X135031243Y-126016761D01*
X135245529Y-126159619D01*
X135388386Y-126302476D01*
X135459814Y-126445333D01*
X136388386Y-124945333D02*
X136459814Y-124873904D01*
X136531243Y-124945333D01*
X136459814Y-125016761D01*
X136388386Y-124945333D01*
X136531243Y-124945333D01*
X135031243Y-123945333D02*
X135031243Y-123802476D01*
X135102672Y-123659619D01*
X135174100Y-123588190D01*
X135316957Y-123516761D01*
X135602672Y-123445333D01*
X135959814Y-123445333D01*
X136245529Y-123516761D01*
X136388386Y-123588190D01*
X136459814Y-123659619D01*
X136531243Y-123802476D01*
X136531243Y-123945333D01*
X136459814Y-124088190D01*
X136388386Y-124159619D01*
X136245529Y-124231047D01*
X135959814Y-124302476D01*
X135602672Y-124302476D01*
X135316957Y-124231047D01*
X135174100Y-124159619D01*
X135102672Y-124088190D01*
X135031243Y-123945333D01*
X135031243Y-122516761D02*
X135031243Y-122373904D01*
X135102672Y-122231047D01*
X135174100Y-122159619D01*
X135316957Y-122088190D01*
X135602672Y-122016761D01*
X135959814Y-122016761D01*
X136245529Y-122088190D01*
X136388386Y-122159619D01*
X136459814Y-122231047D01*
X136531243Y-122373904D01*
X136531243Y-122516761D01*
X136459814Y-122659619D01*
X136388386Y-122731047D01*
X136245529Y-122802476D01*
X135959814Y-122873904D01*
X135602672Y-122873904D01*
X135316957Y-122802476D01*
X135174100Y-122731047D01*
X135102672Y-122659619D01*
X135031243Y-122516761D01*
X135031243Y-121088190D02*
X135031243Y-120945333D01*
X135102672Y-120802476D01*
X135174100Y-120731047D01*
X135316957Y-120659619D01*
X135602672Y-120588190D01*
X135959814Y-120588190D01*
X136245529Y-120659619D01*
X136388386Y-120731047D01*
X136459814Y-120802476D01*
X136531243Y-120945333D01*
X136531243Y-121088190D01*
X136459814Y-121231047D01*
X136388386Y-121302476D01*
X136245529Y-121373904D01*
X135959814Y-121445333D01*
X135602672Y-121445333D01*
X135316957Y-121373904D01*
X135174100Y-121302476D01*
X135102672Y-121231047D01*
X135031243Y-121088190D01*
X136531243Y-118802476D02*
X135531243Y-118802476D01*
X135674100Y-118802476D02*
X135602672Y-118731047D01*
X135531243Y-118588190D01*
X135531243Y-118373904D01*
X135602672Y-118231047D01*
X135745529Y-118159619D01*
X136531243Y-118159619D01*
X135745529Y-118159619D02*
X135602672Y-118088190D01*
X135531243Y-117945333D01*
X135531243Y-117731047D01*
X135602672Y-117588190D01*
X135745529Y-117516761D01*
X136531243Y-117516761D01*
X136531243Y-116802476D02*
X135531243Y-116802476D01*
X135674100Y-116802476D02*
X135602672Y-116731047D01*
X135531243Y-116588190D01*
X135531243Y-116373904D01*
X135602672Y-116231047D01*
X135745529Y-116159619D01*
X136531243Y-116159619D01*
X135745529Y-116159619D02*
X135602672Y-116088190D01*
X135531243Y-115945333D01*
X135531243Y-115731047D01*
X135602672Y-115588190D01*
X135745529Y-115516761D01*
X136531243Y-115516761D01*
X133752672Y-152159619D02*
X133752672Y-91159619D01*
X131752672Y-152159619D02*
X134339093Y-152159619D01*
X131752672Y-91159619D02*
X134339093Y-91159619D01*
X133752672Y-91159619D02*
X134339093Y-92286123D01*
X133752672Y-91159619D02*
X133166251Y-92286123D01*
X133752672Y-152159619D02*
X134339093Y-151033115D01*
X133752672Y-152159619D02*
X133166251Y-151033115D01*
X100831428Y-85738571D02*
X100117142Y-85738571D01*
X100045714Y-86452857D01*
X100117142Y-86381428D01*
X100260000Y-86310000D01*
X100617142Y-86310000D01*
X100760000Y-86381428D01*
X100831428Y-86452857D01*
X100902857Y-86595714D01*
X100902857Y-86952857D01*
X100831428Y-87095714D01*
X100760000Y-87167142D01*
X100617142Y-87238571D01*
X100260000Y-87238571D01*
X100117142Y-87167142D01*
X100045714Y-87095714D01*
X102331428Y-87238571D02*
X101474285Y-87238571D01*
X101902857Y-87238571D02*
X101902857Y-85738571D01*
X101760000Y-85952857D01*
X101617142Y-86095714D01*
X101474285Y-86167142D01*
X102974285Y-87095714D02*
X103045714Y-87167142D01*
X102974285Y-87238571D01*
X102902857Y-87167142D01*
X102974285Y-87095714D01*
X102974285Y-87238571D01*
X103974285Y-85738571D02*
X104117142Y-85738571D01*
X104260000Y-85810000D01*
X104331428Y-85881428D01*
X104402857Y-86024285D01*
X104474285Y-86310000D01*
X104474285Y-86667142D01*
X104402857Y-86952857D01*
X104331428Y-87095714D01*
X104260000Y-87167142D01*
X104117142Y-87238571D01*
X103974285Y-87238571D01*
X103831428Y-87167142D01*
X103760000Y-87095714D01*
X103688571Y-86952857D01*
X103617142Y-86667142D01*
X103617142Y-86310000D01*
X103688571Y-86024285D01*
X103760000Y-85881428D01*
X103831428Y-85810000D01*
X103974285Y-85738571D01*
X105402857Y-85738571D02*
X105545714Y-85738571D01*
X105688571Y-85810000D01*
X105760000Y-85881428D01*
X105831428Y-86024285D01*
X105902857Y-86310000D01*
X105902857Y-86667142D01*
X105831428Y-86952857D01*
X105760000Y-87095714D01*
X105688571Y-87167142D01*
X105545714Y-87238571D01*
X105402857Y-87238571D01*
X105260000Y-87167142D01*
X105188571Y-87095714D01*
X105117142Y-86952857D01*
X105045714Y-86667142D01*
X105045714Y-86310000D01*
X105117142Y-86024285D01*
X105188571Y-85881428D01*
X105260000Y-85810000D01*
X105402857Y-85738571D01*
X106831428Y-85738571D02*
X106974285Y-85738571D01*
X107117142Y-85810000D01*
X107188571Y-85881428D01*
X107260000Y-86024285D01*
X107331428Y-86310000D01*
X107331428Y-86667142D01*
X107260000Y-86952857D01*
X107188571Y-87095714D01*
X107117142Y-87167142D01*
X106974285Y-87238571D01*
X106831428Y-87238571D01*
X106688571Y-87167142D01*
X106617142Y-87095714D01*
X106545714Y-86952857D01*
X106474285Y-86667142D01*
X106474285Y-86310000D01*
X106545714Y-86024285D01*
X106617142Y-85881428D01*
X106688571Y-85810000D01*
X106831428Y-85738571D01*
X109117142Y-87238571D02*
X109117142Y-86238571D01*
X109117142Y-86381428D02*
X109188571Y-86310000D01*
X109331428Y-86238571D01*
X109545714Y-86238571D01*
X109688571Y-86310000D01*
X109760000Y-86452857D01*
X109760000Y-87238571D01*
X109760000Y-86452857D02*
X109831428Y-86310000D01*
X109974285Y-86238571D01*
X110188571Y-86238571D01*
X110331428Y-86310000D01*
X110402857Y-86452857D01*
X110402857Y-87238571D01*
X111117142Y-87238571D02*
X111117142Y-86238571D01*
X111117142Y-86381428D02*
X111188571Y-86310000D01*
X111331428Y-86238571D01*
X111545714Y-86238571D01*
X111688571Y-86310000D01*
X111760000Y-86452857D01*
X111760000Y-87238571D01*
X111760000Y-86452857D02*
X111831428Y-86310000D01*
X111974285Y-86238571D01*
X112188571Y-86238571D01*
X112331428Y-86310000D01*
X112402857Y-86452857D01*
X112402857Y-87238571D01*
X80760000Y-88660000D02*
X131760000Y-88660000D01*
X80760000Y-91160000D02*
X80760000Y-88073579D01*
X131760000Y-91160000D02*
X131760000Y-88073579D01*
X131760000Y-88660000D02*
X130633496Y-89246421D01*
X131760000Y-88660000D02*
X130633496Y-88073579D01*
X80760000Y-88660000D02*
X81886504Y-89246421D01*
X80760000Y-88660000D02*
X81886504Y-88073579D01*
M02*
