G04 #@! TF.GenerationSoftware,KiCad,Pcbnew,(5.0.2)-1*
G04 #@! TF.CreationDate,2019-03-06T19:46:35+01:00*
G04 #@! TF.ProjectId,GBDSO,47424453-4f2e-46b6-9963-61645f706362,rev?*
G04 #@! TF.SameCoordinates,Original*
G04 #@! TF.FileFunction,Profile,NP*
%FSLAX46Y46*%
G04 Gerber Fmt 4.6, Leading zero omitted, Abs format (unit mm)*
G04 Created by KiCad (PCBNEW (5.0.2)-1) date 06/03/2019 19:46:35*
%MOMM*%
%LPD*%
G01*
G04 APERTURE LIST*
%ADD10C,0.150000*%
%ADD11C,0.100000*%
G04 APERTURE END LIST*
D10*
X78760000Y-149660000D02*
X78760000Y-151860000D01*
X80760000Y-99040000D02*
X80760000Y-113010000D01*
X78760000Y-133930000D02*
X78760000Y-147160000D01*
X80760000Y-115510000D02*
X80760000Y-131420000D01*
X80760000Y-133930000D02*
X80760000Y-147180000D01*
X78760000Y-115500000D02*
X78760000Y-131420000D01*
X78760000Y-99020000D02*
X78760000Y-113020000D01*
X80760000Y-149670000D02*
X80760000Y-152160000D01*
X80760000Y-113010000D02*
G75*
G02X78760000Y-113010000I-1000000J0D01*
G01*
X78760000Y-115500000D02*
G75*
G02X80760000Y-115500000I1000000J0D01*
G01*
X78760000Y-99020000D02*
G75*
G02X80760000Y-99020000I1000000J0D01*
G01*
X80760000Y-96530000D02*
G75*
G02X78760000Y-96530000I-1000000J0D01*
G01*
X78760000Y-133920000D02*
G75*
G02X80760000Y-133920000I1000000J0D01*
G01*
X80760000Y-131430000D02*
G75*
G02X78760000Y-131430000I-1000000J0D01*
G01*
X80760000Y-147170000D02*
G75*
G02X78760000Y-147170000I-1000000J0D01*
G01*
X78760000Y-149660000D02*
G75*
G02X80760000Y-149660000I1000000J0D01*
G01*
X46720000Y-102350000D02*
X46740000Y-141350000D01*
X46740000Y-141350000D02*
X55740000Y-141350000D01*
X55740000Y-141350000D02*
X55740000Y-151860000D01*
X55740000Y-151860000D02*
X78760000Y-151860000D01*
X78760000Y-91840000D02*
X78760000Y-96540000D01*
X55720000Y-91836000D02*
X78760000Y-91836000D01*
X55720000Y-102350000D02*
X55720000Y-91840000D01*
X46720000Y-102350000D02*
X55720000Y-102350000D01*
D11*
X109920000Y-136700000D02*
G75*
G03X109920000Y-136700000I-3650000J0D01*
G01*
D10*
X131760000Y-152160000D02*
X131760000Y-91160000D01*
X131760000Y-152160000D02*
X80760000Y-152160000D01*
X80760000Y-91160000D02*
X80760000Y-96530000D01*
X80760000Y-91160000D02*
X131760000Y-91160000D01*
M02*
