G04 #@! TF.GenerationSoftware,KiCad,Pcbnew,(5.0.2)-1*
G04 #@! TF.CreationDate,2019-03-07T04:17:10+01:00*
G04 #@! TF.ProjectId,GBDSO,47424453-4f2e-46b6-9963-61645f706362,rev?*
G04 #@! TF.SameCoordinates,Original*
G04 #@! TF.FileFunction,Legend,Bot*
G04 #@! TF.FilePolarity,Positive*
%FSLAX46Y46*%
G04 Gerber Fmt 4.6, Leading zero omitted, Abs format (unit mm)*
G04 Created by KiCad (PCBNEW (5.0.2)-1) date 07/03/2019 04:17:10*
%MOMM*%
%LPD*%
G01*
G04 APERTURE LIST*
%ADD10C,0.250000*%
%ADD11C,0.010000*%
%ADD12C,0.120000*%
%ADD13C,0.150000*%
G04 APERTURE END LIST*
D10*
X56325714Y-111839166D02*
X57135238Y-111839166D01*
X57230476Y-111791547D01*
X57278095Y-111743928D01*
X57325714Y-111648690D01*
X57325714Y-111505833D01*
X57278095Y-111410595D01*
X56944761Y-111839166D02*
X56992380Y-111743928D01*
X56992380Y-111553452D01*
X56944761Y-111458214D01*
X56897142Y-111410595D01*
X56801904Y-111362976D01*
X56516190Y-111362976D01*
X56420952Y-111410595D01*
X56373333Y-111458214D01*
X56325714Y-111553452D01*
X56325714Y-111743928D01*
X56373333Y-111839166D01*
X56992380Y-112315357D02*
X56325714Y-112315357D01*
X55992380Y-112315357D02*
X56040000Y-112267738D01*
X56087619Y-112315357D01*
X56040000Y-112362976D01*
X55992380Y-112315357D01*
X56087619Y-112315357D01*
X56325714Y-112648690D02*
X56325714Y-113029642D01*
X55992380Y-112791547D02*
X56849523Y-112791547D01*
X56944761Y-112839166D01*
X56992380Y-112934404D01*
X56992380Y-113029642D01*
X56992380Y-113362976D02*
X55992380Y-113362976D01*
X56992380Y-113791547D02*
X56468571Y-113791547D01*
X56373333Y-113743928D01*
X56325714Y-113648690D01*
X56325714Y-113505833D01*
X56373333Y-113410595D01*
X56420952Y-113362976D01*
X56325714Y-114696309D02*
X56992380Y-114696309D01*
X56325714Y-114267738D02*
X56849523Y-114267738D01*
X56944761Y-114315357D01*
X56992380Y-114410595D01*
X56992380Y-114553452D01*
X56944761Y-114648690D01*
X56897142Y-114696309D01*
X56992380Y-115172500D02*
X55992380Y-115172500D01*
X56373333Y-115172500D02*
X56325714Y-115267738D01*
X56325714Y-115458214D01*
X56373333Y-115553452D01*
X56420952Y-115601071D01*
X56516190Y-115648690D01*
X56801904Y-115648690D01*
X56897142Y-115601071D01*
X56944761Y-115553452D01*
X56992380Y-115458214D01*
X56992380Y-115267738D01*
X56944761Y-115172500D01*
X56897142Y-116077261D02*
X56944761Y-116124880D01*
X56992380Y-116077261D01*
X56944761Y-116029642D01*
X56897142Y-116077261D01*
X56992380Y-116077261D01*
X56944761Y-116982023D02*
X56992380Y-116886785D01*
X56992380Y-116696309D01*
X56944761Y-116601071D01*
X56897142Y-116553452D01*
X56801904Y-116505833D01*
X56516190Y-116505833D01*
X56420952Y-116553452D01*
X56373333Y-116601071D01*
X56325714Y-116696309D01*
X56325714Y-116886785D01*
X56373333Y-116982023D01*
X56992380Y-117553452D02*
X56944761Y-117458214D01*
X56897142Y-117410595D01*
X56801904Y-117362976D01*
X56516190Y-117362976D01*
X56420952Y-117410595D01*
X56373333Y-117458214D01*
X56325714Y-117553452D01*
X56325714Y-117696309D01*
X56373333Y-117791547D01*
X56420952Y-117839166D01*
X56516190Y-117886785D01*
X56801904Y-117886785D01*
X56897142Y-117839166D01*
X56944761Y-117791547D01*
X56992380Y-117696309D01*
X56992380Y-117553452D01*
X56992380Y-118315357D02*
X56325714Y-118315357D01*
X56420952Y-118315357D02*
X56373333Y-118362976D01*
X56325714Y-118458214D01*
X56325714Y-118601071D01*
X56373333Y-118696309D01*
X56468571Y-118743928D01*
X56992380Y-118743928D01*
X56468571Y-118743928D02*
X56373333Y-118791547D01*
X56325714Y-118886785D01*
X56325714Y-119029642D01*
X56373333Y-119124880D01*
X56468571Y-119172500D01*
X56992380Y-119172500D01*
X55944761Y-120362976D02*
X57230476Y-119505833D01*
X56325714Y-120696309D02*
X57325714Y-120696309D01*
X56373333Y-120696309D02*
X56325714Y-120791547D01*
X56325714Y-120982023D01*
X56373333Y-121077261D01*
X56420952Y-121124880D01*
X56516190Y-121172500D01*
X56801904Y-121172500D01*
X56897142Y-121124880D01*
X56944761Y-121077261D01*
X56992380Y-120982023D01*
X56992380Y-120791547D01*
X56944761Y-120696309D01*
X56325714Y-121505833D02*
X56992380Y-121743928D01*
X56325714Y-121982023D02*
X56992380Y-121743928D01*
X57230476Y-121648690D01*
X57278095Y-121601071D01*
X57325714Y-121505833D01*
X56992380Y-122362976D02*
X56325714Y-122362976D01*
X56516190Y-122362976D02*
X56420952Y-122410595D01*
X56373333Y-122458214D01*
X56325714Y-122553452D01*
X56325714Y-122648690D01*
X56992380Y-123124880D02*
X56944761Y-123029642D01*
X56897142Y-122982023D01*
X56801904Y-122934404D01*
X56516190Y-122934404D01*
X56420952Y-122982023D01*
X56373333Y-123029642D01*
X56325714Y-123124880D01*
X56325714Y-123267738D01*
X56373333Y-123362976D01*
X56420952Y-123410595D01*
X56516190Y-123458214D01*
X56801904Y-123458214D01*
X56897142Y-123410595D01*
X56944761Y-123362976D01*
X56992380Y-123267738D01*
X56992380Y-123124880D01*
X56944761Y-124267738D02*
X56992380Y-124172500D01*
X56992380Y-123982023D01*
X56944761Y-123886785D01*
X56849523Y-123839166D01*
X56468571Y-123839166D01*
X56373333Y-123886785D01*
X56325714Y-123982023D01*
X56325714Y-124172500D01*
X56373333Y-124267738D01*
X56468571Y-124315357D01*
X56563809Y-124315357D01*
X56659047Y-123839166D01*
X56944761Y-124696309D02*
X56992380Y-124791547D01*
X56992380Y-124982023D01*
X56944761Y-125077261D01*
X56849523Y-125124880D01*
X56801904Y-125124880D01*
X56706666Y-125077261D01*
X56659047Y-124982023D01*
X56659047Y-124839166D01*
X56611428Y-124743928D01*
X56516190Y-124696309D01*
X56468571Y-124696309D01*
X56373333Y-124743928D01*
X56325714Y-124839166D01*
X56325714Y-124982023D01*
X56373333Y-125077261D01*
X56325714Y-125553452D02*
X57325714Y-125553452D01*
X56373333Y-125553452D02*
X56325714Y-125648690D01*
X56325714Y-125839166D01*
X56373333Y-125934404D01*
X56420952Y-125982023D01*
X56516190Y-126029642D01*
X56801904Y-126029642D01*
X56897142Y-125982023D01*
X56944761Y-125934404D01*
X56992380Y-125839166D01*
X56992380Y-125648690D01*
X56944761Y-125553452D01*
X55944761Y-127172500D02*
X57230476Y-126315357D01*
X56040000Y-128029642D02*
X55992380Y-127934404D01*
X55992380Y-127791547D01*
X56040000Y-127648690D01*
X56135238Y-127553452D01*
X56230476Y-127505833D01*
X56420952Y-127458214D01*
X56563809Y-127458214D01*
X56754285Y-127505833D01*
X56849523Y-127553452D01*
X56944761Y-127648690D01*
X56992380Y-127791547D01*
X56992380Y-127886785D01*
X56944761Y-128029642D01*
X56897142Y-128077261D01*
X56563809Y-128077261D01*
X56563809Y-127886785D01*
X56468571Y-128839166D02*
X56516190Y-128982023D01*
X56563809Y-129029642D01*
X56659047Y-129077261D01*
X56801904Y-129077261D01*
X56897142Y-129029642D01*
X56944761Y-128982023D01*
X56992380Y-128886785D01*
X56992380Y-128505833D01*
X55992380Y-128505833D01*
X55992380Y-128839166D01*
X56040000Y-128934404D01*
X56087619Y-128982023D01*
X56182857Y-129029642D01*
X56278095Y-129029642D01*
X56373333Y-128982023D01*
X56420952Y-128934404D01*
X56468571Y-128839166D01*
X56468571Y-128505833D01*
X56992380Y-129505833D02*
X55992380Y-129505833D01*
X55992380Y-129743928D01*
X56040000Y-129886785D01*
X56135238Y-129982023D01*
X56230476Y-130029642D01*
X56420952Y-130077261D01*
X56563809Y-130077261D01*
X56754285Y-130029642D01*
X56849523Y-129982023D01*
X56944761Y-129886785D01*
X56992380Y-129743928D01*
X56992380Y-129505833D01*
X56944761Y-130458214D02*
X56992380Y-130601071D01*
X56992380Y-130839166D01*
X56944761Y-130934404D01*
X56897142Y-130982023D01*
X56801904Y-131029642D01*
X56706666Y-131029642D01*
X56611428Y-130982023D01*
X56563809Y-130934404D01*
X56516190Y-130839166D01*
X56468571Y-130648690D01*
X56420952Y-130553452D01*
X56373333Y-130505833D01*
X56278095Y-130458214D01*
X56182857Y-130458214D01*
X56087619Y-130505833D01*
X56040000Y-130553452D01*
X55992380Y-130648690D01*
X55992380Y-130886785D01*
X56040000Y-131029642D01*
X55992380Y-131648690D02*
X55992380Y-131839166D01*
X56040000Y-131934404D01*
X56135238Y-132029642D01*
X56325714Y-132077261D01*
X56659047Y-132077261D01*
X56849523Y-132029642D01*
X56944761Y-131934404D01*
X56992380Y-131839166D01*
X56992380Y-131648690D01*
X56944761Y-131553452D01*
X56849523Y-131458214D01*
X56659047Y-131410595D01*
X56325714Y-131410595D01*
X56135238Y-131458214D01*
X56040000Y-131553452D01*
X55992380Y-131648690D01*
X72297619Y-93635000D02*
X72392857Y-93587380D01*
X72535714Y-93587380D01*
X72678571Y-93635000D01*
X72773809Y-93730238D01*
X72821428Y-93825476D01*
X72869047Y-94015952D01*
X72869047Y-94158809D01*
X72821428Y-94349285D01*
X72773809Y-94444523D01*
X72678571Y-94539761D01*
X72535714Y-94587380D01*
X72440476Y-94587380D01*
X72297619Y-94539761D01*
X72250000Y-94492142D01*
X72250000Y-94158809D01*
X72440476Y-94158809D01*
X71488095Y-94063571D02*
X71345238Y-94111190D01*
X71297619Y-94158809D01*
X71250000Y-94254047D01*
X71250000Y-94396904D01*
X71297619Y-94492142D01*
X71345238Y-94539761D01*
X71440476Y-94587380D01*
X71821428Y-94587380D01*
X71821428Y-93587380D01*
X71488095Y-93587380D01*
X71392857Y-93635000D01*
X71345238Y-93682619D01*
X71297619Y-93777857D01*
X71297619Y-93873095D01*
X71345238Y-93968333D01*
X71392857Y-94015952D01*
X71488095Y-94063571D01*
X71821428Y-94063571D01*
X70821428Y-94587380D02*
X70821428Y-93587380D01*
X70583333Y-93587380D01*
X70440476Y-93635000D01*
X70345238Y-93730238D01*
X70297619Y-93825476D01*
X70250000Y-94015952D01*
X70250000Y-94158809D01*
X70297619Y-94349285D01*
X70345238Y-94444523D01*
X70440476Y-94539761D01*
X70583333Y-94587380D01*
X70821428Y-94587380D01*
X69869047Y-94539761D02*
X69726190Y-94587380D01*
X69488095Y-94587380D01*
X69392857Y-94539761D01*
X69345238Y-94492142D01*
X69297619Y-94396904D01*
X69297619Y-94301666D01*
X69345238Y-94206428D01*
X69392857Y-94158809D01*
X69488095Y-94111190D01*
X69678571Y-94063571D01*
X69773809Y-94015952D01*
X69821428Y-93968333D01*
X69869047Y-93873095D01*
X69869047Y-93777857D01*
X69821428Y-93682619D01*
X69773809Y-93635000D01*
X69678571Y-93587380D01*
X69440476Y-93587380D01*
X69297619Y-93635000D01*
X68678571Y-93587380D02*
X68488095Y-93587380D01*
X68392857Y-93635000D01*
X68297619Y-93730238D01*
X68250000Y-93920714D01*
X68250000Y-94254047D01*
X68297619Y-94444523D01*
X68392857Y-94539761D01*
X68488095Y-94587380D01*
X68678571Y-94587380D01*
X68773809Y-94539761D01*
X68869047Y-94444523D01*
X68916666Y-94254047D01*
X68916666Y-93920714D01*
X68869047Y-93730238D01*
X68773809Y-93635000D01*
X68678571Y-93587380D01*
X67059523Y-94063571D02*
X66726190Y-94063571D01*
X66583333Y-94587380D02*
X67059523Y-94587380D01*
X67059523Y-93587380D01*
X66583333Y-93587380D01*
X66154761Y-94587380D02*
X66154761Y-93587380D01*
X65773809Y-93587380D01*
X65678571Y-93635000D01*
X65630952Y-93682619D01*
X65583333Y-93777857D01*
X65583333Y-93920714D01*
X65630952Y-94015952D01*
X65678571Y-94063571D01*
X65773809Y-94111190D01*
X66154761Y-94111190D01*
X64583333Y-94587380D02*
X64916666Y-94111190D01*
X65154761Y-94587380D02*
X65154761Y-93587380D01*
X64773809Y-93587380D01*
X64678571Y-93635000D01*
X64630952Y-93682619D01*
X64583333Y-93777857D01*
X64583333Y-93920714D01*
X64630952Y-94015952D01*
X64678571Y-94063571D01*
X64773809Y-94111190D01*
X65154761Y-94111190D01*
X63964285Y-93587380D02*
X63773809Y-93587380D01*
X63678571Y-93635000D01*
X63583333Y-93730238D01*
X63535714Y-93920714D01*
X63535714Y-94254047D01*
X63583333Y-94444523D01*
X63678571Y-94539761D01*
X63773809Y-94587380D01*
X63964285Y-94587380D01*
X64059523Y-94539761D01*
X64154761Y-94444523D01*
X64202380Y-94254047D01*
X64202380Y-93920714D01*
X64154761Y-93730238D01*
X64059523Y-93635000D01*
X63964285Y-93587380D01*
X63107142Y-94587380D02*
X63107142Y-93587380D01*
X62773809Y-94301666D01*
X62440476Y-93587380D01*
X62440476Y-94587380D01*
X73845238Y-96051666D02*
X73369047Y-96051666D01*
X73940476Y-96337380D02*
X73607142Y-95337380D01*
X73273809Y-96337380D01*
X72511904Y-96337380D02*
X72511904Y-95337380D01*
X72511904Y-96289761D02*
X72607142Y-96337380D01*
X72797619Y-96337380D01*
X72892857Y-96289761D01*
X72940476Y-96242142D01*
X72988095Y-96146904D01*
X72988095Y-95861190D01*
X72940476Y-95765952D01*
X72892857Y-95718333D01*
X72797619Y-95670714D01*
X72607142Y-95670714D01*
X72511904Y-95718333D01*
X71607142Y-96337380D02*
X71607142Y-95813571D01*
X71654761Y-95718333D01*
X71750000Y-95670714D01*
X71940476Y-95670714D01*
X72035714Y-95718333D01*
X71607142Y-96289761D02*
X71702380Y-96337380D01*
X71940476Y-96337380D01*
X72035714Y-96289761D01*
X72083333Y-96194523D01*
X72083333Y-96099285D01*
X72035714Y-96004047D01*
X71940476Y-95956428D01*
X71702380Y-95956428D01*
X71607142Y-95908809D01*
X71130952Y-95670714D02*
X71130952Y-96670714D01*
X71130952Y-95718333D02*
X71035714Y-95670714D01*
X70845238Y-95670714D01*
X70750000Y-95718333D01*
X70702380Y-95765952D01*
X70654761Y-95861190D01*
X70654761Y-96146904D01*
X70702380Y-96242142D01*
X70750000Y-96289761D01*
X70845238Y-96337380D01*
X71035714Y-96337380D01*
X71130952Y-96289761D01*
X70369047Y-95670714D02*
X69988095Y-95670714D01*
X70226190Y-95337380D02*
X70226190Y-96194523D01*
X70178571Y-96289761D01*
X70083333Y-96337380D01*
X69988095Y-96337380D01*
X69273809Y-96289761D02*
X69369047Y-96337380D01*
X69559523Y-96337380D01*
X69654761Y-96289761D01*
X69702380Y-96194523D01*
X69702380Y-95813571D01*
X69654761Y-95718333D01*
X69559523Y-95670714D01*
X69369047Y-95670714D01*
X69273809Y-95718333D01*
X69226190Y-95813571D01*
X69226190Y-95908809D01*
X69702380Y-96004047D01*
X68797619Y-96337380D02*
X68797619Y-95670714D01*
X68797619Y-95861190D02*
X68750000Y-95765952D01*
X68702380Y-95718333D01*
X68607142Y-95670714D01*
X68511904Y-95670714D01*
X67083333Y-95813571D02*
X66940476Y-95861190D01*
X66892857Y-95908809D01*
X66845238Y-96004047D01*
X66845238Y-96146904D01*
X66892857Y-96242142D01*
X66940476Y-96289761D01*
X67035714Y-96337380D01*
X67416666Y-96337380D01*
X67416666Y-95337380D01*
X67083333Y-95337380D01*
X66988095Y-95385000D01*
X66940476Y-95432619D01*
X66892857Y-95527857D01*
X66892857Y-95623095D01*
X66940476Y-95718333D01*
X66988095Y-95765952D01*
X67083333Y-95813571D01*
X67416666Y-95813571D01*
X66273809Y-96337380D02*
X66369047Y-96289761D01*
X66416666Y-96242142D01*
X66464285Y-96146904D01*
X66464285Y-95861190D01*
X66416666Y-95765952D01*
X66369047Y-95718333D01*
X66273809Y-95670714D01*
X66130952Y-95670714D01*
X66035714Y-95718333D01*
X65988095Y-95765952D01*
X65940476Y-95861190D01*
X65940476Y-96146904D01*
X65988095Y-96242142D01*
X66035714Y-96289761D01*
X66130952Y-96337380D01*
X66273809Y-96337380D01*
X65083333Y-96337380D02*
X65083333Y-95813571D01*
X65130952Y-95718333D01*
X65226190Y-95670714D01*
X65416666Y-95670714D01*
X65511904Y-95718333D01*
X65083333Y-96289761D02*
X65178571Y-96337380D01*
X65416666Y-96337380D01*
X65511904Y-96289761D01*
X65559523Y-96194523D01*
X65559523Y-96099285D01*
X65511904Y-96004047D01*
X65416666Y-95956428D01*
X65178571Y-95956428D01*
X65083333Y-95908809D01*
X64607142Y-96337380D02*
X64607142Y-95670714D01*
X64607142Y-95861190D02*
X64559523Y-95765952D01*
X64511904Y-95718333D01*
X64416666Y-95670714D01*
X64321428Y-95670714D01*
X63559523Y-96337380D02*
X63559523Y-95337380D01*
X63559523Y-96289761D02*
X63654761Y-96337380D01*
X63845238Y-96337380D01*
X63940476Y-96289761D01*
X63988095Y-96242142D01*
X64035714Y-96146904D01*
X64035714Y-95861190D01*
X63988095Y-95765952D01*
X63940476Y-95718333D01*
X63845238Y-95670714D01*
X63654761Y-95670714D01*
X63559523Y-95718333D01*
X62464285Y-95670714D02*
X62083333Y-95670714D01*
X62321428Y-96337380D02*
X62321428Y-95480238D01*
X62273809Y-95385000D01*
X62178571Y-95337380D01*
X62083333Y-95337380D01*
X61607142Y-96337380D02*
X61702380Y-96289761D01*
X61750000Y-96242142D01*
X61797619Y-96146904D01*
X61797619Y-95861190D01*
X61750000Y-95765952D01*
X61702380Y-95718333D01*
X61607142Y-95670714D01*
X61464285Y-95670714D01*
X61369047Y-95718333D01*
X61321428Y-95765952D01*
X61273809Y-95861190D01*
X61273809Y-96146904D01*
X61321428Y-96242142D01*
X61369047Y-96289761D01*
X61464285Y-96337380D01*
X61607142Y-96337380D01*
X60845238Y-96337380D02*
X60845238Y-95670714D01*
X60845238Y-95861190D02*
X60797619Y-95765952D01*
X60750000Y-95718333D01*
X60654761Y-95670714D01*
X60559523Y-95670714D01*
X71559523Y-98087380D02*
X71559523Y-97087380D01*
X71178571Y-97087380D01*
X71083333Y-97135000D01*
X71035714Y-97182619D01*
X70988095Y-97277857D01*
X70988095Y-97420714D01*
X71035714Y-97515952D01*
X71083333Y-97563571D01*
X71178571Y-97611190D01*
X71559523Y-97611190D01*
X70559523Y-98087380D02*
X70559523Y-97420714D01*
X70559523Y-97611190D02*
X70511904Y-97515952D01*
X70464285Y-97468333D01*
X70369047Y-97420714D01*
X70273809Y-97420714D01*
X69797619Y-98087380D02*
X69892857Y-98039761D01*
X69940476Y-97992142D01*
X69988095Y-97896904D01*
X69988095Y-97611190D01*
X69940476Y-97515952D01*
X69892857Y-97468333D01*
X69797619Y-97420714D01*
X69654761Y-97420714D01*
X69559523Y-97468333D01*
X69511904Y-97515952D01*
X69464285Y-97611190D01*
X69464285Y-97896904D01*
X69511904Y-97992142D01*
X69559523Y-98039761D01*
X69654761Y-98087380D01*
X69797619Y-98087380D01*
X68607142Y-97420714D02*
X68607142Y-98230238D01*
X68654761Y-98325476D01*
X68702380Y-98373095D01*
X68797619Y-98420714D01*
X68940476Y-98420714D01*
X69035714Y-98373095D01*
X68607142Y-98039761D02*
X68702380Y-98087380D01*
X68892857Y-98087380D01*
X68988095Y-98039761D01*
X69035714Y-97992142D01*
X69083333Y-97896904D01*
X69083333Y-97611190D01*
X69035714Y-97515952D01*
X68988095Y-97468333D01*
X68892857Y-97420714D01*
X68702380Y-97420714D01*
X68607142Y-97468333D01*
X68130952Y-98087380D02*
X68130952Y-97420714D01*
X68130952Y-97611190D02*
X68083333Y-97515952D01*
X68035714Y-97468333D01*
X67940476Y-97420714D01*
X67845238Y-97420714D01*
X67083333Y-98087380D02*
X67083333Y-97563571D01*
X67130952Y-97468333D01*
X67226190Y-97420714D01*
X67416666Y-97420714D01*
X67511904Y-97468333D01*
X67083333Y-98039761D02*
X67178571Y-98087380D01*
X67416666Y-98087380D01*
X67511904Y-98039761D01*
X67559523Y-97944523D01*
X67559523Y-97849285D01*
X67511904Y-97754047D01*
X67416666Y-97706428D01*
X67178571Y-97706428D01*
X67083333Y-97658809D01*
X66607142Y-98087380D02*
X66607142Y-97420714D01*
X66607142Y-97515952D02*
X66559523Y-97468333D01*
X66464285Y-97420714D01*
X66321428Y-97420714D01*
X66226190Y-97468333D01*
X66178571Y-97563571D01*
X66178571Y-98087380D01*
X66178571Y-97563571D02*
X66130952Y-97468333D01*
X66035714Y-97420714D01*
X65892857Y-97420714D01*
X65797619Y-97468333D01*
X65750000Y-97563571D01*
X65750000Y-98087380D01*
X65273809Y-98087380D02*
X65273809Y-97420714D01*
X65273809Y-97515952D02*
X65226190Y-97468333D01*
X65130952Y-97420714D01*
X64988095Y-97420714D01*
X64892857Y-97468333D01*
X64845238Y-97563571D01*
X64845238Y-98087380D01*
X64845238Y-97563571D02*
X64797619Y-97468333D01*
X64702380Y-97420714D01*
X64559523Y-97420714D01*
X64464285Y-97468333D01*
X64416666Y-97563571D01*
X64416666Y-98087380D01*
X63559523Y-98039761D02*
X63654761Y-98087380D01*
X63845238Y-98087380D01*
X63940476Y-98039761D01*
X63988095Y-97944523D01*
X63988095Y-97563571D01*
X63940476Y-97468333D01*
X63845238Y-97420714D01*
X63654761Y-97420714D01*
X63559523Y-97468333D01*
X63511904Y-97563571D01*
X63511904Y-97658809D01*
X63988095Y-97754047D01*
X63083333Y-98087380D02*
X63083333Y-97420714D01*
X63083333Y-97611190D02*
X63035714Y-97515952D01*
X62988095Y-97468333D01*
X62892857Y-97420714D01*
X62797619Y-97420714D01*
X71250000Y-101301666D02*
X70773809Y-101301666D01*
X71345238Y-101587380D02*
X71011904Y-100587380D01*
X70678571Y-101587380D01*
X70488095Y-100587380D02*
X69916666Y-100587380D01*
X70202380Y-101587380D02*
X70202380Y-100587380D01*
X69630952Y-100682619D02*
X69583333Y-100635000D01*
X69488095Y-100587380D01*
X69250000Y-100587380D01*
X69154761Y-100635000D01*
X69107142Y-100682619D01*
X69059523Y-100777857D01*
X69059523Y-100873095D01*
X69107142Y-101015952D01*
X69678571Y-101587380D01*
X69059523Y-101587380D01*
X68726190Y-100587380D02*
X68059523Y-100587380D01*
X68488095Y-101587380D01*
X67107142Y-101492142D02*
X67154761Y-101539761D01*
X67297619Y-101587380D01*
X67392857Y-101587380D01*
X67535714Y-101539761D01*
X67630952Y-101444523D01*
X67678571Y-101349285D01*
X67726190Y-101158809D01*
X67726190Y-101015952D01*
X67678571Y-100825476D01*
X67630952Y-100730238D01*
X67535714Y-100635000D01*
X67392857Y-100587380D01*
X67297619Y-100587380D01*
X67154761Y-100635000D01*
X67107142Y-100682619D01*
X66726190Y-100682619D02*
X66678571Y-100635000D01*
X66583333Y-100587380D01*
X66345238Y-100587380D01*
X66249999Y-100635000D01*
X66202380Y-100682619D01*
X66154761Y-100777857D01*
X66154761Y-100873095D01*
X66202380Y-101015952D01*
X66773809Y-101587380D01*
X66154761Y-101587380D01*
X65249999Y-100587380D02*
X65726190Y-100587380D01*
X65773809Y-101063571D01*
X65726190Y-101015952D01*
X65630952Y-100968333D01*
X65392857Y-100968333D01*
X65297619Y-101015952D01*
X65249999Y-101063571D01*
X65202380Y-101158809D01*
X65202380Y-101396904D01*
X65249999Y-101492142D01*
X65297619Y-101539761D01*
X65392857Y-101587380D01*
X65630952Y-101587380D01*
X65726190Y-101539761D01*
X65773809Y-101492142D01*
X64345238Y-100587380D02*
X64535714Y-100587380D01*
X64630952Y-100635000D01*
X64678571Y-100682619D01*
X64773809Y-100825476D01*
X64821428Y-101015952D01*
X64821428Y-101396904D01*
X64773809Y-101492142D01*
X64726190Y-101539761D01*
X64630952Y-101587380D01*
X64440476Y-101587380D01*
X64345238Y-101539761D01*
X64297619Y-101492142D01*
X64249999Y-101396904D01*
X64249999Y-101158809D01*
X64297619Y-101063571D01*
X64345238Y-101015952D01*
X64440476Y-100968333D01*
X64630952Y-100968333D01*
X64726190Y-101015952D01*
X64773809Y-101063571D01*
X64821428Y-101158809D01*
X63249999Y-101587380D02*
X63583333Y-101111190D01*
X63821428Y-101587380D02*
X63821428Y-100587380D01*
X63440476Y-100587380D01*
X63345238Y-100635000D01*
X63297619Y-100682619D01*
X63249999Y-100777857D01*
X63249999Y-100920714D01*
X63297619Y-101015952D01*
X63345238Y-101063571D01*
X63440476Y-101111190D01*
X63821428Y-101111190D01*
X74559523Y-103337380D02*
X74559523Y-102337380D01*
X74178571Y-102337380D01*
X74083333Y-102385000D01*
X74035714Y-102432619D01*
X73988095Y-102527857D01*
X73988095Y-102670714D01*
X74035714Y-102765952D01*
X74083333Y-102813571D01*
X74178571Y-102861190D01*
X74559523Y-102861190D01*
X73083333Y-103337380D02*
X73559523Y-103337380D01*
X73559523Y-102337380D01*
X72178571Y-103242142D02*
X72226190Y-103289761D01*
X72369047Y-103337380D01*
X72464285Y-103337380D01*
X72607142Y-103289761D01*
X72702380Y-103194523D01*
X72750000Y-103099285D01*
X72797619Y-102908809D01*
X72797619Y-102765952D01*
X72750000Y-102575476D01*
X72702380Y-102480238D01*
X72607142Y-102385000D01*
X72464285Y-102337380D01*
X72369047Y-102337380D01*
X72226190Y-102385000D01*
X72178571Y-102432619D01*
X71178571Y-103242142D02*
X71226190Y-103289761D01*
X71369047Y-103337380D01*
X71464285Y-103337380D01*
X71607142Y-103289761D01*
X71702380Y-103194523D01*
X71750000Y-103099285D01*
X71797619Y-102908809D01*
X71797619Y-102765952D01*
X71750000Y-102575476D01*
X71702380Y-102480238D01*
X71607142Y-102385000D01*
X71464285Y-102337380D01*
X71369047Y-102337380D01*
X71226190Y-102385000D01*
X71178571Y-102432619D01*
X70845238Y-102337380D02*
X70226190Y-102337380D01*
X70559523Y-102718333D01*
X70416666Y-102718333D01*
X70321428Y-102765952D01*
X70273809Y-102813571D01*
X70226190Y-102908809D01*
X70226190Y-103146904D01*
X70273809Y-103242142D01*
X70321428Y-103289761D01*
X70416666Y-103337380D01*
X70702380Y-103337380D01*
X70797619Y-103289761D01*
X70845238Y-103242142D01*
X69845238Y-102432619D02*
X69797619Y-102385000D01*
X69702380Y-102337380D01*
X69464285Y-102337380D01*
X69369047Y-102385000D01*
X69321428Y-102432619D01*
X69273809Y-102527857D01*
X69273809Y-102623095D01*
X69321428Y-102765952D01*
X69892857Y-103337380D01*
X69273809Y-103337380D01*
X68083333Y-102956428D02*
X67321428Y-102956428D01*
X66845238Y-102670714D02*
X66083333Y-102956428D01*
X66845238Y-103242142D01*
X64845238Y-103337380D02*
X64845238Y-102337380D01*
X64464285Y-102337380D01*
X64369047Y-102385000D01*
X64321428Y-102432619D01*
X64273809Y-102527857D01*
X64273809Y-102670714D01*
X64321428Y-102765952D01*
X64369047Y-102813571D01*
X64464285Y-102861190D01*
X64845238Y-102861190D01*
X63845238Y-103337380D02*
X63845238Y-102337380D01*
X63607142Y-102337380D01*
X63464285Y-102385000D01*
X63369047Y-102480238D01*
X63321428Y-102575476D01*
X63273809Y-102765952D01*
X63273809Y-102908809D01*
X63321428Y-103099285D01*
X63369047Y-103194523D01*
X63464285Y-103289761D01*
X63607142Y-103337380D01*
X63845238Y-103337380D01*
X62845238Y-103337380D02*
X62845238Y-102337380D01*
X62369047Y-103337380D02*
X62369047Y-102337380D01*
X61988095Y-102337380D01*
X61892857Y-102385000D01*
X61845238Y-102432619D01*
X61797619Y-102527857D01*
X61797619Y-102670714D01*
X61845238Y-102765952D01*
X61892857Y-102813571D01*
X61988095Y-102861190D01*
X62369047Y-102861190D01*
X61416666Y-102432619D02*
X61369047Y-102385000D01*
X61273809Y-102337380D01*
X61035714Y-102337380D01*
X60940476Y-102385000D01*
X60892857Y-102432619D01*
X60845238Y-102527857D01*
X60845238Y-102623095D01*
X60892857Y-102765952D01*
X61464285Y-103337380D01*
X60845238Y-103337380D01*
X60273809Y-102765952D02*
X60369047Y-102718333D01*
X60416666Y-102670714D01*
X60464285Y-102575476D01*
X60464285Y-102527857D01*
X60416666Y-102432619D01*
X60369047Y-102385000D01*
X60273809Y-102337380D01*
X60083333Y-102337380D01*
X59988095Y-102385000D01*
X59940476Y-102432619D01*
X59892857Y-102527857D01*
X59892857Y-102575476D01*
X59940476Y-102670714D01*
X59988095Y-102718333D01*
X60083333Y-102765952D01*
X60273809Y-102765952D01*
X60369047Y-102813571D01*
X60416666Y-102861190D01*
X60464285Y-102956428D01*
X60464285Y-103146904D01*
X60416666Y-103242142D01*
X60369047Y-103289761D01*
X60273809Y-103337380D01*
X60083333Y-103337380D01*
X59988095Y-103289761D01*
X59940476Y-103242142D01*
X59892857Y-103146904D01*
X59892857Y-102956428D01*
X59940476Y-102861190D01*
X59988095Y-102813571D01*
X60083333Y-102765952D01*
X129990833Y-141455714D02*
X129990833Y-142265238D01*
X130038452Y-142360476D01*
X130086071Y-142408095D01*
X130181309Y-142455714D01*
X130324166Y-142455714D01*
X130419404Y-142408095D01*
X129990833Y-142074761D02*
X130086071Y-142122380D01*
X130276547Y-142122380D01*
X130371785Y-142074761D01*
X130419404Y-142027142D01*
X130467023Y-141931904D01*
X130467023Y-141646190D01*
X130419404Y-141550952D01*
X130371785Y-141503333D01*
X130276547Y-141455714D01*
X130086071Y-141455714D01*
X129990833Y-141503333D01*
X129514642Y-142122380D02*
X129514642Y-141455714D01*
X129514642Y-141122380D02*
X129562261Y-141170000D01*
X129514642Y-141217619D01*
X129467023Y-141170000D01*
X129514642Y-141122380D01*
X129514642Y-141217619D01*
X129181309Y-141455714D02*
X128800357Y-141455714D01*
X129038452Y-141122380D02*
X129038452Y-141979523D01*
X128990833Y-142074761D01*
X128895595Y-142122380D01*
X128800357Y-142122380D01*
X128467023Y-142122380D02*
X128467023Y-141122380D01*
X128038452Y-142122380D02*
X128038452Y-141598571D01*
X128086071Y-141503333D01*
X128181309Y-141455714D01*
X128324166Y-141455714D01*
X128419404Y-141503333D01*
X128467023Y-141550952D01*
X127133690Y-141455714D02*
X127133690Y-142122380D01*
X127562261Y-141455714D02*
X127562261Y-141979523D01*
X127514642Y-142074761D01*
X127419404Y-142122380D01*
X127276547Y-142122380D01*
X127181309Y-142074761D01*
X127133690Y-142027142D01*
X126657500Y-142122380D02*
X126657500Y-141122380D01*
X126657500Y-141503333D02*
X126562261Y-141455714D01*
X126371785Y-141455714D01*
X126276547Y-141503333D01*
X126228928Y-141550952D01*
X126181309Y-141646190D01*
X126181309Y-141931904D01*
X126228928Y-142027142D01*
X126276547Y-142074761D01*
X126371785Y-142122380D01*
X126562261Y-142122380D01*
X126657500Y-142074761D01*
X125752738Y-142027142D02*
X125705119Y-142074761D01*
X125752738Y-142122380D01*
X125800357Y-142074761D01*
X125752738Y-142027142D01*
X125752738Y-142122380D01*
X124847976Y-142074761D02*
X124943214Y-142122380D01*
X125133690Y-142122380D01*
X125228928Y-142074761D01*
X125276547Y-142027142D01*
X125324166Y-141931904D01*
X125324166Y-141646190D01*
X125276547Y-141550952D01*
X125228928Y-141503333D01*
X125133690Y-141455714D01*
X124943214Y-141455714D01*
X124847976Y-141503333D01*
X124276547Y-142122380D02*
X124371785Y-142074761D01*
X124419404Y-142027142D01*
X124467023Y-141931904D01*
X124467023Y-141646190D01*
X124419404Y-141550952D01*
X124371785Y-141503333D01*
X124276547Y-141455714D01*
X124133690Y-141455714D01*
X124038452Y-141503333D01*
X123990833Y-141550952D01*
X123943214Y-141646190D01*
X123943214Y-141931904D01*
X123990833Y-142027142D01*
X124038452Y-142074761D01*
X124133690Y-142122380D01*
X124276547Y-142122380D01*
X123514642Y-142122380D02*
X123514642Y-141455714D01*
X123514642Y-141550952D02*
X123467023Y-141503333D01*
X123371785Y-141455714D01*
X123228928Y-141455714D01*
X123133690Y-141503333D01*
X123086071Y-141598571D01*
X123086071Y-142122380D01*
X123086071Y-141598571D02*
X123038452Y-141503333D01*
X122943214Y-141455714D01*
X122800357Y-141455714D01*
X122705119Y-141503333D01*
X122657500Y-141598571D01*
X122657500Y-142122380D01*
X121467023Y-141074761D02*
X122324166Y-142360476D01*
X121133690Y-141455714D02*
X121133690Y-142455714D01*
X121133690Y-141503333D02*
X121038452Y-141455714D01*
X120847976Y-141455714D01*
X120752738Y-141503333D01*
X120705119Y-141550952D01*
X120657500Y-141646190D01*
X120657500Y-141931904D01*
X120705119Y-142027142D01*
X120752738Y-142074761D01*
X120847976Y-142122380D01*
X121038452Y-142122380D01*
X121133690Y-142074761D01*
X120324166Y-141455714D02*
X120086071Y-142122380D01*
X119847976Y-141455714D02*
X120086071Y-142122380D01*
X120181309Y-142360476D01*
X120228928Y-142408095D01*
X120324166Y-142455714D01*
X119467023Y-142122380D02*
X119467023Y-141455714D01*
X119467023Y-141646190D02*
X119419404Y-141550952D01*
X119371785Y-141503333D01*
X119276547Y-141455714D01*
X119181309Y-141455714D01*
X118705119Y-142122380D02*
X118800357Y-142074761D01*
X118847976Y-142027142D01*
X118895595Y-141931904D01*
X118895595Y-141646190D01*
X118847976Y-141550952D01*
X118800357Y-141503333D01*
X118705119Y-141455714D01*
X118562261Y-141455714D01*
X118467023Y-141503333D01*
X118419404Y-141550952D01*
X118371785Y-141646190D01*
X118371785Y-141931904D01*
X118419404Y-142027142D01*
X118467023Y-142074761D01*
X118562261Y-142122380D01*
X118705119Y-142122380D01*
X117562261Y-142074761D02*
X117657500Y-142122380D01*
X117847976Y-142122380D01*
X117943214Y-142074761D01*
X117990833Y-141979523D01*
X117990833Y-141598571D01*
X117943214Y-141503333D01*
X117847976Y-141455714D01*
X117657500Y-141455714D01*
X117562261Y-141503333D01*
X117514642Y-141598571D01*
X117514642Y-141693809D01*
X117990833Y-141789047D01*
X117133690Y-142074761D02*
X117038452Y-142122380D01*
X116847976Y-142122380D01*
X116752738Y-142074761D01*
X116705119Y-141979523D01*
X116705119Y-141931904D01*
X116752738Y-141836666D01*
X116847976Y-141789047D01*
X116990833Y-141789047D01*
X117086071Y-141741428D01*
X117133690Y-141646190D01*
X117133690Y-141598571D01*
X117086071Y-141503333D01*
X116990833Y-141455714D01*
X116847976Y-141455714D01*
X116752738Y-141503333D01*
X116276547Y-141455714D02*
X116276547Y-142455714D01*
X116276547Y-141503333D02*
X116181309Y-141455714D01*
X115990833Y-141455714D01*
X115895595Y-141503333D01*
X115847976Y-141550952D01*
X115800357Y-141646190D01*
X115800357Y-141931904D01*
X115847976Y-142027142D01*
X115895595Y-142074761D01*
X115990833Y-142122380D01*
X116181309Y-142122380D01*
X116276547Y-142074761D01*
X114657500Y-141074761D02*
X115514642Y-142360476D01*
X113800357Y-141170000D02*
X113895595Y-141122380D01*
X114038452Y-141122380D01*
X114181309Y-141170000D01*
X114276547Y-141265238D01*
X114324166Y-141360476D01*
X114371785Y-141550952D01*
X114371785Y-141693809D01*
X114324166Y-141884285D01*
X114276547Y-141979523D01*
X114181309Y-142074761D01*
X114038452Y-142122380D01*
X113943214Y-142122380D01*
X113800357Y-142074761D01*
X113752738Y-142027142D01*
X113752738Y-141693809D01*
X113943214Y-141693809D01*
X112990833Y-141598571D02*
X112847976Y-141646190D01*
X112800357Y-141693809D01*
X112752738Y-141789047D01*
X112752738Y-141931904D01*
X112800357Y-142027142D01*
X112847976Y-142074761D01*
X112943214Y-142122380D01*
X113324166Y-142122380D01*
X113324166Y-141122380D01*
X112990833Y-141122380D01*
X112895595Y-141170000D01*
X112847976Y-141217619D01*
X112800357Y-141312857D01*
X112800357Y-141408095D01*
X112847976Y-141503333D01*
X112895595Y-141550952D01*
X112990833Y-141598571D01*
X113324166Y-141598571D01*
X112324166Y-142122380D02*
X112324166Y-141122380D01*
X112086071Y-141122380D01*
X111943214Y-141170000D01*
X111847976Y-141265238D01*
X111800357Y-141360476D01*
X111752738Y-141550952D01*
X111752738Y-141693809D01*
X111800357Y-141884285D01*
X111847976Y-141979523D01*
X111943214Y-142074761D01*
X112086071Y-142122380D01*
X112324166Y-142122380D01*
X111371785Y-142074761D02*
X111228928Y-142122380D01*
X110990833Y-142122380D01*
X110895595Y-142074761D01*
X110847976Y-142027142D01*
X110800357Y-141931904D01*
X110800357Y-141836666D01*
X110847976Y-141741428D01*
X110895595Y-141693809D01*
X110990833Y-141646190D01*
X111181309Y-141598571D01*
X111276547Y-141550952D01*
X111324166Y-141503333D01*
X111371785Y-141408095D01*
X111371785Y-141312857D01*
X111324166Y-141217619D01*
X111276547Y-141170000D01*
X111181309Y-141122380D01*
X110943214Y-141122380D01*
X110800357Y-141170000D01*
X110181309Y-141122380D02*
X109990833Y-141122380D01*
X109895595Y-141170000D01*
X109800357Y-141265238D01*
X109752738Y-141455714D01*
X109752738Y-141789047D01*
X109800357Y-141979523D01*
X109895595Y-142074761D01*
X109990833Y-142122380D01*
X110181309Y-142122380D01*
X110276547Y-142074761D01*
X110371785Y-141979523D01*
X110419404Y-141789047D01*
X110419404Y-141455714D01*
X110371785Y-141265238D01*
X110276547Y-141170000D01*
X110181309Y-141122380D01*
X129965595Y-96790000D02*
X130060833Y-96742380D01*
X130203690Y-96742380D01*
X130346547Y-96790000D01*
X130441785Y-96885238D01*
X130489404Y-96980476D01*
X130537023Y-97170952D01*
X130537023Y-97313809D01*
X130489404Y-97504285D01*
X130441785Y-97599523D01*
X130346547Y-97694761D01*
X130203690Y-97742380D01*
X130108452Y-97742380D01*
X129965595Y-97694761D01*
X129917976Y-97647142D01*
X129917976Y-97313809D01*
X130108452Y-97313809D01*
X129156071Y-97218571D02*
X129013214Y-97266190D01*
X128965595Y-97313809D01*
X128917976Y-97409047D01*
X128917976Y-97551904D01*
X128965595Y-97647142D01*
X129013214Y-97694761D01*
X129108452Y-97742380D01*
X129489404Y-97742380D01*
X129489404Y-96742380D01*
X129156071Y-96742380D01*
X129060833Y-96790000D01*
X129013214Y-96837619D01*
X128965595Y-96932857D01*
X128965595Y-97028095D01*
X129013214Y-97123333D01*
X129060833Y-97170952D01*
X129156071Y-97218571D01*
X129489404Y-97218571D01*
X128489404Y-97742380D02*
X128489404Y-96742380D01*
X128251309Y-96742380D01*
X128108452Y-96790000D01*
X128013214Y-96885238D01*
X127965595Y-96980476D01*
X127917976Y-97170952D01*
X127917976Y-97313809D01*
X127965595Y-97504285D01*
X128013214Y-97599523D01*
X128108452Y-97694761D01*
X128251309Y-97742380D01*
X128489404Y-97742380D01*
X127537023Y-97694761D02*
X127394166Y-97742380D01*
X127156071Y-97742380D01*
X127060833Y-97694761D01*
X127013214Y-97647142D01*
X126965595Y-97551904D01*
X126965595Y-97456666D01*
X127013214Y-97361428D01*
X127060833Y-97313809D01*
X127156071Y-97266190D01*
X127346547Y-97218571D01*
X127441785Y-97170952D01*
X127489404Y-97123333D01*
X127537023Y-97028095D01*
X127537023Y-96932857D01*
X127489404Y-96837619D01*
X127441785Y-96790000D01*
X127346547Y-96742380D01*
X127108452Y-96742380D01*
X126965595Y-96790000D01*
X126346547Y-96742380D02*
X126156071Y-96742380D01*
X126060833Y-96790000D01*
X125965595Y-96885238D01*
X125917976Y-97075714D01*
X125917976Y-97409047D01*
X125965595Y-97599523D01*
X126060833Y-97694761D01*
X126156071Y-97742380D01*
X126346547Y-97742380D01*
X126441785Y-97694761D01*
X126537023Y-97599523D01*
X126584642Y-97409047D01*
X126584642Y-97075714D01*
X126537023Y-96885238D01*
X126441785Y-96790000D01*
X126346547Y-96742380D01*
X124727500Y-97742380D02*
X124727500Y-96742380D01*
X124727500Y-97123333D02*
X124632261Y-97075714D01*
X124441785Y-97075714D01*
X124346547Y-97123333D01*
X124298928Y-97170952D01*
X124251309Y-97266190D01*
X124251309Y-97551904D01*
X124298928Y-97647142D01*
X124346547Y-97694761D01*
X124441785Y-97742380D01*
X124632261Y-97742380D01*
X124727500Y-97694761D01*
X123917976Y-97075714D02*
X123679880Y-97742380D01*
X123441785Y-97075714D02*
X123679880Y-97742380D01*
X123775119Y-97980476D01*
X123822738Y-98028095D01*
X123917976Y-98075714D01*
X122346547Y-97694761D02*
X122203690Y-97742380D01*
X121965595Y-97742380D01*
X121870357Y-97694761D01*
X121822738Y-97647142D01*
X121775119Y-97551904D01*
X121775119Y-97456666D01*
X121822738Y-97361428D01*
X121870357Y-97313809D01*
X121965595Y-97266190D01*
X122156071Y-97218571D01*
X122251309Y-97170952D01*
X122298928Y-97123333D01*
X122346547Y-97028095D01*
X122346547Y-96932857D01*
X122298928Y-96837619D01*
X122251309Y-96790000D01*
X122156071Y-96742380D01*
X121917976Y-96742380D01*
X121775119Y-96790000D01*
X121489404Y-97075714D02*
X121108452Y-97075714D01*
X121346547Y-96742380D02*
X121346547Y-97599523D01*
X121298928Y-97694761D01*
X121203690Y-97742380D01*
X121108452Y-97742380D01*
X120394166Y-97694761D02*
X120489404Y-97742380D01*
X120679880Y-97742380D01*
X120775119Y-97694761D01*
X120822738Y-97599523D01*
X120822738Y-97218571D01*
X120775119Y-97123333D01*
X120679880Y-97075714D01*
X120489404Y-97075714D01*
X120394166Y-97123333D01*
X120346547Y-97218571D01*
X120346547Y-97313809D01*
X120822738Y-97409047D01*
X120013214Y-97075714D02*
X119775119Y-97742380D01*
X119537023Y-97075714D01*
X118775119Y-97694761D02*
X118870357Y-97742380D01*
X119060833Y-97742380D01*
X119156071Y-97694761D01*
X119203690Y-97599523D01*
X119203690Y-97218571D01*
X119156071Y-97123333D01*
X119060833Y-97075714D01*
X118870357Y-97075714D01*
X118775119Y-97123333D01*
X118727500Y-97218571D01*
X118727500Y-97313809D01*
X119203690Y-97409047D01*
X117632261Y-96742380D02*
X117394166Y-97742380D01*
X117203690Y-97028095D01*
X117013214Y-97742380D01*
X116775119Y-96742380D01*
X116394166Y-97742380D02*
X116394166Y-97075714D01*
X116394166Y-96742380D02*
X116441785Y-96790000D01*
X116394166Y-96837619D01*
X116346547Y-96790000D01*
X116394166Y-96742380D01*
X116394166Y-96837619D01*
X115775119Y-97742380D02*
X115870357Y-97694761D01*
X115917976Y-97599523D01*
X115917976Y-96742380D01*
X115251309Y-97742380D02*
X115346547Y-97694761D01*
X115394166Y-97599523D01*
X115394166Y-96742380D01*
X114870357Y-97742380D02*
X114870357Y-97075714D01*
X114870357Y-96742380D02*
X114917976Y-96790000D01*
X114870357Y-96837619D01*
X114822738Y-96790000D01*
X114870357Y-96742380D01*
X114870357Y-96837619D01*
X114441785Y-97694761D02*
X114346547Y-97742380D01*
X114156071Y-97742380D01*
X114060833Y-97694761D01*
X114013214Y-97599523D01*
X114013214Y-97551904D01*
X114060833Y-97456666D01*
X114156071Y-97409047D01*
X114298928Y-97409047D01*
X114394166Y-97361428D01*
X114441785Y-97266190D01*
X114441785Y-97218571D01*
X114394166Y-97123333D01*
X114298928Y-97075714D01*
X114156071Y-97075714D01*
X114060833Y-97123333D01*
X112537023Y-98123333D02*
X112584642Y-98075714D01*
X112679880Y-97932857D01*
X112727500Y-97837619D01*
X112775119Y-97694761D01*
X112822738Y-97456666D01*
X112822738Y-97266190D01*
X112775119Y-97028095D01*
X112727500Y-96885238D01*
X112679880Y-96790000D01*
X112584642Y-96647142D01*
X112537023Y-96599523D01*
X112203690Y-96837619D02*
X112156071Y-96790000D01*
X112060833Y-96742380D01*
X111822738Y-96742380D01*
X111727500Y-96790000D01*
X111679880Y-96837619D01*
X111632261Y-96932857D01*
X111632261Y-97028095D01*
X111679880Y-97170952D01*
X112251309Y-97742380D01*
X111632261Y-97742380D01*
X111013214Y-96742380D02*
X110917976Y-96742380D01*
X110822738Y-96790000D01*
X110775119Y-96837619D01*
X110727500Y-96932857D01*
X110679880Y-97123333D01*
X110679880Y-97361428D01*
X110727500Y-97551904D01*
X110775119Y-97647142D01*
X110822738Y-97694761D01*
X110917976Y-97742380D01*
X111013214Y-97742380D01*
X111108452Y-97694761D01*
X111156071Y-97647142D01*
X111203690Y-97551904D01*
X111251309Y-97361428D01*
X111251309Y-97123333D01*
X111203690Y-96932857D01*
X111156071Y-96837619D01*
X111108452Y-96790000D01*
X111013214Y-96742380D01*
X110060833Y-96742380D02*
X109965595Y-96742380D01*
X109870357Y-96790000D01*
X109822738Y-96837619D01*
X109775119Y-96932857D01*
X109727500Y-97123333D01*
X109727500Y-97361428D01*
X109775119Y-97551904D01*
X109822738Y-97647142D01*
X109870357Y-97694761D01*
X109965595Y-97742380D01*
X110060833Y-97742380D01*
X110156071Y-97694761D01*
X110203690Y-97647142D01*
X110251309Y-97551904D01*
X110298928Y-97361428D01*
X110298928Y-97123333D01*
X110251309Y-96932857D01*
X110203690Y-96837619D01*
X110156071Y-96790000D01*
X110060833Y-96742380D01*
X109108452Y-96742380D02*
X109013214Y-96742380D01*
X108917976Y-96790000D01*
X108870357Y-96837619D01*
X108822738Y-96932857D01*
X108775119Y-97123333D01*
X108775119Y-97361428D01*
X108822738Y-97551904D01*
X108870357Y-97647142D01*
X108917976Y-97694761D01*
X109013214Y-97742380D01*
X109108452Y-97742380D01*
X109203690Y-97694761D01*
X109251309Y-97647142D01*
X109298928Y-97551904D01*
X109346547Y-97361428D01*
X109346547Y-97123333D01*
X109298928Y-96932857D01*
X109251309Y-96837619D01*
X109203690Y-96790000D01*
X109108452Y-96742380D01*
X107632261Y-96694761D02*
X108489404Y-97980476D01*
X106775119Y-97742380D02*
X107346547Y-97742380D01*
X107060833Y-97742380D02*
X107060833Y-96742380D01*
X107156071Y-96885238D01*
X107251309Y-96980476D01*
X107346547Y-97028095D01*
X106156071Y-96742380D02*
X106060833Y-96742380D01*
X105965595Y-96790000D01*
X105917976Y-96837619D01*
X105870357Y-96932857D01*
X105822738Y-97123333D01*
X105822738Y-97361428D01*
X105870357Y-97551904D01*
X105917976Y-97647142D01*
X105965595Y-97694761D01*
X106060833Y-97742380D01*
X106156071Y-97742380D01*
X106251309Y-97694761D01*
X106298928Y-97647142D01*
X106346547Y-97551904D01*
X106394166Y-97361428D01*
X106394166Y-97123333D01*
X106346547Y-96932857D01*
X106298928Y-96837619D01*
X106251309Y-96790000D01*
X106156071Y-96742380D01*
X105489404Y-98123333D02*
X105441785Y-98075714D01*
X105346547Y-97932857D01*
X105298928Y-97837619D01*
X105251309Y-97694761D01*
X105203690Y-97456666D01*
X105203690Y-97266190D01*
X105251309Y-97028095D01*
X105298928Y-96885238D01*
X105346547Y-96790000D01*
X105441785Y-96647142D01*
X105489404Y-96599523D01*
D11*
G04 #@! TO.C,REF\002A\002A*
G36*
X66544186Y-144288931D02*
X66460365Y-144733555D01*
X66151080Y-144861053D01*
X65841794Y-144988551D01*
X65470754Y-144736246D01*
X65366843Y-144665996D01*
X65272913Y-144603272D01*
X65193348Y-144550938D01*
X65132530Y-144511857D01*
X65094843Y-144488893D01*
X65084579Y-144483942D01*
X65066090Y-144496676D01*
X65026580Y-144531882D01*
X64970478Y-144585062D01*
X64902213Y-144651718D01*
X64826214Y-144727354D01*
X64746908Y-144807472D01*
X64668725Y-144887574D01*
X64596093Y-144963164D01*
X64533441Y-145029745D01*
X64485197Y-145082818D01*
X64455790Y-145117887D01*
X64448759Y-145129623D01*
X64458877Y-145151260D01*
X64487241Y-145198662D01*
X64530871Y-145267193D01*
X64586782Y-145352215D01*
X64651994Y-145449093D01*
X64689781Y-145504350D01*
X64758657Y-145605248D01*
X64819860Y-145696299D01*
X64870422Y-145772970D01*
X64907372Y-145830728D01*
X64927742Y-145865043D01*
X64930803Y-145872254D01*
X64923864Y-145892748D01*
X64904949Y-145940513D01*
X64876913Y-146008832D01*
X64842609Y-146090989D01*
X64804891Y-146180270D01*
X64766613Y-146269958D01*
X64730630Y-146353338D01*
X64699794Y-146423694D01*
X64676961Y-146474310D01*
X64664983Y-146498471D01*
X64664276Y-146499422D01*
X64645469Y-146504036D01*
X64595382Y-146514328D01*
X64519207Y-146529287D01*
X64422135Y-146547901D01*
X64309357Y-146569159D01*
X64243558Y-146581418D01*
X64123050Y-146604362D01*
X64014203Y-146626195D01*
X63922524Y-146645722D01*
X63853519Y-146661748D01*
X63812696Y-146673079D01*
X63804489Y-146676674D01*
X63796452Y-146701006D01*
X63789967Y-146755959D01*
X63785030Y-146835108D01*
X63781636Y-146932026D01*
X63779782Y-147040287D01*
X63779462Y-147153465D01*
X63780673Y-147265135D01*
X63783410Y-147368868D01*
X63787669Y-147458241D01*
X63793445Y-147526826D01*
X63800733Y-147568197D01*
X63805105Y-147576810D01*
X63831236Y-147587133D01*
X63886607Y-147601892D01*
X63963893Y-147619352D01*
X64055770Y-147637780D01*
X64087842Y-147643741D01*
X64242476Y-147672066D01*
X64364625Y-147694876D01*
X64458327Y-147713080D01*
X64527616Y-147727583D01*
X64576529Y-147739292D01*
X64609103Y-147749115D01*
X64629372Y-147757956D01*
X64641374Y-147766724D01*
X64643053Y-147768457D01*
X64659816Y-147796371D01*
X64685386Y-147850695D01*
X64717212Y-147924777D01*
X64752740Y-148011965D01*
X64789417Y-148105608D01*
X64824689Y-148199052D01*
X64856004Y-148285647D01*
X64880807Y-148358740D01*
X64896546Y-148411678D01*
X64900668Y-148437811D01*
X64900324Y-148438726D01*
X64886359Y-148460086D01*
X64854678Y-148507084D01*
X64808609Y-148574827D01*
X64751482Y-148658423D01*
X64686627Y-148752982D01*
X64668157Y-148779854D01*
X64602301Y-148877275D01*
X64544350Y-148966163D01*
X64497462Y-149041412D01*
X64464793Y-149097920D01*
X64449500Y-149130581D01*
X64448759Y-149134593D01*
X64461608Y-149155684D01*
X64497112Y-149197464D01*
X64550707Y-149255445D01*
X64617829Y-149325135D01*
X64693913Y-149402045D01*
X64774396Y-149481683D01*
X64854713Y-149559561D01*
X64930301Y-149631186D01*
X64996595Y-149692070D01*
X65049031Y-149737721D01*
X65083045Y-149763650D01*
X65092455Y-149767883D01*
X65114357Y-149757912D01*
X65159200Y-149731020D01*
X65219679Y-149691736D01*
X65266211Y-149660117D01*
X65350525Y-149602098D01*
X65450374Y-149533784D01*
X65550527Y-149465579D01*
X65604373Y-149429075D01*
X65786629Y-149305800D01*
X65939619Y-149388520D01*
X66009318Y-149424759D01*
X66068586Y-149452926D01*
X66108689Y-149468991D01*
X66118897Y-149471226D01*
X66131171Y-149454722D01*
X66155387Y-149408082D01*
X66189737Y-149335609D01*
X66232412Y-149241606D01*
X66281606Y-149130374D01*
X66335510Y-149006215D01*
X66392316Y-148873432D01*
X66450218Y-148736327D01*
X66507407Y-148599202D01*
X66562076Y-148466358D01*
X66612416Y-148342098D01*
X66656620Y-148230725D01*
X66692881Y-148136539D01*
X66719391Y-148063844D01*
X66734342Y-148016941D01*
X66736746Y-148000833D01*
X66717689Y-147980286D01*
X66675964Y-147946933D01*
X66620294Y-147907702D01*
X66615622Y-147904599D01*
X66471736Y-147789423D01*
X66355717Y-147655053D01*
X66268570Y-147505784D01*
X66211301Y-147345913D01*
X66184914Y-147179737D01*
X66190415Y-147011552D01*
X66228810Y-146845655D01*
X66301105Y-146686342D01*
X66322374Y-146651487D01*
X66433004Y-146510737D01*
X66563698Y-146397714D01*
X66709936Y-146313003D01*
X66867192Y-146257194D01*
X67030943Y-146230874D01*
X67196667Y-146234630D01*
X67359838Y-146269050D01*
X67515935Y-146334723D01*
X67660433Y-146432235D01*
X67705131Y-146471813D01*
X67818888Y-146595703D01*
X67901782Y-146726124D01*
X67958644Y-146872315D01*
X67990313Y-147017088D01*
X67998131Y-147179860D01*
X67972062Y-147343440D01*
X67914755Y-147502298D01*
X67828856Y-147650906D01*
X67717014Y-147783735D01*
X67581877Y-147895256D01*
X67564117Y-147907011D01*
X67507850Y-147945508D01*
X67465077Y-147978863D01*
X67444628Y-148000160D01*
X67444331Y-148000833D01*
X67448721Y-148023871D01*
X67466124Y-148076157D01*
X67494732Y-148153390D01*
X67532735Y-148251268D01*
X67578326Y-148365491D01*
X67629697Y-148491758D01*
X67685038Y-148625767D01*
X67742542Y-148763218D01*
X67800399Y-148899808D01*
X67856802Y-149031237D01*
X67909942Y-149153205D01*
X67958010Y-149261409D01*
X67999199Y-149351549D01*
X68031699Y-149419323D01*
X68053703Y-149460430D01*
X68062564Y-149471226D01*
X68089640Y-149462819D01*
X68140303Y-149440272D01*
X68205817Y-149407613D01*
X68241841Y-149388520D01*
X68394832Y-149305800D01*
X68577088Y-149429075D01*
X68670125Y-149492228D01*
X68771985Y-149561727D01*
X68867438Y-149627165D01*
X68915250Y-149660117D01*
X68982495Y-149705273D01*
X69039436Y-149741057D01*
X69078646Y-149762938D01*
X69091381Y-149767563D01*
X69109917Y-149755085D01*
X69150941Y-149720252D01*
X69210475Y-149666678D01*
X69284542Y-149597983D01*
X69369165Y-149517781D01*
X69422685Y-149466286D01*
X69516319Y-149374286D01*
X69597241Y-149291999D01*
X69662177Y-149222945D01*
X69707858Y-149170644D01*
X69731011Y-149138616D01*
X69733232Y-149132116D01*
X69722924Y-149107394D01*
X69694439Y-149057405D01*
X69650937Y-148987212D01*
X69595577Y-148901875D01*
X69531520Y-148806456D01*
X69513303Y-148779854D01*
X69446927Y-148683167D01*
X69387378Y-148596117D01*
X69337984Y-148523595D01*
X69302075Y-148470493D01*
X69282981Y-148441703D01*
X69281136Y-148438726D01*
X69283895Y-148415782D01*
X69298538Y-148365336D01*
X69322513Y-148294041D01*
X69353266Y-148208547D01*
X69388244Y-148115507D01*
X69424893Y-148021574D01*
X69460661Y-147933399D01*
X69492994Y-147857634D01*
X69519338Y-147800931D01*
X69537142Y-147769943D01*
X69538407Y-147768457D01*
X69549294Y-147759601D01*
X69567682Y-147750843D01*
X69597606Y-147741277D01*
X69643103Y-147729996D01*
X69708209Y-147716093D01*
X69796961Y-147698663D01*
X69913393Y-147676798D01*
X70061542Y-147649591D01*
X70093618Y-147643741D01*
X70188686Y-147625374D01*
X70271565Y-147607405D01*
X70334930Y-147591569D01*
X70371458Y-147579600D01*
X70376356Y-147576810D01*
X70384427Y-147552072D01*
X70390987Y-147496790D01*
X70396033Y-147417389D01*
X70399559Y-147320296D01*
X70401561Y-147211938D01*
X70402036Y-147098740D01*
X70400977Y-146987128D01*
X70398382Y-146883529D01*
X70394246Y-146794368D01*
X70388563Y-146726072D01*
X70381331Y-146685066D01*
X70376971Y-146676674D01*
X70352698Y-146668208D01*
X70297426Y-146654435D01*
X70216662Y-146636550D01*
X70115912Y-146615748D01*
X70000683Y-146593223D01*
X69937902Y-146581418D01*
X69818787Y-146559151D01*
X69712565Y-146538979D01*
X69624427Y-146521915D01*
X69559566Y-146508969D01*
X69523174Y-146501155D01*
X69517184Y-146499422D01*
X69507061Y-146479890D01*
X69485662Y-146432843D01*
X69455839Y-146365003D01*
X69420445Y-146283091D01*
X69382332Y-146193828D01*
X69344353Y-146103935D01*
X69309360Y-146020135D01*
X69280206Y-145949147D01*
X69259743Y-145897694D01*
X69250823Y-145872497D01*
X69250657Y-145871396D01*
X69260769Y-145851519D01*
X69289117Y-145805777D01*
X69332723Y-145738717D01*
X69388606Y-145654884D01*
X69453787Y-145558826D01*
X69491679Y-145503650D01*
X69560725Y-145402481D01*
X69622050Y-145310630D01*
X69672663Y-145232744D01*
X69709571Y-145173469D01*
X69729782Y-145137451D01*
X69732701Y-145129377D01*
X69720153Y-145110584D01*
X69685463Y-145070457D01*
X69633063Y-145013493D01*
X69567384Y-144944185D01*
X69492856Y-144867031D01*
X69413913Y-144786525D01*
X69334983Y-144707163D01*
X69260500Y-144633440D01*
X69194894Y-144569852D01*
X69142596Y-144520894D01*
X69108039Y-144491061D01*
X69096478Y-144483942D01*
X69077654Y-144493953D01*
X69032631Y-144522078D01*
X68965787Y-144565454D01*
X68881499Y-144621218D01*
X68784144Y-144686506D01*
X68710707Y-144736246D01*
X68339667Y-144988551D01*
X67721095Y-144733555D01*
X67637275Y-144288931D01*
X67553454Y-143844307D01*
X66628006Y-143844307D01*
X66544186Y-144288931D01*
X66544186Y-144288931D01*
G37*
X66544186Y-144288931D02*
X66460365Y-144733555D01*
X66151080Y-144861053D01*
X65841794Y-144988551D01*
X65470754Y-144736246D01*
X65366843Y-144665996D01*
X65272913Y-144603272D01*
X65193348Y-144550938D01*
X65132530Y-144511857D01*
X65094843Y-144488893D01*
X65084579Y-144483942D01*
X65066090Y-144496676D01*
X65026580Y-144531882D01*
X64970478Y-144585062D01*
X64902213Y-144651718D01*
X64826214Y-144727354D01*
X64746908Y-144807472D01*
X64668725Y-144887574D01*
X64596093Y-144963164D01*
X64533441Y-145029745D01*
X64485197Y-145082818D01*
X64455790Y-145117887D01*
X64448759Y-145129623D01*
X64458877Y-145151260D01*
X64487241Y-145198662D01*
X64530871Y-145267193D01*
X64586782Y-145352215D01*
X64651994Y-145449093D01*
X64689781Y-145504350D01*
X64758657Y-145605248D01*
X64819860Y-145696299D01*
X64870422Y-145772970D01*
X64907372Y-145830728D01*
X64927742Y-145865043D01*
X64930803Y-145872254D01*
X64923864Y-145892748D01*
X64904949Y-145940513D01*
X64876913Y-146008832D01*
X64842609Y-146090989D01*
X64804891Y-146180270D01*
X64766613Y-146269958D01*
X64730630Y-146353338D01*
X64699794Y-146423694D01*
X64676961Y-146474310D01*
X64664983Y-146498471D01*
X64664276Y-146499422D01*
X64645469Y-146504036D01*
X64595382Y-146514328D01*
X64519207Y-146529287D01*
X64422135Y-146547901D01*
X64309357Y-146569159D01*
X64243558Y-146581418D01*
X64123050Y-146604362D01*
X64014203Y-146626195D01*
X63922524Y-146645722D01*
X63853519Y-146661748D01*
X63812696Y-146673079D01*
X63804489Y-146676674D01*
X63796452Y-146701006D01*
X63789967Y-146755959D01*
X63785030Y-146835108D01*
X63781636Y-146932026D01*
X63779782Y-147040287D01*
X63779462Y-147153465D01*
X63780673Y-147265135D01*
X63783410Y-147368868D01*
X63787669Y-147458241D01*
X63793445Y-147526826D01*
X63800733Y-147568197D01*
X63805105Y-147576810D01*
X63831236Y-147587133D01*
X63886607Y-147601892D01*
X63963893Y-147619352D01*
X64055770Y-147637780D01*
X64087842Y-147643741D01*
X64242476Y-147672066D01*
X64364625Y-147694876D01*
X64458327Y-147713080D01*
X64527616Y-147727583D01*
X64576529Y-147739292D01*
X64609103Y-147749115D01*
X64629372Y-147757956D01*
X64641374Y-147766724D01*
X64643053Y-147768457D01*
X64659816Y-147796371D01*
X64685386Y-147850695D01*
X64717212Y-147924777D01*
X64752740Y-148011965D01*
X64789417Y-148105608D01*
X64824689Y-148199052D01*
X64856004Y-148285647D01*
X64880807Y-148358740D01*
X64896546Y-148411678D01*
X64900668Y-148437811D01*
X64900324Y-148438726D01*
X64886359Y-148460086D01*
X64854678Y-148507084D01*
X64808609Y-148574827D01*
X64751482Y-148658423D01*
X64686627Y-148752982D01*
X64668157Y-148779854D01*
X64602301Y-148877275D01*
X64544350Y-148966163D01*
X64497462Y-149041412D01*
X64464793Y-149097920D01*
X64449500Y-149130581D01*
X64448759Y-149134593D01*
X64461608Y-149155684D01*
X64497112Y-149197464D01*
X64550707Y-149255445D01*
X64617829Y-149325135D01*
X64693913Y-149402045D01*
X64774396Y-149481683D01*
X64854713Y-149559561D01*
X64930301Y-149631186D01*
X64996595Y-149692070D01*
X65049031Y-149737721D01*
X65083045Y-149763650D01*
X65092455Y-149767883D01*
X65114357Y-149757912D01*
X65159200Y-149731020D01*
X65219679Y-149691736D01*
X65266211Y-149660117D01*
X65350525Y-149602098D01*
X65450374Y-149533784D01*
X65550527Y-149465579D01*
X65604373Y-149429075D01*
X65786629Y-149305800D01*
X65939619Y-149388520D01*
X66009318Y-149424759D01*
X66068586Y-149452926D01*
X66108689Y-149468991D01*
X66118897Y-149471226D01*
X66131171Y-149454722D01*
X66155387Y-149408082D01*
X66189737Y-149335609D01*
X66232412Y-149241606D01*
X66281606Y-149130374D01*
X66335510Y-149006215D01*
X66392316Y-148873432D01*
X66450218Y-148736327D01*
X66507407Y-148599202D01*
X66562076Y-148466358D01*
X66612416Y-148342098D01*
X66656620Y-148230725D01*
X66692881Y-148136539D01*
X66719391Y-148063844D01*
X66734342Y-148016941D01*
X66736746Y-148000833D01*
X66717689Y-147980286D01*
X66675964Y-147946933D01*
X66620294Y-147907702D01*
X66615622Y-147904599D01*
X66471736Y-147789423D01*
X66355717Y-147655053D01*
X66268570Y-147505784D01*
X66211301Y-147345913D01*
X66184914Y-147179737D01*
X66190415Y-147011552D01*
X66228810Y-146845655D01*
X66301105Y-146686342D01*
X66322374Y-146651487D01*
X66433004Y-146510737D01*
X66563698Y-146397714D01*
X66709936Y-146313003D01*
X66867192Y-146257194D01*
X67030943Y-146230874D01*
X67196667Y-146234630D01*
X67359838Y-146269050D01*
X67515935Y-146334723D01*
X67660433Y-146432235D01*
X67705131Y-146471813D01*
X67818888Y-146595703D01*
X67901782Y-146726124D01*
X67958644Y-146872315D01*
X67990313Y-147017088D01*
X67998131Y-147179860D01*
X67972062Y-147343440D01*
X67914755Y-147502298D01*
X67828856Y-147650906D01*
X67717014Y-147783735D01*
X67581877Y-147895256D01*
X67564117Y-147907011D01*
X67507850Y-147945508D01*
X67465077Y-147978863D01*
X67444628Y-148000160D01*
X67444331Y-148000833D01*
X67448721Y-148023871D01*
X67466124Y-148076157D01*
X67494732Y-148153390D01*
X67532735Y-148251268D01*
X67578326Y-148365491D01*
X67629697Y-148491758D01*
X67685038Y-148625767D01*
X67742542Y-148763218D01*
X67800399Y-148899808D01*
X67856802Y-149031237D01*
X67909942Y-149153205D01*
X67958010Y-149261409D01*
X67999199Y-149351549D01*
X68031699Y-149419323D01*
X68053703Y-149460430D01*
X68062564Y-149471226D01*
X68089640Y-149462819D01*
X68140303Y-149440272D01*
X68205817Y-149407613D01*
X68241841Y-149388520D01*
X68394832Y-149305800D01*
X68577088Y-149429075D01*
X68670125Y-149492228D01*
X68771985Y-149561727D01*
X68867438Y-149627165D01*
X68915250Y-149660117D01*
X68982495Y-149705273D01*
X69039436Y-149741057D01*
X69078646Y-149762938D01*
X69091381Y-149767563D01*
X69109917Y-149755085D01*
X69150941Y-149720252D01*
X69210475Y-149666678D01*
X69284542Y-149597983D01*
X69369165Y-149517781D01*
X69422685Y-149466286D01*
X69516319Y-149374286D01*
X69597241Y-149291999D01*
X69662177Y-149222945D01*
X69707858Y-149170644D01*
X69731011Y-149138616D01*
X69733232Y-149132116D01*
X69722924Y-149107394D01*
X69694439Y-149057405D01*
X69650937Y-148987212D01*
X69595577Y-148901875D01*
X69531520Y-148806456D01*
X69513303Y-148779854D01*
X69446927Y-148683167D01*
X69387378Y-148596117D01*
X69337984Y-148523595D01*
X69302075Y-148470493D01*
X69282981Y-148441703D01*
X69281136Y-148438726D01*
X69283895Y-148415782D01*
X69298538Y-148365336D01*
X69322513Y-148294041D01*
X69353266Y-148208547D01*
X69388244Y-148115507D01*
X69424893Y-148021574D01*
X69460661Y-147933399D01*
X69492994Y-147857634D01*
X69519338Y-147800931D01*
X69537142Y-147769943D01*
X69538407Y-147768457D01*
X69549294Y-147759601D01*
X69567682Y-147750843D01*
X69597606Y-147741277D01*
X69643103Y-147729996D01*
X69708209Y-147716093D01*
X69796961Y-147698663D01*
X69913393Y-147676798D01*
X70061542Y-147649591D01*
X70093618Y-147643741D01*
X70188686Y-147625374D01*
X70271565Y-147607405D01*
X70334930Y-147591569D01*
X70371458Y-147579600D01*
X70376356Y-147576810D01*
X70384427Y-147552072D01*
X70390987Y-147496790D01*
X70396033Y-147417389D01*
X70399559Y-147320296D01*
X70401561Y-147211938D01*
X70402036Y-147098740D01*
X70400977Y-146987128D01*
X70398382Y-146883529D01*
X70394246Y-146794368D01*
X70388563Y-146726072D01*
X70381331Y-146685066D01*
X70376971Y-146676674D01*
X70352698Y-146668208D01*
X70297426Y-146654435D01*
X70216662Y-146636550D01*
X70115912Y-146615748D01*
X70000683Y-146593223D01*
X69937902Y-146581418D01*
X69818787Y-146559151D01*
X69712565Y-146538979D01*
X69624427Y-146521915D01*
X69559566Y-146508969D01*
X69523174Y-146501155D01*
X69517184Y-146499422D01*
X69507061Y-146479890D01*
X69485662Y-146432843D01*
X69455839Y-146365003D01*
X69420445Y-146283091D01*
X69382332Y-146193828D01*
X69344353Y-146103935D01*
X69309360Y-146020135D01*
X69280206Y-145949147D01*
X69259743Y-145897694D01*
X69250823Y-145872497D01*
X69250657Y-145871396D01*
X69260769Y-145851519D01*
X69289117Y-145805777D01*
X69332723Y-145738717D01*
X69388606Y-145654884D01*
X69453787Y-145558826D01*
X69491679Y-145503650D01*
X69560725Y-145402481D01*
X69622050Y-145310630D01*
X69672663Y-145232744D01*
X69709571Y-145173469D01*
X69729782Y-145137451D01*
X69732701Y-145129377D01*
X69720153Y-145110584D01*
X69685463Y-145070457D01*
X69633063Y-145013493D01*
X69567384Y-144944185D01*
X69492856Y-144867031D01*
X69413913Y-144786525D01*
X69334983Y-144707163D01*
X69260500Y-144633440D01*
X69194894Y-144569852D01*
X69142596Y-144520894D01*
X69108039Y-144491061D01*
X69096478Y-144483942D01*
X69077654Y-144493953D01*
X69032631Y-144522078D01*
X68965787Y-144565454D01*
X68881499Y-144621218D01*
X68784144Y-144686506D01*
X68710707Y-144736246D01*
X68339667Y-144988551D01*
X67721095Y-144733555D01*
X67637275Y-144288931D01*
X67553454Y-143844307D01*
X66628006Y-143844307D01*
X66544186Y-144288931D01*
G36*
X124916079Y-145056490D02*
X124812973Y-145092238D01*
X124716978Y-145148507D01*
X124631247Y-145225288D01*
X124558930Y-145322573D01*
X124526445Y-145383892D01*
X124498332Y-145469660D01*
X124484705Y-145568677D01*
X124486214Y-145670471D01*
X124502969Y-145762714D01*
X124548763Y-145875432D01*
X124615168Y-145973207D01*
X124698809Y-146054115D01*
X124796312Y-146116232D01*
X124904300Y-146157634D01*
X125019399Y-146176397D01*
X125138234Y-146170598D01*
X125196811Y-146158206D01*
X125310972Y-146113797D01*
X125412365Y-146046033D01*
X125498545Y-145957001D01*
X125567066Y-145848791D01*
X125572864Y-145836973D01*
X125592904Y-145792628D01*
X125605487Y-145755280D01*
X125612319Y-145715880D01*
X125615105Y-145665381D01*
X125615568Y-145610433D01*
X125614803Y-145544415D01*
X125611352Y-145496689D01*
X125603477Y-145458103D01*
X125589443Y-145419506D01*
X125572120Y-145381426D01*
X125507505Y-145273328D01*
X125427934Y-145185803D01*
X125336560Y-145118841D01*
X125236536Y-145072436D01*
X125131012Y-145046581D01*
X125023142Y-145041268D01*
X124916079Y-145056490D01*
X124916079Y-145056490D01*
G37*
X124916079Y-145056490D02*
X124812973Y-145092238D01*
X124716978Y-145148507D01*
X124631247Y-145225288D01*
X124558930Y-145322573D01*
X124526445Y-145383892D01*
X124498332Y-145469660D01*
X124484705Y-145568677D01*
X124486214Y-145670471D01*
X124502969Y-145762714D01*
X124548763Y-145875432D01*
X124615168Y-145973207D01*
X124698809Y-146054115D01*
X124796312Y-146116232D01*
X124904300Y-146157634D01*
X125019399Y-146176397D01*
X125138234Y-146170598D01*
X125196811Y-146158206D01*
X125310972Y-146113797D01*
X125412365Y-146046033D01*
X125498545Y-145957001D01*
X125567066Y-145848791D01*
X125572864Y-145836973D01*
X125592904Y-145792628D01*
X125605487Y-145755280D01*
X125612319Y-145715880D01*
X125615105Y-145665381D01*
X125615568Y-145610433D01*
X125614803Y-145544415D01*
X125611352Y-145496689D01*
X125603477Y-145458103D01*
X125589443Y-145419506D01*
X125572120Y-145381426D01*
X125507505Y-145273328D01*
X125427934Y-145185803D01*
X125336560Y-145118841D01*
X125236536Y-145072436D01*
X125131012Y-145046581D01*
X125023142Y-145041268D01*
X124916079Y-145056490D01*
G36*
X115347730Y-145976825D02*
X115230959Y-145977304D01*
X115191271Y-145977545D01*
X114645514Y-145981135D01*
X114638649Y-148074919D01*
X114637742Y-148358842D01*
X114636938Y-148616640D01*
X114636185Y-148849646D01*
X114635431Y-149059194D01*
X114634625Y-149246618D01*
X114633715Y-149413250D01*
X114632649Y-149560425D01*
X114631376Y-149689477D01*
X114629844Y-149801739D01*
X114628002Y-149898544D01*
X114625797Y-149981226D01*
X114623178Y-150051119D01*
X114620094Y-150109557D01*
X114616492Y-150157872D01*
X114612322Y-150197400D01*
X114607531Y-150229473D01*
X114602069Y-150255424D01*
X114595882Y-150276589D01*
X114588920Y-150294299D01*
X114581131Y-150309889D01*
X114572463Y-150324693D01*
X114562865Y-150340044D01*
X114552285Y-150357276D01*
X114550116Y-150360946D01*
X114513732Y-150423031D01*
X115039569Y-150419434D01*
X115565406Y-150415838D01*
X115572271Y-150300331D01*
X115576008Y-150244899D01*
X115579903Y-150212851D01*
X115585189Y-150200135D01*
X115593097Y-150202696D01*
X115599730Y-150210024D01*
X115628626Y-150236714D01*
X115675721Y-150271021D01*
X115734380Y-150308846D01*
X115797969Y-150346090D01*
X115859851Y-150378653D01*
X115907366Y-150400077D01*
X116018684Y-150435283D01*
X116146404Y-150460222D01*
X116281099Y-150473941D01*
X116413337Y-150475486D01*
X116533692Y-150463906D01*
X116535674Y-150463574D01*
X116700359Y-150422250D01*
X116854521Y-150356412D01*
X116996672Y-150267474D01*
X117125325Y-150156852D01*
X117238993Y-150025961D01*
X117336190Y-149876216D01*
X117415428Y-149709033D01*
X117458570Y-149585190D01*
X117487021Y-149481581D01*
X117508120Y-149381252D01*
X117522512Y-149278109D01*
X117530842Y-149166057D01*
X117533755Y-149039001D01*
X117532465Y-148935252D01*
X116519350Y-148935252D01*
X116514556Y-149109222D01*
X116499432Y-149258895D01*
X116473515Y-149385597D01*
X116436337Y-149490658D01*
X116387435Y-149575406D01*
X116326342Y-149641169D01*
X116255823Y-149687659D01*
X116219129Y-149705014D01*
X116187304Y-149715419D01*
X116151823Y-149720179D01*
X116104159Y-149720601D01*
X116052811Y-149718748D01*
X115951831Y-149709841D01*
X115871965Y-149692398D01*
X115846865Y-149683661D01*
X115789552Y-149657857D01*
X115729103Y-149625453D01*
X115702703Y-149609233D01*
X115634054Y-149564205D01*
X115634054Y-148136982D01*
X115709568Y-148091718D01*
X115814879Y-148040572D01*
X115922475Y-148010324D01*
X116028419Y-148000795D01*
X116128776Y-148011807D01*
X116219613Y-148043181D01*
X116296993Y-148094740D01*
X116321961Y-148119488D01*
X116382144Y-148200577D01*
X116430855Y-148298734D01*
X116468501Y-148415643D01*
X116495488Y-148552985D01*
X116512225Y-148712444D01*
X116519117Y-148895700D01*
X116519350Y-148935252D01*
X117532465Y-148935252D01*
X117531927Y-148892067D01*
X117520353Y-148666053D01*
X117497080Y-148462192D01*
X117461496Y-148277513D01*
X117412987Y-148109048D01*
X117350940Y-147953826D01*
X117328799Y-147907808D01*
X117239615Y-147757739D01*
X117131841Y-147624377D01*
X117008010Y-147509877D01*
X116870658Y-147416389D01*
X116722317Y-147346068D01*
X116633396Y-147317060D01*
X116546067Y-147299840D01*
X116440989Y-147289594D01*
X116326971Y-147286318D01*
X116212823Y-147290009D01*
X116107352Y-147300660D01*
X116022666Y-147317370D01*
X115921872Y-147350140D01*
X115824178Y-147392279D01*
X115738704Y-147439519D01*
X115693211Y-147471581D01*
X115661831Y-147495422D01*
X115639858Y-147509939D01*
X115634859Y-147512000D01*
X115633310Y-147498718D01*
X115631865Y-147460663D01*
X115630557Y-147400519D01*
X115629417Y-147320973D01*
X115628479Y-147224711D01*
X115627774Y-147114419D01*
X115627333Y-146992781D01*
X115627189Y-146868885D01*
X115627270Y-146710196D01*
X115627665Y-146576408D01*
X115628605Y-146464960D01*
X115630320Y-146373295D01*
X115633043Y-146298853D01*
X115637003Y-146239075D01*
X115642431Y-146191402D01*
X115649559Y-146153274D01*
X115658616Y-146122134D01*
X115669833Y-146095421D01*
X115683442Y-146070577D01*
X115699672Y-146045043D01*
X115701760Y-146041881D01*
X115722694Y-146008810D01*
X115735333Y-145986069D01*
X115737027Y-145981272D01*
X115723784Y-145979759D01*
X115685998Y-145978528D01*
X115626584Y-145977599D01*
X115548458Y-145976992D01*
X115454535Y-145976727D01*
X115347730Y-145976825D01*
X115347730Y-145976825D01*
G37*
X115347730Y-145976825D02*
X115230959Y-145977304D01*
X115191271Y-145977545D01*
X114645514Y-145981135D01*
X114638649Y-148074919D01*
X114637742Y-148358842D01*
X114636938Y-148616640D01*
X114636185Y-148849646D01*
X114635431Y-149059194D01*
X114634625Y-149246618D01*
X114633715Y-149413250D01*
X114632649Y-149560425D01*
X114631376Y-149689477D01*
X114629844Y-149801739D01*
X114628002Y-149898544D01*
X114625797Y-149981226D01*
X114623178Y-150051119D01*
X114620094Y-150109557D01*
X114616492Y-150157872D01*
X114612322Y-150197400D01*
X114607531Y-150229473D01*
X114602069Y-150255424D01*
X114595882Y-150276589D01*
X114588920Y-150294299D01*
X114581131Y-150309889D01*
X114572463Y-150324693D01*
X114562865Y-150340044D01*
X114552285Y-150357276D01*
X114550116Y-150360946D01*
X114513732Y-150423031D01*
X115039569Y-150419434D01*
X115565406Y-150415838D01*
X115572271Y-150300331D01*
X115576008Y-150244899D01*
X115579903Y-150212851D01*
X115585189Y-150200135D01*
X115593097Y-150202696D01*
X115599730Y-150210024D01*
X115628626Y-150236714D01*
X115675721Y-150271021D01*
X115734380Y-150308846D01*
X115797969Y-150346090D01*
X115859851Y-150378653D01*
X115907366Y-150400077D01*
X116018684Y-150435283D01*
X116146404Y-150460222D01*
X116281099Y-150473941D01*
X116413337Y-150475486D01*
X116533692Y-150463906D01*
X116535674Y-150463574D01*
X116700359Y-150422250D01*
X116854521Y-150356412D01*
X116996672Y-150267474D01*
X117125325Y-150156852D01*
X117238993Y-150025961D01*
X117336190Y-149876216D01*
X117415428Y-149709033D01*
X117458570Y-149585190D01*
X117487021Y-149481581D01*
X117508120Y-149381252D01*
X117522512Y-149278109D01*
X117530842Y-149166057D01*
X117533755Y-149039001D01*
X117532465Y-148935252D01*
X116519350Y-148935252D01*
X116514556Y-149109222D01*
X116499432Y-149258895D01*
X116473515Y-149385597D01*
X116436337Y-149490658D01*
X116387435Y-149575406D01*
X116326342Y-149641169D01*
X116255823Y-149687659D01*
X116219129Y-149705014D01*
X116187304Y-149715419D01*
X116151823Y-149720179D01*
X116104159Y-149720601D01*
X116052811Y-149718748D01*
X115951831Y-149709841D01*
X115871965Y-149692398D01*
X115846865Y-149683661D01*
X115789552Y-149657857D01*
X115729103Y-149625453D01*
X115702703Y-149609233D01*
X115634054Y-149564205D01*
X115634054Y-148136982D01*
X115709568Y-148091718D01*
X115814879Y-148040572D01*
X115922475Y-148010324D01*
X116028419Y-148000795D01*
X116128776Y-148011807D01*
X116219613Y-148043181D01*
X116296993Y-148094740D01*
X116321961Y-148119488D01*
X116382144Y-148200577D01*
X116430855Y-148298734D01*
X116468501Y-148415643D01*
X116495488Y-148552985D01*
X116512225Y-148712444D01*
X116519117Y-148895700D01*
X116519350Y-148935252D01*
X117532465Y-148935252D01*
X117531927Y-148892067D01*
X117520353Y-148666053D01*
X117497080Y-148462192D01*
X117461496Y-148277513D01*
X117412987Y-148109048D01*
X117350940Y-147953826D01*
X117328799Y-147907808D01*
X117239615Y-147757739D01*
X117131841Y-147624377D01*
X117008010Y-147509877D01*
X116870658Y-147416389D01*
X116722317Y-147346068D01*
X116633396Y-147317060D01*
X116546067Y-147299840D01*
X116440989Y-147289594D01*
X116326971Y-147286318D01*
X116212823Y-147290009D01*
X116107352Y-147300660D01*
X116022666Y-147317370D01*
X115921872Y-147350140D01*
X115824178Y-147392279D01*
X115738704Y-147439519D01*
X115693211Y-147471581D01*
X115661831Y-147495422D01*
X115639858Y-147509939D01*
X115634859Y-147512000D01*
X115633310Y-147498718D01*
X115631865Y-147460663D01*
X115630557Y-147400519D01*
X115629417Y-147320973D01*
X115628479Y-147224711D01*
X115627774Y-147114419D01*
X115627333Y-146992781D01*
X115627189Y-146868885D01*
X115627270Y-146710196D01*
X115627665Y-146576408D01*
X115628605Y-146464960D01*
X115630320Y-146373295D01*
X115633043Y-146298853D01*
X115637003Y-146239075D01*
X115642431Y-146191402D01*
X115649559Y-146153274D01*
X115658616Y-146122134D01*
X115669833Y-146095421D01*
X115683442Y-146070577D01*
X115699672Y-146045043D01*
X115701760Y-146041881D01*
X115722694Y-146008810D01*
X115735333Y-145986069D01*
X115737027Y-145981272D01*
X115723784Y-145979759D01*
X115685998Y-145978528D01*
X115626584Y-145977599D01*
X115548458Y-145976992D01*
X115454535Y-145976727D01*
X115347730Y-145976825D01*
G36*
X119022495Y-147284229D02*
X118954469Y-147289378D01*
X118759837Y-147315273D01*
X118587471Y-147356575D01*
X118436530Y-147413853D01*
X118306175Y-147487674D01*
X118195566Y-147578608D01*
X118103865Y-147687222D01*
X118030230Y-147814085D01*
X117976461Y-147951352D01*
X117962813Y-147995137D01*
X117950927Y-148036141D01*
X117940666Y-148076569D01*
X117931887Y-148118630D01*
X117924452Y-148164531D01*
X117918220Y-148216480D01*
X117913050Y-148276685D01*
X117908804Y-148347352D01*
X117905340Y-148430689D01*
X117902519Y-148528905D01*
X117900200Y-148644205D01*
X117898243Y-148778799D01*
X117896509Y-148934893D01*
X117894857Y-149114695D01*
X117893676Y-149255676D01*
X117885730Y-150223622D01*
X117834244Y-150316770D01*
X117809863Y-150361645D01*
X117791720Y-150396501D01*
X117783065Y-150415054D01*
X117782757Y-150416311D01*
X117795986Y-150417749D01*
X117833674Y-150419074D01*
X117892817Y-150420249D01*
X117970414Y-150421237D01*
X118063464Y-150421999D01*
X118168965Y-150422500D01*
X118283916Y-150422701D01*
X118297622Y-150422703D01*
X118812487Y-150422703D01*
X118812487Y-150306000D01*
X118813365Y-150253260D01*
X118815708Y-150212926D01*
X118819079Y-150191300D01*
X118820569Y-150189298D01*
X118834196Y-150197683D01*
X118862243Y-150219692D01*
X118898697Y-150250601D01*
X118899515Y-150251316D01*
X118966038Y-150300843D01*
X119050052Y-150350575D01*
X119142063Y-150395626D01*
X119232579Y-150431110D01*
X119272433Y-150443236D01*
X119351745Y-150458637D01*
X119449065Y-150468465D01*
X119555484Y-150472580D01*
X119662093Y-150470841D01*
X119759983Y-150463108D01*
X119828487Y-150451981D01*
X119996480Y-150402648D01*
X120147719Y-150332342D01*
X120281218Y-150241933D01*
X120395994Y-150132295D01*
X120491063Y-150004299D01*
X120565440Y-149858818D01*
X120597526Y-149770541D01*
X120617635Y-149684739D01*
X120630962Y-149581736D01*
X120637128Y-149471034D01*
X120636926Y-149454925D01*
X119708352Y-149454925D01*
X119700652Y-149537184D01*
X119675011Y-149605546D01*
X119627622Y-149668970D01*
X119609421Y-149687567D01*
X119544718Y-149737846D01*
X119469934Y-149770056D01*
X119380338Y-149785648D01*
X119285988Y-149786796D01*
X119196499Y-149779216D01*
X119127982Y-149764389D01*
X119098225Y-149753253D01*
X119044592Y-149722904D01*
X118987765Y-149680221D01*
X118935918Y-149632317D01*
X118897222Y-149586301D01*
X118886946Y-149569421D01*
X118878958Y-149545782D01*
X118873279Y-149508168D01*
X118869644Y-149452985D01*
X118867789Y-149376640D01*
X118867406Y-149303981D01*
X118867665Y-149219270D01*
X118868713Y-149158018D01*
X118870955Y-149116227D01*
X118874794Y-149089899D01*
X118880635Y-149075035D01*
X118888882Y-149067639D01*
X118891433Y-149066461D01*
X118913600Y-149062833D01*
X118957320Y-149059866D01*
X119016689Y-149057827D01*
X119085804Y-149056983D01*
X119100811Y-149056982D01*
X119193195Y-149058457D01*
X119264568Y-149062842D01*
X119321281Y-149070738D01*
X119368128Y-149082270D01*
X119484331Y-149126215D01*
X119575457Y-149180243D01*
X119642295Y-149245219D01*
X119685635Y-149322005D01*
X119706266Y-149411467D01*
X119708352Y-149454925D01*
X120636926Y-149454925D01*
X120635756Y-149362133D01*
X120626468Y-149264536D01*
X120619223Y-149225105D01*
X120572961Y-149078701D01*
X120502616Y-148943995D01*
X120409516Y-148822280D01*
X120294988Y-148714847D01*
X120160360Y-148622988D01*
X120006960Y-148547996D01*
X119876541Y-148502458D01*
X119789377Y-148478533D01*
X119706004Y-148459943D01*
X119621024Y-148446084D01*
X119529035Y-148436351D01*
X119424638Y-148430141D01*
X119302432Y-148426851D01*
X119191945Y-148425924D01*
X118864323Y-148425027D01*
X118870599Y-148326547D01*
X118888421Y-148219695D01*
X118926333Y-148127852D01*
X118982720Y-148053310D01*
X119055969Y-147998364D01*
X119120465Y-147971552D01*
X119212877Y-147954654D01*
X119322889Y-147952227D01*
X119445344Y-147963378D01*
X119575086Y-147987210D01*
X119706958Y-148022830D01*
X119835802Y-148069343D01*
X119929434Y-148111883D01*
X119974483Y-148133728D01*
X120008844Y-148148984D01*
X120026319Y-148154937D01*
X120027267Y-148154746D01*
X120033297Y-148141412D01*
X120048355Y-148106068D01*
X120071023Y-148052101D01*
X120099885Y-147982896D01*
X120133523Y-147901840D01*
X120167716Y-147819118D01*
X120304414Y-147487803D01*
X120207180Y-147471833D01*
X120165036Y-147463820D01*
X120101681Y-147450361D01*
X120022543Y-147432679D01*
X119933049Y-147411996D01*
X119838627Y-147389532D01*
X119801027Y-147380403D01*
X119638363Y-147342674D01*
X119495950Y-147314388D01*
X119368473Y-147294972D01*
X119250616Y-147283854D01*
X119137062Y-147280464D01*
X119022495Y-147284229D01*
X119022495Y-147284229D01*
G37*
X119022495Y-147284229D02*
X118954469Y-147289378D01*
X118759837Y-147315273D01*
X118587471Y-147356575D01*
X118436530Y-147413853D01*
X118306175Y-147487674D01*
X118195566Y-147578608D01*
X118103865Y-147687222D01*
X118030230Y-147814085D01*
X117976461Y-147951352D01*
X117962813Y-147995137D01*
X117950927Y-148036141D01*
X117940666Y-148076569D01*
X117931887Y-148118630D01*
X117924452Y-148164531D01*
X117918220Y-148216480D01*
X117913050Y-148276685D01*
X117908804Y-148347352D01*
X117905340Y-148430689D01*
X117902519Y-148528905D01*
X117900200Y-148644205D01*
X117898243Y-148778799D01*
X117896509Y-148934893D01*
X117894857Y-149114695D01*
X117893676Y-149255676D01*
X117885730Y-150223622D01*
X117834244Y-150316770D01*
X117809863Y-150361645D01*
X117791720Y-150396501D01*
X117783065Y-150415054D01*
X117782757Y-150416311D01*
X117795986Y-150417749D01*
X117833674Y-150419074D01*
X117892817Y-150420249D01*
X117970414Y-150421237D01*
X118063464Y-150421999D01*
X118168965Y-150422500D01*
X118283916Y-150422701D01*
X118297622Y-150422703D01*
X118812487Y-150422703D01*
X118812487Y-150306000D01*
X118813365Y-150253260D01*
X118815708Y-150212926D01*
X118819079Y-150191300D01*
X118820569Y-150189298D01*
X118834196Y-150197683D01*
X118862243Y-150219692D01*
X118898697Y-150250601D01*
X118899515Y-150251316D01*
X118966038Y-150300843D01*
X119050052Y-150350575D01*
X119142063Y-150395626D01*
X119232579Y-150431110D01*
X119272433Y-150443236D01*
X119351745Y-150458637D01*
X119449065Y-150468465D01*
X119555484Y-150472580D01*
X119662093Y-150470841D01*
X119759983Y-150463108D01*
X119828487Y-150451981D01*
X119996480Y-150402648D01*
X120147719Y-150332342D01*
X120281218Y-150241933D01*
X120395994Y-150132295D01*
X120491063Y-150004299D01*
X120565440Y-149858818D01*
X120597526Y-149770541D01*
X120617635Y-149684739D01*
X120630962Y-149581736D01*
X120637128Y-149471034D01*
X120636926Y-149454925D01*
X119708352Y-149454925D01*
X119700652Y-149537184D01*
X119675011Y-149605546D01*
X119627622Y-149668970D01*
X119609421Y-149687567D01*
X119544718Y-149737846D01*
X119469934Y-149770056D01*
X119380338Y-149785648D01*
X119285988Y-149786796D01*
X119196499Y-149779216D01*
X119127982Y-149764389D01*
X119098225Y-149753253D01*
X119044592Y-149722904D01*
X118987765Y-149680221D01*
X118935918Y-149632317D01*
X118897222Y-149586301D01*
X118886946Y-149569421D01*
X118878958Y-149545782D01*
X118873279Y-149508168D01*
X118869644Y-149452985D01*
X118867789Y-149376640D01*
X118867406Y-149303981D01*
X118867665Y-149219270D01*
X118868713Y-149158018D01*
X118870955Y-149116227D01*
X118874794Y-149089899D01*
X118880635Y-149075035D01*
X118888882Y-149067639D01*
X118891433Y-149066461D01*
X118913600Y-149062833D01*
X118957320Y-149059866D01*
X119016689Y-149057827D01*
X119085804Y-149056983D01*
X119100811Y-149056982D01*
X119193195Y-149058457D01*
X119264568Y-149062842D01*
X119321281Y-149070738D01*
X119368128Y-149082270D01*
X119484331Y-149126215D01*
X119575457Y-149180243D01*
X119642295Y-149245219D01*
X119685635Y-149322005D01*
X119706266Y-149411467D01*
X119708352Y-149454925D01*
X120636926Y-149454925D01*
X120635756Y-149362133D01*
X120626468Y-149264536D01*
X120619223Y-149225105D01*
X120572961Y-149078701D01*
X120502616Y-148943995D01*
X120409516Y-148822280D01*
X120294988Y-148714847D01*
X120160360Y-148622988D01*
X120006960Y-148547996D01*
X119876541Y-148502458D01*
X119789377Y-148478533D01*
X119706004Y-148459943D01*
X119621024Y-148446084D01*
X119529035Y-148436351D01*
X119424638Y-148430141D01*
X119302432Y-148426851D01*
X119191945Y-148425924D01*
X118864323Y-148425027D01*
X118870599Y-148326547D01*
X118888421Y-148219695D01*
X118926333Y-148127852D01*
X118982720Y-148053310D01*
X119055969Y-147998364D01*
X119120465Y-147971552D01*
X119212877Y-147954654D01*
X119322889Y-147952227D01*
X119445344Y-147963378D01*
X119575086Y-147987210D01*
X119706958Y-148022830D01*
X119835802Y-148069343D01*
X119929434Y-148111883D01*
X119974483Y-148133728D01*
X120008844Y-148148984D01*
X120026319Y-148154937D01*
X120027267Y-148154746D01*
X120033297Y-148141412D01*
X120048355Y-148106068D01*
X120071023Y-148052101D01*
X120099885Y-147982896D01*
X120133523Y-147901840D01*
X120167716Y-147819118D01*
X120304414Y-147487803D01*
X120207180Y-147471833D01*
X120165036Y-147463820D01*
X120101681Y-147450361D01*
X120022543Y-147432679D01*
X119933049Y-147411996D01*
X119838627Y-147389532D01*
X119801027Y-147380403D01*
X119638363Y-147342674D01*
X119495950Y-147314388D01*
X119368473Y-147294972D01*
X119250616Y-147283854D01*
X119137062Y-147280464D01*
X119022495Y-147284229D01*
G36*
X121750038Y-146180499D02*
X121601986Y-146196707D01*
X121458548Y-146225718D01*
X121313890Y-146269045D01*
X121162176Y-146328201D01*
X120997572Y-146404700D01*
X120967929Y-146419517D01*
X120899902Y-146453031D01*
X120835744Y-146483208D01*
X120781785Y-146507166D01*
X120744360Y-146522024D01*
X120738611Y-146523895D01*
X120683514Y-146540402D01*
X120930149Y-146899201D01*
X120990448Y-146986893D01*
X121045578Y-147067012D01*
X121093664Y-147136836D01*
X121132832Y-147193647D01*
X121161206Y-147234723D01*
X121176913Y-147257346D01*
X121179464Y-147260928D01*
X121189829Y-147253438D01*
X121215340Y-147230918D01*
X121251437Y-147197461D01*
X121271358Y-147178550D01*
X121384227Y-147088778D01*
X121510986Y-147020561D01*
X121620217Y-146983195D01*
X121685786Y-146971460D01*
X121767884Y-146964308D01*
X121856856Y-146961874D01*
X121943044Y-146964288D01*
X122016795Y-146971683D01*
X122046224Y-146977347D01*
X122178867Y-147022982D01*
X122298394Y-147092663D01*
X122404717Y-147186260D01*
X122497747Y-147303649D01*
X122577395Y-147444700D01*
X122643574Y-147609286D01*
X122696194Y-147797280D01*
X122727467Y-147958217D01*
X122735626Y-148029263D01*
X122741185Y-148121046D01*
X122744198Y-148226968D01*
X122744719Y-148340434D01*
X122742800Y-148454849D01*
X122738497Y-148563617D01*
X122731863Y-148660143D01*
X122722951Y-148737831D01*
X122721021Y-148749817D01*
X122678501Y-148942892D01*
X122620567Y-149113773D01*
X122546867Y-149263224D01*
X122457049Y-149392011D01*
X122393293Y-149461639D01*
X122278714Y-149556173D01*
X122153058Y-149626246D01*
X122018443Y-149671477D01*
X121876989Y-149691484D01*
X121730817Y-149685885D01*
X121582045Y-149654300D01*
X121494089Y-149623394D01*
X121372371Y-149561506D01*
X121246920Y-149472729D01*
X121176647Y-149412694D01*
X121137189Y-149377947D01*
X121106188Y-149352454D01*
X121088542Y-149340170D01*
X121086352Y-149339795D01*
X121078476Y-149352347D01*
X121058068Y-149385516D01*
X121026868Y-149436458D01*
X120986614Y-149502331D01*
X120939043Y-149580289D01*
X120885896Y-149667490D01*
X120856313Y-149716067D01*
X120630352Y-150087215D01*
X120912473Y-150226639D01*
X121014478Y-150276719D01*
X121097111Y-150316210D01*
X121165422Y-150347073D01*
X121224463Y-150371268D01*
X121279286Y-150390758D01*
X121334940Y-150407503D01*
X121396477Y-150423465D01*
X121455460Y-150437482D01*
X121507885Y-150448329D01*
X121562712Y-150456526D01*
X121625428Y-150462528D01*
X121701523Y-150466790D01*
X121796484Y-150469767D01*
X121860487Y-150471052D01*
X121951808Y-150471930D01*
X122039373Y-150471487D01*
X122117388Y-150469852D01*
X122180058Y-150467149D01*
X122221587Y-150463505D01*
X122224048Y-150463142D01*
X122439697Y-150416487D01*
X122642207Y-150345729D01*
X122831505Y-150250914D01*
X123007521Y-150132089D01*
X123170184Y-149989300D01*
X123319422Y-149822594D01*
X123427504Y-149674433D01*
X123542566Y-149480502D01*
X123635577Y-149275699D01*
X123706987Y-149058383D01*
X123757244Y-148826912D01*
X123786799Y-148579643D01*
X123796111Y-148328559D01*
X123788452Y-148085670D01*
X123764387Y-147861570D01*
X123723148Y-147652477D01*
X123663973Y-147454613D01*
X123586096Y-147264196D01*
X123576797Y-147244468D01*
X123474352Y-147060059D01*
X123348528Y-146884576D01*
X123202888Y-146721650D01*
X123040999Y-146574914D01*
X122866424Y-146448001D01*
X122703756Y-146354905D01*
X122539427Y-146281991D01*
X122374749Y-146229174D01*
X122203348Y-146195015D01*
X122018847Y-146178078D01*
X121908541Y-146175580D01*
X121750038Y-146180499D01*
X121750038Y-146180499D01*
G37*
X121750038Y-146180499D02*
X121601986Y-146196707D01*
X121458548Y-146225718D01*
X121313890Y-146269045D01*
X121162176Y-146328201D01*
X120997572Y-146404700D01*
X120967929Y-146419517D01*
X120899902Y-146453031D01*
X120835744Y-146483208D01*
X120781785Y-146507166D01*
X120744360Y-146522024D01*
X120738611Y-146523895D01*
X120683514Y-146540402D01*
X120930149Y-146899201D01*
X120990448Y-146986893D01*
X121045578Y-147067012D01*
X121093664Y-147136836D01*
X121132832Y-147193647D01*
X121161206Y-147234723D01*
X121176913Y-147257346D01*
X121179464Y-147260928D01*
X121189829Y-147253438D01*
X121215340Y-147230918D01*
X121251437Y-147197461D01*
X121271358Y-147178550D01*
X121384227Y-147088778D01*
X121510986Y-147020561D01*
X121620217Y-146983195D01*
X121685786Y-146971460D01*
X121767884Y-146964308D01*
X121856856Y-146961874D01*
X121943044Y-146964288D01*
X122016795Y-146971683D01*
X122046224Y-146977347D01*
X122178867Y-147022982D01*
X122298394Y-147092663D01*
X122404717Y-147186260D01*
X122497747Y-147303649D01*
X122577395Y-147444700D01*
X122643574Y-147609286D01*
X122696194Y-147797280D01*
X122727467Y-147958217D01*
X122735626Y-148029263D01*
X122741185Y-148121046D01*
X122744198Y-148226968D01*
X122744719Y-148340434D01*
X122742800Y-148454849D01*
X122738497Y-148563617D01*
X122731863Y-148660143D01*
X122722951Y-148737831D01*
X122721021Y-148749817D01*
X122678501Y-148942892D01*
X122620567Y-149113773D01*
X122546867Y-149263224D01*
X122457049Y-149392011D01*
X122393293Y-149461639D01*
X122278714Y-149556173D01*
X122153058Y-149626246D01*
X122018443Y-149671477D01*
X121876989Y-149691484D01*
X121730817Y-149685885D01*
X121582045Y-149654300D01*
X121494089Y-149623394D01*
X121372371Y-149561506D01*
X121246920Y-149472729D01*
X121176647Y-149412694D01*
X121137189Y-149377947D01*
X121106188Y-149352454D01*
X121088542Y-149340170D01*
X121086352Y-149339795D01*
X121078476Y-149352347D01*
X121058068Y-149385516D01*
X121026868Y-149436458D01*
X120986614Y-149502331D01*
X120939043Y-149580289D01*
X120885896Y-149667490D01*
X120856313Y-149716067D01*
X120630352Y-150087215D01*
X120912473Y-150226639D01*
X121014478Y-150276719D01*
X121097111Y-150316210D01*
X121165422Y-150347073D01*
X121224463Y-150371268D01*
X121279286Y-150390758D01*
X121334940Y-150407503D01*
X121396477Y-150423465D01*
X121455460Y-150437482D01*
X121507885Y-150448329D01*
X121562712Y-150456526D01*
X121625428Y-150462528D01*
X121701523Y-150466790D01*
X121796484Y-150469767D01*
X121860487Y-150471052D01*
X121951808Y-150471930D01*
X122039373Y-150471487D01*
X122117388Y-150469852D01*
X122180058Y-150467149D01*
X122221587Y-150463505D01*
X122224048Y-150463142D01*
X122439697Y-150416487D01*
X122642207Y-150345729D01*
X122831505Y-150250914D01*
X123007521Y-150132089D01*
X123170184Y-149989300D01*
X123319422Y-149822594D01*
X123427504Y-149674433D01*
X123542566Y-149480502D01*
X123635577Y-149275699D01*
X123706987Y-149058383D01*
X123757244Y-148826912D01*
X123786799Y-148579643D01*
X123796111Y-148328559D01*
X123788452Y-148085670D01*
X123764387Y-147861570D01*
X123723148Y-147652477D01*
X123663973Y-147454613D01*
X123586096Y-147264196D01*
X123576797Y-147244468D01*
X123474352Y-147060059D01*
X123348528Y-146884576D01*
X123202888Y-146721650D01*
X123040999Y-146574914D01*
X122866424Y-146448001D01*
X122703756Y-146354905D01*
X122539427Y-146281991D01*
X122374749Y-146229174D01*
X122203348Y-146195015D01*
X122018847Y-146178078D01*
X121908541Y-146175580D01*
X121750038Y-146180499D01*
G36*
X128145743Y-145493689D02*
X127881220Y-145493725D01*
X127758088Y-145493730D01*
X125787189Y-145493730D01*
X125787189Y-145609910D01*
X125774789Y-145751291D01*
X125737364Y-145881684D01*
X125674577Y-146001862D01*
X125586094Y-146112602D01*
X125556157Y-146142511D01*
X125448466Y-146227348D01*
X125329725Y-146289221D01*
X125203460Y-146328159D01*
X125073197Y-146344190D01*
X124942465Y-146337342D01*
X124814788Y-146307643D01*
X124693695Y-146255120D01*
X124582712Y-146179803D01*
X124532868Y-146134363D01*
X124439983Y-146022952D01*
X124371873Y-145900435D01*
X124329129Y-145768215D01*
X124312347Y-145627692D01*
X124312124Y-145613867D01*
X124311244Y-145493734D01*
X124258443Y-145493732D01*
X124211604Y-145500089D01*
X124168817Y-145515556D01*
X124165989Y-145517154D01*
X124156325Y-145522168D01*
X124147451Y-145526073D01*
X124139335Y-145530007D01*
X124131943Y-145535106D01*
X124125245Y-145542508D01*
X124119208Y-145553351D01*
X124113801Y-145568772D01*
X124108990Y-145589909D01*
X124104745Y-145617899D01*
X124101032Y-145653879D01*
X124097821Y-145698987D01*
X124095078Y-145754360D01*
X124092772Y-145821137D01*
X124090871Y-145900453D01*
X124089342Y-145993447D01*
X124088154Y-146101257D01*
X124087274Y-146225019D01*
X124086670Y-146365871D01*
X124086311Y-146524950D01*
X124086165Y-146703395D01*
X124086198Y-146902342D01*
X124086380Y-147122929D01*
X124086677Y-147366293D01*
X124087059Y-147633572D01*
X124087492Y-147925903D01*
X124087945Y-148244424D01*
X124087998Y-148283230D01*
X124088404Y-148603782D01*
X124088749Y-148898012D01*
X124089069Y-149167056D01*
X124089400Y-149412052D01*
X124089779Y-149634137D01*
X124090243Y-149834447D01*
X124090828Y-150014119D01*
X124091570Y-150174290D01*
X124092506Y-150316098D01*
X124093673Y-150440679D01*
X124095107Y-150549170D01*
X124096844Y-150642707D01*
X124098922Y-150722429D01*
X124101376Y-150789472D01*
X124104244Y-150844973D01*
X124107561Y-150890068D01*
X124111364Y-150925895D01*
X124115690Y-150953591D01*
X124120575Y-150974293D01*
X124126055Y-150989137D01*
X124132168Y-150999260D01*
X124138950Y-151005800D01*
X124146437Y-151009893D01*
X124154666Y-151012676D01*
X124163673Y-151015287D01*
X124173495Y-151018862D01*
X124175894Y-151019950D01*
X124183435Y-151022396D01*
X124196056Y-151024642D01*
X124214859Y-151026698D01*
X124240947Y-151028572D01*
X124275422Y-151030271D01*
X124319385Y-151031803D01*
X124373939Y-151033177D01*
X124440185Y-151034400D01*
X124519226Y-151035481D01*
X124612163Y-151036427D01*
X124720099Y-151037247D01*
X124844136Y-151037947D01*
X124985376Y-151038538D01*
X125144921Y-151039025D01*
X125323872Y-151039419D01*
X125523332Y-151039725D01*
X125744404Y-151039953D01*
X125988188Y-151040110D01*
X126255787Y-151040205D01*
X126548303Y-151040245D01*
X126866839Y-151040238D01*
X126970021Y-151040228D01*
X127295623Y-151040176D01*
X127594881Y-151040091D01*
X127868909Y-151039963D01*
X128118824Y-151039785D01*
X128345740Y-151039548D01*
X128550773Y-151039242D01*
X128735038Y-151038860D01*
X128899650Y-151038392D01*
X129045725Y-151037830D01*
X129174376Y-151037165D01*
X129286721Y-151036388D01*
X129383874Y-151035491D01*
X129466950Y-151034465D01*
X129537064Y-151033301D01*
X129595332Y-151031991D01*
X129642869Y-151030525D01*
X129680790Y-151028896D01*
X129710210Y-151027093D01*
X129732245Y-151025110D01*
X129748010Y-151022936D01*
X129758620Y-151020563D01*
X129764404Y-151018391D01*
X129774684Y-151014056D01*
X129784122Y-151010859D01*
X129792755Y-151007665D01*
X129800619Y-151003338D01*
X129807748Y-150996744D01*
X129814179Y-150986747D01*
X129819947Y-150972212D01*
X129825089Y-150952003D01*
X129829640Y-150924985D01*
X129833635Y-150890023D01*
X129837111Y-150845981D01*
X129840102Y-150791724D01*
X129842646Y-150726117D01*
X129844777Y-150648024D01*
X129846532Y-150556310D01*
X129847945Y-150449840D01*
X129848315Y-150408973D01*
X129481884Y-150408973D01*
X128186734Y-150408973D01*
X128211655Y-150371217D01*
X128236447Y-150332417D01*
X128257440Y-150295469D01*
X128274935Y-150257788D01*
X128289230Y-150216788D01*
X128300623Y-150169883D01*
X128309413Y-150114487D01*
X128315898Y-150048016D01*
X128320377Y-149967883D01*
X128323150Y-149871502D01*
X128324513Y-149756289D01*
X128324767Y-149619657D01*
X128324209Y-149459020D01*
X128323893Y-149399382D01*
X128320325Y-148760041D01*
X127915298Y-149311449D01*
X127800554Y-149467876D01*
X127701143Y-149604088D01*
X127615990Y-149721890D01*
X127544022Y-149823084D01*
X127484166Y-149909477D01*
X127435348Y-149982874D01*
X127396495Y-150045077D01*
X127366534Y-150097893D01*
X127344391Y-150143125D01*
X127328993Y-150182578D01*
X127319266Y-150218058D01*
X127314137Y-150251368D01*
X127312532Y-150284313D01*
X127313379Y-150318697D01*
X127313595Y-150323019D01*
X127318054Y-150409031D01*
X125898692Y-150408973D01*
X126004265Y-150302522D01*
X126032913Y-150273406D01*
X126060090Y-150245076D01*
X126086989Y-150215968D01*
X126114803Y-150184520D01*
X126144725Y-150149169D01*
X126177946Y-150108354D01*
X126215661Y-150060511D01*
X126259060Y-150004079D01*
X126309338Y-149937494D01*
X126367688Y-149859195D01*
X126435300Y-149767619D01*
X126513369Y-149661204D01*
X126603088Y-149538387D01*
X126705648Y-149397605D01*
X126822242Y-149237297D01*
X126917809Y-149105798D01*
X127037749Y-148940596D01*
X127142380Y-148796152D01*
X127232648Y-148671094D01*
X127309503Y-148564052D01*
X127373891Y-148473654D01*
X127426761Y-148398529D01*
X127469060Y-148337304D01*
X127501736Y-148288610D01*
X127525738Y-148251074D01*
X127542013Y-148223325D01*
X127551508Y-148203992D01*
X127555173Y-148191703D01*
X127554071Y-148185242D01*
X127540724Y-148168048D01*
X127511866Y-148131655D01*
X127469240Y-148078224D01*
X127414585Y-148009919D01*
X127349644Y-147928903D01*
X127276158Y-147837340D01*
X127195868Y-147737392D01*
X127110515Y-147631224D01*
X127021840Y-147520997D01*
X126931586Y-147408876D01*
X126881944Y-147347244D01*
X125649373Y-147347244D01*
X125598146Y-147439919D01*
X125546919Y-147532595D01*
X125546919Y-150223622D01*
X125598146Y-150316298D01*
X125649373Y-150408973D01*
X125043396Y-150408973D01*
X124898734Y-150408931D01*
X124779244Y-150408741D01*
X124682642Y-150408308D01*
X124606642Y-150407536D01*
X124548957Y-150406330D01*
X124507301Y-150404594D01*
X124479389Y-150402232D01*
X124462935Y-150399150D01*
X124455652Y-150395251D01*
X124455255Y-150390440D01*
X124459458Y-150384622D01*
X124459501Y-150384574D01*
X124476813Y-150359532D01*
X124499736Y-150318815D01*
X124519981Y-150278168D01*
X124558379Y-150196162D01*
X124566211Y-147347244D01*
X125649373Y-147347244D01*
X126881944Y-147347244D01*
X126841493Y-147297024D01*
X126753302Y-147187604D01*
X126668754Y-147082778D01*
X126589592Y-146984711D01*
X126517556Y-146895566D01*
X126454387Y-146817505D01*
X126401827Y-146752692D01*
X126361617Y-146703290D01*
X126338000Y-146674487D01*
X126246290Y-146566778D01*
X126158060Y-146469580D01*
X126076403Y-146386076D01*
X126004410Y-146319448D01*
X125953319Y-146278599D01*
X125892907Y-146235135D01*
X127282298Y-146235135D01*
X127281908Y-146316666D01*
X127285791Y-146376606D01*
X127300390Y-146432177D01*
X127322988Y-146484855D01*
X127337678Y-146514615D01*
X127353472Y-146544103D01*
X127371814Y-146575276D01*
X127394145Y-146610093D01*
X127421909Y-146650510D01*
X127456549Y-146698486D01*
X127499507Y-146755978D01*
X127552227Y-146824943D01*
X127616151Y-146907339D01*
X127692721Y-147005124D01*
X127783381Y-147120255D01*
X127889574Y-147254690D01*
X127901568Y-147269859D01*
X128320325Y-147799412D01*
X128324378Y-147212922D01*
X128325195Y-147037251D01*
X128325021Y-146888532D01*
X128323849Y-146766275D01*
X128321669Y-146669989D01*
X128318474Y-146599183D01*
X128314256Y-146553369D01*
X128312838Y-146544679D01*
X128290591Y-146453135D01*
X128261443Y-146370608D01*
X128228182Y-146304253D01*
X128208200Y-146276110D01*
X128173722Y-146235135D01*
X128827914Y-146235135D01*
X128983969Y-146235269D01*
X129114467Y-146235703D01*
X129221310Y-146236489D01*
X129306398Y-146237676D01*
X129371635Y-146239317D01*
X129418921Y-146241461D01*
X129450157Y-146244159D01*
X129467246Y-146247462D01*
X129472088Y-146251421D01*
X129471753Y-146252298D01*
X129457885Y-146273231D01*
X129434732Y-146306412D01*
X129422754Y-146323193D01*
X129410369Y-146339940D01*
X129399237Y-146354915D01*
X129389288Y-146369594D01*
X129380451Y-146385449D01*
X129372657Y-146403955D01*
X129365835Y-146426585D01*
X129359916Y-146454813D01*
X129354829Y-146490113D01*
X129350504Y-146533958D01*
X129346871Y-146587822D01*
X129343860Y-146653180D01*
X129341401Y-146731504D01*
X129339423Y-146824268D01*
X129337858Y-146932947D01*
X129336634Y-147059013D01*
X129335681Y-147203942D01*
X129334930Y-147369206D01*
X129334311Y-147556279D01*
X129333752Y-147766635D01*
X129333185Y-148001748D01*
X129332655Y-148217741D01*
X129332155Y-148458535D01*
X129331895Y-148688274D01*
X129331868Y-148905493D01*
X129332067Y-149108722D01*
X129332486Y-149296496D01*
X129333118Y-149467345D01*
X129333956Y-149619803D01*
X129334992Y-149752403D01*
X129336220Y-149863676D01*
X129337633Y-149952156D01*
X129339225Y-150016375D01*
X129340987Y-150054865D01*
X129341321Y-150058933D01*
X129353466Y-150152248D01*
X129372427Y-150227190D01*
X129401302Y-150292594D01*
X129443190Y-150357293D01*
X129448429Y-150364352D01*
X129481884Y-150408973D01*
X129848315Y-150408973D01*
X129849054Y-150327479D01*
X129849893Y-150188090D01*
X129850498Y-150030539D01*
X129850905Y-149853691D01*
X129851150Y-149656410D01*
X129851267Y-149437560D01*
X129851295Y-149196007D01*
X129851267Y-148930615D01*
X129851220Y-148640249D01*
X129851190Y-148323773D01*
X129851189Y-148260946D01*
X129851172Y-147941137D01*
X129851112Y-147647661D01*
X129851002Y-147379390D01*
X129850833Y-147135198D01*
X129850597Y-146913957D01*
X129850284Y-146714540D01*
X129849885Y-146535820D01*
X129849393Y-146376671D01*
X129848797Y-146235966D01*
X129848090Y-146112576D01*
X129847263Y-146005376D01*
X129846307Y-145913238D01*
X129845213Y-145835035D01*
X129843973Y-145769641D01*
X129842578Y-145715928D01*
X129841018Y-145672769D01*
X129839286Y-145639037D01*
X129837372Y-145613605D01*
X129835268Y-145595347D01*
X129832966Y-145583134D01*
X129830455Y-145575841D01*
X129830363Y-145575659D01*
X129825192Y-145564518D01*
X129820885Y-145554431D01*
X129816121Y-145545346D01*
X129809578Y-145537212D01*
X129799935Y-145529976D01*
X129785871Y-145523586D01*
X129766063Y-145517989D01*
X129739191Y-145513133D01*
X129703933Y-145508966D01*
X129658968Y-145505436D01*
X129602974Y-145502491D01*
X129534629Y-145500077D01*
X129452614Y-145498144D01*
X129355605Y-145496638D01*
X129242282Y-145495508D01*
X129111323Y-145494702D01*
X128961407Y-145494166D01*
X128791213Y-145493849D01*
X128599418Y-145493699D01*
X128384702Y-145493663D01*
X128145743Y-145493689D01*
X128145743Y-145493689D01*
G37*
X128145743Y-145493689D02*
X127881220Y-145493725D01*
X127758088Y-145493730D01*
X125787189Y-145493730D01*
X125787189Y-145609910D01*
X125774789Y-145751291D01*
X125737364Y-145881684D01*
X125674577Y-146001862D01*
X125586094Y-146112602D01*
X125556157Y-146142511D01*
X125448466Y-146227348D01*
X125329725Y-146289221D01*
X125203460Y-146328159D01*
X125073197Y-146344190D01*
X124942465Y-146337342D01*
X124814788Y-146307643D01*
X124693695Y-146255120D01*
X124582712Y-146179803D01*
X124532868Y-146134363D01*
X124439983Y-146022952D01*
X124371873Y-145900435D01*
X124329129Y-145768215D01*
X124312347Y-145627692D01*
X124312124Y-145613867D01*
X124311244Y-145493734D01*
X124258443Y-145493732D01*
X124211604Y-145500089D01*
X124168817Y-145515556D01*
X124165989Y-145517154D01*
X124156325Y-145522168D01*
X124147451Y-145526073D01*
X124139335Y-145530007D01*
X124131943Y-145535106D01*
X124125245Y-145542508D01*
X124119208Y-145553351D01*
X124113801Y-145568772D01*
X124108990Y-145589909D01*
X124104745Y-145617899D01*
X124101032Y-145653879D01*
X124097821Y-145698987D01*
X124095078Y-145754360D01*
X124092772Y-145821137D01*
X124090871Y-145900453D01*
X124089342Y-145993447D01*
X124088154Y-146101257D01*
X124087274Y-146225019D01*
X124086670Y-146365871D01*
X124086311Y-146524950D01*
X124086165Y-146703395D01*
X124086198Y-146902342D01*
X124086380Y-147122929D01*
X124086677Y-147366293D01*
X124087059Y-147633572D01*
X124087492Y-147925903D01*
X124087945Y-148244424D01*
X124087998Y-148283230D01*
X124088404Y-148603782D01*
X124088749Y-148898012D01*
X124089069Y-149167056D01*
X124089400Y-149412052D01*
X124089779Y-149634137D01*
X124090243Y-149834447D01*
X124090828Y-150014119D01*
X124091570Y-150174290D01*
X124092506Y-150316098D01*
X124093673Y-150440679D01*
X124095107Y-150549170D01*
X124096844Y-150642707D01*
X124098922Y-150722429D01*
X124101376Y-150789472D01*
X124104244Y-150844973D01*
X124107561Y-150890068D01*
X124111364Y-150925895D01*
X124115690Y-150953591D01*
X124120575Y-150974293D01*
X124126055Y-150989137D01*
X124132168Y-150999260D01*
X124138950Y-151005800D01*
X124146437Y-151009893D01*
X124154666Y-151012676D01*
X124163673Y-151015287D01*
X124173495Y-151018862D01*
X124175894Y-151019950D01*
X124183435Y-151022396D01*
X124196056Y-151024642D01*
X124214859Y-151026698D01*
X124240947Y-151028572D01*
X124275422Y-151030271D01*
X124319385Y-151031803D01*
X124373939Y-151033177D01*
X124440185Y-151034400D01*
X124519226Y-151035481D01*
X124612163Y-151036427D01*
X124720099Y-151037247D01*
X124844136Y-151037947D01*
X124985376Y-151038538D01*
X125144921Y-151039025D01*
X125323872Y-151039419D01*
X125523332Y-151039725D01*
X125744404Y-151039953D01*
X125988188Y-151040110D01*
X126255787Y-151040205D01*
X126548303Y-151040245D01*
X126866839Y-151040238D01*
X126970021Y-151040228D01*
X127295623Y-151040176D01*
X127594881Y-151040091D01*
X127868909Y-151039963D01*
X128118824Y-151039785D01*
X128345740Y-151039548D01*
X128550773Y-151039242D01*
X128735038Y-151038860D01*
X128899650Y-151038392D01*
X129045725Y-151037830D01*
X129174376Y-151037165D01*
X129286721Y-151036388D01*
X129383874Y-151035491D01*
X129466950Y-151034465D01*
X129537064Y-151033301D01*
X129595332Y-151031991D01*
X129642869Y-151030525D01*
X129680790Y-151028896D01*
X129710210Y-151027093D01*
X129732245Y-151025110D01*
X129748010Y-151022936D01*
X129758620Y-151020563D01*
X129764404Y-151018391D01*
X129774684Y-151014056D01*
X129784122Y-151010859D01*
X129792755Y-151007665D01*
X129800619Y-151003338D01*
X129807748Y-150996744D01*
X129814179Y-150986747D01*
X129819947Y-150972212D01*
X129825089Y-150952003D01*
X129829640Y-150924985D01*
X129833635Y-150890023D01*
X129837111Y-150845981D01*
X129840102Y-150791724D01*
X129842646Y-150726117D01*
X129844777Y-150648024D01*
X129846532Y-150556310D01*
X129847945Y-150449840D01*
X129848315Y-150408973D01*
X129481884Y-150408973D01*
X128186734Y-150408973D01*
X128211655Y-150371217D01*
X128236447Y-150332417D01*
X128257440Y-150295469D01*
X128274935Y-150257788D01*
X128289230Y-150216788D01*
X128300623Y-150169883D01*
X128309413Y-150114487D01*
X128315898Y-150048016D01*
X128320377Y-149967883D01*
X128323150Y-149871502D01*
X128324513Y-149756289D01*
X128324767Y-149619657D01*
X128324209Y-149459020D01*
X128323893Y-149399382D01*
X128320325Y-148760041D01*
X127915298Y-149311449D01*
X127800554Y-149467876D01*
X127701143Y-149604088D01*
X127615990Y-149721890D01*
X127544022Y-149823084D01*
X127484166Y-149909477D01*
X127435348Y-149982874D01*
X127396495Y-150045077D01*
X127366534Y-150097893D01*
X127344391Y-150143125D01*
X127328993Y-150182578D01*
X127319266Y-150218058D01*
X127314137Y-150251368D01*
X127312532Y-150284313D01*
X127313379Y-150318697D01*
X127313595Y-150323019D01*
X127318054Y-150409031D01*
X125898692Y-150408973D01*
X126004265Y-150302522D01*
X126032913Y-150273406D01*
X126060090Y-150245076D01*
X126086989Y-150215968D01*
X126114803Y-150184520D01*
X126144725Y-150149169D01*
X126177946Y-150108354D01*
X126215661Y-150060511D01*
X126259060Y-150004079D01*
X126309338Y-149937494D01*
X126367688Y-149859195D01*
X126435300Y-149767619D01*
X126513369Y-149661204D01*
X126603088Y-149538387D01*
X126705648Y-149397605D01*
X126822242Y-149237297D01*
X126917809Y-149105798D01*
X127037749Y-148940596D01*
X127142380Y-148796152D01*
X127232648Y-148671094D01*
X127309503Y-148564052D01*
X127373891Y-148473654D01*
X127426761Y-148398529D01*
X127469060Y-148337304D01*
X127501736Y-148288610D01*
X127525738Y-148251074D01*
X127542013Y-148223325D01*
X127551508Y-148203992D01*
X127555173Y-148191703D01*
X127554071Y-148185242D01*
X127540724Y-148168048D01*
X127511866Y-148131655D01*
X127469240Y-148078224D01*
X127414585Y-148009919D01*
X127349644Y-147928903D01*
X127276158Y-147837340D01*
X127195868Y-147737392D01*
X127110515Y-147631224D01*
X127021840Y-147520997D01*
X126931586Y-147408876D01*
X126881944Y-147347244D01*
X125649373Y-147347244D01*
X125598146Y-147439919D01*
X125546919Y-147532595D01*
X125546919Y-150223622D01*
X125598146Y-150316298D01*
X125649373Y-150408973D01*
X125043396Y-150408973D01*
X124898734Y-150408931D01*
X124779244Y-150408741D01*
X124682642Y-150408308D01*
X124606642Y-150407536D01*
X124548957Y-150406330D01*
X124507301Y-150404594D01*
X124479389Y-150402232D01*
X124462935Y-150399150D01*
X124455652Y-150395251D01*
X124455255Y-150390440D01*
X124459458Y-150384622D01*
X124459501Y-150384574D01*
X124476813Y-150359532D01*
X124499736Y-150318815D01*
X124519981Y-150278168D01*
X124558379Y-150196162D01*
X124566211Y-147347244D01*
X125649373Y-147347244D01*
X126881944Y-147347244D01*
X126841493Y-147297024D01*
X126753302Y-147187604D01*
X126668754Y-147082778D01*
X126589592Y-146984711D01*
X126517556Y-146895566D01*
X126454387Y-146817505D01*
X126401827Y-146752692D01*
X126361617Y-146703290D01*
X126338000Y-146674487D01*
X126246290Y-146566778D01*
X126158060Y-146469580D01*
X126076403Y-146386076D01*
X126004410Y-146319448D01*
X125953319Y-146278599D01*
X125892907Y-146235135D01*
X127282298Y-146235135D01*
X127281908Y-146316666D01*
X127285791Y-146376606D01*
X127300390Y-146432177D01*
X127322988Y-146484855D01*
X127337678Y-146514615D01*
X127353472Y-146544103D01*
X127371814Y-146575276D01*
X127394145Y-146610093D01*
X127421909Y-146650510D01*
X127456549Y-146698486D01*
X127499507Y-146755978D01*
X127552227Y-146824943D01*
X127616151Y-146907339D01*
X127692721Y-147005124D01*
X127783381Y-147120255D01*
X127889574Y-147254690D01*
X127901568Y-147269859D01*
X128320325Y-147799412D01*
X128324378Y-147212922D01*
X128325195Y-147037251D01*
X128325021Y-146888532D01*
X128323849Y-146766275D01*
X128321669Y-146669989D01*
X128318474Y-146599183D01*
X128314256Y-146553369D01*
X128312838Y-146544679D01*
X128290591Y-146453135D01*
X128261443Y-146370608D01*
X128228182Y-146304253D01*
X128208200Y-146276110D01*
X128173722Y-146235135D01*
X128827914Y-146235135D01*
X128983969Y-146235269D01*
X129114467Y-146235703D01*
X129221310Y-146236489D01*
X129306398Y-146237676D01*
X129371635Y-146239317D01*
X129418921Y-146241461D01*
X129450157Y-146244159D01*
X129467246Y-146247462D01*
X129472088Y-146251421D01*
X129471753Y-146252298D01*
X129457885Y-146273231D01*
X129434732Y-146306412D01*
X129422754Y-146323193D01*
X129410369Y-146339940D01*
X129399237Y-146354915D01*
X129389288Y-146369594D01*
X129380451Y-146385449D01*
X129372657Y-146403955D01*
X129365835Y-146426585D01*
X129359916Y-146454813D01*
X129354829Y-146490113D01*
X129350504Y-146533958D01*
X129346871Y-146587822D01*
X129343860Y-146653180D01*
X129341401Y-146731504D01*
X129339423Y-146824268D01*
X129337858Y-146932947D01*
X129336634Y-147059013D01*
X129335681Y-147203942D01*
X129334930Y-147369206D01*
X129334311Y-147556279D01*
X129333752Y-147766635D01*
X129333185Y-148001748D01*
X129332655Y-148217741D01*
X129332155Y-148458535D01*
X129331895Y-148688274D01*
X129331868Y-148905493D01*
X129332067Y-149108722D01*
X129332486Y-149296496D01*
X129333118Y-149467345D01*
X129333956Y-149619803D01*
X129334992Y-149752403D01*
X129336220Y-149863676D01*
X129337633Y-149952156D01*
X129339225Y-150016375D01*
X129340987Y-150054865D01*
X129341321Y-150058933D01*
X129353466Y-150152248D01*
X129372427Y-150227190D01*
X129401302Y-150292594D01*
X129443190Y-150357293D01*
X129448429Y-150364352D01*
X129481884Y-150408973D01*
X129848315Y-150408973D01*
X129849054Y-150327479D01*
X129849893Y-150188090D01*
X129850498Y-150030539D01*
X129850905Y-149853691D01*
X129851150Y-149656410D01*
X129851267Y-149437560D01*
X129851295Y-149196007D01*
X129851267Y-148930615D01*
X129851220Y-148640249D01*
X129851190Y-148323773D01*
X129851189Y-148260946D01*
X129851172Y-147941137D01*
X129851112Y-147647661D01*
X129851002Y-147379390D01*
X129850833Y-147135198D01*
X129850597Y-146913957D01*
X129850284Y-146714540D01*
X129849885Y-146535820D01*
X129849393Y-146376671D01*
X129848797Y-146235966D01*
X129848090Y-146112576D01*
X129847263Y-146005376D01*
X129846307Y-145913238D01*
X129845213Y-145835035D01*
X129843973Y-145769641D01*
X129842578Y-145715928D01*
X129841018Y-145672769D01*
X129839286Y-145639037D01*
X129837372Y-145613605D01*
X129835268Y-145595347D01*
X129832966Y-145583134D01*
X129830455Y-145575841D01*
X129830363Y-145575659D01*
X129825192Y-145564518D01*
X129820885Y-145554431D01*
X129816121Y-145545346D01*
X129809578Y-145537212D01*
X129799935Y-145529976D01*
X129785871Y-145523586D01*
X129766063Y-145517989D01*
X129739191Y-145513133D01*
X129703933Y-145508966D01*
X129658968Y-145505436D01*
X129602974Y-145502491D01*
X129534629Y-145500077D01*
X129452614Y-145498144D01*
X129355605Y-145496638D01*
X129242282Y-145495508D01*
X129111323Y-145494702D01*
X128961407Y-145494166D01*
X128791213Y-145493849D01*
X128599418Y-145493699D01*
X128384702Y-145493663D01*
X128145743Y-145493689D01*
G36*
X85444186Y-145668931D02*
X85360365Y-146113555D01*
X85051080Y-146241053D01*
X84741794Y-146368551D01*
X84370754Y-146116246D01*
X84266843Y-146045996D01*
X84172913Y-145983272D01*
X84093348Y-145930938D01*
X84032530Y-145891857D01*
X83994843Y-145868893D01*
X83984579Y-145863942D01*
X83966090Y-145876676D01*
X83926580Y-145911882D01*
X83870478Y-145965062D01*
X83802213Y-146031718D01*
X83726214Y-146107354D01*
X83646908Y-146187472D01*
X83568725Y-146267574D01*
X83496093Y-146343164D01*
X83433441Y-146409745D01*
X83385197Y-146462818D01*
X83355790Y-146497887D01*
X83348759Y-146509623D01*
X83358877Y-146531260D01*
X83387241Y-146578662D01*
X83430871Y-146647193D01*
X83486782Y-146732215D01*
X83551994Y-146829093D01*
X83589781Y-146884350D01*
X83658657Y-146985248D01*
X83719860Y-147076299D01*
X83770422Y-147152970D01*
X83807372Y-147210728D01*
X83827742Y-147245043D01*
X83830803Y-147252254D01*
X83823864Y-147272748D01*
X83804949Y-147320513D01*
X83776913Y-147388832D01*
X83742609Y-147470989D01*
X83704891Y-147560270D01*
X83666613Y-147649958D01*
X83630630Y-147733338D01*
X83599794Y-147803694D01*
X83576961Y-147854310D01*
X83564983Y-147878471D01*
X83564276Y-147879422D01*
X83545469Y-147884036D01*
X83495382Y-147894328D01*
X83419207Y-147909287D01*
X83322135Y-147927901D01*
X83209357Y-147949159D01*
X83143558Y-147961418D01*
X83023050Y-147984362D01*
X82914203Y-148006195D01*
X82822524Y-148025722D01*
X82753519Y-148041748D01*
X82712696Y-148053079D01*
X82704489Y-148056674D01*
X82696452Y-148081006D01*
X82689967Y-148135959D01*
X82685030Y-148215108D01*
X82681636Y-148312026D01*
X82679782Y-148420287D01*
X82679462Y-148533465D01*
X82680673Y-148645135D01*
X82683410Y-148748868D01*
X82687669Y-148838241D01*
X82693445Y-148906826D01*
X82700733Y-148948197D01*
X82705105Y-148956810D01*
X82731236Y-148967133D01*
X82786607Y-148981892D01*
X82863893Y-148999352D01*
X82955770Y-149017780D01*
X82987842Y-149023741D01*
X83142476Y-149052066D01*
X83264625Y-149074876D01*
X83358327Y-149093080D01*
X83427616Y-149107583D01*
X83476529Y-149119292D01*
X83509103Y-149129115D01*
X83529372Y-149137956D01*
X83541374Y-149146724D01*
X83543053Y-149148457D01*
X83559816Y-149176371D01*
X83585386Y-149230695D01*
X83617212Y-149304777D01*
X83652740Y-149391965D01*
X83689417Y-149485608D01*
X83724689Y-149579052D01*
X83756004Y-149665647D01*
X83780807Y-149738740D01*
X83796546Y-149791678D01*
X83800668Y-149817811D01*
X83800324Y-149818726D01*
X83786359Y-149840086D01*
X83754678Y-149887084D01*
X83708609Y-149954827D01*
X83651482Y-150038423D01*
X83586627Y-150132982D01*
X83568157Y-150159854D01*
X83502301Y-150257275D01*
X83444350Y-150346163D01*
X83397462Y-150421412D01*
X83364793Y-150477920D01*
X83349500Y-150510581D01*
X83348759Y-150514593D01*
X83361608Y-150535684D01*
X83397112Y-150577464D01*
X83450707Y-150635445D01*
X83517829Y-150705135D01*
X83593913Y-150782045D01*
X83674396Y-150861683D01*
X83754713Y-150939561D01*
X83830301Y-151011186D01*
X83896595Y-151072070D01*
X83949031Y-151117721D01*
X83983045Y-151143650D01*
X83992455Y-151147883D01*
X84014357Y-151137912D01*
X84059200Y-151111020D01*
X84119679Y-151071736D01*
X84166211Y-151040117D01*
X84250525Y-150982098D01*
X84350374Y-150913784D01*
X84450527Y-150845579D01*
X84504373Y-150809075D01*
X84686629Y-150685800D01*
X84839619Y-150768520D01*
X84909318Y-150804759D01*
X84968586Y-150832926D01*
X85008689Y-150848991D01*
X85018897Y-150851226D01*
X85031171Y-150834722D01*
X85055387Y-150788082D01*
X85089737Y-150715609D01*
X85132412Y-150621606D01*
X85181606Y-150510374D01*
X85235510Y-150386215D01*
X85292316Y-150253432D01*
X85350218Y-150116327D01*
X85407407Y-149979202D01*
X85462076Y-149846358D01*
X85512416Y-149722098D01*
X85556620Y-149610725D01*
X85592881Y-149516539D01*
X85619391Y-149443844D01*
X85634342Y-149396941D01*
X85636746Y-149380833D01*
X85617689Y-149360286D01*
X85575964Y-149326933D01*
X85520294Y-149287702D01*
X85515622Y-149284599D01*
X85371736Y-149169423D01*
X85255717Y-149035053D01*
X85168570Y-148885784D01*
X85111301Y-148725913D01*
X85084914Y-148559737D01*
X85090415Y-148391552D01*
X85128810Y-148225655D01*
X85201105Y-148066342D01*
X85222374Y-148031487D01*
X85333004Y-147890737D01*
X85463698Y-147777714D01*
X85609936Y-147693003D01*
X85767192Y-147637194D01*
X85930943Y-147610874D01*
X86096667Y-147614630D01*
X86259838Y-147649050D01*
X86415935Y-147714723D01*
X86560433Y-147812235D01*
X86605131Y-147851813D01*
X86718888Y-147975703D01*
X86801782Y-148106124D01*
X86858644Y-148252315D01*
X86890313Y-148397088D01*
X86898131Y-148559860D01*
X86872062Y-148723440D01*
X86814755Y-148882298D01*
X86728856Y-149030906D01*
X86617014Y-149163735D01*
X86481877Y-149275256D01*
X86464117Y-149287011D01*
X86407850Y-149325508D01*
X86365077Y-149358863D01*
X86344628Y-149380160D01*
X86344331Y-149380833D01*
X86348721Y-149403871D01*
X86366124Y-149456157D01*
X86394732Y-149533390D01*
X86432735Y-149631268D01*
X86478326Y-149745491D01*
X86529697Y-149871758D01*
X86585038Y-150005767D01*
X86642542Y-150143218D01*
X86700399Y-150279808D01*
X86756802Y-150411237D01*
X86809942Y-150533205D01*
X86858010Y-150641409D01*
X86899199Y-150731549D01*
X86931699Y-150799323D01*
X86953703Y-150840430D01*
X86962564Y-150851226D01*
X86989640Y-150842819D01*
X87040303Y-150820272D01*
X87105817Y-150787613D01*
X87141841Y-150768520D01*
X87294832Y-150685800D01*
X87477088Y-150809075D01*
X87570125Y-150872228D01*
X87671985Y-150941727D01*
X87767438Y-151007165D01*
X87815250Y-151040117D01*
X87882495Y-151085273D01*
X87939436Y-151121057D01*
X87978646Y-151142938D01*
X87991381Y-151147563D01*
X88009917Y-151135085D01*
X88050941Y-151100252D01*
X88110475Y-151046678D01*
X88184542Y-150977983D01*
X88269165Y-150897781D01*
X88322685Y-150846286D01*
X88416319Y-150754286D01*
X88497241Y-150671999D01*
X88562177Y-150602945D01*
X88607858Y-150550644D01*
X88631011Y-150518616D01*
X88633232Y-150512116D01*
X88622924Y-150487394D01*
X88594439Y-150437405D01*
X88550937Y-150367212D01*
X88495577Y-150281875D01*
X88431520Y-150186456D01*
X88413303Y-150159854D01*
X88346927Y-150063167D01*
X88287378Y-149976117D01*
X88237984Y-149903595D01*
X88202075Y-149850493D01*
X88182981Y-149821703D01*
X88181136Y-149818726D01*
X88183895Y-149795782D01*
X88198538Y-149745336D01*
X88222513Y-149674041D01*
X88253266Y-149588547D01*
X88288244Y-149495507D01*
X88324893Y-149401574D01*
X88360661Y-149313399D01*
X88392994Y-149237634D01*
X88419338Y-149180931D01*
X88437142Y-149149943D01*
X88438407Y-149148457D01*
X88449294Y-149139601D01*
X88467682Y-149130843D01*
X88497606Y-149121277D01*
X88543103Y-149109996D01*
X88608209Y-149096093D01*
X88696961Y-149078663D01*
X88813393Y-149056798D01*
X88961542Y-149029591D01*
X88993618Y-149023741D01*
X89088686Y-149005374D01*
X89171565Y-148987405D01*
X89234930Y-148971569D01*
X89271458Y-148959600D01*
X89276356Y-148956810D01*
X89284427Y-148932072D01*
X89290987Y-148876790D01*
X89296033Y-148797389D01*
X89299559Y-148700296D01*
X89301561Y-148591938D01*
X89302036Y-148478740D01*
X89300977Y-148367128D01*
X89298382Y-148263529D01*
X89294246Y-148174368D01*
X89288563Y-148106072D01*
X89281331Y-148065066D01*
X89276971Y-148056674D01*
X89252698Y-148048208D01*
X89197426Y-148034435D01*
X89116662Y-148016550D01*
X89015912Y-147995748D01*
X88900683Y-147973223D01*
X88837902Y-147961418D01*
X88718787Y-147939151D01*
X88612565Y-147918979D01*
X88524427Y-147901915D01*
X88459566Y-147888969D01*
X88423174Y-147881155D01*
X88417184Y-147879422D01*
X88407061Y-147859890D01*
X88385662Y-147812843D01*
X88355839Y-147745003D01*
X88320445Y-147663091D01*
X88282332Y-147573828D01*
X88244353Y-147483935D01*
X88209360Y-147400135D01*
X88180206Y-147329147D01*
X88159743Y-147277694D01*
X88150823Y-147252497D01*
X88150657Y-147251396D01*
X88160769Y-147231519D01*
X88189117Y-147185777D01*
X88232723Y-147118717D01*
X88288606Y-147034884D01*
X88353787Y-146938826D01*
X88391679Y-146883650D01*
X88460725Y-146782481D01*
X88522050Y-146690630D01*
X88572663Y-146612744D01*
X88609571Y-146553469D01*
X88629782Y-146517451D01*
X88632701Y-146509377D01*
X88620153Y-146490584D01*
X88585463Y-146450457D01*
X88533063Y-146393493D01*
X88467384Y-146324185D01*
X88392856Y-146247031D01*
X88313913Y-146166525D01*
X88234983Y-146087163D01*
X88160500Y-146013440D01*
X88094894Y-145949852D01*
X88042596Y-145900894D01*
X88008039Y-145871061D01*
X87996478Y-145863942D01*
X87977654Y-145873953D01*
X87932631Y-145902078D01*
X87865787Y-145945454D01*
X87781499Y-146001218D01*
X87684144Y-146066506D01*
X87610707Y-146116246D01*
X87239667Y-146368551D01*
X86621095Y-146113555D01*
X86537275Y-145668931D01*
X86453454Y-145224307D01*
X85528006Y-145224307D01*
X85444186Y-145668931D01*
X85444186Y-145668931D01*
G37*
X85444186Y-145668931D02*
X85360365Y-146113555D01*
X85051080Y-146241053D01*
X84741794Y-146368551D01*
X84370754Y-146116246D01*
X84266843Y-146045996D01*
X84172913Y-145983272D01*
X84093348Y-145930938D01*
X84032530Y-145891857D01*
X83994843Y-145868893D01*
X83984579Y-145863942D01*
X83966090Y-145876676D01*
X83926580Y-145911882D01*
X83870478Y-145965062D01*
X83802213Y-146031718D01*
X83726214Y-146107354D01*
X83646908Y-146187472D01*
X83568725Y-146267574D01*
X83496093Y-146343164D01*
X83433441Y-146409745D01*
X83385197Y-146462818D01*
X83355790Y-146497887D01*
X83348759Y-146509623D01*
X83358877Y-146531260D01*
X83387241Y-146578662D01*
X83430871Y-146647193D01*
X83486782Y-146732215D01*
X83551994Y-146829093D01*
X83589781Y-146884350D01*
X83658657Y-146985248D01*
X83719860Y-147076299D01*
X83770422Y-147152970D01*
X83807372Y-147210728D01*
X83827742Y-147245043D01*
X83830803Y-147252254D01*
X83823864Y-147272748D01*
X83804949Y-147320513D01*
X83776913Y-147388832D01*
X83742609Y-147470989D01*
X83704891Y-147560270D01*
X83666613Y-147649958D01*
X83630630Y-147733338D01*
X83599794Y-147803694D01*
X83576961Y-147854310D01*
X83564983Y-147878471D01*
X83564276Y-147879422D01*
X83545469Y-147884036D01*
X83495382Y-147894328D01*
X83419207Y-147909287D01*
X83322135Y-147927901D01*
X83209357Y-147949159D01*
X83143558Y-147961418D01*
X83023050Y-147984362D01*
X82914203Y-148006195D01*
X82822524Y-148025722D01*
X82753519Y-148041748D01*
X82712696Y-148053079D01*
X82704489Y-148056674D01*
X82696452Y-148081006D01*
X82689967Y-148135959D01*
X82685030Y-148215108D01*
X82681636Y-148312026D01*
X82679782Y-148420287D01*
X82679462Y-148533465D01*
X82680673Y-148645135D01*
X82683410Y-148748868D01*
X82687669Y-148838241D01*
X82693445Y-148906826D01*
X82700733Y-148948197D01*
X82705105Y-148956810D01*
X82731236Y-148967133D01*
X82786607Y-148981892D01*
X82863893Y-148999352D01*
X82955770Y-149017780D01*
X82987842Y-149023741D01*
X83142476Y-149052066D01*
X83264625Y-149074876D01*
X83358327Y-149093080D01*
X83427616Y-149107583D01*
X83476529Y-149119292D01*
X83509103Y-149129115D01*
X83529372Y-149137956D01*
X83541374Y-149146724D01*
X83543053Y-149148457D01*
X83559816Y-149176371D01*
X83585386Y-149230695D01*
X83617212Y-149304777D01*
X83652740Y-149391965D01*
X83689417Y-149485608D01*
X83724689Y-149579052D01*
X83756004Y-149665647D01*
X83780807Y-149738740D01*
X83796546Y-149791678D01*
X83800668Y-149817811D01*
X83800324Y-149818726D01*
X83786359Y-149840086D01*
X83754678Y-149887084D01*
X83708609Y-149954827D01*
X83651482Y-150038423D01*
X83586627Y-150132982D01*
X83568157Y-150159854D01*
X83502301Y-150257275D01*
X83444350Y-150346163D01*
X83397462Y-150421412D01*
X83364793Y-150477920D01*
X83349500Y-150510581D01*
X83348759Y-150514593D01*
X83361608Y-150535684D01*
X83397112Y-150577464D01*
X83450707Y-150635445D01*
X83517829Y-150705135D01*
X83593913Y-150782045D01*
X83674396Y-150861683D01*
X83754713Y-150939561D01*
X83830301Y-151011186D01*
X83896595Y-151072070D01*
X83949031Y-151117721D01*
X83983045Y-151143650D01*
X83992455Y-151147883D01*
X84014357Y-151137912D01*
X84059200Y-151111020D01*
X84119679Y-151071736D01*
X84166211Y-151040117D01*
X84250525Y-150982098D01*
X84350374Y-150913784D01*
X84450527Y-150845579D01*
X84504373Y-150809075D01*
X84686629Y-150685800D01*
X84839619Y-150768520D01*
X84909318Y-150804759D01*
X84968586Y-150832926D01*
X85008689Y-150848991D01*
X85018897Y-150851226D01*
X85031171Y-150834722D01*
X85055387Y-150788082D01*
X85089737Y-150715609D01*
X85132412Y-150621606D01*
X85181606Y-150510374D01*
X85235510Y-150386215D01*
X85292316Y-150253432D01*
X85350218Y-150116327D01*
X85407407Y-149979202D01*
X85462076Y-149846358D01*
X85512416Y-149722098D01*
X85556620Y-149610725D01*
X85592881Y-149516539D01*
X85619391Y-149443844D01*
X85634342Y-149396941D01*
X85636746Y-149380833D01*
X85617689Y-149360286D01*
X85575964Y-149326933D01*
X85520294Y-149287702D01*
X85515622Y-149284599D01*
X85371736Y-149169423D01*
X85255717Y-149035053D01*
X85168570Y-148885784D01*
X85111301Y-148725913D01*
X85084914Y-148559737D01*
X85090415Y-148391552D01*
X85128810Y-148225655D01*
X85201105Y-148066342D01*
X85222374Y-148031487D01*
X85333004Y-147890737D01*
X85463698Y-147777714D01*
X85609936Y-147693003D01*
X85767192Y-147637194D01*
X85930943Y-147610874D01*
X86096667Y-147614630D01*
X86259838Y-147649050D01*
X86415935Y-147714723D01*
X86560433Y-147812235D01*
X86605131Y-147851813D01*
X86718888Y-147975703D01*
X86801782Y-148106124D01*
X86858644Y-148252315D01*
X86890313Y-148397088D01*
X86898131Y-148559860D01*
X86872062Y-148723440D01*
X86814755Y-148882298D01*
X86728856Y-149030906D01*
X86617014Y-149163735D01*
X86481877Y-149275256D01*
X86464117Y-149287011D01*
X86407850Y-149325508D01*
X86365077Y-149358863D01*
X86344628Y-149380160D01*
X86344331Y-149380833D01*
X86348721Y-149403871D01*
X86366124Y-149456157D01*
X86394732Y-149533390D01*
X86432735Y-149631268D01*
X86478326Y-149745491D01*
X86529697Y-149871758D01*
X86585038Y-150005767D01*
X86642542Y-150143218D01*
X86700399Y-150279808D01*
X86756802Y-150411237D01*
X86809942Y-150533205D01*
X86858010Y-150641409D01*
X86899199Y-150731549D01*
X86931699Y-150799323D01*
X86953703Y-150840430D01*
X86962564Y-150851226D01*
X86989640Y-150842819D01*
X87040303Y-150820272D01*
X87105817Y-150787613D01*
X87141841Y-150768520D01*
X87294832Y-150685800D01*
X87477088Y-150809075D01*
X87570125Y-150872228D01*
X87671985Y-150941727D01*
X87767438Y-151007165D01*
X87815250Y-151040117D01*
X87882495Y-151085273D01*
X87939436Y-151121057D01*
X87978646Y-151142938D01*
X87991381Y-151147563D01*
X88009917Y-151135085D01*
X88050941Y-151100252D01*
X88110475Y-151046678D01*
X88184542Y-150977983D01*
X88269165Y-150897781D01*
X88322685Y-150846286D01*
X88416319Y-150754286D01*
X88497241Y-150671999D01*
X88562177Y-150602945D01*
X88607858Y-150550644D01*
X88631011Y-150518616D01*
X88633232Y-150512116D01*
X88622924Y-150487394D01*
X88594439Y-150437405D01*
X88550937Y-150367212D01*
X88495577Y-150281875D01*
X88431520Y-150186456D01*
X88413303Y-150159854D01*
X88346927Y-150063167D01*
X88287378Y-149976117D01*
X88237984Y-149903595D01*
X88202075Y-149850493D01*
X88182981Y-149821703D01*
X88181136Y-149818726D01*
X88183895Y-149795782D01*
X88198538Y-149745336D01*
X88222513Y-149674041D01*
X88253266Y-149588547D01*
X88288244Y-149495507D01*
X88324893Y-149401574D01*
X88360661Y-149313399D01*
X88392994Y-149237634D01*
X88419338Y-149180931D01*
X88437142Y-149149943D01*
X88438407Y-149148457D01*
X88449294Y-149139601D01*
X88467682Y-149130843D01*
X88497606Y-149121277D01*
X88543103Y-149109996D01*
X88608209Y-149096093D01*
X88696961Y-149078663D01*
X88813393Y-149056798D01*
X88961542Y-149029591D01*
X88993618Y-149023741D01*
X89088686Y-149005374D01*
X89171565Y-148987405D01*
X89234930Y-148971569D01*
X89271458Y-148959600D01*
X89276356Y-148956810D01*
X89284427Y-148932072D01*
X89290987Y-148876790D01*
X89296033Y-148797389D01*
X89299559Y-148700296D01*
X89301561Y-148591938D01*
X89302036Y-148478740D01*
X89300977Y-148367128D01*
X89298382Y-148263529D01*
X89294246Y-148174368D01*
X89288563Y-148106072D01*
X89281331Y-148065066D01*
X89276971Y-148056674D01*
X89252698Y-148048208D01*
X89197426Y-148034435D01*
X89116662Y-148016550D01*
X89015912Y-147995748D01*
X88900683Y-147973223D01*
X88837902Y-147961418D01*
X88718787Y-147939151D01*
X88612565Y-147918979D01*
X88524427Y-147901915D01*
X88459566Y-147888969D01*
X88423174Y-147881155D01*
X88417184Y-147879422D01*
X88407061Y-147859890D01*
X88385662Y-147812843D01*
X88355839Y-147745003D01*
X88320445Y-147663091D01*
X88282332Y-147573828D01*
X88244353Y-147483935D01*
X88209360Y-147400135D01*
X88180206Y-147329147D01*
X88159743Y-147277694D01*
X88150823Y-147252497D01*
X88150657Y-147251396D01*
X88160769Y-147231519D01*
X88189117Y-147185777D01*
X88232723Y-147118717D01*
X88288606Y-147034884D01*
X88353787Y-146938826D01*
X88391679Y-146883650D01*
X88460725Y-146782481D01*
X88522050Y-146690630D01*
X88572663Y-146612744D01*
X88609571Y-146553469D01*
X88629782Y-146517451D01*
X88632701Y-146509377D01*
X88620153Y-146490584D01*
X88585463Y-146450457D01*
X88533063Y-146393493D01*
X88467384Y-146324185D01*
X88392856Y-146247031D01*
X88313913Y-146166525D01*
X88234983Y-146087163D01*
X88160500Y-146013440D01*
X88094894Y-145949852D01*
X88042596Y-145900894D01*
X88008039Y-145871061D01*
X87996478Y-145863942D01*
X87977654Y-145873953D01*
X87932631Y-145902078D01*
X87865787Y-145945454D01*
X87781499Y-146001218D01*
X87684144Y-146066506D01*
X87610707Y-146116246D01*
X87239667Y-146368551D01*
X86621095Y-146113555D01*
X86537275Y-145668931D01*
X86453454Y-145224307D01*
X85528006Y-145224307D01*
X85444186Y-145668931D01*
D12*
G04 #@! TO.C,JP1*
X87120000Y-142470000D02*
X87720000Y-142470000D01*
X86420000Y-139020000D02*
X86420000Y-141820000D01*
X87720000Y-138370000D02*
X87120000Y-138370000D01*
X88420000Y-141820000D02*
X88420000Y-139020000D01*
X88420000Y-139070000D02*
G75*
G03X87720000Y-138370000I-700000J0D01*
G01*
X87120000Y-138370000D02*
G75*
G03X86420000Y-139070000I0J-700000D01*
G01*
X86420000Y-141770000D02*
G75*
G03X87120000Y-142470000I700000J0D01*
G01*
X87720000Y-142470000D02*
G75*
G03X88420000Y-141770000I0J700000D01*
G01*
D13*
X88672380Y-139586666D02*
X89386666Y-139586666D01*
X89529523Y-139539047D01*
X89624761Y-139443809D01*
X89672380Y-139300952D01*
X89672380Y-139205714D01*
X89672380Y-140062857D02*
X88672380Y-140062857D01*
X88672380Y-140443809D01*
X88720000Y-140539047D01*
X88767619Y-140586666D01*
X88862857Y-140634285D01*
X89005714Y-140634285D01*
X89100952Y-140586666D01*
X89148571Y-140539047D01*
X89196190Y-140443809D01*
X89196190Y-140062857D01*
X89672380Y-141586666D02*
X89672380Y-141015238D01*
X89672380Y-141300952D02*
X88672380Y-141300952D01*
X88815238Y-141205714D01*
X88910476Y-141110476D01*
X88958095Y-141015238D01*
X86872380Y-137486666D02*
X86872380Y-138105714D01*
X87253333Y-137772380D01*
X87253333Y-137915238D01*
X87300952Y-138010476D01*
X87348571Y-138058095D01*
X87443809Y-138105714D01*
X87681904Y-138105714D01*
X87777142Y-138058095D01*
X87824761Y-138010476D01*
X87872380Y-137915238D01*
X87872380Y-137629523D01*
X87824761Y-137534285D01*
X87777142Y-137486666D01*
X87872380Y-143305714D02*
X87872380Y-142734285D01*
X87872380Y-143020000D02*
X86872380Y-143020000D01*
X87015238Y-142924761D01*
X87110476Y-142829523D01*
X87158095Y-142734285D01*
G04 #@! TD*
M02*
