G04 #@! TF.GenerationSoftware,KiCad,Pcbnew,(5.0.2)-1*
G04 #@! TF.CreationDate,2019-03-05T12:52:00+01:00*
G04 #@! TF.ProjectId,GBDSO,47424453-4f2e-46b6-9963-61645f706362,rev?*
G04 #@! TF.SameCoordinates,Original*
G04 #@! TF.FileFunction,Copper,L2,Bot*
G04 #@! TF.FilePolarity,Positive*
%FSLAX46Y46*%
G04 Gerber Fmt 4.6, Leading zero omitted, Abs format (unit mm)*
G04 Created by KiCad (PCBNEW (5.0.2)-1) date 05/03/2019 12:52:00*
%MOMM*%
%LPD*%
G01*
G04 APERTURE LIST*
G04 #@! TA.AperFunction,WasherPad*
%ADD10C,1.700000*%
G04 #@! TD*
G04 #@! TA.AperFunction,SMDPad,CuDef*
%ADD11C,0.500000*%
G04 #@! TD*
G04 #@! TA.AperFunction,Conductor*
%ADD12C,0.100000*%
G04 #@! TD*
G04 #@! TA.AperFunction,SMDPad,CuDef*
%ADD13R,1.500000X1.000000*%
G04 #@! TD*
G04 #@! TA.AperFunction,ViaPad*
%ADD14C,0.600000*%
G04 #@! TD*
G04 #@! TA.AperFunction,Conductor*
%ADD15C,0.500000*%
G04 #@! TD*
G04 #@! TA.AperFunction,Conductor*
%ADD16C,0.250000*%
G04 #@! TD*
G04 #@! TA.AperFunction,Conductor*
%ADD17C,0.254000*%
G04 #@! TD*
G04 APERTURE END LIST*
D10*
G04 #@! TO.P,J1,*
G04 #@! TO.N,*
X113525000Y-101950000D03*
X113525000Y-94950000D03*
G04 #@! TD*
G04 #@! TO.P,J2,*
G04 #@! TO.N,*
X86800000Y-101950000D03*
X86800000Y-94950000D03*
G04 #@! TD*
D11*
G04 #@! TO.P,JP1,1*
G04 #@! TO.N,/VPP*
X87420000Y-141720000D03*
D12*
G04 #@! TD*
G04 #@! TO.N,/VPP*
G04 #@! TO.C,JP1*
G36*
X88170000Y-141170000D02*
X88170000Y-141720000D01*
X88169398Y-141720000D01*
X88169398Y-141744534D01*
X88164588Y-141793365D01*
X88155016Y-141841490D01*
X88140772Y-141888445D01*
X88121995Y-141933778D01*
X88098864Y-141977051D01*
X88071604Y-142017850D01*
X88040476Y-142055779D01*
X88005779Y-142090476D01*
X87967850Y-142121604D01*
X87927051Y-142148864D01*
X87883778Y-142171995D01*
X87838445Y-142190772D01*
X87791490Y-142205016D01*
X87743365Y-142214588D01*
X87694534Y-142219398D01*
X87670000Y-142219398D01*
X87670000Y-142220000D01*
X87170000Y-142220000D01*
X87170000Y-142219398D01*
X87145466Y-142219398D01*
X87096635Y-142214588D01*
X87048510Y-142205016D01*
X87001555Y-142190772D01*
X86956222Y-142171995D01*
X86912949Y-142148864D01*
X86872150Y-142121604D01*
X86834221Y-142090476D01*
X86799524Y-142055779D01*
X86768396Y-142017850D01*
X86741136Y-141977051D01*
X86718005Y-141933778D01*
X86699228Y-141888445D01*
X86684984Y-141841490D01*
X86675412Y-141793365D01*
X86670602Y-141744534D01*
X86670602Y-141720000D01*
X86670000Y-141720000D01*
X86670000Y-141170000D01*
X88170000Y-141170000D01*
X88170000Y-141170000D01*
G37*
D11*
G04 #@! TO.P,JP1,3*
G04 #@! TO.N,+5V*
X87420000Y-139120000D03*
D12*
G04 #@! TD*
G04 #@! TO.N,+5V*
G04 #@! TO.C,JP1*
G36*
X86670602Y-139120000D02*
X86670602Y-139095466D01*
X86675412Y-139046635D01*
X86684984Y-138998510D01*
X86699228Y-138951555D01*
X86718005Y-138906222D01*
X86741136Y-138862949D01*
X86768396Y-138822150D01*
X86799524Y-138784221D01*
X86834221Y-138749524D01*
X86872150Y-138718396D01*
X86912949Y-138691136D01*
X86956222Y-138668005D01*
X87001555Y-138649228D01*
X87048510Y-138634984D01*
X87096635Y-138625412D01*
X87145466Y-138620602D01*
X87170000Y-138620602D01*
X87170000Y-138620000D01*
X87670000Y-138620000D01*
X87670000Y-138620602D01*
X87694534Y-138620602D01*
X87743365Y-138625412D01*
X87791490Y-138634984D01*
X87838445Y-138649228D01*
X87883778Y-138668005D01*
X87927051Y-138691136D01*
X87967850Y-138718396D01*
X88005779Y-138749524D01*
X88040476Y-138784221D01*
X88071604Y-138822150D01*
X88098864Y-138862949D01*
X88121995Y-138906222D01*
X88140772Y-138951555D01*
X88155016Y-138998510D01*
X88164588Y-139046635D01*
X88169398Y-139095466D01*
X88169398Y-139120000D01*
X88170000Y-139120000D01*
X88170000Y-139670000D01*
X86670000Y-139670000D01*
X86670000Y-139120000D01*
X86670602Y-139120000D01*
X86670602Y-139120000D01*
G37*
D13*
G04 #@! TO.P,JP1,2*
G04 #@! TO.N,Net-(JP1-Pad2)*
X87420000Y-140420000D03*
G04 #@! TD*
D14*
G04 #@! TO.N,Net-(U2-Pad6)*
X101200000Y-116720000D03*
X106540000Y-117405000D03*
G04 #@! TO.N,Net-(U2-Pad7)*
X101210000Y-119480000D03*
X106549998Y-118690000D03*
G04 #@! TO.N,Net-(C3-Pad1)*
X125160000Y-108910000D03*
X125140000Y-104025000D03*
G04 #@! TO.N,Net-(C3-Pad2)*
X123260000Y-102490000D03*
X125785000Y-108210000D03*
X114930000Y-114240000D03*
G04 #@! TO.N,Net-(C6-Pad2)*
X110540000Y-112040000D03*
X110540000Y-109880000D03*
X113980000Y-122350000D03*
X115070004Y-117470000D03*
G04 #@! TO.N,Net-(C7-Pad1)*
X112550000Y-135970000D03*
X114710000Y-135290000D03*
X114050000Y-128290000D03*
X114010000Y-126420000D03*
X114140000Y-131150010D03*
G04 #@! TO.N,Net-(C13-Pad2)*
X107370000Y-105700000D03*
X109380000Y-113590000D03*
G04 #@! TO.N,Net-(C13-Pad1)*
X98490000Y-110700000D03*
X103810000Y-106750000D03*
G04 #@! TO.N,Net-(C15-Pad2)*
X106600002Y-116135000D03*
X104677318Y-113837994D03*
G04 #@! TO.N,Net-(C15-Pad1)*
X104840000Y-111950000D03*
X106492874Y-114587128D03*
G04 #@! TO.N,Net-(C16-Pad1)*
X108170000Y-130370000D03*
X108150000Y-123520000D03*
G04 #@! TO.N,Net-(U4-Pad10)*
X90640000Y-121460000D03*
X119410000Y-141405021D03*
G04 #@! TO.N,Net-(U4-Pad22)*
X94860000Y-119490000D03*
X124410000Y-135280000D03*
G04 #@! TO.N,Net-(U4-Pad23)*
X96780000Y-119540000D03*
X127650000Y-134900000D03*
G04 #@! TO.N,+5V*
X121250001Y-116140001D03*
X105940000Y-121080000D03*
X85320000Y-140660000D03*
G04 #@! TO.N,GND*
X83400000Y-95500000D03*
X101050000Y-92800000D03*
X110125000Y-95500000D03*
X91500000Y-105900000D03*
X96825000Y-106750000D03*
X107175000Y-108000000D03*
X83500000Y-121650000D03*
X92625000Y-115400000D03*
X106575000Y-119925000D03*
X97950000Y-100275000D03*
X103575000Y-124600000D03*
X119900000Y-125450000D03*
X104450000Y-120050000D03*
X102375000Y-97475000D03*
X129450000Y-95175000D03*
X129000000Y-110175000D03*
X127575000Y-123500000D03*
X119425000Y-134000000D03*
X126300000Y-118600000D03*
X118225000Y-109725000D03*
X117040000Y-98690000D03*
X120130000Y-123820000D03*
X117240000Y-115290000D03*
X130379984Y-142950000D03*
X115129999Y-137180000D03*
X130410000Y-135920000D03*
X120340000Y-128970000D03*
X120320000Y-132060000D03*
X106580000Y-130340000D03*
X122350000Y-110160000D03*
X85060000Y-137450000D03*
X122870000Y-140990002D03*
X102890000Y-130300000D03*
X127180000Y-141740000D03*
G04 #@! TO.N,-5V*
X122410000Y-117710000D03*
X124300000Y-115600000D03*
X106670000Y-112000000D03*
X112480671Y-129489990D03*
X116100000Y-112899999D03*
G04 #@! TO.N,+5VA*
X111570000Y-116410000D03*
X111570000Y-118155000D03*
G04 #@! TO.N,+5VC*
X128870000Y-131579990D03*
X129630000Y-133100000D03*
G04 #@! TO.N,/D1*
X112060000Y-120780000D03*
X122070000Y-137910000D03*
X116000000Y-143695010D03*
X113280000Y-143260000D03*
G04 #@! TO.N,/D2*
X117510000Y-143639998D03*
X114440000Y-143030000D03*
G04 #@! TO.N,/D3*
X93483051Y-129246949D03*
X119010000Y-143640000D03*
G04 #@! TO.N,/D4*
X93483058Y-128363058D03*
X120550000Y-143619998D03*
G04 #@! TO.N,/D5*
X99495000Y-126418058D03*
X95220011Y-127738058D03*
X98160000Y-127720000D03*
X122020000Y-143630002D03*
G04 #@! TO.N,/D6*
X95930000Y-127113058D03*
X123489989Y-143669997D03*
G04 #@! TO.N,/D7*
X124430000Y-136550000D03*
X97400000Y-126250000D03*
G04 #@! TO.N,/~RD*
X86460000Y-122710000D03*
X84990000Y-111920000D03*
X84780000Y-134430000D03*
G04 #@! TO.N,/~WR*
X85140000Y-142210000D03*
X82260010Y-113130000D03*
G04 #@! TO.N,/A13*
X91570000Y-131090000D03*
X109050000Y-143615054D03*
G04 #@! TO.N,/A15*
X84660000Y-115660000D03*
X85455331Y-113954669D03*
G04 #@! TO.N,/ECLK*
X84510000Y-143020000D03*
X82260010Y-116950000D03*
G04 #@! TO.N,/A14*
X91570085Y-130150571D03*
X110680000Y-143520000D03*
G04 #@! TO.N,/A6*
X98020000Y-143560000D03*
X89360000Y-141850000D03*
G04 #@! TO.N,/A5*
X90220011Y-141849747D03*
X97020000Y-143443898D03*
G04 #@! TO.N,/A4*
X95730007Y-143480007D03*
X91110000Y-142005032D03*
G04 #@! TO.N,/A3*
X94350000Y-143550000D03*
X91099551Y-142804976D03*
G04 #@! TO.N,/A2*
X93080002Y-143590000D03*
X91082838Y-143619007D03*
G04 #@! TO.N,/A10*
X92530000Y-125660000D03*
X97110000Y-140080000D03*
G04 #@! TO.N,/A11*
X91350002Y-127090000D03*
X98378051Y-140451949D03*
G04 #@! TO.N,/A9*
X90510000Y-125740000D03*
X99710000Y-142865021D03*
G04 #@! TO.N,/A8*
X100969999Y-143509999D03*
X89259978Y-125749978D03*
G04 #@! TO.N,-2.5V*
X127480000Y-101040000D03*
X117670000Y-128690000D03*
X95890000Y-103970000D03*
G04 #@! TO.N,+2.5V*
X117320000Y-123340000D03*
X93390000Y-101970000D03*
X127070000Y-133080000D03*
X128510000Y-101010000D03*
X111609989Y-125070000D03*
X111609989Y-126640000D03*
X127280000Y-139250000D03*
G04 #@! TO.N,/VPP*
X88660000Y-143500000D03*
G04 #@! TO.N,Net-(JP1-Pad2)*
X88660000Y-131730000D03*
G04 #@! TD*
D15*
G04 #@! TO.N,Net-(U2-Pad6)*
X106115736Y-117405000D02*
X106540000Y-117405000D01*
X101885000Y-117405000D02*
X106115736Y-117405000D01*
X101200000Y-116720000D02*
X101885000Y-117405000D01*
G04 #@! TO.N,Net-(U2-Pad7)*
X101210000Y-119480000D02*
X102000000Y-118690000D01*
X102000000Y-118690000D02*
X106125734Y-118690000D01*
X106125734Y-118690000D02*
X106549998Y-118690000D01*
D16*
G04 #@! TO.N,Net-(C3-Pad1)*
X125160000Y-108910000D02*
X125160000Y-104045000D01*
X125160000Y-104045000D02*
X125140000Y-104025000D01*
G04 #@! TO.N,Net-(C3-Pad2)*
X123260000Y-102490000D02*
X125290000Y-102490000D01*
X125290000Y-102490000D02*
X125785000Y-102985000D01*
X125785000Y-102985000D02*
X125785000Y-108210000D01*
X123260000Y-102490000D02*
X123260000Y-107130000D01*
X123260000Y-107130000D02*
X116150000Y-114240000D01*
X116150000Y-114240000D02*
X115354264Y-114240000D01*
X115354264Y-114240000D02*
X114930000Y-114240000D01*
D15*
G04 #@! TO.N,Net-(C6-Pad2)*
X110540000Y-112040000D02*
X110540000Y-109880000D01*
X113980000Y-122350000D02*
X113980000Y-118560004D01*
X114770005Y-117769999D02*
X115070004Y-117470000D01*
X113980000Y-118560004D02*
X114770005Y-117769999D01*
G04 #@! TO.N,Net-(C7-Pad1)*
X112550000Y-135970000D02*
X114030000Y-135970000D01*
X114030000Y-135970000D02*
X114710000Y-135290000D01*
X114050000Y-128290000D02*
X114050000Y-126460000D01*
D16*
X114050000Y-126460000D02*
X114010000Y-126420000D01*
D15*
X114710000Y-135290000D02*
X114710000Y-131720010D01*
X114439999Y-131450009D02*
X114140000Y-131150010D01*
X114710000Y-131720010D02*
X114439999Y-131450009D01*
G04 #@! TO.N,Net-(C13-Pad2)*
X107370000Y-105700000D02*
X109380000Y-107710000D01*
X109380000Y-107710000D02*
X109380000Y-113590000D01*
G04 #@! TO.N,Net-(C13-Pad1)*
X98490000Y-110700000D02*
X102440000Y-106750000D01*
X102440000Y-106750000D02*
X103810000Y-106750000D01*
G04 #@! TO.N,Net-(C15-Pad2)*
X106600002Y-116135000D02*
X104677318Y-114212316D01*
X104677318Y-114212316D02*
X104677318Y-113837994D01*
G04 #@! TO.N,Net-(C15-Pad1)*
X106192875Y-114287129D02*
X106492874Y-114587128D01*
X106187129Y-114287129D02*
X106192875Y-114287129D01*
X104840000Y-112940000D02*
X106187129Y-114287129D01*
X104840000Y-111950000D02*
X104840000Y-112940000D01*
G04 #@! TO.N,Net-(C16-Pad1)*
X108170000Y-130370000D02*
X108170000Y-129945736D01*
X108170000Y-129945736D02*
X108170000Y-123540000D01*
D16*
X108170000Y-123540000D02*
X108150000Y-123520000D01*
G04 #@! TO.N,Net-(U4-Pad10)*
X112267801Y-141405021D02*
X118985736Y-141405021D01*
X94690000Y-128133049D02*
X94690000Y-133230000D01*
X90640000Y-121460000D02*
X93240000Y-124060000D01*
X103100011Y-141640011D02*
X112032811Y-141640011D01*
X93240000Y-124060000D02*
X93240000Y-126683049D01*
X94690000Y-133230000D02*
X103100011Y-141640011D01*
X118985736Y-141405021D02*
X119410000Y-141405021D01*
X93240000Y-126683049D02*
X94690000Y-128133049D01*
X112032811Y-141640011D02*
X112267801Y-141405021D01*
G04 #@! TO.N,Net-(U4-Pad22)*
X100230000Y-124860000D02*
X94860000Y-119490000D01*
X100230000Y-131040000D02*
X100230000Y-124860000D01*
X109550000Y-131950000D02*
X101140000Y-131950000D01*
X121270000Y-135280000D02*
X117480000Y-139070000D01*
X124410000Y-135280000D02*
X121270000Y-135280000D01*
X117480000Y-139070000D02*
X111770000Y-139070000D01*
X101140000Y-131950000D02*
X100230000Y-131040000D01*
X111770000Y-139070000D02*
X110930000Y-138230000D01*
X110930000Y-138230000D02*
X110930000Y-133330000D01*
X110930000Y-133330000D02*
X109550000Y-131950000D01*
G04 #@! TO.N,Net-(U4-Pad23)*
X100770000Y-130930000D02*
X101300000Y-131460000D01*
X100770000Y-123550000D02*
X100770000Y-130930000D01*
X97079999Y-119859999D02*
X100770000Y-123550000D01*
X96780000Y-119540000D02*
X97079999Y-119839999D01*
X97079999Y-119839999D02*
X97079999Y-119859999D01*
X127350001Y-134600001D02*
X127650000Y-134900000D01*
X121179999Y-134600001D02*
X127350001Y-134600001D01*
X117300000Y-138480000D02*
X121179999Y-134600001D01*
X101320000Y-131480000D02*
X109716411Y-131480000D01*
X101240000Y-131400000D02*
X101320000Y-131480000D01*
X109716411Y-131480000D02*
X111380011Y-133143600D01*
X111380011Y-133143600D02*
X111380011Y-137650011D01*
X111380011Y-137650011D02*
X112210000Y-138480000D01*
X112210000Y-138480000D02*
X117300000Y-138480000D01*
D15*
G04 #@! TO.N,+5V*
X106364264Y-121080000D02*
X105940000Y-121080000D01*
X110080000Y-121080000D02*
X106364264Y-121080000D01*
X114530000Y-116630000D02*
X110080000Y-121080000D01*
X121250001Y-116140001D02*
X120760002Y-116630000D01*
X120760002Y-116630000D02*
X114530000Y-116630000D01*
X85320000Y-140180000D02*
X85320000Y-140660000D01*
X87420000Y-139120000D02*
X86380000Y-139120000D01*
X86380000Y-139120000D02*
X85320000Y-140180000D01*
G04 #@! TO.N,-5V*
X119580000Y-117710000D02*
X114900000Y-122390000D01*
X114900000Y-128990000D02*
X114400010Y-129489990D01*
X112904935Y-129489990D02*
X112480671Y-129489990D01*
X114400010Y-129489990D02*
X112904935Y-129489990D01*
X122410000Y-117710000D02*
X119580000Y-117710000D01*
X114900000Y-122390000D02*
X114900000Y-128990000D01*
X109190000Y-114520000D02*
X110370000Y-114520000D01*
X111990001Y-112899999D02*
X115675736Y-112899999D01*
X115675736Y-112899999D02*
X116100000Y-112899999D01*
X106670000Y-112000000D02*
X109190000Y-114520000D01*
X110370000Y-114520000D02*
X111990001Y-112899999D01*
X124300000Y-115950000D02*
X124300000Y-115600000D01*
X122410000Y-117710000D02*
X122540000Y-117710000D01*
X122540000Y-117710000D02*
X124300000Y-115950000D01*
G04 #@! TO.N,+5VA*
X111570000Y-116410000D02*
X111570000Y-116834264D01*
X111570000Y-116834264D02*
X111570000Y-118155000D01*
G04 #@! TO.N,+5VC*
X129330001Y-132800001D02*
X129630000Y-133100000D01*
X128870000Y-131579990D02*
X128870000Y-132340000D01*
X128870000Y-132340000D02*
X129330001Y-132800001D01*
D16*
G04 #@! TO.N,/D1*
X113715010Y-143695010D02*
X113579999Y-143559999D01*
X116000000Y-143695010D02*
X113715010Y-143695010D01*
X113579999Y-143559999D02*
X113280000Y-143260000D01*
D15*
X122369999Y-138209999D02*
X122070000Y-137910000D01*
X124340000Y-140180000D02*
X122369999Y-138209999D01*
X127830000Y-140180000D02*
X124340000Y-140180000D01*
X112359999Y-121079999D02*
X112359999Y-127610001D01*
X129160000Y-133820000D02*
X129160000Y-138850000D01*
X125740000Y-130400000D02*
X129160000Y-133820000D01*
X112359999Y-127610001D02*
X111590000Y-128380000D01*
X111590000Y-128380000D02*
X111590000Y-129905002D01*
X112060000Y-120780000D02*
X112359999Y-121079999D01*
X111590000Y-129905002D02*
X112084998Y-130400000D01*
X129160000Y-138850000D02*
X127830000Y-140180000D01*
X112084998Y-130400000D02*
X125740000Y-130400000D01*
D16*
G04 #@! TO.N,/D2*
X117510000Y-143639998D02*
X116900002Y-143030000D01*
X114864264Y-143030000D02*
X114440000Y-143030000D01*
X116900002Y-143030000D02*
X114864264Y-143030000D01*
G04 #@! TO.N,/D3*
X118710001Y-143340001D02*
X119010000Y-143640000D01*
X93483051Y-129246949D02*
X93483051Y-133383051D01*
X102640033Y-142540033D02*
X112405611Y-142540033D01*
X93483051Y-133383051D02*
X102640033Y-142540033D01*
X112405611Y-142540033D02*
X112575644Y-142370000D01*
X112575644Y-142370000D02*
X117740000Y-142370000D01*
X117740000Y-142370000D02*
X118710001Y-143340001D01*
G04 #@! TO.N,/D4*
X120250001Y-143319999D02*
X120550000Y-143619998D01*
X94150000Y-129030000D02*
X94150000Y-133413590D01*
X94150000Y-133413590D02*
X102826432Y-142090022D01*
X102826432Y-142090022D02*
X112219210Y-142090022D01*
X118830002Y-141900000D02*
X120250001Y-143319999D01*
X112409232Y-141900000D02*
X118830002Y-141900000D01*
X93483058Y-128363058D02*
X94150000Y-129030000D01*
X112219210Y-142090022D02*
X112409232Y-141900000D01*
G04 #@! TO.N,/D5*
X99495000Y-126418058D02*
X98193058Y-127720000D01*
X98193058Y-127720000D02*
X98160000Y-127720000D01*
X112256399Y-140780011D02*
X119914275Y-140780011D01*
X95220011Y-133050011D02*
X103360000Y-141190000D01*
X122020000Y-142885736D02*
X122020000Y-143205738D01*
X119914275Y-140780011D02*
X122020000Y-142885736D01*
X111846410Y-141190000D02*
X112256399Y-140780011D01*
X103360000Y-141190000D02*
X111846410Y-141190000D01*
X122020000Y-143205738D02*
X122020000Y-143630002D01*
X95220011Y-127738058D02*
X95220011Y-133050011D01*
G04 #@! TO.N,/D6*
X123189990Y-143369998D02*
X123489989Y-143669997D01*
X112060000Y-140330000D02*
X120149992Y-140330000D01*
X120149992Y-140330000D02*
X123189990Y-143369998D01*
X103511424Y-140705014D02*
X111684986Y-140705014D01*
X111684986Y-140705014D02*
X112060000Y-140330000D01*
X95930000Y-133123590D02*
X103511424Y-140705014D01*
X95930000Y-127113058D02*
X95930000Y-133123590D01*
G04 #@! TO.N,/D7*
X110430000Y-138670000D02*
X110430000Y-138420000D01*
X111360000Y-139600000D02*
X110430000Y-138670000D01*
X117816408Y-139600000D02*
X111360000Y-139600000D01*
X124430000Y-136550000D02*
X120866408Y-136550000D01*
X120866408Y-136550000D02*
X117816408Y-139600000D01*
X97400000Y-126674264D02*
X97400000Y-126250000D01*
X97400000Y-128930000D02*
X97400000Y-126674264D01*
X100900000Y-132430000D02*
X97400000Y-128930000D01*
X109190000Y-132430000D02*
X100900000Y-132430000D01*
X110430000Y-138410000D02*
X110430000Y-133670000D01*
X110430000Y-133670000D02*
X109190000Y-132430000D01*
D15*
G04 #@! TO.N,/~RD*
X85480000Y-111920000D02*
X84990000Y-111920000D01*
X86460000Y-122710000D02*
X86460000Y-112900000D01*
X86460000Y-112900000D02*
X85480000Y-111920000D01*
D16*
X84770000Y-134420000D02*
X84780000Y-134430000D01*
X86460000Y-122710000D02*
X84770000Y-124400000D01*
X84770000Y-124400000D02*
X84770000Y-134420000D01*
D15*
G04 #@! TO.N,/~WR*
X85140000Y-142210000D02*
X85140000Y-142190000D01*
D16*
X82560009Y-113429999D02*
X82260010Y-113130000D01*
X83230000Y-142190000D02*
X82140000Y-141100000D01*
X85140000Y-142190000D02*
X83230000Y-142190000D01*
X82140000Y-141100000D02*
X82140000Y-118290000D01*
X82140000Y-118290000D02*
X82885012Y-117544988D01*
X82885012Y-117544988D02*
X82885012Y-113755002D01*
X82885012Y-113755002D02*
X82560009Y-113429999D01*
G04 #@! TO.N,/A13*
X108625736Y-143615054D02*
X109050000Y-143615054D01*
X102425054Y-143615054D02*
X108625736Y-143615054D01*
X91570000Y-131090000D02*
X91570000Y-132760000D01*
X91570000Y-132760000D02*
X102425054Y-143615054D01*
D15*
G04 #@! TO.N,/A15*
X85460000Y-113959338D02*
X85455331Y-113954669D01*
X84660000Y-115660000D02*
X85460000Y-114860000D01*
X85460000Y-114860000D02*
X85460000Y-113959338D01*
G04 #@! TO.N,/ECLK*
X84510000Y-143020000D02*
X84510000Y-143010000D01*
D16*
X84510000Y-143010000D02*
X83413589Y-143010000D01*
X81550000Y-141146411D02*
X81550000Y-117660010D01*
X83413589Y-143010000D02*
X81550000Y-141146411D01*
X81960011Y-117249999D02*
X82260010Y-116950000D01*
X81550000Y-117660010D02*
X81960011Y-117249999D01*
G04 #@! TO.N,/A14*
X110380001Y-143220001D02*
X110680000Y-143520000D01*
X110150044Y-142990044D02*
X110380001Y-143220001D01*
X92310000Y-130890486D02*
X92310000Y-132860000D01*
X91570085Y-130150571D02*
X92310000Y-130890486D01*
X97646410Y-138196410D02*
X97646410Y-138200000D01*
X97646410Y-138200000D02*
X102436454Y-142990044D01*
X92310000Y-132860000D02*
X97646410Y-138196410D01*
X102436454Y-142990044D02*
X110150044Y-142990044D01*
G04 #@! TO.N,/A6*
X89360000Y-141425736D02*
X89360000Y-141850000D01*
X95390011Y-140930011D02*
X89855725Y-140930011D01*
X98020000Y-143560000D02*
X95390011Y-140930011D01*
X89855725Y-140930011D02*
X89360000Y-141425736D01*
G04 #@! TO.N,/A5*
X90689736Y-141380022D02*
X94956124Y-141380022D01*
X94956124Y-141380022D02*
X96720001Y-143143899D01*
X90220011Y-141849747D02*
X90689736Y-141380022D01*
X96720001Y-143143899D02*
X97020000Y-143443898D01*
G04 #@! TO.N,/A4*
X91534264Y-142005032D02*
X91110000Y-142005032D01*
X94255032Y-142005032D02*
X91534264Y-142005032D01*
X95730007Y-143480007D02*
X94255032Y-142005032D01*
G04 #@! TO.N,/A3*
X91523815Y-142804976D02*
X91099551Y-142804976D01*
X93604976Y-142804976D02*
X91523815Y-142804976D01*
X94350000Y-143550000D02*
X93604976Y-142804976D01*
G04 #@! TO.N,/A2*
X93080002Y-143590000D02*
X91111845Y-143590000D01*
X91111845Y-143590000D02*
X91082838Y-143619007D01*
G04 #@! TO.N,/A10*
X96810001Y-139780001D02*
X97110000Y-140080000D01*
X90360000Y-133330000D02*
X96810001Y-139780001D01*
X90360000Y-127124998D02*
X90360000Y-133330000D01*
X92530000Y-125660000D02*
X91824998Y-125660000D01*
X91824998Y-125660000D02*
X90360000Y-127124998D01*
G04 #@! TO.N,/A11*
X98078052Y-140151950D02*
X98378051Y-140451949D01*
X97036102Y-139110000D02*
X98078052Y-140151950D01*
X97036102Y-139096102D02*
X97036102Y-139110000D01*
X90900000Y-132960000D02*
X97036102Y-139096102D01*
X91350002Y-127090000D02*
X90900000Y-127540002D01*
X90900000Y-127540002D02*
X90900000Y-132960000D01*
G04 #@! TO.N,/A9*
X98930757Y-142865021D02*
X99285736Y-142865021D01*
X96080000Y-140020000D02*
X96085736Y-140020000D01*
X89800000Y-126874264D02*
X89800000Y-133740000D01*
X90510000Y-125740000D02*
X90510000Y-126164264D01*
X89800000Y-133740000D02*
X96080000Y-140020000D01*
X99285736Y-142865021D02*
X99710000Y-142865021D01*
X96085736Y-140020000D02*
X98930757Y-142865021D01*
X90510000Y-126164264D02*
X89800000Y-126874264D01*
G04 #@! TO.N,/A8*
X89290001Y-125780001D02*
X89259978Y-125749978D01*
X89290001Y-133869999D02*
X89290001Y-125780001D01*
X100969999Y-143509999D02*
X98930001Y-143509999D01*
X98930001Y-143509999D02*
X89290001Y-133869999D01*
D15*
G04 #@! TO.N,-2.5V*
X117670000Y-127200000D02*
X117670000Y-128690000D01*
X116180000Y-125710000D02*
X117670000Y-127200000D01*
X116180000Y-122460000D02*
X116180000Y-125710000D01*
X127480000Y-101450000D02*
X126960000Y-101970000D01*
X127480000Y-101040000D02*
X127480000Y-101450000D01*
X126960000Y-101970000D02*
X126960000Y-114560000D01*
X126960000Y-114560000D02*
X122820000Y-118700000D01*
X122820000Y-118700000D02*
X119940000Y-118700000D01*
X119940000Y-118700000D02*
X116180000Y-122460000D01*
X127055736Y-101040000D02*
X127480000Y-101040000D01*
X116920000Y-101040000D02*
X127055736Y-101040000D01*
X95890000Y-103970000D02*
X113990000Y-103970000D01*
X113990000Y-103970000D02*
X116920000Y-101040000D01*
G04 #@! TO.N,+2.5V*
X117619999Y-123040001D02*
X117320000Y-123340000D01*
X119150000Y-121510000D02*
X117619999Y-123040001D01*
X121390000Y-121510000D02*
X119150000Y-121510000D01*
X127660000Y-104480000D02*
X127660000Y-115240000D01*
X127660000Y-115240000D02*
X121390000Y-121510000D01*
X93390000Y-101970000D02*
X109440000Y-101970000D01*
X127660010Y-104479990D02*
X128510000Y-103630000D01*
X128510000Y-100585736D02*
X128510000Y-101010000D01*
X128510000Y-103630000D02*
X128510000Y-101434264D01*
X127774265Y-99850001D02*
X128510000Y-100585736D01*
X128510000Y-101434264D02*
X128510000Y-101010000D01*
X111559999Y-99850001D02*
X127774265Y-99850001D01*
X109440000Y-101970000D02*
X111559999Y-99850001D01*
X111609989Y-125070000D02*
X111609989Y-126640000D01*
X128440000Y-138090000D02*
X127579999Y-138950001D01*
X127579999Y-138950001D02*
X127280000Y-139250000D01*
X127070000Y-133080000D02*
X128440000Y-134450000D01*
X128440000Y-134450000D02*
X128440000Y-138090000D01*
G04 #@! TO.N,/VPP*
X87420000Y-142640000D02*
X87420000Y-141720000D01*
X88660000Y-143500000D02*
X88280000Y-143500000D01*
X88280000Y-143500000D02*
X87420000Y-142640000D01*
G04 #@! TO.N,Net-(JP1-Pad2)*
X88660000Y-132154264D02*
X88660000Y-131730000D01*
X88660000Y-135100000D02*
X88660000Y-132154264D01*
X89240000Y-135680000D02*
X88660000Y-135100000D01*
X89240000Y-139640000D02*
X89240000Y-135680000D01*
X87420000Y-140420000D02*
X88460000Y-140420000D01*
X88460000Y-140420000D02*
X89240000Y-139640000D01*
G04 #@! TD*
D17*
G04 #@! TO.N,GND*
G36*
X131050001Y-144873000D02*
X81470000Y-144873000D01*
X81470000Y-142141212D01*
X82823260Y-143494473D01*
X82865660Y-143557929D01*
X82929116Y-143600329D01*
X83117051Y-143725904D01*
X83158899Y-143734228D01*
X83338737Y-143770000D01*
X83338741Y-143770000D01*
X83413589Y-143784888D01*
X83488437Y-143770000D01*
X83937710Y-143770000D01*
X83980365Y-143812655D01*
X84324017Y-143955000D01*
X84695983Y-143955000D01*
X85039635Y-143812655D01*
X85302655Y-143549635D01*
X85445000Y-143205983D01*
X85445000Y-143095702D01*
X85669635Y-143002655D01*
X85932655Y-142739635D01*
X86075000Y-142395983D01*
X86075000Y-142052339D01*
X86093372Y-142112904D01*
X86130881Y-142203460D01*
X86190713Y-142315397D01*
X86245169Y-142396896D01*
X86325686Y-142495006D01*
X86394994Y-142564314D01*
X86493104Y-142644831D01*
X86522536Y-142664497D01*
X86535000Y-142727161D01*
X86535000Y-142727164D01*
X86586348Y-142985309D01*
X86781951Y-143278049D01*
X86855847Y-143327425D01*
X87592577Y-144064156D01*
X87641951Y-144138049D01*
X87715844Y-144187423D01*
X87715845Y-144187424D01*
X87848263Y-144275903D01*
X87934690Y-144333652D01*
X88192835Y-144385000D01*
X88192839Y-144385000D01*
X88280000Y-144402337D01*
X88357801Y-144386862D01*
X88474017Y-144435000D01*
X88845983Y-144435000D01*
X89189635Y-144292655D01*
X89452655Y-144029635D01*
X89595000Y-143685983D01*
X89595000Y-143314017D01*
X89452655Y-142970365D01*
X89267290Y-142785000D01*
X89545983Y-142785000D01*
X89790311Y-142683796D01*
X90034028Y-142784747D01*
X90164551Y-142784747D01*
X90164551Y-142990959D01*
X90247749Y-143191817D01*
X90147838Y-143433024D01*
X90147838Y-143804990D01*
X90290183Y-144148642D01*
X90553203Y-144411662D01*
X90896855Y-144554007D01*
X91268821Y-144554007D01*
X91612473Y-144411662D01*
X91674135Y-144350000D01*
X92517712Y-144350000D01*
X92550367Y-144382655D01*
X92894019Y-144525000D01*
X93265985Y-144525000D01*
X93609637Y-144382655D01*
X93735001Y-144257291D01*
X93820365Y-144342655D01*
X94164017Y-144485000D01*
X94535983Y-144485000D01*
X94879635Y-144342655D01*
X95075000Y-144147290D01*
X95200372Y-144272662D01*
X95544024Y-144415007D01*
X95915990Y-144415007D01*
X96259642Y-144272662D01*
X96393058Y-144139246D01*
X96490365Y-144236553D01*
X96834017Y-144378898D01*
X97205983Y-144378898D01*
X97425628Y-144287918D01*
X97490365Y-144352655D01*
X97834017Y-144495000D01*
X98205983Y-144495000D01*
X98549635Y-144352655D01*
X98669266Y-144233024D01*
X98681606Y-144235479D01*
X98855149Y-144269999D01*
X98855153Y-144269999D01*
X98930001Y-144284887D01*
X99004849Y-144269999D01*
X100407709Y-144269999D01*
X100440364Y-144302654D01*
X100784016Y-144444999D01*
X101155982Y-144444999D01*
X101499634Y-144302654D01*
X101762654Y-144039634D01*
X101766221Y-144031023D01*
X101834725Y-144099527D01*
X101877125Y-144162983D01*
X102128517Y-144330958D01*
X102350202Y-144375054D01*
X102350206Y-144375054D01*
X102425054Y-144389942D01*
X102499902Y-144375054D01*
X108487710Y-144375054D01*
X108520365Y-144407709D01*
X108864017Y-144550054D01*
X109235983Y-144550054D01*
X109579635Y-144407709D01*
X109842655Y-144144689D01*
X109884686Y-144043216D01*
X109887345Y-144049635D01*
X110150365Y-144312655D01*
X110494017Y-144455000D01*
X110865983Y-144455000D01*
X111209635Y-144312655D01*
X111472655Y-144049635D01*
X111615000Y-143705983D01*
X111615000Y-143334017D01*
X111600923Y-143300033D01*
X112330764Y-143300033D01*
X112345000Y-143302865D01*
X112345000Y-143445983D01*
X112487345Y-143789635D01*
X112750365Y-144052655D01*
X113094017Y-144195000D01*
X113135049Y-144195000D01*
X113167081Y-144242939D01*
X113418473Y-144410914D01*
X113640158Y-144455010D01*
X113640162Y-144455010D01*
X113715009Y-144469898D01*
X113789856Y-144455010D01*
X115437710Y-144455010D01*
X115470365Y-144487665D01*
X115814017Y-144630010D01*
X116185983Y-144630010D01*
X116529635Y-144487665D01*
X116782506Y-144234794D01*
X116980365Y-144432653D01*
X117324017Y-144574998D01*
X117695983Y-144574998D01*
X118039635Y-144432653D01*
X118259999Y-144212289D01*
X118480365Y-144432655D01*
X118824017Y-144575000D01*
X119195983Y-144575000D01*
X119539635Y-144432655D01*
X119790001Y-144182289D01*
X120020365Y-144412653D01*
X120364017Y-144554998D01*
X120735983Y-144554998D01*
X121079635Y-144412653D01*
X121279998Y-144212290D01*
X121490365Y-144422657D01*
X121834017Y-144565002D01*
X122205983Y-144565002D01*
X122549635Y-144422657D01*
X122734997Y-144237295D01*
X122960354Y-144462652D01*
X123304006Y-144604997D01*
X123675972Y-144604997D01*
X124019624Y-144462652D01*
X124282644Y-144199632D01*
X124424989Y-143855980D01*
X124424989Y-143484014D01*
X124282644Y-143140362D01*
X124019624Y-142877342D01*
X123675972Y-142734997D01*
X123629792Y-142734997D01*
X120740323Y-139845530D01*
X120697921Y-139782071D01*
X120446529Y-139614096D01*
X120224844Y-139570000D01*
X120224839Y-139570000D01*
X120149992Y-139555112D01*
X120075145Y-139570000D01*
X118921209Y-139570000D01*
X121181211Y-137310000D01*
X121347710Y-137310000D01*
X121277345Y-137380365D01*
X121135000Y-137724017D01*
X121135000Y-138095983D01*
X121277345Y-138439635D01*
X121540365Y-138702655D01*
X121661078Y-138752656D01*
X121682575Y-138774153D01*
X123652577Y-140744156D01*
X123701951Y-140818049D01*
X123775844Y-140867423D01*
X123775845Y-140867424D01*
X123886354Y-140941264D01*
X123994690Y-141013652D01*
X124252835Y-141065000D01*
X124252839Y-141065000D01*
X124339999Y-141082337D01*
X124427159Y-141065000D01*
X127742839Y-141065000D01*
X127830000Y-141082337D01*
X127917161Y-141065000D01*
X127917165Y-141065000D01*
X128175310Y-141013652D01*
X128468049Y-140818049D01*
X128517425Y-140744153D01*
X129724156Y-139537423D01*
X129798049Y-139488049D01*
X129866301Y-139385904D01*
X129926688Y-139295528D01*
X129993652Y-139195310D01*
X130045000Y-138937165D01*
X130045000Y-138937160D01*
X130062337Y-138850001D01*
X130045000Y-138762841D01*
X130045000Y-133940138D01*
X130159635Y-133892655D01*
X130422655Y-133629635D01*
X130565000Y-133285983D01*
X130565000Y-132914017D01*
X130422655Y-132570365D01*
X130159635Y-132307345D01*
X130038922Y-132257344D01*
X129755000Y-131973422D01*
X129755000Y-131886684D01*
X129805000Y-131765973D01*
X129805000Y-131394007D01*
X129662655Y-131050355D01*
X129399635Y-130787335D01*
X129055983Y-130644990D01*
X128684017Y-130644990D01*
X128340365Y-130787335D01*
X128077345Y-131050355D01*
X127949816Y-131358238D01*
X126427424Y-129835846D01*
X126378049Y-129761951D01*
X126085310Y-129566348D01*
X125827165Y-129515000D01*
X125827161Y-129515000D01*
X125740000Y-129497663D01*
X125652839Y-129515000D01*
X118121547Y-129515000D01*
X118199635Y-129482655D01*
X118462655Y-129219635D01*
X118605000Y-128875983D01*
X118605000Y-128504017D01*
X118555000Y-128383306D01*
X118555000Y-127287159D01*
X118572337Y-127199999D01*
X118555000Y-127112839D01*
X118555000Y-127112835D01*
X118503652Y-126854690D01*
X118405412Y-126707664D01*
X118357424Y-126635845D01*
X118357423Y-126635844D01*
X118308049Y-126561951D01*
X118234156Y-126512577D01*
X117065000Y-125343422D01*
X117065000Y-124246412D01*
X117134017Y-124275000D01*
X117505983Y-124275000D01*
X117849635Y-124132655D01*
X118112655Y-123869635D01*
X118162656Y-123748922D01*
X118307423Y-123604155D01*
X119516579Y-122395000D01*
X121302839Y-122395000D01*
X121390000Y-122412337D01*
X121477161Y-122395000D01*
X121477165Y-122395000D01*
X121735310Y-122343652D01*
X122028049Y-122148049D01*
X122077425Y-122074153D01*
X128224156Y-115927423D01*
X128298049Y-115878049D01*
X128352640Y-115796349D01*
X128398534Y-115727663D01*
X128493652Y-115585310D01*
X128545000Y-115327165D01*
X128545000Y-115327160D01*
X128562337Y-115240001D01*
X128545000Y-115152841D01*
X128545000Y-104846578D01*
X129074156Y-104317423D01*
X129148049Y-104268049D01*
X129237157Y-104134691D01*
X129343651Y-103975311D01*
X129343652Y-103975310D01*
X129395000Y-103717165D01*
X129395000Y-103717161D01*
X129412337Y-103630001D01*
X129395000Y-103542841D01*
X129395000Y-101316694D01*
X129445000Y-101195983D01*
X129445000Y-100824017D01*
X129395000Y-100703306D01*
X129395000Y-100672895D01*
X129412337Y-100585735D01*
X129395000Y-100498575D01*
X129395000Y-100498571D01*
X129343652Y-100240426D01*
X129271615Y-100132616D01*
X129197424Y-100021581D01*
X129197423Y-100021580D01*
X129148049Y-99947687D01*
X129074156Y-99898313D01*
X128461690Y-99285848D01*
X128412314Y-99211952D01*
X128119575Y-99016349D01*
X127861430Y-98965001D01*
X127861426Y-98965001D01*
X127774265Y-98947664D01*
X127687104Y-98965001D01*
X111647158Y-98965001D01*
X111559998Y-98947664D01*
X111472838Y-98965001D01*
X111472834Y-98965001D01*
X111214689Y-99016349D01*
X111214687Y-99016350D01*
X111214688Y-99016350D01*
X110995844Y-99162577D01*
X110995843Y-99162578D01*
X110921950Y-99211952D01*
X110872576Y-99285845D01*
X109073422Y-101085000D01*
X93696694Y-101085000D01*
X93575983Y-101035000D01*
X93204017Y-101035000D01*
X92860365Y-101177345D01*
X92597345Y-101440365D01*
X92455000Y-101784017D01*
X92455000Y-102155983D01*
X92597345Y-102499635D01*
X92860365Y-102762655D01*
X93204017Y-102905000D01*
X93575983Y-102905000D01*
X93696694Y-102855000D01*
X109352839Y-102855000D01*
X109440000Y-102872337D01*
X109527161Y-102855000D01*
X109527165Y-102855000D01*
X109785310Y-102803652D01*
X110078049Y-102608049D01*
X110127425Y-102534153D01*
X111926578Y-100735001D01*
X112639892Y-100735001D01*
X112266078Y-101108815D01*
X112040000Y-101654615D01*
X112040000Y-102245385D01*
X112266078Y-102791185D01*
X112559893Y-103085000D01*
X96196694Y-103085000D01*
X96075983Y-103035000D01*
X95704017Y-103035000D01*
X95360365Y-103177345D01*
X95097345Y-103440365D01*
X94955000Y-103784017D01*
X94955000Y-104155983D01*
X95097345Y-104499635D01*
X95360365Y-104762655D01*
X95704017Y-104905000D01*
X96075983Y-104905000D01*
X96196694Y-104855000D01*
X106966737Y-104855000D01*
X106840365Y-104907345D01*
X106577345Y-105170365D01*
X106435000Y-105514017D01*
X106435000Y-105885983D01*
X106577345Y-106229635D01*
X106840365Y-106492655D01*
X106961078Y-106542656D01*
X108495000Y-108076579D01*
X108495001Y-112573422D01*
X107512656Y-111591078D01*
X107462655Y-111470365D01*
X107199635Y-111207345D01*
X106855983Y-111065000D01*
X106484017Y-111065000D01*
X106140365Y-111207345D01*
X105877345Y-111470365D01*
X105765355Y-111740733D01*
X105632655Y-111420365D01*
X105369635Y-111157345D01*
X105025983Y-111015000D01*
X104654017Y-111015000D01*
X104310365Y-111157345D01*
X104047345Y-111420365D01*
X103905000Y-111764017D01*
X103905000Y-112135983D01*
X103955000Y-112256695D01*
X103955001Y-112852835D01*
X103937663Y-112940000D01*
X103989984Y-113203038D01*
X103884663Y-113308359D01*
X103742318Y-113652011D01*
X103742318Y-114023977D01*
X103789693Y-114138351D01*
X103774981Y-114212316D01*
X103792318Y-114299477D01*
X103792318Y-114299480D01*
X103843666Y-114557625D01*
X104039269Y-114850365D01*
X104113165Y-114899741D01*
X105733423Y-116520000D01*
X102251579Y-116520000D01*
X102042655Y-116311077D01*
X101992655Y-116190365D01*
X101729635Y-115927345D01*
X101385983Y-115785000D01*
X101014017Y-115785000D01*
X100670365Y-115927345D01*
X100407345Y-116190365D01*
X100265000Y-116534017D01*
X100265000Y-116905983D01*
X100407345Y-117249635D01*
X100670365Y-117512655D01*
X100791077Y-117562655D01*
X101197577Y-117969156D01*
X101246951Y-118043049D01*
X101320844Y-118092423D01*
X101320845Y-118092424D01*
X101330567Y-118098920D01*
X101312577Y-118125844D01*
X100801077Y-118637344D01*
X100680365Y-118687345D01*
X100417345Y-118950365D01*
X100275000Y-119294017D01*
X100275000Y-119665983D01*
X100417345Y-120009635D01*
X100680365Y-120272655D01*
X101024017Y-120415000D01*
X101395983Y-120415000D01*
X101739635Y-120272655D01*
X102002655Y-120009635D01*
X102052656Y-119888923D01*
X102366579Y-119575000D01*
X106243304Y-119575000D01*
X106364015Y-119625000D01*
X106735981Y-119625000D01*
X107079633Y-119482655D01*
X107342653Y-119219635D01*
X107484998Y-118875983D01*
X107484998Y-118504017D01*
X107342653Y-118160365D01*
X107224789Y-118042501D01*
X107332655Y-117934635D01*
X107475000Y-117590983D01*
X107475000Y-117219017D01*
X107332655Y-116875365D01*
X107257291Y-116800001D01*
X107392657Y-116664635D01*
X107535002Y-116320983D01*
X107535002Y-115949017D01*
X107392657Y-115605365D01*
X107129637Y-115342345D01*
X107080359Y-115321933D01*
X107285529Y-115116763D01*
X107427874Y-114773111D01*
X107427874Y-114401145D01*
X107285529Y-114057493D01*
X107022509Y-113794473D01*
X106901796Y-113744472D01*
X106880300Y-113722976D01*
X106830924Y-113649080D01*
X106739714Y-113588135D01*
X105725000Y-112573422D01*
X105725000Y-112256694D01*
X105744645Y-112209267D01*
X105877345Y-112529635D01*
X106140365Y-112792655D01*
X106261078Y-112842656D01*
X108502577Y-115084156D01*
X108551951Y-115158049D01*
X108625844Y-115207423D01*
X108625845Y-115207424D01*
X108674600Y-115240001D01*
X108844690Y-115353652D01*
X109102835Y-115405000D01*
X109102839Y-115405000D01*
X109189999Y-115422337D01*
X109277159Y-115405000D01*
X110282839Y-115405000D01*
X110370000Y-115422337D01*
X110457161Y-115405000D01*
X110457165Y-115405000D01*
X110715310Y-115353652D01*
X111008049Y-115158049D01*
X111057425Y-115084153D01*
X112356580Y-113784999D01*
X114106431Y-113784999D01*
X113995000Y-114054017D01*
X113995000Y-114425983D01*
X114137345Y-114769635D01*
X114400365Y-115032655D01*
X114744017Y-115175000D01*
X115115983Y-115175000D01*
X115459635Y-115032655D01*
X115492290Y-115000000D01*
X116075153Y-115000000D01*
X116150000Y-115014888D01*
X116224847Y-115000000D01*
X116224852Y-115000000D01*
X116446537Y-114955904D01*
X116697929Y-114787929D01*
X116740331Y-114724470D01*
X123744476Y-107720327D01*
X123807929Y-107677929D01*
X123850327Y-107614476D01*
X123850329Y-107614474D01*
X123975903Y-107426538D01*
X123975904Y-107426537D01*
X124020000Y-107204852D01*
X124020000Y-107204848D01*
X124034888Y-107130001D01*
X124020000Y-107055154D01*
X124020000Y-103250000D01*
X124592710Y-103250000D01*
X124347345Y-103495365D01*
X124205000Y-103839017D01*
X124205000Y-104210983D01*
X124347345Y-104554635D01*
X124400001Y-104607291D01*
X124400000Y-108347710D01*
X124367345Y-108380365D01*
X124225000Y-108724017D01*
X124225000Y-109095983D01*
X124367345Y-109439635D01*
X124630365Y-109702655D01*
X124974017Y-109845000D01*
X125345983Y-109845000D01*
X125689635Y-109702655D01*
X125952655Y-109439635D01*
X126075001Y-109144266D01*
X126075001Y-114193420D01*
X125123526Y-115144895D01*
X125092655Y-115070365D01*
X124829635Y-114807345D01*
X124485983Y-114665000D01*
X124114017Y-114665000D01*
X123770365Y-114807345D01*
X123507345Y-115070365D01*
X123365000Y-115414017D01*
X123365000Y-115633421D01*
X122223001Y-116775421D01*
X122103306Y-116825000D01*
X121887292Y-116825000D01*
X122042656Y-116669636D01*
X122185001Y-116325984D01*
X122185001Y-115954018D01*
X122042656Y-115610366D01*
X121779636Y-115347346D01*
X121435984Y-115205001D01*
X121064018Y-115205001D01*
X120720366Y-115347346D01*
X120457346Y-115610366D01*
X120407345Y-115731079D01*
X120393424Y-115745000D01*
X114617159Y-115745000D01*
X114529999Y-115727663D01*
X114442839Y-115745000D01*
X114442835Y-115745000D01*
X114184690Y-115796348D01*
X114076880Y-115868385D01*
X113965845Y-115942576D01*
X113965844Y-115942577D01*
X113891951Y-115991951D01*
X113842577Y-116065844D01*
X112455000Y-117453421D01*
X112455000Y-116716694D01*
X112505000Y-116595983D01*
X112505000Y-116224017D01*
X112362655Y-115880365D01*
X112099635Y-115617345D01*
X111755983Y-115475000D01*
X111384017Y-115475000D01*
X111040365Y-115617345D01*
X110777345Y-115880365D01*
X110635000Y-116224017D01*
X110635000Y-116595983D01*
X110685000Y-116716694D01*
X110685000Y-116747100D01*
X110685001Y-117848304D01*
X110635000Y-117969017D01*
X110635000Y-118340983D01*
X110777345Y-118684635D01*
X111000566Y-118907856D01*
X109713422Y-120195000D01*
X106246694Y-120195000D01*
X106125983Y-120145000D01*
X105754017Y-120145000D01*
X105410365Y-120287345D01*
X105147345Y-120550365D01*
X105005000Y-120894017D01*
X105005000Y-121265983D01*
X105147345Y-121609635D01*
X105410365Y-121872655D01*
X105754017Y-122015000D01*
X106125983Y-122015000D01*
X106246694Y-121965000D01*
X109992839Y-121965000D01*
X110080000Y-121982337D01*
X110167161Y-121965000D01*
X110167165Y-121965000D01*
X110425310Y-121913652D01*
X110718049Y-121718049D01*
X110767425Y-121644153D01*
X111218900Y-121192678D01*
X111267345Y-121309635D01*
X111474999Y-121517289D01*
X111474999Y-124135000D01*
X111424006Y-124135000D01*
X111080354Y-124277345D01*
X110817334Y-124540365D01*
X110674989Y-124884017D01*
X110674989Y-125255983D01*
X110724989Y-125376694D01*
X110724990Y-126333304D01*
X110674989Y-126454017D01*
X110674989Y-126825983D01*
X110817334Y-127169635D01*
X111080354Y-127432655D01*
X111225603Y-127492819D01*
X111025847Y-127692575D01*
X110951951Y-127741951D01*
X110756348Y-128034691D01*
X110705000Y-128292836D01*
X110705000Y-128292839D01*
X110687663Y-128380000D01*
X110705000Y-128467161D01*
X110705001Y-129817837D01*
X110687663Y-129905002D01*
X110756348Y-130250311D01*
X110902576Y-130469156D01*
X110902578Y-130469158D01*
X110951952Y-130543051D01*
X111025845Y-130592425D01*
X111397573Y-130964153D01*
X111446949Y-131038049D01*
X111739688Y-131233652D01*
X111997833Y-131285000D01*
X111997837Y-131285000D01*
X112084998Y-131302337D01*
X112172159Y-131285000D01*
X113205000Y-131285000D01*
X113205000Y-131335993D01*
X113347345Y-131679645D01*
X113610365Y-131942665D01*
X113731078Y-131992666D01*
X113825001Y-132086589D01*
X113825000Y-134923421D01*
X113663422Y-135085000D01*
X112856694Y-135085000D01*
X112735983Y-135035000D01*
X112364017Y-135035000D01*
X112140011Y-135127786D01*
X112140011Y-133218448D01*
X112154899Y-133143600D01*
X112140011Y-133068752D01*
X112140011Y-133068748D01*
X112105255Y-132894017D01*
X112095915Y-132847062D01*
X111970340Y-132659127D01*
X111927940Y-132595671D01*
X111864484Y-132553271D01*
X110306742Y-130995530D01*
X110264340Y-130932071D01*
X110012948Y-130764096D01*
X109791263Y-130720000D01*
X109791258Y-130720000D01*
X109716411Y-130705112D01*
X109641564Y-130720000D01*
X109037062Y-130720000D01*
X109105000Y-130555983D01*
X109105000Y-130184017D01*
X109055000Y-130063306D01*
X109055000Y-123778410D01*
X109085000Y-123705983D01*
X109085000Y-123334017D01*
X108942655Y-122990365D01*
X108679635Y-122727345D01*
X108335983Y-122585000D01*
X107964017Y-122585000D01*
X107620365Y-122727345D01*
X107357345Y-122990365D01*
X107215000Y-123334017D01*
X107215000Y-123705983D01*
X107285001Y-123874981D01*
X107285000Y-129858571D01*
X107285000Y-130063306D01*
X107235000Y-130184017D01*
X107235000Y-130555983D01*
X107302938Y-130720000D01*
X101634802Y-130720000D01*
X101530000Y-130615199D01*
X101530000Y-123624846D01*
X101544888Y-123549999D01*
X101530000Y-123475152D01*
X101530000Y-123475148D01*
X101485904Y-123253463D01*
X101415051Y-123147424D01*
X101360329Y-123065526D01*
X101360327Y-123065524D01*
X101317929Y-123002071D01*
X101254476Y-122959673D01*
X97715000Y-119420199D01*
X97715000Y-119354017D01*
X97572655Y-119010365D01*
X97309635Y-118747345D01*
X96965983Y-118605000D01*
X96594017Y-118605000D01*
X96250365Y-118747345D01*
X95987345Y-119010365D01*
X95845000Y-119354017D01*
X95845000Y-119400199D01*
X95795000Y-119350199D01*
X95795000Y-119304017D01*
X95652655Y-118960365D01*
X95389635Y-118697345D01*
X95045983Y-118555000D01*
X94674017Y-118555000D01*
X94330365Y-118697345D01*
X94067345Y-118960365D01*
X93925000Y-119304017D01*
X93925000Y-119675983D01*
X94067345Y-120019635D01*
X94330365Y-120282655D01*
X94674017Y-120425000D01*
X94720199Y-120425000D01*
X99470001Y-125174803D01*
X99470001Y-125483058D01*
X99309017Y-125483058D01*
X98965365Y-125625403D01*
X98702345Y-125888423D01*
X98560000Y-126232075D01*
X98560000Y-126278256D01*
X98287431Y-126550826D01*
X98335000Y-126435983D01*
X98335000Y-126064017D01*
X98192655Y-125720365D01*
X97929635Y-125457345D01*
X97585983Y-125315000D01*
X97214017Y-125315000D01*
X96870365Y-125457345D01*
X96607345Y-125720365D01*
X96465000Y-126064017D01*
X96465000Y-126325768D01*
X96459635Y-126320403D01*
X96115983Y-126178058D01*
X95744017Y-126178058D01*
X95400365Y-126320403D01*
X95137345Y-126583423D01*
X95046369Y-126803058D01*
X95034028Y-126803058D01*
X94690376Y-126945403D01*
X94633766Y-127002013D01*
X94000000Y-126368248D01*
X94000000Y-124134846D01*
X94014888Y-124059999D01*
X94000000Y-123985152D01*
X94000000Y-123985148D01*
X93955904Y-123763463D01*
X93787929Y-123512071D01*
X93724473Y-123469671D01*
X91575000Y-121320199D01*
X91575000Y-121274017D01*
X91432655Y-120930365D01*
X91169635Y-120667345D01*
X90825983Y-120525000D01*
X90454017Y-120525000D01*
X90110365Y-120667345D01*
X89847345Y-120930365D01*
X89705000Y-121274017D01*
X89705000Y-121645983D01*
X89847345Y-121989635D01*
X90110365Y-122252655D01*
X90454017Y-122395000D01*
X90500199Y-122395000D01*
X92480000Y-124374802D01*
X92480000Y-124725000D01*
X92344017Y-124725000D01*
X92000365Y-124867345D01*
X91967710Y-124900000D01*
X91899844Y-124900000D01*
X91824997Y-124885112D01*
X91750150Y-124900000D01*
X91750146Y-124900000D01*
X91528461Y-124944096D01*
X91277069Y-125112071D01*
X91247946Y-125155656D01*
X91039635Y-124947345D01*
X90695983Y-124805000D01*
X90324017Y-124805000D01*
X89980365Y-124947345D01*
X89880000Y-125047710D01*
X89789613Y-124957323D01*
X89445961Y-124814978D01*
X89073995Y-124814978D01*
X88730343Y-124957323D01*
X88467323Y-125220343D01*
X88324978Y-125563995D01*
X88324978Y-125935961D01*
X88467323Y-126279613D01*
X88530002Y-126342292D01*
X88530001Y-130795000D01*
X88474017Y-130795000D01*
X88130365Y-130937345D01*
X87867345Y-131200365D01*
X87725000Y-131544017D01*
X87725000Y-131915983D01*
X87775000Y-132036694D01*
X87775000Y-132241428D01*
X87775001Y-132241433D01*
X87775000Y-135012839D01*
X87757663Y-135100000D01*
X87775000Y-135187161D01*
X87775000Y-135187164D01*
X87826348Y-135445309D01*
X88021951Y-135738049D01*
X88095846Y-135787425D01*
X88355001Y-136046579D01*
X88355000Y-138201820D01*
X88346896Y-138195169D01*
X88265397Y-138140713D01*
X88153460Y-138080881D01*
X88062904Y-138043372D01*
X87941451Y-138006530D01*
X87845318Y-137987408D01*
X87719009Y-137974968D01*
X87682106Y-137974968D01*
X87670000Y-137972560D01*
X87170000Y-137972560D01*
X87157894Y-137974968D01*
X87120991Y-137974968D01*
X86994682Y-137987408D01*
X86898549Y-138006530D01*
X86777096Y-138043372D01*
X86686540Y-138080881D01*
X86574603Y-138140713D01*
X86493104Y-138195169D01*
X86448977Y-138231383D01*
X86379999Y-138217663D01*
X86292839Y-138235000D01*
X86292835Y-138235000D01*
X86034690Y-138286348D01*
X85926880Y-138358385D01*
X85815845Y-138432576D01*
X85815844Y-138432577D01*
X85741951Y-138481951D01*
X85692577Y-138555844D01*
X84755847Y-139492575D01*
X84681951Y-139541951D01*
X84486348Y-139834691D01*
X84435000Y-140092836D01*
X84435000Y-140092839D01*
X84417663Y-140180000D01*
X84435000Y-140267161D01*
X84435000Y-140353306D01*
X84385000Y-140474017D01*
X84385000Y-140845983D01*
X84527345Y-141189635D01*
X84712676Y-141374966D01*
X84610365Y-141417345D01*
X84597710Y-141430000D01*
X83544802Y-141430000D01*
X82900000Y-140785199D01*
X82900000Y-118604801D01*
X83369485Y-118135317D01*
X83432941Y-118092917D01*
X83600916Y-117841525D01*
X83645012Y-117619840D01*
X83645012Y-117619836D01*
X83659900Y-117544989D01*
X83645012Y-117470142D01*
X83645012Y-115474017D01*
X83725000Y-115474017D01*
X83725000Y-115845983D01*
X83867345Y-116189635D01*
X84130365Y-116452655D01*
X84474017Y-116595000D01*
X84845983Y-116595000D01*
X85189635Y-116452655D01*
X85452655Y-116189635D01*
X85502656Y-116068923D01*
X85575001Y-115996578D01*
X85575000Y-122403306D01*
X85525000Y-122524017D01*
X85525000Y-122570198D01*
X84285530Y-123809669D01*
X84222071Y-123852071D01*
X84054096Y-124103464D01*
X84010000Y-124325149D01*
X84010000Y-124325153D01*
X83995112Y-124400000D01*
X84010000Y-124474847D01*
X84010001Y-133877709D01*
X83987345Y-133900365D01*
X83845000Y-134244017D01*
X83845000Y-134615983D01*
X83987345Y-134959635D01*
X84250365Y-135222655D01*
X84594017Y-135365000D01*
X84965983Y-135365000D01*
X85309635Y-135222655D01*
X85572655Y-134959635D01*
X85715000Y-134615983D01*
X85715000Y-134244017D01*
X85572655Y-133900365D01*
X85530000Y-133857710D01*
X85530000Y-124714801D01*
X86599802Y-123645000D01*
X86645983Y-123645000D01*
X86989635Y-123502655D01*
X87252655Y-123239635D01*
X87395000Y-122895983D01*
X87395000Y-122524017D01*
X87345000Y-122403306D01*
X87345000Y-112987159D01*
X87362337Y-112899999D01*
X87345000Y-112812839D01*
X87345000Y-112812835D01*
X87293652Y-112554690D01*
X87160298Y-112355112D01*
X87147424Y-112335845D01*
X87147423Y-112335844D01*
X87098049Y-112261951D01*
X87024156Y-112212577D01*
X86167425Y-111355847D01*
X86118049Y-111281951D01*
X85825310Y-111086348D01*
X85567165Y-111035000D01*
X85567161Y-111035000D01*
X85480000Y-111017663D01*
X85392839Y-111035000D01*
X85296694Y-111035000D01*
X85175983Y-110985000D01*
X84804017Y-110985000D01*
X84460365Y-111127345D01*
X84197345Y-111390365D01*
X84055000Y-111734017D01*
X84055000Y-112105983D01*
X84197345Y-112449635D01*
X84460365Y-112712655D01*
X84804017Y-112855000D01*
X85163422Y-112855000D01*
X85328091Y-113019669D01*
X85269348Y-113019669D01*
X84925696Y-113162014D01*
X84662676Y-113425034D01*
X84520331Y-113768686D01*
X84520331Y-114140652D01*
X84575001Y-114272636D01*
X84575000Y-114493421D01*
X84251077Y-114817344D01*
X84130365Y-114867345D01*
X83867345Y-115130365D01*
X83725000Y-115474017D01*
X83645012Y-115474017D01*
X83645012Y-113829850D01*
X83659900Y-113755002D01*
X83645012Y-113680154D01*
X83645012Y-113680150D01*
X83600916Y-113458465D01*
X83600916Y-113458464D01*
X83538278Y-113364720D01*
X83432941Y-113207073D01*
X83369482Y-113164671D01*
X83195010Y-112990199D01*
X83195010Y-112944017D01*
X83052665Y-112600365D01*
X82789645Y-112337345D01*
X82445993Y-112195000D01*
X82074027Y-112195000D01*
X81730375Y-112337345D01*
X81470000Y-112597720D01*
X81470000Y-110514017D01*
X97555000Y-110514017D01*
X97555000Y-110885983D01*
X97697345Y-111229635D01*
X97960365Y-111492655D01*
X98304017Y-111635000D01*
X98675983Y-111635000D01*
X99019635Y-111492655D01*
X99282655Y-111229635D01*
X99332656Y-111108922D01*
X102806579Y-107635000D01*
X103503306Y-107635000D01*
X103624017Y-107685000D01*
X103995983Y-107685000D01*
X104339635Y-107542655D01*
X104602655Y-107279635D01*
X104745000Y-106935983D01*
X104745000Y-106564017D01*
X104602655Y-106220365D01*
X104339635Y-105957345D01*
X103995983Y-105815000D01*
X103624017Y-105815000D01*
X103503306Y-105865000D01*
X102527161Y-105865000D01*
X102440000Y-105847663D01*
X102352839Y-105865000D01*
X102352835Y-105865000D01*
X102094690Y-105916348D01*
X101875845Y-106062576D01*
X101875844Y-106062577D01*
X101801951Y-106111951D01*
X101752577Y-106185844D01*
X98081078Y-109857344D01*
X97960365Y-109907345D01*
X97697345Y-110170365D01*
X97555000Y-110514017D01*
X81470000Y-110514017D01*
X81470000Y-101654615D01*
X85315000Y-101654615D01*
X85315000Y-102245385D01*
X85541078Y-102791185D01*
X85958815Y-103208922D01*
X86504615Y-103435000D01*
X87095385Y-103435000D01*
X87641185Y-103208922D01*
X88058922Y-102791185D01*
X88285000Y-102245385D01*
X88285000Y-101654615D01*
X88058922Y-101108815D01*
X87641185Y-100691078D01*
X87095385Y-100465000D01*
X86504615Y-100465000D01*
X85958815Y-100691078D01*
X85541078Y-101108815D01*
X85315000Y-101654615D01*
X81470000Y-101654615D01*
X81470000Y-94654615D01*
X85315000Y-94654615D01*
X85315000Y-95245385D01*
X85541078Y-95791185D01*
X85958815Y-96208922D01*
X86504615Y-96435000D01*
X87095385Y-96435000D01*
X87641185Y-96208922D01*
X88058922Y-95791185D01*
X88285000Y-95245385D01*
X88285000Y-94654615D01*
X112040000Y-94654615D01*
X112040000Y-95245385D01*
X112266078Y-95791185D01*
X112683815Y-96208922D01*
X113229615Y-96435000D01*
X113820385Y-96435000D01*
X114366185Y-96208922D01*
X114783922Y-95791185D01*
X115010000Y-95245385D01*
X115010000Y-94654615D01*
X114783922Y-94108815D01*
X114366185Y-93691078D01*
X113820385Y-93465000D01*
X113229615Y-93465000D01*
X112683815Y-93691078D01*
X112266078Y-94108815D01*
X112040000Y-94654615D01*
X88285000Y-94654615D01*
X88058922Y-94108815D01*
X87641185Y-93691078D01*
X87095385Y-93465000D01*
X86504615Y-93465000D01*
X85958815Y-93691078D01*
X85541078Y-94108815D01*
X85315000Y-94654615D01*
X81470000Y-94654615D01*
X81470000Y-93084180D01*
X91015000Y-93084180D01*
X91015000Y-93515820D01*
X91180182Y-93914603D01*
X91485397Y-94219818D01*
X91884180Y-94385000D01*
X92315820Y-94385000D01*
X92714603Y-94219818D01*
X93019818Y-93914603D01*
X93185000Y-93515820D01*
X93185000Y-93084180D01*
X97815000Y-93084180D01*
X97815000Y-93515820D01*
X97980182Y-93914603D01*
X98285397Y-94219818D01*
X98684180Y-94385000D01*
X99115820Y-94385000D01*
X99514603Y-94219818D01*
X99819818Y-93914603D01*
X99985000Y-93515820D01*
X99985000Y-93084180D01*
X117815000Y-93084180D01*
X117815000Y-93515820D01*
X117980182Y-93914603D01*
X118285397Y-94219818D01*
X118684180Y-94385000D01*
X119115820Y-94385000D01*
X119514603Y-94219818D01*
X119819818Y-93914603D01*
X119985000Y-93515820D01*
X119985000Y-93084180D01*
X124615000Y-93084180D01*
X124615000Y-93515820D01*
X124780182Y-93914603D01*
X125085397Y-94219818D01*
X125484180Y-94385000D01*
X125915820Y-94385000D01*
X126314603Y-94219818D01*
X126619818Y-93914603D01*
X126785000Y-93515820D01*
X126785000Y-93084180D01*
X126619818Y-92685397D01*
X126314603Y-92380182D01*
X125915820Y-92215000D01*
X125484180Y-92215000D01*
X125085397Y-92380182D01*
X124780182Y-92685397D01*
X124615000Y-93084180D01*
X119985000Y-93084180D01*
X119819818Y-92685397D01*
X119514603Y-92380182D01*
X119115820Y-92215000D01*
X118684180Y-92215000D01*
X118285397Y-92380182D01*
X117980182Y-92685397D01*
X117815000Y-93084180D01*
X99985000Y-93084180D01*
X99819818Y-92685397D01*
X99514603Y-92380182D01*
X99115820Y-92215000D01*
X98684180Y-92215000D01*
X98285397Y-92380182D01*
X97980182Y-92685397D01*
X97815000Y-93084180D01*
X93185000Y-93084180D01*
X93019818Y-92685397D01*
X92714603Y-92380182D01*
X92315820Y-92215000D01*
X91884180Y-92215000D01*
X91485397Y-92380182D01*
X91180182Y-92685397D01*
X91015000Y-93084180D01*
X81470000Y-93084180D01*
X81470000Y-91870000D01*
X131050000Y-91870000D01*
X131050001Y-144873000D01*
X131050001Y-144873000D01*
G37*
X131050001Y-144873000D02*
X81470000Y-144873000D01*
X81470000Y-142141212D01*
X82823260Y-143494473D01*
X82865660Y-143557929D01*
X82929116Y-143600329D01*
X83117051Y-143725904D01*
X83158899Y-143734228D01*
X83338737Y-143770000D01*
X83338741Y-143770000D01*
X83413589Y-143784888D01*
X83488437Y-143770000D01*
X83937710Y-143770000D01*
X83980365Y-143812655D01*
X84324017Y-143955000D01*
X84695983Y-143955000D01*
X85039635Y-143812655D01*
X85302655Y-143549635D01*
X85445000Y-143205983D01*
X85445000Y-143095702D01*
X85669635Y-143002655D01*
X85932655Y-142739635D01*
X86075000Y-142395983D01*
X86075000Y-142052339D01*
X86093372Y-142112904D01*
X86130881Y-142203460D01*
X86190713Y-142315397D01*
X86245169Y-142396896D01*
X86325686Y-142495006D01*
X86394994Y-142564314D01*
X86493104Y-142644831D01*
X86522536Y-142664497D01*
X86535000Y-142727161D01*
X86535000Y-142727164D01*
X86586348Y-142985309D01*
X86781951Y-143278049D01*
X86855847Y-143327425D01*
X87592577Y-144064156D01*
X87641951Y-144138049D01*
X87715844Y-144187423D01*
X87715845Y-144187424D01*
X87848263Y-144275903D01*
X87934690Y-144333652D01*
X88192835Y-144385000D01*
X88192839Y-144385000D01*
X88280000Y-144402337D01*
X88357801Y-144386862D01*
X88474017Y-144435000D01*
X88845983Y-144435000D01*
X89189635Y-144292655D01*
X89452655Y-144029635D01*
X89595000Y-143685983D01*
X89595000Y-143314017D01*
X89452655Y-142970365D01*
X89267290Y-142785000D01*
X89545983Y-142785000D01*
X89790311Y-142683796D01*
X90034028Y-142784747D01*
X90164551Y-142784747D01*
X90164551Y-142990959D01*
X90247749Y-143191817D01*
X90147838Y-143433024D01*
X90147838Y-143804990D01*
X90290183Y-144148642D01*
X90553203Y-144411662D01*
X90896855Y-144554007D01*
X91268821Y-144554007D01*
X91612473Y-144411662D01*
X91674135Y-144350000D01*
X92517712Y-144350000D01*
X92550367Y-144382655D01*
X92894019Y-144525000D01*
X93265985Y-144525000D01*
X93609637Y-144382655D01*
X93735001Y-144257291D01*
X93820365Y-144342655D01*
X94164017Y-144485000D01*
X94535983Y-144485000D01*
X94879635Y-144342655D01*
X95075000Y-144147290D01*
X95200372Y-144272662D01*
X95544024Y-144415007D01*
X95915990Y-144415007D01*
X96259642Y-144272662D01*
X96393058Y-144139246D01*
X96490365Y-144236553D01*
X96834017Y-144378898D01*
X97205983Y-144378898D01*
X97425628Y-144287918D01*
X97490365Y-144352655D01*
X97834017Y-144495000D01*
X98205983Y-144495000D01*
X98549635Y-144352655D01*
X98669266Y-144233024D01*
X98681606Y-144235479D01*
X98855149Y-144269999D01*
X98855153Y-144269999D01*
X98930001Y-144284887D01*
X99004849Y-144269999D01*
X100407709Y-144269999D01*
X100440364Y-144302654D01*
X100784016Y-144444999D01*
X101155982Y-144444999D01*
X101499634Y-144302654D01*
X101762654Y-144039634D01*
X101766221Y-144031023D01*
X101834725Y-144099527D01*
X101877125Y-144162983D01*
X102128517Y-144330958D01*
X102350202Y-144375054D01*
X102350206Y-144375054D01*
X102425054Y-144389942D01*
X102499902Y-144375054D01*
X108487710Y-144375054D01*
X108520365Y-144407709D01*
X108864017Y-144550054D01*
X109235983Y-144550054D01*
X109579635Y-144407709D01*
X109842655Y-144144689D01*
X109884686Y-144043216D01*
X109887345Y-144049635D01*
X110150365Y-144312655D01*
X110494017Y-144455000D01*
X110865983Y-144455000D01*
X111209635Y-144312655D01*
X111472655Y-144049635D01*
X111615000Y-143705983D01*
X111615000Y-143334017D01*
X111600923Y-143300033D01*
X112330764Y-143300033D01*
X112345000Y-143302865D01*
X112345000Y-143445983D01*
X112487345Y-143789635D01*
X112750365Y-144052655D01*
X113094017Y-144195000D01*
X113135049Y-144195000D01*
X113167081Y-144242939D01*
X113418473Y-144410914D01*
X113640158Y-144455010D01*
X113640162Y-144455010D01*
X113715009Y-144469898D01*
X113789856Y-144455010D01*
X115437710Y-144455010D01*
X115470365Y-144487665D01*
X115814017Y-144630010D01*
X116185983Y-144630010D01*
X116529635Y-144487665D01*
X116782506Y-144234794D01*
X116980365Y-144432653D01*
X117324017Y-144574998D01*
X117695983Y-144574998D01*
X118039635Y-144432653D01*
X118259999Y-144212289D01*
X118480365Y-144432655D01*
X118824017Y-144575000D01*
X119195983Y-144575000D01*
X119539635Y-144432655D01*
X119790001Y-144182289D01*
X120020365Y-144412653D01*
X120364017Y-144554998D01*
X120735983Y-144554998D01*
X121079635Y-144412653D01*
X121279998Y-144212290D01*
X121490365Y-144422657D01*
X121834017Y-144565002D01*
X122205983Y-144565002D01*
X122549635Y-144422657D01*
X122734997Y-144237295D01*
X122960354Y-144462652D01*
X123304006Y-144604997D01*
X123675972Y-144604997D01*
X124019624Y-144462652D01*
X124282644Y-144199632D01*
X124424989Y-143855980D01*
X124424989Y-143484014D01*
X124282644Y-143140362D01*
X124019624Y-142877342D01*
X123675972Y-142734997D01*
X123629792Y-142734997D01*
X120740323Y-139845530D01*
X120697921Y-139782071D01*
X120446529Y-139614096D01*
X120224844Y-139570000D01*
X120224839Y-139570000D01*
X120149992Y-139555112D01*
X120075145Y-139570000D01*
X118921209Y-139570000D01*
X121181211Y-137310000D01*
X121347710Y-137310000D01*
X121277345Y-137380365D01*
X121135000Y-137724017D01*
X121135000Y-138095983D01*
X121277345Y-138439635D01*
X121540365Y-138702655D01*
X121661078Y-138752656D01*
X121682575Y-138774153D01*
X123652577Y-140744156D01*
X123701951Y-140818049D01*
X123775844Y-140867423D01*
X123775845Y-140867424D01*
X123886354Y-140941264D01*
X123994690Y-141013652D01*
X124252835Y-141065000D01*
X124252839Y-141065000D01*
X124339999Y-141082337D01*
X124427159Y-141065000D01*
X127742839Y-141065000D01*
X127830000Y-141082337D01*
X127917161Y-141065000D01*
X127917165Y-141065000D01*
X128175310Y-141013652D01*
X128468049Y-140818049D01*
X128517425Y-140744153D01*
X129724156Y-139537423D01*
X129798049Y-139488049D01*
X129866301Y-139385904D01*
X129926688Y-139295528D01*
X129993652Y-139195310D01*
X130045000Y-138937165D01*
X130045000Y-138937160D01*
X130062337Y-138850001D01*
X130045000Y-138762841D01*
X130045000Y-133940138D01*
X130159635Y-133892655D01*
X130422655Y-133629635D01*
X130565000Y-133285983D01*
X130565000Y-132914017D01*
X130422655Y-132570365D01*
X130159635Y-132307345D01*
X130038922Y-132257344D01*
X129755000Y-131973422D01*
X129755000Y-131886684D01*
X129805000Y-131765973D01*
X129805000Y-131394007D01*
X129662655Y-131050355D01*
X129399635Y-130787335D01*
X129055983Y-130644990D01*
X128684017Y-130644990D01*
X128340365Y-130787335D01*
X128077345Y-131050355D01*
X127949816Y-131358238D01*
X126427424Y-129835846D01*
X126378049Y-129761951D01*
X126085310Y-129566348D01*
X125827165Y-129515000D01*
X125827161Y-129515000D01*
X125740000Y-129497663D01*
X125652839Y-129515000D01*
X118121547Y-129515000D01*
X118199635Y-129482655D01*
X118462655Y-129219635D01*
X118605000Y-128875983D01*
X118605000Y-128504017D01*
X118555000Y-128383306D01*
X118555000Y-127287159D01*
X118572337Y-127199999D01*
X118555000Y-127112839D01*
X118555000Y-127112835D01*
X118503652Y-126854690D01*
X118405412Y-126707664D01*
X118357424Y-126635845D01*
X118357423Y-126635844D01*
X118308049Y-126561951D01*
X118234156Y-126512577D01*
X117065000Y-125343422D01*
X117065000Y-124246412D01*
X117134017Y-124275000D01*
X117505983Y-124275000D01*
X117849635Y-124132655D01*
X118112655Y-123869635D01*
X118162656Y-123748922D01*
X118307423Y-123604155D01*
X119516579Y-122395000D01*
X121302839Y-122395000D01*
X121390000Y-122412337D01*
X121477161Y-122395000D01*
X121477165Y-122395000D01*
X121735310Y-122343652D01*
X122028049Y-122148049D01*
X122077425Y-122074153D01*
X128224156Y-115927423D01*
X128298049Y-115878049D01*
X128352640Y-115796349D01*
X128398534Y-115727663D01*
X128493652Y-115585310D01*
X128545000Y-115327165D01*
X128545000Y-115327160D01*
X128562337Y-115240001D01*
X128545000Y-115152841D01*
X128545000Y-104846578D01*
X129074156Y-104317423D01*
X129148049Y-104268049D01*
X129237157Y-104134691D01*
X129343651Y-103975311D01*
X129343652Y-103975310D01*
X129395000Y-103717165D01*
X129395000Y-103717161D01*
X129412337Y-103630001D01*
X129395000Y-103542841D01*
X129395000Y-101316694D01*
X129445000Y-101195983D01*
X129445000Y-100824017D01*
X129395000Y-100703306D01*
X129395000Y-100672895D01*
X129412337Y-100585735D01*
X129395000Y-100498575D01*
X129395000Y-100498571D01*
X129343652Y-100240426D01*
X129271615Y-100132616D01*
X129197424Y-100021581D01*
X129197423Y-100021580D01*
X129148049Y-99947687D01*
X129074156Y-99898313D01*
X128461690Y-99285848D01*
X128412314Y-99211952D01*
X128119575Y-99016349D01*
X127861430Y-98965001D01*
X127861426Y-98965001D01*
X127774265Y-98947664D01*
X127687104Y-98965001D01*
X111647158Y-98965001D01*
X111559998Y-98947664D01*
X111472838Y-98965001D01*
X111472834Y-98965001D01*
X111214689Y-99016349D01*
X111214687Y-99016350D01*
X111214688Y-99016350D01*
X110995844Y-99162577D01*
X110995843Y-99162578D01*
X110921950Y-99211952D01*
X110872576Y-99285845D01*
X109073422Y-101085000D01*
X93696694Y-101085000D01*
X93575983Y-101035000D01*
X93204017Y-101035000D01*
X92860365Y-101177345D01*
X92597345Y-101440365D01*
X92455000Y-101784017D01*
X92455000Y-102155983D01*
X92597345Y-102499635D01*
X92860365Y-102762655D01*
X93204017Y-102905000D01*
X93575983Y-102905000D01*
X93696694Y-102855000D01*
X109352839Y-102855000D01*
X109440000Y-102872337D01*
X109527161Y-102855000D01*
X109527165Y-102855000D01*
X109785310Y-102803652D01*
X110078049Y-102608049D01*
X110127425Y-102534153D01*
X111926578Y-100735001D01*
X112639892Y-100735001D01*
X112266078Y-101108815D01*
X112040000Y-101654615D01*
X112040000Y-102245385D01*
X112266078Y-102791185D01*
X112559893Y-103085000D01*
X96196694Y-103085000D01*
X96075983Y-103035000D01*
X95704017Y-103035000D01*
X95360365Y-103177345D01*
X95097345Y-103440365D01*
X94955000Y-103784017D01*
X94955000Y-104155983D01*
X95097345Y-104499635D01*
X95360365Y-104762655D01*
X95704017Y-104905000D01*
X96075983Y-104905000D01*
X96196694Y-104855000D01*
X106966737Y-104855000D01*
X106840365Y-104907345D01*
X106577345Y-105170365D01*
X106435000Y-105514017D01*
X106435000Y-105885983D01*
X106577345Y-106229635D01*
X106840365Y-106492655D01*
X106961078Y-106542656D01*
X108495000Y-108076579D01*
X108495001Y-112573422D01*
X107512656Y-111591078D01*
X107462655Y-111470365D01*
X107199635Y-111207345D01*
X106855983Y-111065000D01*
X106484017Y-111065000D01*
X106140365Y-111207345D01*
X105877345Y-111470365D01*
X105765355Y-111740733D01*
X105632655Y-111420365D01*
X105369635Y-111157345D01*
X105025983Y-111015000D01*
X104654017Y-111015000D01*
X104310365Y-111157345D01*
X104047345Y-111420365D01*
X103905000Y-111764017D01*
X103905000Y-112135983D01*
X103955000Y-112256695D01*
X103955001Y-112852835D01*
X103937663Y-112940000D01*
X103989984Y-113203038D01*
X103884663Y-113308359D01*
X103742318Y-113652011D01*
X103742318Y-114023977D01*
X103789693Y-114138351D01*
X103774981Y-114212316D01*
X103792318Y-114299477D01*
X103792318Y-114299480D01*
X103843666Y-114557625D01*
X104039269Y-114850365D01*
X104113165Y-114899741D01*
X105733423Y-116520000D01*
X102251579Y-116520000D01*
X102042655Y-116311077D01*
X101992655Y-116190365D01*
X101729635Y-115927345D01*
X101385983Y-115785000D01*
X101014017Y-115785000D01*
X100670365Y-115927345D01*
X100407345Y-116190365D01*
X100265000Y-116534017D01*
X100265000Y-116905983D01*
X100407345Y-117249635D01*
X100670365Y-117512655D01*
X100791077Y-117562655D01*
X101197577Y-117969156D01*
X101246951Y-118043049D01*
X101320844Y-118092423D01*
X101320845Y-118092424D01*
X101330567Y-118098920D01*
X101312577Y-118125844D01*
X100801077Y-118637344D01*
X100680365Y-118687345D01*
X100417345Y-118950365D01*
X100275000Y-119294017D01*
X100275000Y-119665983D01*
X100417345Y-120009635D01*
X100680365Y-120272655D01*
X101024017Y-120415000D01*
X101395983Y-120415000D01*
X101739635Y-120272655D01*
X102002655Y-120009635D01*
X102052656Y-119888923D01*
X102366579Y-119575000D01*
X106243304Y-119575000D01*
X106364015Y-119625000D01*
X106735981Y-119625000D01*
X107079633Y-119482655D01*
X107342653Y-119219635D01*
X107484998Y-118875983D01*
X107484998Y-118504017D01*
X107342653Y-118160365D01*
X107224789Y-118042501D01*
X107332655Y-117934635D01*
X107475000Y-117590983D01*
X107475000Y-117219017D01*
X107332655Y-116875365D01*
X107257291Y-116800001D01*
X107392657Y-116664635D01*
X107535002Y-116320983D01*
X107535002Y-115949017D01*
X107392657Y-115605365D01*
X107129637Y-115342345D01*
X107080359Y-115321933D01*
X107285529Y-115116763D01*
X107427874Y-114773111D01*
X107427874Y-114401145D01*
X107285529Y-114057493D01*
X107022509Y-113794473D01*
X106901796Y-113744472D01*
X106880300Y-113722976D01*
X106830924Y-113649080D01*
X106739714Y-113588135D01*
X105725000Y-112573422D01*
X105725000Y-112256694D01*
X105744645Y-112209267D01*
X105877345Y-112529635D01*
X106140365Y-112792655D01*
X106261078Y-112842656D01*
X108502577Y-115084156D01*
X108551951Y-115158049D01*
X108625844Y-115207423D01*
X108625845Y-115207424D01*
X108674600Y-115240001D01*
X108844690Y-115353652D01*
X109102835Y-115405000D01*
X109102839Y-115405000D01*
X109189999Y-115422337D01*
X109277159Y-115405000D01*
X110282839Y-115405000D01*
X110370000Y-115422337D01*
X110457161Y-115405000D01*
X110457165Y-115405000D01*
X110715310Y-115353652D01*
X111008049Y-115158049D01*
X111057425Y-115084153D01*
X112356580Y-113784999D01*
X114106431Y-113784999D01*
X113995000Y-114054017D01*
X113995000Y-114425983D01*
X114137345Y-114769635D01*
X114400365Y-115032655D01*
X114744017Y-115175000D01*
X115115983Y-115175000D01*
X115459635Y-115032655D01*
X115492290Y-115000000D01*
X116075153Y-115000000D01*
X116150000Y-115014888D01*
X116224847Y-115000000D01*
X116224852Y-115000000D01*
X116446537Y-114955904D01*
X116697929Y-114787929D01*
X116740331Y-114724470D01*
X123744476Y-107720327D01*
X123807929Y-107677929D01*
X123850327Y-107614476D01*
X123850329Y-107614474D01*
X123975903Y-107426538D01*
X123975904Y-107426537D01*
X124020000Y-107204852D01*
X124020000Y-107204848D01*
X124034888Y-107130001D01*
X124020000Y-107055154D01*
X124020000Y-103250000D01*
X124592710Y-103250000D01*
X124347345Y-103495365D01*
X124205000Y-103839017D01*
X124205000Y-104210983D01*
X124347345Y-104554635D01*
X124400001Y-104607291D01*
X124400000Y-108347710D01*
X124367345Y-108380365D01*
X124225000Y-108724017D01*
X124225000Y-109095983D01*
X124367345Y-109439635D01*
X124630365Y-109702655D01*
X124974017Y-109845000D01*
X125345983Y-109845000D01*
X125689635Y-109702655D01*
X125952655Y-109439635D01*
X126075001Y-109144266D01*
X126075001Y-114193420D01*
X125123526Y-115144895D01*
X125092655Y-115070365D01*
X124829635Y-114807345D01*
X124485983Y-114665000D01*
X124114017Y-114665000D01*
X123770365Y-114807345D01*
X123507345Y-115070365D01*
X123365000Y-115414017D01*
X123365000Y-115633421D01*
X122223001Y-116775421D01*
X122103306Y-116825000D01*
X121887292Y-116825000D01*
X122042656Y-116669636D01*
X122185001Y-116325984D01*
X122185001Y-115954018D01*
X122042656Y-115610366D01*
X121779636Y-115347346D01*
X121435984Y-115205001D01*
X121064018Y-115205001D01*
X120720366Y-115347346D01*
X120457346Y-115610366D01*
X120407345Y-115731079D01*
X120393424Y-115745000D01*
X114617159Y-115745000D01*
X114529999Y-115727663D01*
X114442839Y-115745000D01*
X114442835Y-115745000D01*
X114184690Y-115796348D01*
X114076880Y-115868385D01*
X113965845Y-115942576D01*
X113965844Y-115942577D01*
X113891951Y-115991951D01*
X113842577Y-116065844D01*
X112455000Y-117453421D01*
X112455000Y-116716694D01*
X112505000Y-116595983D01*
X112505000Y-116224017D01*
X112362655Y-115880365D01*
X112099635Y-115617345D01*
X111755983Y-115475000D01*
X111384017Y-115475000D01*
X111040365Y-115617345D01*
X110777345Y-115880365D01*
X110635000Y-116224017D01*
X110635000Y-116595983D01*
X110685000Y-116716694D01*
X110685000Y-116747100D01*
X110685001Y-117848304D01*
X110635000Y-117969017D01*
X110635000Y-118340983D01*
X110777345Y-118684635D01*
X111000566Y-118907856D01*
X109713422Y-120195000D01*
X106246694Y-120195000D01*
X106125983Y-120145000D01*
X105754017Y-120145000D01*
X105410365Y-120287345D01*
X105147345Y-120550365D01*
X105005000Y-120894017D01*
X105005000Y-121265983D01*
X105147345Y-121609635D01*
X105410365Y-121872655D01*
X105754017Y-122015000D01*
X106125983Y-122015000D01*
X106246694Y-121965000D01*
X109992839Y-121965000D01*
X110080000Y-121982337D01*
X110167161Y-121965000D01*
X110167165Y-121965000D01*
X110425310Y-121913652D01*
X110718049Y-121718049D01*
X110767425Y-121644153D01*
X111218900Y-121192678D01*
X111267345Y-121309635D01*
X111474999Y-121517289D01*
X111474999Y-124135000D01*
X111424006Y-124135000D01*
X111080354Y-124277345D01*
X110817334Y-124540365D01*
X110674989Y-124884017D01*
X110674989Y-125255983D01*
X110724989Y-125376694D01*
X110724990Y-126333304D01*
X110674989Y-126454017D01*
X110674989Y-126825983D01*
X110817334Y-127169635D01*
X111080354Y-127432655D01*
X111225603Y-127492819D01*
X111025847Y-127692575D01*
X110951951Y-127741951D01*
X110756348Y-128034691D01*
X110705000Y-128292836D01*
X110705000Y-128292839D01*
X110687663Y-128380000D01*
X110705000Y-128467161D01*
X110705001Y-129817837D01*
X110687663Y-129905002D01*
X110756348Y-130250311D01*
X110902576Y-130469156D01*
X110902578Y-130469158D01*
X110951952Y-130543051D01*
X111025845Y-130592425D01*
X111397573Y-130964153D01*
X111446949Y-131038049D01*
X111739688Y-131233652D01*
X111997833Y-131285000D01*
X111997837Y-131285000D01*
X112084998Y-131302337D01*
X112172159Y-131285000D01*
X113205000Y-131285000D01*
X113205000Y-131335993D01*
X113347345Y-131679645D01*
X113610365Y-131942665D01*
X113731078Y-131992666D01*
X113825001Y-132086589D01*
X113825000Y-134923421D01*
X113663422Y-135085000D01*
X112856694Y-135085000D01*
X112735983Y-135035000D01*
X112364017Y-135035000D01*
X112140011Y-135127786D01*
X112140011Y-133218448D01*
X112154899Y-133143600D01*
X112140011Y-133068752D01*
X112140011Y-133068748D01*
X112105255Y-132894017D01*
X112095915Y-132847062D01*
X111970340Y-132659127D01*
X111927940Y-132595671D01*
X111864484Y-132553271D01*
X110306742Y-130995530D01*
X110264340Y-130932071D01*
X110012948Y-130764096D01*
X109791263Y-130720000D01*
X109791258Y-130720000D01*
X109716411Y-130705112D01*
X109641564Y-130720000D01*
X109037062Y-130720000D01*
X109105000Y-130555983D01*
X109105000Y-130184017D01*
X109055000Y-130063306D01*
X109055000Y-123778410D01*
X109085000Y-123705983D01*
X109085000Y-123334017D01*
X108942655Y-122990365D01*
X108679635Y-122727345D01*
X108335983Y-122585000D01*
X107964017Y-122585000D01*
X107620365Y-122727345D01*
X107357345Y-122990365D01*
X107215000Y-123334017D01*
X107215000Y-123705983D01*
X107285001Y-123874981D01*
X107285000Y-129858571D01*
X107285000Y-130063306D01*
X107235000Y-130184017D01*
X107235000Y-130555983D01*
X107302938Y-130720000D01*
X101634802Y-130720000D01*
X101530000Y-130615199D01*
X101530000Y-123624846D01*
X101544888Y-123549999D01*
X101530000Y-123475152D01*
X101530000Y-123475148D01*
X101485904Y-123253463D01*
X101415051Y-123147424D01*
X101360329Y-123065526D01*
X101360327Y-123065524D01*
X101317929Y-123002071D01*
X101254476Y-122959673D01*
X97715000Y-119420199D01*
X97715000Y-119354017D01*
X97572655Y-119010365D01*
X97309635Y-118747345D01*
X96965983Y-118605000D01*
X96594017Y-118605000D01*
X96250365Y-118747345D01*
X95987345Y-119010365D01*
X95845000Y-119354017D01*
X95845000Y-119400199D01*
X95795000Y-119350199D01*
X95795000Y-119304017D01*
X95652655Y-118960365D01*
X95389635Y-118697345D01*
X95045983Y-118555000D01*
X94674017Y-118555000D01*
X94330365Y-118697345D01*
X94067345Y-118960365D01*
X93925000Y-119304017D01*
X93925000Y-119675983D01*
X94067345Y-120019635D01*
X94330365Y-120282655D01*
X94674017Y-120425000D01*
X94720199Y-120425000D01*
X99470001Y-125174803D01*
X99470001Y-125483058D01*
X99309017Y-125483058D01*
X98965365Y-125625403D01*
X98702345Y-125888423D01*
X98560000Y-126232075D01*
X98560000Y-126278256D01*
X98287431Y-126550826D01*
X98335000Y-126435983D01*
X98335000Y-126064017D01*
X98192655Y-125720365D01*
X97929635Y-125457345D01*
X97585983Y-125315000D01*
X97214017Y-125315000D01*
X96870365Y-125457345D01*
X96607345Y-125720365D01*
X96465000Y-126064017D01*
X96465000Y-126325768D01*
X96459635Y-126320403D01*
X96115983Y-126178058D01*
X95744017Y-126178058D01*
X95400365Y-126320403D01*
X95137345Y-126583423D01*
X95046369Y-126803058D01*
X95034028Y-126803058D01*
X94690376Y-126945403D01*
X94633766Y-127002013D01*
X94000000Y-126368248D01*
X94000000Y-124134846D01*
X94014888Y-124059999D01*
X94000000Y-123985152D01*
X94000000Y-123985148D01*
X93955904Y-123763463D01*
X93787929Y-123512071D01*
X93724473Y-123469671D01*
X91575000Y-121320199D01*
X91575000Y-121274017D01*
X91432655Y-120930365D01*
X91169635Y-120667345D01*
X90825983Y-120525000D01*
X90454017Y-120525000D01*
X90110365Y-120667345D01*
X89847345Y-120930365D01*
X89705000Y-121274017D01*
X89705000Y-121645983D01*
X89847345Y-121989635D01*
X90110365Y-122252655D01*
X90454017Y-122395000D01*
X90500199Y-122395000D01*
X92480000Y-124374802D01*
X92480000Y-124725000D01*
X92344017Y-124725000D01*
X92000365Y-124867345D01*
X91967710Y-124900000D01*
X91899844Y-124900000D01*
X91824997Y-124885112D01*
X91750150Y-124900000D01*
X91750146Y-124900000D01*
X91528461Y-124944096D01*
X91277069Y-125112071D01*
X91247946Y-125155656D01*
X91039635Y-124947345D01*
X90695983Y-124805000D01*
X90324017Y-124805000D01*
X89980365Y-124947345D01*
X89880000Y-125047710D01*
X89789613Y-124957323D01*
X89445961Y-124814978D01*
X89073995Y-124814978D01*
X88730343Y-124957323D01*
X88467323Y-125220343D01*
X88324978Y-125563995D01*
X88324978Y-125935961D01*
X88467323Y-126279613D01*
X88530002Y-126342292D01*
X88530001Y-130795000D01*
X88474017Y-130795000D01*
X88130365Y-130937345D01*
X87867345Y-131200365D01*
X87725000Y-131544017D01*
X87725000Y-131915983D01*
X87775000Y-132036694D01*
X87775000Y-132241428D01*
X87775001Y-132241433D01*
X87775000Y-135012839D01*
X87757663Y-135100000D01*
X87775000Y-135187161D01*
X87775000Y-135187164D01*
X87826348Y-135445309D01*
X88021951Y-135738049D01*
X88095846Y-135787425D01*
X88355001Y-136046579D01*
X88355000Y-138201820D01*
X88346896Y-138195169D01*
X88265397Y-138140713D01*
X88153460Y-138080881D01*
X88062904Y-138043372D01*
X87941451Y-138006530D01*
X87845318Y-137987408D01*
X87719009Y-137974968D01*
X87682106Y-137974968D01*
X87670000Y-137972560D01*
X87170000Y-137972560D01*
X87157894Y-137974968D01*
X87120991Y-137974968D01*
X86994682Y-137987408D01*
X86898549Y-138006530D01*
X86777096Y-138043372D01*
X86686540Y-138080881D01*
X86574603Y-138140713D01*
X86493104Y-138195169D01*
X86448977Y-138231383D01*
X86379999Y-138217663D01*
X86292839Y-138235000D01*
X86292835Y-138235000D01*
X86034690Y-138286348D01*
X85926880Y-138358385D01*
X85815845Y-138432576D01*
X85815844Y-138432577D01*
X85741951Y-138481951D01*
X85692577Y-138555844D01*
X84755847Y-139492575D01*
X84681951Y-139541951D01*
X84486348Y-139834691D01*
X84435000Y-140092836D01*
X84435000Y-140092839D01*
X84417663Y-140180000D01*
X84435000Y-140267161D01*
X84435000Y-140353306D01*
X84385000Y-140474017D01*
X84385000Y-140845983D01*
X84527345Y-141189635D01*
X84712676Y-141374966D01*
X84610365Y-141417345D01*
X84597710Y-141430000D01*
X83544802Y-141430000D01*
X82900000Y-140785199D01*
X82900000Y-118604801D01*
X83369485Y-118135317D01*
X83432941Y-118092917D01*
X83600916Y-117841525D01*
X83645012Y-117619840D01*
X83645012Y-117619836D01*
X83659900Y-117544989D01*
X83645012Y-117470142D01*
X83645012Y-115474017D01*
X83725000Y-115474017D01*
X83725000Y-115845983D01*
X83867345Y-116189635D01*
X84130365Y-116452655D01*
X84474017Y-116595000D01*
X84845983Y-116595000D01*
X85189635Y-116452655D01*
X85452655Y-116189635D01*
X85502656Y-116068923D01*
X85575001Y-115996578D01*
X85575000Y-122403306D01*
X85525000Y-122524017D01*
X85525000Y-122570198D01*
X84285530Y-123809669D01*
X84222071Y-123852071D01*
X84054096Y-124103464D01*
X84010000Y-124325149D01*
X84010000Y-124325153D01*
X83995112Y-124400000D01*
X84010000Y-124474847D01*
X84010001Y-133877709D01*
X83987345Y-133900365D01*
X83845000Y-134244017D01*
X83845000Y-134615983D01*
X83987345Y-134959635D01*
X84250365Y-135222655D01*
X84594017Y-135365000D01*
X84965983Y-135365000D01*
X85309635Y-135222655D01*
X85572655Y-134959635D01*
X85715000Y-134615983D01*
X85715000Y-134244017D01*
X85572655Y-133900365D01*
X85530000Y-133857710D01*
X85530000Y-124714801D01*
X86599802Y-123645000D01*
X86645983Y-123645000D01*
X86989635Y-123502655D01*
X87252655Y-123239635D01*
X87395000Y-122895983D01*
X87395000Y-122524017D01*
X87345000Y-122403306D01*
X87345000Y-112987159D01*
X87362337Y-112899999D01*
X87345000Y-112812839D01*
X87345000Y-112812835D01*
X87293652Y-112554690D01*
X87160298Y-112355112D01*
X87147424Y-112335845D01*
X87147423Y-112335844D01*
X87098049Y-112261951D01*
X87024156Y-112212577D01*
X86167425Y-111355847D01*
X86118049Y-111281951D01*
X85825310Y-111086348D01*
X85567165Y-111035000D01*
X85567161Y-111035000D01*
X85480000Y-111017663D01*
X85392839Y-111035000D01*
X85296694Y-111035000D01*
X85175983Y-110985000D01*
X84804017Y-110985000D01*
X84460365Y-111127345D01*
X84197345Y-111390365D01*
X84055000Y-111734017D01*
X84055000Y-112105983D01*
X84197345Y-112449635D01*
X84460365Y-112712655D01*
X84804017Y-112855000D01*
X85163422Y-112855000D01*
X85328091Y-113019669D01*
X85269348Y-113019669D01*
X84925696Y-113162014D01*
X84662676Y-113425034D01*
X84520331Y-113768686D01*
X84520331Y-114140652D01*
X84575001Y-114272636D01*
X84575000Y-114493421D01*
X84251077Y-114817344D01*
X84130365Y-114867345D01*
X83867345Y-115130365D01*
X83725000Y-115474017D01*
X83645012Y-115474017D01*
X83645012Y-113829850D01*
X83659900Y-113755002D01*
X83645012Y-113680154D01*
X83645012Y-113680150D01*
X83600916Y-113458465D01*
X83600916Y-113458464D01*
X83538278Y-113364720D01*
X83432941Y-113207073D01*
X83369482Y-113164671D01*
X83195010Y-112990199D01*
X83195010Y-112944017D01*
X83052665Y-112600365D01*
X82789645Y-112337345D01*
X82445993Y-112195000D01*
X82074027Y-112195000D01*
X81730375Y-112337345D01*
X81470000Y-112597720D01*
X81470000Y-110514017D01*
X97555000Y-110514017D01*
X97555000Y-110885983D01*
X97697345Y-111229635D01*
X97960365Y-111492655D01*
X98304017Y-111635000D01*
X98675983Y-111635000D01*
X99019635Y-111492655D01*
X99282655Y-111229635D01*
X99332656Y-111108922D01*
X102806579Y-107635000D01*
X103503306Y-107635000D01*
X103624017Y-107685000D01*
X103995983Y-107685000D01*
X104339635Y-107542655D01*
X104602655Y-107279635D01*
X104745000Y-106935983D01*
X104745000Y-106564017D01*
X104602655Y-106220365D01*
X104339635Y-105957345D01*
X103995983Y-105815000D01*
X103624017Y-105815000D01*
X103503306Y-105865000D01*
X102527161Y-105865000D01*
X102440000Y-105847663D01*
X102352839Y-105865000D01*
X102352835Y-105865000D01*
X102094690Y-105916348D01*
X101875845Y-106062576D01*
X101875844Y-106062577D01*
X101801951Y-106111951D01*
X101752577Y-106185844D01*
X98081078Y-109857344D01*
X97960365Y-109907345D01*
X97697345Y-110170365D01*
X97555000Y-110514017D01*
X81470000Y-110514017D01*
X81470000Y-101654615D01*
X85315000Y-101654615D01*
X85315000Y-102245385D01*
X85541078Y-102791185D01*
X85958815Y-103208922D01*
X86504615Y-103435000D01*
X87095385Y-103435000D01*
X87641185Y-103208922D01*
X88058922Y-102791185D01*
X88285000Y-102245385D01*
X88285000Y-101654615D01*
X88058922Y-101108815D01*
X87641185Y-100691078D01*
X87095385Y-100465000D01*
X86504615Y-100465000D01*
X85958815Y-100691078D01*
X85541078Y-101108815D01*
X85315000Y-101654615D01*
X81470000Y-101654615D01*
X81470000Y-94654615D01*
X85315000Y-94654615D01*
X85315000Y-95245385D01*
X85541078Y-95791185D01*
X85958815Y-96208922D01*
X86504615Y-96435000D01*
X87095385Y-96435000D01*
X87641185Y-96208922D01*
X88058922Y-95791185D01*
X88285000Y-95245385D01*
X88285000Y-94654615D01*
X112040000Y-94654615D01*
X112040000Y-95245385D01*
X112266078Y-95791185D01*
X112683815Y-96208922D01*
X113229615Y-96435000D01*
X113820385Y-96435000D01*
X114366185Y-96208922D01*
X114783922Y-95791185D01*
X115010000Y-95245385D01*
X115010000Y-94654615D01*
X114783922Y-94108815D01*
X114366185Y-93691078D01*
X113820385Y-93465000D01*
X113229615Y-93465000D01*
X112683815Y-93691078D01*
X112266078Y-94108815D01*
X112040000Y-94654615D01*
X88285000Y-94654615D01*
X88058922Y-94108815D01*
X87641185Y-93691078D01*
X87095385Y-93465000D01*
X86504615Y-93465000D01*
X85958815Y-93691078D01*
X85541078Y-94108815D01*
X85315000Y-94654615D01*
X81470000Y-94654615D01*
X81470000Y-93084180D01*
X91015000Y-93084180D01*
X91015000Y-93515820D01*
X91180182Y-93914603D01*
X91485397Y-94219818D01*
X91884180Y-94385000D01*
X92315820Y-94385000D01*
X92714603Y-94219818D01*
X93019818Y-93914603D01*
X93185000Y-93515820D01*
X93185000Y-93084180D01*
X97815000Y-93084180D01*
X97815000Y-93515820D01*
X97980182Y-93914603D01*
X98285397Y-94219818D01*
X98684180Y-94385000D01*
X99115820Y-94385000D01*
X99514603Y-94219818D01*
X99819818Y-93914603D01*
X99985000Y-93515820D01*
X99985000Y-93084180D01*
X117815000Y-93084180D01*
X117815000Y-93515820D01*
X117980182Y-93914603D01*
X118285397Y-94219818D01*
X118684180Y-94385000D01*
X119115820Y-94385000D01*
X119514603Y-94219818D01*
X119819818Y-93914603D01*
X119985000Y-93515820D01*
X119985000Y-93084180D01*
X124615000Y-93084180D01*
X124615000Y-93515820D01*
X124780182Y-93914603D01*
X125085397Y-94219818D01*
X125484180Y-94385000D01*
X125915820Y-94385000D01*
X126314603Y-94219818D01*
X126619818Y-93914603D01*
X126785000Y-93515820D01*
X126785000Y-93084180D01*
X126619818Y-92685397D01*
X126314603Y-92380182D01*
X125915820Y-92215000D01*
X125484180Y-92215000D01*
X125085397Y-92380182D01*
X124780182Y-92685397D01*
X124615000Y-93084180D01*
X119985000Y-93084180D01*
X119819818Y-92685397D01*
X119514603Y-92380182D01*
X119115820Y-92215000D01*
X118684180Y-92215000D01*
X118285397Y-92380182D01*
X117980182Y-92685397D01*
X117815000Y-93084180D01*
X99985000Y-93084180D01*
X99819818Y-92685397D01*
X99514603Y-92380182D01*
X99115820Y-92215000D01*
X98684180Y-92215000D01*
X98285397Y-92380182D01*
X97980182Y-92685397D01*
X97815000Y-93084180D01*
X93185000Y-93084180D01*
X93019818Y-92685397D01*
X92714603Y-92380182D01*
X92315820Y-92215000D01*
X91884180Y-92215000D01*
X91485397Y-92380182D01*
X91180182Y-92685397D01*
X91015000Y-93084180D01*
X81470000Y-93084180D01*
X81470000Y-91870000D01*
X131050000Y-91870000D01*
X131050001Y-144873000D01*
G36*
X126458066Y-132369644D02*
X126277345Y-132550365D01*
X126135000Y-132894017D01*
X126135000Y-133265983D01*
X126277345Y-133609635D01*
X126507711Y-133840001D01*
X121254845Y-133840001D01*
X121179998Y-133825113D01*
X121105151Y-133840001D01*
X121105147Y-133840001D01*
X120883462Y-133884097D01*
X120632070Y-134052072D01*
X120589670Y-134115528D01*
X116985199Y-137720000D01*
X112524802Y-137720000D01*
X112140011Y-137335210D01*
X112140011Y-136812214D01*
X112364017Y-136905000D01*
X112735983Y-136905000D01*
X112856694Y-136855000D01*
X113942839Y-136855000D01*
X114030000Y-136872337D01*
X114117161Y-136855000D01*
X114117165Y-136855000D01*
X114375310Y-136803652D01*
X114668049Y-136608049D01*
X114717425Y-136534153D01*
X115118923Y-136132655D01*
X115239635Y-136082655D01*
X115502655Y-135819635D01*
X115645000Y-135475983D01*
X115645000Y-135104017D01*
X115595000Y-134983306D01*
X115595000Y-131807169D01*
X115612337Y-131720009D01*
X115595000Y-131632850D01*
X115595000Y-131632845D01*
X115543652Y-131374700D01*
X115483716Y-131285000D01*
X125373422Y-131285000D01*
X126458066Y-132369644D01*
X126458066Y-132369644D01*
G37*
X126458066Y-132369644D02*
X126277345Y-132550365D01*
X126135000Y-132894017D01*
X126135000Y-133265983D01*
X126277345Y-133609635D01*
X126507711Y-133840001D01*
X121254845Y-133840001D01*
X121179998Y-133825113D01*
X121105151Y-133840001D01*
X121105147Y-133840001D01*
X120883462Y-133884097D01*
X120632070Y-134052072D01*
X120589670Y-134115528D01*
X116985199Y-137720000D01*
X112524802Y-137720000D01*
X112140011Y-137335210D01*
X112140011Y-136812214D01*
X112364017Y-136905000D01*
X112735983Y-136905000D01*
X112856694Y-136855000D01*
X113942839Y-136855000D01*
X114030000Y-136872337D01*
X114117161Y-136855000D01*
X114117165Y-136855000D01*
X114375310Y-136803652D01*
X114668049Y-136608049D01*
X114717425Y-136534153D01*
X115118923Y-136132655D01*
X115239635Y-136082655D01*
X115502655Y-135819635D01*
X115645000Y-135475983D01*
X115645000Y-135104017D01*
X115595000Y-134983306D01*
X115595000Y-131807169D01*
X115612337Y-131720009D01*
X115595000Y-131632850D01*
X115595000Y-131632845D01*
X115543652Y-131374700D01*
X115483716Y-131285000D01*
X125373422Y-131285000D01*
X126458066Y-132369644D01*
G36*
X122467345Y-101960365D02*
X122325000Y-102304017D01*
X122325000Y-102675983D01*
X122467345Y-103019635D01*
X122500000Y-103052290D01*
X122500001Y-106815196D01*
X116907938Y-112407261D01*
X116892655Y-112370364D01*
X116629635Y-112107344D01*
X116285983Y-111964999D01*
X115914017Y-111964999D01*
X115793306Y-112014999D01*
X112077160Y-112014999D01*
X111990000Y-111997662D01*
X111902840Y-112014999D01*
X111902836Y-112014999D01*
X111644691Y-112066347D01*
X111644689Y-112066348D01*
X111644690Y-112066348D01*
X111475000Y-112179731D01*
X111475000Y-111854017D01*
X111425000Y-111733306D01*
X111425000Y-110186694D01*
X111475000Y-110065983D01*
X111475000Y-109694017D01*
X111332655Y-109350365D01*
X111069635Y-109087345D01*
X110725983Y-108945000D01*
X110354017Y-108945000D01*
X110265000Y-108981872D01*
X110265000Y-107797159D01*
X110282337Y-107709999D01*
X110265000Y-107622839D01*
X110265000Y-107622835D01*
X110213652Y-107364690D01*
X110018049Y-107071951D01*
X109944156Y-107022577D01*
X108212656Y-105291078D01*
X108162655Y-105170365D01*
X107899635Y-104907345D01*
X107773263Y-104855000D01*
X113902839Y-104855000D01*
X113990000Y-104872337D01*
X114077161Y-104855000D01*
X114077165Y-104855000D01*
X114335310Y-104803652D01*
X114628049Y-104608049D01*
X114677425Y-104534153D01*
X117286579Y-101925000D01*
X122502710Y-101925000D01*
X122467345Y-101960365D01*
X122467345Y-101960365D01*
G37*
X122467345Y-101960365D02*
X122325000Y-102304017D01*
X122325000Y-102675983D01*
X122467345Y-103019635D01*
X122500000Y-103052290D01*
X122500001Y-106815196D01*
X116907938Y-112407261D01*
X116892655Y-112370364D01*
X116629635Y-112107344D01*
X116285983Y-111964999D01*
X115914017Y-111964999D01*
X115793306Y-112014999D01*
X112077160Y-112014999D01*
X111990000Y-111997662D01*
X111902840Y-112014999D01*
X111902836Y-112014999D01*
X111644691Y-112066347D01*
X111644689Y-112066348D01*
X111644690Y-112066348D01*
X111475000Y-112179731D01*
X111475000Y-111854017D01*
X111425000Y-111733306D01*
X111425000Y-110186694D01*
X111475000Y-110065983D01*
X111475000Y-109694017D01*
X111332655Y-109350365D01*
X111069635Y-109087345D01*
X110725983Y-108945000D01*
X110354017Y-108945000D01*
X110265000Y-108981872D01*
X110265000Y-107797159D01*
X110282337Y-107709999D01*
X110265000Y-107622839D01*
X110265000Y-107622835D01*
X110213652Y-107364690D01*
X110018049Y-107071951D01*
X109944156Y-107022577D01*
X108212656Y-105291078D01*
X108162655Y-105170365D01*
X107899635Y-104907345D01*
X107773263Y-104855000D01*
X113902839Y-104855000D01*
X113990000Y-104872337D01*
X114077161Y-104855000D01*
X114077165Y-104855000D01*
X114335310Y-104803652D01*
X114628049Y-104608049D01*
X114677425Y-104534153D01*
X117286579Y-101925000D01*
X122502710Y-101925000D01*
X122467345Y-101960365D01*
G04 #@! TD*
M02*
