G04 #@! TF.GenerationSoftware,KiCad,Pcbnew,(5.1.8)-1*
G04 #@! TF.CreationDate,2020-12-25T10:55:44+01:00*
G04 #@! TF.ProjectId,GBDSO,47424453-4f2e-46b6-9963-61645f706362,rev?*
G04 #@! TF.SameCoordinates,Original*
G04 #@! TF.FileFunction,Profile,NP*
%FSLAX46Y46*%
G04 Gerber Fmt 4.6, Leading zero omitted, Abs format (unit mm)*
G04 Created by KiCad (PCBNEW (5.1.8)-1) date 2020-12-25 10:55:44*
%MOMM*%
%LPD*%
G01*
G04 APERTURE LIST*
G04 #@! TA.AperFunction,Profile*
%ADD10C,0.100000*%
G04 #@! TD*
G04 #@! TA.AperFunction,Profile*
%ADD11C,0.150000*%
G04 #@! TD*
G04 APERTURE END LIST*
D10*
X165030409Y-88630000D02*
G75*
G03*
X165030409Y-88630000I-1100409J0D01*
G01*
D11*
X138409687Y-123628703D02*
X139409687Y-123628703D01*
X139409687Y-123628703D02*
X139409687Y-130628703D01*
X188420000Y-123630000D02*
X188420000Y-130630000D01*
X189420000Y-123630000D02*
X188420000Y-123630000D01*
X184410000Y-72630000D02*
X189410000Y-72630000D01*
X184410000Y-69630000D02*
X184410000Y-72630000D01*
X136410000Y-119540000D02*
X136410000Y-130330000D01*
X138410000Y-77490000D02*
X138410000Y-96570000D01*
X136410000Y-109900000D02*
X136410000Y-117050000D01*
X138410000Y-99060000D02*
X138410000Y-109900000D01*
X138410000Y-109900000D02*
X138410000Y-117050000D01*
X136410000Y-99060000D02*
X136410000Y-109900000D01*
X136410000Y-77490000D02*
X136410000Y-96570000D01*
X138410000Y-119540000D02*
X138410000Y-123630000D01*
X136410000Y-77490000D02*
G75*
G02*
X138410000Y-77490000I1000000J0D01*
G01*
X138410000Y-75000000D02*
G75*
G02*
X136410000Y-75000000I-1000000J0D01*
G01*
X136410000Y-99060000D02*
G75*
G02*
X138410000Y-99060000I1000000J0D01*
G01*
X138410000Y-96570000D02*
G75*
G02*
X136410000Y-96570000I-1000000J0D01*
G01*
X138410000Y-117050000D02*
G75*
G02*
X136410000Y-117050000I-1000000J0D01*
G01*
X136410000Y-119540000D02*
G75*
G02*
X138410000Y-119540000I1000000J0D01*
G01*
X104370000Y-80820000D02*
X104380000Y-119820000D01*
X104380000Y-119820000D02*
X113390000Y-119820000D01*
X113390000Y-119820000D02*
X113390000Y-130330000D01*
X113390000Y-130330000D02*
X136410000Y-130330000D01*
X136410000Y-70310000D02*
X136410000Y-75000000D01*
X113370000Y-70310000D02*
X136410000Y-70310000D01*
X113370000Y-80820000D02*
X113370000Y-70310000D01*
X104370000Y-80820000D02*
X113370000Y-80820000D01*
D10*
X167570000Y-115170000D02*
G75*
G03*
X167570000Y-115170000I-3650000J0D01*
G01*
D11*
X189420000Y-123630000D02*
X189410000Y-72630000D01*
X188420000Y-130630000D02*
X139410000Y-130630000D01*
X138410000Y-69630000D02*
X138410000Y-75000000D01*
X138410000Y-69630000D02*
X184410000Y-69630000D01*
M02*
