G04 #@! TF.GenerationSoftware,KiCad,Pcbnew,(5.1.6)-1*
G04 #@! TF.CreationDate,2020-06-17T21:22:11+02:00*
G04 #@! TF.ProjectId,GBDSO,47424453-4f2e-46b6-9963-61645f706362,rev?*
G04 #@! TF.SameCoordinates,Original*
G04 #@! TF.FileFunction,Copper,L1,Top*
G04 #@! TF.FilePolarity,Positive*
%FSLAX46Y46*%
G04 Gerber Fmt 4.6, Leading zero omitted, Abs format (unit mm)*
G04 Created by KiCad (PCBNEW (5.1.6)-1) date 2020-06-17 21:22:11*
%MOMM*%
%LPD*%
G01*
G04 APERTURE LIST*
G04 #@! TA.AperFunction,SMDPad,CuDef*
%ADD10R,2.000000X0.600000*%
G04 #@! TD*
G04 #@! TA.AperFunction,SMDPad,CuDef*
%ADD11R,0.600000X2.000000*%
G04 #@! TD*
G04 #@! TA.AperFunction,SMDPad,CuDef*
%ADD12R,1.500000X0.600000*%
G04 #@! TD*
G04 #@! TA.AperFunction,SMDPad,CuDef*
%ADD13R,1.950000X0.600000*%
G04 #@! TD*
G04 #@! TA.AperFunction,SMDPad,CuDef*
%ADD14R,1.560000X0.650000*%
G04 #@! TD*
G04 #@! TA.AperFunction,SMDPad,CuDef*
%ADD15R,3.200000X1.000000*%
G04 #@! TD*
G04 #@! TA.AperFunction,SMDPad,CuDef*
%ADD16R,1.500000X3.200000*%
G04 #@! TD*
G04 #@! TA.AperFunction,SMDPad,CuDef*
%ADD17R,3.200000X1.500000*%
G04 #@! TD*
G04 #@! TA.AperFunction,ComponentPad*
%ADD18O,2.400000X1.600000*%
G04 #@! TD*
G04 #@! TA.AperFunction,ComponentPad*
%ADD19R,2.400000X1.600000*%
G04 #@! TD*
G04 #@! TA.AperFunction,SMDPad,CuDef*
%ADD20R,1.500000X7.000000*%
G04 #@! TD*
G04 #@! TA.AperFunction,SMDPad,CuDef*
%ADD21R,1.000000X7.000000*%
G04 #@! TD*
G04 #@! TA.AperFunction,SMDPad,CuDef*
%ADD22R,1.900000X0.800000*%
G04 #@! TD*
G04 #@! TA.AperFunction,SMDPad,CuDef*
%ADD23R,1.300000X2.000000*%
G04 #@! TD*
G04 #@! TA.AperFunction,SMDPad,CuDef*
%ADD24R,2.000000X2.000000*%
G04 #@! TD*
G04 #@! TA.AperFunction,SMDPad,CuDef*
%ADD25R,1.250000X2.500000*%
G04 #@! TD*
G04 #@! TA.AperFunction,SMDPad,CuDef*
%ADD26R,0.600000X1.500000*%
G04 #@! TD*
G04 #@! TA.AperFunction,SMDPad,CuDef*
%ADD27R,1.550000X0.600000*%
G04 #@! TD*
G04 #@! TA.AperFunction,SMDPad,CuDef*
%ADD28C,0.100000*%
G04 #@! TD*
G04 #@! TA.AperFunction,SMDPad,CuDef*
%ADD29R,2.750000X5.000000*%
G04 #@! TD*
G04 #@! TA.AperFunction,SMDPad,CuDef*
%ADD30R,2.600000X1.000000*%
G04 #@! TD*
G04 #@! TA.AperFunction,ComponentPad*
%ADD31O,1.700000X1.700000*%
G04 #@! TD*
G04 #@! TA.AperFunction,ComponentPad*
%ADD32R,1.700000X1.700000*%
G04 #@! TD*
G04 #@! TA.AperFunction,SMDPad,CuDef*
%ADD33R,1.750000X0.450000*%
G04 #@! TD*
G04 #@! TA.AperFunction,ViaPad*
%ADD34C,0.600000*%
G04 #@! TD*
G04 #@! TA.AperFunction,Conductor*
%ADD35C,0.500000*%
G04 #@! TD*
G04 #@! TA.AperFunction,Conductor*
%ADD36C,0.250000*%
G04 #@! TD*
G04 #@! TA.AperFunction,Conductor*
%ADD37C,0.750000*%
G04 #@! TD*
G04 #@! TA.AperFunction,Conductor*
%ADD38C,1.000000*%
G04 #@! TD*
G04 #@! TA.AperFunction,Conductor*
%ADD39C,0.125000*%
G04 #@! TD*
G04 APERTURE END LIST*
D10*
X144452500Y-107080000D03*
X144452500Y-105810000D03*
X144452500Y-104540000D03*
D11*
X146470000Y-102527500D03*
X147740000Y-102527500D03*
X149010000Y-102527500D03*
X150280000Y-102527500D03*
X151550000Y-102527500D03*
X152820000Y-102527500D03*
X154090000Y-102527500D03*
X155360000Y-102527500D03*
X156630000Y-102527500D03*
D10*
X158647500Y-104540000D03*
X158647500Y-105810000D03*
X158647500Y-107080000D03*
X158647500Y-108350000D03*
X158647500Y-109620000D03*
X158647500Y-110890000D03*
X158647500Y-112160000D03*
D11*
X156630000Y-114180500D03*
X155360000Y-114180500D03*
X154090000Y-114180500D03*
X152820000Y-114180500D03*
X151550000Y-114180600D03*
X150280000Y-114180600D03*
X149010000Y-114180600D03*
X147740000Y-114180600D03*
X146470000Y-114180600D03*
D10*
X144452500Y-112160000D03*
X144452500Y-110890000D03*
X144452500Y-109620000D03*
X144452500Y-108350000D03*
D12*
X146550000Y-90325000D03*
X146550000Y-91595000D03*
X146550000Y-92865000D03*
X146550000Y-94135000D03*
X146550000Y-95405000D03*
X146550000Y-96675000D03*
X146550000Y-97945000D03*
X146550000Y-99215000D03*
X141150000Y-99215000D03*
X141150000Y-97945000D03*
X141150000Y-96675000D03*
X141150000Y-95405000D03*
X141150000Y-94135000D03*
X141150000Y-92865000D03*
X141150000Y-91595000D03*
X141150000Y-90325000D03*
D13*
X160869400Y-83362800D03*
X160869400Y-84632800D03*
X160869400Y-85902800D03*
X160869400Y-87172800D03*
X155919400Y-87172800D03*
X155919400Y-85902800D03*
X155919400Y-84632800D03*
X155919400Y-83362800D03*
X184473620Y-90627200D03*
X184473620Y-91897200D03*
X184473620Y-93167200D03*
X184473620Y-94437200D03*
X179523620Y-94437200D03*
X179523620Y-93167200D03*
X179523620Y-91897200D03*
X179523620Y-90627200D03*
G04 #@! TA.AperFunction,SMDPad,CuDef*
G36*
G01*
X181710000Y-110390001D02*
X181710000Y-109489999D01*
G75*
G02*
X181959999Y-109240000I249999J0D01*
G01*
X182610001Y-109240000D01*
G75*
G02*
X182860000Y-109489999I0J-249999D01*
G01*
X182860000Y-110390001D01*
G75*
G02*
X182610001Y-110640000I-249999J0D01*
G01*
X181959999Y-110640000D01*
G75*
G02*
X181710000Y-110390001I0J249999D01*
G01*
G37*
G04 #@! TD.AperFunction*
G04 #@! TA.AperFunction,SMDPad,CuDef*
G36*
G01*
X179660000Y-110390001D02*
X179660000Y-109489999D01*
G75*
G02*
X179909999Y-109240000I249999J0D01*
G01*
X180560001Y-109240000D01*
G75*
G02*
X180810000Y-109489999I0J-249999D01*
G01*
X180810000Y-110390001D01*
G75*
G02*
X180560001Y-110640000I-249999J0D01*
G01*
X179909999Y-110640000D01*
G75*
G02*
X179660000Y-110390001I0J249999D01*
G01*
G37*
G04 #@! TD.AperFunction*
G04 #@! TA.AperFunction,SMDPad,CuDef*
G36*
G01*
X180780000Y-107129999D02*
X180780000Y-108030001D01*
G75*
G02*
X180530001Y-108280000I-249999J0D01*
G01*
X179879999Y-108280000D01*
G75*
G02*
X179630000Y-108030001I0J249999D01*
G01*
X179630000Y-107129999D01*
G75*
G02*
X179879999Y-106880000I249999J0D01*
G01*
X180530001Y-106880000D01*
G75*
G02*
X180780000Y-107129999I0J-249999D01*
G01*
G37*
G04 #@! TD.AperFunction*
G04 #@! TA.AperFunction,SMDPad,CuDef*
G36*
G01*
X182830000Y-107129999D02*
X182830000Y-108030001D01*
G75*
G02*
X182580001Y-108280000I-249999J0D01*
G01*
X181929999Y-108280000D01*
G75*
G02*
X181680000Y-108030001I0J249999D01*
G01*
X181680000Y-107129999D01*
G75*
G02*
X181929999Y-106880000I249999J0D01*
G01*
X182580001Y-106880000D01*
G75*
G02*
X182830000Y-107129999I0J-249999D01*
G01*
G37*
G04 #@! TD.AperFunction*
G04 #@! TA.AperFunction,SMDPad,CuDef*
G36*
G01*
X180420001Y-103590000D02*
X179519999Y-103590000D01*
G75*
G02*
X179270000Y-103340001I0J249999D01*
G01*
X179270000Y-102689999D01*
G75*
G02*
X179519999Y-102440000I249999J0D01*
G01*
X180420001Y-102440000D01*
G75*
G02*
X180670000Y-102689999I0J-249999D01*
G01*
X180670000Y-103340001D01*
G75*
G02*
X180420001Y-103590000I-249999J0D01*
G01*
G37*
G04 #@! TD.AperFunction*
G04 #@! TA.AperFunction,SMDPad,CuDef*
G36*
G01*
X180420001Y-105640000D02*
X179519999Y-105640000D01*
G75*
G02*
X179270000Y-105390001I0J249999D01*
G01*
X179270000Y-104739999D01*
G75*
G02*
X179519999Y-104490000I249999J0D01*
G01*
X180420001Y-104490000D01*
G75*
G02*
X180670000Y-104739999I0J-249999D01*
G01*
X180670000Y-105390001D01*
G75*
G02*
X180420001Y-105640000I-249999J0D01*
G01*
G37*
G04 #@! TD.AperFunction*
D14*
X187450000Y-105000000D03*
X187450000Y-104050000D03*
X187450000Y-103100000D03*
X184750000Y-103100000D03*
X184750000Y-105000000D03*
G04 #@! TA.AperFunction,SMDPad,CuDef*
G36*
G01*
X171343750Y-117557500D02*
X172256250Y-117557500D01*
G75*
G02*
X172500000Y-117801250I0J-243750D01*
G01*
X172500000Y-118288750D01*
G75*
G02*
X172256250Y-118532500I-243750J0D01*
G01*
X171343750Y-118532500D01*
G75*
G02*
X171100000Y-118288750I0J243750D01*
G01*
X171100000Y-117801250D01*
G75*
G02*
X171343750Y-117557500I243750J0D01*
G01*
G37*
G04 #@! TD.AperFunction*
G04 #@! TA.AperFunction,SMDPad,CuDef*
G36*
G01*
X171343750Y-115682500D02*
X172256250Y-115682500D01*
G75*
G02*
X172500000Y-115926250I0J-243750D01*
G01*
X172500000Y-116413750D01*
G75*
G02*
X172256250Y-116657500I-243750J0D01*
G01*
X171343750Y-116657500D01*
G75*
G02*
X171100000Y-116413750I0J243750D01*
G01*
X171100000Y-115926250D01*
G75*
G02*
X171343750Y-115682500I243750J0D01*
G01*
G37*
G04 #@! TD.AperFunction*
D15*
X164440000Y-72290000D03*
D16*
X169090000Y-85940000D03*
D17*
X164440000Y-81740000D03*
D15*
X140550000Y-72320000D03*
D16*
X145200000Y-85970000D03*
D17*
X140550000Y-81770000D03*
G04 #@! TA.AperFunction,SMDPad,CuDef*
G36*
G01*
X187045000Y-100935000D02*
X187045000Y-99685000D01*
G75*
G02*
X187295000Y-99435000I250000J0D01*
G01*
X188045000Y-99435000D01*
G75*
G02*
X188295000Y-99685000I0J-250000D01*
G01*
X188295000Y-100935000D01*
G75*
G02*
X188045000Y-101185000I-250000J0D01*
G01*
X187295000Y-101185000D01*
G75*
G02*
X187045000Y-100935000I0J250000D01*
G01*
G37*
G04 #@! TD.AperFunction*
G04 #@! TA.AperFunction,SMDPad,CuDef*
G36*
G01*
X184245000Y-100935000D02*
X184245000Y-99685000D01*
G75*
G02*
X184495000Y-99435000I250000J0D01*
G01*
X185245000Y-99435000D01*
G75*
G02*
X185495000Y-99685000I0J-250000D01*
G01*
X185495000Y-100935000D01*
G75*
G02*
X185245000Y-101185000I-250000J0D01*
G01*
X184495000Y-101185000D01*
G75*
G02*
X184245000Y-100935000I0J250000D01*
G01*
G37*
G04 #@! TD.AperFunction*
G04 #@! TA.AperFunction,SMDPad,CuDef*
G36*
G01*
X185305000Y-107276250D02*
X185305000Y-106363750D01*
G75*
G02*
X185548750Y-106120000I243750J0D01*
G01*
X186036250Y-106120000D01*
G75*
G02*
X186280000Y-106363750I0J-243750D01*
G01*
X186280000Y-107276250D01*
G75*
G02*
X186036250Y-107520000I-243750J0D01*
G01*
X185548750Y-107520000D01*
G75*
G02*
X185305000Y-107276250I0J243750D01*
G01*
G37*
G04 #@! TD.AperFunction*
G04 #@! TA.AperFunction,SMDPad,CuDef*
G36*
G01*
X187180000Y-107276250D02*
X187180000Y-106363750D01*
G75*
G02*
X187423750Y-106120000I243750J0D01*
G01*
X187911250Y-106120000D01*
G75*
G02*
X188155000Y-106363750I0J-243750D01*
G01*
X188155000Y-107276250D01*
G75*
G02*
X187911250Y-107520000I-243750J0D01*
G01*
X187423750Y-107520000D01*
G75*
G02*
X187180000Y-107276250I0J243750D01*
G01*
G37*
G04 #@! TD.AperFunction*
D18*
X122229775Y-83813961D03*
X106989775Y-116833961D03*
X122229775Y-86353961D03*
X106989775Y-114293961D03*
X122229775Y-88893961D03*
X106989775Y-111753961D03*
X122229775Y-91433961D03*
X106989775Y-109213961D03*
X122229775Y-93973961D03*
X106989775Y-106673961D03*
X122229775Y-96513961D03*
X106989775Y-104133961D03*
X122229775Y-99053961D03*
X106989775Y-101593961D03*
X122229775Y-101593961D03*
X106989775Y-99053961D03*
X122229775Y-104133961D03*
X106989775Y-96513961D03*
X122229775Y-106673961D03*
X106989775Y-93973961D03*
X122229775Y-109213961D03*
X106989775Y-91433961D03*
X122229775Y-111753961D03*
X106989775Y-88893961D03*
X122229775Y-114293961D03*
X106989775Y-86353961D03*
X122229775Y-116833961D03*
D19*
X106989775Y-83813961D03*
D20*
X140420000Y-126630000D03*
D21*
X142170000Y-126630000D03*
X143670000Y-126630000D03*
X145170000Y-126630000D03*
X146670000Y-126630000D03*
X148170000Y-126630000D03*
X149670000Y-126630000D03*
X151170000Y-126630000D03*
X152670000Y-126630000D03*
X154170000Y-126630000D03*
X155670000Y-126630000D03*
X157170000Y-126630000D03*
X158670000Y-126630000D03*
X160170000Y-126630000D03*
X161670000Y-126630000D03*
X163170000Y-126630000D03*
X164670000Y-126630000D03*
X166170000Y-126630000D03*
X167670000Y-126630000D03*
X169170000Y-126630000D03*
X170670000Y-126630000D03*
X172170000Y-126630000D03*
X173670000Y-126630000D03*
X175170000Y-126630000D03*
X176670000Y-126630000D03*
X178170000Y-126630000D03*
X179670000Y-126630000D03*
X181170000Y-126630000D03*
X182670000Y-126630000D03*
X184170000Y-126630000D03*
X185670000Y-126630000D03*
D20*
X187420000Y-126630000D03*
G04 #@! TA.AperFunction,SMDPad,CuDef*
G36*
G01*
X162711450Y-76969200D02*
X161798950Y-76969200D01*
G75*
G02*
X161555200Y-76725450I0J243750D01*
G01*
X161555200Y-76237950D01*
G75*
G02*
X161798950Y-75994200I243750J0D01*
G01*
X162711450Y-75994200D01*
G75*
G02*
X162955200Y-76237950I0J-243750D01*
G01*
X162955200Y-76725450D01*
G75*
G02*
X162711450Y-76969200I-243750J0D01*
G01*
G37*
G04 #@! TD.AperFunction*
G04 #@! TA.AperFunction,SMDPad,CuDef*
G36*
G01*
X162711450Y-78844200D02*
X161798950Y-78844200D01*
G75*
G02*
X161555200Y-78600450I0J243750D01*
G01*
X161555200Y-78112950D01*
G75*
G02*
X161798950Y-77869200I243750J0D01*
G01*
X162711450Y-77869200D01*
G75*
G02*
X162955200Y-78112950I0J-243750D01*
G01*
X162955200Y-78600450D01*
G75*
G02*
X162711450Y-78844200I-243750J0D01*
G01*
G37*
G04 #@! TD.AperFunction*
G04 #@! TA.AperFunction,SMDPad,CuDef*
G36*
G01*
X182823050Y-76321800D02*
X181910550Y-76321800D01*
G75*
G02*
X181666800Y-76078050I0J243750D01*
G01*
X181666800Y-75590550D01*
G75*
G02*
X181910550Y-75346800I243750J0D01*
G01*
X182823050Y-75346800D01*
G75*
G02*
X183066800Y-75590550I0J-243750D01*
G01*
X183066800Y-76078050D01*
G75*
G02*
X182823050Y-76321800I-243750J0D01*
G01*
G37*
G04 #@! TD.AperFunction*
G04 #@! TA.AperFunction,SMDPad,CuDef*
G36*
G01*
X182823050Y-78196800D02*
X181910550Y-78196800D01*
G75*
G02*
X181666800Y-77953050I0J243750D01*
G01*
X181666800Y-77465550D01*
G75*
G02*
X181910550Y-77221800I243750J0D01*
G01*
X182823050Y-77221800D01*
G75*
G02*
X183066800Y-77465550I0J-243750D01*
G01*
X183066800Y-77953050D01*
G75*
G02*
X182823050Y-78196800I-243750J0D01*
G01*
G37*
G04 #@! TD.AperFunction*
G04 #@! TA.AperFunction,SMDPad,CuDef*
G36*
G01*
X184552500Y-82183750D02*
X184552500Y-83096250D01*
G75*
G02*
X184308750Y-83340000I-243750J0D01*
G01*
X183821250Y-83340000D01*
G75*
G02*
X183577500Y-83096250I0J243750D01*
G01*
X183577500Y-82183750D01*
G75*
G02*
X183821250Y-81940000I243750J0D01*
G01*
X184308750Y-81940000D01*
G75*
G02*
X184552500Y-82183750I0J-243750D01*
G01*
G37*
G04 #@! TD.AperFunction*
G04 #@! TA.AperFunction,SMDPad,CuDef*
G36*
G01*
X186427500Y-82183750D02*
X186427500Y-83096250D01*
G75*
G02*
X186183750Y-83340000I-243750J0D01*
G01*
X185696250Y-83340000D01*
G75*
G02*
X185452500Y-83096250I0J243750D01*
G01*
X185452500Y-82183750D01*
G75*
G02*
X185696250Y-81940000I243750J0D01*
G01*
X186183750Y-81940000D01*
G75*
G02*
X186427500Y-82183750I0J-243750D01*
G01*
G37*
G04 #@! TD.AperFunction*
G04 #@! TA.AperFunction,SMDPad,CuDef*
G36*
G01*
X179560000Y-97486250D02*
X179560000Y-96573750D01*
G75*
G02*
X179803750Y-96330000I243750J0D01*
G01*
X180291250Y-96330000D01*
G75*
G02*
X180535000Y-96573750I0J-243750D01*
G01*
X180535000Y-97486250D01*
G75*
G02*
X180291250Y-97730000I-243750J0D01*
G01*
X179803750Y-97730000D01*
G75*
G02*
X179560000Y-97486250I0J243750D01*
G01*
G37*
G04 #@! TD.AperFunction*
G04 #@! TA.AperFunction,SMDPad,CuDef*
G36*
G01*
X177685000Y-97486250D02*
X177685000Y-96573750D01*
G75*
G02*
X177928750Y-96330000I243750J0D01*
G01*
X178416250Y-96330000D01*
G75*
G02*
X178660000Y-96573750I0J-243750D01*
G01*
X178660000Y-97486250D01*
G75*
G02*
X178416250Y-97730000I-243750J0D01*
G01*
X177928750Y-97730000D01*
G75*
G02*
X177685000Y-97486250I0J243750D01*
G01*
G37*
G04 #@! TD.AperFunction*
G04 #@! TA.AperFunction,SMDPad,CuDef*
G36*
G01*
X181720000Y-83096250D02*
X181720000Y-82183750D01*
G75*
G02*
X181963750Y-81940000I243750J0D01*
G01*
X182451250Y-81940000D01*
G75*
G02*
X182695000Y-82183750I0J-243750D01*
G01*
X182695000Y-83096250D01*
G75*
G02*
X182451250Y-83340000I-243750J0D01*
G01*
X181963750Y-83340000D01*
G75*
G02*
X181720000Y-83096250I0J243750D01*
G01*
G37*
G04 #@! TD.AperFunction*
G04 #@! TA.AperFunction,SMDPad,CuDef*
G36*
G01*
X179845000Y-83096250D02*
X179845000Y-82183750D01*
G75*
G02*
X180088750Y-81940000I243750J0D01*
G01*
X180576250Y-81940000D01*
G75*
G02*
X180820000Y-82183750I0J-243750D01*
G01*
X180820000Y-83096250D01*
G75*
G02*
X180576250Y-83340000I-243750J0D01*
G01*
X180088750Y-83340000D01*
G75*
G02*
X179845000Y-83096250I0J243750D01*
G01*
G37*
G04 #@! TD.AperFunction*
G04 #@! TA.AperFunction,SMDPad,CuDef*
G36*
G01*
X178476300Y-87936250D02*
X178476300Y-87023750D01*
G75*
G02*
X178720050Y-86780000I243750J0D01*
G01*
X179207550Y-86780000D01*
G75*
G02*
X179451300Y-87023750I0J-243750D01*
G01*
X179451300Y-87936250D01*
G75*
G02*
X179207550Y-88180000I-243750J0D01*
G01*
X178720050Y-88180000D01*
G75*
G02*
X178476300Y-87936250I0J243750D01*
G01*
G37*
G04 #@! TD.AperFunction*
G04 #@! TA.AperFunction,SMDPad,CuDef*
G36*
G01*
X176601300Y-87936250D02*
X176601300Y-87023750D01*
G75*
G02*
X176845050Y-86780000I243750J0D01*
G01*
X177332550Y-86780000D01*
G75*
G02*
X177576300Y-87023750I0J-243750D01*
G01*
X177576300Y-87936250D01*
G75*
G02*
X177332550Y-88180000I-243750J0D01*
G01*
X176845050Y-88180000D01*
G75*
G02*
X176601300Y-87936250I0J243750D01*
G01*
G37*
G04 #@! TD.AperFunction*
G04 #@! TA.AperFunction,SMDPad,CuDef*
G36*
G01*
X169233750Y-117587500D02*
X170146250Y-117587500D01*
G75*
G02*
X170390000Y-117831250I0J-243750D01*
G01*
X170390000Y-118318750D01*
G75*
G02*
X170146250Y-118562500I-243750J0D01*
G01*
X169233750Y-118562500D01*
G75*
G02*
X168990000Y-118318750I0J243750D01*
G01*
X168990000Y-117831250D01*
G75*
G02*
X169233750Y-117587500I243750J0D01*
G01*
G37*
G04 #@! TD.AperFunction*
G04 #@! TA.AperFunction,SMDPad,CuDef*
G36*
G01*
X169233750Y-115712500D02*
X170146250Y-115712500D01*
G75*
G02*
X170390000Y-115956250I0J-243750D01*
G01*
X170390000Y-116443750D01*
G75*
G02*
X170146250Y-116687500I-243750J0D01*
G01*
X169233750Y-116687500D01*
G75*
G02*
X168990000Y-116443750I0J243750D01*
G01*
X168990000Y-115956250D01*
G75*
G02*
X169233750Y-115712500I243750J0D01*
G01*
G37*
G04 #@! TD.AperFunction*
G04 #@! TA.AperFunction,SMDPad,CuDef*
G36*
G01*
X164466250Y-92580000D02*
X163553750Y-92580000D01*
G75*
G02*
X163310000Y-92336250I0J243750D01*
G01*
X163310000Y-91848750D01*
G75*
G02*
X163553750Y-91605000I243750J0D01*
G01*
X164466250Y-91605000D01*
G75*
G02*
X164710000Y-91848750I0J-243750D01*
G01*
X164710000Y-92336250D01*
G75*
G02*
X164466250Y-92580000I-243750J0D01*
G01*
G37*
G04 #@! TD.AperFunction*
G04 #@! TA.AperFunction,SMDPad,CuDef*
G36*
G01*
X164466250Y-94455000D02*
X163553750Y-94455000D01*
G75*
G02*
X163310000Y-94211250I0J243750D01*
G01*
X163310000Y-93723750D01*
G75*
G02*
X163553750Y-93480000I243750J0D01*
G01*
X164466250Y-93480000D01*
G75*
G02*
X164710000Y-93723750I0J-243750D01*
G01*
X164710000Y-94211250D01*
G75*
G02*
X164466250Y-94455000I-243750J0D01*
G01*
G37*
G04 #@! TD.AperFunction*
G04 #@! TA.AperFunction,SMDPad,CuDef*
G36*
G01*
X181702500Y-85226250D02*
X181702500Y-84313750D01*
G75*
G02*
X181946250Y-84070000I243750J0D01*
G01*
X182433750Y-84070000D01*
G75*
G02*
X182677500Y-84313750I0J-243750D01*
G01*
X182677500Y-85226250D01*
G75*
G02*
X182433750Y-85470000I-243750J0D01*
G01*
X181946250Y-85470000D01*
G75*
G02*
X181702500Y-85226250I0J243750D01*
G01*
G37*
G04 #@! TD.AperFunction*
G04 #@! TA.AperFunction,SMDPad,CuDef*
G36*
G01*
X179827500Y-85226250D02*
X179827500Y-84313750D01*
G75*
G02*
X180071250Y-84070000I243750J0D01*
G01*
X180558750Y-84070000D01*
G75*
G02*
X180802500Y-84313750I0J-243750D01*
G01*
X180802500Y-85226250D01*
G75*
G02*
X180558750Y-85470000I-243750J0D01*
G01*
X180071250Y-85470000D01*
G75*
G02*
X179827500Y-85226250I0J243750D01*
G01*
G37*
G04 #@! TD.AperFunction*
G04 #@! TA.AperFunction,SMDPad,CuDef*
G36*
G01*
X141402500Y-86646250D02*
X141402500Y-85733750D01*
G75*
G02*
X141646250Y-85490000I243750J0D01*
G01*
X142133750Y-85490000D01*
G75*
G02*
X142377500Y-85733750I0J-243750D01*
G01*
X142377500Y-86646250D01*
G75*
G02*
X142133750Y-86890000I-243750J0D01*
G01*
X141646250Y-86890000D01*
G75*
G02*
X141402500Y-86646250I0J243750D01*
G01*
G37*
G04 #@! TD.AperFunction*
G04 #@! TA.AperFunction,SMDPad,CuDef*
G36*
G01*
X139527500Y-86646250D02*
X139527500Y-85733750D01*
G75*
G02*
X139771250Y-85490000I243750J0D01*
G01*
X140258750Y-85490000D01*
G75*
G02*
X140502500Y-85733750I0J-243750D01*
G01*
X140502500Y-86646250D01*
G75*
G02*
X140258750Y-86890000I-243750J0D01*
G01*
X139771250Y-86890000D01*
G75*
G02*
X139527500Y-86646250I0J243750D01*
G01*
G37*
G04 #@! TD.AperFunction*
G04 #@! TA.AperFunction,SMDPad,CuDef*
G36*
G01*
X158323750Y-73710000D02*
X159236250Y-73710000D01*
G75*
G02*
X159480000Y-73953750I0J-243750D01*
G01*
X159480000Y-74441250D01*
G75*
G02*
X159236250Y-74685000I-243750J0D01*
G01*
X158323750Y-74685000D01*
G75*
G02*
X158080000Y-74441250I0J243750D01*
G01*
X158080000Y-73953750D01*
G75*
G02*
X158323750Y-73710000I243750J0D01*
G01*
G37*
G04 #@! TD.AperFunction*
G04 #@! TA.AperFunction,SMDPad,CuDef*
G36*
G01*
X158323750Y-71835000D02*
X159236250Y-71835000D01*
G75*
G02*
X159480000Y-72078750I0J-243750D01*
G01*
X159480000Y-72566250D01*
G75*
G02*
X159236250Y-72810000I-243750J0D01*
G01*
X158323750Y-72810000D01*
G75*
G02*
X158080000Y-72566250I0J243750D01*
G01*
X158080000Y-72078750D01*
G75*
G02*
X158323750Y-71835000I243750J0D01*
G01*
G37*
G04 #@! TD.AperFunction*
G04 #@! TA.AperFunction,SMDPad,CuDef*
G36*
G01*
X149663750Y-89580000D02*
X150576250Y-89580000D01*
G75*
G02*
X150820000Y-89823750I0J-243750D01*
G01*
X150820000Y-90311250D01*
G75*
G02*
X150576250Y-90555000I-243750J0D01*
G01*
X149663750Y-90555000D01*
G75*
G02*
X149420000Y-90311250I0J243750D01*
G01*
X149420000Y-89823750D01*
G75*
G02*
X149663750Y-89580000I243750J0D01*
G01*
G37*
G04 #@! TD.AperFunction*
G04 #@! TA.AperFunction,SMDPad,CuDef*
G36*
G01*
X149663750Y-87705000D02*
X150576250Y-87705000D01*
G75*
G02*
X150820000Y-87948750I0J-243750D01*
G01*
X150820000Y-88436250D01*
G75*
G02*
X150576250Y-88680000I-243750J0D01*
G01*
X149663750Y-88680000D01*
G75*
G02*
X149420000Y-88436250I0J243750D01*
G01*
X149420000Y-87948750D01*
G75*
G02*
X149663750Y-87705000I243750J0D01*
G01*
G37*
G04 #@! TD.AperFunction*
G04 #@! TA.AperFunction,SMDPad,CuDef*
G36*
G01*
X159431346Y-77036771D02*
X159431346Y-76124271D01*
G75*
G02*
X159675096Y-75880521I243750J0D01*
G01*
X160162596Y-75880521D01*
G75*
G02*
X160406346Y-76124271I0J-243750D01*
G01*
X160406346Y-77036771D01*
G75*
G02*
X160162596Y-77280521I-243750J0D01*
G01*
X159675096Y-77280521D01*
G75*
G02*
X159431346Y-77036771I0J243750D01*
G01*
G37*
G04 #@! TD.AperFunction*
G04 #@! TA.AperFunction,SMDPad,CuDef*
G36*
G01*
X157556346Y-77036771D02*
X157556346Y-76124271D01*
G75*
G02*
X157800096Y-75880521I243750J0D01*
G01*
X158287596Y-75880521D01*
G75*
G02*
X158531346Y-76124271I0J-243750D01*
G01*
X158531346Y-77036771D01*
G75*
G02*
X158287596Y-77280521I-243750J0D01*
G01*
X157800096Y-77280521D01*
G75*
G02*
X157556346Y-77036771I0J243750D01*
G01*
G37*
G04 #@! TD.AperFunction*
G04 #@! TA.AperFunction,SMDPad,CuDef*
G36*
G01*
X173133600Y-85268750D02*
X173133600Y-86181250D01*
G75*
G02*
X172889850Y-86425000I-243750J0D01*
G01*
X172402350Y-86425000D01*
G75*
G02*
X172158600Y-86181250I0J243750D01*
G01*
X172158600Y-85268750D01*
G75*
G02*
X172402350Y-85025000I243750J0D01*
G01*
X172889850Y-85025000D01*
G75*
G02*
X173133600Y-85268750I0J-243750D01*
G01*
G37*
G04 #@! TD.AperFunction*
G04 #@! TA.AperFunction,SMDPad,CuDef*
G36*
G01*
X175008600Y-85268750D02*
X175008600Y-86181250D01*
G75*
G02*
X174764850Y-86425000I-243750J0D01*
G01*
X174277350Y-86425000D01*
G75*
G02*
X174033600Y-86181250I0J243750D01*
G01*
X174033600Y-85268750D01*
G75*
G02*
X174277350Y-85025000I243750J0D01*
G01*
X174764850Y-85025000D01*
G75*
G02*
X175008600Y-85268750I0J-243750D01*
G01*
G37*
G04 #@! TD.AperFunction*
G04 #@! TA.AperFunction,SMDPad,CuDef*
G36*
G01*
X160883750Y-93422500D02*
X161796250Y-93422500D01*
G75*
G02*
X162040000Y-93666250I0J-243750D01*
G01*
X162040000Y-94153750D01*
G75*
G02*
X161796250Y-94397500I-243750J0D01*
G01*
X160883750Y-94397500D01*
G75*
G02*
X160640000Y-94153750I0J243750D01*
G01*
X160640000Y-93666250D01*
G75*
G02*
X160883750Y-93422500I243750J0D01*
G01*
G37*
G04 #@! TD.AperFunction*
G04 #@! TA.AperFunction,SMDPad,CuDef*
G36*
G01*
X160883750Y-91547500D02*
X161796250Y-91547500D01*
G75*
G02*
X162040000Y-91791250I0J-243750D01*
G01*
X162040000Y-92278750D01*
G75*
G02*
X161796250Y-92522500I-243750J0D01*
G01*
X160883750Y-92522500D01*
G75*
G02*
X160640000Y-92278750I0J243750D01*
G01*
X160640000Y-91791250D01*
G75*
G02*
X160883750Y-91547500I243750J0D01*
G01*
G37*
G04 #@! TD.AperFunction*
G04 #@! TA.AperFunction,SMDPad,CuDef*
G36*
G01*
X187520000Y-114056250D02*
X187520000Y-113143750D01*
G75*
G02*
X187763750Y-112900000I243750J0D01*
G01*
X188251250Y-112900000D01*
G75*
G02*
X188495000Y-113143750I0J-243750D01*
G01*
X188495000Y-114056250D01*
G75*
G02*
X188251250Y-114300000I-243750J0D01*
G01*
X187763750Y-114300000D01*
G75*
G02*
X187520000Y-114056250I0J243750D01*
G01*
G37*
G04 #@! TD.AperFunction*
G04 #@! TA.AperFunction,SMDPad,CuDef*
G36*
G01*
X185645000Y-114056250D02*
X185645000Y-113143750D01*
G75*
G02*
X185888750Y-112900000I243750J0D01*
G01*
X186376250Y-112900000D01*
G75*
G02*
X186620000Y-113143750I0J-243750D01*
G01*
X186620000Y-114056250D01*
G75*
G02*
X186376250Y-114300000I-243750J0D01*
G01*
X185888750Y-114300000D01*
G75*
G02*
X185645000Y-114056250I0J243750D01*
G01*
G37*
G04 #@! TD.AperFunction*
G04 #@! TA.AperFunction,SMDPad,CuDef*
G36*
G01*
X140493750Y-112420000D02*
X141406250Y-112420000D01*
G75*
G02*
X141650000Y-112663750I0J-243750D01*
G01*
X141650000Y-113151250D01*
G75*
G02*
X141406250Y-113395000I-243750J0D01*
G01*
X140493750Y-113395000D01*
G75*
G02*
X140250000Y-113151250I0J243750D01*
G01*
X140250000Y-112663750D01*
G75*
G02*
X140493750Y-112420000I243750J0D01*
G01*
G37*
G04 #@! TD.AperFunction*
G04 #@! TA.AperFunction,SMDPad,CuDef*
G36*
G01*
X140493750Y-110545000D02*
X141406250Y-110545000D01*
G75*
G02*
X141650000Y-110788750I0J-243750D01*
G01*
X141650000Y-111276250D01*
G75*
G02*
X141406250Y-111520000I-243750J0D01*
G01*
X140493750Y-111520000D01*
G75*
G02*
X140250000Y-111276250I0J243750D01*
G01*
X140250000Y-110788750D01*
G75*
G02*
X140493750Y-110545000I243750J0D01*
G01*
G37*
G04 #@! TD.AperFunction*
G04 #@! TA.AperFunction,SMDPad,CuDef*
G36*
G01*
X161756250Y-104962500D02*
X160843750Y-104962500D01*
G75*
G02*
X160600000Y-104718750I0J243750D01*
G01*
X160600000Y-104231250D01*
G75*
G02*
X160843750Y-103987500I243750J0D01*
G01*
X161756250Y-103987500D01*
G75*
G02*
X162000000Y-104231250I0J-243750D01*
G01*
X162000000Y-104718750D01*
G75*
G02*
X161756250Y-104962500I-243750J0D01*
G01*
G37*
G04 #@! TD.AperFunction*
G04 #@! TA.AperFunction,SMDPad,CuDef*
G36*
G01*
X161756250Y-106837500D02*
X160843750Y-106837500D01*
G75*
G02*
X160600000Y-106593750I0J243750D01*
G01*
X160600000Y-106106250D01*
G75*
G02*
X160843750Y-105862500I243750J0D01*
G01*
X161756250Y-105862500D01*
G75*
G02*
X162000000Y-106106250I0J-243750D01*
G01*
X162000000Y-106593750D01*
G75*
G02*
X161756250Y-106837500I-243750J0D01*
G01*
G37*
G04 #@! TD.AperFunction*
G04 #@! TA.AperFunction,SMDPad,CuDef*
G36*
G01*
X177090000Y-106006250D02*
X177090000Y-105093750D01*
G75*
G02*
X177333750Y-104850000I243750J0D01*
G01*
X177821250Y-104850000D01*
G75*
G02*
X178065000Y-105093750I0J-243750D01*
G01*
X178065000Y-106006250D01*
G75*
G02*
X177821250Y-106250000I-243750J0D01*
G01*
X177333750Y-106250000D01*
G75*
G02*
X177090000Y-106006250I0J243750D01*
G01*
G37*
G04 #@! TD.AperFunction*
G04 #@! TA.AperFunction,SMDPad,CuDef*
G36*
G01*
X175215000Y-106006250D02*
X175215000Y-105093750D01*
G75*
G02*
X175458750Y-104850000I243750J0D01*
G01*
X175946250Y-104850000D01*
G75*
G02*
X176190000Y-105093750I0J-243750D01*
G01*
X176190000Y-106006250D01*
G75*
G02*
X175946250Y-106250000I-243750J0D01*
G01*
X175458750Y-106250000D01*
G75*
G02*
X175215000Y-106006250I0J243750D01*
G01*
G37*
G04 #@! TD.AperFunction*
G04 #@! TA.AperFunction,SMDPad,CuDef*
G36*
G01*
X169912500Y-112026250D02*
X169912500Y-111113750D01*
G75*
G02*
X170156250Y-110870000I243750J0D01*
G01*
X170643750Y-110870000D01*
G75*
G02*
X170887500Y-111113750I0J-243750D01*
G01*
X170887500Y-112026250D01*
G75*
G02*
X170643750Y-112270000I-243750J0D01*
G01*
X170156250Y-112270000D01*
G75*
G02*
X169912500Y-112026250I0J243750D01*
G01*
G37*
G04 #@! TD.AperFunction*
G04 #@! TA.AperFunction,SMDPad,CuDef*
G36*
G01*
X168037500Y-112026250D02*
X168037500Y-111113750D01*
G75*
G02*
X168281250Y-110870000I243750J0D01*
G01*
X168768750Y-110870000D01*
G75*
G02*
X169012500Y-111113750I0J-243750D01*
G01*
X169012500Y-112026250D01*
G75*
G02*
X168768750Y-112270000I-243750J0D01*
G01*
X168281250Y-112270000D01*
G75*
G02*
X168037500Y-112026250I0J243750D01*
G01*
G37*
G04 #@! TD.AperFunction*
G04 #@! TA.AperFunction,SMDPad,CuDef*
G36*
G01*
X187325000Y-109545000D02*
X187325000Y-108295000D01*
G75*
G02*
X187575000Y-108045000I250000J0D01*
G01*
X188325000Y-108045000D01*
G75*
G02*
X188575000Y-108295000I0J-250000D01*
G01*
X188575000Y-109545000D01*
G75*
G02*
X188325000Y-109795000I-250000J0D01*
G01*
X187575000Y-109795000D01*
G75*
G02*
X187325000Y-109545000I0J250000D01*
G01*
G37*
G04 #@! TD.AperFunction*
G04 #@! TA.AperFunction,SMDPad,CuDef*
G36*
G01*
X184525000Y-109545000D02*
X184525000Y-108295000D01*
G75*
G02*
X184775000Y-108045000I250000J0D01*
G01*
X185525000Y-108045000D01*
G75*
G02*
X185775000Y-108295000I0J-250000D01*
G01*
X185775000Y-109545000D01*
G75*
G02*
X185525000Y-109795000I-250000J0D01*
G01*
X184775000Y-109795000D01*
G75*
G02*
X184525000Y-109545000I0J250000D01*
G01*
G37*
G04 #@! TD.AperFunction*
G04 #@! TA.AperFunction,SMDPad,CuDef*
G36*
G01*
X182995000Y-103265000D02*
X181745000Y-103265000D01*
G75*
G02*
X181495000Y-103015000I0J250000D01*
G01*
X181495000Y-102265000D01*
G75*
G02*
X181745000Y-102015000I250000J0D01*
G01*
X182995000Y-102015000D01*
G75*
G02*
X183245000Y-102265000I0J-250000D01*
G01*
X183245000Y-103015000D01*
G75*
G02*
X182995000Y-103265000I-250000J0D01*
G01*
G37*
G04 #@! TD.AperFunction*
G04 #@! TA.AperFunction,SMDPad,CuDef*
G36*
G01*
X182995000Y-106065000D02*
X181745000Y-106065000D01*
G75*
G02*
X181495000Y-105815000I0J250000D01*
G01*
X181495000Y-105065000D01*
G75*
G02*
X181745000Y-104815000I250000J0D01*
G01*
X182995000Y-104815000D01*
G75*
G02*
X183245000Y-105065000I0J-250000D01*
G01*
X183245000Y-105815000D01*
G75*
G02*
X182995000Y-106065000I-250000J0D01*
G01*
G37*
G04 #@! TD.AperFunction*
G04 #@! TA.AperFunction,SMDPad,CuDef*
G36*
G01*
X181555000Y-86975000D02*
X181555000Y-88225000D01*
G75*
G02*
X181305000Y-88475000I-250000J0D01*
G01*
X180555000Y-88475000D01*
G75*
G02*
X180305000Y-88225000I0J250000D01*
G01*
X180305000Y-86975000D01*
G75*
G02*
X180555000Y-86725000I250000J0D01*
G01*
X181305000Y-86725000D01*
G75*
G02*
X181555000Y-86975000I0J-250000D01*
G01*
G37*
G04 #@! TD.AperFunction*
G04 #@! TA.AperFunction,SMDPad,CuDef*
G36*
G01*
X184355000Y-86975000D02*
X184355000Y-88225000D01*
G75*
G02*
X184105000Y-88475000I-250000J0D01*
G01*
X183355000Y-88475000D01*
G75*
G02*
X183105000Y-88225000I0J250000D01*
G01*
X183105000Y-86975000D01*
G75*
G02*
X183355000Y-86725000I250000J0D01*
G01*
X184105000Y-86725000D01*
G75*
G02*
X184355000Y-86975000I0J-250000D01*
G01*
G37*
G04 #@! TD.AperFunction*
G04 #@! TA.AperFunction,SMDPad,CuDef*
G36*
G01*
X180830000Y-100336250D02*
X180830000Y-99423750D01*
G75*
G02*
X181073750Y-99180000I243750J0D01*
G01*
X181561250Y-99180000D01*
G75*
G02*
X181805000Y-99423750I0J-243750D01*
G01*
X181805000Y-100336250D01*
G75*
G02*
X181561250Y-100580000I-243750J0D01*
G01*
X181073750Y-100580000D01*
G75*
G02*
X180830000Y-100336250I0J243750D01*
G01*
G37*
G04 #@! TD.AperFunction*
G04 #@! TA.AperFunction,SMDPad,CuDef*
G36*
G01*
X178955000Y-100336250D02*
X178955000Y-99423750D01*
G75*
G02*
X179198750Y-99180000I243750J0D01*
G01*
X179686250Y-99180000D01*
G75*
G02*
X179930000Y-99423750I0J-243750D01*
G01*
X179930000Y-100336250D01*
G75*
G02*
X179686250Y-100580000I-243750J0D01*
G01*
X179198750Y-100580000D01*
G75*
G02*
X178955000Y-100336250I0J243750D01*
G01*
G37*
G04 #@! TD.AperFunction*
G04 #@! TA.AperFunction,SMDPad,CuDef*
G36*
G01*
X141985000Y-116975000D02*
X140735000Y-116975000D01*
G75*
G02*
X140485000Y-116725000I0J250000D01*
G01*
X140485000Y-115975000D01*
G75*
G02*
X140735000Y-115725000I250000J0D01*
G01*
X141985000Y-115725000D01*
G75*
G02*
X142235000Y-115975000I0J-250000D01*
G01*
X142235000Y-116725000D01*
G75*
G02*
X141985000Y-116975000I-250000J0D01*
G01*
G37*
G04 #@! TD.AperFunction*
G04 #@! TA.AperFunction,SMDPad,CuDef*
G36*
G01*
X141985000Y-119775000D02*
X140735000Y-119775000D01*
G75*
G02*
X140485000Y-119525000I0J250000D01*
G01*
X140485000Y-118775000D01*
G75*
G02*
X140735000Y-118525000I250000J0D01*
G01*
X141985000Y-118525000D01*
G75*
G02*
X142235000Y-118775000I0J-250000D01*
G01*
X142235000Y-119525000D01*
G75*
G02*
X141985000Y-119775000I-250000J0D01*
G01*
G37*
G04 #@! TD.AperFunction*
G04 #@! TA.AperFunction,SMDPad,CuDef*
G36*
G01*
X161502500Y-101956250D02*
X161502500Y-101043750D01*
G75*
G02*
X161746250Y-100800000I243750J0D01*
G01*
X162233750Y-100800000D01*
G75*
G02*
X162477500Y-101043750I0J-243750D01*
G01*
X162477500Y-101956250D01*
G75*
G02*
X162233750Y-102200000I-243750J0D01*
G01*
X161746250Y-102200000D01*
G75*
G02*
X161502500Y-101956250I0J243750D01*
G01*
G37*
G04 #@! TD.AperFunction*
G04 #@! TA.AperFunction,SMDPad,CuDef*
G36*
G01*
X159627500Y-101956250D02*
X159627500Y-101043750D01*
G75*
G02*
X159871250Y-100800000I243750J0D01*
G01*
X160358750Y-100800000D01*
G75*
G02*
X160602500Y-101043750I0J-243750D01*
G01*
X160602500Y-101956250D01*
G75*
G02*
X160358750Y-102200000I-243750J0D01*
G01*
X159871250Y-102200000D01*
G75*
G02*
X159627500Y-101956250I0J243750D01*
G01*
G37*
G04 #@! TD.AperFunction*
G04 #@! TA.AperFunction,SMDPad,CuDef*
G36*
G01*
X148393750Y-93120000D02*
X149306250Y-93120000D01*
G75*
G02*
X149550000Y-93363750I0J-243750D01*
G01*
X149550000Y-93851250D01*
G75*
G02*
X149306250Y-94095000I-243750J0D01*
G01*
X148393750Y-94095000D01*
G75*
G02*
X148150000Y-93851250I0J243750D01*
G01*
X148150000Y-93363750D01*
G75*
G02*
X148393750Y-93120000I243750J0D01*
G01*
G37*
G04 #@! TD.AperFunction*
G04 #@! TA.AperFunction,SMDPad,CuDef*
G36*
G01*
X148393750Y-91245000D02*
X149306250Y-91245000D01*
G75*
G02*
X149550000Y-91488750I0J-243750D01*
G01*
X149550000Y-91976250D01*
G75*
G02*
X149306250Y-92220000I-243750J0D01*
G01*
X148393750Y-92220000D01*
G75*
G02*
X148150000Y-91976250I0J243750D01*
G01*
X148150000Y-91488750D01*
G75*
G02*
X148393750Y-91245000I243750J0D01*
G01*
G37*
G04 #@! TD.AperFunction*
G04 #@! TA.AperFunction,SMDPad,CuDef*
G36*
G01*
X177125000Y-101315000D02*
X175875000Y-101315000D01*
G75*
G02*
X175625000Y-101065000I0J250000D01*
G01*
X175625000Y-100315000D01*
G75*
G02*
X175875000Y-100065000I250000J0D01*
G01*
X177125000Y-100065000D01*
G75*
G02*
X177375000Y-100315000I0J-250000D01*
G01*
X177375000Y-101065000D01*
G75*
G02*
X177125000Y-101315000I-250000J0D01*
G01*
G37*
G04 #@! TD.AperFunction*
G04 #@! TA.AperFunction,SMDPad,CuDef*
G36*
G01*
X177125000Y-104115000D02*
X175875000Y-104115000D01*
G75*
G02*
X175625000Y-103865000I0J250000D01*
G01*
X175625000Y-103115000D01*
G75*
G02*
X175875000Y-102865000I250000J0D01*
G01*
X177125000Y-102865000D01*
G75*
G02*
X177375000Y-103115000I0J-250000D01*
G01*
X177375000Y-103865000D01*
G75*
G02*
X177125000Y-104115000I-250000J0D01*
G01*
G37*
G04 #@! TD.AperFunction*
G04 #@! TA.AperFunction,SMDPad,CuDef*
G36*
G01*
X187325000Y-111855000D02*
X187325000Y-110605000D01*
G75*
G02*
X187575000Y-110355000I250000J0D01*
G01*
X188325000Y-110355000D01*
G75*
G02*
X188575000Y-110605000I0J-250000D01*
G01*
X188575000Y-111855000D01*
G75*
G02*
X188325000Y-112105000I-250000J0D01*
G01*
X187575000Y-112105000D01*
G75*
G02*
X187325000Y-111855000I0J250000D01*
G01*
G37*
G04 #@! TD.AperFunction*
G04 #@! TA.AperFunction,SMDPad,CuDef*
G36*
G01*
X184525000Y-111855000D02*
X184525000Y-110605000D01*
G75*
G02*
X184775000Y-110355000I250000J0D01*
G01*
X185525000Y-110355000D01*
G75*
G02*
X185775000Y-110605000I0J-250000D01*
G01*
X185775000Y-111855000D01*
G75*
G02*
X185525000Y-112105000I-250000J0D01*
G01*
X184775000Y-112105000D01*
G75*
G02*
X184525000Y-111855000I0J250000D01*
G01*
G37*
G04 #@! TD.AperFunction*
D22*
X187970000Y-96990000D03*
X184970000Y-97940000D03*
X184970000Y-96040000D03*
X155500000Y-91020000D03*
X152500000Y-91970000D03*
X152500000Y-90070000D03*
X161330000Y-108080000D03*
X161330000Y-109980000D03*
X164330000Y-109030000D03*
D23*
X175990000Y-78550000D03*
D24*
X174840000Y-82550000D03*
D23*
X173690000Y-78550000D03*
X152150000Y-78445000D03*
D24*
X151000000Y-82445000D03*
D23*
X149850000Y-78445000D03*
G04 #@! TA.AperFunction,SMDPad,CuDef*
G36*
G01*
X184963050Y-76321800D02*
X184050550Y-76321800D01*
G75*
G02*
X183806800Y-76078050I0J243750D01*
G01*
X183806800Y-75590550D01*
G75*
G02*
X184050550Y-75346800I243750J0D01*
G01*
X184963050Y-75346800D01*
G75*
G02*
X185206800Y-75590550I0J-243750D01*
G01*
X185206800Y-76078050D01*
G75*
G02*
X184963050Y-76321800I-243750J0D01*
G01*
G37*
G04 #@! TD.AperFunction*
G04 #@! TA.AperFunction,SMDPad,CuDef*
G36*
G01*
X184963050Y-78196800D02*
X184050550Y-78196800D01*
G75*
G02*
X183806800Y-77953050I0J243750D01*
G01*
X183806800Y-77465550D01*
G75*
G02*
X184050550Y-77221800I243750J0D01*
G01*
X184963050Y-77221800D01*
G75*
G02*
X185206800Y-77465550I0J-243750D01*
G01*
X185206800Y-77953050D01*
G75*
G02*
X184963050Y-78196800I-243750J0D01*
G01*
G37*
G04 #@! TD.AperFunction*
G04 #@! TA.AperFunction,SMDPad,CuDef*
G36*
G01*
X187343750Y-93097500D02*
X188256250Y-93097500D01*
G75*
G02*
X188500000Y-93341250I0J-243750D01*
G01*
X188500000Y-93828750D01*
G75*
G02*
X188256250Y-94072500I-243750J0D01*
G01*
X187343750Y-94072500D01*
G75*
G02*
X187100000Y-93828750I0J243750D01*
G01*
X187100000Y-93341250D01*
G75*
G02*
X187343750Y-93097500I243750J0D01*
G01*
G37*
G04 #@! TD.AperFunction*
G04 #@! TA.AperFunction,SMDPad,CuDef*
G36*
G01*
X187343750Y-91222500D02*
X188256250Y-91222500D01*
G75*
G02*
X188500000Y-91466250I0J-243750D01*
G01*
X188500000Y-91953750D01*
G75*
G02*
X188256250Y-92197500I-243750J0D01*
G01*
X187343750Y-92197500D01*
G75*
G02*
X187100000Y-91953750I0J243750D01*
G01*
X187100000Y-91466250D01*
G75*
G02*
X187343750Y-91222500I243750J0D01*
G01*
G37*
G04 #@! TD.AperFunction*
G04 #@! TA.AperFunction,SMDPad,CuDef*
G36*
G01*
X185403750Y-88082500D02*
X186316250Y-88082500D01*
G75*
G02*
X186560000Y-88326250I0J-243750D01*
G01*
X186560000Y-88813750D01*
G75*
G02*
X186316250Y-89057500I-243750J0D01*
G01*
X185403750Y-89057500D01*
G75*
G02*
X185160000Y-88813750I0J243750D01*
G01*
X185160000Y-88326250D01*
G75*
G02*
X185403750Y-88082500I243750J0D01*
G01*
G37*
G04 #@! TD.AperFunction*
G04 #@! TA.AperFunction,SMDPad,CuDef*
G36*
G01*
X185403750Y-86207500D02*
X186316250Y-86207500D01*
G75*
G02*
X186560000Y-86451250I0J-243750D01*
G01*
X186560000Y-86938750D01*
G75*
G02*
X186316250Y-87182500I-243750J0D01*
G01*
X185403750Y-87182500D01*
G75*
G02*
X185160000Y-86938750I0J243750D01*
G01*
X185160000Y-86451250D01*
G75*
G02*
X185403750Y-86207500I243750J0D01*
G01*
G37*
G04 #@! TD.AperFunction*
G04 #@! TA.AperFunction,SMDPad,CuDef*
G36*
G01*
X187363750Y-89432500D02*
X188276250Y-89432500D01*
G75*
G02*
X188520000Y-89676250I0J-243750D01*
G01*
X188520000Y-90163750D01*
G75*
G02*
X188276250Y-90407500I-243750J0D01*
G01*
X187363750Y-90407500D01*
G75*
G02*
X187120000Y-90163750I0J243750D01*
G01*
X187120000Y-89676250D01*
G75*
G02*
X187363750Y-89432500I243750J0D01*
G01*
G37*
G04 #@! TD.AperFunction*
G04 #@! TA.AperFunction,SMDPad,CuDef*
G36*
G01*
X187363750Y-87557500D02*
X188276250Y-87557500D01*
G75*
G02*
X188520000Y-87801250I0J-243750D01*
G01*
X188520000Y-88288750D01*
G75*
G02*
X188276250Y-88532500I-243750J0D01*
G01*
X187363750Y-88532500D01*
G75*
G02*
X187120000Y-88288750I0J243750D01*
G01*
X187120000Y-87801250D01*
G75*
G02*
X187363750Y-87557500I243750J0D01*
G01*
G37*
G04 #@! TD.AperFunction*
G04 #@! TA.AperFunction,SMDPad,CuDef*
G36*
G01*
X185442500Y-85286250D02*
X185442500Y-84373750D01*
G75*
G02*
X185686250Y-84130000I243750J0D01*
G01*
X186173750Y-84130000D01*
G75*
G02*
X186417500Y-84373750I0J-243750D01*
G01*
X186417500Y-85286250D01*
G75*
G02*
X186173750Y-85530000I-243750J0D01*
G01*
X185686250Y-85530000D01*
G75*
G02*
X185442500Y-85286250I0J243750D01*
G01*
G37*
G04 #@! TD.AperFunction*
G04 #@! TA.AperFunction,SMDPad,CuDef*
G36*
G01*
X183567500Y-85286250D02*
X183567500Y-84373750D01*
G75*
G02*
X183811250Y-84130000I243750J0D01*
G01*
X184298750Y-84130000D01*
G75*
G02*
X184542500Y-84373750I0J-243750D01*
G01*
X184542500Y-85286250D01*
G75*
G02*
X184298750Y-85530000I-243750J0D01*
G01*
X183811250Y-85530000D01*
G75*
G02*
X183567500Y-85286250I0J243750D01*
G01*
G37*
G04 #@! TD.AperFunction*
G04 #@! TA.AperFunction,SMDPad,CuDef*
G36*
G01*
X172108073Y-101880000D02*
X171195573Y-101880000D01*
G75*
G02*
X170951823Y-101636250I0J243750D01*
G01*
X170951823Y-101148750D01*
G75*
G02*
X171195573Y-100905000I243750J0D01*
G01*
X172108073Y-100905000D01*
G75*
G02*
X172351823Y-101148750I0J-243750D01*
G01*
X172351823Y-101636250D01*
G75*
G02*
X172108073Y-101880000I-243750J0D01*
G01*
G37*
G04 #@! TD.AperFunction*
G04 #@! TA.AperFunction,SMDPad,CuDef*
G36*
G01*
X172108073Y-103755000D02*
X171195573Y-103755000D01*
G75*
G02*
X170951823Y-103511250I0J243750D01*
G01*
X170951823Y-103023750D01*
G75*
G02*
X171195573Y-102780000I243750J0D01*
G01*
X172108073Y-102780000D01*
G75*
G02*
X172351823Y-103023750I0J-243750D01*
G01*
X172351823Y-103511250D01*
G75*
G02*
X172108073Y-103755000I-243750J0D01*
G01*
G37*
G04 #@! TD.AperFunction*
G04 #@! TA.AperFunction,SMDPad,CuDef*
G36*
G01*
X174186250Y-101857500D02*
X173273750Y-101857500D01*
G75*
G02*
X173030000Y-101613750I0J243750D01*
G01*
X173030000Y-101126250D01*
G75*
G02*
X173273750Y-100882500I243750J0D01*
G01*
X174186250Y-100882500D01*
G75*
G02*
X174430000Y-101126250I0J-243750D01*
G01*
X174430000Y-101613750D01*
G75*
G02*
X174186250Y-101857500I-243750J0D01*
G01*
G37*
G04 #@! TD.AperFunction*
G04 #@! TA.AperFunction,SMDPad,CuDef*
G36*
G01*
X174186250Y-103732500D02*
X173273750Y-103732500D01*
G75*
G02*
X173030000Y-103488750I0J243750D01*
G01*
X173030000Y-103001250D01*
G75*
G02*
X173273750Y-102757500I243750J0D01*
G01*
X174186250Y-102757500D01*
G75*
G02*
X174430000Y-103001250I0J-243750D01*
G01*
X174430000Y-103488750D01*
G75*
G02*
X174186250Y-103732500I-243750J0D01*
G01*
G37*
G04 #@! TD.AperFunction*
G04 #@! TA.AperFunction,SMDPad,CuDef*
G36*
G01*
X161406250Y-72780000D02*
X160493750Y-72780000D01*
G75*
G02*
X160250000Y-72536250I0J243750D01*
G01*
X160250000Y-72048750D01*
G75*
G02*
X160493750Y-71805000I243750J0D01*
G01*
X161406250Y-71805000D01*
G75*
G02*
X161650000Y-72048750I0J-243750D01*
G01*
X161650000Y-72536250D01*
G75*
G02*
X161406250Y-72780000I-243750J0D01*
G01*
G37*
G04 #@! TD.AperFunction*
G04 #@! TA.AperFunction,SMDPad,CuDef*
G36*
G01*
X161406250Y-74655000D02*
X160493750Y-74655000D01*
G75*
G02*
X160250000Y-74411250I0J243750D01*
G01*
X160250000Y-73923750D01*
G75*
G02*
X160493750Y-73680000I243750J0D01*
G01*
X161406250Y-73680000D01*
G75*
G02*
X161650000Y-73923750I0J-243750D01*
G01*
X161650000Y-74411250D01*
G75*
G02*
X161406250Y-74655000I-243750J0D01*
G01*
G37*
G04 #@! TD.AperFunction*
G04 #@! TA.AperFunction,SMDPad,CuDef*
G36*
G01*
X155726250Y-79450000D02*
X154813750Y-79450000D01*
G75*
G02*
X154570000Y-79206250I0J243750D01*
G01*
X154570000Y-78718750D01*
G75*
G02*
X154813750Y-78475000I243750J0D01*
G01*
X155726250Y-78475000D01*
G75*
G02*
X155970000Y-78718750I0J-243750D01*
G01*
X155970000Y-79206250D01*
G75*
G02*
X155726250Y-79450000I-243750J0D01*
G01*
G37*
G04 #@! TD.AperFunction*
G04 #@! TA.AperFunction,SMDPad,CuDef*
G36*
G01*
X155726250Y-81325000D02*
X154813750Y-81325000D01*
G75*
G02*
X154570000Y-81081250I0J243750D01*
G01*
X154570000Y-80593750D01*
G75*
G02*
X154813750Y-80350000I243750J0D01*
G01*
X155726250Y-80350000D01*
G75*
G02*
X155970000Y-80593750I0J-243750D01*
G01*
X155970000Y-81081250D01*
G75*
G02*
X155726250Y-81325000I-243750J0D01*
G01*
G37*
G04 #@! TD.AperFunction*
G04 #@! TA.AperFunction,SMDPad,CuDef*
G36*
G01*
X149122500Y-86406250D02*
X149122500Y-85493750D01*
G75*
G02*
X149366250Y-85250000I243750J0D01*
G01*
X149853750Y-85250000D01*
G75*
G02*
X150097500Y-85493750I0J-243750D01*
G01*
X150097500Y-86406250D01*
G75*
G02*
X149853750Y-86650000I-243750J0D01*
G01*
X149366250Y-86650000D01*
G75*
G02*
X149122500Y-86406250I0J243750D01*
G01*
G37*
G04 #@! TD.AperFunction*
G04 #@! TA.AperFunction,SMDPad,CuDef*
G36*
G01*
X147247500Y-86406250D02*
X147247500Y-85493750D01*
G75*
G02*
X147491250Y-85250000I243750J0D01*
G01*
X147978750Y-85250000D01*
G75*
G02*
X148222500Y-85493750I0J-243750D01*
G01*
X148222500Y-86406250D01*
G75*
G02*
X147978750Y-86650000I-243750J0D01*
G01*
X147491250Y-86650000D01*
G75*
G02*
X147247500Y-86406250I0J243750D01*
G01*
G37*
G04 #@! TD.AperFunction*
G04 #@! TA.AperFunction,SMDPad,CuDef*
G36*
G01*
X151780000Y-85493750D02*
X151780000Y-86406250D01*
G75*
G02*
X151536250Y-86650000I-243750J0D01*
G01*
X151048750Y-86650000D01*
G75*
G02*
X150805000Y-86406250I0J243750D01*
G01*
X150805000Y-85493750D01*
G75*
G02*
X151048750Y-85250000I243750J0D01*
G01*
X151536250Y-85250000D01*
G75*
G02*
X151780000Y-85493750I0J-243750D01*
G01*
G37*
G04 #@! TD.AperFunction*
G04 #@! TA.AperFunction,SMDPad,CuDef*
G36*
G01*
X153655000Y-85493750D02*
X153655000Y-86406250D01*
G75*
G02*
X153411250Y-86650000I-243750J0D01*
G01*
X152923750Y-86650000D01*
G75*
G02*
X152680000Y-86406250I0J243750D01*
G01*
X152680000Y-85493750D01*
G75*
G02*
X152923750Y-85250000I243750J0D01*
G01*
X153411250Y-85250000D01*
G75*
G02*
X153655000Y-85493750I0J-243750D01*
G01*
G37*
G04 #@! TD.AperFunction*
G04 #@! TA.AperFunction,SMDPad,CuDef*
G36*
G01*
X158551346Y-78214271D02*
X158551346Y-79126771D01*
G75*
G02*
X158307596Y-79370521I-243750J0D01*
G01*
X157820096Y-79370521D01*
G75*
G02*
X157576346Y-79126771I0J243750D01*
G01*
X157576346Y-78214271D01*
G75*
G02*
X157820096Y-77970521I243750J0D01*
G01*
X158307596Y-77970521D01*
G75*
G02*
X158551346Y-78214271I0J-243750D01*
G01*
G37*
G04 #@! TD.AperFunction*
G04 #@! TA.AperFunction,SMDPad,CuDef*
G36*
G01*
X160426346Y-78214271D02*
X160426346Y-79126771D01*
G75*
G02*
X160182596Y-79370521I-243750J0D01*
G01*
X159695096Y-79370521D01*
G75*
G02*
X159451346Y-79126771I0J243750D01*
G01*
X159451346Y-78214271D01*
G75*
G02*
X159695096Y-77970521I243750J0D01*
G01*
X160182596Y-77970521D01*
G75*
G02*
X160426346Y-78214271I0J-243750D01*
G01*
G37*
G04 #@! TD.AperFunction*
G04 #@! TA.AperFunction,SMDPad,CuDef*
G36*
G01*
X168050000Y-101406250D02*
X168050000Y-100493750D01*
G75*
G02*
X168293750Y-100250000I243750J0D01*
G01*
X168781250Y-100250000D01*
G75*
G02*
X169025000Y-100493750I0J-243750D01*
G01*
X169025000Y-101406250D01*
G75*
G02*
X168781250Y-101650000I-243750J0D01*
G01*
X168293750Y-101650000D01*
G75*
G02*
X168050000Y-101406250I0J243750D01*
G01*
G37*
G04 #@! TD.AperFunction*
G04 #@! TA.AperFunction,SMDPad,CuDef*
G36*
G01*
X166175000Y-101406250D02*
X166175000Y-100493750D01*
G75*
G02*
X166418750Y-100250000I243750J0D01*
G01*
X166906250Y-100250000D01*
G75*
G02*
X167150000Y-100493750I0J-243750D01*
G01*
X167150000Y-101406250D01*
G75*
G02*
X166906250Y-101650000I-243750J0D01*
G01*
X166418750Y-101650000D01*
G75*
G02*
X166175000Y-101406250I0J243750D01*
G01*
G37*
G04 #@! TD.AperFunction*
G04 #@! TA.AperFunction,SMDPad,CuDef*
G36*
G01*
X168050000Y-103506250D02*
X168050000Y-102593750D01*
G75*
G02*
X168293750Y-102350000I243750J0D01*
G01*
X168781250Y-102350000D01*
G75*
G02*
X169025000Y-102593750I0J-243750D01*
G01*
X169025000Y-103506250D01*
G75*
G02*
X168781250Y-103750000I-243750J0D01*
G01*
X168293750Y-103750000D01*
G75*
G02*
X168050000Y-103506250I0J243750D01*
G01*
G37*
G04 #@! TD.AperFunction*
G04 #@! TA.AperFunction,SMDPad,CuDef*
G36*
G01*
X166175000Y-103506250D02*
X166175000Y-102593750D01*
G75*
G02*
X166418750Y-102350000I243750J0D01*
G01*
X166906250Y-102350000D01*
G75*
G02*
X167150000Y-102593750I0J-243750D01*
G01*
X167150000Y-103506250D01*
G75*
G02*
X166906250Y-103750000I-243750J0D01*
G01*
X166418750Y-103750000D01*
G75*
G02*
X166175000Y-103506250I0J243750D01*
G01*
G37*
G04 #@! TD.AperFunction*
G04 #@! TA.AperFunction,SMDPad,CuDef*
G36*
G01*
X163916250Y-104970000D02*
X163003750Y-104970000D01*
G75*
G02*
X162760000Y-104726250I0J243750D01*
G01*
X162760000Y-104238750D01*
G75*
G02*
X163003750Y-103995000I243750J0D01*
G01*
X163916250Y-103995000D01*
G75*
G02*
X164160000Y-104238750I0J-243750D01*
G01*
X164160000Y-104726250D01*
G75*
G02*
X163916250Y-104970000I-243750J0D01*
G01*
G37*
G04 #@! TD.AperFunction*
G04 #@! TA.AperFunction,SMDPad,CuDef*
G36*
G01*
X163916250Y-106845000D02*
X163003750Y-106845000D01*
G75*
G02*
X162760000Y-106601250I0J243750D01*
G01*
X162760000Y-106113750D01*
G75*
G02*
X163003750Y-105870000I243750J0D01*
G01*
X163916250Y-105870000D01*
G75*
G02*
X164160000Y-106113750I0J-243750D01*
G01*
X164160000Y-106601250D01*
G75*
G02*
X163916250Y-106845000I-243750J0D01*
G01*
G37*
G04 #@! TD.AperFunction*
G04 #@! TA.AperFunction,SMDPad,CuDef*
G36*
G01*
X172587500Y-111113750D02*
X172587500Y-112026250D01*
G75*
G02*
X172343750Y-112270000I-243750J0D01*
G01*
X171856250Y-112270000D01*
G75*
G02*
X171612500Y-112026250I0J243750D01*
G01*
X171612500Y-111113750D01*
G75*
G02*
X171856250Y-110870000I243750J0D01*
G01*
X172343750Y-110870000D01*
G75*
G02*
X172587500Y-111113750I0J-243750D01*
G01*
G37*
G04 #@! TD.AperFunction*
G04 #@! TA.AperFunction,SMDPad,CuDef*
G36*
G01*
X174462500Y-111113750D02*
X174462500Y-112026250D01*
G75*
G02*
X174218750Y-112270000I-243750J0D01*
G01*
X173731250Y-112270000D01*
G75*
G02*
X173487500Y-112026250I0J243750D01*
G01*
X173487500Y-111113750D01*
G75*
G02*
X173731250Y-110870000I243750J0D01*
G01*
X174218750Y-110870000D01*
G75*
G02*
X174462500Y-111113750I0J-243750D01*
G01*
G37*
G04 #@! TD.AperFunction*
G04 #@! TA.AperFunction,SMDPad,CuDef*
G36*
G01*
X175843750Y-110160000D02*
X176756250Y-110160000D01*
G75*
G02*
X177000000Y-110403750I0J-243750D01*
G01*
X177000000Y-110891250D01*
G75*
G02*
X176756250Y-111135000I-243750J0D01*
G01*
X175843750Y-111135000D01*
G75*
G02*
X175600000Y-110891250I0J243750D01*
G01*
X175600000Y-110403750D01*
G75*
G02*
X175843750Y-110160000I243750J0D01*
G01*
G37*
G04 #@! TD.AperFunction*
G04 #@! TA.AperFunction,SMDPad,CuDef*
G36*
G01*
X175843750Y-108285000D02*
X176756250Y-108285000D01*
G75*
G02*
X177000000Y-108528750I0J-243750D01*
G01*
X177000000Y-109016250D01*
G75*
G02*
X176756250Y-109260000I-243750J0D01*
G01*
X175843750Y-109260000D01*
G75*
G02*
X175600000Y-109016250I0J243750D01*
G01*
X175600000Y-108528750D01*
G75*
G02*
X175843750Y-108285000I243750J0D01*
G01*
G37*
G04 #@! TD.AperFunction*
D25*
X179050000Y-74820000D03*
X176550000Y-74820000D03*
X174050000Y-74820000D03*
X155150000Y-74820000D03*
X152650000Y-74820000D03*
X150150000Y-74820000D03*
D26*
X159440000Y-99240000D03*
X158170000Y-99240000D03*
X156900000Y-99240000D03*
X155630000Y-99240000D03*
X154360000Y-99240000D03*
X153090000Y-99240000D03*
X151820000Y-99240000D03*
X150550000Y-99240000D03*
X150550000Y-93840000D03*
X151820000Y-93840000D03*
X153090000Y-93840000D03*
X154360000Y-93840000D03*
X155630000Y-93840000D03*
X156900000Y-93840000D03*
X158170000Y-93840000D03*
X159440000Y-93840000D03*
D27*
X173775000Y-105890000D03*
X173775000Y-107160000D03*
X173775000Y-108430000D03*
X173775000Y-109700000D03*
X168375000Y-109700000D03*
X168375000Y-108430000D03*
X168375000Y-107160000D03*
X168375000Y-105890000D03*
G04 #@! TA.AperFunction,SMDPad,CuDef*
D28*
G36*
X140110000Y-105275000D02*
G01*
X140860000Y-105775000D01*
X140860000Y-106775000D01*
X139360000Y-106775000D01*
X139360000Y-105775000D01*
X140110000Y-105275000D01*
G37*
G04 #@! TD.AperFunction*
G04 #@! TA.AperFunction,SMDPad,CuDef*
G36*
X140860000Y-104325000D02*
G01*
X140860000Y-105475000D01*
X140110000Y-104975000D01*
X139360000Y-105475000D01*
X139360000Y-104325000D01*
X140860000Y-104325000D01*
G37*
G04 #@! TD.AperFunction*
D29*
X113815000Y-113490000D03*
X113815000Y-87490000D03*
D30*
X134140000Y-123740000D03*
X134140000Y-122240000D03*
X134140000Y-120740000D03*
X134140000Y-119240000D03*
X134140000Y-117740000D03*
X134140000Y-116240000D03*
X134140000Y-114740000D03*
X134140000Y-113240000D03*
X134140000Y-111740000D03*
X134140000Y-110240000D03*
X134140000Y-108740000D03*
X134140000Y-107240000D03*
X134140000Y-105740000D03*
X134140000Y-104240000D03*
X134140000Y-102740000D03*
X134140000Y-101240000D03*
X134140000Y-99740000D03*
X134140000Y-98240000D03*
X134140000Y-96740000D03*
X134140000Y-95240000D03*
X134140000Y-93740000D03*
X134140000Y-92240000D03*
X134140000Y-90740000D03*
X134140000Y-89240000D03*
X134140000Y-87740000D03*
X134140000Y-86240000D03*
X134140000Y-84740000D03*
X134140000Y-83240000D03*
X134140000Y-81740000D03*
X134140000Y-80240000D03*
X134140000Y-78740000D03*
X134140000Y-77240000D03*
D31*
X169560000Y-70940000D03*
D32*
X167020000Y-70940000D03*
D31*
X145690000Y-70940000D03*
D32*
X143150000Y-70940000D03*
D12*
X175920000Y-89510000D03*
X175920000Y-90780000D03*
X175920000Y-92050000D03*
X175920000Y-93320000D03*
X175920000Y-94590000D03*
X175920000Y-95860000D03*
X175920000Y-97130000D03*
X175920000Y-98400000D03*
X166620000Y-98400000D03*
X166620000Y-97130000D03*
X166620000Y-95860000D03*
X166620000Y-94590000D03*
X166620000Y-93320000D03*
X166620000Y-92050000D03*
X166620000Y-90780000D03*
X166620000Y-89510000D03*
D33*
X176600000Y-113365000D03*
X176600000Y-114015000D03*
X176600000Y-114665000D03*
X176600000Y-115315000D03*
X176600000Y-115965000D03*
X176600000Y-116615000D03*
X176600000Y-117265000D03*
X176600000Y-117915000D03*
X176600000Y-118565000D03*
X176600000Y-119215000D03*
X176600000Y-119865000D03*
X176600000Y-120515000D03*
X183800000Y-120515000D03*
X183800000Y-119865000D03*
X183800000Y-119215000D03*
X183800000Y-118565000D03*
X183800000Y-117915000D03*
X183800000Y-117265000D03*
X183800000Y-116615000D03*
X183800000Y-115965000D03*
X183800000Y-115315000D03*
X183800000Y-114665000D03*
X183800000Y-114015000D03*
X183800000Y-113365000D03*
D34*
X165520000Y-81780000D03*
X163400000Y-81760000D03*
X179070000Y-74120000D03*
X179120000Y-75560000D03*
X176530000Y-75470000D03*
X176560000Y-74090000D03*
X174429999Y-91140000D03*
X184990000Y-83649998D03*
X186309000Y-91897200D03*
X179933600Y-89128600D03*
X171660000Y-100240000D03*
X174320000Y-97600010D03*
X178562000Y-95529400D03*
X180898800Y-95529400D03*
X171660000Y-104319998D03*
X171670000Y-106780000D03*
X171784990Y-109810000D03*
X169672000Y-115163600D03*
X139610000Y-81750000D03*
X141580000Y-81750000D03*
X155180000Y-74120000D03*
X155200000Y-75500000D03*
X152680000Y-75490000D03*
X152660000Y-74130000D03*
X155500000Y-89910000D03*
X162788600Y-85902800D03*
X158089600Y-82245200D03*
X162260000Y-92940000D03*
X167914996Y-93325000D03*
X164846000Y-107340400D03*
X165455600Y-101803200D03*
X183980000Y-89270000D03*
X181350000Y-104060000D03*
X178700002Y-119760000D03*
X153187400Y-100761800D03*
X151840000Y-97560000D03*
X181691211Y-117167606D03*
X153080000Y-97530000D03*
X181051200Y-116687600D03*
X142970000Y-119130000D03*
X185792500Y-106820000D03*
X188810000Y-103660000D03*
X159448500Y-95186500D03*
X159448500Y-97726500D03*
X148849964Y-91732500D03*
X176987200Y-106984800D03*
X174599600Y-104495600D03*
X168783000Y-94297500D03*
X170561000Y-92519500D03*
X169799000Y-95440500D03*
X172085000Y-93154500D03*
X163380000Y-72310000D03*
X115850000Y-113540000D03*
X148850000Y-95260000D03*
X151550000Y-88170000D03*
X143090000Y-86220000D03*
X142840000Y-116340000D03*
X141170002Y-100240000D03*
X116220000Y-87500000D03*
X141520000Y-72300000D03*
X139510000Y-72330000D03*
X165410000Y-72290000D03*
X182080000Y-120510000D03*
X184560000Y-80520000D03*
X170400000Y-112920000D03*
X188050000Y-115270000D03*
X182480000Y-100140000D03*
X180930000Y-87600000D03*
X179180000Y-80590000D03*
X186050000Y-103110000D03*
X188050000Y-116650000D03*
X188050000Y-118080000D03*
X188050000Y-119560000D03*
X188050000Y-121220000D03*
X187830000Y-85910000D03*
X174510000Y-113660010D03*
X161990005Y-103197495D03*
X186385200Y-94437200D03*
X181076594Y-92557600D03*
X164185600Y-85953600D03*
X162255200Y-75285600D03*
X172643800Y-87172800D03*
X160401000Y-90551000D03*
X187670034Y-100310000D03*
X178181000Y-97028000D03*
X177577500Y-105549964D03*
X178308002Y-102110000D03*
X152552400Y-87477600D03*
X175107600Y-109677200D03*
X173532798Y-116128800D03*
X173055190Y-113660010D03*
X178866800Y-113385600D03*
X179400200Y-114020600D03*
X164134802Y-101447600D03*
X174070000Y-75590000D03*
X174040000Y-74150000D03*
X150160000Y-74140000D03*
X150160000Y-75520000D03*
X185597800Y-115316000D03*
X163322000Y-107746800D03*
X170130671Y-107959990D03*
X179440001Y-98450000D03*
X177419000Y-94437200D03*
X165988992Y-87630000D03*
X155905200Y-88290400D03*
X181390804Y-89124228D03*
X160845500Y-81026000D03*
X180213000Y-107569000D03*
X184912000Y-89535000D03*
X174307500Y-89471500D03*
X184970084Y-97940000D03*
X154305000Y-89357200D03*
X169110000Y-84830000D03*
X169110000Y-87000000D03*
X145170000Y-87050000D03*
X145180000Y-85100000D03*
X175320000Y-107160000D03*
X147930000Y-78460000D03*
X171770000Y-78460002D03*
X178000000Y-77500000D03*
X169760000Y-105900000D03*
X154429998Y-77645010D03*
X183090000Y-111780000D03*
X182090002Y-119210000D03*
X169760000Y-103050002D03*
X175040000Y-101000000D03*
X146310000Y-110200000D03*
X142160000Y-121490000D03*
X142590000Y-95390000D03*
X142790000Y-120680000D03*
X142600000Y-91600000D03*
X142417800Y-109143800D03*
X145084800Y-100228400D03*
X146310000Y-121970000D03*
X150730002Y-122060000D03*
X148768814Y-122110123D03*
X152000000Y-122020000D03*
X148767800Y-121285000D03*
X153380007Y-121950007D03*
X148760055Y-120471575D03*
X147870011Y-120319747D03*
X154670000Y-121913898D03*
X155670000Y-122030000D03*
X147010000Y-120320000D03*
X158619999Y-121979999D03*
X146939000Y-104140000D03*
X157360000Y-121335021D03*
X147751802Y-104140000D03*
X154760000Y-118550000D03*
X148371390Y-104749600D03*
X156028051Y-118921949D03*
X148996400Y-104124590D03*
X166700000Y-122185065D03*
X149250400Y-107924600D03*
X168330000Y-121990000D03*
X149250400Y-107035600D03*
X173650000Y-122165010D03*
X170930000Y-121730000D03*
X169341800Y-98958400D03*
X180238400Y-116230400D03*
X172090000Y-121515054D03*
X174350000Y-121510002D03*
X175120000Y-120990002D03*
X152044400Y-109601000D03*
X178200000Y-122089998D03*
X152755600Y-108331000D03*
X157145000Y-104888058D03*
X179670000Y-122170000D03*
X181160000Y-122320000D03*
X154635200Y-107696000D03*
X155346400Y-106705400D03*
X182278608Y-117710730D03*
X118009775Y-85283961D03*
X128667011Y-118927978D03*
X124004990Y-93963961D03*
X131230000Y-98370000D03*
X124004990Y-98963961D03*
X130565054Y-100620000D03*
X114900000Y-83750000D03*
X132115010Y-117783961D03*
X124210000Y-113668951D03*
X132115010Y-116243961D03*
X119329775Y-110363961D03*
X132115010Y-114703961D03*
X124954990Y-110402676D03*
X132115010Y-113273961D03*
X119599775Y-107903961D03*
X132115010Y-111733961D03*
X124489989Y-107963961D03*
X132115010Y-110233961D03*
X119849775Y-105303961D03*
X132115010Y-108703961D03*
X124004990Y-105393961D03*
X132115010Y-107283961D03*
X124004990Y-102843961D03*
X132115010Y-105733961D03*
X124004990Y-91443961D03*
X130575010Y-97600000D03*
X124004990Y-101613961D03*
X132265076Y-101229874D03*
X124004990Y-96493961D03*
X132225021Y-99713963D03*
X132200000Y-98173997D03*
X124008336Y-90162408D03*
X132240000Y-96740000D03*
X124050000Y-88900000D03*
X132220000Y-95260000D03*
X123980000Y-86350000D03*
X124004990Y-104133961D03*
X130115043Y-104083961D03*
X119369775Y-112973961D03*
X130610000Y-114560000D03*
X124050000Y-116130000D03*
X130590000Y-117250000D03*
D35*
X185275000Y-86110000D02*
X185860000Y-86695000D01*
X176999967Y-86110000D02*
X185275000Y-86110000D01*
X174840000Y-82550000D02*
X174840000Y-83950033D01*
X174840000Y-83950033D02*
X176999967Y-86110000D01*
X151000000Y-82445000D02*
X151515000Y-82445000D01*
X148625000Y-82445000D02*
X151000000Y-82445000D01*
X147742500Y-85930000D02*
X147742500Y-83327500D01*
X147742500Y-83327500D02*
X148625000Y-82445000D01*
X187800000Y-89940000D02*
X187820000Y-89920000D01*
X187800000Y-91710000D02*
X187800000Y-89940000D01*
X187210000Y-89920000D02*
X185860000Y-88570000D01*
X187820000Y-89920000D02*
X187210000Y-89920000D01*
X149700000Y-85960000D02*
X151320000Y-85960000D01*
X153807700Y-80837500D02*
X155270000Y-80837500D01*
X153466800Y-81178400D02*
X153807700Y-80837500D01*
X151292500Y-84673500D02*
X151688800Y-84277200D01*
X153466800Y-83870800D02*
X153466800Y-81178400D01*
X151292500Y-85950000D02*
X151292500Y-84673500D01*
X153060400Y-84277200D02*
X153466800Y-83870800D01*
X151688800Y-84277200D02*
X153060400Y-84277200D01*
D36*
X172930000Y-108430000D02*
X173775000Y-108430000D01*
X172410000Y-110110000D02*
X172410000Y-108950000D01*
X172410000Y-108950000D02*
X172930000Y-108430000D01*
X173975000Y-111570000D02*
X173870000Y-111570000D01*
X173870000Y-111570000D02*
X172410000Y-110110000D01*
D35*
X175882536Y-110647500D02*
X176300000Y-110647500D01*
X173975000Y-111570000D02*
X174960036Y-111570000D01*
X174960036Y-111570000D02*
X175882536Y-110647500D01*
X166400000Y-95875000D02*
X165491000Y-95875000D01*
X166410000Y-95865000D02*
X166400000Y-95875000D01*
X158170000Y-95813000D02*
X158170000Y-93840000D01*
X165491000Y-95875000D02*
X165163500Y-96202500D01*
X165163500Y-96202500D02*
X158559500Y-96202500D01*
X158559500Y-96202500D02*
X158170000Y-95813000D01*
X166410000Y-97135000D02*
X166366500Y-97091500D01*
X165370000Y-97130000D02*
X166620000Y-97130000D01*
X158170000Y-97290500D02*
X158557990Y-96902510D01*
X158170000Y-99240000D02*
X158170000Y-97290500D01*
X158557990Y-96902510D02*
X165163500Y-96902510D01*
X165163500Y-96902510D02*
X165163500Y-96923500D01*
X165163500Y-96923500D02*
X165370000Y-97130000D01*
X179110000Y-74540000D02*
X179060000Y-74490000D01*
X179070000Y-74120000D02*
X179060000Y-74490000D01*
X179120000Y-75560000D02*
X179070000Y-74120000D01*
X164430000Y-81790000D02*
X164940000Y-81740000D01*
X164430000Y-81750000D02*
X164430000Y-81790000D01*
X164440000Y-81740000D02*
X164430000Y-81750000D01*
X164060000Y-81360000D02*
X164440000Y-81740000D01*
X179060000Y-76571000D02*
X179060000Y-74830000D01*
X179060000Y-74830000D02*
X179050000Y-74820000D01*
X179060000Y-76672600D02*
X179060000Y-76571000D01*
X182366800Y-77709300D02*
X180096700Y-77709300D01*
X180096700Y-77709300D02*
X179060000Y-76672600D01*
X178931000Y-76700000D02*
X170807000Y-76700000D01*
X170815000Y-76692000D02*
X170807000Y-76700000D01*
X169560000Y-70940000D02*
X170815000Y-72195000D01*
X170815000Y-72195000D02*
X170815000Y-76692000D01*
X162955200Y-78356700D02*
X162957500Y-78359000D01*
X162255200Y-78356700D02*
X162955200Y-78356700D01*
X169148000Y-78359000D02*
X170815000Y-76692000D01*
X162957500Y-78359000D02*
X169148000Y-78359000D01*
X162255200Y-78356700D02*
X162255200Y-79146400D01*
X162255200Y-79146400D02*
X162814000Y-79705200D01*
X162814000Y-79705200D02*
X163906200Y-79705200D01*
X164440000Y-80239000D02*
X164440000Y-81740000D01*
X163906200Y-79705200D02*
X164440000Y-80239000D01*
X176560000Y-74490000D02*
X176560000Y-74090000D01*
X182366800Y-75834300D02*
X184506800Y-75834300D01*
X182366800Y-71546600D02*
X182366800Y-75834300D01*
X181330600Y-70510400D02*
X182366800Y-71546600D01*
X177339600Y-70510400D02*
X181330600Y-70510400D01*
X176560000Y-74090000D02*
X176560000Y-71290000D01*
X176560000Y-71290000D02*
X177339600Y-70510400D01*
X185940000Y-84820000D02*
X185930000Y-84830000D01*
X185940000Y-82640000D02*
X185940000Y-84820000D01*
X187800000Y-96820000D02*
X187970000Y-96990000D01*
X187800000Y-93585000D02*
X187800000Y-96820000D01*
X184440000Y-93155000D02*
X186035000Y-93155000D01*
X186465000Y-93585000D02*
X187800000Y-93585000D01*
X186035000Y-93155000D02*
X186465000Y-93585000D01*
D36*
X188645000Y-93585000D02*
X187800000Y-93585000D01*
X189012571Y-93217429D02*
X188645000Y-93585000D01*
X189012571Y-85782571D02*
X189012571Y-93217429D01*
X185930000Y-84830000D02*
X188060000Y-84830000D01*
X188060000Y-84830000D02*
X189012571Y-85782571D01*
D35*
X185940000Y-79990000D02*
X185940000Y-82640000D01*
X185940000Y-78066200D02*
X185940000Y-79990000D01*
X184506800Y-77709300D02*
X185583100Y-77709300D01*
X185583100Y-77709300D02*
X185940000Y-78066200D01*
X184065000Y-84820000D02*
X184055000Y-84830000D01*
X184065000Y-82640000D02*
X184065000Y-84820000D01*
X174670000Y-94590000D02*
X175920000Y-94590000D01*
X174430000Y-94350000D02*
X174670000Y-94590000D01*
X174429999Y-91140000D02*
X174430000Y-94350000D01*
X184990000Y-83565000D02*
X184990000Y-83649998D01*
X184065000Y-82640000D02*
X184990000Y-83565000D01*
X180186965Y-89128600D02*
X179933600Y-89128600D01*
X186309000Y-91897200D02*
X182955565Y-91897200D01*
X182955565Y-91897200D02*
X180186965Y-89128600D01*
X178231800Y-91897200D02*
X179523620Y-91897200D01*
D36*
X178206400Y-91871800D02*
X178231800Y-91897200D01*
D35*
X177800000Y-93040200D02*
X177520200Y-93320000D01*
X178206400Y-91871800D02*
X177800000Y-92278200D01*
X177520200Y-93320000D02*
X175920000Y-93320000D01*
X177800000Y-92278200D02*
X177800000Y-93040200D01*
X177825400Y-91490800D02*
X178206400Y-91871800D01*
X177088800Y-87480000D02*
X177825400Y-88216600D01*
X177825400Y-88216600D02*
X177825400Y-91490800D01*
X171651823Y-101392500D02*
X171651823Y-100248177D01*
X171651823Y-100248177D02*
X171660000Y-100240000D01*
X174320000Y-97175746D02*
X174320000Y-97600010D01*
X174320000Y-96430000D02*
X174320000Y-97175746D01*
X175920000Y-95860000D02*
X174890000Y-95860000D01*
X174890000Y-95860000D02*
X174320000Y-96430000D01*
X179060000Y-90595000D02*
X179040000Y-90615000D01*
X179040000Y-87556200D02*
X178963800Y-87480000D01*
X179040000Y-90615000D02*
X179040000Y-87556200D01*
X177170000Y-95860000D02*
X175920000Y-95860000D01*
X177500600Y-95529400D02*
X177170000Y-95860000D01*
X177500600Y-95529400D02*
X178562000Y-95529400D01*
X181965600Y-94462600D02*
X180898800Y-95529400D01*
X179040000Y-90615000D02*
X180683400Y-90615000D01*
X181965600Y-91897200D02*
X181965600Y-94462600D01*
X180683400Y-90615000D02*
X181965600Y-91897200D01*
X171994317Y-103245000D02*
X171651823Y-103587494D01*
X173730000Y-103245000D02*
X171994317Y-103245000D01*
D36*
X171660000Y-103595671D02*
X171651823Y-103587494D01*
D35*
X171660000Y-103595671D02*
X171660000Y-104319998D01*
X171670000Y-109695010D02*
X171784990Y-109810000D01*
X171670000Y-106780000D02*
X171670000Y-109695010D01*
X169690000Y-116200000D02*
X169690000Y-115181600D01*
X169690000Y-115181600D02*
X169672000Y-115163600D01*
D36*
X170170600Y-114665000D02*
X169672000Y-115163600D01*
X176600000Y-114665000D02*
X170170600Y-114665000D01*
D37*
X141050000Y-81770000D02*
X141580000Y-81750000D01*
D35*
X155310000Y-74520000D02*
X155150000Y-74680000D01*
X155150000Y-74680000D02*
X155150000Y-74820000D01*
X157292500Y-74197500D02*
X159250000Y-74197500D01*
X155150000Y-74820000D02*
X156670000Y-74820000D01*
X156670000Y-74820000D02*
X157292500Y-74197500D01*
D37*
X140570000Y-81760000D02*
X141050000Y-81770000D01*
X140015000Y-83925000D02*
X140570000Y-83370000D01*
X140015000Y-86190000D02*
X140015000Y-83925000D01*
X140570000Y-83370000D02*
X140570000Y-81760000D01*
X155180000Y-74120000D02*
X155160000Y-74500000D01*
X155200000Y-75500000D02*
X155180000Y-74120000D01*
X154760000Y-76770000D02*
X146634200Y-76770000D01*
X155200000Y-75500000D02*
X155160000Y-76370000D01*
X155160000Y-76370000D02*
X154760000Y-76770000D01*
X146620000Y-76755800D02*
X146634200Y-76770000D01*
X145690000Y-70940000D02*
X146620000Y-71870000D01*
X146620000Y-71870000D02*
X146620000Y-76755800D01*
X140570000Y-79089200D02*
X140570000Y-81760000D01*
X146620000Y-76755800D02*
X145702600Y-77673200D01*
X141986000Y-77673200D02*
X140570000Y-79089200D01*
X145702600Y-77673200D02*
X141986000Y-77673200D01*
D35*
X161390000Y-72322500D02*
X161420000Y-72292500D01*
X158780000Y-72322500D02*
X161390000Y-72322500D01*
X152660000Y-74500000D02*
X152660000Y-74130000D01*
X158780000Y-71000000D02*
X158780000Y-72322500D01*
X158290400Y-70510400D02*
X158780000Y-71000000D01*
X152660000Y-74130000D02*
X152660000Y-71230000D01*
X153379600Y-70510400D02*
X158290400Y-70510400D01*
X152660000Y-71230000D02*
X153379600Y-70510400D01*
X159938846Y-76600521D02*
X159918846Y-76580521D01*
X159938846Y-78670521D02*
X159938846Y-76600521D01*
X168140000Y-91640000D02*
X167770000Y-92010000D01*
X168140000Y-88540000D02*
X168140000Y-91640000D01*
X164190000Y-84590000D02*
X168140000Y-88540000D01*
X161025000Y-84635000D02*
X161070000Y-84590000D01*
X161070000Y-84590000D02*
X164190000Y-84590000D01*
X166660000Y-92010000D02*
X166620000Y-92050000D01*
X167770000Y-92010000D02*
X166660000Y-92010000D01*
X159545000Y-84615000D02*
X161100000Y-84615000D01*
X159943800Y-78675475D02*
X159943800Y-81813400D01*
X159938846Y-78670521D02*
X159943800Y-78675475D01*
X159943800Y-81813400D02*
X159156400Y-82600800D01*
X159156400Y-84226400D02*
X159545000Y-84615000D01*
X159156400Y-82600800D02*
X159156400Y-84226400D01*
X158043846Y-78650521D02*
X158063846Y-78670521D01*
X158043846Y-76580521D02*
X158043846Y-78650521D01*
X160950000Y-74840000D02*
X160950000Y-74167500D01*
X160540000Y-75250000D02*
X160950000Y-74840000D01*
X158330000Y-75250000D02*
X160540000Y-75250000D01*
X158043846Y-76580521D02*
X158043846Y-75536154D01*
X158043846Y-75536154D02*
X158330000Y-75250000D01*
X156550000Y-78962500D02*
X155270000Y-78962500D01*
X158063846Y-78670521D02*
X156841979Y-78670521D01*
X156841979Y-78670521D02*
X156550000Y-78962500D01*
X155500000Y-91020000D02*
X155500000Y-89910000D01*
X162788600Y-85902800D02*
X160869400Y-85902800D01*
X158063846Y-78670521D02*
X158063846Y-82219446D01*
X158063846Y-82219446D02*
X158089600Y-82245200D01*
X161340000Y-94440000D02*
X161340000Y-93910000D01*
X162020000Y-95120000D02*
X161340000Y-94440000D01*
X164790000Y-95120000D02*
X162020000Y-95120000D01*
X166410000Y-94595000D02*
X165315000Y-94595000D01*
X165315000Y-94595000D02*
X164790000Y-95120000D01*
X157329800Y-84635000D02*
X155450000Y-84635000D01*
X160783763Y-93353763D02*
X160783763Y-93283763D01*
X161340000Y-93910000D02*
X160783763Y-93353763D01*
X160783763Y-93283763D02*
X158038800Y-90538800D01*
X158038800Y-90538800D02*
X158038800Y-85344000D01*
X158038800Y-85344000D02*
X157329800Y-84635000D01*
X166410000Y-93325000D02*
X167515000Y-93325000D01*
X167515000Y-93325000D02*
X167914996Y-93325000D01*
X167914996Y-93325000D02*
X167914998Y-93325002D01*
X167914998Y-93325002D02*
X167950000Y-93360004D01*
X167515000Y-93325000D02*
X167515002Y-93325002D01*
X167515002Y-93325002D02*
X167914998Y-93325002D01*
X166600000Y-93340000D02*
X166620000Y-93320000D01*
X161340000Y-92035000D02*
X161355000Y-92035000D01*
X161355000Y-92035000D02*
X162260000Y-92940000D01*
X158775400Y-90275400D02*
X158775400Y-84835365D01*
X158775400Y-84835365D02*
X157305035Y-83365000D01*
X160535000Y-92035000D02*
X158775400Y-90275400D01*
X161200000Y-92035000D02*
X160535000Y-92035000D01*
X157305035Y-83365000D02*
X155450000Y-83365000D01*
X168537500Y-99496000D02*
X168537500Y-100950000D01*
X167914998Y-93325002D02*
X167914998Y-98873498D01*
X167914998Y-98873498D02*
X168537500Y-99496000D01*
X166662500Y-103050000D02*
X166662500Y-100950000D01*
D36*
X172655000Y-115315000D02*
X171800000Y-116170000D01*
X176600000Y-115315000D02*
X172655000Y-115315000D01*
X164846000Y-107340400D02*
X165760400Y-108254800D01*
X165760400Y-108254800D02*
X165760400Y-110896400D01*
X167947526Y-113083526D02*
X167947526Y-116385526D01*
X165760400Y-110896400D02*
X167947526Y-113083526D01*
X167947526Y-116385526D02*
X168656000Y-117094000D01*
X170876000Y-117094000D02*
X171800000Y-116170000D01*
X168656000Y-117094000D02*
X170876000Y-117094000D01*
D35*
X165455600Y-101843100D02*
X165455600Y-101803200D01*
X166662500Y-103050000D02*
X165455600Y-101843100D01*
D36*
X163450000Y-106347500D02*
X163460000Y-106357500D01*
D35*
X163452500Y-106350000D02*
X163460000Y-106357500D01*
X161300000Y-106350000D02*
X163452500Y-106350000D01*
X161300000Y-108050000D02*
X161330000Y-108080000D01*
X161300000Y-106350000D02*
X161300000Y-108050000D01*
X167340000Y-108430000D02*
X168375000Y-108430000D01*
X163460000Y-106357500D02*
X165267500Y-106357500D01*
X165267500Y-106357500D02*
X167340000Y-108430000D01*
X182720000Y-105790000D02*
X182790000Y-105790000D01*
X184310000Y-105440000D02*
X184750000Y-105000000D01*
X182370000Y-105440000D02*
X184310000Y-105440000D01*
X187450000Y-102275000D02*
X187450000Y-103100000D01*
X187175000Y-102000000D02*
X187450000Y-102275000D01*
X183985000Y-102000000D02*
X187175000Y-102000000D01*
X183345000Y-102640000D02*
X183985000Y-102000000D01*
X182370000Y-102640000D02*
X183345000Y-102640000D01*
X183980000Y-87850000D02*
X183730000Y-87600000D01*
X183980000Y-89270000D02*
X183980000Y-87850000D01*
X186340000Y-105000000D02*
X187450000Y-105000000D01*
X186110000Y-104770000D02*
X186340000Y-105000000D01*
X186110000Y-104420000D02*
X186110000Y-104770000D01*
X185750000Y-104060000D02*
X186110000Y-104420000D01*
X179970000Y-105440000D02*
X181350000Y-104060000D01*
X181350000Y-104060000D02*
X185750000Y-104060000D01*
X181350000Y-104060000D02*
X181350000Y-104060000D01*
D36*
X178155002Y-119215000D02*
X176600000Y-119215000D01*
X178700002Y-119760000D02*
X178155002Y-119215000D01*
X179245002Y-119215000D02*
X178700002Y-119760000D01*
X179895002Y-118565000D02*
X179245002Y-119215000D01*
X183800000Y-118565000D02*
X179895002Y-118565000D01*
X183800000Y-118565000D02*
X183800000Y-119215000D01*
X152815589Y-100389989D02*
X152887401Y-100461801D01*
X152887401Y-100461801D02*
X153187400Y-100761800D01*
X147174989Y-100389989D02*
X152815589Y-100389989D01*
X146550000Y-99765000D02*
X147174989Y-100389989D01*
X146550000Y-99215000D02*
X146550000Y-99765000D01*
X151850000Y-97550000D02*
X151840000Y-97560000D01*
X151840000Y-99220000D02*
X151820000Y-99240000D01*
X151840000Y-97560000D02*
X151840000Y-99220000D01*
X181691211Y-115648789D02*
X181691211Y-116743342D01*
X182675000Y-114665000D02*
X181691211Y-115648789D01*
X183800000Y-114665000D02*
X182675000Y-114665000D01*
X181691211Y-116743342D02*
X181691211Y-117167606D01*
D35*
X151820000Y-93840000D02*
X151820000Y-96270000D01*
X151820000Y-96270000D02*
X152780001Y-97230001D01*
X152780001Y-97230001D02*
X153080000Y-97530000D01*
D36*
X182639136Y-114015000D02*
X181051200Y-115602936D01*
X181051200Y-115602936D02*
X181051200Y-116263336D01*
X181051200Y-116263336D02*
X181051200Y-116687600D01*
X183800000Y-114015000D02*
X182639136Y-114015000D01*
D35*
X149095000Y-99240000D02*
X150550000Y-99240000D01*
X146550000Y-97945000D02*
X147800000Y-97945000D01*
X147800000Y-97945000D02*
X149095000Y-99240000D01*
X140950000Y-111032500D02*
X140950000Y-110445000D01*
X140950000Y-110445000D02*
X140960000Y-110435000D01*
X140990000Y-119130000D02*
X140950000Y-119170000D01*
X142970000Y-119130000D02*
X140990000Y-119130000D01*
D38*
X140950000Y-111032500D02*
X140950000Y-109010000D01*
X140950000Y-109010000D02*
X140100000Y-108160000D01*
X140110000Y-108150000D02*
X140110000Y-106275000D01*
D35*
X140100000Y-108160000D02*
X140110000Y-108150000D01*
X140120000Y-102330000D02*
X140110000Y-102340000D01*
D38*
X140120000Y-104200000D02*
X140110000Y-104210000D01*
X140120000Y-102330000D02*
X140120000Y-104200000D01*
D36*
X140110000Y-102340000D02*
X140110000Y-104210000D01*
D35*
X142940000Y-107080000D02*
X144712500Y-107080000D01*
X140950000Y-109010000D02*
X141010000Y-109010000D01*
X141010000Y-109010000D02*
X142940000Y-107080000D01*
D38*
X141360000Y-120610000D02*
X141360000Y-119150000D01*
X140420000Y-126530000D02*
X140420000Y-121550000D01*
X140420000Y-121550000D02*
X141360000Y-120610000D01*
X139917500Y-111032500D02*
X140950000Y-111032500D01*
X139410000Y-111540000D02*
X139917500Y-111032500D01*
X139410000Y-118350000D02*
X139410000Y-111540000D01*
X141360000Y-119150000D02*
X140210000Y-119150000D01*
X140210000Y-119150000D02*
X139410000Y-118350000D01*
X140120000Y-102330000D02*
X139420000Y-101630000D01*
X139420000Y-89740000D02*
X140050000Y-89110000D01*
X139420000Y-101630000D02*
X139420000Y-89740000D01*
D35*
X146560000Y-89515000D02*
X146560000Y-89110000D01*
X146550000Y-89525000D02*
X146560000Y-89515000D01*
X146550000Y-90325000D02*
X146550000Y-89525000D01*
D38*
X140050000Y-89110000D02*
X146560000Y-89110000D01*
D35*
X159440000Y-100825000D02*
X160115000Y-101500000D01*
X159440000Y-99240000D02*
X159440000Y-100825000D01*
X187450000Y-104050000D02*
X188420000Y-104050000D01*
X188420000Y-104050000D02*
X188810000Y-103660000D01*
X185792500Y-106820000D02*
X185792500Y-106820000D01*
X185130000Y-107482500D02*
X185792500Y-106820000D01*
X185130000Y-109050000D02*
X185130000Y-107482500D01*
X183660000Y-107580000D02*
X185130000Y-109050000D01*
X182630000Y-107580000D02*
X183660000Y-107580000D01*
X180270000Y-109940000D02*
X182630000Y-107580000D01*
D38*
X148360000Y-91242500D02*
X148850000Y-91732500D01*
X148360000Y-89760000D02*
X148360000Y-91242500D01*
X146560000Y-89110000D02*
X147710000Y-89110000D01*
X147710000Y-89110000D02*
X148360000Y-89760000D01*
D35*
X148910000Y-91902500D02*
X148850000Y-91842500D01*
X148850000Y-91842500D02*
X148850000Y-91732500D01*
X148850000Y-91732500D02*
X149023224Y-91905724D01*
X159440000Y-93840000D02*
X159440000Y-95178000D01*
X159440000Y-95178000D02*
X159448500Y-95186500D01*
X159448500Y-99231500D02*
X159440000Y-99240000D01*
X159448500Y-97726500D02*
X159448500Y-99231500D01*
X148850000Y-91732500D02*
X148849964Y-91732500D01*
X179942400Y-109940000D02*
X176987200Y-106984800D01*
X180235000Y-109940000D02*
X179942400Y-109940000D01*
X172567600Y-104495600D02*
X174599600Y-104495600D01*
X170738800Y-104546400D02*
X171262399Y-105069999D01*
X171993201Y-105069999D02*
X172567600Y-104495600D01*
X171262399Y-105069999D02*
X171993201Y-105069999D01*
X170438801Y-104246401D02*
X165460401Y-104246401D01*
X170738800Y-104546400D02*
X170438801Y-104246401D01*
X165460401Y-104246401D02*
X163195000Y-101981000D01*
X163195000Y-101981000D02*
X163195000Y-99949000D01*
X162486000Y-99240000D02*
X159440000Y-99240000D01*
X163195000Y-99949000D02*
X162486000Y-99240000D01*
X168783000Y-94297500D02*
X170561000Y-92519500D01*
X169799000Y-95440500D02*
X170098999Y-95140501D01*
X170098999Y-95140501D02*
X172085000Y-93154500D01*
X187420000Y-126530000D02*
X187420000Y-122029984D01*
X187420000Y-122029984D02*
X187729985Y-121719999D01*
X113990000Y-113540000D02*
X113940000Y-113490000D01*
X115850000Y-113540000D02*
X113990000Y-113540000D01*
X108636039Y-116833961D02*
X106989775Y-116833961D01*
X113940000Y-113490000D02*
X111980000Y-113490000D01*
X111980000Y-113490000D02*
X108636039Y-116833961D01*
X161300000Y-103887500D02*
X161990000Y-103197500D01*
X161990000Y-103197500D02*
X161990000Y-101500000D01*
X150240000Y-88160000D02*
X151545000Y-88160000D01*
X141720000Y-86210000D02*
X143110000Y-86210000D01*
X153165000Y-85930000D02*
X153165000Y-85947500D01*
X153165000Y-85947500D02*
X153167500Y-85950000D01*
X148850000Y-95260000D02*
X148850000Y-93907500D01*
X155405000Y-85950000D02*
X155450000Y-85905000D01*
X142830000Y-116350000D02*
X142840000Y-116340000D01*
X141360000Y-116350000D02*
X142830000Y-116350000D01*
X141150000Y-100219998D02*
X141170002Y-100240000D01*
X141150000Y-99215000D02*
X141150000Y-100219998D01*
D38*
X141360000Y-114820000D02*
X141360000Y-116350000D01*
X141390000Y-114790000D02*
X141360000Y-114820000D01*
X140950000Y-112907500D02*
X140950000Y-114350000D01*
X140950000Y-114350000D02*
X141390000Y-114790000D01*
D35*
X122796039Y-77243961D02*
X116220000Y-83820000D01*
X116220000Y-83820000D02*
X116220000Y-87075736D01*
X133589775Y-77243961D02*
X122796039Y-77243961D01*
X115795736Y-87500000D02*
X116220000Y-87500000D01*
X113950000Y-87500000D02*
X115795736Y-87500000D01*
X113940000Y-87490000D02*
X113950000Y-87500000D01*
X116220000Y-87075736D02*
X116220000Y-87500000D01*
X153232500Y-85885000D02*
X153167500Y-85950000D01*
X155700000Y-85885000D02*
X153232500Y-85885000D01*
D38*
X143150000Y-70940000D02*
X142880000Y-70940000D01*
D35*
X141520000Y-72300000D02*
X140570000Y-72300000D01*
X140570000Y-72300000D02*
X140550000Y-72320000D01*
X140550000Y-72320000D02*
X139520000Y-72320000D01*
X139520000Y-72320000D02*
X139510000Y-72330000D01*
D38*
X165410000Y-72290000D02*
X164370000Y-72300000D01*
X187420000Y-122096741D02*
X188029984Y-121486757D01*
X187420000Y-126530000D02*
X187420000Y-122096741D01*
D36*
X183800000Y-120515000D02*
X182085000Y-120515000D01*
X182085000Y-120515000D02*
X182080000Y-120510000D01*
X182075000Y-120515000D02*
X182080000Y-120510000D01*
X176600000Y-120515000D02*
X182075000Y-120515000D01*
D37*
X164440000Y-71590000D02*
X164440000Y-72290000D01*
X167020000Y-70940000D02*
X165090000Y-70940000D01*
X165090000Y-70940000D02*
X164440000Y-71590000D01*
D35*
X182207500Y-84800000D02*
X182187500Y-84820000D01*
X182207500Y-82640000D02*
X182207500Y-84800000D01*
X182207500Y-82640000D02*
X182207500Y-81292500D01*
X182207500Y-81292500D02*
X182980000Y-80520000D01*
X182980000Y-80520000D02*
X184560000Y-80520000D01*
X171770000Y-118075000D02*
X171800000Y-118045000D01*
X169690000Y-118075000D02*
X171770000Y-118075000D01*
X170400000Y-111570000D02*
X170400000Y-112920000D01*
D36*
X188005000Y-115315000D02*
X188050000Y-115270000D01*
D35*
X187950000Y-115170000D02*
X188050000Y-115270000D01*
X188010000Y-113650000D02*
X188010000Y-112135000D01*
D38*
X188050000Y-113690000D02*
X188010000Y-113650000D01*
X188050000Y-115270000D02*
X188050000Y-113690000D01*
X188010000Y-111420000D02*
X187990000Y-111400000D01*
X188010000Y-113650000D02*
X188010000Y-111420000D01*
X187990000Y-109100000D02*
X187930000Y-109040000D01*
X187990000Y-111400000D02*
X187990000Y-109100000D01*
X187930000Y-107082500D02*
X187667500Y-106820000D01*
X187930000Y-109040000D02*
X187930000Y-107082500D01*
D35*
X181137500Y-99810000D02*
X182150000Y-99810000D01*
X182180001Y-99840001D02*
X182480000Y-100140000D01*
X182150000Y-99810000D02*
X182180001Y-99840001D01*
X182207500Y-81292500D02*
X182202500Y-81292500D01*
X182202500Y-81292500D02*
X181500000Y-80590000D01*
X181500000Y-80590000D02*
X179180000Y-80590000D01*
X186040000Y-103100000D02*
X186050000Y-103110000D01*
X184750000Y-103100000D02*
X186040000Y-103100000D01*
D38*
X188050000Y-121466741D02*
X188050000Y-121220000D01*
X188029984Y-121486757D02*
X188050000Y-121466741D01*
X188050000Y-116650000D02*
X188050000Y-115270000D01*
X188050000Y-118080000D02*
X188050000Y-116650000D01*
X188050000Y-119560000D02*
X188050000Y-118080000D01*
X188050000Y-121220000D02*
X188050000Y-119560000D01*
D35*
X187820000Y-85920000D02*
X187830000Y-85910000D01*
X187820000Y-88045000D02*
X187820000Y-85920000D01*
D36*
X175289254Y-114015000D02*
X174934264Y-113660010D01*
X174934264Y-113660010D02*
X174510000Y-113660010D01*
X176600000Y-114015000D02*
X175289254Y-114015000D01*
D35*
X161300000Y-104475000D02*
X161300000Y-103887500D01*
X161300000Y-103887500D02*
X161990005Y-103197495D01*
X161690006Y-103497494D02*
X161990005Y-103197495D01*
X150340000Y-93630000D02*
X150550000Y-93840000D01*
X148890000Y-93907500D02*
X149167500Y-93630000D01*
X149167500Y-93630000D02*
X150340000Y-93630000D01*
X184452200Y-94437200D02*
X185960936Y-94437200D01*
X185960936Y-94437200D02*
X186385200Y-94437200D01*
D36*
X184440000Y-94425000D02*
X184452200Y-94437200D01*
D35*
X181076594Y-92981864D02*
X181076594Y-92557600D01*
X180891258Y-93167200D02*
X181076594Y-92981864D01*
X179523620Y-93167200D02*
X180891258Y-93167200D01*
X161100000Y-87155000D02*
X162984200Y-87155000D01*
X162984200Y-87155000D02*
X163885601Y-86253599D01*
X163885601Y-86253599D02*
X164185600Y-85953600D01*
X162255200Y-76481700D02*
X162255200Y-75285600D01*
X172646100Y-85725000D02*
X172646100Y-87170500D01*
X172646100Y-87170500D02*
X172643800Y-87172800D01*
D37*
X140930000Y-70940000D02*
X143150000Y-70940000D01*
X140550000Y-72320000D02*
X140550000Y-71320000D01*
X140550000Y-71320000D02*
X140930000Y-70940000D01*
D35*
X164010000Y-92092500D02*
X163867500Y-92092500D01*
X164010000Y-91605000D02*
X162956000Y-90551000D01*
X164010000Y-92092500D02*
X164010000Y-91605000D01*
X162956000Y-90551000D02*
X160401000Y-90551000D01*
X187790000Y-100320000D02*
X187680034Y-100320000D01*
X187680034Y-100320000D02*
X187670034Y-100310000D01*
X178179000Y-97030000D02*
X178181000Y-97028000D01*
X178172500Y-97030000D02*
X178179000Y-97030000D01*
D38*
X178170000Y-97032500D02*
X178181000Y-97028000D01*
X177562500Y-105534964D02*
X177577500Y-105549964D01*
X177562500Y-105345000D02*
X177562500Y-105534964D01*
X178308002Y-101623002D02*
X178308002Y-102110000D01*
X176500000Y-100690000D02*
X177375000Y-100690000D01*
X177375000Y-100690000D02*
X178308002Y-101623002D01*
X178172500Y-99892500D02*
X178172500Y-97030000D01*
X177375000Y-100690000D02*
X178172500Y-99892500D01*
D35*
X153167500Y-86862500D02*
X152552400Y-87477600D01*
X153167500Y-85950000D02*
X153167500Y-86862500D01*
X175084800Y-109700000D02*
X175107600Y-109677200D01*
X173775000Y-109700000D02*
X175084800Y-109700000D01*
X173532798Y-117348002D02*
X173532798Y-116128800D01*
X171800000Y-118045000D02*
X172835800Y-118045000D01*
X172835800Y-118045000D02*
X173532798Y-117348002D01*
X171140010Y-113660010D02*
X173055190Y-113660010D01*
X170400000Y-112920000D02*
X171140010Y-113660010D01*
X173055190Y-113660010D02*
X174510000Y-113660010D01*
D36*
X176600000Y-114015000D02*
X176600000Y-113365000D01*
X174934264Y-113660010D02*
X174960190Y-113660010D01*
X175255200Y-113365000D02*
X176600000Y-113365000D01*
X174960190Y-113660010D02*
X175255200Y-113365000D01*
X176600000Y-113365000D02*
X178846200Y-113365000D01*
X178846200Y-113365000D02*
X178866800Y-113385600D01*
X176600000Y-114015000D02*
X179394600Y-114015000D01*
X179394600Y-114015000D02*
X179400200Y-114020600D01*
D35*
X164134802Y-101023336D02*
X164134802Y-101447600D01*
X164134802Y-99237798D02*
X164134802Y-101023336D01*
X166410000Y-98405000D02*
X164967600Y-98405000D01*
X164967600Y-98405000D02*
X164134802Y-99237798D01*
D36*
X183800000Y-115315000D02*
X185596800Y-115315000D01*
X185596800Y-115315000D02*
X185597800Y-115316000D01*
X158647500Y-109620000D02*
X159897500Y-109620000D01*
X160257500Y-109980000D02*
X161330000Y-109980000D01*
X159897500Y-109620000D02*
X160257500Y-109980000D01*
D35*
X162839400Y-109651800D02*
X162839400Y-108229400D01*
X162839400Y-108229400D02*
X163322000Y-107746800D01*
X162511200Y-109980000D02*
X162839400Y-109651800D01*
X161330000Y-109980000D02*
X162511200Y-109980000D01*
X165683800Y-89510000D02*
X166620000Y-89510000D01*
X165220000Y-89973800D02*
X165683800Y-89510000D01*
X164010000Y-93967500D02*
X165220000Y-92757500D01*
X165220000Y-92757500D02*
X165220000Y-89973800D01*
X168525000Y-110770000D02*
X168375000Y-110620000D01*
X168525000Y-111570000D02*
X168525000Y-110770000D01*
X168375000Y-110620000D02*
X168375000Y-109700000D01*
D37*
X150120000Y-90067500D02*
X152497500Y-90067500D01*
D35*
X170130671Y-108384254D02*
X170130671Y-107959990D01*
X170130671Y-108959329D02*
X170130671Y-108384254D01*
X168375000Y-109700000D02*
X169390000Y-109700000D01*
X169390000Y-109700000D02*
X170130671Y-108959329D01*
X180047500Y-97030000D02*
X180047500Y-97842501D01*
X180047500Y-97842501D02*
X179740000Y-98150001D01*
X179740000Y-98150001D02*
X179440001Y-98450000D01*
X179970000Y-101720000D02*
X179440000Y-101190000D01*
X179970000Y-102640000D02*
X179970000Y-101720000D01*
X179442500Y-101187500D02*
X179442500Y-99880000D01*
X179440000Y-101190000D02*
X179442500Y-101187500D01*
X179442500Y-98452499D02*
X179440001Y-98450000D01*
X179442500Y-99880000D02*
X179442500Y-98452499D01*
X177419000Y-94437200D02*
X179523620Y-94437200D01*
X179864265Y-98450000D02*
X179440001Y-98450000D01*
X184870000Y-100310000D02*
X184130000Y-100310000D01*
X182270000Y-98450000D02*
X179864265Y-98450000D01*
X184130000Y-100310000D02*
X182270000Y-98450000D01*
X166620000Y-88261008D02*
X166288991Y-87929999D01*
X166288991Y-87929999D02*
X165988992Y-87630000D01*
X166620000Y-89510000D02*
X166620000Y-88261008D01*
X155919400Y-88276200D02*
X155905200Y-88290400D01*
X152500000Y-90070000D02*
X152500000Y-89170000D01*
X152500000Y-89170000D02*
X153379600Y-88290400D01*
X155480936Y-88290400D02*
X155905200Y-88290400D01*
X153379600Y-88290400D02*
X155480936Y-88290400D01*
X155919400Y-87172800D02*
X155919400Y-88276200D01*
X182547800Y-97030000D02*
X180047500Y-97030000D01*
X184970000Y-96040000D02*
X183537800Y-96040000D01*
X183537800Y-96040000D02*
X182547800Y-97030000D01*
X180047500Y-95761080D02*
X180047500Y-97030000D01*
X179523620Y-94437200D02*
X179523620Y-95237200D01*
X179523620Y-95237200D02*
X180047500Y-95761080D01*
X180312500Y-82660000D02*
X180332500Y-82640000D01*
X180312500Y-84820000D02*
X180312500Y-82660000D01*
X175362500Y-105890000D02*
X175702500Y-105550000D01*
X173775000Y-105890000D02*
X175362500Y-105890000D01*
X175702500Y-104287500D02*
X176500000Y-103490000D01*
X175702500Y-105550000D02*
X175702500Y-104287500D01*
X178100000Y-103490000D02*
X176500000Y-103490000D01*
X178670000Y-104060000D02*
X178100000Y-103490000D01*
X178670000Y-107010000D02*
X178670000Y-104060000D01*
X179830000Y-107580000D02*
X179240000Y-107580000D01*
X179240000Y-107580000D02*
X178670000Y-107010000D01*
X182881576Y-90615000D02*
X181690803Y-89424227D01*
X181690803Y-89424227D02*
X181390804Y-89124228D01*
X184440000Y-90615000D02*
X182881576Y-90615000D01*
X161070000Y-83350000D02*
X171920000Y-83350000D01*
X177915400Y-82640000D02*
X180332500Y-82640000D01*
X176174400Y-80899000D02*
X177915400Y-82640000D01*
X172148600Y-83350000D02*
X172796200Y-82702400D01*
X171920000Y-83350000D02*
X172148600Y-83350000D01*
X172796200Y-81534000D02*
X173431200Y-80899000D01*
X172796200Y-82702400D02*
X172796200Y-81534000D01*
X173431200Y-80899000D02*
X176174400Y-80899000D01*
X172072200Y-83350000D02*
X171920000Y-83350000D01*
X173075600Y-84353400D02*
X172072200Y-83350000D01*
X174117000Y-84353400D02*
X173075600Y-84353400D01*
X174521100Y-85725000D02*
X174521100Y-84757500D01*
X174521100Y-84757500D02*
X174117000Y-84353400D01*
X174521100Y-86967300D02*
X174521100Y-85725000D01*
X175920400Y-88709600D02*
X175920400Y-88366600D01*
X175920400Y-88366600D02*
X174521100Y-86967300D01*
X175920000Y-89510000D02*
X175920000Y-88710000D01*
X175920000Y-88710000D02*
X175920400Y-88709600D01*
X152500000Y-91970000D02*
X152505000Y-91970000D01*
X152505000Y-91970000D02*
X152527000Y-91948000D01*
X160845500Y-83338900D02*
X160869400Y-83362800D01*
X160845500Y-81026000D02*
X160845500Y-83338900D01*
X170850500Y-105890000D02*
X173775000Y-105890000D01*
X169989500Y-105029000D02*
X170850500Y-105890000D01*
X163460000Y-104482500D02*
X164006500Y-105029000D01*
X164006500Y-105029000D02*
X169989500Y-105029000D01*
X180205000Y-107580000D02*
X180205000Y-107577000D01*
X180205000Y-107577000D02*
X180213000Y-107569000D01*
X184912000Y-90188820D02*
X184473620Y-90627200D01*
X184912000Y-89535000D02*
X184912000Y-90188820D01*
X175881500Y-89471500D02*
X175920000Y-89510000D01*
X174307500Y-89471500D02*
X175881500Y-89471500D01*
X184970000Y-97940000D02*
X184970084Y-97940000D01*
X154305000Y-89781464D02*
X154305000Y-89357200D01*
X154030401Y-90056063D02*
X154305000Y-89781464D01*
X154030401Y-91511399D02*
X154030401Y-90056063D01*
X152500000Y-91970000D02*
X153571800Y-91970000D01*
X153571800Y-91970000D02*
X154030401Y-91511399D01*
D36*
X185850000Y-113365000D02*
X186135000Y-113650000D01*
D35*
X183870000Y-111150000D02*
X182660000Y-109940000D01*
X185060000Y-111150000D02*
X183870000Y-111150000D01*
X186135000Y-113650000D02*
X186135000Y-112225000D01*
X186135000Y-112225000D02*
X185060000Y-111150000D01*
D36*
X183800000Y-111220000D02*
X183870000Y-111150000D01*
X183800000Y-113365000D02*
X183800000Y-111220000D01*
X178979800Y-115965000D02*
X176600000Y-115965000D01*
X183800000Y-113365000D02*
X181579800Y-113365000D01*
X181579800Y-113365000D02*
X178979800Y-115965000D01*
D35*
X175320000Y-107160000D02*
X173775000Y-107160000D01*
X147945000Y-78445000D02*
X147930000Y-78460000D01*
X149850000Y-78445000D02*
X147945000Y-78445000D01*
X175810000Y-107160000D02*
X175320000Y-107160000D01*
X176300000Y-108772500D02*
X176300000Y-107650000D01*
X176300000Y-107650000D02*
X175810000Y-107160000D01*
X173600002Y-78460002D02*
X173690000Y-78550000D01*
X171770000Y-78460002D02*
X173600002Y-78460002D01*
X168375000Y-105890000D02*
X168375000Y-107160000D01*
X172100000Y-111210000D02*
X172100000Y-111570000D01*
X170880673Y-109990673D02*
X172100000Y-111210000D01*
X170880673Y-107599988D02*
X170880673Y-109990673D01*
X168375000Y-107160000D02*
X170440685Y-107160000D01*
X170440685Y-107160000D02*
X170880673Y-107599988D01*
X176950000Y-78550000D02*
X178000000Y-77500000D01*
X175990000Y-78550000D02*
X176950000Y-78550000D01*
X168375000Y-105890000D02*
X169750000Y-105890000D01*
X169750000Y-105890000D02*
X169760000Y-105900000D01*
X152150000Y-78445000D02*
X153630008Y-78445000D01*
X153630008Y-78445000D02*
X154129999Y-77945009D01*
X154129999Y-77945009D02*
X154429998Y-77645010D01*
D36*
X182675000Y-119865000D02*
X182090002Y-119280002D01*
X182090002Y-119280002D02*
X182090002Y-119210000D01*
X183800000Y-119865000D02*
X182675000Y-119865000D01*
D38*
X168537502Y-103050002D02*
X168537500Y-103050000D01*
D35*
X169760000Y-103050002D02*
X168537502Y-103050002D01*
X173730000Y-101370000D02*
X174670000Y-101370000D01*
X174740001Y-101299999D02*
X175040000Y-101000000D01*
X174670000Y-101370000D02*
X174740001Y-101299999D01*
X173440000Y-112910000D02*
X174790000Y-112910000D01*
X172100000Y-111570000D02*
X173440000Y-112910000D01*
X174790000Y-112910000D02*
X175920000Y-111780000D01*
X175920000Y-111780000D02*
X182665736Y-111780000D01*
X182665736Y-111780000D02*
X183090000Y-111780000D01*
X169760000Y-102625738D02*
X169760000Y-103050002D01*
X173730000Y-99917600D02*
X173232400Y-99420000D01*
X173730000Y-101370000D02*
X173730000Y-99917600D01*
X173232400Y-99420000D02*
X170328000Y-99420000D01*
X170328000Y-99420000D02*
X169760000Y-99988000D01*
X169760000Y-99988000D02*
X169760000Y-102625738D01*
X145730000Y-109620000D02*
X146010001Y-109900001D01*
X144712500Y-109620000D02*
X145730000Y-109620000D01*
X146010001Y-109900001D02*
X146310000Y-110200000D01*
X142170000Y-126530000D02*
X142170000Y-121500000D01*
X142170000Y-121500000D02*
X142160000Y-121490000D01*
X141150000Y-95405000D02*
X142575000Y-95405000D01*
X142575000Y-95405000D02*
X142590000Y-95390000D01*
X143670000Y-126530000D02*
X143670000Y-121560000D01*
X143670000Y-121560000D02*
X142790000Y-120680000D01*
X141150000Y-91595000D02*
X142595000Y-91595000D01*
X142595000Y-91595000D02*
X142600000Y-91600000D01*
X142392400Y-109194600D02*
X142443200Y-109143800D01*
X142392400Y-112798090D02*
X142392400Y-109194600D01*
X145170000Y-126530000D02*
X145170000Y-115575690D01*
X145170000Y-115575690D02*
X142392400Y-112798090D01*
X141150000Y-90325000D02*
X143868200Y-90325000D01*
X145084800Y-91541600D02*
X145084800Y-99804136D01*
X143868200Y-90325000D02*
X145084800Y-91541600D01*
X145084800Y-99804136D02*
X145084800Y-100228400D01*
X145384799Y-100528399D02*
X145084800Y-100228400D01*
X145821400Y-100965000D02*
X145384799Y-100528399D01*
X151282400Y-100965000D02*
X145821400Y-100965000D01*
X151550000Y-102787500D02*
X151550000Y-101232600D01*
X151550000Y-101232600D02*
X151282400Y-100965000D01*
X146670000Y-126630000D02*
X146670000Y-122330000D01*
X146670000Y-122330000D02*
X146310000Y-121970000D01*
D36*
X148170000Y-122640000D02*
X148170000Y-126530000D01*
X145810000Y-120280000D02*
X148170000Y-122640000D01*
X145810000Y-115402502D02*
X145810000Y-120280000D01*
X143002000Y-112594502D02*
X145810000Y-115402502D01*
X154090000Y-113912500D02*
X154090000Y-112913590D01*
X143192499Y-111534999D02*
X143002000Y-111725498D01*
X143835001Y-111534999D02*
X143192499Y-111534999D01*
X154090000Y-112913590D02*
X152706410Y-111530000D01*
X152706410Y-111530000D02*
X143840000Y-111530000D01*
X143002000Y-111725498D02*
X143002000Y-112594502D01*
X143840000Y-111530000D02*
X143835001Y-111534999D01*
D35*
X149680000Y-126520000D02*
X149670000Y-126530000D01*
D36*
X149670000Y-122780000D02*
X149670000Y-126530000D01*
X149670000Y-122100000D02*
X149670000Y-122780000D01*
X152820000Y-113912500D02*
X152820000Y-118950000D01*
X152820000Y-118950000D02*
X149670000Y-122100000D01*
X151030001Y-122359999D02*
X150730002Y-122060000D01*
X151170000Y-122499998D02*
X151030001Y-122359999D01*
X151170000Y-126530000D02*
X151170000Y-122499998D01*
X148872594Y-122110123D02*
X148768814Y-122110123D01*
X151550000Y-119432717D02*
X148872594Y-122110123D01*
X151550000Y-113912500D02*
X151550000Y-119432717D01*
X152299999Y-122319999D02*
X152000000Y-122020000D01*
X152670000Y-126530000D02*
X152670000Y-122690000D01*
X152670000Y-122690000D02*
X152299999Y-122319999D01*
X150280000Y-119870034D02*
X148865034Y-121285000D01*
X150280000Y-113912500D02*
X150280000Y-119870034D01*
X148865034Y-121285000D02*
X148767800Y-121285000D01*
X154170000Y-122740000D02*
X153680006Y-122250006D01*
X153680006Y-122250006D02*
X153380007Y-121950007D01*
X154170000Y-126530000D02*
X154170000Y-122740000D01*
X149010000Y-113912500D02*
X148760055Y-114162445D01*
X148760055Y-114162445D02*
X148760055Y-120047311D01*
X148760055Y-120047311D02*
X148760055Y-120471575D01*
X147740000Y-113912500D02*
X147740000Y-120189736D01*
X147740000Y-120189736D02*
X147870011Y-120319747D01*
X154969999Y-122213897D02*
X154670000Y-121913898D01*
X155670000Y-122913898D02*
X154969999Y-122213897D01*
X155670000Y-126530000D02*
X155670000Y-122913898D01*
X157170000Y-123530000D02*
X155969999Y-122329999D01*
X155969999Y-122329999D02*
X155670000Y-122030000D01*
X157170000Y-126530000D02*
X157170000Y-123530000D01*
X146710001Y-120020001D02*
X147010000Y-120320000D01*
X146470000Y-113912500D02*
X146470000Y-119780000D01*
X146470000Y-119780000D02*
X146710001Y-120020001D01*
X158540000Y-126400000D02*
X158670000Y-126530000D01*
X144712500Y-112160000D02*
X152700000Y-112160000D01*
X158540000Y-123360000D02*
X158540000Y-126400000D01*
X153464990Y-112924990D02*
X153464990Y-118624990D01*
X153464990Y-118624990D02*
X156860000Y-122020000D01*
X156860000Y-122020000D02*
X157200000Y-122020000D01*
X152700000Y-112160000D02*
X153464990Y-112924990D01*
X157200000Y-122020000D02*
X158540000Y-123360000D01*
X160170000Y-126530000D02*
X160170000Y-123530000D01*
X158919998Y-122279998D02*
X158619999Y-121979999D01*
X160170000Y-123530000D02*
X158919998Y-122279998D01*
X146456400Y-103657400D02*
X146939000Y-104140000D01*
X146470000Y-102787500D02*
X146456400Y-102801100D01*
X146456400Y-102801100D02*
X146456400Y-103657400D01*
X161670000Y-126530000D02*
X161670000Y-123300000D01*
X159475021Y-121335021D02*
X157784264Y-121335021D01*
X161670000Y-126530000D02*
X161670000Y-123530000D01*
X157784264Y-121335021D02*
X157360000Y-121335021D01*
X161670000Y-123530000D02*
X159475021Y-121335021D01*
X147740000Y-102787500D02*
X147740000Y-104128198D01*
X147740000Y-104128198D02*
X147751802Y-104140000D01*
X163170000Y-123430000D02*
X163170000Y-126530000D01*
X163170000Y-126530000D02*
X163170000Y-123530000D01*
X156920011Y-120710011D02*
X155059999Y-118849999D01*
X155059999Y-118849999D02*
X154760000Y-118550000D01*
X160967212Y-122190033D02*
X159487191Y-120710011D01*
X161830033Y-122190033D02*
X160967212Y-122190033D01*
X163170000Y-123530000D02*
X161830033Y-122190033D01*
X159487191Y-120710011D02*
X156920011Y-120710011D01*
X151695400Y-104749600D02*
X148371390Y-104749600D01*
X152820000Y-103625000D02*
X151695400Y-104749600D01*
X152820000Y-102787500D02*
X152820000Y-103625000D01*
X164670000Y-126530000D02*
X164670000Y-123240000D01*
X159673590Y-120260000D02*
X157366102Y-120260000D01*
X156328050Y-119221948D02*
X156028051Y-118921949D01*
X164670000Y-123530000D02*
X162880022Y-121740022D01*
X162880022Y-121740022D02*
X161153612Y-121740022D01*
X161153612Y-121740022D02*
X159673590Y-120260000D01*
X164670000Y-126530000D02*
X164670000Y-123530000D01*
X157366102Y-120260000D02*
X156328050Y-119221948D01*
X149010000Y-102787500D02*
X149010000Y-104110990D01*
X149010000Y-104110990D02*
X148996400Y-104124590D01*
X163930022Y-121290022D02*
X166170000Y-123530000D01*
X154734990Y-114667812D02*
X154734990Y-114975010D01*
X154720000Y-114652822D02*
X154734990Y-114667812D01*
X154720000Y-112810000D02*
X154720000Y-114652822D01*
X152800000Y-110890000D02*
X154720000Y-112810000D01*
X144275000Y-110890000D02*
X152800000Y-110890000D01*
X154734999Y-114975010D02*
X154734999Y-115440501D01*
X154734990Y-114975010D02*
X154734999Y-114975010D01*
X159853578Y-119786400D02*
X161357200Y-121290022D01*
X154734999Y-115440501D02*
X159080898Y-119786400D01*
X159080898Y-119786400D02*
X159853578Y-119786400D01*
X166170000Y-123530000D02*
X166170000Y-126530000D01*
X161357200Y-121290022D02*
X163930022Y-121290022D01*
X167670000Y-123155065D02*
X166999999Y-122485064D01*
X167670000Y-126530000D02*
X167670000Y-123155065D01*
X166999999Y-122485064D02*
X166700000Y-122185065D01*
X145815000Y-104540000D02*
X144712500Y-104540000D01*
X147497800Y-106222800D02*
X145815000Y-104540000D01*
X149674664Y-107924600D02*
X150012400Y-107586864D01*
X150012400Y-107586864D02*
X150012400Y-106603800D01*
X149250400Y-107924600D02*
X149674664Y-107924600D01*
X150012400Y-106603800D02*
X149631400Y-106222800D01*
X149631400Y-106222800D02*
X147497800Y-106222800D01*
D35*
X144452500Y-104540000D02*
X144712500Y-104540000D01*
X144452500Y-103126700D02*
X144452500Y-104540000D01*
X144159999Y-102834199D02*
X144452500Y-103126700D01*
X141150000Y-92865000D02*
X143695000Y-92865000D01*
X144170000Y-101149998D02*
X144159999Y-101159999D01*
X143695000Y-92865000D02*
X144170000Y-93340000D01*
X144170000Y-93340000D02*
X144170000Y-101149998D01*
X144159999Y-101159999D02*
X144159999Y-102834199D01*
D36*
X168330000Y-122690000D02*
X168330000Y-121990000D01*
X169170000Y-123530000D02*
X168330000Y-122690000D01*
X169170000Y-126530000D02*
X169170000Y-123530000D01*
X144712500Y-105810000D02*
X144265600Y-105810000D01*
X144265600Y-105810000D02*
X144259200Y-105816400D01*
X144259200Y-105816400D02*
X143154400Y-105816400D01*
X143154400Y-105816400D02*
X142392400Y-105054400D01*
X142392400Y-100584000D02*
X143586200Y-99390200D01*
X142392400Y-105054400D02*
X142392400Y-100584000D01*
X142150000Y-94135000D02*
X141150000Y-94135000D01*
X142395000Y-94135000D02*
X142150000Y-94135000D01*
X143586200Y-95326200D02*
X142395000Y-94135000D01*
X143586200Y-99390200D02*
X143586200Y-95326200D01*
X147040600Y-107035600D02*
X149250400Y-107035600D01*
X144712500Y-105810000D02*
X145815000Y-105810000D01*
X145815000Y-105810000D02*
X147040600Y-107035600D01*
X154090000Y-103525000D02*
X154090000Y-102787500D01*
X151155400Y-106459600D02*
X154090000Y-103525000D01*
X151155400Y-109778800D02*
X151155400Y-106459600D01*
X150606599Y-110327601D02*
X151155400Y-109778800D01*
X141884400Y-100455590D02*
X141884400Y-105664000D01*
X142824200Y-99515790D02*
X141884400Y-100455590D01*
X146227800Y-108331000D02*
X148224401Y-110327601D01*
X142824200Y-97349200D02*
X142824200Y-99515790D01*
X141150000Y-96675000D02*
X142150000Y-96675000D01*
X142150000Y-96675000D02*
X142824200Y-97349200D01*
X142675390Y-106454990D02*
X145748790Y-106454990D01*
X148224401Y-110327601D02*
X150606599Y-110327601D01*
X141884400Y-105664000D02*
X142675390Y-106454990D01*
X145748790Y-106454990D02*
X146227800Y-106934000D01*
X146227800Y-106934000D02*
X146227800Y-108331000D01*
X153292735Y-110327601D02*
X151704201Y-110327601D01*
X159410400Y-119202200D02*
X155990000Y-115781800D01*
X151704201Y-110327601D02*
X151155400Y-109778800D01*
X170670000Y-123240000D02*
X168270011Y-120840011D01*
X168270011Y-120840011D02*
X161543600Y-120840011D01*
X155990000Y-113024866D02*
X153292735Y-110327601D01*
X170670000Y-126530000D02*
X170670000Y-123240000D01*
X161543600Y-120840011D02*
X159905789Y-119202200D01*
X155990000Y-115781800D02*
X155990000Y-113024866D01*
X159905789Y-119202200D02*
X159410400Y-119202200D01*
X172170000Y-122960000D02*
X172170000Y-126530000D01*
X171750000Y-122540000D02*
X172170000Y-122960000D01*
X170784998Y-122540000D02*
X171750000Y-122540000D01*
X168634998Y-120390000D02*
X170784998Y-122540000D01*
X161730000Y-120390000D02*
X168634998Y-120390000D01*
X156630000Y-113912500D02*
X156630000Y-115290000D01*
X156630000Y-115290000D02*
X161730000Y-120390000D01*
X175545000Y-116615000D02*
X176600000Y-116615000D01*
X173190000Y-121550000D02*
X173190000Y-118970000D01*
X171750000Y-122540000D02*
X172200000Y-122540000D01*
X172200000Y-122540000D02*
X173190000Y-121550000D01*
X173190000Y-118970000D02*
X175545000Y-116615000D01*
X173650000Y-126510000D02*
X173650000Y-122589274D01*
X173670000Y-126530000D02*
X173650000Y-126510000D01*
X173650000Y-122589274D02*
X173650000Y-122165010D01*
X176615000Y-117250000D02*
X176600000Y-117265000D01*
X173650000Y-122165010D02*
X173650000Y-119146410D01*
X173650000Y-119146410D02*
X175531410Y-117265000D01*
X175531410Y-117265000D02*
X176600000Y-117265000D01*
D35*
X175920000Y-98400000D02*
X169900200Y-98400000D01*
X169900200Y-98400000D02*
X169341800Y-98958400D01*
D36*
X170630001Y-121430001D02*
X170930000Y-121730000D01*
X158648400Y-112160900D02*
X158648400Y-116548400D01*
X158647500Y-112160000D02*
X158648400Y-112160900D01*
X158648400Y-116548400D02*
X162020000Y-119920000D01*
X162020000Y-119920000D02*
X169120000Y-119920000D01*
X169120000Y-119920000D02*
X170630001Y-121430001D01*
X176600000Y-117265000D02*
X179203800Y-117265000D01*
X179203800Y-117265000D02*
X180238400Y-116230400D01*
X175170000Y-126530000D02*
X175170000Y-122330002D01*
X175170000Y-122330002D02*
X174649999Y-121810001D01*
X174649999Y-121810001D02*
X174350000Y-121510002D01*
X174350000Y-121085738D02*
X174350000Y-121510002D01*
X174350000Y-119082820D02*
X174350000Y-121085738D01*
X175517820Y-117915000D02*
X174350000Y-119082820D01*
X176600000Y-117915000D02*
X175517820Y-117915000D01*
X171790001Y-121215055D02*
X172090000Y-121515054D01*
X159740000Y-116960000D02*
X162240000Y-119460000D01*
X159937400Y-110890000D02*
X160197800Y-111150400D01*
X170034946Y-119460000D02*
X171790001Y-121215055D01*
X158647500Y-110890000D02*
X159937400Y-110890000D01*
X160197800Y-111150400D02*
X160197800Y-112979200D01*
X162240000Y-119460000D02*
X170034946Y-119460000D01*
X160197800Y-112979200D02*
X159740000Y-113437000D01*
X159740000Y-113437000D02*
X159740000Y-116960000D01*
X176670000Y-122540002D02*
X175419999Y-121290001D01*
X176670000Y-126530000D02*
X176670000Y-122540002D01*
X175419999Y-121290001D02*
X175120000Y-120990002D01*
X175120000Y-120565738D02*
X175120000Y-120990002D01*
X176600000Y-118565000D02*
X175504230Y-118565000D01*
X175120000Y-118949230D02*
X175120000Y-120565738D01*
X175504230Y-118565000D02*
X175120000Y-118949230D01*
X157650000Y-107080000D02*
X155129000Y-109601000D01*
X152468664Y-109601000D02*
X152044400Y-109601000D01*
X158387500Y-107080000D02*
X157650000Y-107080000D01*
X155129000Y-109601000D02*
X152468664Y-109601000D01*
X157080000Y-105810000D02*
X158387500Y-105810000D01*
X178200000Y-126500000D02*
X178200000Y-122514262D01*
X178170000Y-126530000D02*
X178200000Y-126500000D01*
X178200000Y-122514262D02*
X178200000Y-122089998D01*
X179099998Y-121190000D02*
X178200000Y-122089998D01*
X185030000Y-121190000D02*
X179099998Y-121190000D01*
X185330000Y-120890000D02*
X185030000Y-121190000D01*
X185330000Y-118320000D02*
X185330000Y-120890000D01*
X183800000Y-117915000D02*
X184925000Y-117915000D01*
X184925000Y-117915000D02*
X185330000Y-118320000D01*
X153179864Y-108331000D02*
X152755600Y-108331000D01*
X157080000Y-105810000D02*
X157080000Y-106724400D01*
X155473400Y-108331000D02*
X153179864Y-108331000D01*
X157080000Y-106724400D02*
X155473400Y-108331000D01*
X156464000Y-105435400D02*
X156838600Y-105810000D01*
X155630000Y-99648400D02*
X157403800Y-101422200D01*
X157403800Y-103636200D02*
X156464000Y-104576000D01*
X155630000Y-99240000D02*
X155630000Y-99648400D01*
X157403800Y-101422200D02*
X157403800Y-103636200D01*
X156838600Y-105810000D02*
X157080000Y-105810000D01*
X156464000Y-104576000D02*
X156464000Y-105435400D01*
X179670000Y-126530000D02*
X179670000Y-122170000D01*
X185325000Y-117265000D02*
X183800000Y-117265000D01*
X185780000Y-117720000D02*
X185325000Y-117265000D01*
X185780000Y-121200000D02*
X185780000Y-117720000D01*
X185339989Y-121640011D02*
X185780000Y-121200000D01*
X179670000Y-122170000D02*
X180199989Y-121640011D01*
X180199989Y-121640011D02*
X185339989Y-121640011D01*
X155630000Y-95610000D02*
X155630000Y-93840000D01*
X157540000Y-97520000D02*
X155630000Y-95610000D01*
X157493058Y-104540000D02*
X158387500Y-104540000D01*
X157145000Y-104888058D02*
X157493058Y-104540000D01*
X158387500Y-101397500D02*
X157540000Y-100550000D01*
X158387500Y-104540000D02*
X158387500Y-101397500D01*
X157540000Y-100550000D02*
X157540000Y-97520000D01*
X181170000Y-126530000D02*
X181160000Y-126520000D01*
X181160000Y-122744264D02*
X181160000Y-122320000D01*
X181160000Y-126520000D02*
X181160000Y-122744264D01*
X185545000Y-116615000D02*
X184925000Y-116615000D01*
X181584264Y-122320000D02*
X181814242Y-122090022D01*
X181160000Y-122320000D02*
X181584264Y-122320000D01*
X184925000Y-116615000D02*
X183800000Y-116615000D01*
X181814242Y-122090022D02*
X185549978Y-122090022D01*
X185549978Y-122090022D02*
X186250000Y-121390000D01*
X186250000Y-121390000D02*
X186250000Y-117320000D01*
X186250000Y-117320000D02*
X185545000Y-116615000D01*
X154360000Y-95355800D02*
X154360000Y-93840000D01*
X155000000Y-95995800D02*
X154360000Y-95355800D01*
X155000000Y-100211424D02*
X155000000Y-95995800D01*
X156630000Y-101841424D02*
X155000000Y-100211424D01*
X155280804Y-107696000D02*
X155971402Y-107005402D01*
X154635200Y-107696000D02*
X155280804Y-107696000D01*
X155971402Y-107005402D02*
X155971402Y-104408598D01*
X156630000Y-103750000D02*
X156630000Y-101841424D01*
X155971402Y-104408598D02*
X156630000Y-103750000D01*
X182670000Y-123020000D02*
X182670000Y-126530000D01*
X185905000Y-115965000D02*
X186730000Y-116790000D01*
X183800000Y-115965000D02*
X185905000Y-115965000D01*
X186730000Y-116790000D02*
X186730000Y-121620000D01*
X186730000Y-121620000D02*
X185790000Y-122560000D01*
X185790000Y-122560000D02*
X183130000Y-122560000D01*
X183130000Y-122560000D02*
X182670000Y-123020000D01*
D35*
X155360000Y-102787500D02*
X155360000Y-101384612D01*
X155360000Y-101384612D02*
X154360000Y-100384612D01*
X154360000Y-100384612D02*
X154360000Y-99240000D01*
D36*
X155360000Y-102787500D02*
X155360000Y-106691800D01*
X155360000Y-106691800D02*
X155346400Y-106705400D01*
X182316212Y-116323788D02*
X182316212Y-117673126D01*
X182316212Y-117673126D02*
X182278608Y-117710730D01*
X182675000Y-115965000D02*
X182316212Y-116323788D01*
X183800000Y-115965000D02*
X182675000Y-115965000D01*
D35*
X119479775Y-83813961D02*
X118009775Y-85283961D01*
X122229775Y-83813961D02*
X119479775Y-83813961D01*
X128667011Y-121657011D02*
X128667011Y-118927978D01*
X133589775Y-123743961D02*
X130753961Y-123743961D01*
X130753961Y-123743961D02*
X128667011Y-121657011D01*
D36*
X123994990Y-93973961D02*
X124004990Y-93963961D01*
X122229775Y-93973961D02*
X123994990Y-93973961D01*
X131230000Y-98794264D02*
X131230000Y-98370000D01*
X131230000Y-99723533D02*
X131230000Y-98794264D01*
X131640066Y-100133599D02*
X131230000Y-99723533D01*
X132528333Y-102743961D02*
X131640066Y-101855694D01*
X133589775Y-102743961D02*
X132528333Y-102743961D01*
X131640066Y-101855694D02*
X131640066Y-100133599D01*
X123914990Y-99053961D02*
X124004990Y-98963961D01*
X122229775Y-99053961D02*
X123914990Y-99053961D01*
X131490000Y-104130000D02*
X130565054Y-103205054D01*
X131490000Y-118490000D02*
X131490000Y-104130000D01*
X133589775Y-119243961D02*
X132243961Y-119243961D01*
X130565054Y-101044264D02*
X130565054Y-100620000D01*
X130565054Y-103205054D02*
X130565054Y-101044264D01*
X132243961Y-119243961D02*
X131490000Y-118490000D01*
D35*
X108263961Y-83813961D02*
X106989775Y-83813961D01*
X106989775Y-83813961D02*
X114836039Y-83813961D01*
X114836039Y-83813961D02*
X114900000Y-83750000D01*
X133549775Y-117783961D02*
X132539274Y-117783961D01*
X133589775Y-117743961D02*
X133549775Y-117783961D01*
X132539274Y-117783961D02*
X132115010Y-117783961D01*
D36*
X106989775Y-106673961D02*
X114419775Y-106673961D01*
X114419775Y-106673961D02*
X120759775Y-113013961D01*
X120759775Y-113013961D02*
X123555010Y-113013961D01*
X123555010Y-113013961D02*
X123910001Y-113368952D01*
X123910001Y-113368952D02*
X124210000Y-113668951D01*
X133589775Y-116243961D02*
X132115010Y-116243961D01*
X113099775Y-104133961D02*
X119329775Y-110363961D01*
X106989775Y-104133961D02*
X113099775Y-104133961D01*
X132539274Y-114703961D02*
X132115010Y-114703961D01*
X133549775Y-114703961D02*
X132539274Y-114703961D01*
X133589775Y-114743961D02*
X133549775Y-114703961D01*
X106989775Y-101593961D02*
X111879775Y-101593961D01*
X120688490Y-110402676D02*
X124530726Y-110402676D01*
X124530726Y-110402676D02*
X124954990Y-110402676D01*
X111879775Y-101593961D02*
X120688490Y-110402676D01*
X133559775Y-113273961D02*
X132539274Y-113273961D01*
X132539274Y-113273961D02*
X132115010Y-113273961D01*
X133589775Y-113243961D02*
X133559775Y-113273961D01*
D39*
X133579775Y-111733961D02*
X133589775Y-111743961D01*
D36*
X110749775Y-99053961D02*
X119599775Y-107903961D01*
X106989775Y-99053961D02*
X110749775Y-99053961D01*
X133579775Y-111733961D02*
X132115010Y-111733961D01*
X109789775Y-96513961D02*
X121239775Y-107963961D01*
X124065725Y-107963961D02*
X124489989Y-107963961D01*
X121239775Y-107963961D02*
X124065725Y-107963961D01*
X106989775Y-96513961D02*
X109789775Y-96513961D01*
X133579775Y-110233961D02*
X132539274Y-110233961D01*
X133589775Y-110243961D02*
X133579775Y-110233961D01*
X132539274Y-110233961D02*
X132115010Y-110233961D01*
X106989775Y-93973961D02*
X108519775Y-93973961D01*
X108519775Y-93973961D02*
X119549776Y-105003962D01*
X119549776Y-105003962D02*
X119849775Y-105303961D01*
X133589775Y-108743961D02*
X133549775Y-108703961D01*
X132539274Y-108703961D02*
X132115010Y-108703961D01*
X133549775Y-108703961D02*
X132539274Y-108703961D01*
X123580726Y-105393961D02*
X124004990Y-105393961D01*
X121349775Y-105393961D02*
X123580726Y-105393961D01*
X107389775Y-91433961D02*
X121349775Y-105393961D01*
X106989775Y-91433961D02*
X107389775Y-91433961D01*
X133589775Y-107243961D02*
X133549775Y-107283961D01*
X132539274Y-107283961D02*
X132115010Y-107283961D01*
X133549775Y-107283961D02*
X132539274Y-107283961D01*
X123580726Y-102843961D02*
X124004990Y-102843961D01*
X121339775Y-102843961D02*
X123580726Y-102843961D01*
X107389775Y-88893961D02*
X121339775Y-102843961D01*
X106989775Y-88893961D02*
X107389775Y-88893961D01*
X133589775Y-105743961D02*
X133579775Y-105733961D01*
X132539274Y-105733961D02*
X132115010Y-105733961D01*
X133579775Y-105733961D02*
X132539274Y-105733961D01*
X123994990Y-91433961D02*
X124004990Y-91443961D01*
X122229775Y-91433961D02*
X123994990Y-91433961D01*
X130575010Y-98024264D02*
X130575010Y-97600000D01*
X130575010Y-99704954D02*
X130575010Y-98024264D01*
X131190055Y-100319999D02*
X130575010Y-99704954D01*
X131190055Y-102780055D02*
X131190055Y-100319999D01*
X133589775Y-104243961D02*
X132653961Y-104243961D01*
X132653961Y-104243961D02*
X131190055Y-102780055D01*
X123984990Y-101593961D02*
X124004990Y-101613961D01*
X122229775Y-101593961D02*
X123984990Y-101593961D01*
X133589775Y-101243961D02*
X133575688Y-101229874D01*
X133575688Y-101229874D02*
X132689340Y-101229874D01*
X132689340Y-101229874D02*
X132265076Y-101229874D01*
X123984990Y-96513961D02*
X124004990Y-96493961D01*
X122229775Y-96513961D02*
X123984990Y-96513961D01*
X133589775Y-99743961D02*
X133559777Y-99713963D01*
X132649285Y-99713963D02*
X132225021Y-99713963D01*
X133559777Y-99713963D02*
X132649285Y-99713963D01*
X133589775Y-98243961D02*
X133519811Y-98173997D01*
X133519811Y-98173997D02*
X132624264Y-98173997D01*
X132624264Y-98173997D02*
X132200000Y-98173997D01*
X123584072Y-90162408D02*
X124008336Y-90162408D01*
X107389775Y-86353961D02*
X112115814Y-91080000D01*
X106989775Y-86353961D02*
X107389775Y-86353961D01*
X119820000Y-91080000D02*
X120737592Y-90162408D01*
X112115814Y-91080000D02*
X119820000Y-91080000D01*
X120737592Y-90162408D02*
X123584072Y-90162408D01*
X133589775Y-96743961D02*
X133585814Y-96740000D01*
X133585814Y-96740000D02*
X132664264Y-96740000D01*
X132664264Y-96740000D02*
X132240000Y-96740000D01*
X124043961Y-88893961D02*
X124050000Y-88900000D01*
X122229775Y-88893961D02*
X124043961Y-88893961D01*
X133589775Y-95243961D02*
X133573736Y-95260000D01*
X132644264Y-95260000D02*
X132220000Y-95260000D01*
X133573736Y-95260000D02*
X132644264Y-95260000D01*
X122229775Y-86353961D02*
X123976039Y-86353961D01*
X123976039Y-86353961D02*
X123980000Y-86350000D01*
X122229775Y-104133961D02*
X124004990Y-104133961D01*
X132624917Y-93743961D02*
X129940044Y-96428834D01*
X130115043Y-103659697D02*
X130115043Y-104083961D01*
X129940044Y-103484698D02*
X130115043Y-103659697D01*
X129940044Y-96428834D02*
X129940044Y-103484698D01*
X133589775Y-93743961D02*
X132624917Y-93743961D01*
X116220000Y-109220000D02*
X119369775Y-112369775D01*
X106995814Y-109220000D02*
X116220000Y-109220000D01*
X119369775Y-112369775D02*
X119369775Y-112973961D01*
X106989775Y-109213961D02*
X106995814Y-109220000D01*
X133589775Y-92243961D02*
X132656039Y-92243961D01*
X129490033Y-95409967D02*
X129490033Y-113440033D01*
X129490033Y-113440033D02*
X130310001Y-114260001D01*
X132656039Y-92243961D02*
X129490033Y-95409967D01*
X130310001Y-114260001D02*
X130610000Y-114560000D01*
X119110001Y-115440001D02*
X123360001Y-115440001D01*
X106989775Y-111753961D02*
X107389775Y-111753961D01*
X109473725Y-109670011D02*
X116000011Y-109670011D01*
X123750001Y-115830001D02*
X124050000Y-116130000D01*
X123360001Y-115440001D02*
X123750001Y-115830001D01*
X118050000Y-114380000D02*
X119110001Y-115440001D01*
X118050000Y-111720000D02*
X118050000Y-114380000D01*
X116000011Y-109670011D02*
X118050000Y-111720000D01*
X107389775Y-111753961D02*
X109473725Y-109670011D01*
X133589775Y-90743961D02*
X132686039Y-90743961D01*
X132686039Y-90743961D02*
X129040022Y-94389978D01*
X129040022Y-94389978D02*
X129040022Y-115700022D01*
X130290001Y-116950001D02*
X130590000Y-117250000D01*
X129040022Y-115700022D02*
X130290001Y-116950001D01*
X119783961Y-118333961D02*
X127396039Y-118333961D01*
X107389775Y-114293961D02*
X111563714Y-110120022D01*
X106989775Y-114293961D02*
X107389775Y-114293961D01*
X115740022Y-110120022D02*
X117113961Y-111493961D01*
X117113961Y-115663961D02*
X119783961Y-118333961D01*
X132696039Y-89243961D02*
X133589775Y-89243961D01*
X111563714Y-110120022D02*
X115740022Y-110120022D01*
X128590011Y-93349989D02*
X132696039Y-89243961D01*
X127396039Y-118333961D02*
X128590011Y-117139989D01*
X117113961Y-111493961D02*
X117113961Y-115663961D01*
X128590011Y-117139989D02*
X128590011Y-93349989D01*
X128140000Y-92340000D02*
X132736039Y-87743961D01*
X128140000Y-115980000D02*
X128140000Y-92340000D01*
X127286039Y-116833961D02*
X128140000Y-115980000D01*
X132736039Y-87743961D02*
X133589775Y-87743961D01*
X122229775Y-116833961D02*
X127286039Y-116833961D01*
X124900000Y-113870000D02*
X124900000Y-112440000D01*
X127670022Y-109669978D02*
X127670022Y-91249978D01*
X132676039Y-86243961D02*
X133589775Y-86243961D01*
X127670022Y-91249978D02*
X132676039Y-86243961D01*
X122229775Y-114293961D02*
X124476039Y-114293961D01*
X124900000Y-112440000D02*
X127670022Y-109669978D01*
X124476039Y-114293961D02*
X124900000Y-113870000D01*
X132666039Y-84743961D02*
X133589775Y-84743961D01*
X124806039Y-111753961D02*
X127220011Y-109339989D01*
X127220011Y-109339989D02*
X127220011Y-90189989D01*
X127220011Y-90189989D02*
X132666039Y-84743961D01*
X122229775Y-111753961D02*
X124806039Y-111753961D01*
X133136039Y-83313961D02*
X133589775Y-83313961D01*
X124286039Y-109213961D02*
X126770000Y-106730000D01*
X126770000Y-106730000D02*
X126770000Y-89680000D01*
X122229775Y-109213961D02*
X124286039Y-109213961D01*
X126770000Y-89680000D02*
X133136039Y-83313961D01*
X132129775Y-81783961D02*
X133629775Y-81783961D01*
X126076039Y-81783961D02*
X132129775Y-81783961D01*
X123679775Y-106673961D02*
X126250000Y-104103736D01*
X122229775Y-106673961D02*
X123679775Y-106673961D01*
X126250000Y-104103736D02*
X126250000Y-90254996D01*
X124850000Y-88854996D02*
X124850000Y-83010000D01*
X126250000Y-90254996D02*
X124850000Y-88854996D01*
X124850000Y-83010000D02*
X126076039Y-81783961D01*
M02*
