G04 #@! TF.GenerationSoftware,KiCad,Pcbnew,(5.1.0)-1*
G04 #@! TF.CreationDate,2019-04-20T02:25:45+02:00*
G04 #@! TF.ProjectId,GBDSO,47424453-4f2e-46b6-9963-61645f706362,rev?*
G04 #@! TF.SameCoordinates,Original*
G04 #@! TF.FileFunction,Legend,Bot*
G04 #@! TF.FilePolarity,Positive*
%FSLAX46Y46*%
G04 Gerber Fmt 4.6, Leading zero omitted, Abs format (unit mm)*
G04 Created by KiCad (PCBNEW (5.1.0)-1) date 2019-04-20 02:25:45*
%MOMM*%
%LPD*%
G04 APERTURE LIST*
%ADD10C,0.250000*%
%ADD11C,0.010000*%
%ADD12C,0.120000*%
%ADD13C,0.150000*%
G04 APERTURE END LIST*
D10*
X113975714Y-90309166D02*
X114785238Y-90309166D01*
X114880476Y-90261547D01*
X114928095Y-90213928D01*
X114975714Y-90118690D01*
X114975714Y-89975833D01*
X114928095Y-89880595D01*
X114594761Y-90309166D02*
X114642380Y-90213928D01*
X114642380Y-90023452D01*
X114594761Y-89928214D01*
X114547142Y-89880595D01*
X114451904Y-89832976D01*
X114166190Y-89832976D01*
X114070952Y-89880595D01*
X114023333Y-89928214D01*
X113975714Y-90023452D01*
X113975714Y-90213928D01*
X114023333Y-90309166D01*
X114642380Y-90785357D02*
X113975714Y-90785357D01*
X113642380Y-90785357D02*
X113690000Y-90737738D01*
X113737619Y-90785357D01*
X113690000Y-90832976D01*
X113642380Y-90785357D01*
X113737619Y-90785357D01*
X113975714Y-91118690D02*
X113975714Y-91499642D01*
X113642380Y-91261547D02*
X114499523Y-91261547D01*
X114594761Y-91309166D01*
X114642380Y-91404404D01*
X114642380Y-91499642D01*
X114642380Y-91832976D02*
X113642380Y-91832976D01*
X114642380Y-92261547D02*
X114118571Y-92261547D01*
X114023333Y-92213928D01*
X113975714Y-92118690D01*
X113975714Y-91975833D01*
X114023333Y-91880595D01*
X114070952Y-91832976D01*
X113975714Y-93166309D02*
X114642380Y-93166309D01*
X113975714Y-92737738D02*
X114499523Y-92737738D01*
X114594761Y-92785357D01*
X114642380Y-92880595D01*
X114642380Y-93023452D01*
X114594761Y-93118690D01*
X114547142Y-93166309D01*
X114642380Y-93642500D02*
X113642380Y-93642500D01*
X114023333Y-93642500D02*
X113975714Y-93737738D01*
X113975714Y-93928214D01*
X114023333Y-94023452D01*
X114070952Y-94071071D01*
X114166190Y-94118690D01*
X114451904Y-94118690D01*
X114547142Y-94071071D01*
X114594761Y-94023452D01*
X114642380Y-93928214D01*
X114642380Y-93737738D01*
X114594761Y-93642500D01*
X114547142Y-94547261D02*
X114594761Y-94594880D01*
X114642380Y-94547261D01*
X114594761Y-94499642D01*
X114547142Y-94547261D01*
X114642380Y-94547261D01*
X114594761Y-95452023D02*
X114642380Y-95356785D01*
X114642380Y-95166309D01*
X114594761Y-95071071D01*
X114547142Y-95023452D01*
X114451904Y-94975833D01*
X114166190Y-94975833D01*
X114070952Y-95023452D01*
X114023333Y-95071071D01*
X113975714Y-95166309D01*
X113975714Y-95356785D01*
X114023333Y-95452023D01*
X114642380Y-96023452D02*
X114594761Y-95928214D01*
X114547142Y-95880595D01*
X114451904Y-95832976D01*
X114166190Y-95832976D01*
X114070952Y-95880595D01*
X114023333Y-95928214D01*
X113975714Y-96023452D01*
X113975714Y-96166309D01*
X114023333Y-96261547D01*
X114070952Y-96309166D01*
X114166190Y-96356785D01*
X114451904Y-96356785D01*
X114547142Y-96309166D01*
X114594761Y-96261547D01*
X114642380Y-96166309D01*
X114642380Y-96023452D01*
X114642380Y-96785357D02*
X113975714Y-96785357D01*
X114070952Y-96785357D02*
X114023333Y-96832976D01*
X113975714Y-96928214D01*
X113975714Y-97071071D01*
X114023333Y-97166309D01*
X114118571Y-97213928D01*
X114642380Y-97213928D01*
X114118571Y-97213928D02*
X114023333Y-97261547D01*
X113975714Y-97356785D01*
X113975714Y-97499642D01*
X114023333Y-97594880D01*
X114118571Y-97642499D01*
X114642380Y-97642499D01*
X113594761Y-98832976D02*
X114880476Y-97975833D01*
X113975714Y-99166309D02*
X114975714Y-99166309D01*
X114023333Y-99166309D02*
X113975714Y-99261547D01*
X113975714Y-99452023D01*
X114023333Y-99547261D01*
X114070952Y-99594880D01*
X114166190Y-99642499D01*
X114451904Y-99642499D01*
X114547142Y-99594880D01*
X114594761Y-99547261D01*
X114642380Y-99452023D01*
X114642380Y-99261547D01*
X114594761Y-99166309D01*
X113975714Y-99975833D02*
X114642380Y-100213928D01*
X113975714Y-100452023D02*
X114642380Y-100213928D01*
X114880476Y-100118690D01*
X114928095Y-100071071D01*
X114975714Y-99975833D01*
X114642380Y-100832976D02*
X113975714Y-100832976D01*
X114166190Y-100832976D02*
X114070952Y-100880595D01*
X114023333Y-100928214D01*
X113975714Y-101023452D01*
X113975714Y-101118690D01*
X114642380Y-101594880D02*
X114594761Y-101499642D01*
X114547142Y-101452023D01*
X114451904Y-101404404D01*
X114166190Y-101404404D01*
X114070952Y-101452023D01*
X114023333Y-101499642D01*
X113975714Y-101594880D01*
X113975714Y-101737738D01*
X114023333Y-101832976D01*
X114070952Y-101880595D01*
X114166190Y-101928214D01*
X114451904Y-101928214D01*
X114547142Y-101880595D01*
X114594761Y-101832976D01*
X114642380Y-101737738D01*
X114642380Y-101594880D01*
X114594761Y-102737738D02*
X114642380Y-102642499D01*
X114642380Y-102452023D01*
X114594761Y-102356785D01*
X114499523Y-102309166D01*
X114118571Y-102309166D01*
X114023333Y-102356785D01*
X113975714Y-102452023D01*
X113975714Y-102642499D01*
X114023333Y-102737738D01*
X114118571Y-102785357D01*
X114213809Y-102785357D01*
X114309047Y-102309166D01*
X114594761Y-103166309D02*
X114642380Y-103261547D01*
X114642380Y-103452023D01*
X114594761Y-103547261D01*
X114499523Y-103594880D01*
X114451904Y-103594880D01*
X114356666Y-103547261D01*
X114309047Y-103452023D01*
X114309047Y-103309166D01*
X114261428Y-103213928D01*
X114166190Y-103166309D01*
X114118571Y-103166309D01*
X114023333Y-103213928D01*
X113975714Y-103309166D01*
X113975714Y-103452023D01*
X114023333Y-103547261D01*
X113975714Y-104023452D02*
X114975714Y-104023452D01*
X114023333Y-104023452D02*
X113975714Y-104118690D01*
X113975714Y-104309166D01*
X114023333Y-104404404D01*
X114070952Y-104452023D01*
X114166190Y-104499642D01*
X114451904Y-104499642D01*
X114547142Y-104452023D01*
X114594761Y-104404404D01*
X114642380Y-104309166D01*
X114642380Y-104118690D01*
X114594761Y-104023452D01*
X113594761Y-105642499D02*
X114880476Y-104785357D01*
X113690000Y-106499642D02*
X113642380Y-106404404D01*
X113642380Y-106261547D01*
X113690000Y-106118690D01*
X113785238Y-106023452D01*
X113880476Y-105975833D01*
X114070952Y-105928214D01*
X114213809Y-105928214D01*
X114404285Y-105975833D01*
X114499523Y-106023452D01*
X114594761Y-106118690D01*
X114642380Y-106261547D01*
X114642380Y-106356785D01*
X114594761Y-106499642D01*
X114547142Y-106547261D01*
X114213809Y-106547261D01*
X114213809Y-106356785D01*
X114118571Y-107309166D02*
X114166190Y-107452023D01*
X114213809Y-107499642D01*
X114309047Y-107547261D01*
X114451904Y-107547261D01*
X114547142Y-107499642D01*
X114594761Y-107452023D01*
X114642380Y-107356785D01*
X114642380Y-106975833D01*
X113642380Y-106975833D01*
X113642380Y-107309166D01*
X113690000Y-107404404D01*
X113737619Y-107452023D01*
X113832857Y-107499642D01*
X113928095Y-107499642D01*
X114023333Y-107452023D01*
X114070952Y-107404404D01*
X114118571Y-107309166D01*
X114118571Y-106975833D01*
X114642380Y-107975833D02*
X113642380Y-107975833D01*
X113642380Y-108213928D01*
X113690000Y-108356785D01*
X113785238Y-108452023D01*
X113880476Y-108499642D01*
X114070952Y-108547261D01*
X114213809Y-108547261D01*
X114404285Y-108499642D01*
X114499523Y-108452023D01*
X114594761Y-108356785D01*
X114642380Y-108213928D01*
X114642380Y-107975833D01*
X114594761Y-108928214D02*
X114642380Y-109071071D01*
X114642380Y-109309166D01*
X114594761Y-109404404D01*
X114547142Y-109452023D01*
X114451904Y-109499642D01*
X114356666Y-109499642D01*
X114261428Y-109452023D01*
X114213809Y-109404404D01*
X114166190Y-109309166D01*
X114118571Y-109118690D01*
X114070952Y-109023452D01*
X114023333Y-108975833D01*
X113928095Y-108928214D01*
X113832857Y-108928214D01*
X113737619Y-108975833D01*
X113690000Y-109023452D01*
X113642380Y-109118690D01*
X113642380Y-109356785D01*
X113690000Y-109499642D01*
X113642380Y-110118690D02*
X113642380Y-110309166D01*
X113690000Y-110404404D01*
X113785238Y-110499642D01*
X113975714Y-110547261D01*
X114309047Y-110547261D01*
X114499523Y-110499642D01*
X114594761Y-110404404D01*
X114642380Y-110309166D01*
X114642380Y-110118690D01*
X114594761Y-110023452D01*
X114499523Y-109928214D01*
X114309047Y-109880595D01*
X113975714Y-109880595D01*
X113785238Y-109928214D01*
X113690000Y-110023452D01*
X113642380Y-110118690D01*
X129947619Y-72105000D02*
X130042857Y-72057380D01*
X130185714Y-72057380D01*
X130328571Y-72105000D01*
X130423809Y-72200238D01*
X130471428Y-72295476D01*
X130519047Y-72485952D01*
X130519047Y-72628809D01*
X130471428Y-72819285D01*
X130423809Y-72914523D01*
X130328571Y-73009761D01*
X130185714Y-73057380D01*
X130090476Y-73057380D01*
X129947619Y-73009761D01*
X129900000Y-72962142D01*
X129900000Y-72628809D01*
X130090476Y-72628809D01*
X129138095Y-72533571D02*
X128995238Y-72581190D01*
X128947619Y-72628809D01*
X128900000Y-72724047D01*
X128900000Y-72866904D01*
X128947619Y-72962142D01*
X128995238Y-73009761D01*
X129090476Y-73057380D01*
X129471428Y-73057380D01*
X129471428Y-72057380D01*
X129138095Y-72057380D01*
X129042857Y-72105000D01*
X128995238Y-72152619D01*
X128947619Y-72247857D01*
X128947619Y-72343095D01*
X128995238Y-72438333D01*
X129042857Y-72485952D01*
X129138095Y-72533571D01*
X129471428Y-72533571D01*
X128471428Y-73057380D02*
X128471428Y-72057380D01*
X128233333Y-72057380D01*
X128090476Y-72105000D01*
X127995238Y-72200238D01*
X127947619Y-72295476D01*
X127900000Y-72485952D01*
X127900000Y-72628809D01*
X127947619Y-72819285D01*
X127995238Y-72914523D01*
X128090476Y-73009761D01*
X128233333Y-73057380D01*
X128471428Y-73057380D01*
X127519047Y-73009761D02*
X127376190Y-73057380D01*
X127138095Y-73057380D01*
X127042857Y-73009761D01*
X126995238Y-72962142D01*
X126947619Y-72866904D01*
X126947619Y-72771666D01*
X126995238Y-72676428D01*
X127042857Y-72628809D01*
X127138095Y-72581190D01*
X127328571Y-72533571D01*
X127423809Y-72485952D01*
X127471428Y-72438333D01*
X127519047Y-72343095D01*
X127519047Y-72247857D01*
X127471428Y-72152619D01*
X127423809Y-72105000D01*
X127328571Y-72057380D01*
X127090476Y-72057380D01*
X126947619Y-72105000D01*
X126328571Y-72057380D02*
X126138095Y-72057380D01*
X126042857Y-72105000D01*
X125947619Y-72200238D01*
X125900000Y-72390714D01*
X125900000Y-72724047D01*
X125947619Y-72914523D01*
X126042857Y-73009761D01*
X126138095Y-73057380D01*
X126328571Y-73057380D01*
X126423809Y-73009761D01*
X126519047Y-72914523D01*
X126566666Y-72724047D01*
X126566666Y-72390714D01*
X126519047Y-72200238D01*
X126423809Y-72105000D01*
X126328571Y-72057380D01*
X124709523Y-72533571D02*
X124376190Y-72533571D01*
X124233333Y-73057380D02*
X124709523Y-73057380D01*
X124709523Y-72057380D01*
X124233333Y-72057380D01*
X123804761Y-73057380D02*
X123804761Y-72057380D01*
X123423809Y-72057380D01*
X123328571Y-72105000D01*
X123280952Y-72152619D01*
X123233333Y-72247857D01*
X123233333Y-72390714D01*
X123280952Y-72485952D01*
X123328571Y-72533571D01*
X123423809Y-72581190D01*
X123804761Y-72581190D01*
X122233333Y-73057380D02*
X122566666Y-72581190D01*
X122804761Y-73057380D02*
X122804761Y-72057380D01*
X122423809Y-72057380D01*
X122328571Y-72105000D01*
X122280952Y-72152619D01*
X122233333Y-72247857D01*
X122233333Y-72390714D01*
X122280952Y-72485952D01*
X122328571Y-72533571D01*
X122423809Y-72581190D01*
X122804761Y-72581190D01*
X121614285Y-72057380D02*
X121423809Y-72057380D01*
X121328571Y-72105000D01*
X121233333Y-72200238D01*
X121185714Y-72390714D01*
X121185714Y-72724047D01*
X121233333Y-72914523D01*
X121328571Y-73009761D01*
X121423809Y-73057380D01*
X121614285Y-73057380D01*
X121709523Y-73009761D01*
X121804761Y-72914523D01*
X121852380Y-72724047D01*
X121852380Y-72390714D01*
X121804761Y-72200238D01*
X121709523Y-72105000D01*
X121614285Y-72057380D01*
X120757142Y-73057380D02*
X120757142Y-72057380D01*
X120423809Y-72771666D01*
X120090476Y-72057380D01*
X120090476Y-73057380D01*
X131495238Y-74521666D02*
X131019047Y-74521666D01*
X131590476Y-74807380D02*
X131257142Y-73807380D01*
X130923809Y-74807380D01*
X130161904Y-74807380D02*
X130161904Y-73807380D01*
X130161904Y-74759761D02*
X130257142Y-74807380D01*
X130447619Y-74807380D01*
X130542857Y-74759761D01*
X130590476Y-74712142D01*
X130638095Y-74616904D01*
X130638095Y-74331190D01*
X130590476Y-74235952D01*
X130542857Y-74188333D01*
X130447619Y-74140714D01*
X130257142Y-74140714D01*
X130161904Y-74188333D01*
X129257142Y-74807380D02*
X129257142Y-74283571D01*
X129304761Y-74188333D01*
X129400000Y-74140714D01*
X129590476Y-74140714D01*
X129685714Y-74188333D01*
X129257142Y-74759761D02*
X129352380Y-74807380D01*
X129590476Y-74807380D01*
X129685714Y-74759761D01*
X129733333Y-74664523D01*
X129733333Y-74569285D01*
X129685714Y-74474047D01*
X129590476Y-74426428D01*
X129352380Y-74426428D01*
X129257142Y-74378809D01*
X128780952Y-74140714D02*
X128780952Y-75140714D01*
X128780952Y-74188333D02*
X128685714Y-74140714D01*
X128495238Y-74140714D01*
X128400000Y-74188333D01*
X128352380Y-74235952D01*
X128304761Y-74331190D01*
X128304761Y-74616904D01*
X128352380Y-74712142D01*
X128400000Y-74759761D01*
X128495238Y-74807380D01*
X128685714Y-74807380D01*
X128780952Y-74759761D01*
X128019047Y-74140714D02*
X127638095Y-74140714D01*
X127876190Y-73807380D02*
X127876190Y-74664523D01*
X127828571Y-74759761D01*
X127733333Y-74807380D01*
X127638095Y-74807380D01*
X126923809Y-74759761D02*
X127019047Y-74807380D01*
X127209523Y-74807380D01*
X127304761Y-74759761D01*
X127352380Y-74664523D01*
X127352380Y-74283571D01*
X127304761Y-74188333D01*
X127209523Y-74140714D01*
X127019047Y-74140714D01*
X126923809Y-74188333D01*
X126876190Y-74283571D01*
X126876190Y-74378809D01*
X127352380Y-74474047D01*
X126447619Y-74807380D02*
X126447619Y-74140714D01*
X126447619Y-74331190D02*
X126400000Y-74235952D01*
X126352380Y-74188333D01*
X126257142Y-74140714D01*
X126161904Y-74140714D01*
X124733333Y-74283571D02*
X124590476Y-74331190D01*
X124542857Y-74378809D01*
X124495238Y-74474047D01*
X124495238Y-74616904D01*
X124542857Y-74712142D01*
X124590476Y-74759761D01*
X124685714Y-74807380D01*
X125066666Y-74807380D01*
X125066666Y-73807380D01*
X124733333Y-73807380D01*
X124638095Y-73855000D01*
X124590476Y-73902619D01*
X124542857Y-73997857D01*
X124542857Y-74093095D01*
X124590476Y-74188333D01*
X124638095Y-74235952D01*
X124733333Y-74283571D01*
X125066666Y-74283571D01*
X123923809Y-74807380D02*
X124019047Y-74759761D01*
X124066666Y-74712142D01*
X124114285Y-74616904D01*
X124114285Y-74331190D01*
X124066666Y-74235952D01*
X124019047Y-74188333D01*
X123923809Y-74140714D01*
X123780952Y-74140714D01*
X123685714Y-74188333D01*
X123638095Y-74235952D01*
X123590476Y-74331190D01*
X123590476Y-74616904D01*
X123638095Y-74712142D01*
X123685714Y-74759761D01*
X123780952Y-74807380D01*
X123923809Y-74807380D01*
X122733333Y-74807380D02*
X122733333Y-74283571D01*
X122780952Y-74188333D01*
X122876190Y-74140714D01*
X123066666Y-74140714D01*
X123161904Y-74188333D01*
X122733333Y-74759761D02*
X122828571Y-74807380D01*
X123066666Y-74807380D01*
X123161904Y-74759761D01*
X123209523Y-74664523D01*
X123209523Y-74569285D01*
X123161904Y-74474047D01*
X123066666Y-74426428D01*
X122828571Y-74426428D01*
X122733333Y-74378809D01*
X122257142Y-74807380D02*
X122257142Y-74140714D01*
X122257142Y-74331190D02*
X122209523Y-74235952D01*
X122161904Y-74188333D01*
X122066666Y-74140714D01*
X121971428Y-74140714D01*
X121209523Y-74807380D02*
X121209523Y-73807380D01*
X121209523Y-74759761D02*
X121304761Y-74807380D01*
X121495238Y-74807380D01*
X121590476Y-74759761D01*
X121638095Y-74712142D01*
X121685714Y-74616904D01*
X121685714Y-74331190D01*
X121638095Y-74235952D01*
X121590476Y-74188333D01*
X121495238Y-74140714D01*
X121304761Y-74140714D01*
X121209523Y-74188333D01*
X120114285Y-74140714D02*
X119733333Y-74140714D01*
X119971428Y-74807380D02*
X119971428Y-73950238D01*
X119923809Y-73855000D01*
X119828571Y-73807380D01*
X119733333Y-73807380D01*
X119257142Y-74807380D02*
X119352380Y-74759761D01*
X119400000Y-74712142D01*
X119447619Y-74616904D01*
X119447619Y-74331190D01*
X119400000Y-74235952D01*
X119352380Y-74188333D01*
X119257142Y-74140714D01*
X119114285Y-74140714D01*
X119019047Y-74188333D01*
X118971428Y-74235952D01*
X118923809Y-74331190D01*
X118923809Y-74616904D01*
X118971428Y-74712142D01*
X119019047Y-74759761D01*
X119114285Y-74807380D01*
X119257142Y-74807380D01*
X118495238Y-74807380D02*
X118495238Y-74140714D01*
X118495238Y-74331190D02*
X118447619Y-74235952D01*
X118400000Y-74188333D01*
X118304761Y-74140714D01*
X118209523Y-74140714D01*
X129209523Y-76557380D02*
X129209523Y-75557380D01*
X128828571Y-75557380D01*
X128733333Y-75605000D01*
X128685714Y-75652619D01*
X128638095Y-75747857D01*
X128638095Y-75890714D01*
X128685714Y-75985952D01*
X128733333Y-76033571D01*
X128828571Y-76081190D01*
X129209523Y-76081190D01*
X128209523Y-76557380D02*
X128209523Y-75890714D01*
X128209523Y-76081190D02*
X128161904Y-75985952D01*
X128114285Y-75938333D01*
X128019047Y-75890714D01*
X127923809Y-75890714D01*
X127447619Y-76557380D02*
X127542857Y-76509761D01*
X127590476Y-76462142D01*
X127638095Y-76366904D01*
X127638095Y-76081190D01*
X127590476Y-75985952D01*
X127542857Y-75938333D01*
X127447619Y-75890714D01*
X127304761Y-75890714D01*
X127209523Y-75938333D01*
X127161904Y-75985952D01*
X127114285Y-76081190D01*
X127114285Y-76366904D01*
X127161904Y-76462142D01*
X127209523Y-76509761D01*
X127304761Y-76557380D01*
X127447619Y-76557380D01*
X126257142Y-75890714D02*
X126257142Y-76700238D01*
X126304761Y-76795476D01*
X126352380Y-76843095D01*
X126447619Y-76890714D01*
X126590476Y-76890714D01*
X126685714Y-76843095D01*
X126257142Y-76509761D02*
X126352380Y-76557380D01*
X126542857Y-76557380D01*
X126638095Y-76509761D01*
X126685714Y-76462142D01*
X126733333Y-76366904D01*
X126733333Y-76081190D01*
X126685714Y-75985952D01*
X126638095Y-75938333D01*
X126542857Y-75890714D01*
X126352380Y-75890714D01*
X126257142Y-75938333D01*
X125780952Y-76557380D02*
X125780952Y-75890714D01*
X125780952Y-76081190D02*
X125733333Y-75985952D01*
X125685714Y-75938333D01*
X125590476Y-75890714D01*
X125495238Y-75890714D01*
X124733333Y-76557380D02*
X124733333Y-76033571D01*
X124780952Y-75938333D01*
X124876190Y-75890714D01*
X125066666Y-75890714D01*
X125161904Y-75938333D01*
X124733333Y-76509761D02*
X124828571Y-76557380D01*
X125066666Y-76557380D01*
X125161904Y-76509761D01*
X125209523Y-76414523D01*
X125209523Y-76319285D01*
X125161904Y-76224047D01*
X125066666Y-76176428D01*
X124828571Y-76176428D01*
X124733333Y-76128809D01*
X124257142Y-76557380D02*
X124257142Y-75890714D01*
X124257142Y-75985952D02*
X124209523Y-75938333D01*
X124114285Y-75890714D01*
X123971428Y-75890714D01*
X123876190Y-75938333D01*
X123828571Y-76033571D01*
X123828571Y-76557380D01*
X123828571Y-76033571D02*
X123780952Y-75938333D01*
X123685714Y-75890714D01*
X123542857Y-75890714D01*
X123447619Y-75938333D01*
X123400000Y-76033571D01*
X123400000Y-76557380D01*
X122923809Y-76557380D02*
X122923809Y-75890714D01*
X122923809Y-75985952D02*
X122876190Y-75938333D01*
X122780952Y-75890714D01*
X122638095Y-75890714D01*
X122542857Y-75938333D01*
X122495238Y-76033571D01*
X122495238Y-76557380D01*
X122495238Y-76033571D02*
X122447619Y-75938333D01*
X122352380Y-75890714D01*
X122209523Y-75890714D01*
X122114285Y-75938333D01*
X122066666Y-76033571D01*
X122066666Y-76557380D01*
X121209523Y-76509761D02*
X121304761Y-76557380D01*
X121495238Y-76557380D01*
X121590476Y-76509761D01*
X121638095Y-76414523D01*
X121638095Y-76033571D01*
X121590476Y-75938333D01*
X121495238Y-75890714D01*
X121304761Y-75890714D01*
X121209523Y-75938333D01*
X121161904Y-76033571D01*
X121161904Y-76128809D01*
X121638095Y-76224047D01*
X120733333Y-76557380D02*
X120733333Y-75890714D01*
X120733333Y-76081190D02*
X120685714Y-75985952D01*
X120638095Y-75938333D01*
X120542857Y-75890714D01*
X120447619Y-75890714D01*
X128900000Y-79771666D02*
X128423809Y-79771666D01*
X128995238Y-80057380D02*
X128661904Y-79057380D01*
X128328571Y-80057380D01*
X128138095Y-79057380D02*
X127566666Y-79057380D01*
X127852380Y-80057380D02*
X127852380Y-79057380D01*
X127280952Y-79152619D02*
X127233333Y-79105000D01*
X127138095Y-79057380D01*
X126900000Y-79057380D01*
X126804761Y-79105000D01*
X126757142Y-79152619D01*
X126709523Y-79247857D01*
X126709523Y-79343095D01*
X126757142Y-79485952D01*
X127328571Y-80057380D01*
X126709523Y-80057380D01*
X126376190Y-79057380D02*
X125709523Y-79057380D01*
X126138095Y-80057380D01*
X124757142Y-79962142D02*
X124804761Y-80009761D01*
X124947619Y-80057380D01*
X125042857Y-80057380D01*
X125185714Y-80009761D01*
X125280952Y-79914523D01*
X125328571Y-79819285D01*
X125376190Y-79628809D01*
X125376190Y-79485952D01*
X125328571Y-79295476D01*
X125280952Y-79200238D01*
X125185714Y-79105000D01*
X125042857Y-79057380D01*
X124947619Y-79057380D01*
X124804761Y-79105000D01*
X124757142Y-79152619D01*
X124376190Y-79152619D02*
X124328571Y-79105000D01*
X124233333Y-79057380D01*
X123995238Y-79057380D01*
X123900000Y-79105000D01*
X123852380Y-79152619D01*
X123804761Y-79247857D01*
X123804761Y-79343095D01*
X123852380Y-79485952D01*
X124423809Y-80057380D01*
X123804761Y-80057380D01*
X122900000Y-79057380D02*
X123376190Y-79057380D01*
X123423809Y-79533571D01*
X123376190Y-79485952D01*
X123280952Y-79438333D01*
X123042857Y-79438333D01*
X122947619Y-79485952D01*
X122900000Y-79533571D01*
X122852380Y-79628809D01*
X122852380Y-79866904D01*
X122900000Y-79962142D01*
X122947619Y-80009761D01*
X123042857Y-80057380D01*
X123280952Y-80057380D01*
X123376190Y-80009761D01*
X123423809Y-79962142D01*
X121995238Y-79057380D02*
X122185714Y-79057380D01*
X122280952Y-79105000D01*
X122328571Y-79152619D01*
X122423809Y-79295476D01*
X122471428Y-79485952D01*
X122471428Y-79866904D01*
X122423809Y-79962142D01*
X122376190Y-80009761D01*
X122280952Y-80057380D01*
X122090476Y-80057380D01*
X121995238Y-80009761D01*
X121947619Y-79962142D01*
X121900000Y-79866904D01*
X121900000Y-79628809D01*
X121947619Y-79533571D01*
X121995238Y-79485952D01*
X122090476Y-79438333D01*
X122280952Y-79438333D01*
X122376190Y-79485952D01*
X122423809Y-79533571D01*
X122471428Y-79628809D01*
X120900000Y-80057380D02*
X121233333Y-79581190D01*
X121471428Y-80057380D02*
X121471428Y-79057380D01*
X121090476Y-79057380D01*
X120995238Y-79105000D01*
X120947619Y-79152619D01*
X120900000Y-79247857D01*
X120900000Y-79390714D01*
X120947619Y-79485952D01*
X120995238Y-79533571D01*
X121090476Y-79581190D01*
X121471428Y-79581190D01*
X132209523Y-81807380D02*
X132209523Y-80807380D01*
X131828571Y-80807380D01*
X131733333Y-80855000D01*
X131685714Y-80902619D01*
X131638095Y-80997857D01*
X131638095Y-81140714D01*
X131685714Y-81235952D01*
X131733333Y-81283571D01*
X131828571Y-81331190D01*
X132209523Y-81331190D01*
X130733333Y-81807380D02*
X131209523Y-81807380D01*
X131209523Y-80807380D01*
X129828571Y-81712142D02*
X129876190Y-81759761D01*
X130019047Y-81807380D01*
X130114285Y-81807380D01*
X130257142Y-81759761D01*
X130352380Y-81664523D01*
X130400000Y-81569285D01*
X130447619Y-81378809D01*
X130447619Y-81235952D01*
X130400000Y-81045476D01*
X130352380Y-80950238D01*
X130257142Y-80855000D01*
X130114285Y-80807380D01*
X130019047Y-80807380D01*
X129876190Y-80855000D01*
X129828571Y-80902619D01*
X128828571Y-81712142D02*
X128876190Y-81759761D01*
X129019047Y-81807380D01*
X129114285Y-81807380D01*
X129257142Y-81759761D01*
X129352380Y-81664523D01*
X129400000Y-81569285D01*
X129447619Y-81378809D01*
X129447619Y-81235952D01*
X129400000Y-81045476D01*
X129352380Y-80950238D01*
X129257142Y-80855000D01*
X129114285Y-80807380D01*
X129019047Y-80807380D01*
X128876190Y-80855000D01*
X128828571Y-80902619D01*
X128495238Y-80807380D02*
X127876190Y-80807380D01*
X128209523Y-81188333D01*
X128066666Y-81188333D01*
X127971428Y-81235952D01*
X127923809Y-81283571D01*
X127876190Y-81378809D01*
X127876190Y-81616904D01*
X127923809Y-81712142D01*
X127971428Y-81759761D01*
X128066666Y-81807380D01*
X128352380Y-81807380D01*
X128447619Y-81759761D01*
X128495238Y-81712142D01*
X127495238Y-80902619D02*
X127447619Y-80855000D01*
X127352380Y-80807380D01*
X127114285Y-80807380D01*
X127019047Y-80855000D01*
X126971428Y-80902619D01*
X126923809Y-80997857D01*
X126923809Y-81093095D01*
X126971428Y-81235952D01*
X127542857Y-81807380D01*
X126923809Y-81807380D01*
X125733333Y-81426428D02*
X124971428Y-81426428D01*
X124495238Y-81140714D02*
X123733333Y-81426428D01*
X124495238Y-81712142D01*
X122495238Y-81807380D02*
X122495238Y-80807380D01*
X122114285Y-80807380D01*
X122019047Y-80855000D01*
X121971428Y-80902619D01*
X121923809Y-80997857D01*
X121923809Y-81140714D01*
X121971428Y-81235952D01*
X122019047Y-81283571D01*
X122114285Y-81331190D01*
X122495238Y-81331190D01*
X121495238Y-81807380D02*
X121495238Y-80807380D01*
X121257142Y-80807380D01*
X121114285Y-80855000D01*
X121019047Y-80950238D01*
X120971428Y-81045476D01*
X120923809Y-81235952D01*
X120923809Y-81378809D01*
X120971428Y-81569285D01*
X121019047Y-81664523D01*
X121114285Y-81759761D01*
X121257142Y-81807380D01*
X121495238Y-81807380D01*
X120495238Y-81807380D02*
X120495238Y-80807380D01*
X120019047Y-81807380D02*
X120019047Y-80807380D01*
X119638095Y-80807380D01*
X119542857Y-80855000D01*
X119495238Y-80902619D01*
X119447619Y-80997857D01*
X119447619Y-81140714D01*
X119495238Y-81235952D01*
X119542857Y-81283571D01*
X119638095Y-81331190D01*
X120019047Y-81331190D01*
X119066666Y-80902619D02*
X119019047Y-80855000D01*
X118923809Y-80807380D01*
X118685714Y-80807380D01*
X118590476Y-80855000D01*
X118542857Y-80902619D01*
X118495238Y-80997857D01*
X118495238Y-81093095D01*
X118542857Y-81235952D01*
X119114285Y-81807380D01*
X118495238Y-81807380D01*
X117923809Y-81235952D02*
X118019047Y-81188333D01*
X118066666Y-81140714D01*
X118114285Y-81045476D01*
X118114285Y-80997857D01*
X118066666Y-80902619D01*
X118019047Y-80855000D01*
X117923809Y-80807380D01*
X117733333Y-80807380D01*
X117638095Y-80855000D01*
X117590476Y-80902619D01*
X117542857Y-80997857D01*
X117542857Y-81045476D01*
X117590476Y-81140714D01*
X117638095Y-81188333D01*
X117733333Y-81235952D01*
X117923809Y-81235952D01*
X118019047Y-81283571D01*
X118066666Y-81331190D01*
X118114285Y-81426428D01*
X118114285Y-81616904D01*
X118066666Y-81712142D01*
X118019047Y-81759761D01*
X117923809Y-81807380D01*
X117733333Y-81807380D01*
X117638095Y-81759761D01*
X117590476Y-81712142D01*
X117542857Y-81616904D01*
X117542857Y-81426428D01*
X117590476Y-81331190D01*
X117638095Y-81283571D01*
X117733333Y-81235952D01*
X187640833Y-119925714D02*
X187640833Y-120735238D01*
X187688452Y-120830476D01*
X187736071Y-120878095D01*
X187831309Y-120925714D01*
X187974166Y-120925714D01*
X188069404Y-120878095D01*
X187640833Y-120544761D02*
X187736071Y-120592380D01*
X187926547Y-120592380D01*
X188021785Y-120544761D01*
X188069404Y-120497142D01*
X188117023Y-120401904D01*
X188117023Y-120116190D01*
X188069404Y-120020952D01*
X188021785Y-119973333D01*
X187926547Y-119925714D01*
X187736071Y-119925714D01*
X187640833Y-119973333D01*
X187164642Y-120592380D02*
X187164642Y-119925714D01*
X187164642Y-119592380D02*
X187212261Y-119640000D01*
X187164642Y-119687619D01*
X187117023Y-119640000D01*
X187164642Y-119592380D01*
X187164642Y-119687619D01*
X186831309Y-119925714D02*
X186450357Y-119925714D01*
X186688452Y-119592380D02*
X186688452Y-120449523D01*
X186640833Y-120544761D01*
X186545595Y-120592380D01*
X186450357Y-120592380D01*
X186117023Y-120592380D02*
X186117023Y-119592380D01*
X185688452Y-120592380D02*
X185688452Y-120068571D01*
X185736071Y-119973333D01*
X185831309Y-119925714D01*
X185974166Y-119925714D01*
X186069404Y-119973333D01*
X186117023Y-120020952D01*
X184783690Y-119925714D02*
X184783690Y-120592380D01*
X185212261Y-119925714D02*
X185212261Y-120449523D01*
X185164642Y-120544761D01*
X185069404Y-120592380D01*
X184926547Y-120592380D01*
X184831309Y-120544761D01*
X184783690Y-120497142D01*
X184307500Y-120592380D02*
X184307500Y-119592380D01*
X184307500Y-119973333D02*
X184212261Y-119925714D01*
X184021785Y-119925714D01*
X183926547Y-119973333D01*
X183878928Y-120020952D01*
X183831309Y-120116190D01*
X183831309Y-120401904D01*
X183878928Y-120497142D01*
X183926547Y-120544761D01*
X184021785Y-120592380D01*
X184212261Y-120592380D01*
X184307500Y-120544761D01*
X183402738Y-120497142D02*
X183355119Y-120544761D01*
X183402738Y-120592380D01*
X183450357Y-120544761D01*
X183402738Y-120497142D01*
X183402738Y-120592380D01*
X182497976Y-120544761D02*
X182593214Y-120592380D01*
X182783690Y-120592380D01*
X182878928Y-120544761D01*
X182926547Y-120497142D01*
X182974166Y-120401904D01*
X182974166Y-120116190D01*
X182926547Y-120020952D01*
X182878928Y-119973333D01*
X182783690Y-119925714D01*
X182593214Y-119925714D01*
X182497976Y-119973333D01*
X181926547Y-120592380D02*
X182021785Y-120544761D01*
X182069404Y-120497142D01*
X182117023Y-120401904D01*
X182117023Y-120116190D01*
X182069404Y-120020952D01*
X182021785Y-119973333D01*
X181926547Y-119925714D01*
X181783690Y-119925714D01*
X181688452Y-119973333D01*
X181640833Y-120020952D01*
X181593214Y-120116190D01*
X181593214Y-120401904D01*
X181640833Y-120497142D01*
X181688452Y-120544761D01*
X181783690Y-120592380D01*
X181926547Y-120592380D01*
X181164642Y-120592380D02*
X181164642Y-119925714D01*
X181164642Y-120020952D02*
X181117023Y-119973333D01*
X181021785Y-119925714D01*
X180878928Y-119925714D01*
X180783690Y-119973333D01*
X180736071Y-120068571D01*
X180736071Y-120592380D01*
X180736071Y-120068571D02*
X180688452Y-119973333D01*
X180593214Y-119925714D01*
X180450357Y-119925714D01*
X180355119Y-119973333D01*
X180307500Y-120068571D01*
X180307500Y-120592380D01*
X179117023Y-119544761D02*
X179974166Y-120830476D01*
X178783690Y-119925714D02*
X178783690Y-120925714D01*
X178783690Y-119973333D02*
X178688452Y-119925714D01*
X178497976Y-119925714D01*
X178402738Y-119973333D01*
X178355119Y-120020952D01*
X178307500Y-120116190D01*
X178307500Y-120401904D01*
X178355119Y-120497142D01*
X178402738Y-120544761D01*
X178497976Y-120592380D01*
X178688452Y-120592380D01*
X178783690Y-120544761D01*
X177974166Y-119925714D02*
X177736071Y-120592380D01*
X177497976Y-119925714D02*
X177736071Y-120592380D01*
X177831309Y-120830476D01*
X177878928Y-120878095D01*
X177974166Y-120925714D01*
X177117023Y-120592380D02*
X177117023Y-119925714D01*
X177117023Y-120116190D02*
X177069404Y-120020952D01*
X177021785Y-119973333D01*
X176926547Y-119925714D01*
X176831309Y-119925714D01*
X176355119Y-120592380D02*
X176450357Y-120544761D01*
X176497976Y-120497142D01*
X176545595Y-120401904D01*
X176545595Y-120116190D01*
X176497976Y-120020952D01*
X176450357Y-119973333D01*
X176355119Y-119925714D01*
X176212261Y-119925714D01*
X176117023Y-119973333D01*
X176069404Y-120020952D01*
X176021785Y-120116190D01*
X176021785Y-120401904D01*
X176069404Y-120497142D01*
X176117023Y-120544761D01*
X176212261Y-120592380D01*
X176355119Y-120592380D01*
X175212261Y-120544761D02*
X175307500Y-120592380D01*
X175497976Y-120592380D01*
X175593214Y-120544761D01*
X175640833Y-120449523D01*
X175640833Y-120068571D01*
X175593214Y-119973333D01*
X175497976Y-119925714D01*
X175307500Y-119925714D01*
X175212261Y-119973333D01*
X175164642Y-120068571D01*
X175164642Y-120163809D01*
X175640833Y-120259047D01*
X174783690Y-120544761D02*
X174688452Y-120592380D01*
X174497976Y-120592380D01*
X174402738Y-120544761D01*
X174355119Y-120449523D01*
X174355119Y-120401904D01*
X174402738Y-120306666D01*
X174497976Y-120259047D01*
X174640833Y-120259047D01*
X174736071Y-120211428D01*
X174783690Y-120116190D01*
X174783690Y-120068571D01*
X174736071Y-119973333D01*
X174640833Y-119925714D01*
X174497976Y-119925714D01*
X174402738Y-119973333D01*
X173926547Y-119925714D02*
X173926547Y-120925714D01*
X173926547Y-119973333D02*
X173831309Y-119925714D01*
X173640833Y-119925714D01*
X173545595Y-119973333D01*
X173497976Y-120020952D01*
X173450357Y-120116190D01*
X173450357Y-120401904D01*
X173497976Y-120497142D01*
X173545595Y-120544761D01*
X173640833Y-120592380D01*
X173831309Y-120592380D01*
X173926547Y-120544761D01*
X172307500Y-119544761D02*
X173164642Y-120830476D01*
X171450357Y-119640000D02*
X171545595Y-119592380D01*
X171688452Y-119592380D01*
X171831309Y-119640000D01*
X171926547Y-119735238D01*
X171974166Y-119830476D01*
X172021785Y-120020952D01*
X172021785Y-120163809D01*
X171974166Y-120354285D01*
X171926547Y-120449523D01*
X171831309Y-120544761D01*
X171688452Y-120592380D01*
X171593214Y-120592380D01*
X171450357Y-120544761D01*
X171402738Y-120497142D01*
X171402738Y-120163809D01*
X171593214Y-120163809D01*
X170640833Y-120068571D02*
X170497976Y-120116190D01*
X170450357Y-120163809D01*
X170402738Y-120259047D01*
X170402738Y-120401904D01*
X170450357Y-120497142D01*
X170497976Y-120544761D01*
X170593214Y-120592380D01*
X170974166Y-120592380D01*
X170974166Y-119592380D01*
X170640833Y-119592380D01*
X170545595Y-119640000D01*
X170497976Y-119687619D01*
X170450357Y-119782857D01*
X170450357Y-119878095D01*
X170497976Y-119973333D01*
X170545595Y-120020952D01*
X170640833Y-120068571D01*
X170974166Y-120068571D01*
X169974166Y-120592380D02*
X169974166Y-119592380D01*
X169736071Y-119592380D01*
X169593214Y-119640000D01*
X169497976Y-119735238D01*
X169450357Y-119830476D01*
X169402738Y-120020952D01*
X169402738Y-120163809D01*
X169450357Y-120354285D01*
X169497976Y-120449523D01*
X169593214Y-120544761D01*
X169736071Y-120592380D01*
X169974166Y-120592380D01*
X169021785Y-120544761D02*
X168878928Y-120592380D01*
X168640833Y-120592380D01*
X168545595Y-120544761D01*
X168497976Y-120497142D01*
X168450357Y-120401904D01*
X168450357Y-120306666D01*
X168497976Y-120211428D01*
X168545595Y-120163809D01*
X168640833Y-120116190D01*
X168831309Y-120068571D01*
X168926547Y-120020952D01*
X168974166Y-119973333D01*
X169021785Y-119878095D01*
X169021785Y-119782857D01*
X168974166Y-119687619D01*
X168926547Y-119640000D01*
X168831309Y-119592380D01*
X168593214Y-119592380D01*
X168450357Y-119640000D01*
X167831309Y-119592380D02*
X167640833Y-119592380D01*
X167545595Y-119640000D01*
X167450357Y-119735238D01*
X167402738Y-119925714D01*
X167402738Y-120259047D01*
X167450357Y-120449523D01*
X167545595Y-120544761D01*
X167640833Y-120592380D01*
X167831309Y-120592380D01*
X167926547Y-120544761D01*
X168021785Y-120449523D01*
X168069404Y-120259047D01*
X168069404Y-119925714D01*
X168021785Y-119735238D01*
X167926547Y-119640000D01*
X167831309Y-119592380D01*
X187615595Y-75260000D02*
X187710833Y-75212380D01*
X187853690Y-75212380D01*
X187996547Y-75260000D01*
X188091785Y-75355238D01*
X188139404Y-75450476D01*
X188187023Y-75640952D01*
X188187023Y-75783809D01*
X188139404Y-75974285D01*
X188091785Y-76069523D01*
X187996547Y-76164761D01*
X187853690Y-76212380D01*
X187758452Y-76212380D01*
X187615595Y-76164761D01*
X187567976Y-76117142D01*
X187567976Y-75783809D01*
X187758452Y-75783809D01*
X186806071Y-75688571D02*
X186663214Y-75736190D01*
X186615595Y-75783809D01*
X186567976Y-75879047D01*
X186567976Y-76021904D01*
X186615595Y-76117142D01*
X186663214Y-76164761D01*
X186758452Y-76212380D01*
X187139404Y-76212380D01*
X187139404Y-75212380D01*
X186806071Y-75212380D01*
X186710833Y-75260000D01*
X186663214Y-75307619D01*
X186615595Y-75402857D01*
X186615595Y-75498095D01*
X186663214Y-75593333D01*
X186710833Y-75640952D01*
X186806071Y-75688571D01*
X187139404Y-75688571D01*
X186139404Y-76212380D02*
X186139404Y-75212380D01*
X185901309Y-75212380D01*
X185758452Y-75260000D01*
X185663214Y-75355238D01*
X185615595Y-75450476D01*
X185567976Y-75640952D01*
X185567976Y-75783809D01*
X185615595Y-75974285D01*
X185663214Y-76069523D01*
X185758452Y-76164761D01*
X185901309Y-76212380D01*
X186139404Y-76212380D01*
X185187023Y-76164761D02*
X185044166Y-76212380D01*
X184806071Y-76212380D01*
X184710833Y-76164761D01*
X184663214Y-76117142D01*
X184615595Y-76021904D01*
X184615595Y-75926666D01*
X184663214Y-75831428D01*
X184710833Y-75783809D01*
X184806071Y-75736190D01*
X184996547Y-75688571D01*
X185091785Y-75640952D01*
X185139404Y-75593333D01*
X185187023Y-75498095D01*
X185187023Y-75402857D01*
X185139404Y-75307619D01*
X185091785Y-75260000D01*
X184996547Y-75212380D01*
X184758452Y-75212380D01*
X184615595Y-75260000D01*
X183996547Y-75212380D02*
X183806071Y-75212380D01*
X183710833Y-75260000D01*
X183615595Y-75355238D01*
X183567976Y-75545714D01*
X183567976Y-75879047D01*
X183615595Y-76069523D01*
X183710833Y-76164761D01*
X183806071Y-76212380D01*
X183996547Y-76212380D01*
X184091785Y-76164761D01*
X184187023Y-76069523D01*
X184234642Y-75879047D01*
X184234642Y-75545714D01*
X184187023Y-75355238D01*
X184091785Y-75260000D01*
X183996547Y-75212380D01*
X182377500Y-76212380D02*
X182377500Y-75212380D01*
X182377500Y-75593333D02*
X182282261Y-75545714D01*
X182091785Y-75545714D01*
X181996547Y-75593333D01*
X181948928Y-75640952D01*
X181901309Y-75736190D01*
X181901309Y-76021904D01*
X181948928Y-76117142D01*
X181996547Y-76164761D01*
X182091785Y-76212380D01*
X182282261Y-76212380D01*
X182377500Y-76164761D01*
X181567976Y-75545714D02*
X181329880Y-76212380D01*
X181091785Y-75545714D02*
X181329880Y-76212380D01*
X181425119Y-76450476D01*
X181472738Y-76498095D01*
X181567976Y-76545714D01*
X179996547Y-76164761D02*
X179853690Y-76212380D01*
X179615595Y-76212380D01*
X179520357Y-76164761D01*
X179472738Y-76117142D01*
X179425119Y-76021904D01*
X179425119Y-75926666D01*
X179472738Y-75831428D01*
X179520357Y-75783809D01*
X179615595Y-75736190D01*
X179806071Y-75688571D01*
X179901309Y-75640952D01*
X179948928Y-75593333D01*
X179996547Y-75498095D01*
X179996547Y-75402857D01*
X179948928Y-75307619D01*
X179901309Y-75260000D01*
X179806071Y-75212380D01*
X179567976Y-75212380D01*
X179425119Y-75260000D01*
X179139404Y-75545714D02*
X178758452Y-75545714D01*
X178996547Y-75212380D02*
X178996547Y-76069523D01*
X178948928Y-76164761D01*
X178853690Y-76212380D01*
X178758452Y-76212380D01*
X178044166Y-76164761D02*
X178139404Y-76212380D01*
X178329880Y-76212380D01*
X178425119Y-76164761D01*
X178472738Y-76069523D01*
X178472738Y-75688571D01*
X178425119Y-75593333D01*
X178329880Y-75545714D01*
X178139404Y-75545714D01*
X178044166Y-75593333D01*
X177996547Y-75688571D01*
X177996547Y-75783809D01*
X178472738Y-75879047D01*
X177663214Y-75545714D02*
X177425119Y-76212380D01*
X177187023Y-75545714D01*
X176425119Y-76164761D02*
X176520357Y-76212380D01*
X176710833Y-76212380D01*
X176806071Y-76164761D01*
X176853690Y-76069523D01*
X176853690Y-75688571D01*
X176806071Y-75593333D01*
X176710833Y-75545714D01*
X176520357Y-75545714D01*
X176425119Y-75593333D01*
X176377500Y-75688571D01*
X176377500Y-75783809D01*
X176853690Y-75879047D01*
X175282261Y-75212380D02*
X175044166Y-76212380D01*
X174853690Y-75498095D01*
X174663214Y-76212380D01*
X174425119Y-75212380D01*
X174044166Y-76212380D02*
X174044166Y-75545714D01*
X174044166Y-75212380D02*
X174091785Y-75260000D01*
X174044166Y-75307619D01*
X173996547Y-75260000D01*
X174044166Y-75212380D01*
X174044166Y-75307619D01*
X173425119Y-76212380D02*
X173520357Y-76164761D01*
X173567976Y-76069523D01*
X173567976Y-75212380D01*
X172901309Y-76212380D02*
X172996547Y-76164761D01*
X173044166Y-76069523D01*
X173044166Y-75212380D01*
X172520357Y-76212380D02*
X172520357Y-75545714D01*
X172520357Y-75212380D02*
X172567976Y-75260000D01*
X172520357Y-75307619D01*
X172472738Y-75260000D01*
X172520357Y-75212380D01*
X172520357Y-75307619D01*
X172091785Y-76164761D02*
X171996547Y-76212380D01*
X171806071Y-76212380D01*
X171710833Y-76164761D01*
X171663214Y-76069523D01*
X171663214Y-76021904D01*
X171710833Y-75926666D01*
X171806071Y-75879047D01*
X171948928Y-75879047D01*
X172044166Y-75831428D01*
X172091785Y-75736190D01*
X172091785Y-75688571D01*
X172044166Y-75593333D01*
X171948928Y-75545714D01*
X171806071Y-75545714D01*
X171710833Y-75593333D01*
X170187023Y-76593333D02*
X170234642Y-76545714D01*
X170329880Y-76402857D01*
X170377500Y-76307619D01*
X170425119Y-76164761D01*
X170472738Y-75926666D01*
X170472738Y-75736190D01*
X170425119Y-75498095D01*
X170377500Y-75355238D01*
X170329880Y-75260000D01*
X170234642Y-75117142D01*
X170187023Y-75069523D01*
X169853690Y-75307619D02*
X169806071Y-75260000D01*
X169710833Y-75212380D01*
X169472738Y-75212380D01*
X169377500Y-75260000D01*
X169329880Y-75307619D01*
X169282261Y-75402857D01*
X169282261Y-75498095D01*
X169329880Y-75640952D01*
X169901309Y-76212380D01*
X169282261Y-76212380D01*
X168663214Y-75212380D02*
X168567976Y-75212380D01*
X168472738Y-75260000D01*
X168425119Y-75307619D01*
X168377500Y-75402857D01*
X168329880Y-75593333D01*
X168329880Y-75831428D01*
X168377500Y-76021904D01*
X168425119Y-76117142D01*
X168472738Y-76164761D01*
X168567976Y-76212380D01*
X168663214Y-76212380D01*
X168758452Y-76164761D01*
X168806071Y-76117142D01*
X168853690Y-76021904D01*
X168901309Y-75831428D01*
X168901309Y-75593333D01*
X168853690Y-75402857D01*
X168806071Y-75307619D01*
X168758452Y-75260000D01*
X168663214Y-75212380D01*
X167710833Y-75212380D02*
X167615595Y-75212380D01*
X167520357Y-75260000D01*
X167472738Y-75307619D01*
X167425119Y-75402857D01*
X167377500Y-75593333D01*
X167377500Y-75831428D01*
X167425119Y-76021904D01*
X167472738Y-76117142D01*
X167520357Y-76164761D01*
X167615595Y-76212380D01*
X167710833Y-76212380D01*
X167806071Y-76164761D01*
X167853690Y-76117142D01*
X167901309Y-76021904D01*
X167948928Y-75831428D01*
X167948928Y-75593333D01*
X167901309Y-75402857D01*
X167853690Y-75307619D01*
X167806071Y-75260000D01*
X167710833Y-75212380D01*
X166758452Y-75212380D02*
X166663214Y-75212380D01*
X166567976Y-75260000D01*
X166520357Y-75307619D01*
X166472738Y-75402857D01*
X166425119Y-75593333D01*
X166425119Y-75831428D01*
X166472738Y-76021904D01*
X166520357Y-76117142D01*
X166567976Y-76164761D01*
X166663214Y-76212380D01*
X166758452Y-76212380D01*
X166853690Y-76164761D01*
X166901309Y-76117142D01*
X166948928Y-76021904D01*
X166996547Y-75831428D01*
X166996547Y-75593333D01*
X166948928Y-75402857D01*
X166901309Y-75307619D01*
X166853690Y-75260000D01*
X166758452Y-75212380D01*
X165282261Y-75164761D02*
X166139404Y-76450476D01*
X164425119Y-76212380D02*
X164996547Y-76212380D01*
X164710833Y-76212380D02*
X164710833Y-75212380D01*
X164806071Y-75355238D01*
X164901309Y-75450476D01*
X164996547Y-75498095D01*
X163806071Y-75212380D02*
X163710833Y-75212380D01*
X163615595Y-75260000D01*
X163567976Y-75307619D01*
X163520357Y-75402857D01*
X163472738Y-75593333D01*
X163472738Y-75831428D01*
X163520357Y-76021904D01*
X163567976Y-76117142D01*
X163615595Y-76164761D01*
X163710833Y-76212380D01*
X163806071Y-76212380D01*
X163901309Y-76164761D01*
X163948928Y-76117142D01*
X163996547Y-76021904D01*
X164044166Y-75831428D01*
X164044166Y-75593333D01*
X163996547Y-75402857D01*
X163948928Y-75307619D01*
X163901309Y-75260000D01*
X163806071Y-75212380D01*
X163139404Y-76593333D02*
X163091785Y-76545714D01*
X162996547Y-76402857D01*
X162948928Y-76307619D01*
X162901309Y-76164761D01*
X162853690Y-75926666D01*
X162853690Y-75736190D01*
X162901309Y-75498095D01*
X162948928Y-75355238D01*
X162996547Y-75260000D01*
X163091785Y-75117142D01*
X163139404Y-75069523D01*
D11*
G36*
X124194186Y-122758931D02*
G01*
X124110365Y-123203555D01*
X123801080Y-123331053D01*
X123491794Y-123458551D01*
X123120754Y-123206246D01*
X123016843Y-123135996D01*
X122922913Y-123073272D01*
X122843348Y-123020938D01*
X122782530Y-122981857D01*
X122744843Y-122958893D01*
X122734579Y-122953942D01*
X122716090Y-122966676D01*
X122676580Y-123001882D01*
X122620478Y-123055062D01*
X122552213Y-123121718D01*
X122476214Y-123197354D01*
X122396908Y-123277472D01*
X122318725Y-123357574D01*
X122246093Y-123433164D01*
X122183441Y-123499745D01*
X122135197Y-123552818D01*
X122105790Y-123587887D01*
X122098759Y-123599623D01*
X122108877Y-123621260D01*
X122137241Y-123668662D01*
X122180871Y-123737193D01*
X122236782Y-123822215D01*
X122301994Y-123919093D01*
X122339781Y-123974350D01*
X122408657Y-124075248D01*
X122469860Y-124166299D01*
X122520422Y-124242970D01*
X122557372Y-124300728D01*
X122577742Y-124335043D01*
X122580803Y-124342254D01*
X122573864Y-124362748D01*
X122554949Y-124410513D01*
X122526913Y-124478832D01*
X122492609Y-124560989D01*
X122454891Y-124650270D01*
X122416613Y-124739958D01*
X122380630Y-124823338D01*
X122349794Y-124893694D01*
X122326961Y-124944310D01*
X122314983Y-124968471D01*
X122314276Y-124969422D01*
X122295469Y-124974036D01*
X122245382Y-124984328D01*
X122169207Y-124999287D01*
X122072135Y-125017901D01*
X121959357Y-125039159D01*
X121893558Y-125051418D01*
X121773050Y-125074362D01*
X121664203Y-125096195D01*
X121572524Y-125115722D01*
X121503519Y-125131748D01*
X121462696Y-125143079D01*
X121454489Y-125146674D01*
X121446452Y-125171006D01*
X121439967Y-125225959D01*
X121435030Y-125305108D01*
X121431636Y-125402026D01*
X121429782Y-125510287D01*
X121429462Y-125623465D01*
X121430673Y-125735135D01*
X121433410Y-125838868D01*
X121437669Y-125928241D01*
X121443445Y-125996826D01*
X121450733Y-126038197D01*
X121455105Y-126046810D01*
X121481236Y-126057133D01*
X121536607Y-126071892D01*
X121613893Y-126089352D01*
X121705770Y-126107780D01*
X121737842Y-126113741D01*
X121892476Y-126142066D01*
X122014625Y-126164876D01*
X122108327Y-126183080D01*
X122177616Y-126197583D01*
X122226529Y-126209292D01*
X122259103Y-126219115D01*
X122279372Y-126227956D01*
X122291374Y-126236724D01*
X122293053Y-126238457D01*
X122309816Y-126266371D01*
X122335386Y-126320695D01*
X122367212Y-126394777D01*
X122402740Y-126481965D01*
X122439417Y-126575608D01*
X122474689Y-126669052D01*
X122506004Y-126755647D01*
X122530807Y-126828740D01*
X122546546Y-126881678D01*
X122550668Y-126907811D01*
X122550324Y-126908726D01*
X122536359Y-126930086D01*
X122504678Y-126977084D01*
X122458609Y-127044827D01*
X122401482Y-127128423D01*
X122336627Y-127222982D01*
X122318157Y-127249854D01*
X122252301Y-127347275D01*
X122194350Y-127436163D01*
X122147462Y-127511412D01*
X122114793Y-127567920D01*
X122099500Y-127600581D01*
X122098759Y-127604593D01*
X122111608Y-127625684D01*
X122147112Y-127667464D01*
X122200707Y-127725445D01*
X122267829Y-127795135D01*
X122343913Y-127872045D01*
X122424396Y-127951683D01*
X122504713Y-128029561D01*
X122580301Y-128101186D01*
X122646595Y-128162070D01*
X122699031Y-128207721D01*
X122733045Y-128233650D01*
X122742455Y-128237883D01*
X122764357Y-128227912D01*
X122809200Y-128201020D01*
X122869679Y-128161736D01*
X122916211Y-128130117D01*
X123000525Y-128072098D01*
X123100374Y-128003784D01*
X123200527Y-127935579D01*
X123254373Y-127899075D01*
X123436629Y-127775800D01*
X123589619Y-127858520D01*
X123659318Y-127894759D01*
X123718586Y-127922926D01*
X123758689Y-127938991D01*
X123768897Y-127941226D01*
X123781171Y-127924722D01*
X123805387Y-127878082D01*
X123839737Y-127805609D01*
X123882412Y-127711606D01*
X123931606Y-127600374D01*
X123985510Y-127476215D01*
X124042316Y-127343432D01*
X124100218Y-127206327D01*
X124157407Y-127069202D01*
X124212076Y-126936358D01*
X124262416Y-126812098D01*
X124306620Y-126700725D01*
X124342881Y-126606539D01*
X124369391Y-126533844D01*
X124384342Y-126486941D01*
X124386746Y-126470833D01*
X124367689Y-126450286D01*
X124325964Y-126416933D01*
X124270294Y-126377702D01*
X124265622Y-126374599D01*
X124121736Y-126259423D01*
X124005717Y-126125053D01*
X123918570Y-125975784D01*
X123861301Y-125815913D01*
X123834914Y-125649737D01*
X123840415Y-125481552D01*
X123878810Y-125315655D01*
X123951105Y-125156342D01*
X123972374Y-125121487D01*
X124083004Y-124980737D01*
X124213698Y-124867714D01*
X124359936Y-124783003D01*
X124517192Y-124727194D01*
X124680943Y-124700874D01*
X124846667Y-124704630D01*
X125009838Y-124739050D01*
X125165935Y-124804723D01*
X125310433Y-124902235D01*
X125355131Y-124941813D01*
X125468888Y-125065703D01*
X125551782Y-125196124D01*
X125608644Y-125342315D01*
X125640313Y-125487088D01*
X125648131Y-125649860D01*
X125622062Y-125813440D01*
X125564755Y-125972298D01*
X125478856Y-126120906D01*
X125367014Y-126253735D01*
X125231877Y-126365256D01*
X125214117Y-126377011D01*
X125157850Y-126415508D01*
X125115077Y-126448863D01*
X125094628Y-126470160D01*
X125094331Y-126470833D01*
X125098721Y-126493871D01*
X125116124Y-126546157D01*
X125144732Y-126623390D01*
X125182735Y-126721268D01*
X125228326Y-126835491D01*
X125279697Y-126961758D01*
X125335038Y-127095767D01*
X125392542Y-127233218D01*
X125450399Y-127369808D01*
X125506802Y-127501237D01*
X125559942Y-127623205D01*
X125608010Y-127731409D01*
X125649199Y-127821549D01*
X125681699Y-127889323D01*
X125703703Y-127930430D01*
X125712564Y-127941226D01*
X125739640Y-127932819D01*
X125790303Y-127910272D01*
X125855817Y-127877613D01*
X125891841Y-127858520D01*
X126044832Y-127775800D01*
X126227088Y-127899075D01*
X126320125Y-127962228D01*
X126421985Y-128031727D01*
X126517438Y-128097165D01*
X126565250Y-128130117D01*
X126632495Y-128175273D01*
X126689436Y-128211057D01*
X126728646Y-128232938D01*
X126741381Y-128237563D01*
X126759917Y-128225085D01*
X126800941Y-128190252D01*
X126860475Y-128136678D01*
X126934542Y-128067983D01*
X127019165Y-127987781D01*
X127072685Y-127936286D01*
X127166319Y-127844286D01*
X127247241Y-127761999D01*
X127312177Y-127692945D01*
X127357858Y-127640644D01*
X127381011Y-127608616D01*
X127383232Y-127602116D01*
X127372924Y-127577394D01*
X127344439Y-127527405D01*
X127300937Y-127457212D01*
X127245577Y-127371875D01*
X127181520Y-127276456D01*
X127163303Y-127249854D01*
X127096927Y-127153167D01*
X127037378Y-127066117D01*
X126987984Y-126993595D01*
X126952075Y-126940493D01*
X126932981Y-126911703D01*
X126931136Y-126908726D01*
X126933895Y-126885782D01*
X126948538Y-126835336D01*
X126972513Y-126764041D01*
X127003266Y-126678547D01*
X127038244Y-126585507D01*
X127074893Y-126491574D01*
X127110661Y-126403399D01*
X127142994Y-126327634D01*
X127169338Y-126270931D01*
X127187142Y-126239943D01*
X127188407Y-126238457D01*
X127199294Y-126229601D01*
X127217682Y-126220843D01*
X127247606Y-126211277D01*
X127293103Y-126199996D01*
X127358209Y-126186093D01*
X127446961Y-126168663D01*
X127563393Y-126146798D01*
X127711542Y-126119591D01*
X127743618Y-126113741D01*
X127838686Y-126095374D01*
X127921565Y-126077405D01*
X127984930Y-126061569D01*
X128021458Y-126049600D01*
X128026356Y-126046810D01*
X128034427Y-126022072D01*
X128040987Y-125966790D01*
X128046033Y-125887389D01*
X128049559Y-125790296D01*
X128051561Y-125681938D01*
X128052036Y-125568740D01*
X128050977Y-125457128D01*
X128048382Y-125353529D01*
X128044246Y-125264368D01*
X128038563Y-125196072D01*
X128031331Y-125155066D01*
X128026971Y-125146674D01*
X128002698Y-125138208D01*
X127947426Y-125124435D01*
X127866662Y-125106550D01*
X127765912Y-125085748D01*
X127650683Y-125063223D01*
X127587902Y-125051418D01*
X127468787Y-125029151D01*
X127362565Y-125008979D01*
X127274427Y-124991915D01*
X127209566Y-124978969D01*
X127173174Y-124971155D01*
X127167184Y-124969422D01*
X127157061Y-124949890D01*
X127135662Y-124902843D01*
X127105839Y-124835003D01*
X127070445Y-124753091D01*
X127032332Y-124663828D01*
X126994353Y-124573935D01*
X126959360Y-124490135D01*
X126930206Y-124419147D01*
X126909743Y-124367694D01*
X126900823Y-124342497D01*
X126900657Y-124341396D01*
X126910769Y-124321519D01*
X126939117Y-124275777D01*
X126982723Y-124208717D01*
X127038606Y-124124884D01*
X127103787Y-124028826D01*
X127141679Y-123973650D01*
X127210725Y-123872481D01*
X127272050Y-123780630D01*
X127322663Y-123702744D01*
X127359571Y-123643469D01*
X127379782Y-123607451D01*
X127382701Y-123599377D01*
X127370153Y-123580584D01*
X127335463Y-123540457D01*
X127283063Y-123483493D01*
X127217384Y-123414185D01*
X127142856Y-123337031D01*
X127063913Y-123256525D01*
X126984983Y-123177163D01*
X126910500Y-123103440D01*
X126844894Y-123039852D01*
X126792596Y-122990894D01*
X126758039Y-122961061D01*
X126746478Y-122953942D01*
X126727654Y-122963953D01*
X126682631Y-122992078D01*
X126615787Y-123035454D01*
X126531499Y-123091218D01*
X126434144Y-123156506D01*
X126360707Y-123206246D01*
X125989667Y-123458551D01*
X125371095Y-123203555D01*
X125287275Y-122758931D01*
X125203454Y-122314307D01*
X124278006Y-122314307D01*
X124194186Y-122758931D01*
X124194186Y-122758931D01*
G37*
X124194186Y-122758931D02*
X124110365Y-123203555D01*
X123801080Y-123331053D01*
X123491794Y-123458551D01*
X123120754Y-123206246D01*
X123016843Y-123135996D01*
X122922913Y-123073272D01*
X122843348Y-123020938D01*
X122782530Y-122981857D01*
X122744843Y-122958893D01*
X122734579Y-122953942D01*
X122716090Y-122966676D01*
X122676580Y-123001882D01*
X122620478Y-123055062D01*
X122552213Y-123121718D01*
X122476214Y-123197354D01*
X122396908Y-123277472D01*
X122318725Y-123357574D01*
X122246093Y-123433164D01*
X122183441Y-123499745D01*
X122135197Y-123552818D01*
X122105790Y-123587887D01*
X122098759Y-123599623D01*
X122108877Y-123621260D01*
X122137241Y-123668662D01*
X122180871Y-123737193D01*
X122236782Y-123822215D01*
X122301994Y-123919093D01*
X122339781Y-123974350D01*
X122408657Y-124075248D01*
X122469860Y-124166299D01*
X122520422Y-124242970D01*
X122557372Y-124300728D01*
X122577742Y-124335043D01*
X122580803Y-124342254D01*
X122573864Y-124362748D01*
X122554949Y-124410513D01*
X122526913Y-124478832D01*
X122492609Y-124560989D01*
X122454891Y-124650270D01*
X122416613Y-124739958D01*
X122380630Y-124823338D01*
X122349794Y-124893694D01*
X122326961Y-124944310D01*
X122314983Y-124968471D01*
X122314276Y-124969422D01*
X122295469Y-124974036D01*
X122245382Y-124984328D01*
X122169207Y-124999287D01*
X122072135Y-125017901D01*
X121959357Y-125039159D01*
X121893558Y-125051418D01*
X121773050Y-125074362D01*
X121664203Y-125096195D01*
X121572524Y-125115722D01*
X121503519Y-125131748D01*
X121462696Y-125143079D01*
X121454489Y-125146674D01*
X121446452Y-125171006D01*
X121439967Y-125225959D01*
X121435030Y-125305108D01*
X121431636Y-125402026D01*
X121429782Y-125510287D01*
X121429462Y-125623465D01*
X121430673Y-125735135D01*
X121433410Y-125838868D01*
X121437669Y-125928241D01*
X121443445Y-125996826D01*
X121450733Y-126038197D01*
X121455105Y-126046810D01*
X121481236Y-126057133D01*
X121536607Y-126071892D01*
X121613893Y-126089352D01*
X121705770Y-126107780D01*
X121737842Y-126113741D01*
X121892476Y-126142066D01*
X122014625Y-126164876D01*
X122108327Y-126183080D01*
X122177616Y-126197583D01*
X122226529Y-126209292D01*
X122259103Y-126219115D01*
X122279372Y-126227956D01*
X122291374Y-126236724D01*
X122293053Y-126238457D01*
X122309816Y-126266371D01*
X122335386Y-126320695D01*
X122367212Y-126394777D01*
X122402740Y-126481965D01*
X122439417Y-126575608D01*
X122474689Y-126669052D01*
X122506004Y-126755647D01*
X122530807Y-126828740D01*
X122546546Y-126881678D01*
X122550668Y-126907811D01*
X122550324Y-126908726D01*
X122536359Y-126930086D01*
X122504678Y-126977084D01*
X122458609Y-127044827D01*
X122401482Y-127128423D01*
X122336627Y-127222982D01*
X122318157Y-127249854D01*
X122252301Y-127347275D01*
X122194350Y-127436163D01*
X122147462Y-127511412D01*
X122114793Y-127567920D01*
X122099500Y-127600581D01*
X122098759Y-127604593D01*
X122111608Y-127625684D01*
X122147112Y-127667464D01*
X122200707Y-127725445D01*
X122267829Y-127795135D01*
X122343913Y-127872045D01*
X122424396Y-127951683D01*
X122504713Y-128029561D01*
X122580301Y-128101186D01*
X122646595Y-128162070D01*
X122699031Y-128207721D01*
X122733045Y-128233650D01*
X122742455Y-128237883D01*
X122764357Y-128227912D01*
X122809200Y-128201020D01*
X122869679Y-128161736D01*
X122916211Y-128130117D01*
X123000525Y-128072098D01*
X123100374Y-128003784D01*
X123200527Y-127935579D01*
X123254373Y-127899075D01*
X123436629Y-127775800D01*
X123589619Y-127858520D01*
X123659318Y-127894759D01*
X123718586Y-127922926D01*
X123758689Y-127938991D01*
X123768897Y-127941226D01*
X123781171Y-127924722D01*
X123805387Y-127878082D01*
X123839737Y-127805609D01*
X123882412Y-127711606D01*
X123931606Y-127600374D01*
X123985510Y-127476215D01*
X124042316Y-127343432D01*
X124100218Y-127206327D01*
X124157407Y-127069202D01*
X124212076Y-126936358D01*
X124262416Y-126812098D01*
X124306620Y-126700725D01*
X124342881Y-126606539D01*
X124369391Y-126533844D01*
X124384342Y-126486941D01*
X124386746Y-126470833D01*
X124367689Y-126450286D01*
X124325964Y-126416933D01*
X124270294Y-126377702D01*
X124265622Y-126374599D01*
X124121736Y-126259423D01*
X124005717Y-126125053D01*
X123918570Y-125975784D01*
X123861301Y-125815913D01*
X123834914Y-125649737D01*
X123840415Y-125481552D01*
X123878810Y-125315655D01*
X123951105Y-125156342D01*
X123972374Y-125121487D01*
X124083004Y-124980737D01*
X124213698Y-124867714D01*
X124359936Y-124783003D01*
X124517192Y-124727194D01*
X124680943Y-124700874D01*
X124846667Y-124704630D01*
X125009838Y-124739050D01*
X125165935Y-124804723D01*
X125310433Y-124902235D01*
X125355131Y-124941813D01*
X125468888Y-125065703D01*
X125551782Y-125196124D01*
X125608644Y-125342315D01*
X125640313Y-125487088D01*
X125648131Y-125649860D01*
X125622062Y-125813440D01*
X125564755Y-125972298D01*
X125478856Y-126120906D01*
X125367014Y-126253735D01*
X125231877Y-126365256D01*
X125214117Y-126377011D01*
X125157850Y-126415508D01*
X125115077Y-126448863D01*
X125094628Y-126470160D01*
X125094331Y-126470833D01*
X125098721Y-126493871D01*
X125116124Y-126546157D01*
X125144732Y-126623390D01*
X125182735Y-126721268D01*
X125228326Y-126835491D01*
X125279697Y-126961758D01*
X125335038Y-127095767D01*
X125392542Y-127233218D01*
X125450399Y-127369808D01*
X125506802Y-127501237D01*
X125559942Y-127623205D01*
X125608010Y-127731409D01*
X125649199Y-127821549D01*
X125681699Y-127889323D01*
X125703703Y-127930430D01*
X125712564Y-127941226D01*
X125739640Y-127932819D01*
X125790303Y-127910272D01*
X125855817Y-127877613D01*
X125891841Y-127858520D01*
X126044832Y-127775800D01*
X126227088Y-127899075D01*
X126320125Y-127962228D01*
X126421985Y-128031727D01*
X126517438Y-128097165D01*
X126565250Y-128130117D01*
X126632495Y-128175273D01*
X126689436Y-128211057D01*
X126728646Y-128232938D01*
X126741381Y-128237563D01*
X126759917Y-128225085D01*
X126800941Y-128190252D01*
X126860475Y-128136678D01*
X126934542Y-128067983D01*
X127019165Y-127987781D01*
X127072685Y-127936286D01*
X127166319Y-127844286D01*
X127247241Y-127761999D01*
X127312177Y-127692945D01*
X127357858Y-127640644D01*
X127381011Y-127608616D01*
X127383232Y-127602116D01*
X127372924Y-127577394D01*
X127344439Y-127527405D01*
X127300937Y-127457212D01*
X127245577Y-127371875D01*
X127181520Y-127276456D01*
X127163303Y-127249854D01*
X127096927Y-127153167D01*
X127037378Y-127066117D01*
X126987984Y-126993595D01*
X126952075Y-126940493D01*
X126932981Y-126911703D01*
X126931136Y-126908726D01*
X126933895Y-126885782D01*
X126948538Y-126835336D01*
X126972513Y-126764041D01*
X127003266Y-126678547D01*
X127038244Y-126585507D01*
X127074893Y-126491574D01*
X127110661Y-126403399D01*
X127142994Y-126327634D01*
X127169338Y-126270931D01*
X127187142Y-126239943D01*
X127188407Y-126238457D01*
X127199294Y-126229601D01*
X127217682Y-126220843D01*
X127247606Y-126211277D01*
X127293103Y-126199996D01*
X127358209Y-126186093D01*
X127446961Y-126168663D01*
X127563393Y-126146798D01*
X127711542Y-126119591D01*
X127743618Y-126113741D01*
X127838686Y-126095374D01*
X127921565Y-126077405D01*
X127984930Y-126061569D01*
X128021458Y-126049600D01*
X128026356Y-126046810D01*
X128034427Y-126022072D01*
X128040987Y-125966790D01*
X128046033Y-125887389D01*
X128049559Y-125790296D01*
X128051561Y-125681938D01*
X128052036Y-125568740D01*
X128050977Y-125457128D01*
X128048382Y-125353529D01*
X128044246Y-125264368D01*
X128038563Y-125196072D01*
X128031331Y-125155066D01*
X128026971Y-125146674D01*
X128002698Y-125138208D01*
X127947426Y-125124435D01*
X127866662Y-125106550D01*
X127765912Y-125085748D01*
X127650683Y-125063223D01*
X127587902Y-125051418D01*
X127468787Y-125029151D01*
X127362565Y-125008979D01*
X127274427Y-124991915D01*
X127209566Y-124978969D01*
X127173174Y-124971155D01*
X127167184Y-124969422D01*
X127157061Y-124949890D01*
X127135662Y-124902843D01*
X127105839Y-124835003D01*
X127070445Y-124753091D01*
X127032332Y-124663828D01*
X126994353Y-124573935D01*
X126959360Y-124490135D01*
X126930206Y-124419147D01*
X126909743Y-124367694D01*
X126900823Y-124342497D01*
X126900657Y-124341396D01*
X126910769Y-124321519D01*
X126939117Y-124275777D01*
X126982723Y-124208717D01*
X127038606Y-124124884D01*
X127103787Y-124028826D01*
X127141679Y-123973650D01*
X127210725Y-123872481D01*
X127272050Y-123780630D01*
X127322663Y-123702744D01*
X127359571Y-123643469D01*
X127379782Y-123607451D01*
X127382701Y-123599377D01*
X127370153Y-123580584D01*
X127335463Y-123540457D01*
X127283063Y-123483493D01*
X127217384Y-123414185D01*
X127142856Y-123337031D01*
X127063913Y-123256525D01*
X126984983Y-123177163D01*
X126910500Y-123103440D01*
X126844894Y-123039852D01*
X126792596Y-122990894D01*
X126758039Y-122961061D01*
X126746478Y-122953942D01*
X126727654Y-122963953D01*
X126682631Y-122992078D01*
X126615787Y-123035454D01*
X126531499Y-123091218D01*
X126434144Y-123156506D01*
X126360707Y-123206246D01*
X125989667Y-123458551D01*
X125371095Y-123203555D01*
X125287275Y-122758931D01*
X125203454Y-122314307D01*
X124278006Y-122314307D01*
X124194186Y-122758931D01*
G36*
X182566079Y-123906490D02*
G01*
X182462973Y-123942238D01*
X182366978Y-123998507D01*
X182281247Y-124075288D01*
X182208930Y-124172573D01*
X182176445Y-124233892D01*
X182148332Y-124319660D01*
X182134705Y-124418677D01*
X182136214Y-124520471D01*
X182152969Y-124612714D01*
X182198763Y-124725432D01*
X182265168Y-124823207D01*
X182348809Y-124904115D01*
X182446312Y-124966232D01*
X182554300Y-125007634D01*
X182669399Y-125026397D01*
X182788234Y-125020598D01*
X182846811Y-125008206D01*
X182960972Y-124963797D01*
X183062365Y-124896033D01*
X183148545Y-124807001D01*
X183217066Y-124698791D01*
X183222864Y-124686973D01*
X183242904Y-124642628D01*
X183255487Y-124605280D01*
X183262319Y-124565880D01*
X183265105Y-124515381D01*
X183265568Y-124460433D01*
X183264803Y-124394415D01*
X183261352Y-124346689D01*
X183253477Y-124308103D01*
X183239443Y-124269506D01*
X183222120Y-124231426D01*
X183157505Y-124123328D01*
X183077934Y-124035803D01*
X182986560Y-123968841D01*
X182886536Y-123922436D01*
X182781012Y-123896581D01*
X182673142Y-123891268D01*
X182566079Y-123906490D01*
X182566079Y-123906490D01*
G37*
X182566079Y-123906490D02*
X182462973Y-123942238D01*
X182366978Y-123998507D01*
X182281247Y-124075288D01*
X182208930Y-124172573D01*
X182176445Y-124233892D01*
X182148332Y-124319660D01*
X182134705Y-124418677D01*
X182136214Y-124520471D01*
X182152969Y-124612714D01*
X182198763Y-124725432D01*
X182265168Y-124823207D01*
X182348809Y-124904115D01*
X182446312Y-124966232D01*
X182554300Y-125007634D01*
X182669399Y-125026397D01*
X182788234Y-125020598D01*
X182846811Y-125008206D01*
X182960972Y-124963797D01*
X183062365Y-124896033D01*
X183148545Y-124807001D01*
X183217066Y-124698791D01*
X183222864Y-124686973D01*
X183242904Y-124642628D01*
X183255487Y-124605280D01*
X183262319Y-124565880D01*
X183265105Y-124515381D01*
X183265568Y-124460433D01*
X183264803Y-124394415D01*
X183261352Y-124346689D01*
X183253477Y-124308103D01*
X183239443Y-124269506D01*
X183222120Y-124231426D01*
X183157505Y-124123328D01*
X183077934Y-124035803D01*
X182986560Y-123968841D01*
X182886536Y-123922436D01*
X182781012Y-123896581D01*
X182673142Y-123891268D01*
X182566079Y-123906490D01*
G36*
X172997730Y-124826825D02*
G01*
X172880959Y-124827304D01*
X172841271Y-124827545D01*
X172295514Y-124831135D01*
X172288649Y-126924919D01*
X172287742Y-127208842D01*
X172286938Y-127466640D01*
X172286185Y-127699646D01*
X172285431Y-127909194D01*
X172284625Y-128096618D01*
X172283715Y-128263250D01*
X172282649Y-128410425D01*
X172281376Y-128539477D01*
X172279844Y-128651739D01*
X172278002Y-128748544D01*
X172275797Y-128831226D01*
X172273178Y-128901119D01*
X172270094Y-128959557D01*
X172266492Y-129007872D01*
X172262322Y-129047400D01*
X172257531Y-129079473D01*
X172252069Y-129105424D01*
X172245882Y-129126589D01*
X172238920Y-129144299D01*
X172231131Y-129159889D01*
X172222463Y-129174693D01*
X172212865Y-129190044D01*
X172202285Y-129207276D01*
X172200116Y-129210946D01*
X172163732Y-129273031D01*
X172689569Y-129269434D01*
X173215406Y-129265838D01*
X173222271Y-129150331D01*
X173226008Y-129094899D01*
X173229903Y-129062851D01*
X173235189Y-129050135D01*
X173243097Y-129052696D01*
X173249730Y-129060024D01*
X173278626Y-129086714D01*
X173325721Y-129121021D01*
X173384380Y-129158846D01*
X173447969Y-129196090D01*
X173509851Y-129228653D01*
X173557366Y-129250077D01*
X173668684Y-129285283D01*
X173796404Y-129310222D01*
X173931099Y-129323941D01*
X174063337Y-129325486D01*
X174183692Y-129313906D01*
X174185674Y-129313574D01*
X174350359Y-129272250D01*
X174504521Y-129206412D01*
X174646672Y-129117474D01*
X174775325Y-129006852D01*
X174888993Y-128875961D01*
X174986190Y-128726216D01*
X175065428Y-128559033D01*
X175108570Y-128435190D01*
X175137021Y-128331581D01*
X175158120Y-128231252D01*
X175172512Y-128128109D01*
X175180842Y-128016057D01*
X175183755Y-127889001D01*
X175182465Y-127785252D01*
X174169350Y-127785252D01*
X174164556Y-127959222D01*
X174149432Y-128108895D01*
X174123515Y-128235597D01*
X174086337Y-128340658D01*
X174037435Y-128425406D01*
X173976342Y-128491169D01*
X173905823Y-128537659D01*
X173869129Y-128555014D01*
X173837304Y-128565419D01*
X173801823Y-128570179D01*
X173754159Y-128570601D01*
X173702811Y-128568748D01*
X173601831Y-128559841D01*
X173521965Y-128542398D01*
X173496865Y-128533661D01*
X173439552Y-128507857D01*
X173379103Y-128475453D01*
X173352703Y-128459233D01*
X173284054Y-128414205D01*
X173284054Y-126986982D01*
X173359568Y-126941718D01*
X173464879Y-126890572D01*
X173572475Y-126860324D01*
X173678419Y-126850795D01*
X173778776Y-126861807D01*
X173869613Y-126893181D01*
X173946993Y-126944740D01*
X173971961Y-126969488D01*
X174032144Y-127050577D01*
X174080855Y-127148734D01*
X174118501Y-127265643D01*
X174145488Y-127402985D01*
X174162225Y-127562444D01*
X174169117Y-127745700D01*
X174169350Y-127785252D01*
X175182465Y-127785252D01*
X175181927Y-127742067D01*
X175170353Y-127516053D01*
X175147080Y-127312192D01*
X175111496Y-127127513D01*
X175062987Y-126959048D01*
X175000940Y-126803826D01*
X174978799Y-126757808D01*
X174889615Y-126607739D01*
X174781841Y-126474377D01*
X174658010Y-126359877D01*
X174520658Y-126266389D01*
X174372317Y-126196068D01*
X174283396Y-126167060D01*
X174196067Y-126149840D01*
X174090989Y-126139594D01*
X173976971Y-126136318D01*
X173862823Y-126140009D01*
X173757352Y-126150660D01*
X173672666Y-126167370D01*
X173571872Y-126200140D01*
X173474178Y-126242279D01*
X173388704Y-126289519D01*
X173343211Y-126321581D01*
X173311831Y-126345422D01*
X173289858Y-126359939D01*
X173284859Y-126362000D01*
X173283310Y-126348718D01*
X173281865Y-126310663D01*
X173280557Y-126250519D01*
X173279417Y-126170973D01*
X173278479Y-126074711D01*
X173277774Y-125964419D01*
X173277333Y-125842781D01*
X173277189Y-125718885D01*
X173277270Y-125560196D01*
X173277665Y-125426408D01*
X173278605Y-125314960D01*
X173280320Y-125223295D01*
X173283043Y-125148853D01*
X173287003Y-125089075D01*
X173292431Y-125041402D01*
X173299559Y-125003274D01*
X173308616Y-124972134D01*
X173319833Y-124945421D01*
X173333442Y-124920577D01*
X173349672Y-124895043D01*
X173351760Y-124891881D01*
X173372694Y-124858810D01*
X173385333Y-124836069D01*
X173387027Y-124831272D01*
X173373784Y-124829759D01*
X173335998Y-124828528D01*
X173276584Y-124827599D01*
X173198458Y-124826992D01*
X173104535Y-124826727D01*
X172997730Y-124826825D01*
X172997730Y-124826825D01*
G37*
X172997730Y-124826825D02*
X172880959Y-124827304D01*
X172841271Y-124827545D01*
X172295514Y-124831135D01*
X172288649Y-126924919D01*
X172287742Y-127208842D01*
X172286938Y-127466640D01*
X172286185Y-127699646D01*
X172285431Y-127909194D01*
X172284625Y-128096618D01*
X172283715Y-128263250D01*
X172282649Y-128410425D01*
X172281376Y-128539477D01*
X172279844Y-128651739D01*
X172278002Y-128748544D01*
X172275797Y-128831226D01*
X172273178Y-128901119D01*
X172270094Y-128959557D01*
X172266492Y-129007872D01*
X172262322Y-129047400D01*
X172257531Y-129079473D01*
X172252069Y-129105424D01*
X172245882Y-129126589D01*
X172238920Y-129144299D01*
X172231131Y-129159889D01*
X172222463Y-129174693D01*
X172212865Y-129190044D01*
X172202285Y-129207276D01*
X172200116Y-129210946D01*
X172163732Y-129273031D01*
X172689569Y-129269434D01*
X173215406Y-129265838D01*
X173222271Y-129150331D01*
X173226008Y-129094899D01*
X173229903Y-129062851D01*
X173235189Y-129050135D01*
X173243097Y-129052696D01*
X173249730Y-129060024D01*
X173278626Y-129086714D01*
X173325721Y-129121021D01*
X173384380Y-129158846D01*
X173447969Y-129196090D01*
X173509851Y-129228653D01*
X173557366Y-129250077D01*
X173668684Y-129285283D01*
X173796404Y-129310222D01*
X173931099Y-129323941D01*
X174063337Y-129325486D01*
X174183692Y-129313906D01*
X174185674Y-129313574D01*
X174350359Y-129272250D01*
X174504521Y-129206412D01*
X174646672Y-129117474D01*
X174775325Y-129006852D01*
X174888993Y-128875961D01*
X174986190Y-128726216D01*
X175065428Y-128559033D01*
X175108570Y-128435190D01*
X175137021Y-128331581D01*
X175158120Y-128231252D01*
X175172512Y-128128109D01*
X175180842Y-128016057D01*
X175183755Y-127889001D01*
X175182465Y-127785252D01*
X174169350Y-127785252D01*
X174164556Y-127959222D01*
X174149432Y-128108895D01*
X174123515Y-128235597D01*
X174086337Y-128340658D01*
X174037435Y-128425406D01*
X173976342Y-128491169D01*
X173905823Y-128537659D01*
X173869129Y-128555014D01*
X173837304Y-128565419D01*
X173801823Y-128570179D01*
X173754159Y-128570601D01*
X173702811Y-128568748D01*
X173601831Y-128559841D01*
X173521965Y-128542398D01*
X173496865Y-128533661D01*
X173439552Y-128507857D01*
X173379103Y-128475453D01*
X173352703Y-128459233D01*
X173284054Y-128414205D01*
X173284054Y-126986982D01*
X173359568Y-126941718D01*
X173464879Y-126890572D01*
X173572475Y-126860324D01*
X173678419Y-126850795D01*
X173778776Y-126861807D01*
X173869613Y-126893181D01*
X173946993Y-126944740D01*
X173971961Y-126969488D01*
X174032144Y-127050577D01*
X174080855Y-127148734D01*
X174118501Y-127265643D01*
X174145488Y-127402985D01*
X174162225Y-127562444D01*
X174169117Y-127745700D01*
X174169350Y-127785252D01*
X175182465Y-127785252D01*
X175181927Y-127742067D01*
X175170353Y-127516053D01*
X175147080Y-127312192D01*
X175111496Y-127127513D01*
X175062987Y-126959048D01*
X175000940Y-126803826D01*
X174978799Y-126757808D01*
X174889615Y-126607739D01*
X174781841Y-126474377D01*
X174658010Y-126359877D01*
X174520658Y-126266389D01*
X174372317Y-126196068D01*
X174283396Y-126167060D01*
X174196067Y-126149840D01*
X174090989Y-126139594D01*
X173976971Y-126136318D01*
X173862823Y-126140009D01*
X173757352Y-126150660D01*
X173672666Y-126167370D01*
X173571872Y-126200140D01*
X173474178Y-126242279D01*
X173388704Y-126289519D01*
X173343211Y-126321581D01*
X173311831Y-126345422D01*
X173289858Y-126359939D01*
X173284859Y-126362000D01*
X173283310Y-126348718D01*
X173281865Y-126310663D01*
X173280557Y-126250519D01*
X173279417Y-126170973D01*
X173278479Y-126074711D01*
X173277774Y-125964419D01*
X173277333Y-125842781D01*
X173277189Y-125718885D01*
X173277270Y-125560196D01*
X173277665Y-125426408D01*
X173278605Y-125314960D01*
X173280320Y-125223295D01*
X173283043Y-125148853D01*
X173287003Y-125089075D01*
X173292431Y-125041402D01*
X173299559Y-125003274D01*
X173308616Y-124972134D01*
X173319833Y-124945421D01*
X173333442Y-124920577D01*
X173349672Y-124895043D01*
X173351760Y-124891881D01*
X173372694Y-124858810D01*
X173385333Y-124836069D01*
X173387027Y-124831272D01*
X173373784Y-124829759D01*
X173335998Y-124828528D01*
X173276584Y-124827599D01*
X173198458Y-124826992D01*
X173104535Y-124826727D01*
X172997730Y-124826825D01*
G36*
X176672495Y-126134229D02*
G01*
X176604469Y-126139378D01*
X176409837Y-126165273D01*
X176237471Y-126206575D01*
X176086530Y-126263853D01*
X175956175Y-126337674D01*
X175845566Y-126428608D01*
X175753865Y-126537222D01*
X175680230Y-126664085D01*
X175626461Y-126801352D01*
X175612813Y-126845137D01*
X175600927Y-126886141D01*
X175590666Y-126926569D01*
X175581887Y-126968630D01*
X175574452Y-127014531D01*
X175568220Y-127066480D01*
X175563050Y-127126685D01*
X175558804Y-127197352D01*
X175555340Y-127280689D01*
X175552519Y-127378905D01*
X175550200Y-127494205D01*
X175548243Y-127628799D01*
X175546509Y-127784893D01*
X175544857Y-127964695D01*
X175543676Y-128105676D01*
X175535730Y-129073622D01*
X175484244Y-129166770D01*
X175459863Y-129211645D01*
X175441720Y-129246501D01*
X175433065Y-129265054D01*
X175432757Y-129266311D01*
X175445986Y-129267749D01*
X175483674Y-129269074D01*
X175542817Y-129270249D01*
X175620414Y-129271237D01*
X175713464Y-129271999D01*
X175818965Y-129272500D01*
X175933916Y-129272701D01*
X175947622Y-129272703D01*
X176462487Y-129272703D01*
X176462487Y-129156000D01*
X176463365Y-129103260D01*
X176465708Y-129062926D01*
X176469079Y-129041300D01*
X176470569Y-129039298D01*
X176484196Y-129047683D01*
X176512243Y-129069692D01*
X176548697Y-129100601D01*
X176549515Y-129101316D01*
X176616038Y-129150843D01*
X176700052Y-129200575D01*
X176792063Y-129245626D01*
X176882579Y-129281110D01*
X176922433Y-129293236D01*
X177001745Y-129308637D01*
X177099065Y-129318465D01*
X177205484Y-129322580D01*
X177312093Y-129320841D01*
X177409983Y-129313108D01*
X177478487Y-129301981D01*
X177646480Y-129252648D01*
X177797719Y-129182342D01*
X177931218Y-129091933D01*
X178045994Y-128982295D01*
X178141063Y-128854299D01*
X178215440Y-128708818D01*
X178247526Y-128620541D01*
X178267635Y-128534739D01*
X178280962Y-128431736D01*
X178287128Y-128321034D01*
X178286926Y-128304925D01*
X177358352Y-128304925D01*
X177350652Y-128387184D01*
X177325011Y-128455546D01*
X177277622Y-128518970D01*
X177259421Y-128537567D01*
X177194718Y-128587846D01*
X177119934Y-128620056D01*
X177030338Y-128635648D01*
X176935988Y-128636796D01*
X176846499Y-128629216D01*
X176777982Y-128614389D01*
X176748225Y-128603253D01*
X176694592Y-128572904D01*
X176637765Y-128530221D01*
X176585918Y-128482317D01*
X176547222Y-128436301D01*
X176536946Y-128419421D01*
X176528958Y-128395782D01*
X176523279Y-128358168D01*
X176519644Y-128302985D01*
X176517789Y-128226640D01*
X176517406Y-128153981D01*
X176517665Y-128069270D01*
X176518713Y-128008018D01*
X176520955Y-127966227D01*
X176524794Y-127939899D01*
X176530635Y-127925035D01*
X176538882Y-127917639D01*
X176541433Y-127916461D01*
X176563600Y-127912833D01*
X176607320Y-127909866D01*
X176666689Y-127907827D01*
X176735804Y-127906983D01*
X176750811Y-127906982D01*
X176843195Y-127908457D01*
X176914568Y-127912842D01*
X176971281Y-127920738D01*
X177018128Y-127932270D01*
X177134331Y-127976215D01*
X177225457Y-128030243D01*
X177292295Y-128095219D01*
X177335635Y-128172005D01*
X177356266Y-128261467D01*
X177358352Y-128304925D01*
X178286926Y-128304925D01*
X178285756Y-128212133D01*
X178276468Y-128114536D01*
X178269223Y-128075105D01*
X178222961Y-127928701D01*
X178152616Y-127793995D01*
X178059516Y-127672280D01*
X177944988Y-127564847D01*
X177810360Y-127472988D01*
X177656960Y-127397996D01*
X177526541Y-127352458D01*
X177439377Y-127328533D01*
X177356004Y-127309943D01*
X177271024Y-127296084D01*
X177179035Y-127286351D01*
X177074638Y-127280141D01*
X176952432Y-127276851D01*
X176841945Y-127275924D01*
X176514323Y-127275027D01*
X176520599Y-127176547D01*
X176538421Y-127069695D01*
X176576333Y-126977852D01*
X176632720Y-126903310D01*
X176705969Y-126848364D01*
X176770465Y-126821552D01*
X176862877Y-126804654D01*
X176972889Y-126802227D01*
X177095344Y-126813378D01*
X177225086Y-126837210D01*
X177356958Y-126872830D01*
X177485802Y-126919343D01*
X177579434Y-126961883D01*
X177624483Y-126983728D01*
X177658844Y-126998984D01*
X177676319Y-127004937D01*
X177677267Y-127004746D01*
X177683297Y-126991412D01*
X177698355Y-126956068D01*
X177721023Y-126902101D01*
X177749885Y-126832896D01*
X177783523Y-126751840D01*
X177817716Y-126669118D01*
X177954414Y-126337803D01*
X177857180Y-126321833D01*
X177815036Y-126313820D01*
X177751681Y-126300361D01*
X177672543Y-126282679D01*
X177583049Y-126261996D01*
X177488627Y-126239532D01*
X177451027Y-126230403D01*
X177288363Y-126192674D01*
X177145950Y-126164388D01*
X177018473Y-126144972D01*
X176900616Y-126133854D01*
X176787062Y-126130464D01*
X176672495Y-126134229D01*
X176672495Y-126134229D01*
G37*
X176672495Y-126134229D02*
X176604469Y-126139378D01*
X176409837Y-126165273D01*
X176237471Y-126206575D01*
X176086530Y-126263853D01*
X175956175Y-126337674D01*
X175845566Y-126428608D01*
X175753865Y-126537222D01*
X175680230Y-126664085D01*
X175626461Y-126801352D01*
X175612813Y-126845137D01*
X175600927Y-126886141D01*
X175590666Y-126926569D01*
X175581887Y-126968630D01*
X175574452Y-127014531D01*
X175568220Y-127066480D01*
X175563050Y-127126685D01*
X175558804Y-127197352D01*
X175555340Y-127280689D01*
X175552519Y-127378905D01*
X175550200Y-127494205D01*
X175548243Y-127628799D01*
X175546509Y-127784893D01*
X175544857Y-127964695D01*
X175543676Y-128105676D01*
X175535730Y-129073622D01*
X175484244Y-129166770D01*
X175459863Y-129211645D01*
X175441720Y-129246501D01*
X175433065Y-129265054D01*
X175432757Y-129266311D01*
X175445986Y-129267749D01*
X175483674Y-129269074D01*
X175542817Y-129270249D01*
X175620414Y-129271237D01*
X175713464Y-129271999D01*
X175818965Y-129272500D01*
X175933916Y-129272701D01*
X175947622Y-129272703D01*
X176462487Y-129272703D01*
X176462487Y-129156000D01*
X176463365Y-129103260D01*
X176465708Y-129062926D01*
X176469079Y-129041300D01*
X176470569Y-129039298D01*
X176484196Y-129047683D01*
X176512243Y-129069692D01*
X176548697Y-129100601D01*
X176549515Y-129101316D01*
X176616038Y-129150843D01*
X176700052Y-129200575D01*
X176792063Y-129245626D01*
X176882579Y-129281110D01*
X176922433Y-129293236D01*
X177001745Y-129308637D01*
X177099065Y-129318465D01*
X177205484Y-129322580D01*
X177312093Y-129320841D01*
X177409983Y-129313108D01*
X177478487Y-129301981D01*
X177646480Y-129252648D01*
X177797719Y-129182342D01*
X177931218Y-129091933D01*
X178045994Y-128982295D01*
X178141063Y-128854299D01*
X178215440Y-128708818D01*
X178247526Y-128620541D01*
X178267635Y-128534739D01*
X178280962Y-128431736D01*
X178287128Y-128321034D01*
X178286926Y-128304925D01*
X177358352Y-128304925D01*
X177350652Y-128387184D01*
X177325011Y-128455546D01*
X177277622Y-128518970D01*
X177259421Y-128537567D01*
X177194718Y-128587846D01*
X177119934Y-128620056D01*
X177030338Y-128635648D01*
X176935988Y-128636796D01*
X176846499Y-128629216D01*
X176777982Y-128614389D01*
X176748225Y-128603253D01*
X176694592Y-128572904D01*
X176637765Y-128530221D01*
X176585918Y-128482317D01*
X176547222Y-128436301D01*
X176536946Y-128419421D01*
X176528958Y-128395782D01*
X176523279Y-128358168D01*
X176519644Y-128302985D01*
X176517789Y-128226640D01*
X176517406Y-128153981D01*
X176517665Y-128069270D01*
X176518713Y-128008018D01*
X176520955Y-127966227D01*
X176524794Y-127939899D01*
X176530635Y-127925035D01*
X176538882Y-127917639D01*
X176541433Y-127916461D01*
X176563600Y-127912833D01*
X176607320Y-127909866D01*
X176666689Y-127907827D01*
X176735804Y-127906983D01*
X176750811Y-127906982D01*
X176843195Y-127908457D01*
X176914568Y-127912842D01*
X176971281Y-127920738D01*
X177018128Y-127932270D01*
X177134331Y-127976215D01*
X177225457Y-128030243D01*
X177292295Y-128095219D01*
X177335635Y-128172005D01*
X177356266Y-128261467D01*
X177358352Y-128304925D01*
X178286926Y-128304925D01*
X178285756Y-128212133D01*
X178276468Y-128114536D01*
X178269223Y-128075105D01*
X178222961Y-127928701D01*
X178152616Y-127793995D01*
X178059516Y-127672280D01*
X177944988Y-127564847D01*
X177810360Y-127472988D01*
X177656960Y-127397996D01*
X177526541Y-127352458D01*
X177439377Y-127328533D01*
X177356004Y-127309943D01*
X177271024Y-127296084D01*
X177179035Y-127286351D01*
X177074638Y-127280141D01*
X176952432Y-127276851D01*
X176841945Y-127275924D01*
X176514323Y-127275027D01*
X176520599Y-127176547D01*
X176538421Y-127069695D01*
X176576333Y-126977852D01*
X176632720Y-126903310D01*
X176705969Y-126848364D01*
X176770465Y-126821552D01*
X176862877Y-126804654D01*
X176972889Y-126802227D01*
X177095344Y-126813378D01*
X177225086Y-126837210D01*
X177356958Y-126872830D01*
X177485802Y-126919343D01*
X177579434Y-126961883D01*
X177624483Y-126983728D01*
X177658844Y-126998984D01*
X177676319Y-127004937D01*
X177677267Y-127004746D01*
X177683297Y-126991412D01*
X177698355Y-126956068D01*
X177721023Y-126902101D01*
X177749885Y-126832896D01*
X177783523Y-126751840D01*
X177817716Y-126669118D01*
X177954414Y-126337803D01*
X177857180Y-126321833D01*
X177815036Y-126313820D01*
X177751681Y-126300361D01*
X177672543Y-126282679D01*
X177583049Y-126261996D01*
X177488627Y-126239532D01*
X177451027Y-126230403D01*
X177288363Y-126192674D01*
X177145950Y-126164388D01*
X177018473Y-126144972D01*
X176900616Y-126133854D01*
X176787062Y-126130464D01*
X176672495Y-126134229D01*
G36*
X179400038Y-125030499D02*
G01*
X179251986Y-125046707D01*
X179108548Y-125075718D01*
X178963890Y-125119045D01*
X178812176Y-125178201D01*
X178647572Y-125254700D01*
X178617929Y-125269517D01*
X178549902Y-125303031D01*
X178485744Y-125333208D01*
X178431785Y-125357166D01*
X178394360Y-125372024D01*
X178388611Y-125373895D01*
X178333514Y-125390402D01*
X178580149Y-125749201D01*
X178640448Y-125836893D01*
X178695578Y-125917012D01*
X178743664Y-125986836D01*
X178782832Y-126043647D01*
X178811206Y-126084723D01*
X178826913Y-126107346D01*
X178829464Y-126110928D01*
X178839829Y-126103438D01*
X178865340Y-126080918D01*
X178901437Y-126047461D01*
X178921358Y-126028550D01*
X179034227Y-125938778D01*
X179160986Y-125870561D01*
X179270217Y-125833195D01*
X179335786Y-125821460D01*
X179417884Y-125814308D01*
X179506856Y-125811874D01*
X179593044Y-125814288D01*
X179666795Y-125821683D01*
X179696224Y-125827347D01*
X179828867Y-125872982D01*
X179948394Y-125942663D01*
X180054717Y-126036260D01*
X180147747Y-126153649D01*
X180227395Y-126294700D01*
X180293574Y-126459286D01*
X180346194Y-126647280D01*
X180377467Y-126808217D01*
X180385626Y-126879263D01*
X180391185Y-126971046D01*
X180394198Y-127076968D01*
X180394719Y-127190434D01*
X180392800Y-127304849D01*
X180388497Y-127413617D01*
X180381863Y-127510143D01*
X180372951Y-127587831D01*
X180371021Y-127599817D01*
X180328501Y-127792892D01*
X180270567Y-127963773D01*
X180196867Y-128113224D01*
X180107049Y-128242011D01*
X180043293Y-128311639D01*
X179928714Y-128406173D01*
X179803058Y-128476246D01*
X179668443Y-128521477D01*
X179526989Y-128541484D01*
X179380817Y-128535885D01*
X179232045Y-128504300D01*
X179144089Y-128473394D01*
X179022371Y-128411506D01*
X178896920Y-128322729D01*
X178826647Y-128262694D01*
X178787189Y-128227947D01*
X178756188Y-128202454D01*
X178738542Y-128190170D01*
X178736352Y-128189795D01*
X178728476Y-128202347D01*
X178708068Y-128235516D01*
X178676868Y-128286458D01*
X178636614Y-128352331D01*
X178589043Y-128430289D01*
X178535896Y-128517490D01*
X178506313Y-128566067D01*
X178280352Y-128937215D01*
X178562473Y-129076639D01*
X178664478Y-129126719D01*
X178747111Y-129166210D01*
X178815422Y-129197073D01*
X178874463Y-129221268D01*
X178929286Y-129240758D01*
X178984940Y-129257503D01*
X179046477Y-129273465D01*
X179105460Y-129287482D01*
X179157885Y-129298329D01*
X179212712Y-129306526D01*
X179275428Y-129312528D01*
X179351523Y-129316790D01*
X179446484Y-129319767D01*
X179510487Y-129321052D01*
X179601808Y-129321930D01*
X179689373Y-129321487D01*
X179767388Y-129319852D01*
X179830058Y-129317149D01*
X179871587Y-129313505D01*
X179874048Y-129313142D01*
X180089697Y-129266487D01*
X180292207Y-129195729D01*
X180481505Y-129100914D01*
X180657521Y-128982089D01*
X180820184Y-128839300D01*
X180969422Y-128672594D01*
X181077504Y-128524433D01*
X181192566Y-128330502D01*
X181285577Y-128125699D01*
X181356987Y-127908383D01*
X181407244Y-127676912D01*
X181436799Y-127429643D01*
X181446111Y-127178559D01*
X181438452Y-126935670D01*
X181414387Y-126711570D01*
X181373148Y-126502477D01*
X181313973Y-126304613D01*
X181236096Y-126114196D01*
X181226797Y-126094468D01*
X181124352Y-125910059D01*
X180998528Y-125734576D01*
X180852888Y-125571650D01*
X180690999Y-125424914D01*
X180516424Y-125298001D01*
X180353756Y-125204905D01*
X180189427Y-125131991D01*
X180024749Y-125079174D01*
X179853348Y-125045015D01*
X179668847Y-125028078D01*
X179558541Y-125025580D01*
X179400038Y-125030499D01*
X179400038Y-125030499D01*
G37*
X179400038Y-125030499D02*
X179251986Y-125046707D01*
X179108548Y-125075718D01*
X178963890Y-125119045D01*
X178812176Y-125178201D01*
X178647572Y-125254700D01*
X178617929Y-125269517D01*
X178549902Y-125303031D01*
X178485744Y-125333208D01*
X178431785Y-125357166D01*
X178394360Y-125372024D01*
X178388611Y-125373895D01*
X178333514Y-125390402D01*
X178580149Y-125749201D01*
X178640448Y-125836893D01*
X178695578Y-125917012D01*
X178743664Y-125986836D01*
X178782832Y-126043647D01*
X178811206Y-126084723D01*
X178826913Y-126107346D01*
X178829464Y-126110928D01*
X178839829Y-126103438D01*
X178865340Y-126080918D01*
X178901437Y-126047461D01*
X178921358Y-126028550D01*
X179034227Y-125938778D01*
X179160986Y-125870561D01*
X179270217Y-125833195D01*
X179335786Y-125821460D01*
X179417884Y-125814308D01*
X179506856Y-125811874D01*
X179593044Y-125814288D01*
X179666795Y-125821683D01*
X179696224Y-125827347D01*
X179828867Y-125872982D01*
X179948394Y-125942663D01*
X180054717Y-126036260D01*
X180147747Y-126153649D01*
X180227395Y-126294700D01*
X180293574Y-126459286D01*
X180346194Y-126647280D01*
X180377467Y-126808217D01*
X180385626Y-126879263D01*
X180391185Y-126971046D01*
X180394198Y-127076968D01*
X180394719Y-127190434D01*
X180392800Y-127304849D01*
X180388497Y-127413617D01*
X180381863Y-127510143D01*
X180372951Y-127587831D01*
X180371021Y-127599817D01*
X180328501Y-127792892D01*
X180270567Y-127963773D01*
X180196867Y-128113224D01*
X180107049Y-128242011D01*
X180043293Y-128311639D01*
X179928714Y-128406173D01*
X179803058Y-128476246D01*
X179668443Y-128521477D01*
X179526989Y-128541484D01*
X179380817Y-128535885D01*
X179232045Y-128504300D01*
X179144089Y-128473394D01*
X179022371Y-128411506D01*
X178896920Y-128322729D01*
X178826647Y-128262694D01*
X178787189Y-128227947D01*
X178756188Y-128202454D01*
X178738542Y-128190170D01*
X178736352Y-128189795D01*
X178728476Y-128202347D01*
X178708068Y-128235516D01*
X178676868Y-128286458D01*
X178636614Y-128352331D01*
X178589043Y-128430289D01*
X178535896Y-128517490D01*
X178506313Y-128566067D01*
X178280352Y-128937215D01*
X178562473Y-129076639D01*
X178664478Y-129126719D01*
X178747111Y-129166210D01*
X178815422Y-129197073D01*
X178874463Y-129221268D01*
X178929286Y-129240758D01*
X178984940Y-129257503D01*
X179046477Y-129273465D01*
X179105460Y-129287482D01*
X179157885Y-129298329D01*
X179212712Y-129306526D01*
X179275428Y-129312528D01*
X179351523Y-129316790D01*
X179446484Y-129319767D01*
X179510487Y-129321052D01*
X179601808Y-129321930D01*
X179689373Y-129321487D01*
X179767388Y-129319852D01*
X179830058Y-129317149D01*
X179871587Y-129313505D01*
X179874048Y-129313142D01*
X180089697Y-129266487D01*
X180292207Y-129195729D01*
X180481505Y-129100914D01*
X180657521Y-128982089D01*
X180820184Y-128839300D01*
X180969422Y-128672594D01*
X181077504Y-128524433D01*
X181192566Y-128330502D01*
X181285577Y-128125699D01*
X181356987Y-127908383D01*
X181407244Y-127676912D01*
X181436799Y-127429643D01*
X181446111Y-127178559D01*
X181438452Y-126935670D01*
X181414387Y-126711570D01*
X181373148Y-126502477D01*
X181313973Y-126304613D01*
X181236096Y-126114196D01*
X181226797Y-126094468D01*
X181124352Y-125910059D01*
X180998528Y-125734576D01*
X180852888Y-125571650D01*
X180690999Y-125424914D01*
X180516424Y-125298001D01*
X180353756Y-125204905D01*
X180189427Y-125131991D01*
X180024749Y-125079174D01*
X179853348Y-125045015D01*
X179668847Y-125028078D01*
X179558541Y-125025580D01*
X179400038Y-125030499D01*
G36*
X185795743Y-124343689D02*
G01*
X185531220Y-124343725D01*
X185408088Y-124343730D01*
X183437189Y-124343730D01*
X183437189Y-124459910D01*
X183424789Y-124601291D01*
X183387364Y-124731684D01*
X183324577Y-124851862D01*
X183236094Y-124962602D01*
X183206157Y-124992511D01*
X183098466Y-125077348D01*
X182979725Y-125139221D01*
X182853460Y-125178159D01*
X182723197Y-125194190D01*
X182592465Y-125187342D01*
X182464788Y-125157643D01*
X182343695Y-125105120D01*
X182232712Y-125029803D01*
X182182868Y-124984363D01*
X182089983Y-124872952D01*
X182021873Y-124750435D01*
X181979129Y-124618215D01*
X181962347Y-124477692D01*
X181962124Y-124463867D01*
X181961244Y-124343734D01*
X181908443Y-124343732D01*
X181861604Y-124350089D01*
X181818817Y-124365556D01*
X181815989Y-124367154D01*
X181806325Y-124372168D01*
X181797451Y-124376073D01*
X181789335Y-124380007D01*
X181781943Y-124385106D01*
X181775245Y-124392508D01*
X181769208Y-124403351D01*
X181763801Y-124418772D01*
X181758990Y-124439909D01*
X181754745Y-124467899D01*
X181751032Y-124503879D01*
X181747821Y-124548987D01*
X181745078Y-124604360D01*
X181742772Y-124671137D01*
X181740871Y-124750453D01*
X181739342Y-124843447D01*
X181738154Y-124951257D01*
X181737274Y-125075019D01*
X181736670Y-125215871D01*
X181736311Y-125374950D01*
X181736165Y-125553395D01*
X181736198Y-125752342D01*
X181736380Y-125972929D01*
X181736677Y-126216293D01*
X181737059Y-126483572D01*
X181737492Y-126775903D01*
X181737945Y-127094424D01*
X181737998Y-127133230D01*
X181738404Y-127453782D01*
X181738749Y-127748012D01*
X181739069Y-128017056D01*
X181739400Y-128262052D01*
X181739779Y-128484137D01*
X181740243Y-128684447D01*
X181740828Y-128864119D01*
X181741570Y-129024290D01*
X181742506Y-129166098D01*
X181743673Y-129290679D01*
X181745107Y-129399170D01*
X181746844Y-129492707D01*
X181748922Y-129572429D01*
X181751376Y-129639472D01*
X181754244Y-129694973D01*
X181757561Y-129740068D01*
X181761364Y-129775895D01*
X181765690Y-129803591D01*
X181770575Y-129824293D01*
X181776055Y-129839137D01*
X181782168Y-129849260D01*
X181788950Y-129855800D01*
X181796437Y-129859893D01*
X181804666Y-129862676D01*
X181813673Y-129865287D01*
X181823495Y-129868862D01*
X181825894Y-129869950D01*
X181833435Y-129872396D01*
X181846056Y-129874642D01*
X181864859Y-129876698D01*
X181890947Y-129878572D01*
X181925422Y-129880271D01*
X181969385Y-129881803D01*
X182023939Y-129883177D01*
X182090185Y-129884400D01*
X182169226Y-129885481D01*
X182262163Y-129886427D01*
X182370099Y-129887247D01*
X182494136Y-129887947D01*
X182635376Y-129888538D01*
X182794921Y-129889025D01*
X182973872Y-129889419D01*
X183173332Y-129889725D01*
X183394404Y-129889953D01*
X183638188Y-129890110D01*
X183905787Y-129890205D01*
X184198303Y-129890245D01*
X184516839Y-129890238D01*
X184620021Y-129890228D01*
X184945623Y-129890176D01*
X185244881Y-129890091D01*
X185518909Y-129889963D01*
X185768824Y-129889785D01*
X185995740Y-129889548D01*
X186200773Y-129889242D01*
X186385038Y-129888860D01*
X186549650Y-129888392D01*
X186695725Y-129887830D01*
X186824376Y-129887165D01*
X186936721Y-129886388D01*
X187033874Y-129885491D01*
X187116950Y-129884465D01*
X187187064Y-129883301D01*
X187245332Y-129881991D01*
X187292869Y-129880525D01*
X187330790Y-129878896D01*
X187360210Y-129877093D01*
X187382245Y-129875110D01*
X187398010Y-129872936D01*
X187408620Y-129870563D01*
X187414404Y-129868391D01*
X187424684Y-129864056D01*
X187434122Y-129860859D01*
X187442755Y-129857665D01*
X187450619Y-129853338D01*
X187457748Y-129846744D01*
X187464179Y-129836747D01*
X187469947Y-129822212D01*
X187475089Y-129802003D01*
X187479640Y-129774985D01*
X187483635Y-129740023D01*
X187487111Y-129695981D01*
X187490102Y-129641724D01*
X187492646Y-129576117D01*
X187494777Y-129498024D01*
X187496532Y-129406310D01*
X187497945Y-129299840D01*
X187498315Y-129258973D01*
X187131884Y-129258973D01*
X185836734Y-129258973D01*
X185861655Y-129221217D01*
X185886447Y-129182417D01*
X185907440Y-129145469D01*
X185924935Y-129107788D01*
X185939230Y-129066788D01*
X185950623Y-129019883D01*
X185959413Y-128964487D01*
X185965898Y-128898016D01*
X185970377Y-128817883D01*
X185973150Y-128721502D01*
X185974513Y-128606289D01*
X185974767Y-128469657D01*
X185974209Y-128309020D01*
X185973893Y-128249382D01*
X185970325Y-127610041D01*
X185565298Y-128161449D01*
X185450554Y-128317876D01*
X185351143Y-128454088D01*
X185265990Y-128571890D01*
X185194022Y-128673084D01*
X185134166Y-128759477D01*
X185085348Y-128832874D01*
X185046495Y-128895077D01*
X185016534Y-128947893D01*
X184994391Y-128993125D01*
X184978993Y-129032578D01*
X184969266Y-129068058D01*
X184964137Y-129101368D01*
X184962532Y-129134313D01*
X184963379Y-129168697D01*
X184963595Y-129173019D01*
X184968054Y-129259031D01*
X183548692Y-129258973D01*
X183654265Y-129152522D01*
X183682913Y-129123406D01*
X183710090Y-129095076D01*
X183736989Y-129065968D01*
X183764803Y-129034520D01*
X183794725Y-128999169D01*
X183827946Y-128958354D01*
X183865661Y-128910511D01*
X183909060Y-128854079D01*
X183959338Y-128787494D01*
X184017688Y-128709195D01*
X184085300Y-128617619D01*
X184163369Y-128511204D01*
X184253088Y-128388387D01*
X184355648Y-128247605D01*
X184472242Y-128087297D01*
X184567809Y-127955798D01*
X184687749Y-127790596D01*
X184792380Y-127646152D01*
X184882648Y-127521094D01*
X184959503Y-127414052D01*
X185023891Y-127323654D01*
X185076761Y-127248529D01*
X185119060Y-127187304D01*
X185151736Y-127138610D01*
X185175738Y-127101074D01*
X185192013Y-127073325D01*
X185201508Y-127053992D01*
X185205173Y-127041703D01*
X185204071Y-127035242D01*
X185190724Y-127018048D01*
X185161866Y-126981655D01*
X185119240Y-126928224D01*
X185064585Y-126859919D01*
X184999644Y-126778903D01*
X184926158Y-126687340D01*
X184845868Y-126587392D01*
X184760515Y-126481224D01*
X184671840Y-126370997D01*
X184581586Y-126258876D01*
X184531944Y-126197244D01*
X183299373Y-126197244D01*
X183248146Y-126289919D01*
X183196919Y-126382595D01*
X183196919Y-129073622D01*
X183248146Y-129166298D01*
X183299373Y-129258973D01*
X182693396Y-129258973D01*
X182548734Y-129258931D01*
X182429244Y-129258741D01*
X182332642Y-129258308D01*
X182256642Y-129257536D01*
X182198957Y-129256330D01*
X182157301Y-129254594D01*
X182129389Y-129252232D01*
X182112935Y-129249150D01*
X182105652Y-129245251D01*
X182105255Y-129240440D01*
X182109458Y-129234622D01*
X182109501Y-129234574D01*
X182126813Y-129209532D01*
X182149736Y-129168815D01*
X182169981Y-129128168D01*
X182208379Y-129046162D01*
X182216211Y-126197244D01*
X183299373Y-126197244D01*
X184531944Y-126197244D01*
X184491493Y-126147024D01*
X184403302Y-126037604D01*
X184318754Y-125932778D01*
X184239592Y-125834711D01*
X184167556Y-125745566D01*
X184104387Y-125667505D01*
X184051827Y-125602692D01*
X184011617Y-125553290D01*
X183988000Y-125524487D01*
X183896290Y-125416778D01*
X183808060Y-125319580D01*
X183726403Y-125236076D01*
X183654410Y-125169448D01*
X183603319Y-125128599D01*
X183542907Y-125085135D01*
X184932298Y-125085135D01*
X184931908Y-125166666D01*
X184935791Y-125226606D01*
X184950390Y-125282177D01*
X184972988Y-125334855D01*
X184987678Y-125364615D01*
X185003472Y-125394103D01*
X185021814Y-125425276D01*
X185044145Y-125460093D01*
X185071909Y-125500510D01*
X185106549Y-125548486D01*
X185149507Y-125605978D01*
X185202227Y-125674943D01*
X185266151Y-125757339D01*
X185342721Y-125855124D01*
X185433381Y-125970255D01*
X185539574Y-126104690D01*
X185551568Y-126119859D01*
X185970325Y-126649412D01*
X185974378Y-126062922D01*
X185975195Y-125887251D01*
X185975021Y-125738532D01*
X185973849Y-125616275D01*
X185971669Y-125519989D01*
X185968474Y-125449183D01*
X185964256Y-125403369D01*
X185962838Y-125394679D01*
X185940591Y-125303135D01*
X185911443Y-125220608D01*
X185878182Y-125154253D01*
X185858200Y-125126110D01*
X185823722Y-125085135D01*
X186477914Y-125085135D01*
X186633969Y-125085269D01*
X186764467Y-125085703D01*
X186871310Y-125086489D01*
X186956398Y-125087676D01*
X187021635Y-125089317D01*
X187068921Y-125091461D01*
X187100157Y-125094159D01*
X187117246Y-125097462D01*
X187122088Y-125101421D01*
X187121753Y-125102298D01*
X187107885Y-125123231D01*
X187084732Y-125156412D01*
X187072754Y-125173193D01*
X187060369Y-125189940D01*
X187049237Y-125204915D01*
X187039288Y-125219594D01*
X187030451Y-125235449D01*
X187022657Y-125253955D01*
X187015835Y-125276585D01*
X187009916Y-125304813D01*
X187004829Y-125340113D01*
X187000504Y-125383958D01*
X186996871Y-125437822D01*
X186993860Y-125503180D01*
X186991401Y-125581504D01*
X186989423Y-125674268D01*
X186987858Y-125782947D01*
X186986634Y-125909013D01*
X186985681Y-126053942D01*
X186984930Y-126219206D01*
X186984311Y-126406279D01*
X186983752Y-126616635D01*
X186983185Y-126851748D01*
X186982655Y-127067741D01*
X186982155Y-127308535D01*
X186981895Y-127538274D01*
X186981868Y-127755493D01*
X186982067Y-127958722D01*
X186982486Y-128146496D01*
X186983118Y-128317345D01*
X186983956Y-128469803D01*
X186984992Y-128602403D01*
X186986220Y-128713676D01*
X186987633Y-128802156D01*
X186989225Y-128866375D01*
X186990987Y-128904865D01*
X186991321Y-128908933D01*
X187003466Y-129002248D01*
X187022427Y-129077190D01*
X187051302Y-129142594D01*
X187093190Y-129207293D01*
X187098429Y-129214352D01*
X187131884Y-129258973D01*
X187498315Y-129258973D01*
X187499054Y-129177479D01*
X187499893Y-129038090D01*
X187500498Y-128880539D01*
X187500905Y-128703691D01*
X187501150Y-128506410D01*
X187501267Y-128287560D01*
X187501295Y-128046007D01*
X187501267Y-127780615D01*
X187501220Y-127490249D01*
X187501190Y-127173773D01*
X187501189Y-127110946D01*
X187501172Y-126791137D01*
X187501112Y-126497661D01*
X187501002Y-126229390D01*
X187500833Y-125985198D01*
X187500597Y-125763957D01*
X187500284Y-125564540D01*
X187499885Y-125385820D01*
X187499393Y-125226671D01*
X187498797Y-125085966D01*
X187498090Y-124962576D01*
X187497263Y-124855376D01*
X187496307Y-124763238D01*
X187495213Y-124685035D01*
X187493973Y-124619641D01*
X187492578Y-124565928D01*
X187491018Y-124522769D01*
X187489286Y-124489037D01*
X187487372Y-124463605D01*
X187485268Y-124445347D01*
X187482966Y-124433134D01*
X187480455Y-124425841D01*
X187480363Y-124425659D01*
X187475192Y-124414518D01*
X187470885Y-124404431D01*
X187466121Y-124395346D01*
X187459578Y-124387212D01*
X187449935Y-124379976D01*
X187435871Y-124373586D01*
X187416063Y-124367989D01*
X187389191Y-124363133D01*
X187353933Y-124358966D01*
X187308968Y-124355436D01*
X187252974Y-124352491D01*
X187184629Y-124350077D01*
X187102614Y-124348144D01*
X187005605Y-124346638D01*
X186892282Y-124345508D01*
X186761323Y-124344702D01*
X186611407Y-124344166D01*
X186441213Y-124343849D01*
X186249418Y-124343699D01*
X186034702Y-124343663D01*
X185795743Y-124343689D01*
X185795743Y-124343689D01*
G37*
X185795743Y-124343689D02*
X185531220Y-124343725D01*
X185408088Y-124343730D01*
X183437189Y-124343730D01*
X183437189Y-124459910D01*
X183424789Y-124601291D01*
X183387364Y-124731684D01*
X183324577Y-124851862D01*
X183236094Y-124962602D01*
X183206157Y-124992511D01*
X183098466Y-125077348D01*
X182979725Y-125139221D01*
X182853460Y-125178159D01*
X182723197Y-125194190D01*
X182592465Y-125187342D01*
X182464788Y-125157643D01*
X182343695Y-125105120D01*
X182232712Y-125029803D01*
X182182868Y-124984363D01*
X182089983Y-124872952D01*
X182021873Y-124750435D01*
X181979129Y-124618215D01*
X181962347Y-124477692D01*
X181962124Y-124463867D01*
X181961244Y-124343734D01*
X181908443Y-124343732D01*
X181861604Y-124350089D01*
X181818817Y-124365556D01*
X181815989Y-124367154D01*
X181806325Y-124372168D01*
X181797451Y-124376073D01*
X181789335Y-124380007D01*
X181781943Y-124385106D01*
X181775245Y-124392508D01*
X181769208Y-124403351D01*
X181763801Y-124418772D01*
X181758990Y-124439909D01*
X181754745Y-124467899D01*
X181751032Y-124503879D01*
X181747821Y-124548987D01*
X181745078Y-124604360D01*
X181742772Y-124671137D01*
X181740871Y-124750453D01*
X181739342Y-124843447D01*
X181738154Y-124951257D01*
X181737274Y-125075019D01*
X181736670Y-125215871D01*
X181736311Y-125374950D01*
X181736165Y-125553395D01*
X181736198Y-125752342D01*
X181736380Y-125972929D01*
X181736677Y-126216293D01*
X181737059Y-126483572D01*
X181737492Y-126775903D01*
X181737945Y-127094424D01*
X181737998Y-127133230D01*
X181738404Y-127453782D01*
X181738749Y-127748012D01*
X181739069Y-128017056D01*
X181739400Y-128262052D01*
X181739779Y-128484137D01*
X181740243Y-128684447D01*
X181740828Y-128864119D01*
X181741570Y-129024290D01*
X181742506Y-129166098D01*
X181743673Y-129290679D01*
X181745107Y-129399170D01*
X181746844Y-129492707D01*
X181748922Y-129572429D01*
X181751376Y-129639472D01*
X181754244Y-129694973D01*
X181757561Y-129740068D01*
X181761364Y-129775895D01*
X181765690Y-129803591D01*
X181770575Y-129824293D01*
X181776055Y-129839137D01*
X181782168Y-129849260D01*
X181788950Y-129855800D01*
X181796437Y-129859893D01*
X181804666Y-129862676D01*
X181813673Y-129865287D01*
X181823495Y-129868862D01*
X181825894Y-129869950D01*
X181833435Y-129872396D01*
X181846056Y-129874642D01*
X181864859Y-129876698D01*
X181890947Y-129878572D01*
X181925422Y-129880271D01*
X181969385Y-129881803D01*
X182023939Y-129883177D01*
X182090185Y-129884400D01*
X182169226Y-129885481D01*
X182262163Y-129886427D01*
X182370099Y-129887247D01*
X182494136Y-129887947D01*
X182635376Y-129888538D01*
X182794921Y-129889025D01*
X182973872Y-129889419D01*
X183173332Y-129889725D01*
X183394404Y-129889953D01*
X183638188Y-129890110D01*
X183905787Y-129890205D01*
X184198303Y-129890245D01*
X184516839Y-129890238D01*
X184620021Y-129890228D01*
X184945623Y-129890176D01*
X185244881Y-129890091D01*
X185518909Y-129889963D01*
X185768824Y-129889785D01*
X185995740Y-129889548D01*
X186200773Y-129889242D01*
X186385038Y-129888860D01*
X186549650Y-129888392D01*
X186695725Y-129887830D01*
X186824376Y-129887165D01*
X186936721Y-129886388D01*
X187033874Y-129885491D01*
X187116950Y-129884465D01*
X187187064Y-129883301D01*
X187245332Y-129881991D01*
X187292869Y-129880525D01*
X187330790Y-129878896D01*
X187360210Y-129877093D01*
X187382245Y-129875110D01*
X187398010Y-129872936D01*
X187408620Y-129870563D01*
X187414404Y-129868391D01*
X187424684Y-129864056D01*
X187434122Y-129860859D01*
X187442755Y-129857665D01*
X187450619Y-129853338D01*
X187457748Y-129846744D01*
X187464179Y-129836747D01*
X187469947Y-129822212D01*
X187475089Y-129802003D01*
X187479640Y-129774985D01*
X187483635Y-129740023D01*
X187487111Y-129695981D01*
X187490102Y-129641724D01*
X187492646Y-129576117D01*
X187494777Y-129498024D01*
X187496532Y-129406310D01*
X187497945Y-129299840D01*
X187498315Y-129258973D01*
X187131884Y-129258973D01*
X185836734Y-129258973D01*
X185861655Y-129221217D01*
X185886447Y-129182417D01*
X185907440Y-129145469D01*
X185924935Y-129107788D01*
X185939230Y-129066788D01*
X185950623Y-129019883D01*
X185959413Y-128964487D01*
X185965898Y-128898016D01*
X185970377Y-128817883D01*
X185973150Y-128721502D01*
X185974513Y-128606289D01*
X185974767Y-128469657D01*
X185974209Y-128309020D01*
X185973893Y-128249382D01*
X185970325Y-127610041D01*
X185565298Y-128161449D01*
X185450554Y-128317876D01*
X185351143Y-128454088D01*
X185265990Y-128571890D01*
X185194022Y-128673084D01*
X185134166Y-128759477D01*
X185085348Y-128832874D01*
X185046495Y-128895077D01*
X185016534Y-128947893D01*
X184994391Y-128993125D01*
X184978993Y-129032578D01*
X184969266Y-129068058D01*
X184964137Y-129101368D01*
X184962532Y-129134313D01*
X184963379Y-129168697D01*
X184963595Y-129173019D01*
X184968054Y-129259031D01*
X183548692Y-129258973D01*
X183654265Y-129152522D01*
X183682913Y-129123406D01*
X183710090Y-129095076D01*
X183736989Y-129065968D01*
X183764803Y-129034520D01*
X183794725Y-128999169D01*
X183827946Y-128958354D01*
X183865661Y-128910511D01*
X183909060Y-128854079D01*
X183959338Y-128787494D01*
X184017688Y-128709195D01*
X184085300Y-128617619D01*
X184163369Y-128511204D01*
X184253088Y-128388387D01*
X184355648Y-128247605D01*
X184472242Y-128087297D01*
X184567809Y-127955798D01*
X184687749Y-127790596D01*
X184792380Y-127646152D01*
X184882648Y-127521094D01*
X184959503Y-127414052D01*
X185023891Y-127323654D01*
X185076761Y-127248529D01*
X185119060Y-127187304D01*
X185151736Y-127138610D01*
X185175738Y-127101074D01*
X185192013Y-127073325D01*
X185201508Y-127053992D01*
X185205173Y-127041703D01*
X185204071Y-127035242D01*
X185190724Y-127018048D01*
X185161866Y-126981655D01*
X185119240Y-126928224D01*
X185064585Y-126859919D01*
X184999644Y-126778903D01*
X184926158Y-126687340D01*
X184845868Y-126587392D01*
X184760515Y-126481224D01*
X184671840Y-126370997D01*
X184581586Y-126258876D01*
X184531944Y-126197244D01*
X183299373Y-126197244D01*
X183248146Y-126289919D01*
X183196919Y-126382595D01*
X183196919Y-129073622D01*
X183248146Y-129166298D01*
X183299373Y-129258973D01*
X182693396Y-129258973D01*
X182548734Y-129258931D01*
X182429244Y-129258741D01*
X182332642Y-129258308D01*
X182256642Y-129257536D01*
X182198957Y-129256330D01*
X182157301Y-129254594D01*
X182129389Y-129252232D01*
X182112935Y-129249150D01*
X182105652Y-129245251D01*
X182105255Y-129240440D01*
X182109458Y-129234622D01*
X182109501Y-129234574D01*
X182126813Y-129209532D01*
X182149736Y-129168815D01*
X182169981Y-129128168D01*
X182208379Y-129046162D01*
X182216211Y-126197244D01*
X183299373Y-126197244D01*
X184531944Y-126197244D01*
X184491493Y-126147024D01*
X184403302Y-126037604D01*
X184318754Y-125932778D01*
X184239592Y-125834711D01*
X184167556Y-125745566D01*
X184104387Y-125667505D01*
X184051827Y-125602692D01*
X184011617Y-125553290D01*
X183988000Y-125524487D01*
X183896290Y-125416778D01*
X183808060Y-125319580D01*
X183726403Y-125236076D01*
X183654410Y-125169448D01*
X183603319Y-125128599D01*
X183542907Y-125085135D01*
X184932298Y-125085135D01*
X184931908Y-125166666D01*
X184935791Y-125226606D01*
X184950390Y-125282177D01*
X184972988Y-125334855D01*
X184987678Y-125364615D01*
X185003472Y-125394103D01*
X185021814Y-125425276D01*
X185044145Y-125460093D01*
X185071909Y-125500510D01*
X185106549Y-125548486D01*
X185149507Y-125605978D01*
X185202227Y-125674943D01*
X185266151Y-125757339D01*
X185342721Y-125855124D01*
X185433381Y-125970255D01*
X185539574Y-126104690D01*
X185551568Y-126119859D01*
X185970325Y-126649412D01*
X185974378Y-126062922D01*
X185975195Y-125887251D01*
X185975021Y-125738532D01*
X185973849Y-125616275D01*
X185971669Y-125519989D01*
X185968474Y-125449183D01*
X185964256Y-125403369D01*
X185962838Y-125394679D01*
X185940591Y-125303135D01*
X185911443Y-125220608D01*
X185878182Y-125154253D01*
X185858200Y-125126110D01*
X185823722Y-125085135D01*
X186477914Y-125085135D01*
X186633969Y-125085269D01*
X186764467Y-125085703D01*
X186871310Y-125086489D01*
X186956398Y-125087676D01*
X187021635Y-125089317D01*
X187068921Y-125091461D01*
X187100157Y-125094159D01*
X187117246Y-125097462D01*
X187122088Y-125101421D01*
X187121753Y-125102298D01*
X187107885Y-125123231D01*
X187084732Y-125156412D01*
X187072754Y-125173193D01*
X187060369Y-125189940D01*
X187049237Y-125204915D01*
X187039288Y-125219594D01*
X187030451Y-125235449D01*
X187022657Y-125253955D01*
X187015835Y-125276585D01*
X187009916Y-125304813D01*
X187004829Y-125340113D01*
X187000504Y-125383958D01*
X186996871Y-125437822D01*
X186993860Y-125503180D01*
X186991401Y-125581504D01*
X186989423Y-125674268D01*
X186987858Y-125782947D01*
X186986634Y-125909013D01*
X186985681Y-126053942D01*
X186984930Y-126219206D01*
X186984311Y-126406279D01*
X186983752Y-126616635D01*
X186983185Y-126851748D01*
X186982655Y-127067741D01*
X186982155Y-127308535D01*
X186981895Y-127538274D01*
X186981868Y-127755493D01*
X186982067Y-127958722D01*
X186982486Y-128146496D01*
X186983118Y-128317345D01*
X186983956Y-128469803D01*
X186984992Y-128602403D01*
X186986220Y-128713676D01*
X186987633Y-128802156D01*
X186989225Y-128866375D01*
X186990987Y-128904865D01*
X186991321Y-128908933D01*
X187003466Y-129002248D01*
X187022427Y-129077190D01*
X187051302Y-129142594D01*
X187093190Y-129207293D01*
X187098429Y-129214352D01*
X187131884Y-129258973D01*
X187498315Y-129258973D01*
X187499054Y-129177479D01*
X187499893Y-129038090D01*
X187500498Y-128880539D01*
X187500905Y-128703691D01*
X187501150Y-128506410D01*
X187501267Y-128287560D01*
X187501295Y-128046007D01*
X187501267Y-127780615D01*
X187501220Y-127490249D01*
X187501190Y-127173773D01*
X187501189Y-127110946D01*
X187501172Y-126791137D01*
X187501112Y-126497661D01*
X187501002Y-126229390D01*
X187500833Y-125985198D01*
X187500597Y-125763957D01*
X187500284Y-125564540D01*
X187499885Y-125385820D01*
X187499393Y-125226671D01*
X187498797Y-125085966D01*
X187498090Y-124962576D01*
X187497263Y-124855376D01*
X187496307Y-124763238D01*
X187495213Y-124685035D01*
X187493973Y-124619641D01*
X187492578Y-124565928D01*
X187491018Y-124522769D01*
X187489286Y-124489037D01*
X187487372Y-124463605D01*
X187485268Y-124445347D01*
X187482966Y-124433134D01*
X187480455Y-124425841D01*
X187480363Y-124425659D01*
X187475192Y-124414518D01*
X187470885Y-124404431D01*
X187466121Y-124395346D01*
X187459578Y-124387212D01*
X187449935Y-124379976D01*
X187435871Y-124373586D01*
X187416063Y-124367989D01*
X187389191Y-124363133D01*
X187353933Y-124358966D01*
X187308968Y-124355436D01*
X187252974Y-124352491D01*
X187184629Y-124350077D01*
X187102614Y-124348144D01*
X187005605Y-124346638D01*
X186892282Y-124345508D01*
X186761323Y-124344702D01*
X186611407Y-124344166D01*
X186441213Y-124343849D01*
X186249418Y-124343699D01*
X186034702Y-124343663D01*
X185795743Y-124343689D01*
G36*
X143104186Y-124498931D02*
G01*
X143020365Y-124943555D01*
X142711080Y-125071053D01*
X142401794Y-125198551D01*
X142030754Y-124946246D01*
X141926843Y-124875996D01*
X141832913Y-124813272D01*
X141753348Y-124760938D01*
X141692530Y-124721857D01*
X141654843Y-124698893D01*
X141644579Y-124693942D01*
X141626090Y-124706676D01*
X141586580Y-124741882D01*
X141530478Y-124795062D01*
X141462213Y-124861718D01*
X141386214Y-124937354D01*
X141306908Y-125017472D01*
X141228725Y-125097574D01*
X141156093Y-125173164D01*
X141093441Y-125239745D01*
X141045197Y-125292818D01*
X141015790Y-125327887D01*
X141008759Y-125339623D01*
X141018877Y-125361260D01*
X141047241Y-125408662D01*
X141090871Y-125477193D01*
X141146782Y-125562215D01*
X141211994Y-125659093D01*
X141249781Y-125714350D01*
X141318657Y-125815248D01*
X141379860Y-125906299D01*
X141430422Y-125982970D01*
X141467372Y-126040728D01*
X141487742Y-126075043D01*
X141490803Y-126082254D01*
X141483864Y-126102748D01*
X141464949Y-126150513D01*
X141436913Y-126218832D01*
X141402609Y-126300989D01*
X141364891Y-126390270D01*
X141326613Y-126479958D01*
X141290630Y-126563338D01*
X141259794Y-126633694D01*
X141236961Y-126684310D01*
X141224983Y-126708471D01*
X141224276Y-126709422D01*
X141205469Y-126714036D01*
X141155382Y-126724328D01*
X141079207Y-126739287D01*
X140982135Y-126757901D01*
X140869357Y-126779159D01*
X140803558Y-126791418D01*
X140683050Y-126814362D01*
X140574203Y-126836195D01*
X140482524Y-126855722D01*
X140413519Y-126871748D01*
X140372696Y-126883079D01*
X140364489Y-126886674D01*
X140356452Y-126911006D01*
X140349967Y-126965959D01*
X140345030Y-127045108D01*
X140341636Y-127142026D01*
X140339782Y-127250287D01*
X140339462Y-127363465D01*
X140340673Y-127475135D01*
X140343410Y-127578868D01*
X140347669Y-127668241D01*
X140353445Y-127736826D01*
X140360733Y-127778197D01*
X140365105Y-127786810D01*
X140391236Y-127797133D01*
X140446607Y-127811892D01*
X140523893Y-127829352D01*
X140615770Y-127847780D01*
X140647842Y-127853741D01*
X140802476Y-127882066D01*
X140924625Y-127904876D01*
X141018327Y-127923080D01*
X141087616Y-127937583D01*
X141136529Y-127949292D01*
X141169103Y-127959115D01*
X141189372Y-127967956D01*
X141201374Y-127976724D01*
X141203053Y-127978457D01*
X141219816Y-128006371D01*
X141245386Y-128060695D01*
X141277212Y-128134777D01*
X141312740Y-128221965D01*
X141349417Y-128315608D01*
X141384689Y-128409052D01*
X141416004Y-128495647D01*
X141440807Y-128568740D01*
X141456546Y-128621678D01*
X141460668Y-128647811D01*
X141460324Y-128648726D01*
X141446359Y-128670086D01*
X141414678Y-128717084D01*
X141368609Y-128784827D01*
X141311482Y-128868423D01*
X141246627Y-128962982D01*
X141228157Y-128989854D01*
X141162301Y-129087275D01*
X141104350Y-129176163D01*
X141057462Y-129251412D01*
X141024793Y-129307920D01*
X141009500Y-129340581D01*
X141008759Y-129344593D01*
X141021608Y-129365684D01*
X141057112Y-129407464D01*
X141110707Y-129465445D01*
X141177829Y-129535135D01*
X141253913Y-129612045D01*
X141334396Y-129691683D01*
X141414713Y-129769561D01*
X141490301Y-129841186D01*
X141556595Y-129902070D01*
X141609031Y-129947721D01*
X141643045Y-129973650D01*
X141652455Y-129977883D01*
X141674357Y-129967912D01*
X141719200Y-129941020D01*
X141779679Y-129901736D01*
X141826211Y-129870117D01*
X141910525Y-129812098D01*
X142010374Y-129743784D01*
X142110527Y-129675579D01*
X142164373Y-129639075D01*
X142346629Y-129515800D01*
X142499619Y-129598520D01*
X142569318Y-129634759D01*
X142628586Y-129662926D01*
X142668689Y-129678991D01*
X142678897Y-129681226D01*
X142691171Y-129664722D01*
X142715387Y-129618082D01*
X142749737Y-129545609D01*
X142792412Y-129451606D01*
X142841606Y-129340374D01*
X142895510Y-129216215D01*
X142952316Y-129083432D01*
X143010218Y-128946327D01*
X143067407Y-128809202D01*
X143122076Y-128676358D01*
X143172416Y-128552098D01*
X143216620Y-128440725D01*
X143252881Y-128346539D01*
X143279391Y-128273844D01*
X143294342Y-128226941D01*
X143296746Y-128210833D01*
X143277689Y-128190286D01*
X143235964Y-128156933D01*
X143180294Y-128117702D01*
X143175622Y-128114599D01*
X143031736Y-127999423D01*
X142915717Y-127865053D01*
X142828570Y-127715784D01*
X142771301Y-127555913D01*
X142744914Y-127389737D01*
X142750415Y-127221552D01*
X142788810Y-127055655D01*
X142861105Y-126896342D01*
X142882374Y-126861487D01*
X142993004Y-126720737D01*
X143123698Y-126607714D01*
X143269936Y-126523003D01*
X143427192Y-126467194D01*
X143590943Y-126440874D01*
X143756667Y-126444630D01*
X143919838Y-126479050D01*
X144075935Y-126544723D01*
X144220433Y-126642235D01*
X144265131Y-126681813D01*
X144378888Y-126805703D01*
X144461782Y-126936124D01*
X144518644Y-127082315D01*
X144550313Y-127227088D01*
X144558131Y-127389860D01*
X144532062Y-127553440D01*
X144474755Y-127712298D01*
X144388856Y-127860906D01*
X144277014Y-127993735D01*
X144141877Y-128105256D01*
X144124117Y-128117011D01*
X144067850Y-128155508D01*
X144025077Y-128188863D01*
X144004628Y-128210160D01*
X144004331Y-128210833D01*
X144008721Y-128233871D01*
X144026124Y-128286157D01*
X144054732Y-128363390D01*
X144092735Y-128461268D01*
X144138326Y-128575491D01*
X144189697Y-128701758D01*
X144245038Y-128835767D01*
X144302542Y-128973218D01*
X144360399Y-129109808D01*
X144416802Y-129241237D01*
X144469942Y-129363205D01*
X144518010Y-129471409D01*
X144559199Y-129561549D01*
X144591699Y-129629323D01*
X144613703Y-129670430D01*
X144622564Y-129681226D01*
X144649640Y-129672819D01*
X144700303Y-129650272D01*
X144765817Y-129617613D01*
X144801841Y-129598520D01*
X144954832Y-129515800D01*
X145137088Y-129639075D01*
X145230125Y-129702228D01*
X145331985Y-129771727D01*
X145427438Y-129837165D01*
X145475250Y-129870117D01*
X145542495Y-129915273D01*
X145599436Y-129951057D01*
X145638646Y-129972938D01*
X145651381Y-129977563D01*
X145669917Y-129965085D01*
X145710941Y-129930252D01*
X145770475Y-129876678D01*
X145844542Y-129807983D01*
X145929165Y-129727781D01*
X145982685Y-129676286D01*
X146076319Y-129584286D01*
X146157241Y-129501999D01*
X146222177Y-129432945D01*
X146267858Y-129380644D01*
X146291011Y-129348616D01*
X146293232Y-129342116D01*
X146282924Y-129317394D01*
X146254439Y-129267405D01*
X146210937Y-129197212D01*
X146155577Y-129111875D01*
X146091520Y-129016456D01*
X146073303Y-128989854D01*
X146006927Y-128893167D01*
X145947378Y-128806117D01*
X145897984Y-128733595D01*
X145862075Y-128680493D01*
X145842981Y-128651703D01*
X145841136Y-128648726D01*
X145843895Y-128625782D01*
X145858538Y-128575336D01*
X145882513Y-128504041D01*
X145913266Y-128418547D01*
X145948244Y-128325507D01*
X145984893Y-128231574D01*
X146020661Y-128143399D01*
X146052994Y-128067634D01*
X146079338Y-128010931D01*
X146097142Y-127979943D01*
X146098407Y-127978457D01*
X146109294Y-127969601D01*
X146127682Y-127960843D01*
X146157606Y-127951277D01*
X146203103Y-127939996D01*
X146268209Y-127926093D01*
X146356961Y-127908663D01*
X146473393Y-127886798D01*
X146621542Y-127859591D01*
X146653618Y-127853741D01*
X146748686Y-127835374D01*
X146831565Y-127817405D01*
X146894930Y-127801569D01*
X146931458Y-127789600D01*
X146936356Y-127786810D01*
X146944427Y-127762072D01*
X146950987Y-127706790D01*
X146956033Y-127627389D01*
X146959559Y-127530296D01*
X146961561Y-127421938D01*
X146962036Y-127308740D01*
X146960977Y-127197128D01*
X146958382Y-127093529D01*
X146954246Y-127004368D01*
X146948563Y-126936072D01*
X146941331Y-126895066D01*
X146936971Y-126886674D01*
X146912698Y-126878208D01*
X146857426Y-126864435D01*
X146776662Y-126846550D01*
X146675912Y-126825748D01*
X146560683Y-126803223D01*
X146497902Y-126791418D01*
X146378787Y-126769151D01*
X146272565Y-126748979D01*
X146184427Y-126731915D01*
X146119566Y-126718969D01*
X146083174Y-126711155D01*
X146077184Y-126709422D01*
X146067061Y-126689890D01*
X146045662Y-126642843D01*
X146015839Y-126575003D01*
X145980445Y-126493091D01*
X145942332Y-126403828D01*
X145904353Y-126313935D01*
X145869360Y-126230135D01*
X145840206Y-126159147D01*
X145819743Y-126107694D01*
X145810823Y-126082497D01*
X145810657Y-126081396D01*
X145820769Y-126061519D01*
X145849117Y-126015777D01*
X145892723Y-125948717D01*
X145948606Y-125864884D01*
X146013787Y-125768826D01*
X146051679Y-125713650D01*
X146120725Y-125612481D01*
X146182050Y-125520630D01*
X146232663Y-125442744D01*
X146269571Y-125383469D01*
X146289782Y-125347451D01*
X146292701Y-125339377D01*
X146280153Y-125320584D01*
X146245463Y-125280457D01*
X146193063Y-125223493D01*
X146127384Y-125154185D01*
X146052856Y-125077031D01*
X145973913Y-124996525D01*
X145894983Y-124917163D01*
X145820500Y-124843440D01*
X145754894Y-124779852D01*
X145702596Y-124730894D01*
X145668039Y-124701061D01*
X145656478Y-124693942D01*
X145637654Y-124703953D01*
X145592631Y-124732078D01*
X145525787Y-124775454D01*
X145441499Y-124831218D01*
X145344144Y-124896506D01*
X145270707Y-124946246D01*
X144899667Y-125198551D01*
X144281095Y-124943555D01*
X144197275Y-124498931D01*
X144113454Y-124054307D01*
X143188006Y-124054307D01*
X143104186Y-124498931D01*
X143104186Y-124498931D01*
G37*
X143104186Y-124498931D02*
X143020365Y-124943555D01*
X142711080Y-125071053D01*
X142401794Y-125198551D01*
X142030754Y-124946246D01*
X141926843Y-124875996D01*
X141832913Y-124813272D01*
X141753348Y-124760938D01*
X141692530Y-124721857D01*
X141654843Y-124698893D01*
X141644579Y-124693942D01*
X141626090Y-124706676D01*
X141586580Y-124741882D01*
X141530478Y-124795062D01*
X141462213Y-124861718D01*
X141386214Y-124937354D01*
X141306908Y-125017472D01*
X141228725Y-125097574D01*
X141156093Y-125173164D01*
X141093441Y-125239745D01*
X141045197Y-125292818D01*
X141015790Y-125327887D01*
X141008759Y-125339623D01*
X141018877Y-125361260D01*
X141047241Y-125408662D01*
X141090871Y-125477193D01*
X141146782Y-125562215D01*
X141211994Y-125659093D01*
X141249781Y-125714350D01*
X141318657Y-125815248D01*
X141379860Y-125906299D01*
X141430422Y-125982970D01*
X141467372Y-126040728D01*
X141487742Y-126075043D01*
X141490803Y-126082254D01*
X141483864Y-126102748D01*
X141464949Y-126150513D01*
X141436913Y-126218832D01*
X141402609Y-126300989D01*
X141364891Y-126390270D01*
X141326613Y-126479958D01*
X141290630Y-126563338D01*
X141259794Y-126633694D01*
X141236961Y-126684310D01*
X141224983Y-126708471D01*
X141224276Y-126709422D01*
X141205469Y-126714036D01*
X141155382Y-126724328D01*
X141079207Y-126739287D01*
X140982135Y-126757901D01*
X140869357Y-126779159D01*
X140803558Y-126791418D01*
X140683050Y-126814362D01*
X140574203Y-126836195D01*
X140482524Y-126855722D01*
X140413519Y-126871748D01*
X140372696Y-126883079D01*
X140364489Y-126886674D01*
X140356452Y-126911006D01*
X140349967Y-126965959D01*
X140345030Y-127045108D01*
X140341636Y-127142026D01*
X140339782Y-127250287D01*
X140339462Y-127363465D01*
X140340673Y-127475135D01*
X140343410Y-127578868D01*
X140347669Y-127668241D01*
X140353445Y-127736826D01*
X140360733Y-127778197D01*
X140365105Y-127786810D01*
X140391236Y-127797133D01*
X140446607Y-127811892D01*
X140523893Y-127829352D01*
X140615770Y-127847780D01*
X140647842Y-127853741D01*
X140802476Y-127882066D01*
X140924625Y-127904876D01*
X141018327Y-127923080D01*
X141087616Y-127937583D01*
X141136529Y-127949292D01*
X141169103Y-127959115D01*
X141189372Y-127967956D01*
X141201374Y-127976724D01*
X141203053Y-127978457D01*
X141219816Y-128006371D01*
X141245386Y-128060695D01*
X141277212Y-128134777D01*
X141312740Y-128221965D01*
X141349417Y-128315608D01*
X141384689Y-128409052D01*
X141416004Y-128495647D01*
X141440807Y-128568740D01*
X141456546Y-128621678D01*
X141460668Y-128647811D01*
X141460324Y-128648726D01*
X141446359Y-128670086D01*
X141414678Y-128717084D01*
X141368609Y-128784827D01*
X141311482Y-128868423D01*
X141246627Y-128962982D01*
X141228157Y-128989854D01*
X141162301Y-129087275D01*
X141104350Y-129176163D01*
X141057462Y-129251412D01*
X141024793Y-129307920D01*
X141009500Y-129340581D01*
X141008759Y-129344593D01*
X141021608Y-129365684D01*
X141057112Y-129407464D01*
X141110707Y-129465445D01*
X141177829Y-129535135D01*
X141253913Y-129612045D01*
X141334396Y-129691683D01*
X141414713Y-129769561D01*
X141490301Y-129841186D01*
X141556595Y-129902070D01*
X141609031Y-129947721D01*
X141643045Y-129973650D01*
X141652455Y-129977883D01*
X141674357Y-129967912D01*
X141719200Y-129941020D01*
X141779679Y-129901736D01*
X141826211Y-129870117D01*
X141910525Y-129812098D01*
X142010374Y-129743784D01*
X142110527Y-129675579D01*
X142164373Y-129639075D01*
X142346629Y-129515800D01*
X142499619Y-129598520D01*
X142569318Y-129634759D01*
X142628586Y-129662926D01*
X142668689Y-129678991D01*
X142678897Y-129681226D01*
X142691171Y-129664722D01*
X142715387Y-129618082D01*
X142749737Y-129545609D01*
X142792412Y-129451606D01*
X142841606Y-129340374D01*
X142895510Y-129216215D01*
X142952316Y-129083432D01*
X143010218Y-128946327D01*
X143067407Y-128809202D01*
X143122076Y-128676358D01*
X143172416Y-128552098D01*
X143216620Y-128440725D01*
X143252881Y-128346539D01*
X143279391Y-128273844D01*
X143294342Y-128226941D01*
X143296746Y-128210833D01*
X143277689Y-128190286D01*
X143235964Y-128156933D01*
X143180294Y-128117702D01*
X143175622Y-128114599D01*
X143031736Y-127999423D01*
X142915717Y-127865053D01*
X142828570Y-127715784D01*
X142771301Y-127555913D01*
X142744914Y-127389737D01*
X142750415Y-127221552D01*
X142788810Y-127055655D01*
X142861105Y-126896342D01*
X142882374Y-126861487D01*
X142993004Y-126720737D01*
X143123698Y-126607714D01*
X143269936Y-126523003D01*
X143427192Y-126467194D01*
X143590943Y-126440874D01*
X143756667Y-126444630D01*
X143919838Y-126479050D01*
X144075935Y-126544723D01*
X144220433Y-126642235D01*
X144265131Y-126681813D01*
X144378888Y-126805703D01*
X144461782Y-126936124D01*
X144518644Y-127082315D01*
X144550313Y-127227088D01*
X144558131Y-127389860D01*
X144532062Y-127553440D01*
X144474755Y-127712298D01*
X144388856Y-127860906D01*
X144277014Y-127993735D01*
X144141877Y-128105256D01*
X144124117Y-128117011D01*
X144067850Y-128155508D01*
X144025077Y-128188863D01*
X144004628Y-128210160D01*
X144004331Y-128210833D01*
X144008721Y-128233871D01*
X144026124Y-128286157D01*
X144054732Y-128363390D01*
X144092735Y-128461268D01*
X144138326Y-128575491D01*
X144189697Y-128701758D01*
X144245038Y-128835767D01*
X144302542Y-128973218D01*
X144360399Y-129109808D01*
X144416802Y-129241237D01*
X144469942Y-129363205D01*
X144518010Y-129471409D01*
X144559199Y-129561549D01*
X144591699Y-129629323D01*
X144613703Y-129670430D01*
X144622564Y-129681226D01*
X144649640Y-129672819D01*
X144700303Y-129650272D01*
X144765817Y-129617613D01*
X144801841Y-129598520D01*
X144954832Y-129515800D01*
X145137088Y-129639075D01*
X145230125Y-129702228D01*
X145331985Y-129771727D01*
X145427438Y-129837165D01*
X145475250Y-129870117D01*
X145542495Y-129915273D01*
X145599436Y-129951057D01*
X145638646Y-129972938D01*
X145651381Y-129977563D01*
X145669917Y-129965085D01*
X145710941Y-129930252D01*
X145770475Y-129876678D01*
X145844542Y-129807983D01*
X145929165Y-129727781D01*
X145982685Y-129676286D01*
X146076319Y-129584286D01*
X146157241Y-129501999D01*
X146222177Y-129432945D01*
X146267858Y-129380644D01*
X146291011Y-129348616D01*
X146293232Y-129342116D01*
X146282924Y-129317394D01*
X146254439Y-129267405D01*
X146210937Y-129197212D01*
X146155577Y-129111875D01*
X146091520Y-129016456D01*
X146073303Y-128989854D01*
X146006927Y-128893167D01*
X145947378Y-128806117D01*
X145897984Y-128733595D01*
X145862075Y-128680493D01*
X145842981Y-128651703D01*
X145841136Y-128648726D01*
X145843895Y-128625782D01*
X145858538Y-128575336D01*
X145882513Y-128504041D01*
X145913266Y-128418547D01*
X145948244Y-128325507D01*
X145984893Y-128231574D01*
X146020661Y-128143399D01*
X146052994Y-128067634D01*
X146079338Y-128010931D01*
X146097142Y-127979943D01*
X146098407Y-127978457D01*
X146109294Y-127969601D01*
X146127682Y-127960843D01*
X146157606Y-127951277D01*
X146203103Y-127939996D01*
X146268209Y-127926093D01*
X146356961Y-127908663D01*
X146473393Y-127886798D01*
X146621542Y-127859591D01*
X146653618Y-127853741D01*
X146748686Y-127835374D01*
X146831565Y-127817405D01*
X146894930Y-127801569D01*
X146931458Y-127789600D01*
X146936356Y-127786810D01*
X146944427Y-127762072D01*
X146950987Y-127706790D01*
X146956033Y-127627389D01*
X146959559Y-127530296D01*
X146961561Y-127421938D01*
X146962036Y-127308740D01*
X146960977Y-127197128D01*
X146958382Y-127093529D01*
X146954246Y-127004368D01*
X146948563Y-126936072D01*
X146941331Y-126895066D01*
X146936971Y-126886674D01*
X146912698Y-126878208D01*
X146857426Y-126864435D01*
X146776662Y-126846550D01*
X146675912Y-126825748D01*
X146560683Y-126803223D01*
X146497902Y-126791418D01*
X146378787Y-126769151D01*
X146272565Y-126748979D01*
X146184427Y-126731915D01*
X146119566Y-126718969D01*
X146083174Y-126711155D01*
X146077184Y-126709422D01*
X146067061Y-126689890D01*
X146045662Y-126642843D01*
X146015839Y-126575003D01*
X145980445Y-126493091D01*
X145942332Y-126403828D01*
X145904353Y-126313935D01*
X145869360Y-126230135D01*
X145840206Y-126159147D01*
X145819743Y-126107694D01*
X145810823Y-126082497D01*
X145810657Y-126081396D01*
X145820769Y-126061519D01*
X145849117Y-126015777D01*
X145892723Y-125948717D01*
X145948606Y-125864884D01*
X146013787Y-125768826D01*
X146051679Y-125713650D01*
X146120725Y-125612481D01*
X146182050Y-125520630D01*
X146232663Y-125442744D01*
X146269571Y-125383469D01*
X146289782Y-125347451D01*
X146292701Y-125339377D01*
X146280153Y-125320584D01*
X146245463Y-125280457D01*
X146193063Y-125223493D01*
X146127384Y-125154185D01*
X146052856Y-125077031D01*
X145973913Y-124996525D01*
X145894983Y-124917163D01*
X145820500Y-124843440D01*
X145754894Y-124779852D01*
X145702596Y-124730894D01*
X145668039Y-124701061D01*
X145656478Y-124693942D01*
X145637654Y-124703953D01*
X145592631Y-124732078D01*
X145525787Y-124775454D01*
X145441499Y-124831218D01*
X145344144Y-124896506D01*
X145270707Y-124946246D01*
X144899667Y-125198551D01*
X144281095Y-124943555D01*
X144197275Y-124498931D01*
X144113454Y-124054307D01*
X143188006Y-124054307D01*
X143104186Y-124498931D01*
D12*
X145370000Y-120940000D02*
G75*
G03X146070000Y-120240000I0J700000D01*
G01*
X144070000Y-120240000D02*
G75*
G03X144770000Y-120940000I700000J0D01*
G01*
X144770000Y-116840000D02*
G75*
G03X144070000Y-117540000I0J-700000D01*
G01*
X146070000Y-117540000D02*
G75*
G03X145370000Y-116840000I-700000J0D01*
G01*
X146070000Y-120290000D02*
X146070000Y-117490000D01*
X145370000Y-116840000D02*
X144770000Y-116840000D01*
X144070000Y-117490000D02*
X144070000Y-120290000D01*
X144770000Y-120940000D02*
X145370000Y-120940000D01*
D13*
X146459285Y-118265000D02*
X146995000Y-118265000D01*
X147102142Y-118229285D01*
X147173571Y-118157857D01*
X147209285Y-118050714D01*
X147209285Y-117979285D01*
X147209285Y-118622142D02*
X146459285Y-118622142D01*
X146459285Y-118907857D01*
X146495000Y-118979285D01*
X146530714Y-119015000D01*
X146602142Y-119050714D01*
X146709285Y-119050714D01*
X146780714Y-119015000D01*
X146816428Y-118979285D01*
X146852142Y-118907857D01*
X146852142Y-118622142D01*
X147209285Y-119765000D02*
X147209285Y-119336428D01*
X147209285Y-119550714D02*
X146459285Y-119550714D01*
X146566428Y-119479285D01*
X146637857Y-119407857D01*
X146673571Y-119336428D01*
X145522380Y-121775714D02*
X145522380Y-121204285D01*
X145522380Y-121490000D02*
X144522380Y-121490000D01*
X144665238Y-121394761D01*
X144760476Y-121299523D01*
X144808095Y-121204285D01*
X144522380Y-115956666D02*
X144522380Y-116575714D01*
X144903333Y-116242380D01*
X144903333Y-116385238D01*
X144950952Y-116480476D01*
X144998571Y-116528095D01*
X145093809Y-116575714D01*
X145331904Y-116575714D01*
X145427142Y-116528095D01*
X145474761Y-116480476D01*
X145522380Y-116385238D01*
X145522380Y-116099523D01*
X145474761Y-116004285D01*
X145427142Y-115956666D01*
M02*
