M48
;DRILL file {KiCad (5.0.2)-1} date 10/03/2019 02:30:57
;FORMAT={-:-/ absolute / metric / decimal}
FMAT,2
METRIC,TZ
T1C0.400
T2C0.800
T3C0.900
T4C1.700
T5C2.200
%
G90
G05
T1
X114.9Y-83.75
X115.85Y-113.54
X116.22Y-87.5
X118.01Y-85.284
X119.33Y-110.364
X119.37Y-112.974
X119.6Y-107.904
X119.85Y-105.304
X123.98Y-86.35
X124.005Y-91.444
X124.005Y-93.964
X124.005Y-96.494
X124.005Y-98.964
X124.005Y-101.614
X124.005Y-102.844
X124.005Y-104.134
X124.005Y-105.394
X124.008Y-90.162
X124.05Y-88.9
X124.05Y-116.13
X124.21Y-113.669
X124.49Y-107.964
X124.955Y-110.403
X128.667Y-118.928
X130.115Y-104.084
X130.565Y-100.62
X130.575Y-97.6
X130.59Y-117.25
X130.61Y-114.56
X131.23Y-98.37
X132.115Y-105.734
X132.115Y-107.284
X132.115Y-108.704
X132.115Y-110.234
X132.115Y-111.734
X132.115Y-113.274
X132.115Y-114.704
X132.115Y-116.244
X132.115Y-117.784
X132.2Y-98.174
X132.22Y-95.26
X132.225Y-99.714
X132.24Y-96.74
X132.265Y-101.23
X141.05Y-73.97
X141.17Y-100.24
X142.16Y-121.49
X142.59Y-95.39
X142.6Y-91.6
X142.64Y-90.39
X142.79Y-120.68
X142.84Y-116.34
X142.9Y-112.86
X142.97Y-119.13
X143.09Y-86.22
X143.27Y-94.03
X143.9Y-91.59
X144.95Y-101.29
X146.31Y-110.2
X146.31Y-121.97
X146.91Y-104.22
X147.01Y-120.32
X147.85Y-99.21
X147.87Y-120.32
X147.93Y-78.46
X148.16Y-104.21
X148.733Y-122.089
X148.75Y-121.275
X148.76Y-120.475
X148.89Y-95.26
X149.Y-105.56
X149.22Y-109.56
X149.22Y-108.621
X150.18Y-104.13
X150.73Y-122.06
X151.133Y-107.717
X151.133Y-106.833
X151.55Y-88.17
X151.84Y-97.56
X152.Y-122.02
X152.87Y-106.208
X153.08Y-97.53
X153.17Y-87.31
X153.38Y-121.95
X153.58Y-105.583
X154.43Y-77.645
X154.67Y-121.914
X154.76Y-118.55
X155.05Y-104.72
X155.5Y-89.91
X155.67Y-122.03
X155.81Y-106.19
X156.028Y-118.922
X156.61Y-88.47
X157.145Y-104.888
X157.36Y-121.335
X158.17Y-95.16
X158.18Y-97.92
X158.62Y-121.98
X160.06Y-104.47
X160.1Y-85.91
X160.48Y-97.18
X160.51Y-95.87
X160.98Y-84.59
X161.53Y-88.43
X162.49Y-90.95
X163.34Y-74.16
X163.59Y-99.55
X164.225Y-98.395
X165.04Y-86.35
X165.8Y-101.99
X166.4Y-108.69
X166.7Y-122.185
X167.915Y-93.325
X168.33Y-121.99
X168.49Y-88.95
X169.344Y-103.54
X169.4Y-88.95
X169.76Y-105.9
X170.09Y-98.44
X170.131Y-107.96
X170.16Y-94.57
X170.16Y-96.63
X170.2Y-114.44
X170.93Y-121.73
X171.63Y-100.21
X171.66Y-104.32
X171.67Y-106.78
X171.77Y-78.46
X171.785Y-109.81
X172.09Y-121.515
X172.36Y-113.76
X172.78Y-115.65
X173.03Y-92.6
X173.14Y-98.43
X173.65Y-122.165
X174.32Y-88.94
X174.36Y-91.09
X174.95Y-110.53
X174.97Y-101.81
X175.16Y-122.11
X175.32Y-107.16
X176.66Y-122.11
X177.075Y-112.47
X177.12Y-101.84
X177.22Y-93.93
X177.64Y-91.47
X177.95Y-110.75
X177.95Y-107.68
X178.Y-77.5
X178.2Y-122.09
X178.21Y-121.17
X178.23Y-100.98
X179.27Y-98.43
X179.67Y-122.1
X179.72Y-116.38
X179.8Y-94.15
X180.04Y-112.31
X180.05Y-115.01
X180.32Y-81.26
X180.84Y-114.375
X180.945Y-90.205
X180.95Y-97.46
X180.97Y-87.16
X181.14Y-122.14
X181.66Y-113.75
X181.8Y-118.2
X182.72Y-100.99
X183.Y-99.6
X183.44Y-120.21
X184.68Y-100.51
X185.54Y-92.41
X185.93Y-86.2
X186.17Y-98.39
X187.56Y-114.39
X187.76Y-100.39
X187.82Y-86.88
X188.04Y-117.61
X188.04Y-118.74
X188.04Y-119.75
X188.04Y-120.88
X188.74Y-103.25
T2
X106.99Y-83.814
X106.99Y-86.354
X106.99Y-88.894
X106.99Y-91.434
X106.99Y-93.974
X106.99Y-96.514
X106.99Y-99.054
X106.99Y-101.594
X106.99Y-104.134
X106.99Y-106.674
X106.99Y-109.214
X106.99Y-111.754
X106.99Y-114.294
X106.99Y-116.834
X122.23Y-83.814
X122.23Y-86.354
X122.23Y-88.894
X122.23Y-91.434
X122.23Y-93.974
X122.23Y-96.514
X122.23Y-99.054
X122.23Y-101.594
X122.23Y-104.134
X122.23Y-106.674
X122.23Y-109.214
X122.23Y-111.754
X122.23Y-114.294
X122.23Y-116.834
T3
X173.15Y-72.07
X179.95Y-72.07
X149.25Y-72.07
X156.05Y-72.07
T4
X144.45Y-73.42
X144.45Y-80.42
X168.34Y-73.39
X168.34Y-80.39
T5
X126.54Y-87.54
X126.54Y-113.44
T0
M30
