%FSLAX45Y45*%
G04 Gerber Fmt 4.5, Leading zero omitted, Abs format (unit mm)*
G04 Created by KiCad (PCBNEW (5.0.2)-1) date 07/03/2019 04:17:13*
%MOMM*%
%LPD*%
G01*
G04 APERTURE LIST*
%ADD10C,0.150000*%
%ADD11C,0.100000*%
%ADD12C,0.200000*%
%ADD13C,0.300000*%
G04 APERTURE END LIST*
D10*
X7876000Y-14966000D02*
X7876000Y-15186000D01*
X8076000Y-9902000D02*
X8076000Y-11301000D01*
X7876000Y-13392000D02*
X7876000Y-14717000D01*
X8076000Y-11550000D02*
X8076000Y-13143000D01*
X8076000Y-13392000D02*
X8076000Y-14717000D01*
X7876000Y-11550000D02*
X7876000Y-13143000D01*
X7876000Y-9902000D02*
X7876000Y-11301000D01*
X8076000Y-14966000D02*
X8076000Y-15216000D01*
X8076000Y-11301000D02*
G75*
G02X7876000Y-11301000I-100000J0D01*
G01*
X7876000Y-11550000D02*
G75*
G02X8076000Y-11550000I100000J0D01*
G01*
X7876000Y-9902000D02*
G75*
G02X8076000Y-9902000I100000J0D01*
G01*
X8076000Y-9653000D02*
G75*
G02X7876000Y-9653000I-100000J0D01*
G01*
X7876000Y-13392000D02*
G75*
G02X8076000Y-13392000I100000J0D01*
G01*
X8076000Y-13143000D02*
G75*
G02X7876000Y-13143000I-100000J0D01*
G01*
X8076000Y-14717000D02*
G75*
G02X7876000Y-14717000I-100000J0D01*
G01*
X7876000Y-14966000D02*
G75*
G02X8076000Y-14966000I100000J0D01*
G01*
X4672000Y-10235000D02*
X4673000Y-14135000D01*
X4673000Y-14135000D02*
X5574000Y-14135000D01*
X5574000Y-14135000D02*
X5574000Y-15186000D01*
X5574000Y-15186000D02*
X7876000Y-15186000D01*
X7876000Y-9184000D02*
X7876000Y-9653000D01*
X5572000Y-9184000D02*
X7876000Y-9184000D01*
X5572000Y-10235000D02*
X5572000Y-9184000D01*
X4672000Y-10235000D02*
X5572000Y-10235000D01*
D11*
X10992000Y-13670000D02*
G75*
G03X10992000Y-13670000I-365000J0D01*
G01*
D10*
X13176000Y-15216000D02*
X13176000Y-9116000D01*
X13176000Y-15216000D02*
X8076000Y-15216000D01*
X8076000Y-9116000D02*
X8076000Y-9653000D01*
X8076000Y-9116000D02*
X13176000Y-9116000D01*
D12*
X5705000Y-10508000D02*
X5745000Y-10548000D01*
X5745000Y-10508000D02*
X5705000Y-10548000D01*
X5798000Y-10887000D02*
X5838000Y-10927000D01*
X5838000Y-10887000D02*
X5798000Y-10927000D01*
X5800000Y-13487000D02*
X5840000Y-13527000D01*
X5840000Y-13487000D02*
X5800000Y-13527000D01*
X6015977Y-10661396D02*
X6055977Y-10701396D01*
X6055977Y-10661396D02*
X6015977Y-10701396D01*
X6147977Y-13169396D02*
X6187977Y-13209396D01*
X6187977Y-13169396D02*
X6147977Y-13209396D01*
X6151977Y-13430396D02*
X6191977Y-13470396D01*
X6191977Y-13430396D02*
X6151977Y-13470396D01*
X6174977Y-12923396D02*
X6214977Y-12963396D01*
X6214977Y-12923396D02*
X6174977Y-12963396D01*
X6199977Y-12663396D02*
X6239977Y-12703396D01*
X6239977Y-12663396D02*
X6199977Y-12703396D01*
X6613000Y-10768000D02*
X6653000Y-10808000D01*
X6653000Y-10768000D02*
X6613000Y-10808000D01*
X6615499Y-11277396D02*
X6655499Y-11317396D01*
X6655499Y-11277396D02*
X6615499Y-11317396D01*
X6615499Y-11529396D02*
X6655499Y-11569396D01*
X6655499Y-11529396D02*
X6615499Y-11569396D01*
X6615499Y-11782396D02*
X6655499Y-11822396D01*
X6655499Y-11782396D02*
X6615499Y-11822396D01*
X6615499Y-12029396D02*
X6655499Y-12069396D01*
X6655499Y-12029396D02*
X6615499Y-12069396D01*
X6615499Y-12294396D02*
X6655499Y-12334396D01*
X6655499Y-12294396D02*
X6615499Y-12334396D01*
X6615499Y-12417396D02*
X6655499Y-12457396D01*
X6655499Y-12417396D02*
X6615499Y-12457396D01*
X6615499Y-12546396D02*
X6655499Y-12586396D01*
X6655499Y-12546396D02*
X6615499Y-12586396D01*
X6615499Y-12672396D02*
X6655499Y-12712396D01*
X6655499Y-12672396D02*
X6615499Y-12712396D01*
X6615834Y-11149241D02*
X6655834Y-11189241D01*
X6655834Y-11149241D02*
X6615834Y-11189241D01*
X6620000Y-11023000D02*
X6660000Y-11063000D01*
X6660000Y-11023000D02*
X6620000Y-11063000D01*
X6620000Y-13746000D02*
X6660000Y-13786000D01*
X6660000Y-13746000D02*
X6620000Y-13786000D01*
X6636000Y-13499895D02*
X6676000Y-13539895D01*
X6676000Y-13499895D02*
X6636000Y-13539895D01*
X6663999Y-12929396D02*
X6703999Y-12969396D01*
X6703999Y-12929396D02*
X6663999Y-12969396D01*
X6710499Y-13173268D02*
X6750499Y-13213268D01*
X6750499Y-13173268D02*
X6710499Y-13213268D01*
X7081701Y-14025798D02*
X7121701Y-14065798D01*
X7121701Y-14025798D02*
X7081701Y-14065798D01*
X7226504Y-12541396D02*
X7266504Y-12581396D01*
X7266504Y-12541396D02*
X7226504Y-12581396D01*
X7271505Y-12195000D02*
X7311505Y-12235000D01*
X7311505Y-12195000D02*
X7271505Y-12235000D01*
X7272501Y-11893000D02*
X7312501Y-11933000D01*
X7312501Y-11893000D02*
X7272501Y-11933000D01*
X7274000Y-13858000D02*
X7314000Y-13898000D01*
X7314000Y-13858000D02*
X7274000Y-13898000D01*
X7276000Y-13589000D02*
X7316000Y-13629000D01*
X7316000Y-13589000D02*
X7276000Y-13629000D01*
X7338000Y-11970000D02*
X7378000Y-12010000D01*
X7378000Y-11970000D02*
X7338000Y-12010000D01*
X7426501Y-12706396D02*
X7466501Y-12746396D01*
X7466501Y-12706396D02*
X7426501Y-12746396D01*
X7426501Y-12861396D02*
X7466501Y-12901396D01*
X7466501Y-12861396D02*
X7426501Y-12901396D01*
X7426501Y-13003396D02*
X7466501Y-13043396D01*
X7466501Y-13003396D02*
X7426501Y-13043396D01*
X7426501Y-13156396D02*
X7466501Y-13196396D01*
X7466501Y-13156396D02*
X7426501Y-13196396D01*
X7426501Y-13306396D02*
X7466501Y-13346396D01*
X7466501Y-13306396D02*
X7426501Y-13346396D01*
X7426501Y-13460396D02*
X7466501Y-13500396D01*
X7466501Y-13460396D02*
X7426501Y-13500396D01*
X7426501Y-13603396D02*
X7466501Y-13643396D01*
X7466501Y-13603396D02*
X7426501Y-13643396D01*
X7426501Y-13757396D02*
X7466501Y-13797396D01*
X7466501Y-13757396D02*
X7426501Y-13797396D01*
X7426501Y-13911396D02*
X7466501Y-13951396D01*
X7466501Y-13911396D02*
X7426501Y-13951396D01*
X7435000Y-11950400D02*
X7475000Y-11990400D01*
X7475000Y-11950400D02*
X7435000Y-11990400D01*
X7437000Y-11659000D02*
X7477000Y-11699000D01*
X7477000Y-11659000D02*
X7437000Y-11699000D01*
X7437502Y-12104396D02*
X7477502Y-12144396D01*
X7477502Y-12104396D02*
X7437502Y-12144396D01*
X7439000Y-11807000D02*
X7479000Y-11847000D01*
X7479000Y-11807000D02*
X7439000Y-11847000D01*
X7441508Y-12255987D02*
X7481508Y-12295987D01*
X7481508Y-12255987D02*
X7441508Y-12295987D01*
X8320000Y-9530000D02*
X8360000Y-9570000D01*
X8360000Y-9530000D02*
X8320000Y-9570000D01*
X8424000Y-12187000D02*
X8464000Y-12227000D01*
X8464000Y-12187000D02*
X8424000Y-12227000D01*
X8431000Y-14282000D02*
X8471000Y-14322000D01*
X8471000Y-14282000D02*
X8431000Y-14322000D01*
X8458000Y-13423000D02*
X8498000Y-13463000D01*
X8498000Y-13423000D02*
X8458000Y-13463000D01*
X8474000Y-11672000D02*
X8514000Y-11712000D01*
X8514000Y-11672000D02*
X8474000Y-11712000D01*
X8475000Y-11293000D02*
X8515000Y-11333000D01*
X8515000Y-11293000D02*
X8475000Y-11333000D01*
X8479000Y-11172000D02*
X8519000Y-11212000D01*
X8519000Y-11172000D02*
X8479000Y-11212000D01*
X8494000Y-14201000D02*
X8534000Y-14241000D01*
X8534000Y-14201000D02*
X8494000Y-14241000D01*
X8512000Y-14046000D02*
X8552000Y-14086000D01*
X8552000Y-14046000D02*
X8512000Y-14086000D01*
X8542000Y-11536000D02*
X8582000Y-11576000D01*
X8582000Y-11536000D02*
X8542000Y-11576000D01*
X8551000Y-13714000D02*
X8591000Y-13754000D01*
X8591000Y-13714000D02*
X8551000Y-13754000D01*
X8608000Y-11285000D02*
X8648000Y-11325000D01*
X8648000Y-11285000D02*
X8608000Y-11325000D01*
X8709000Y-12291000D02*
X8749000Y-12331000D01*
X8749000Y-12291000D02*
X8709000Y-12331000D01*
X8846000Y-13153000D02*
X8886000Y-13193000D01*
X8886000Y-13153000D02*
X8846000Y-13193000D01*
X8846000Y-14330000D02*
X8886000Y-14370000D01*
X8886000Y-14330000D02*
X8846000Y-14370000D01*
X8905998Y-12554998D02*
X8945998Y-12594998D01*
X8945998Y-12554998D02*
X8905998Y-12594998D01*
X8916000Y-14165000D02*
X8956000Y-14205000D01*
X8956000Y-14165000D02*
X8916000Y-14205000D01*
X9002001Y-14164975D02*
X9042001Y-14204975D01*
X9042001Y-14164975D02*
X9002001Y-14204975D01*
X9031000Y-12554000D02*
X9071000Y-12594000D01*
X9071000Y-12554000D02*
X9031000Y-12594000D01*
X9044000Y-12126000D02*
X9084000Y-12166000D01*
X9084000Y-12126000D02*
X9044000Y-12166000D01*
X9088284Y-14341901D02*
X9128284Y-14381901D01*
X9128284Y-14341901D02*
X9088284Y-14381901D01*
X9089955Y-14260498D02*
X9129955Y-14300498D01*
X9129955Y-14260498D02*
X9089955Y-14300498D01*
X9091000Y-14180503D02*
X9131000Y-14220503D01*
X9131000Y-14180503D02*
X9091000Y-14220503D01*
X9115000Y-12689000D02*
X9155000Y-12729000D01*
X9155000Y-12689000D02*
X9115000Y-12729000D01*
X9130000Y-10570000D02*
X9170000Y-10610000D01*
X9170000Y-10570000D02*
X9130000Y-10610000D01*
X9137000Y-13089000D02*
X9177000Y-13129000D01*
X9177000Y-13089000D02*
X9137000Y-13129000D01*
X9137009Y-12995057D02*
X9177009Y-13035057D01*
X9177009Y-12995057D02*
X9137009Y-13035057D01*
X9233000Y-12546000D02*
X9273000Y-12586000D01*
X9273000Y-12546000D02*
X9233000Y-12586000D01*
X9242500Y-11520000D02*
X9282500Y-11560000D01*
X9282500Y-11520000D02*
X9242500Y-11560000D01*
X9288000Y-14339000D02*
X9328000Y-14379000D01*
X9328000Y-14339000D02*
X9288000Y-14379000D01*
X9319000Y-10177000D02*
X9359000Y-10217000D01*
X9359000Y-10177000D02*
X9319000Y-10217000D01*
X9328305Y-12904695D02*
X9368305Y-12944695D01*
X9368305Y-12904695D02*
X9328305Y-12944695D01*
X9328306Y-12816306D02*
X9368306Y-12856306D01*
X9368306Y-12816306D02*
X9328306Y-12856306D01*
X9415000Y-14335000D02*
X9455000Y-14375000D01*
X9455000Y-14335000D02*
X9415000Y-14375000D01*
X9466000Y-11929000D02*
X9506000Y-11969000D01*
X9506000Y-11929000D02*
X9466000Y-11969000D01*
X9502001Y-12753806D02*
X9542001Y-12793806D01*
X9542001Y-12753806D02*
X9502001Y-12793806D01*
X9553001Y-14328001D02*
X9593001Y-14368001D01*
X9593001Y-14328001D02*
X9553001Y-14368001D01*
X9569000Y-10377000D02*
X9609000Y-10417000D01*
X9609000Y-10377000D02*
X9569000Y-10417000D01*
X9573000Y-12691306D02*
X9613000Y-12731306D01*
X9613000Y-12691306D02*
X9573000Y-12731306D01*
X9658000Y-11934000D02*
X9698000Y-11974000D01*
X9698000Y-11934000D02*
X9658000Y-11974000D01*
X9662500Y-10655000D02*
X9702500Y-10695000D01*
X9702500Y-10655000D02*
X9662500Y-10695000D01*
X9682000Y-14324390D02*
X9722000Y-14364390D01*
X9722000Y-14324390D02*
X9682000Y-14364390D01*
X9691000Y-13988000D02*
X9731000Y-14028000D01*
X9731000Y-13988000D02*
X9691000Y-14028000D01*
X9720000Y-12605000D02*
X9760000Y-12645000D01*
X9760000Y-12605000D02*
X9720000Y-12645000D01*
X9775000Y-10007500D02*
X9815000Y-10047500D01*
X9815000Y-10007500D02*
X9775000Y-10047500D01*
X9782000Y-14336000D02*
X9822000Y-14376000D01*
X9822000Y-14336000D02*
X9782000Y-14376000D01*
X9796000Y-12752000D02*
X9836000Y-12792000D01*
X9836000Y-12752000D02*
X9796000Y-12792000D01*
X9817805Y-14025195D02*
X9857805Y-14065195D01*
X9857805Y-14025195D02*
X9817805Y-14065195D01*
X9829000Y-11050000D02*
X9869000Y-11090000D01*
X9869000Y-11050000D02*
X9829000Y-11090000D01*
X9929500Y-12621806D02*
X9969500Y-12661806D01*
X9969500Y-12621806D02*
X9929500Y-12661806D01*
X9951000Y-14266502D02*
X9991000Y-14306502D01*
X9991000Y-14266502D02*
X9951000Y-14306502D01*
X10077000Y-14331000D02*
X10117000Y-14371000D01*
X10117000Y-14331000D02*
X10077000Y-14371000D01*
X10085000Y-9260000D02*
X10125000Y-9300000D01*
X10125000Y-9260000D02*
X10085000Y-9300000D01*
X10100000Y-11652000D02*
X10140000Y-11692000D01*
X10140000Y-11652000D02*
X10100000Y-11692000D01*
X10101000Y-11928000D02*
X10141000Y-11968000D01*
X10141000Y-11928000D02*
X10101000Y-11968000D01*
X10217500Y-9727500D02*
X10257500Y-9767500D01*
X10257500Y-9727500D02*
X10217500Y-9767500D01*
X10269000Y-13010000D02*
X10309000Y-13050000D01*
X10309000Y-13010000D02*
X10269000Y-13050000D01*
X10337500Y-12440000D02*
X10377500Y-12480000D01*
X10377500Y-12440000D02*
X10337500Y-12480000D01*
X10361000Y-10655000D02*
X10401000Y-10695000D01*
X10401000Y-10655000D02*
X10361000Y-10695000D01*
X10425000Y-11985000D02*
X10465000Y-12025000D01*
X10465000Y-11985000D02*
X10425000Y-12025000D01*
X10447732Y-11363799D02*
X10487732Y-11403799D01*
X10487732Y-11363799D02*
X10447732Y-11403799D01*
X10464000Y-11175000D02*
X10504000Y-11215000D01*
X10504000Y-11175000D02*
X10464000Y-11215000D01*
X10574000Y-12088000D02*
X10614000Y-12128000D01*
X10614000Y-12088000D02*
X10574000Y-12128000D01*
X10629287Y-11438713D02*
X10669287Y-11478713D01*
X10669287Y-11438713D02*
X10629287Y-11478713D01*
X10634000Y-11720500D02*
X10674000Y-11760500D01*
X10674000Y-11720500D02*
X10634000Y-11760500D01*
X10635000Y-11849000D02*
X10675000Y-11889000D01*
X10675000Y-11849000D02*
X10635000Y-11889000D01*
X10637500Y-11972500D02*
X10677500Y-12012500D01*
X10677500Y-11972500D02*
X10637500Y-12012500D01*
X10638000Y-13014000D02*
X10678000Y-13054000D01*
X10678000Y-13014000D02*
X10638000Y-13054000D01*
X10640000Y-11593500D02*
X10680000Y-11633500D01*
X10680000Y-11593500D02*
X10640000Y-11633500D01*
X10647000Y-11180000D02*
X10687000Y-11220000D01*
X10687000Y-11180000D02*
X10647000Y-11220000D01*
X10697500Y-10780000D02*
X10737500Y-10820000D01*
X10737500Y-10780000D02*
X10697500Y-10820000D01*
X10717000Y-10550000D02*
X10757000Y-10590000D01*
X10757000Y-10550000D02*
X10717000Y-10590000D01*
X10795000Y-12332000D02*
X10835000Y-12372000D01*
X10835000Y-12332000D02*
X10795000Y-12372000D01*
X10797000Y-13017000D02*
X10837000Y-13057000D01*
X10837000Y-13017000D02*
X10797000Y-13057000D01*
X10885000Y-14341505D02*
X10925000Y-14381505D01*
X10925000Y-14341505D02*
X10885000Y-14381505D01*
X10918000Y-11339000D02*
X10958000Y-11379000D01*
X10958000Y-11339000D02*
X10918000Y-11379000D01*
X10992500Y-9530000D02*
X11032500Y-9570000D01*
X11032500Y-9530000D02*
X10992500Y-9570000D01*
X11034000Y-10968000D02*
X11074000Y-11008000D01*
X11074000Y-10968000D02*
X11034000Y-11008000D01*
X11034000Y-11184000D02*
X11074000Y-11224000D01*
X11074000Y-11184000D02*
X11034000Y-11224000D01*
X11048000Y-14332000D02*
X11088000Y-14372000D01*
X11088000Y-14332000D02*
X11048000Y-14372000D01*
X11137000Y-11621000D02*
X11177000Y-11661000D01*
X11177000Y-11621000D02*
X11137000Y-11661000D01*
X11137000Y-11795500D02*
X11177000Y-11835500D01*
X11177000Y-11795500D02*
X11137000Y-11835500D01*
X11140999Y-12487000D02*
X11180999Y-12527000D01*
X11180999Y-12487000D02*
X11140999Y-12527000D01*
X11140999Y-12644000D02*
X11180999Y-12684000D01*
X11180999Y-12644000D02*
X11140999Y-12684000D01*
X11186000Y-12058000D02*
X11226000Y-12098000D01*
X11226000Y-12058000D02*
X11186000Y-12098000D01*
X11228067Y-12928999D02*
X11268067Y-12968999D01*
X11268067Y-12928999D02*
X11228067Y-12968999D01*
X11235000Y-13577000D02*
X11275000Y-13617000D01*
X11275000Y-13577000D02*
X11235000Y-13617000D01*
X11308000Y-14306000D02*
X11348000Y-14346000D01*
X11348000Y-14306000D02*
X11308000Y-14346000D01*
X11378000Y-12215000D02*
X11418000Y-12255000D01*
X11418000Y-12215000D02*
X11378000Y-12255000D01*
X11381000Y-12622000D02*
X11421000Y-12662000D01*
X11421000Y-12622000D02*
X11381000Y-12662000D01*
X11385000Y-12809000D02*
X11425000Y-12849000D01*
X11425000Y-12809000D02*
X11385000Y-12849000D01*
X11394000Y-13095001D02*
X11434000Y-13135001D01*
X11434000Y-13095001D02*
X11394000Y-13135001D01*
X11424000Y-14283000D02*
X11464000Y-14323000D01*
X11464000Y-14283000D02*
X11424000Y-14323000D01*
X11451000Y-13509000D02*
X11491000Y-13549000D01*
X11491000Y-13509000D02*
X11451000Y-13549000D01*
X11473000Y-11404000D02*
X11513000Y-11444000D01*
X11513000Y-11404000D02*
X11473000Y-11444000D01*
X11487000Y-11727000D02*
X11527000Y-11767000D01*
X11527000Y-11727000D02*
X11487000Y-11767000D01*
X11493000Y-13698000D02*
X11533000Y-13738000D01*
X11533000Y-13698000D02*
X11493000Y-13738000D01*
X11580000Y-14349501D02*
X11620000Y-14389501D01*
X11620000Y-14349501D02*
X11580000Y-14389501D01*
X11590000Y-11270000D02*
X11630000Y-11310000D01*
X11630000Y-11270000D02*
X11590000Y-11310000D01*
X11684000Y-9849000D02*
X11724000Y-9889000D01*
X11724000Y-9849000D02*
X11684000Y-9889000D01*
X11704000Y-11509000D02*
X11744000Y-11549000D01*
X11744000Y-11509000D02*
X11704000Y-11549000D01*
X11712000Y-12314000D02*
X11752000Y-12354000D01*
X11752000Y-12314000D02*
X11712000Y-12354000D01*
X11731000Y-14344000D02*
X11771000Y-14384000D01*
X11771000Y-14344000D02*
X11731000Y-14384000D01*
X11747000Y-12849000D02*
X11787000Y-12889000D01*
X11787000Y-12849000D02*
X11747000Y-12889000D01*
X11802500Y-10952500D02*
X11842500Y-10992500D01*
X11842500Y-10952500D02*
X11802500Y-10992500D01*
X11881000Y-14344000D02*
X11921000Y-14384000D01*
X11921000Y-14344000D02*
X11881000Y-14384000D01*
X11921000Y-14120502D02*
X11961000Y-14160502D01*
X11961000Y-14120502D02*
X11921000Y-14160502D01*
X11922500Y-13380000D02*
X11962500Y-13420000D01*
X11962500Y-13380000D02*
X11922500Y-13420000D01*
X11970000Y-12525000D02*
X12010000Y-12565000D01*
X12010000Y-12525000D02*
X11970000Y-12565000D01*
X11993000Y-12362000D02*
X12033000Y-12402000D01*
X12033000Y-12362000D02*
X11993000Y-12402000D01*
X12012000Y-13186000D02*
X12052000Y-13226000D01*
X12052000Y-13186000D02*
X12012000Y-13226000D01*
X12014000Y-12877000D02*
X12054000Y-12917000D01*
X12054000Y-12877000D02*
X12014000Y-12917000D01*
X12035000Y-14342000D02*
X12075000Y-14382000D01*
X12075000Y-14342000D02*
X12035000Y-14382000D01*
X12105000Y-11594000D02*
X12145000Y-11634000D01*
X12145000Y-11594000D02*
X12105000Y-11634000D01*
X12182000Y-14343000D02*
X12222000Y-14383000D01*
X12222000Y-14343000D02*
X12182000Y-14383000D01*
X12187000Y-13771000D02*
X12227000Y-13811000D01*
X12227000Y-13771000D02*
X12187000Y-13811000D01*
X12215000Y-10996000D02*
X12255000Y-11036000D01*
X12255000Y-10996000D02*
X12215000Y-11036000D01*
X12221000Y-11751000D02*
X12261000Y-11791000D01*
X12261000Y-11751000D02*
X12221000Y-11791000D01*
X12267000Y-14079000D02*
X12307000Y-14119000D01*
X12307000Y-14079000D02*
X12267000Y-14119000D01*
X12306000Y-10229000D02*
X12346000Y-10269000D01*
X12346000Y-10229000D02*
X12306000Y-10269000D01*
X12328999Y-14347000D02*
X12368999Y-14387000D01*
X12368999Y-14347000D02*
X12328999Y-14387000D01*
X12410000Y-11540000D02*
X12450000Y-11580000D01*
X12450000Y-11540000D02*
X12410000Y-11580000D01*
X12421000Y-13508000D02*
X12461000Y-13548000D01*
X12461000Y-13508000D02*
X12421000Y-13548000D01*
X12423000Y-13635000D02*
X12463000Y-13675000D01*
X12463000Y-13635000D02*
X12423000Y-13675000D01*
X12494000Y-10382500D02*
X12534000Y-10422500D01*
X12534000Y-10382500D02*
X12494000Y-10422500D01*
X12496000Y-10871000D02*
X12536000Y-10911000D01*
X12536000Y-10871000D02*
X12496000Y-10911000D01*
X12558500Y-10801000D02*
X12598500Y-10841000D01*
X12598500Y-10801000D02*
X12558500Y-10841000D01*
X12610000Y-11840000D02*
X12650000Y-11880000D01*
X12650000Y-11840000D02*
X12610000Y-11880000D01*
X12687000Y-13288000D02*
X12727000Y-13328000D01*
X12727000Y-13288000D02*
X12687000Y-13328000D01*
X12698000Y-14154000D02*
X12738000Y-14194000D01*
X12738000Y-14154000D02*
X12698000Y-14194000D01*
X12708000Y-13905000D02*
X12748000Y-13945000D01*
X12748000Y-13905000D02*
X12708000Y-13945000D01*
X12728000Y-10084000D02*
X12768000Y-10124000D01*
X12768000Y-10084000D02*
X12728000Y-10124000D01*
X12737500Y-12330000D02*
X12777500Y-12370000D01*
X12777500Y-12330000D02*
X12737500Y-12370000D01*
X12745000Y-13470000D02*
X12785000Y-13510000D01*
X12785000Y-13470000D02*
X12745000Y-13510000D01*
X12831000Y-10081000D02*
X12871000Y-10121000D01*
X12871000Y-10081000D02*
X12831000Y-10121000D01*
X12867000Y-13137999D02*
X12907000Y-13177999D01*
X12907000Y-13137999D02*
X12867000Y-13177999D01*
X12880000Y-10997500D02*
X12920000Y-11037500D01*
X12920000Y-10997500D02*
X12880000Y-11037500D01*
X12925000Y-9497500D02*
X12965000Y-9537500D01*
X12965000Y-9497500D02*
X12925000Y-9537500D01*
X12943000Y-13290000D02*
X12983000Y-13330000D01*
X12983000Y-13290000D02*
X12943000Y-13330000D01*
X13017998Y-14275000D02*
X13057998Y-14315000D01*
X13057998Y-14275000D02*
X13017998Y-14315000D01*
X13021000Y-13572000D02*
X13061000Y-13612000D01*
X13061000Y-13572000D02*
X13021000Y-13612000D01*
X4973978Y-10534396D02*
G75*
G03X4973978Y-10534396I-40000J0D01*
G01*
X4973978Y-10788396D02*
G75*
G03X4973978Y-10788396I-40000J0D01*
G01*
X4973978Y-11042396D02*
G75*
G03X4973978Y-11042396I-40000J0D01*
G01*
X4973978Y-11296396D02*
G75*
G03X4973978Y-11296396I-40000J0D01*
G01*
X4973978Y-11550396D02*
G75*
G03X4973978Y-11550396I-40000J0D01*
G01*
X4973978Y-11804396D02*
G75*
G03X4973978Y-11804396I-40000J0D01*
G01*
X4973978Y-12058396D02*
G75*
G03X4973978Y-12058396I-40000J0D01*
G01*
X4973978Y-12312396D02*
G75*
G03X4973978Y-12312396I-40000J0D01*
G01*
X4973978Y-12566396D02*
G75*
G03X4973978Y-12566396I-40000J0D01*
G01*
X4973978Y-12820396D02*
G75*
G03X4973978Y-12820396I-40000J0D01*
G01*
X4973978Y-13074396D02*
G75*
G03X4973978Y-13074396I-40000J0D01*
G01*
X4973978Y-13328396D02*
G75*
G03X4973978Y-13328396I-40000J0D01*
G01*
X4973978Y-13582396D02*
G75*
G03X4973978Y-13582396I-40000J0D01*
G01*
X4973978Y-13836396D02*
G75*
G03X4973978Y-13836396I-40000J0D01*
G01*
X6497977Y-10534396D02*
G75*
G03X6497977Y-10534396I-40000J0D01*
G01*
X6497977Y-10788396D02*
G75*
G03X6497977Y-10788396I-40000J0D01*
G01*
X6497977Y-11042396D02*
G75*
G03X6497977Y-11042396I-40000J0D01*
G01*
X6497977Y-11296396D02*
G75*
G03X6497977Y-11296396I-40000J0D01*
G01*
X6497977Y-11550396D02*
G75*
G03X6497977Y-11550396I-40000J0D01*
G01*
X6497977Y-11804396D02*
G75*
G03X6497977Y-11804396I-40000J0D01*
G01*
X6497977Y-12058396D02*
G75*
G03X6497977Y-12058396I-40000J0D01*
G01*
X6497977Y-12312396D02*
G75*
G03X6497977Y-12312396I-40000J0D01*
G01*
X6497977Y-12566396D02*
G75*
G03X6497977Y-12566396I-40000J0D01*
G01*
X6497977Y-12820396D02*
G75*
G03X6497977Y-12820396I-40000J0D01*
G01*
X6497977Y-13074396D02*
G75*
G03X6497977Y-13074396I-40000J0D01*
G01*
X6497977Y-13328396D02*
G75*
G03X6497977Y-13328396I-40000J0D01*
G01*
X6497977Y-13582396D02*
G75*
G03X6497977Y-13582396I-40000J0D01*
G01*
X6497977Y-13836396D02*
G75*
G03X6497977Y-13836396I-40000J0D01*
G01*
X11890000Y-9285000D02*
X11890000Y-9375000D01*
X11845000Y-9330000D02*
X11935000Y-9330000D01*
X12570000Y-9285000D02*
X12570000Y-9375000D01*
X12525000Y-9330000D02*
X12615000Y-9330000D01*
X9210000Y-9285000D02*
X9210000Y-9375000D01*
X9165000Y-9330000D02*
X9255000Y-9330000D01*
X9890000Y-9285000D02*
X9890000Y-9375000D01*
X9845000Y-9330000D02*
X9935000Y-9330000D01*
X11405533Y-9548034D02*
X11405533Y-9441967D01*
X11299466Y-9441967D01*
X11299466Y-9548034D01*
X11405533Y-9548034D01*
X11405533Y-10248034D02*
X11405533Y-10141967D01*
X11299466Y-10141967D01*
X11299466Y-10248034D01*
X11405533Y-10248034D01*
X8733034Y-9548034D02*
X8733034Y-9441967D01*
X8626967Y-9441967D01*
X8626967Y-9548034D01*
X8733034Y-9548034D01*
X8733034Y-10248034D02*
X8733034Y-10141967D01*
X8626967Y-10141967D01*
X8626967Y-10248034D01*
X8733034Y-10248034D01*
X6889000Y-11017000D02*
X6999000Y-10907000D01*
X6889000Y-10797000D01*
X6779000Y-10907000D01*
X6889000Y-11017000D01*
X6889000Y-13607000D02*
X6999000Y-13497000D01*
X6889000Y-13387000D01*
X6779000Y-13497000D01*
X6889000Y-13607000D01*
D13*
X4950928Y-15689214D02*
X4950928Y-15389214D01*
X5022357Y-15389214D01*
X5065214Y-15403500D01*
X5093786Y-15432071D01*
X5108071Y-15460643D01*
X5122357Y-15517786D01*
X5122357Y-15560643D01*
X5108071Y-15617786D01*
X5093786Y-15646357D01*
X5065214Y-15674929D01*
X5022357Y-15689214D01*
X4950928Y-15689214D01*
X5250928Y-15689214D02*
X5250928Y-15489214D01*
X5250928Y-15546357D02*
X5265214Y-15517786D01*
X5279500Y-15503500D01*
X5308071Y-15489214D01*
X5336643Y-15489214D01*
X5436643Y-15689214D02*
X5436643Y-15489214D01*
X5436643Y-15389214D02*
X5422357Y-15403500D01*
X5436643Y-15417786D01*
X5450928Y-15403500D01*
X5436643Y-15389214D01*
X5436643Y-15417786D01*
X5622357Y-15689214D02*
X5593786Y-15674929D01*
X5579500Y-15646357D01*
X5579500Y-15389214D01*
X5779500Y-15689214D02*
X5750928Y-15674929D01*
X5736643Y-15646357D01*
X5736643Y-15389214D01*
X6122357Y-15689214D02*
X6122357Y-15389214D01*
X6222357Y-15603500D01*
X6322357Y-15389214D01*
X6322357Y-15689214D01*
X6593786Y-15689214D02*
X6593786Y-15532071D01*
X6579500Y-15503500D01*
X6550928Y-15489214D01*
X6493786Y-15489214D01*
X6465214Y-15503500D01*
X6593786Y-15674929D02*
X6565214Y-15689214D01*
X6493786Y-15689214D01*
X6465214Y-15674929D01*
X6450928Y-15646357D01*
X6450928Y-15617786D01*
X6465214Y-15589214D01*
X6493786Y-15574929D01*
X6565214Y-15574929D01*
X6593786Y-15560643D01*
X6736643Y-15489214D02*
X6736643Y-15789214D01*
X6736643Y-15503500D02*
X6765214Y-15489214D01*
X6822357Y-15489214D01*
X6850928Y-15503500D01*
X6865214Y-15517786D01*
X6879500Y-15546357D01*
X6879500Y-15632071D01*
X6865214Y-15660643D01*
X6850928Y-15674929D01*
X6822357Y-15689214D01*
X6765214Y-15689214D01*
X6736643Y-15674929D01*
X7008071Y-15660643D02*
X7022357Y-15674929D01*
X7008071Y-15689214D01*
X6993786Y-15674929D01*
X7008071Y-15660643D01*
X7008071Y-15689214D01*
X7008071Y-15503500D02*
X7022357Y-15517786D01*
X7008071Y-15532071D01*
X6993786Y-15517786D01*
X7008071Y-15503500D01*
X7008071Y-15532071D01*
X4624500Y-16163500D02*
X4664500Y-16203500D01*
X4664500Y-16163500D02*
X4624500Y-16203500D01*
X5008071Y-16019214D02*
X5036643Y-16019214D01*
X5065214Y-16033500D01*
X5079500Y-16047786D01*
X5093786Y-16076357D01*
X5108071Y-16133500D01*
X5108071Y-16204929D01*
X5093786Y-16262071D01*
X5079500Y-16290643D01*
X5065214Y-16304929D01*
X5036643Y-16319214D01*
X5008071Y-16319214D01*
X4979500Y-16304929D01*
X4965214Y-16290643D01*
X4950928Y-16262071D01*
X4936643Y-16204929D01*
X4936643Y-16133500D01*
X4950928Y-16076357D01*
X4965214Y-16047786D01*
X4979500Y-16033500D01*
X5008071Y-16019214D01*
X5236643Y-16290643D02*
X5250928Y-16304929D01*
X5236643Y-16319214D01*
X5222357Y-16304929D01*
X5236643Y-16290643D01*
X5236643Y-16319214D01*
X5508071Y-16119214D02*
X5508071Y-16319214D01*
X5436643Y-16004929D02*
X5365214Y-16219214D01*
X5550928Y-16219214D01*
X5722357Y-16019214D02*
X5750928Y-16019214D01*
X5779500Y-16033500D01*
X5793786Y-16047786D01*
X5808071Y-16076357D01*
X5822357Y-16133500D01*
X5822357Y-16204929D01*
X5808071Y-16262071D01*
X5793786Y-16290643D01*
X5779500Y-16304929D01*
X5750928Y-16319214D01*
X5722357Y-16319214D01*
X5693786Y-16304929D01*
X5679500Y-16290643D01*
X5665214Y-16262071D01*
X5650928Y-16204929D01*
X5650928Y-16133500D01*
X5665214Y-16076357D01*
X5679500Y-16047786D01*
X5693786Y-16033500D01*
X5722357Y-16019214D01*
X5950928Y-16319214D02*
X5950928Y-16119214D01*
X5950928Y-16147786D02*
X5965214Y-16133500D01*
X5993786Y-16119214D01*
X6036643Y-16119214D01*
X6065214Y-16133500D01*
X6079500Y-16162071D01*
X6079500Y-16319214D01*
X6079500Y-16162071D02*
X6093786Y-16133500D01*
X6122357Y-16119214D01*
X6165214Y-16119214D01*
X6193786Y-16133500D01*
X6208071Y-16162071D01*
X6208071Y-16319214D01*
X6350928Y-16319214D02*
X6350928Y-16119214D01*
X6350928Y-16147786D02*
X6365214Y-16133500D01*
X6393786Y-16119214D01*
X6436643Y-16119214D01*
X6465214Y-16133500D01*
X6479500Y-16162071D01*
X6479500Y-16319214D01*
X6479500Y-16162071D02*
X6493786Y-16133500D01*
X6522357Y-16119214D01*
X6565214Y-16119214D01*
X6593786Y-16133500D01*
X6608071Y-16162071D01*
X6608071Y-16319214D01*
X7193786Y-16004929D02*
X6936643Y-16390643D01*
X7579500Y-16019214D02*
X7608071Y-16019214D01*
X7636643Y-16033500D01*
X7650928Y-16047786D01*
X7665214Y-16076357D01*
X7679500Y-16133500D01*
X7679500Y-16204929D01*
X7665214Y-16262071D01*
X7650928Y-16290643D01*
X7636643Y-16304929D01*
X7608071Y-16319214D01*
X7579500Y-16319214D01*
X7550928Y-16304929D01*
X7536643Y-16290643D01*
X7522357Y-16262071D01*
X7508071Y-16204929D01*
X7508071Y-16133500D01*
X7522357Y-16076357D01*
X7536643Y-16047786D01*
X7550928Y-16033500D01*
X7579500Y-16019214D01*
X7808071Y-16290643D02*
X7822357Y-16304929D01*
X7808071Y-16319214D01*
X7793786Y-16304929D01*
X7808071Y-16290643D01*
X7808071Y-16319214D01*
X8008071Y-16019214D02*
X8036643Y-16019214D01*
X8065214Y-16033500D01*
X8079500Y-16047786D01*
X8093786Y-16076357D01*
X8108071Y-16133500D01*
X8108071Y-16204929D01*
X8093786Y-16262071D01*
X8079500Y-16290643D01*
X8065214Y-16304929D01*
X8036643Y-16319214D01*
X8008071Y-16319214D01*
X7979500Y-16304929D01*
X7965214Y-16290643D01*
X7950928Y-16262071D01*
X7936643Y-16204929D01*
X7936643Y-16133500D01*
X7950928Y-16076357D01*
X7965214Y-16047786D01*
X7979500Y-16033500D01*
X8008071Y-16019214D01*
X8393786Y-16319214D02*
X8222357Y-16319214D01*
X8308071Y-16319214D02*
X8308071Y-16019214D01*
X8279500Y-16062071D01*
X8250928Y-16090643D01*
X8222357Y-16104929D01*
X8650928Y-16019214D02*
X8593786Y-16019214D01*
X8565214Y-16033500D01*
X8550928Y-16047786D01*
X8522357Y-16090643D01*
X8508071Y-16147786D01*
X8508071Y-16262071D01*
X8522357Y-16290643D01*
X8536643Y-16304929D01*
X8565214Y-16319214D01*
X8622357Y-16319214D01*
X8650928Y-16304929D01*
X8665214Y-16290643D01*
X8679500Y-16262071D01*
X8679500Y-16190643D01*
X8665214Y-16162071D01*
X8650928Y-16147786D01*
X8622357Y-16133500D01*
X8565214Y-16133500D01*
X8536643Y-16147786D01*
X8522357Y-16162071D01*
X8508071Y-16190643D01*
X8793786Y-16019214D02*
X8793786Y-16076357D01*
X8908071Y-16019214D02*
X8908071Y-16076357D01*
X9350928Y-16433500D02*
X9336643Y-16419214D01*
X9308071Y-16376357D01*
X9293786Y-16347786D01*
X9279500Y-16304929D01*
X9265214Y-16233500D01*
X9265214Y-16176357D01*
X9279500Y-16104929D01*
X9293786Y-16062071D01*
X9308071Y-16033500D01*
X9336643Y-15990643D01*
X9350928Y-15976357D01*
X9622357Y-16319214D02*
X9450928Y-16319214D01*
X9536643Y-16319214D02*
X9536643Y-16019214D01*
X9508071Y-16062071D01*
X9479500Y-16090643D01*
X9450928Y-16104929D01*
X9793786Y-16147786D02*
X9765214Y-16133500D01*
X9750928Y-16119214D01*
X9736643Y-16090643D01*
X9736643Y-16076357D01*
X9750928Y-16047786D01*
X9765214Y-16033500D01*
X9793786Y-16019214D01*
X9850928Y-16019214D01*
X9879500Y-16033500D01*
X9893786Y-16047786D01*
X9908071Y-16076357D01*
X9908071Y-16090643D01*
X9893786Y-16119214D01*
X9879500Y-16133500D01*
X9850928Y-16147786D01*
X9793786Y-16147786D01*
X9765214Y-16162071D01*
X9750928Y-16176357D01*
X9736643Y-16204929D01*
X9736643Y-16262071D01*
X9750928Y-16290643D01*
X9765214Y-16304929D01*
X9793786Y-16319214D01*
X9850928Y-16319214D01*
X9879500Y-16304929D01*
X9893786Y-16290643D01*
X9908071Y-16262071D01*
X9908071Y-16204929D01*
X9893786Y-16176357D01*
X9879500Y-16162071D01*
X9850928Y-16147786D01*
X10179500Y-16019214D02*
X10036643Y-16019214D01*
X10022357Y-16162071D01*
X10036643Y-16147786D01*
X10065214Y-16133500D01*
X10136643Y-16133500D01*
X10165214Y-16147786D01*
X10179500Y-16162071D01*
X10193786Y-16190643D01*
X10193786Y-16262071D01*
X10179500Y-16290643D01*
X10165214Y-16304929D01*
X10136643Y-16319214D01*
X10065214Y-16319214D01*
X10036643Y-16304929D01*
X10022357Y-16290643D01*
X10550928Y-16319214D02*
X10550928Y-16019214D01*
X10679500Y-16319214D02*
X10679500Y-16162071D01*
X10665214Y-16133500D01*
X10636643Y-16119214D01*
X10593786Y-16119214D01*
X10565214Y-16133500D01*
X10550928Y-16147786D01*
X10865214Y-16319214D02*
X10836643Y-16304929D01*
X10822357Y-16290643D01*
X10808071Y-16262071D01*
X10808071Y-16176357D01*
X10822357Y-16147786D01*
X10836643Y-16133500D01*
X10865214Y-16119214D01*
X10908071Y-16119214D01*
X10936643Y-16133500D01*
X10950928Y-16147786D01*
X10965214Y-16176357D01*
X10965214Y-16262071D01*
X10950928Y-16290643D01*
X10936643Y-16304929D01*
X10908071Y-16319214D01*
X10865214Y-16319214D01*
X11136643Y-16319214D02*
X11108071Y-16304929D01*
X11093786Y-16276357D01*
X11093786Y-16019214D01*
X11365214Y-16304929D02*
X11336643Y-16319214D01*
X11279500Y-16319214D01*
X11250928Y-16304929D01*
X11236643Y-16276357D01*
X11236643Y-16162071D01*
X11250928Y-16133500D01*
X11279500Y-16119214D01*
X11336643Y-16119214D01*
X11365214Y-16133500D01*
X11379500Y-16162071D01*
X11379500Y-16190643D01*
X11236643Y-16219214D01*
X11493786Y-16304929D02*
X11522357Y-16319214D01*
X11579500Y-16319214D01*
X11608071Y-16304929D01*
X11622357Y-16276357D01*
X11622357Y-16262071D01*
X11608071Y-16233500D01*
X11579500Y-16219214D01*
X11536643Y-16219214D01*
X11508071Y-16204929D01*
X11493786Y-16176357D01*
X11493786Y-16162071D01*
X11508071Y-16133500D01*
X11536643Y-16119214D01*
X11579500Y-16119214D01*
X11608071Y-16133500D01*
X11722357Y-16433500D02*
X11736643Y-16419214D01*
X11765214Y-16376357D01*
X11779500Y-16347786D01*
X11793786Y-16304929D01*
X11808071Y-16233500D01*
X11808071Y-16176357D01*
X11793786Y-16104929D01*
X11779500Y-16062071D01*
X11765214Y-16033500D01*
X11736643Y-15990643D01*
X11722357Y-15976357D01*
X4664500Y-16579500D02*
G75*
G03X4664500Y-16579500I-40000J0D01*
G01*
X5008071Y-16415214D02*
X5036643Y-16415214D01*
X5065214Y-16429500D01*
X5079500Y-16443786D01*
X5093786Y-16472357D01*
X5108071Y-16529500D01*
X5108071Y-16600929D01*
X5093786Y-16658071D01*
X5079500Y-16686643D01*
X5065214Y-16700929D01*
X5036643Y-16715214D01*
X5008071Y-16715214D01*
X4979500Y-16700929D01*
X4965214Y-16686643D01*
X4950928Y-16658071D01*
X4936643Y-16600929D01*
X4936643Y-16529500D01*
X4950928Y-16472357D01*
X4965214Y-16443786D01*
X4979500Y-16429500D01*
X5008071Y-16415214D01*
X5236643Y-16686643D02*
X5250928Y-16700929D01*
X5236643Y-16715214D01*
X5222357Y-16700929D01*
X5236643Y-16686643D01*
X5236643Y-16715214D01*
X5422357Y-16543786D02*
X5393786Y-16529500D01*
X5379500Y-16515214D01*
X5365214Y-16486643D01*
X5365214Y-16472357D01*
X5379500Y-16443786D01*
X5393786Y-16429500D01*
X5422357Y-16415214D01*
X5479500Y-16415214D01*
X5508071Y-16429500D01*
X5522357Y-16443786D01*
X5536643Y-16472357D01*
X5536643Y-16486643D01*
X5522357Y-16515214D01*
X5508071Y-16529500D01*
X5479500Y-16543786D01*
X5422357Y-16543786D01*
X5393786Y-16558071D01*
X5379500Y-16572357D01*
X5365214Y-16600929D01*
X5365214Y-16658071D01*
X5379500Y-16686643D01*
X5393786Y-16700929D01*
X5422357Y-16715214D01*
X5479500Y-16715214D01*
X5508071Y-16700929D01*
X5522357Y-16686643D01*
X5536643Y-16658071D01*
X5536643Y-16600929D01*
X5522357Y-16572357D01*
X5508071Y-16558071D01*
X5479500Y-16543786D01*
X5722357Y-16415214D02*
X5750928Y-16415214D01*
X5779500Y-16429500D01*
X5793786Y-16443786D01*
X5808071Y-16472357D01*
X5822357Y-16529500D01*
X5822357Y-16600929D01*
X5808071Y-16658071D01*
X5793786Y-16686643D01*
X5779500Y-16700929D01*
X5750928Y-16715214D01*
X5722357Y-16715214D01*
X5693786Y-16700929D01*
X5679500Y-16686643D01*
X5665214Y-16658071D01*
X5650928Y-16600929D01*
X5650928Y-16529500D01*
X5665214Y-16472357D01*
X5679500Y-16443786D01*
X5693786Y-16429500D01*
X5722357Y-16415214D01*
X5950928Y-16715214D02*
X5950928Y-16515214D01*
X5950928Y-16543786D02*
X5965214Y-16529500D01*
X5993786Y-16515214D01*
X6036643Y-16515214D01*
X6065214Y-16529500D01*
X6079500Y-16558071D01*
X6079500Y-16715214D01*
X6079500Y-16558071D02*
X6093786Y-16529500D01*
X6122357Y-16515214D01*
X6165214Y-16515214D01*
X6193786Y-16529500D01*
X6208071Y-16558071D01*
X6208071Y-16715214D01*
X6350928Y-16715214D02*
X6350928Y-16515214D01*
X6350928Y-16543786D02*
X6365214Y-16529500D01*
X6393786Y-16515214D01*
X6436643Y-16515214D01*
X6465214Y-16529500D01*
X6479500Y-16558071D01*
X6479500Y-16715214D01*
X6479500Y-16558071D02*
X6493786Y-16529500D01*
X6522357Y-16515214D01*
X6565214Y-16515214D01*
X6593786Y-16529500D01*
X6608071Y-16558071D01*
X6608071Y-16715214D01*
X7193786Y-16400929D02*
X6936643Y-16786643D01*
X7579500Y-16415214D02*
X7608071Y-16415214D01*
X7636643Y-16429500D01*
X7650928Y-16443786D01*
X7665214Y-16472357D01*
X7679500Y-16529500D01*
X7679500Y-16600929D01*
X7665214Y-16658071D01*
X7650928Y-16686643D01*
X7636643Y-16700929D01*
X7608071Y-16715214D01*
X7579500Y-16715214D01*
X7550928Y-16700929D01*
X7536643Y-16686643D01*
X7522357Y-16658071D01*
X7508071Y-16600929D01*
X7508071Y-16529500D01*
X7522357Y-16472357D01*
X7536643Y-16443786D01*
X7550928Y-16429500D01*
X7579500Y-16415214D01*
X7808071Y-16686643D02*
X7822357Y-16700929D01*
X7808071Y-16715214D01*
X7793786Y-16700929D01*
X7808071Y-16686643D01*
X7808071Y-16715214D01*
X8008071Y-16415214D02*
X8036643Y-16415214D01*
X8065214Y-16429500D01*
X8079500Y-16443786D01*
X8093786Y-16472357D01*
X8108071Y-16529500D01*
X8108071Y-16600929D01*
X8093786Y-16658071D01*
X8079500Y-16686643D01*
X8065214Y-16700929D01*
X8036643Y-16715214D01*
X8008071Y-16715214D01*
X7979500Y-16700929D01*
X7965214Y-16686643D01*
X7950928Y-16658071D01*
X7936643Y-16600929D01*
X7936643Y-16529500D01*
X7950928Y-16472357D01*
X7965214Y-16443786D01*
X7979500Y-16429500D01*
X8008071Y-16415214D01*
X8208071Y-16415214D02*
X8393786Y-16415214D01*
X8293786Y-16529500D01*
X8336643Y-16529500D01*
X8365214Y-16543786D01*
X8379500Y-16558071D01*
X8393786Y-16586643D01*
X8393786Y-16658071D01*
X8379500Y-16686643D01*
X8365214Y-16700929D01*
X8336643Y-16715214D01*
X8250928Y-16715214D01*
X8222357Y-16700929D01*
X8208071Y-16686643D01*
X8679500Y-16715214D02*
X8508071Y-16715214D01*
X8593786Y-16715214D02*
X8593786Y-16415214D01*
X8565214Y-16458071D01*
X8536643Y-16486643D01*
X8508071Y-16500929D01*
X8793786Y-16415214D02*
X8793786Y-16472357D01*
X8908071Y-16415214D02*
X8908071Y-16472357D01*
X9350928Y-16829500D02*
X9336643Y-16815214D01*
X9308071Y-16772357D01*
X9293786Y-16743786D01*
X9279500Y-16700929D01*
X9265214Y-16629500D01*
X9265214Y-16572357D01*
X9279500Y-16500929D01*
X9293786Y-16458071D01*
X9308071Y-16429500D01*
X9336643Y-16386643D01*
X9350928Y-16372357D01*
X9450928Y-16443786D02*
X9465214Y-16429500D01*
X9493786Y-16415214D01*
X9565214Y-16415214D01*
X9593786Y-16429500D01*
X9608071Y-16443786D01*
X9622357Y-16472357D01*
X9622357Y-16500929D01*
X9608071Y-16543786D01*
X9436643Y-16715214D01*
X9622357Y-16715214D01*
X9793786Y-16543786D02*
X9765214Y-16529500D01*
X9750928Y-16515214D01*
X9736643Y-16486643D01*
X9736643Y-16472357D01*
X9750928Y-16443786D01*
X9765214Y-16429500D01*
X9793786Y-16415214D01*
X9850928Y-16415214D01*
X9879500Y-16429500D01*
X9893786Y-16443786D01*
X9908071Y-16472357D01*
X9908071Y-16486643D01*
X9893786Y-16515214D01*
X9879500Y-16529500D01*
X9850928Y-16543786D01*
X9793786Y-16543786D01*
X9765214Y-16558071D01*
X9750928Y-16572357D01*
X9736643Y-16600929D01*
X9736643Y-16658071D01*
X9750928Y-16686643D01*
X9765214Y-16700929D01*
X9793786Y-16715214D01*
X9850928Y-16715214D01*
X9879500Y-16700929D01*
X9893786Y-16686643D01*
X9908071Y-16658071D01*
X9908071Y-16600929D01*
X9893786Y-16572357D01*
X9879500Y-16558071D01*
X9850928Y-16543786D01*
X10265214Y-16715214D02*
X10265214Y-16415214D01*
X10393786Y-16715214D02*
X10393786Y-16558071D01*
X10379500Y-16529500D01*
X10350928Y-16515214D01*
X10308071Y-16515214D01*
X10279500Y-16529500D01*
X10265214Y-16543786D01*
X10579500Y-16715214D02*
X10550928Y-16700929D01*
X10536643Y-16686643D01*
X10522357Y-16658071D01*
X10522357Y-16572357D01*
X10536643Y-16543786D01*
X10550928Y-16529500D01*
X10579500Y-16515214D01*
X10622357Y-16515214D01*
X10650928Y-16529500D01*
X10665214Y-16543786D01*
X10679500Y-16572357D01*
X10679500Y-16658071D01*
X10665214Y-16686643D01*
X10650928Y-16700929D01*
X10622357Y-16715214D01*
X10579500Y-16715214D01*
X10850928Y-16715214D02*
X10822357Y-16700929D01*
X10808071Y-16672357D01*
X10808071Y-16415214D01*
X11079500Y-16700929D02*
X11050928Y-16715214D01*
X10993786Y-16715214D01*
X10965214Y-16700929D01*
X10950928Y-16672357D01*
X10950928Y-16558071D01*
X10965214Y-16529500D01*
X10993786Y-16515214D01*
X11050928Y-16515214D01*
X11079500Y-16529500D01*
X11093786Y-16558071D01*
X11093786Y-16586643D01*
X10950928Y-16615214D01*
X11208071Y-16700929D02*
X11236643Y-16715214D01*
X11293786Y-16715214D01*
X11322357Y-16700929D01*
X11336643Y-16672357D01*
X11336643Y-16658071D01*
X11322357Y-16629500D01*
X11293786Y-16615214D01*
X11250928Y-16615214D01*
X11222357Y-16600929D01*
X11208071Y-16572357D01*
X11208071Y-16558071D01*
X11222357Y-16529500D01*
X11250928Y-16515214D01*
X11293786Y-16515214D01*
X11322357Y-16529500D01*
X11436643Y-16829500D02*
X11450928Y-16815214D01*
X11479500Y-16772357D01*
X11493786Y-16743786D01*
X11508071Y-16700929D01*
X11522357Y-16629500D01*
X11522357Y-16572357D01*
X11508071Y-16500929D01*
X11493786Y-16458071D01*
X11479500Y-16429500D01*
X11450928Y-16386643D01*
X11436643Y-16372357D01*
X4619500Y-16930500D02*
X4619500Y-17020500D01*
X4574500Y-16975500D02*
X4664500Y-16975500D01*
X5008071Y-16811214D02*
X5036643Y-16811214D01*
X5065214Y-16825500D01*
X5079500Y-16839786D01*
X5093786Y-16868357D01*
X5108071Y-16925500D01*
X5108071Y-16996929D01*
X5093786Y-17054072D01*
X5079500Y-17082643D01*
X5065214Y-17096929D01*
X5036643Y-17111214D01*
X5008071Y-17111214D01*
X4979500Y-17096929D01*
X4965214Y-17082643D01*
X4950928Y-17054072D01*
X4936643Y-16996929D01*
X4936643Y-16925500D01*
X4950928Y-16868357D01*
X4965214Y-16839786D01*
X4979500Y-16825500D01*
X5008071Y-16811214D01*
X5236643Y-17082643D02*
X5250928Y-17096929D01*
X5236643Y-17111214D01*
X5222357Y-17096929D01*
X5236643Y-17082643D01*
X5236643Y-17111214D01*
X5393786Y-17111214D02*
X5450928Y-17111214D01*
X5479500Y-17096929D01*
X5493786Y-17082643D01*
X5522357Y-17039786D01*
X5536643Y-16982643D01*
X5536643Y-16868357D01*
X5522357Y-16839786D01*
X5508071Y-16825500D01*
X5479500Y-16811214D01*
X5422357Y-16811214D01*
X5393786Y-16825500D01*
X5379500Y-16839786D01*
X5365214Y-16868357D01*
X5365214Y-16939786D01*
X5379500Y-16968357D01*
X5393786Y-16982643D01*
X5422357Y-16996929D01*
X5479500Y-16996929D01*
X5508071Y-16982643D01*
X5522357Y-16968357D01*
X5536643Y-16939786D01*
X5722357Y-16811214D02*
X5750928Y-16811214D01*
X5779500Y-16825500D01*
X5793786Y-16839786D01*
X5808071Y-16868357D01*
X5822357Y-16925500D01*
X5822357Y-16996929D01*
X5808071Y-17054072D01*
X5793786Y-17082643D01*
X5779500Y-17096929D01*
X5750928Y-17111214D01*
X5722357Y-17111214D01*
X5693786Y-17096929D01*
X5679500Y-17082643D01*
X5665214Y-17054072D01*
X5650928Y-16996929D01*
X5650928Y-16925500D01*
X5665214Y-16868357D01*
X5679500Y-16839786D01*
X5693786Y-16825500D01*
X5722357Y-16811214D01*
X5950928Y-17111214D02*
X5950928Y-16911214D01*
X5950928Y-16939786D02*
X5965214Y-16925500D01*
X5993786Y-16911214D01*
X6036643Y-16911214D01*
X6065214Y-16925500D01*
X6079500Y-16954072D01*
X6079500Y-17111214D01*
X6079500Y-16954072D02*
X6093786Y-16925500D01*
X6122357Y-16911214D01*
X6165214Y-16911214D01*
X6193786Y-16925500D01*
X6208071Y-16954072D01*
X6208071Y-17111214D01*
X6350928Y-17111214D02*
X6350928Y-16911214D01*
X6350928Y-16939786D02*
X6365214Y-16925500D01*
X6393786Y-16911214D01*
X6436643Y-16911214D01*
X6465214Y-16925500D01*
X6479500Y-16954072D01*
X6479500Y-17111214D01*
X6479500Y-16954072D02*
X6493786Y-16925500D01*
X6522357Y-16911214D01*
X6565214Y-16911214D01*
X6593786Y-16925500D01*
X6608071Y-16954072D01*
X6608071Y-17111214D01*
X7193786Y-16796929D02*
X6936643Y-17182643D01*
X7579500Y-16811214D02*
X7608071Y-16811214D01*
X7636643Y-16825500D01*
X7650928Y-16839786D01*
X7665214Y-16868357D01*
X7679500Y-16925500D01*
X7679500Y-16996929D01*
X7665214Y-17054072D01*
X7650928Y-17082643D01*
X7636643Y-17096929D01*
X7608071Y-17111214D01*
X7579500Y-17111214D01*
X7550928Y-17096929D01*
X7536643Y-17082643D01*
X7522357Y-17054072D01*
X7508071Y-16996929D01*
X7508071Y-16925500D01*
X7522357Y-16868357D01*
X7536643Y-16839786D01*
X7550928Y-16825500D01*
X7579500Y-16811214D01*
X7808071Y-17082643D02*
X7822357Y-17096929D01*
X7808071Y-17111214D01*
X7793786Y-17096929D01*
X7808071Y-17082643D01*
X7808071Y-17111214D01*
X8008071Y-16811214D02*
X8036643Y-16811214D01*
X8065214Y-16825500D01*
X8079500Y-16839786D01*
X8093786Y-16868357D01*
X8108071Y-16925500D01*
X8108071Y-16996929D01*
X8093786Y-17054072D01*
X8079500Y-17082643D01*
X8065214Y-17096929D01*
X8036643Y-17111214D01*
X8008071Y-17111214D01*
X7979500Y-17096929D01*
X7965214Y-17082643D01*
X7950928Y-17054072D01*
X7936643Y-16996929D01*
X7936643Y-16925500D01*
X7950928Y-16868357D01*
X7965214Y-16839786D01*
X7979500Y-16825500D01*
X8008071Y-16811214D01*
X8208071Y-16811214D02*
X8393786Y-16811214D01*
X8293786Y-16925500D01*
X8336643Y-16925500D01*
X8365214Y-16939786D01*
X8379500Y-16954072D01*
X8393786Y-16982643D01*
X8393786Y-17054072D01*
X8379500Y-17082643D01*
X8365214Y-17096929D01*
X8336643Y-17111214D01*
X8250928Y-17111214D01*
X8222357Y-17096929D01*
X8208071Y-17082643D01*
X8665214Y-16811214D02*
X8522357Y-16811214D01*
X8508071Y-16954072D01*
X8522357Y-16939786D01*
X8550928Y-16925500D01*
X8622357Y-16925500D01*
X8650928Y-16939786D01*
X8665214Y-16954072D01*
X8679500Y-16982643D01*
X8679500Y-17054072D01*
X8665214Y-17082643D01*
X8650928Y-17096929D01*
X8622357Y-17111214D01*
X8550928Y-17111214D01*
X8522357Y-17096929D01*
X8508071Y-17082643D01*
X8793786Y-16811214D02*
X8793786Y-16868357D01*
X8908071Y-16811214D02*
X8908071Y-16868357D01*
X9350928Y-17225500D02*
X9336643Y-17211214D01*
X9308071Y-17168357D01*
X9293786Y-17139786D01*
X9279500Y-17096929D01*
X9265214Y-17025500D01*
X9265214Y-16968357D01*
X9279500Y-16896929D01*
X9293786Y-16854072D01*
X9308071Y-16825500D01*
X9336643Y-16782643D01*
X9350928Y-16768357D01*
X9593786Y-16911214D02*
X9593786Y-17111214D01*
X9522357Y-16796929D02*
X9450928Y-17011214D01*
X9636643Y-17011214D01*
X9979500Y-17111214D02*
X9979500Y-16811214D01*
X10108071Y-17111214D02*
X10108071Y-16954072D01*
X10093786Y-16925500D01*
X10065214Y-16911214D01*
X10022357Y-16911214D01*
X9993786Y-16925500D01*
X9979500Y-16939786D01*
X10293786Y-17111214D02*
X10265214Y-17096929D01*
X10250928Y-17082643D01*
X10236643Y-17054072D01*
X10236643Y-16968357D01*
X10250928Y-16939786D01*
X10265214Y-16925500D01*
X10293786Y-16911214D01*
X10336643Y-16911214D01*
X10365214Y-16925500D01*
X10379500Y-16939786D01*
X10393786Y-16968357D01*
X10393786Y-17054072D01*
X10379500Y-17082643D01*
X10365214Y-17096929D01*
X10336643Y-17111214D01*
X10293786Y-17111214D01*
X10565214Y-17111214D02*
X10536643Y-17096929D01*
X10522357Y-17068357D01*
X10522357Y-16811214D01*
X10793786Y-17096929D02*
X10765214Y-17111214D01*
X10708071Y-17111214D01*
X10679500Y-17096929D01*
X10665214Y-17068357D01*
X10665214Y-16954072D01*
X10679500Y-16925500D01*
X10708071Y-16911214D01*
X10765214Y-16911214D01*
X10793786Y-16925500D01*
X10808071Y-16954072D01*
X10808071Y-16982643D01*
X10665214Y-17011214D01*
X10922357Y-17096929D02*
X10950928Y-17111214D01*
X11008071Y-17111214D01*
X11036643Y-17096929D01*
X11050928Y-17068357D01*
X11050928Y-17054072D01*
X11036643Y-17025500D01*
X11008071Y-17011214D01*
X10965214Y-17011214D01*
X10936643Y-16996929D01*
X10922357Y-16968357D01*
X10922357Y-16954072D01*
X10936643Y-16925500D01*
X10965214Y-16911214D01*
X11008071Y-16911214D01*
X11036643Y-16925500D01*
X11150928Y-17225500D02*
X11165214Y-17211214D01*
X11193786Y-17168357D01*
X11208071Y-17139786D01*
X11222357Y-17096929D01*
X11236643Y-17025500D01*
X11236643Y-16968357D01*
X11222357Y-16896929D01*
X11208071Y-16854072D01*
X11193786Y-16825500D01*
X11165214Y-16782643D01*
X11150928Y-16768357D01*
X11693786Y-17225500D02*
X11679500Y-17211214D01*
X11650928Y-17168357D01*
X11636643Y-17139786D01*
X11622357Y-17096929D01*
X11608071Y-17025500D01*
X11608071Y-16968357D01*
X11622357Y-16896929D01*
X11636643Y-16854072D01*
X11650928Y-16825500D01*
X11679500Y-16782643D01*
X11693786Y-16768357D01*
X11808071Y-16911214D02*
X11808071Y-17111214D01*
X11808071Y-16939786D02*
X11822357Y-16925500D01*
X11850928Y-16911214D01*
X11893786Y-16911214D01*
X11922357Y-16925500D01*
X11936643Y-16954072D01*
X11936643Y-17111214D01*
X12122357Y-17111214D02*
X12093786Y-17096929D01*
X12079500Y-17082643D01*
X12065214Y-17054072D01*
X12065214Y-16968357D01*
X12079500Y-16939786D01*
X12093786Y-16925500D01*
X12122357Y-16911214D01*
X12165214Y-16911214D01*
X12193786Y-16925500D01*
X12208071Y-16939786D01*
X12222357Y-16968357D01*
X12222357Y-17054072D01*
X12208071Y-17082643D01*
X12193786Y-17096929D01*
X12165214Y-17111214D01*
X12122357Y-17111214D01*
X12308071Y-16911214D02*
X12422357Y-16911214D01*
X12350928Y-16811214D02*
X12350928Y-17068357D01*
X12365214Y-17096929D01*
X12393786Y-17111214D01*
X12422357Y-17111214D01*
X12750928Y-16911214D02*
X12750928Y-17211214D01*
X12750928Y-16925500D02*
X12779500Y-16911214D01*
X12836643Y-16911214D01*
X12865214Y-16925500D01*
X12879500Y-16939786D01*
X12893786Y-16968357D01*
X12893786Y-17054072D01*
X12879500Y-17082643D01*
X12865214Y-17096929D01*
X12836643Y-17111214D01*
X12779500Y-17111214D01*
X12750928Y-17096929D01*
X13065214Y-17111214D02*
X13036643Y-17096929D01*
X13022357Y-17068357D01*
X13022357Y-16811214D01*
X13308071Y-17111214D02*
X13308071Y-16954072D01*
X13293786Y-16925500D01*
X13265214Y-16911214D01*
X13208071Y-16911214D01*
X13179500Y-16925500D01*
X13308071Y-17096929D02*
X13279500Y-17111214D01*
X13208071Y-17111214D01*
X13179500Y-17096929D01*
X13165214Y-17068357D01*
X13165214Y-17039786D01*
X13179500Y-17011214D01*
X13208071Y-16996929D01*
X13279500Y-16996929D01*
X13308071Y-16982643D01*
X13408071Y-16911214D02*
X13522357Y-16911214D01*
X13450928Y-16811214D02*
X13450928Y-17068357D01*
X13465214Y-17096929D01*
X13493786Y-17111214D01*
X13522357Y-17111214D01*
X13736643Y-17096929D02*
X13708071Y-17111214D01*
X13650928Y-17111214D01*
X13622357Y-17096929D01*
X13608071Y-17068357D01*
X13608071Y-16954072D01*
X13622357Y-16925500D01*
X13650928Y-16911214D01*
X13708071Y-16911214D01*
X13736643Y-16925500D01*
X13750928Y-16954072D01*
X13750928Y-16982643D01*
X13608071Y-17011214D01*
X14008071Y-17111214D02*
X14008071Y-16811214D01*
X14008071Y-17096929D02*
X13979500Y-17111214D01*
X13922357Y-17111214D01*
X13893786Y-17096929D01*
X13879500Y-17082643D01*
X13865214Y-17054072D01*
X13865214Y-16968357D01*
X13879500Y-16939786D01*
X13893786Y-16925500D01*
X13922357Y-16911214D01*
X13979500Y-16911214D01*
X14008071Y-16925500D01*
X14122357Y-17225500D02*
X14136643Y-17211214D01*
X14165214Y-17168357D01*
X14179500Y-17139786D01*
X14193786Y-17096929D01*
X14208071Y-17025500D01*
X14208071Y-16968357D01*
X14193786Y-16896929D01*
X14179500Y-16854072D01*
X14165214Y-16825500D01*
X14136643Y-16782643D01*
X14122357Y-16768357D01*
X4642533Y-17424534D02*
X4642533Y-17318467D01*
X4536466Y-17318467D01*
X4536466Y-17424534D01*
X4642533Y-17424534D01*
X5108071Y-17507214D02*
X4936643Y-17507214D01*
X5022357Y-17507214D02*
X5022357Y-17207214D01*
X4993786Y-17250072D01*
X4965214Y-17278643D01*
X4936643Y-17292929D01*
X5236643Y-17478643D02*
X5250928Y-17492929D01*
X5236643Y-17507214D01*
X5222357Y-17492929D01*
X5236643Y-17478643D01*
X5236643Y-17507214D01*
X5522357Y-17207214D02*
X5379500Y-17207214D01*
X5365214Y-17350072D01*
X5379500Y-17335786D01*
X5408071Y-17321500D01*
X5479500Y-17321500D01*
X5508071Y-17335786D01*
X5522357Y-17350072D01*
X5536643Y-17378643D01*
X5536643Y-17450072D01*
X5522357Y-17478643D01*
X5508071Y-17492929D01*
X5479500Y-17507214D01*
X5408071Y-17507214D01*
X5379500Y-17492929D01*
X5365214Y-17478643D01*
X5722357Y-17207214D02*
X5750928Y-17207214D01*
X5779500Y-17221500D01*
X5793786Y-17235786D01*
X5808071Y-17264357D01*
X5822357Y-17321500D01*
X5822357Y-17392929D01*
X5808071Y-17450072D01*
X5793786Y-17478643D01*
X5779500Y-17492929D01*
X5750928Y-17507214D01*
X5722357Y-17507214D01*
X5693786Y-17492929D01*
X5679500Y-17478643D01*
X5665214Y-17450072D01*
X5650928Y-17392929D01*
X5650928Y-17321500D01*
X5665214Y-17264357D01*
X5679500Y-17235786D01*
X5693786Y-17221500D01*
X5722357Y-17207214D01*
X5950928Y-17507214D02*
X5950928Y-17307214D01*
X5950928Y-17335786D02*
X5965214Y-17321500D01*
X5993786Y-17307214D01*
X6036643Y-17307214D01*
X6065214Y-17321500D01*
X6079500Y-17350072D01*
X6079500Y-17507214D01*
X6079500Y-17350072D02*
X6093786Y-17321500D01*
X6122357Y-17307214D01*
X6165214Y-17307214D01*
X6193786Y-17321500D01*
X6208071Y-17350072D01*
X6208071Y-17507214D01*
X6350928Y-17507214D02*
X6350928Y-17307214D01*
X6350928Y-17335786D02*
X6365214Y-17321500D01*
X6393786Y-17307214D01*
X6436643Y-17307214D01*
X6465214Y-17321500D01*
X6479500Y-17350072D01*
X6479500Y-17507214D01*
X6479500Y-17350072D02*
X6493786Y-17321500D01*
X6522357Y-17307214D01*
X6565214Y-17307214D01*
X6593786Y-17321500D01*
X6608071Y-17350072D01*
X6608071Y-17507214D01*
X7193786Y-17192929D02*
X6936643Y-17578643D01*
X7579500Y-17207214D02*
X7608071Y-17207214D01*
X7636643Y-17221500D01*
X7650928Y-17235786D01*
X7665214Y-17264357D01*
X7679500Y-17321500D01*
X7679500Y-17392929D01*
X7665214Y-17450072D01*
X7650928Y-17478643D01*
X7636643Y-17492929D01*
X7608071Y-17507214D01*
X7579500Y-17507214D01*
X7550928Y-17492929D01*
X7536643Y-17478643D01*
X7522357Y-17450072D01*
X7508071Y-17392929D01*
X7508071Y-17321500D01*
X7522357Y-17264357D01*
X7536643Y-17235786D01*
X7550928Y-17221500D01*
X7579500Y-17207214D01*
X7808071Y-17478643D02*
X7822357Y-17492929D01*
X7808071Y-17507214D01*
X7793786Y-17492929D01*
X7808071Y-17478643D01*
X7808071Y-17507214D01*
X8008071Y-17207214D02*
X8036643Y-17207214D01*
X8065214Y-17221500D01*
X8079500Y-17235786D01*
X8093786Y-17264357D01*
X8108071Y-17321500D01*
X8108071Y-17392929D01*
X8093786Y-17450072D01*
X8079500Y-17478643D01*
X8065214Y-17492929D01*
X8036643Y-17507214D01*
X8008071Y-17507214D01*
X7979500Y-17492929D01*
X7965214Y-17478643D01*
X7950928Y-17450072D01*
X7936643Y-17392929D01*
X7936643Y-17321500D01*
X7950928Y-17264357D01*
X7965214Y-17235786D01*
X7979500Y-17221500D01*
X8008071Y-17207214D01*
X8379500Y-17207214D02*
X8236643Y-17207214D01*
X8222357Y-17350072D01*
X8236643Y-17335786D01*
X8265214Y-17321500D01*
X8336643Y-17321500D01*
X8365214Y-17335786D01*
X8379500Y-17350072D01*
X8393786Y-17378643D01*
X8393786Y-17450072D01*
X8379500Y-17478643D01*
X8365214Y-17492929D01*
X8336643Y-17507214D01*
X8265214Y-17507214D01*
X8236643Y-17492929D01*
X8222357Y-17478643D01*
X8536643Y-17507214D02*
X8593786Y-17507214D01*
X8622357Y-17492929D01*
X8636643Y-17478643D01*
X8665214Y-17435786D01*
X8679500Y-17378643D01*
X8679500Y-17264357D01*
X8665214Y-17235786D01*
X8650928Y-17221500D01*
X8622357Y-17207214D01*
X8565214Y-17207214D01*
X8536643Y-17221500D01*
X8522357Y-17235786D01*
X8508071Y-17264357D01*
X8508071Y-17335786D01*
X8522357Y-17364357D01*
X8536643Y-17378643D01*
X8565214Y-17392929D01*
X8622357Y-17392929D01*
X8650928Y-17378643D01*
X8665214Y-17364357D01*
X8679500Y-17335786D01*
X8793786Y-17207214D02*
X8793786Y-17264357D01*
X8908071Y-17207214D02*
X8908071Y-17264357D01*
X9350928Y-17621500D02*
X9336643Y-17607214D01*
X9308071Y-17564357D01*
X9293786Y-17535786D01*
X9279500Y-17492929D01*
X9265214Y-17421500D01*
X9265214Y-17364357D01*
X9279500Y-17292929D01*
X9293786Y-17250072D01*
X9308071Y-17221500D01*
X9336643Y-17178643D01*
X9350928Y-17164357D01*
X9593786Y-17307214D02*
X9593786Y-17507214D01*
X9522357Y-17192929D02*
X9450928Y-17407214D01*
X9636643Y-17407214D01*
X9979500Y-17507214D02*
X9979500Y-17207214D01*
X10108071Y-17507214D02*
X10108071Y-17350072D01*
X10093786Y-17321500D01*
X10065214Y-17307214D01*
X10022357Y-17307214D01*
X9993786Y-17321500D01*
X9979500Y-17335786D01*
X10293786Y-17507214D02*
X10265214Y-17492929D01*
X10250928Y-17478643D01*
X10236643Y-17450072D01*
X10236643Y-17364357D01*
X10250928Y-17335786D01*
X10265214Y-17321500D01*
X10293786Y-17307214D01*
X10336643Y-17307214D01*
X10365214Y-17321500D01*
X10379500Y-17335786D01*
X10393786Y-17364357D01*
X10393786Y-17450072D01*
X10379500Y-17478643D01*
X10365214Y-17492929D01*
X10336643Y-17507214D01*
X10293786Y-17507214D01*
X10565214Y-17507214D02*
X10536643Y-17492929D01*
X10522357Y-17464357D01*
X10522357Y-17207214D01*
X10793786Y-17492929D02*
X10765214Y-17507214D01*
X10708071Y-17507214D01*
X10679500Y-17492929D01*
X10665214Y-17464357D01*
X10665214Y-17350072D01*
X10679500Y-17321500D01*
X10708071Y-17307214D01*
X10765214Y-17307214D01*
X10793786Y-17321500D01*
X10808071Y-17350072D01*
X10808071Y-17378643D01*
X10665214Y-17407214D01*
X10922357Y-17492929D02*
X10950928Y-17507214D01*
X11008071Y-17507214D01*
X11036643Y-17492929D01*
X11050928Y-17464357D01*
X11050928Y-17450072D01*
X11036643Y-17421500D01*
X11008071Y-17407214D01*
X10965214Y-17407214D01*
X10936643Y-17392929D01*
X10922357Y-17364357D01*
X10922357Y-17350072D01*
X10936643Y-17321500D01*
X10965214Y-17307214D01*
X11008071Y-17307214D01*
X11036643Y-17321500D01*
X11150928Y-17621500D02*
X11165214Y-17607214D01*
X11193786Y-17564357D01*
X11208071Y-17535786D01*
X11222357Y-17492929D01*
X11236643Y-17421500D01*
X11236643Y-17364357D01*
X11222357Y-17292929D01*
X11208071Y-17250072D01*
X11193786Y-17221500D01*
X11165214Y-17178643D01*
X11150928Y-17164357D01*
X11693786Y-17621500D02*
X11679500Y-17607214D01*
X11650928Y-17564357D01*
X11636643Y-17535786D01*
X11622357Y-17492929D01*
X11608071Y-17421500D01*
X11608071Y-17364357D01*
X11622357Y-17292929D01*
X11636643Y-17250072D01*
X11650928Y-17221500D01*
X11679500Y-17178643D01*
X11693786Y-17164357D01*
X11808071Y-17307214D02*
X11808071Y-17507214D01*
X11808071Y-17335786D02*
X11822357Y-17321500D01*
X11850928Y-17307214D01*
X11893786Y-17307214D01*
X11922357Y-17321500D01*
X11936643Y-17350072D01*
X11936643Y-17507214D01*
X12122357Y-17507214D02*
X12093786Y-17492929D01*
X12079500Y-17478643D01*
X12065214Y-17450072D01*
X12065214Y-17364357D01*
X12079500Y-17335786D01*
X12093786Y-17321500D01*
X12122357Y-17307214D01*
X12165214Y-17307214D01*
X12193786Y-17321500D01*
X12208071Y-17335786D01*
X12222357Y-17364357D01*
X12222357Y-17450072D01*
X12208071Y-17478643D01*
X12193786Y-17492929D01*
X12165214Y-17507214D01*
X12122357Y-17507214D01*
X12308071Y-17307214D02*
X12422357Y-17307214D01*
X12350928Y-17207214D02*
X12350928Y-17464357D01*
X12365214Y-17492929D01*
X12393786Y-17507214D01*
X12422357Y-17507214D01*
X12750928Y-17307214D02*
X12750928Y-17607214D01*
X12750928Y-17321500D02*
X12779500Y-17307214D01*
X12836643Y-17307214D01*
X12865214Y-17321500D01*
X12879500Y-17335786D01*
X12893786Y-17364357D01*
X12893786Y-17450072D01*
X12879500Y-17478643D01*
X12865214Y-17492929D01*
X12836643Y-17507214D01*
X12779500Y-17507214D01*
X12750928Y-17492929D01*
X13065214Y-17507214D02*
X13036643Y-17492929D01*
X13022357Y-17464357D01*
X13022357Y-17207214D01*
X13308071Y-17507214D02*
X13308071Y-17350072D01*
X13293786Y-17321500D01*
X13265214Y-17307214D01*
X13208071Y-17307214D01*
X13179500Y-17321500D01*
X13308071Y-17492929D02*
X13279500Y-17507214D01*
X13208071Y-17507214D01*
X13179500Y-17492929D01*
X13165214Y-17464357D01*
X13165214Y-17435786D01*
X13179500Y-17407214D01*
X13208071Y-17392929D01*
X13279500Y-17392929D01*
X13308071Y-17378643D01*
X13408071Y-17307214D02*
X13522357Y-17307214D01*
X13450928Y-17207214D02*
X13450928Y-17464357D01*
X13465214Y-17492929D01*
X13493786Y-17507214D01*
X13522357Y-17507214D01*
X13736643Y-17492929D02*
X13708071Y-17507214D01*
X13650928Y-17507214D01*
X13622357Y-17492929D01*
X13608071Y-17464357D01*
X13608071Y-17350072D01*
X13622357Y-17321500D01*
X13650928Y-17307214D01*
X13708071Y-17307214D01*
X13736643Y-17321500D01*
X13750928Y-17350072D01*
X13750928Y-17378643D01*
X13608071Y-17407214D01*
X14008071Y-17507214D02*
X14008071Y-17207214D01*
X14008071Y-17492929D02*
X13979500Y-17507214D01*
X13922357Y-17507214D01*
X13893786Y-17492929D01*
X13879500Y-17478643D01*
X13865214Y-17450072D01*
X13865214Y-17364357D01*
X13879500Y-17335786D01*
X13893786Y-17321500D01*
X13922357Y-17307214D01*
X13979500Y-17307214D01*
X14008071Y-17321500D01*
X14122357Y-17621500D02*
X14136643Y-17607214D01*
X14165214Y-17564357D01*
X14179500Y-17535786D01*
X14193786Y-17492929D01*
X14208071Y-17421500D01*
X14208071Y-17364357D01*
X14193786Y-17292929D01*
X14179500Y-17250072D01*
X14165214Y-17221500D01*
X14136643Y-17178643D01*
X14122357Y-17164357D01*
X4554500Y-17877500D02*
X4664500Y-17767500D01*
X4554500Y-17657500D01*
X4444500Y-17767500D01*
X4554500Y-17877500D01*
X4936643Y-17631786D02*
X4950928Y-17617500D01*
X4979500Y-17603214D01*
X5050928Y-17603214D01*
X5079500Y-17617500D01*
X5093786Y-17631786D01*
X5108071Y-17660357D01*
X5108071Y-17688929D01*
X5093786Y-17731786D01*
X4922357Y-17903214D01*
X5108071Y-17903214D01*
X5236643Y-17874643D02*
X5250928Y-17888929D01*
X5236643Y-17903214D01*
X5222357Y-17888929D01*
X5236643Y-17874643D01*
X5236643Y-17903214D01*
X5365214Y-17631786D02*
X5379500Y-17617500D01*
X5408071Y-17603214D01*
X5479500Y-17603214D01*
X5508071Y-17617500D01*
X5522357Y-17631786D01*
X5536643Y-17660357D01*
X5536643Y-17688929D01*
X5522357Y-17731786D01*
X5350928Y-17903214D01*
X5536643Y-17903214D01*
X5722357Y-17603214D02*
X5750928Y-17603214D01*
X5779500Y-17617500D01*
X5793786Y-17631786D01*
X5808071Y-17660357D01*
X5822357Y-17717500D01*
X5822357Y-17788929D01*
X5808071Y-17846072D01*
X5793786Y-17874643D01*
X5779500Y-17888929D01*
X5750928Y-17903214D01*
X5722357Y-17903214D01*
X5693786Y-17888929D01*
X5679500Y-17874643D01*
X5665214Y-17846072D01*
X5650928Y-17788929D01*
X5650928Y-17717500D01*
X5665214Y-17660357D01*
X5679500Y-17631786D01*
X5693786Y-17617500D01*
X5722357Y-17603214D01*
X5950928Y-17903214D02*
X5950928Y-17703214D01*
X5950928Y-17731786D02*
X5965214Y-17717500D01*
X5993786Y-17703214D01*
X6036643Y-17703214D01*
X6065214Y-17717500D01*
X6079500Y-17746072D01*
X6079500Y-17903214D01*
X6079500Y-17746072D02*
X6093786Y-17717500D01*
X6122357Y-17703214D01*
X6165214Y-17703214D01*
X6193786Y-17717500D01*
X6208071Y-17746072D01*
X6208071Y-17903214D01*
X6350928Y-17903214D02*
X6350928Y-17703214D01*
X6350928Y-17731786D02*
X6365214Y-17717500D01*
X6393786Y-17703214D01*
X6436643Y-17703214D01*
X6465214Y-17717500D01*
X6479500Y-17746072D01*
X6479500Y-17903214D01*
X6479500Y-17746072D02*
X6493786Y-17717500D01*
X6522357Y-17703214D01*
X6565214Y-17703214D01*
X6593786Y-17717500D01*
X6608071Y-17746072D01*
X6608071Y-17903214D01*
X7193786Y-17588929D02*
X6936643Y-17974643D01*
X7579500Y-17603214D02*
X7608071Y-17603214D01*
X7636643Y-17617500D01*
X7650928Y-17631786D01*
X7665214Y-17660357D01*
X7679500Y-17717500D01*
X7679500Y-17788929D01*
X7665214Y-17846072D01*
X7650928Y-17874643D01*
X7636643Y-17888929D01*
X7608071Y-17903214D01*
X7579500Y-17903214D01*
X7550928Y-17888929D01*
X7536643Y-17874643D01*
X7522357Y-17846072D01*
X7508071Y-17788929D01*
X7508071Y-17717500D01*
X7522357Y-17660357D01*
X7536643Y-17631786D01*
X7550928Y-17617500D01*
X7579500Y-17603214D01*
X7808071Y-17874643D02*
X7822357Y-17888929D01*
X7808071Y-17903214D01*
X7793786Y-17888929D01*
X7808071Y-17874643D01*
X7808071Y-17903214D01*
X8008071Y-17603214D02*
X8036643Y-17603214D01*
X8065214Y-17617500D01*
X8079500Y-17631786D01*
X8093786Y-17660357D01*
X8108071Y-17717500D01*
X8108071Y-17788929D01*
X8093786Y-17846072D01*
X8079500Y-17874643D01*
X8065214Y-17888929D01*
X8036643Y-17903214D01*
X8008071Y-17903214D01*
X7979500Y-17888929D01*
X7965214Y-17874643D01*
X7950928Y-17846072D01*
X7936643Y-17788929D01*
X7936643Y-17717500D01*
X7950928Y-17660357D01*
X7965214Y-17631786D01*
X7979500Y-17617500D01*
X8008071Y-17603214D01*
X8279500Y-17731786D02*
X8250928Y-17717500D01*
X8236643Y-17703214D01*
X8222357Y-17674643D01*
X8222357Y-17660357D01*
X8236643Y-17631786D01*
X8250928Y-17617500D01*
X8279500Y-17603214D01*
X8336643Y-17603214D01*
X8365214Y-17617500D01*
X8379500Y-17631786D01*
X8393786Y-17660357D01*
X8393786Y-17674643D01*
X8379500Y-17703214D01*
X8365214Y-17717500D01*
X8336643Y-17731786D01*
X8279500Y-17731786D01*
X8250928Y-17746072D01*
X8236643Y-17760357D01*
X8222357Y-17788929D01*
X8222357Y-17846072D01*
X8236643Y-17874643D01*
X8250928Y-17888929D01*
X8279500Y-17903214D01*
X8336643Y-17903214D01*
X8365214Y-17888929D01*
X8379500Y-17874643D01*
X8393786Y-17846072D01*
X8393786Y-17788929D01*
X8379500Y-17760357D01*
X8365214Y-17746072D01*
X8336643Y-17731786D01*
X8493786Y-17603214D02*
X8693786Y-17603214D01*
X8565214Y-17903214D01*
X8793786Y-17603214D02*
X8793786Y-17660357D01*
X8908071Y-17603214D02*
X8908071Y-17660357D01*
X9350928Y-18017500D02*
X9336643Y-18003214D01*
X9308071Y-17960357D01*
X9293786Y-17931786D01*
X9279500Y-17888929D01*
X9265214Y-17817500D01*
X9265214Y-17760357D01*
X9279500Y-17688929D01*
X9293786Y-17646072D01*
X9308071Y-17617500D01*
X9336643Y-17574643D01*
X9350928Y-17560357D01*
X9450928Y-17631786D02*
X9465214Y-17617500D01*
X9493786Y-17603214D01*
X9565214Y-17603214D01*
X9593786Y-17617500D01*
X9608071Y-17631786D01*
X9622357Y-17660357D01*
X9622357Y-17688929D01*
X9608071Y-17731786D01*
X9436643Y-17903214D01*
X9622357Y-17903214D01*
X9979500Y-17903214D02*
X9979500Y-17603214D01*
X10108071Y-17903214D02*
X10108071Y-17746072D01*
X10093786Y-17717500D01*
X10065214Y-17703214D01*
X10022357Y-17703214D01*
X9993786Y-17717500D01*
X9979500Y-17731786D01*
X10293786Y-17903214D02*
X10265214Y-17888929D01*
X10250928Y-17874643D01*
X10236643Y-17846072D01*
X10236643Y-17760357D01*
X10250928Y-17731786D01*
X10265214Y-17717500D01*
X10293786Y-17703214D01*
X10336643Y-17703214D01*
X10365214Y-17717500D01*
X10379500Y-17731786D01*
X10393786Y-17760357D01*
X10393786Y-17846072D01*
X10379500Y-17874643D01*
X10365214Y-17888929D01*
X10336643Y-17903214D01*
X10293786Y-17903214D01*
X10565214Y-17903214D02*
X10536643Y-17888929D01*
X10522357Y-17860357D01*
X10522357Y-17603214D01*
X10793786Y-17888929D02*
X10765214Y-17903214D01*
X10708071Y-17903214D01*
X10679500Y-17888929D01*
X10665214Y-17860357D01*
X10665214Y-17746072D01*
X10679500Y-17717500D01*
X10708071Y-17703214D01*
X10765214Y-17703214D01*
X10793786Y-17717500D01*
X10808071Y-17746072D01*
X10808071Y-17774643D01*
X10665214Y-17803214D01*
X10922357Y-17888929D02*
X10950928Y-17903214D01*
X11008071Y-17903214D01*
X11036643Y-17888929D01*
X11050928Y-17860357D01*
X11050928Y-17846072D01*
X11036643Y-17817500D01*
X11008071Y-17803214D01*
X10965214Y-17803214D01*
X10936643Y-17788929D01*
X10922357Y-17760357D01*
X10922357Y-17746072D01*
X10936643Y-17717500D01*
X10965214Y-17703214D01*
X11008071Y-17703214D01*
X11036643Y-17717500D01*
X11150928Y-18017500D02*
X11165214Y-18003214D01*
X11193786Y-17960357D01*
X11208071Y-17931786D01*
X11222357Y-17888929D01*
X11236643Y-17817500D01*
X11236643Y-17760357D01*
X11222357Y-17688929D01*
X11208071Y-17646072D01*
X11193786Y-17617500D01*
X11165214Y-17574643D01*
X11150928Y-17560357D01*
X11693786Y-18017500D02*
X11679500Y-18003214D01*
X11650928Y-17960357D01*
X11636643Y-17931786D01*
X11622357Y-17888929D01*
X11608071Y-17817500D01*
X11608071Y-17760357D01*
X11622357Y-17688929D01*
X11636643Y-17646072D01*
X11650928Y-17617500D01*
X11679500Y-17574643D01*
X11693786Y-17560357D01*
X11808071Y-17703214D02*
X11808071Y-17903214D01*
X11808071Y-17731786D02*
X11822357Y-17717500D01*
X11850928Y-17703214D01*
X11893786Y-17703214D01*
X11922357Y-17717500D01*
X11936643Y-17746072D01*
X11936643Y-17903214D01*
X12122357Y-17903214D02*
X12093786Y-17888929D01*
X12079500Y-17874643D01*
X12065214Y-17846072D01*
X12065214Y-17760357D01*
X12079500Y-17731786D01*
X12093786Y-17717500D01*
X12122357Y-17703214D01*
X12165214Y-17703214D01*
X12193786Y-17717500D01*
X12208071Y-17731786D01*
X12222357Y-17760357D01*
X12222357Y-17846072D01*
X12208071Y-17874643D01*
X12193786Y-17888929D01*
X12165214Y-17903214D01*
X12122357Y-17903214D01*
X12308071Y-17703214D02*
X12422357Y-17703214D01*
X12350928Y-17603214D02*
X12350928Y-17860357D01*
X12365214Y-17888929D01*
X12393786Y-17903214D01*
X12422357Y-17903214D01*
X12750928Y-17703214D02*
X12750928Y-18003214D01*
X12750928Y-17717500D02*
X12779500Y-17703214D01*
X12836643Y-17703214D01*
X12865214Y-17717500D01*
X12879500Y-17731786D01*
X12893786Y-17760357D01*
X12893786Y-17846072D01*
X12879500Y-17874643D01*
X12865214Y-17888929D01*
X12836643Y-17903214D01*
X12779500Y-17903214D01*
X12750928Y-17888929D01*
X13065214Y-17903214D02*
X13036643Y-17888929D01*
X13022357Y-17860357D01*
X13022357Y-17603214D01*
X13308071Y-17903214D02*
X13308071Y-17746072D01*
X13293786Y-17717500D01*
X13265214Y-17703214D01*
X13208071Y-17703214D01*
X13179500Y-17717500D01*
X13308071Y-17888929D02*
X13279500Y-17903214D01*
X13208071Y-17903214D01*
X13179500Y-17888929D01*
X13165214Y-17860357D01*
X13165214Y-17831786D01*
X13179500Y-17803214D01*
X13208071Y-17788929D01*
X13279500Y-17788929D01*
X13308071Y-17774643D01*
X13408071Y-17703214D02*
X13522357Y-17703214D01*
X13450928Y-17603214D02*
X13450928Y-17860357D01*
X13465214Y-17888929D01*
X13493786Y-17903214D01*
X13522357Y-17903214D01*
X13736643Y-17888929D02*
X13708071Y-17903214D01*
X13650928Y-17903214D01*
X13622357Y-17888929D01*
X13608071Y-17860357D01*
X13608071Y-17746072D01*
X13622357Y-17717500D01*
X13650928Y-17703214D01*
X13708071Y-17703214D01*
X13736643Y-17717500D01*
X13750928Y-17746072D01*
X13750928Y-17774643D01*
X13608071Y-17803214D01*
X14008071Y-17903214D02*
X14008071Y-17603214D01*
X14008071Y-17888929D02*
X13979500Y-17903214D01*
X13922357Y-17903214D01*
X13893786Y-17888929D01*
X13879500Y-17874643D01*
X13865214Y-17846072D01*
X13865214Y-17760357D01*
X13879500Y-17731786D01*
X13893786Y-17717500D01*
X13922357Y-17703214D01*
X13979500Y-17703214D01*
X14008071Y-17717500D01*
X14122357Y-18017500D02*
X14136643Y-18003214D01*
X14165214Y-17960357D01*
X14179500Y-17931786D01*
X14193786Y-17888929D01*
X14208071Y-17817500D01*
X14208071Y-17760357D01*
X14193786Y-17688929D01*
X14179500Y-17646072D01*
X14165214Y-17617500D01*
X14136643Y-17574643D01*
X14122357Y-17560357D01*
M02*
