G04 #@! TF.GenerationSoftware,KiCad,Pcbnew,(5.1.8)-1*
G04 #@! TF.CreationDate,2021-01-08T18:54:06+01:00*
G04 #@! TF.ProjectId,GBDSO,47424453-4f2e-46b6-9963-61645f706362,rev?*
G04 #@! TF.SameCoordinates,Original*
G04 #@! TF.FileFunction,Soldermask,Bot*
G04 #@! TF.FilePolarity,Negative*
%FSLAX46Y46*%
G04 Gerber Fmt 4.6, Leading zero omitted, Abs format (unit mm)*
G04 Created by KiCad (PCBNEW (5.1.8)-1) date 2021-01-08 18:54:06*
%MOMM*%
%LPD*%
G01*
G04 APERTURE LIST*
%ADD10C,1.700000*%
%ADD11O,2.400000X1.600000*%
%ADD12R,2.400000X1.600000*%
%ADD13C,0.900000*%
%ADD14R,1.500000X1.000000*%
%ADD15C,0.100000*%
%ADD16C,2.200000*%
%ADD17O,1.700000X1.700000*%
%ADD18R,1.700000X1.700000*%
G04 APERTURE END LIST*
D10*
X168340000Y-80390000D03*
X168340000Y-73390000D03*
X144450000Y-80420000D03*
X144450000Y-73420000D03*
D11*
X122229775Y-83813961D03*
X106989775Y-116833961D03*
X122229775Y-86353961D03*
X106989775Y-114293961D03*
X122229775Y-88893961D03*
X106989775Y-111753961D03*
X122229775Y-91433961D03*
X106989775Y-109213961D03*
X122229775Y-93973961D03*
X106989775Y-106673961D03*
X122229775Y-96513961D03*
X106989775Y-104133961D03*
X122229775Y-99053961D03*
X106989775Y-101593961D03*
X122229775Y-101593961D03*
X106989775Y-99053961D03*
X122229775Y-104133961D03*
X106989775Y-96513961D03*
X122229775Y-106673961D03*
X106989775Y-93973961D03*
X122229775Y-109213961D03*
X106989775Y-91433961D03*
X122229775Y-111753961D03*
X106989775Y-88893961D03*
X122229775Y-114293961D03*
X106989775Y-86353961D03*
X122229775Y-116833961D03*
D12*
X106989775Y-83813961D03*
D13*
X179950000Y-72070000D03*
X173150000Y-72070000D03*
X156050000Y-72070000D03*
X149250000Y-72070000D03*
D14*
X145070000Y-118890000D03*
D15*
G36*
X144320602Y-117590000D02*
G01*
X144320602Y-117565466D01*
X144325412Y-117516635D01*
X144334984Y-117468510D01*
X144349228Y-117421555D01*
X144368005Y-117376222D01*
X144391136Y-117332949D01*
X144418396Y-117292150D01*
X144449524Y-117254221D01*
X144484221Y-117219524D01*
X144522150Y-117188396D01*
X144562949Y-117161136D01*
X144606222Y-117138005D01*
X144651555Y-117119228D01*
X144698510Y-117104984D01*
X144746635Y-117095412D01*
X144795466Y-117090602D01*
X144820000Y-117090602D01*
X144820000Y-117090000D01*
X145320000Y-117090000D01*
X145320000Y-117090602D01*
X145344534Y-117090602D01*
X145393365Y-117095412D01*
X145441490Y-117104984D01*
X145488445Y-117119228D01*
X145533778Y-117138005D01*
X145577051Y-117161136D01*
X145617850Y-117188396D01*
X145655779Y-117219524D01*
X145690476Y-117254221D01*
X145721604Y-117292150D01*
X145748864Y-117332949D01*
X145771995Y-117376222D01*
X145790772Y-117421555D01*
X145805016Y-117468510D01*
X145814588Y-117516635D01*
X145819398Y-117565466D01*
X145819398Y-117590000D01*
X145820000Y-117590000D01*
X145820000Y-118140000D01*
X144320000Y-118140000D01*
X144320000Y-117590000D01*
X144320602Y-117590000D01*
G37*
G36*
X145820000Y-119640000D02*
G01*
X145820000Y-120190000D01*
X145819398Y-120190000D01*
X145819398Y-120214534D01*
X145814588Y-120263365D01*
X145805016Y-120311490D01*
X145790772Y-120358445D01*
X145771995Y-120403778D01*
X145748864Y-120447051D01*
X145721604Y-120487850D01*
X145690476Y-120525779D01*
X145655779Y-120560476D01*
X145617850Y-120591604D01*
X145577051Y-120618864D01*
X145533778Y-120641995D01*
X145488445Y-120660772D01*
X145441490Y-120675016D01*
X145393365Y-120684588D01*
X145344534Y-120689398D01*
X145320000Y-120689398D01*
X145320000Y-120690000D01*
X144820000Y-120690000D01*
X144820000Y-120689398D01*
X144795466Y-120689398D01*
X144746635Y-120684588D01*
X144698510Y-120675016D01*
X144651555Y-120660772D01*
X144606222Y-120641995D01*
X144562949Y-120618864D01*
X144522150Y-120591604D01*
X144484221Y-120560476D01*
X144449524Y-120525779D01*
X144418396Y-120487850D01*
X144391136Y-120447051D01*
X144368005Y-120403778D01*
X144349228Y-120358445D01*
X144334984Y-120311490D01*
X144325412Y-120263365D01*
X144320602Y-120214534D01*
X144320602Y-120190000D01*
X144320000Y-120190000D01*
X144320000Y-119640000D01*
X145820000Y-119640000D01*
G37*
D16*
X126540000Y-87540000D03*
X126540000Y-113440000D03*
D17*
X169560000Y-70940000D03*
D18*
X167020000Y-70940000D03*
D17*
X145690000Y-70940000D03*
D18*
X143150000Y-70940000D03*
M02*
