M48
;DRILL file {KiCad (5.0.2)-1} date 09/03/2019 06:15:13
;FORMAT={-:-/ absolute / metric / decimal}
FMAT,2
METRIC,TZ
T1C0.400
T2C0.800
T3C0.900
T4C1.700
T5C2.200
%
G90
G05
T1
X57.25Y-105.28
X58.2Y-135.07
X58.57Y-109.03
X60.36Y-106.814
X61.68Y-131.894
X61.72Y-134.504
X61.95Y-129.434
X62.2Y-126.834
X66.33Y-107.88
X66.355Y-112.974
X66.355Y-115.494
X66.355Y-118.024
X66.355Y-120.494
X66.355Y-123.144
X66.355Y-124.374
X66.355Y-125.664
X66.355Y-126.924
X66.358Y-111.692
X66.4Y-110.43
X66.4Y-137.66
X66.56Y-135.199
X66.84Y-129.494
X67.305Y-131.933
X71.017Y-140.458
X72.465Y-125.614
X72.915Y-122.15
X72.925Y-119.13
X72.94Y-138.78
X72.96Y-136.09
X73.58Y-119.9
X74.465Y-127.264
X74.465Y-128.814
X74.465Y-130.234
X74.465Y-131.764
X74.465Y-133.264
X74.465Y-134.804
X74.465Y-136.234
X74.465Y-137.774
X74.465Y-139.314
X74.55Y-119.704
X74.57Y-116.79
X74.575Y-121.244
X74.59Y-118.27
X74.615Y-122.76
X83.4Y-95.5
X83.52Y-121.77
X84.51Y-143.02
X84.94Y-116.92
X84.95Y-113.13
X84.99Y-111.92
X85.14Y-142.21
X85.19Y-137.87
X85.25Y-134.39
X85.32Y-140.66
X85.44Y-107.75
X85.62Y-115.56
X86.25Y-113.12
X87.3Y-122.82
X88.66Y-131.73
X88.66Y-143.5
X89.26Y-125.75
X89.36Y-141.85
X90.2Y-120.74
X90.22Y-141.85
X90.28Y-99.99
X90.51Y-125.74
X91.083Y-143.619
X91.1Y-142.805
X91.11Y-142.005
X91.24Y-116.79
X91.35Y-127.09
X91.57Y-131.09
X91.57Y-130.151
X92.53Y-125.66
X93.08Y-143.59
X93.483Y-129.247
X93.483Y-128.363
X93.9Y-109.7
X94.19Y-119.09
X94.35Y-143.55
X95.22Y-127.738
X95.43Y-119.06
X95.52Y-108.84
X95.73Y-143.48
X95.93Y-127.113
X96.78Y-99.175
X97.02Y-143.444
X97.11Y-140.08
X97.4Y-126.25
X97.85Y-111.44
X98.02Y-143.56
X98.16Y-127.72
X98.378Y-140.452
X98.96Y-110.
X99.495Y-126.418
X99.71Y-142.865
X100.52Y-116.69
X100.53Y-119.45
X100.97Y-143.51
X102.12Y-130.47
X102.41Y-126.
X102.45Y-107.44
X102.83Y-118.71
X102.86Y-117.4
X103.33Y-106.12
X103.88Y-109.96
X104.84Y-112.48
X105.69Y-95.69
X105.94Y-121.08
X106.575Y-119.925
X107.39Y-107.88
X108.15Y-123.52
X108.75Y-130.22
X109.05Y-143.715
X110.265Y-114.855
X110.68Y-143.52
X110.84Y-110.48
X111.694Y-125.07
X111.75Y-110.48
X112.11Y-127.43
X112.44Y-119.97
X112.481Y-129.49
X112.51Y-116.1
X112.51Y-118.16
X112.55Y-135.97
X113.28Y-143.26
X113.98Y-121.74
X114.01Y-125.85
X114.02Y-128.31
X114.12Y-99.99
X114.135Y-131.34
X114.44Y-143.045
X114.71Y-135.29
X115.13Y-137.18
X115.38Y-114.13
X115.49Y-119.96
X116.Y-143.695
X116.67Y-110.47
X116.71Y-112.62
X117.3Y-132.06
X117.32Y-123.34
X117.51Y-143.64
X117.67Y-128.69
X119.01Y-143.64
X119.425Y-134.
X119.47Y-123.37
X119.57Y-115.46
X119.99Y-113.
X120.3Y-132.28
X120.3Y-129.21
X120.35Y-99.03
X120.55Y-143.62
X120.56Y-142.7
X120.58Y-122.51
X121.62Y-119.96
X122.02Y-143.63
X122.07Y-137.91
X122.15Y-115.68
X122.39Y-133.84
X122.4Y-136.54
X122.67Y-102.79
X123.19Y-135.905
X123.295Y-111.735
X123.3Y-118.99
X123.32Y-108.69
X123.49Y-143.67
X124.01Y-135.28
X124.15Y-139.73
X125.07Y-122.52
X125.35Y-121.13
X125.79Y-141.74
X127.03Y-122.04
X127.89Y-113.94
X128.28Y-107.73
X128.52Y-119.92
X129.91Y-135.92
X130.11Y-121.92
X130.17Y-108.41
X130.39Y-139.14
X130.39Y-140.27
X130.39Y-141.28
X130.39Y-142.41
X131.09Y-124.78
T2
X49.34Y-105.344
X49.34Y-107.884
X49.34Y-110.424
X49.34Y-112.964
X49.34Y-115.504
X49.34Y-118.044
X49.34Y-120.584
X49.34Y-123.124
X49.34Y-125.664
X49.34Y-128.204
X49.34Y-130.744
X49.34Y-133.284
X49.34Y-135.824
X49.34Y-138.364
X64.58Y-105.344
X64.58Y-107.884
X64.58Y-110.424
X64.58Y-112.964
X64.58Y-115.504
X64.58Y-118.044
X64.58Y-120.584
X64.58Y-123.124
X64.58Y-125.664
X64.58Y-128.204
X64.58Y-130.744
X64.58Y-133.284
X64.58Y-135.824
X64.58Y-138.364
T3
X91.6Y-93.6
X98.4Y-93.6
X115.5Y-93.6
X122.3Y-93.6
T4
X86.8Y-94.95
X86.8Y-101.95
X110.69Y-94.92
X110.69Y-101.92
T5
X68.89Y-109.07
X68.89Y-134.97
T0
M30
