G04 #@! TF.GenerationSoftware,KiCad,Pcbnew,(5.1.0)-1*
G04 #@! TF.CreationDate,2019-04-20T02:25:46+02:00*
G04 #@! TF.ProjectId,GBDSO,47424453-4f2e-46b6-9963-61645f706362,rev?*
G04 #@! TF.SameCoordinates,Original*
G04 #@! TF.FileFunction,Soldermask,Bot*
G04 #@! TF.FilePolarity,Negative*
%FSLAX46Y46*%
G04 Gerber Fmt 4.6, Leading zero omitted, Abs format (unit mm)*
G04 Created by KiCad (PCBNEW (5.1.0)-1) date 2019-04-20 02:25:46*
%MOMM*%
%LPD*%
G04 APERTURE LIST*
%ADD10C,0.100000*%
G04 APERTURE END LIST*
D10*
G36*
X145332197Y-116890233D02*
G01*
X145344449Y-116890835D01*
X145362869Y-116890835D01*
X145414358Y-116895906D01*
X145498439Y-116912631D01*
X145514403Y-116917474D01*
X145542048Y-116925859D01*
X145542054Y-116925861D01*
X145547960Y-116927653D01*
X145627158Y-116960457D01*
X145672791Y-116984848D01*
X145744076Y-117032479D01*
X145748847Y-117036395D01*
X145748849Y-117036396D01*
X145779303Y-117061389D01*
X145779309Y-117061395D01*
X145784072Y-117065304D01*
X145844696Y-117125928D01*
X145848605Y-117130691D01*
X145848611Y-117130697D01*
X145873604Y-117161151D01*
X145877521Y-117165924D01*
X145925152Y-117237209D01*
X145949543Y-117282842D01*
X145982347Y-117362040D01*
X145984139Y-117367946D01*
X145984141Y-117367952D01*
X145991502Y-117392219D01*
X145997369Y-117411561D01*
X146014094Y-117495642D01*
X146019165Y-117547131D01*
X146019165Y-117565551D01*
X146019767Y-117577803D01*
X146021573Y-117596140D01*
X146021573Y-118133860D01*
X146020602Y-118143719D01*
X146020000Y-118155971D01*
X146020000Y-119624029D01*
X146020602Y-119636281D01*
X146021573Y-119646140D01*
X146021573Y-120183860D01*
X146019767Y-120202197D01*
X146019165Y-120214449D01*
X146019165Y-120232869D01*
X146014094Y-120284358D01*
X145997369Y-120368439D01*
X145995576Y-120374349D01*
X145984141Y-120412048D01*
X145984139Y-120412054D01*
X145982347Y-120417960D01*
X145949543Y-120497158D01*
X145925152Y-120542791D01*
X145877521Y-120614076D01*
X145873605Y-120618847D01*
X145873604Y-120618849D01*
X145848611Y-120649303D01*
X145848605Y-120649309D01*
X145844696Y-120654072D01*
X145784072Y-120714696D01*
X145779309Y-120718605D01*
X145779303Y-120718611D01*
X145748849Y-120743604D01*
X145744076Y-120747521D01*
X145672791Y-120795152D01*
X145627158Y-120819543D01*
X145547960Y-120852347D01*
X145542054Y-120854139D01*
X145542048Y-120854141D01*
X145514403Y-120862526D01*
X145498439Y-120867369D01*
X145414358Y-120884094D01*
X145362869Y-120889165D01*
X145344449Y-120889165D01*
X145332197Y-120889767D01*
X145313860Y-120891573D01*
X144826140Y-120891573D01*
X144807803Y-120889767D01*
X144795551Y-120889165D01*
X144777131Y-120889165D01*
X144725642Y-120884094D01*
X144641561Y-120867369D01*
X144625597Y-120862526D01*
X144597952Y-120854141D01*
X144597946Y-120854139D01*
X144592040Y-120852347D01*
X144512842Y-120819543D01*
X144467209Y-120795152D01*
X144395924Y-120747521D01*
X144391151Y-120743604D01*
X144360697Y-120718611D01*
X144360691Y-120718605D01*
X144355928Y-120714696D01*
X144295304Y-120654072D01*
X144291395Y-120649309D01*
X144291389Y-120649303D01*
X144266396Y-120618849D01*
X144266395Y-120618847D01*
X144262479Y-120614076D01*
X144214848Y-120542791D01*
X144190457Y-120497158D01*
X144157653Y-120417960D01*
X144155861Y-120412054D01*
X144155859Y-120412048D01*
X144144424Y-120374349D01*
X144142631Y-120368439D01*
X144125906Y-120284358D01*
X144120835Y-120232869D01*
X144120835Y-120214449D01*
X144120233Y-120202197D01*
X144118427Y-120183860D01*
X144118427Y-119646140D01*
X144119398Y-119636281D01*
X144120000Y-119624029D01*
X144120000Y-118155971D01*
X144119398Y-118143719D01*
X144118427Y-118133860D01*
X144118427Y-117596140D01*
X144120233Y-117577803D01*
X144120835Y-117565551D01*
X144120835Y-117547131D01*
X144125906Y-117495642D01*
X144142631Y-117411561D01*
X144148498Y-117392219D01*
X144155859Y-117367952D01*
X144155861Y-117367946D01*
X144157653Y-117362040D01*
X144190457Y-117282842D01*
X144214848Y-117237209D01*
X144262479Y-117165924D01*
X144266396Y-117161151D01*
X144291389Y-117130697D01*
X144291395Y-117130691D01*
X144295304Y-117125928D01*
X144355928Y-117065304D01*
X144360691Y-117061395D01*
X144360697Y-117061389D01*
X144391151Y-117036396D01*
X144391153Y-117036395D01*
X144395924Y-117032479D01*
X144467209Y-116984848D01*
X144512842Y-116960457D01*
X144592040Y-116927653D01*
X144597946Y-116925861D01*
X144597952Y-116925859D01*
X144625597Y-116917474D01*
X144641561Y-116912631D01*
X144725642Y-116895906D01*
X144777131Y-116890835D01*
X144795551Y-116890835D01*
X144807803Y-116890233D01*
X144826140Y-116888427D01*
X145313860Y-116888427D01*
X145332197Y-116890233D01*
X145332197Y-116890233D01*
G37*
G36*
X122825807Y-115848430D02*
G01*
X122920059Y-115877021D01*
X123014310Y-115905612D01*
X123014312Y-115905613D01*
X123188033Y-115998468D01*
X123340303Y-116123433D01*
X123465268Y-116275703D01*
X123558123Y-116449424D01*
X123615306Y-116637929D01*
X123634613Y-116833961D01*
X123615306Y-117029993D01*
X123558123Y-117218498D01*
X123465268Y-117392219D01*
X123340303Y-117544489D01*
X123188033Y-117669454D01*
X123014312Y-117762309D01*
X123014310Y-117762310D01*
X122920060Y-117790900D01*
X122825807Y-117819492D01*
X122678899Y-117833961D01*
X121780651Y-117833961D01*
X121633743Y-117819492D01*
X121539490Y-117790900D01*
X121445240Y-117762310D01*
X121445238Y-117762309D01*
X121271517Y-117669454D01*
X121119247Y-117544489D01*
X120994282Y-117392219D01*
X120901427Y-117218498D01*
X120844244Y-117029993D01*
X120824937Y-116833961D01*
X120844244Y-116637929D01*
X120901427Y-116449424D01*
X120994282Y-116275703D01*
X121119247Y-116123433D01*
X121271517Y-115998468D01*
X121445238Y-115905613D01*
X121445240Y-115905612D01*
X121539491Y-115877021D01*
X121633743Y-115848430D01*
X121780651Y-115833961D01*
X122678899Y-115833961D01*
X122825807Y-115848430D01*
X122825807Y-115848430D01*
G37*
G36*
X107585807Y-115848430D02*
G01*
X107680059Y-115877021D01*
X107774310Y-115905612D01*
X107774312Y-115905613D01*
X107948033Y-115998468D01*
X108100303Y-116123433D01*
X108225268Y-116275703D01*
X108318123Y-116449424D01*
X108375306Y-116637929D01*
X108394613Y-116833961D01*
X108375306Y-117029993D01*
X108318123Y-117218498D01*
X108225268Y-117392219D01*
X108100303Y-117544489D01*
X107948033Y-117669454D01*
X107774312Y-117762309D01*
X107774310Y-117762310D01*
X107680060Y-117790900D01*
X107585807Y-117819492D01*
X107438899Y-117833961D01*
X106540651Y-117833961D01*
X106393743Y-117819492D01*
X106299490Y-117790900D01*
X106205240Y-117762310D01*
X106205238Y-117762309D01*
X106031517Y-117669454D01*
X105879247Y-117544489D01*
X105754282Y-117392219D01*
X105661427Y-117218498D01*
X105604244Y-117029993D01*
X105584937Y-116833961D01*
X105604244Y-116637929D01*
X105661427Y-116449424D01*
X105754282Y-116275703D01*
X105879247Y-116123433D01*
X106031517Y-115998468D01*
X106205238Y-115905613D01*
X106205240Y-115905612D01*
X106299491Y-115877021D01*
X106393743Y-115848430D01*
X106540651Y-115833961D01*
X107438899Y-115833961D01*
X107585807Y-115848430D01*
X107585807Y-115848430D01*
G37*
G36*
X122825807Y-113308430D02*
G01*
X122920060Y-113337022D01*
X123014310Y-113365612D01*
X123014312Y-113365613D01*
X123188033Y-113458468D01*
X123340303Y-113583433D01*
X123465268Y-113735703D01*
X123558123Y-113909424D01*
X123615306Y-114097929D01*
X123634613Y-114293961D01*
X123615306Y-114489993D01*
X123558123Y-114678498D01*
X123465268Y-114852219D01*
X123340303Y-115004489D01*
X123188033Y-115129454D01*
X123014312Y-115222309D01*
X123014310Y-115222310D01*
X122920059Y-115250901D01*
X122825807Y-115279492D01*
X122678899Y-115293961D01*
X121780651Y-115293961D01*
X121633743Y-115279492D01*
X121539491Y-115250901D01*
X121445240Y-115222310D01*
X121445238Y-115222309D01*
X121271517Y-115129454D01*
X121119247Y-115004489D01*
X120994282Y-114852219D01*
X120901427Y-114678498D01*
X120844244Y-114489993D01*
X120824937Y-114293961D01*
X120844244Y-114097929D01*
X120901427Y-113909424D01*
X120994282Y-113735703D01*
X121119247Y-113583433D01*
X121271517Y-113458468D01*
X121445238Y-113365613D01*
X121445240Y-113365612D01*
X121539490Y-113337022D01*
X121633743Y-113308430D01*
X121780651Y-113293961D01*
X122678899Y-113293961D01*
X122825807Y-113308430D01*
X122825807Y-113308430D01*
G37*
G36*
X107585807Y-113308430D02*
G01*
X107680060Y-113337022D01*
X107774310Y-113365612D01*
X107774312Y-113365613D01*
X107948033Y-113458468D01*
X108100303Y-113583433D01*
X108225268Y-113735703D01*
X108318123Y-113909424D01*
X108375306Y-114097929D01*
X108394613Y-114293961D01*
X108375306Y-114489993D01*
X108318123Y-114678498D01*
X108225268Y-114852219D01*
X108100303Y-115004489D01*
X107948033Y-115129454D01*
X107774312Y-115222309D01*
X107774310Y-115222310D01*
X107680059Y-115250901D01*
X107585807Y-115279492D01*
X107438899Y-115293961D01*
X106540651Y-115293961D01*
X106393743Y-115279492D01*
X106299491Y-115250901D01*
X106205240Y-115222310D01*
X106205238Y-115222309D01*
X106031517Y-115129454D01*
X105879247Y-115004489D01*
X105754282Y-114852219D01*
X105661427Y-114678498D01*
X105604244Y-114489993D01*
X105584937Y-114293961D01*
X105604244Y-114097929D01*
X105661427Y-113909424D01*
X105754282Y-113735703D01*
X105879247Y-113583433D01*
X106031517Y-113458468D01*
X106205238Y-113365613D01*
X106205240Y-113365612D01*
X106299490Y-113337022D01*
X106393743Y-113308430D01*
X106540651Y-113293961D01*
X107438899Y-113293961D01*
X107585807Y-113308430D01*
X107585807Y-113308430D01*
G37*
G36*
X126793617Y-112164979D02*
G01*
X126919196Y-112189958D01*
X127155781Y-112287955D01*
X127368702Y-112430224D01*
X127549776Y-112611298D01*
X127692045Y-112824219D01*
X127790042Y-113060804D01*
X127840000Y-113311961D01*
X127840000Y-113568039D01*
X127790042Y-113819196D01*
X127692045Y-114055781D01*
X127549776Y-114268702D01*
X127368702Y-114449776D01*
X127155781Y-114592045D01*
X126919196Y-114690042D01*
X126668040Y-114740000D01*
X126411960Y-114740000D01*
X126160804Y-114690042D01*
X125924219Y-114592045D01*
X125711298Y-114449776D01*
X125530224Y-114268702D01*
X125387955Y-114055781D01*
X125289958Y-113819196D01*
X125240000Y-113568039D01*
X125240000Y-113311961D01*
X125289958Y-113060804D01*
X125387955Y-112824219D01*
X125530224Y-112611298D01*
X125711298Y-112430224D01*
X125924219Y-112287955D01*
X126160804Y-112189958D01*
X126286383Y-112164979D01*
X126411960Y-112140000D01*
X126668040Y-112140000D01*
X126793617Y-112164979D01*
X126793617Y-112164979D01*
G37*
G36*
X122825807Y-110768430D02*
G01*
X122920059Y-110797021D01*
X123014310Y-110825612D01*
X123014312Y-110825613D01*
X123188033Y-110918468D01*
X123340303Y-111043433D01*
X123465268Y-111195703D01*
X123558123Y-111369424D01*
X123615306Y-111557929D01*
X123634613Y-111753961D01*
X123615306Y-111949993D01*
X123558123Y-112138498D01*
X123465268Y-112312219D01*
X123340303Y-112464489D01*
X123188033Y-112589454D01*
X123014312Y-112682309D01*
X123014310Y-112682310D01*
X122920060Y-112710900D01*
X122825807Y-112739492D01*
X122678899Y-112753961D01*
X121780651Y-112753961D01*
X121633743Y-112739492D01*
X121539490Y-112710900D01*
X121445240Y-112682310D01*
X121445238Y-112682309D01*
X121271517Y-112589454D01*
X121119247Y-112464489D01*
X120994282Y-112312219D01*
X120901427Y-112138498D01*
X120844244Y-111949993D01*
X120824937Y-111753961D01*
X120844244Y-111557929D01*
X120901427Y-111369424D01*
X120994282Y-111195703D01*
X121119247Y-111043433D01*
X121271517Y-110918468D01*
X121445238Y-110825613D01*
X121445240Y-110825612D01*
X121539491Y-110797021D01*
X121633743Y-110768430D01*
X121780651Y-110753961D01*
X122678899Y-110753961D01*
X122825807Y-110768430D01*
X122825807Y-110768430D01*
G37*
G36*
X107585807Y-110768430D02*
G01*
X107680059Y-110797021D01*
X107774310Y-110825612D01*
X107774312Y-110825613D01*
X107948033Y-110918468D01*
X108100303Y-111043433D01*
X108225268Y-111195703D01*
X108318123Y-111369424D01*
X108375306Y-111557929D01*
X108394613Y-111753961D01*
X108375306Y-111949993D01*
X108318123Y-112138498D01*
X108225268Y-112312219D01*
X108100303Y-112464489D01*
X107948033Y-112589454D01*
X107774312Y-112682309D01*
X107774310Y-112682310D01*
X107680060Y-112710900D01*
X107585807Y-112739492D01*
X107438899Y-112753961D01*
X106540651Y-112753961D01*
X106393743Y-112739492D01*
X106299490Y-112710900D01*
X106205240Y-112682310D01*
X106205238Y-112682309D01*
X106031517Y-112589454D01*
X105879247Y-112464489D01*
X105754282Y-112312219D01*
X105661427Y-112138498D01*
X105604244Y-111949993D01*
X105584937Y-111753961D01*
X105604244Y-111557929D01*
X105661427Y-111369424D01*
X105754282Y-111195703D01*
X105879247Y-111043433D01*
X106031517Y-110918468D01*
X106205238Y-110825613D01*
X106205240Y-110825612D01*
X106299491Y-110797021D01*
X106393743Y-110768430D01*
X106540651Y-110753961D01*
X107438899Y-110753961D01*
X107585807Y-110768430D01*
X107585807Y-110768430D01*
G37*
G36*
X107585807Y-108228430D02*
G01*
X107680060Y-108257022D01*
X107774310Y-108285612D01*
X107774312Y-108285613D01*
X107948033Y-108378468D01*
X108100303Y-108503433D01*
X108225268Y-108655703D01*
X108318123Y-108829424D01*
X108375306Y-109017929D01*
X108394613Y-109213961D01*
X108375306Y-109409993D01*
X108318123Y-109598498D01*
X108225268Y-109772219D01*
X108100303Y-109924489D01*
X107948033Y-110049454D01*
X107774312Y-110142309D01*
X107774310Y-110142310D01*
X107680059Y-110170901D01*
X107585807Y-110199492D01*
X107438899Y-110213961D01*
X106540651Y-110213961D01*
X106393743Y-110199492D01*
X106299491Y-110170901D01*
X106205240Y-110142310D01*
X106205238Y-110142309D01*
X106031517Y-110049454D01*
X105879247Y-109924489D01*
X105754282Y-109772219D01*
X105661427Y-109598498D01*
X105604244Y-109409993D01*
X105584937Y-109213961D01*
X105604244Y-109017929D01*
X105661427Y-108829424D01*
X105754282Y-108655703D01*
X105879247Y-108503433D01*
X106031517Y-108378468D01*
X106205238Y-108285613D01*
X106205240Y-108285612D01*
X106299490Y-108257022D01*
X106393743Y-108228430D01*
X106540651Y-108213961D01*
X107438899Y-108213961D01*
X107585807Y-108228430D01*
X107585807Y-108228430D01*
G37*
G36*
X122825807Y-108228430D02*
G01*
X122920060Y-108257022D01*
X123014310Y-108285612D01*
X123014312Y-108285613D01*
X123188033Y-108378468D01*
X123340303Y-108503433D01*
X123465268Y-108655703D01*
X123558123Y-108829424D01*
X123615306Y-109017929D01*
X123634613Y-109213961D01*
X123615306Y-109409993D01*
X123558123Y-109598498D01*
X123465268Y-109772219D01*
X123340303Y-109924489D01*
X123188033Y-110049454D01*
X123014312Y-110142309D01*
X123014310Y-110142310D01*
X122920059Y-110170901D01*
X122825807Y-110199492D01*
X122678899Y-110213961D01*
X121780651Y-110213961D01*
X121633743Y-110199492D01*
X121539491Y-110170901D01*
X121445240Y-110142310D01*
X121445238Y-110142309D01*
X121271517Y-110049454D01*
X121119247Y-109924489D01*
X120994282Y-109772219D01*
X120901427Y-109598498D01*
X120844244Y-109409993D01*
X120824937Y-109213961D01*
X120844244Y-109017929D01*
X120901427Y-108829424D01*
X120994282Y-108655703D01*
X121119247Y-108503433D01*
X121271517Y-108378468D01*
X121445238Y-108285613D01*
X121445240Y-108285612D01*
X121539490Y-108257022D01*
X121633743Y-108228430D01*
X121780651Y-108213961D01*
X122678899Y-108213961D01*
X122825807Y-108228430D01*
X122825807Y-108228430D01*
G37*
G36*
X122825807Y-105688430D02*
G01*
X122920060Y-105717022D01*
X123014310Y-105745612D01*
X123014312Y-105745613D01*
X123188033Y-105838468D01*
X123340303Y-105963433D01*
X123465268Y-106115703D01*
X123558123Y-106289424D01*
X123615306Y-106477929D01*
X123634613Y-106673961D01*
X123615306Y-106869993D01*
X123558123Y-107058498D01*
X123465268Y-107232219D01*
X123340303Y-107384489D01*
X123188033Y-107509454D01*
X123014312Y-107602309D01*
X123014310Y-107602310D01*
X122920059Y-107630901D01*
X122825807Y-107659492D01*
X122678899Y-107673961D01*
X121780651Y-107673961D01*
X121633743Y-107659492D01*
X121539491Y-107630901D01*
X121445240Y-107602310D01*
X121445238Y-107602309D01*
X121271517Y-107509454D01*
X121119247Y-107384489D01*
X120994282Y-107232219D01*
X120901427Y-107058498D01*
X120844244Y-106869993D01*
X120824937Y-106673961D01*
X120844244Y-106477929D01*
X120901427Y-106289424D01*
X120994282Y-106115703D01*
X121119247Y-105963433D01*
X121271517Y-105838468D01*
X121445238Y-105745613D01*
X121445240Y-105745612D01*
X121539490Y-105717022D01*
X121633743Y-105688430D01*
X121780651Y-105673961D01*
X122678899Y-105673961D01*
X122825807Y-105688430D01*
X122825807Y-105688430D01*
G37*
G36*
X107585807Y-105688430D02*
G01*
X107680060Y-105717022D01*
X107774310Y-105745612D01*
X107774312Y-105745613D01*
X107948033Y-105838468D01*
X108100303Y-105963433D01*
X108225268Y-106115703D01*
X108318123Y-106289424D01*
X108375306Y-106477929D01*
X108394613Y-106673961D01*
X108375306Y-106869993D01*
X108318123Y-107058498D01*
X108225268Y-107232219D01*
X108100303Y-107384489D01*
X107948033Y-107509454D01*
X107774312Y-107602309D01*
X107774310Y-107602310D01*
X107680059Y-107630901D01*
X107585807Y-107659492D01*
X107438899Y-107673961D01*
X106540651Y-107673961D01*
X106393743Y-107659492D01*
X106299491Y-107630901D01*
X106205240Y-107602310D01*
X106205238Y-107602309D01*
X106031517Y-107509454D01*
X105879247Y-107384489D01*
X105754282Y-107232219D01*
X105661427Y-107058498D01*
X105604244Y-106869993D01*
X105584937Y-106673961D01*
X105604244Y-106477929D01*
X105661427Y-106289424D01*
X105754282Y-106115703D01*
X105879247Y-105963433D01*
X106031517Y-105838468D01*
X106205238Y-105745613D01*
X106205240Y-105745612D01*
X106299490Y-105717022D01*
X106393743Y-105688430D01*
X106540651Y-105673961D01*
X107438899Y-105673961D01*
X107585807Y-105688430D01*
X107585807Y-105688430D01*
G37*
G36*
X122825807Y-103148430D02*
G01*
X122920059Y-103177021D01*
X123014310Y-103205612D01*
X123014312Y-103205613D01*
X123188033Y-103298468D01*
X123340303Y-103423433D01*
X123465268Y-103575703D01*
X123558123Y-103749424D01*
X123615306Y-103937929D01*
X123634613Y-104133961D01*
X123615306Y-104329993D01*
X123558123Y-104518498D01*
X123465268Y-104692219D01*
X123340303Y-104844489D01*
X123188033Y-104969454D01*
X123014312Y-105062309D01*
X123014310Y-105062310D01*
X122920060Y-105090900D01*
X122825807Y-105119492D01*
X122678899Y-105133961D01*
X121780651Y-105133961D01*
X121633743Y-105119492D01*
X121539490Y-105090900D01*
X121445240Y-105062310D01*
X121445238Y-105062309D01*
X121271517Y-104969454D01*
X121119247Y-104844489D01*
X120994282Y-104692219D01*
X120901427Y-104518498D01*
X120844244Y-104329993D01*
X120824937Y-104133961D01*
X120844244Y-103937929D01*
X120901427Y-103749424D01*
X120994282Y-103575703D01*
X121119247Y-103423433D01*
X121271517Y-103298468D01*
X121445238Y-103205613D01*
X121445240Y-103205612D01*
X121539491Y-103177021D01*
X121633743Y-103148430D01*
X121780651Y-103133961D01*
X122678899Y-103133961D01*
X122825807Y-103148430D01*
X122825807Y-103148430D01*
G37*
G36*
X107585807Y-103148430D02*
G01*
X107680059Y-103177021D01*
X107774310Y-103205612D01*
X107774312Y-103205613D01*
X107948033Y-103298468D01*
X108100303Y-103423433D01*
X108225268Y-103575703D01*
X108318123Y-103749424D01*
X108375306Y-103937929D01*
X108394613Y-104133961D01*
X108375306Y-104329993D01*
X108318123Y-104518498D01*
X108225268Y-104692219D01*
X108100303Y-104844489D01*
X107948033Y-104969454D01*
X107774312Y-105062309D01*
X107774310Y-105062310D01*
X107680060Y-105090900D01*
X107585807Y-105119492D01*
X107438899Y-105133961D01*
X106540651Y-105133961D01*
X106393743Y-105119492D01*
X106299490Y-105090900D01*
X106205240Y-105062310D01*
X106205238Y-105062309D01*
X106031517Y-104969454D01*
X105879247Y-104844489D01*
X105754282Y-104692219D01*
X105661427Y-104518498D01*
X105604244Y-104329993D01*
X105584937Y-104133961D01*
X105604244Y-103937929D01*
X105661427Y-103749424D01*
X105754282Y-103575703D01*
X105879247Y-103423433D01*
X106031517Y-103298468D01*
X106205238Y-103205613D01*
X106205240Y-103205612D01*
X106299491Y-103177021D01*
X106393743Y-103148430D01*
X106540651Y-103133961D01*
X107438899Y-103133961D01*
X107585807Y-103148430D01*
X107585807Y-103148430D01*
G37*
G36*
X107585807Y-100608430D02*
G01*
X107680060Y-100637022D01*
X107774310Y-100665612D01*
X107774312Y-100665613D01*
X107948033Y-100758468D01*
X108100303Y-100883433D01*
X108225268Y-101035703D01*
X108318123Y-101209424D01*
X108375306Y-101397929D01*
X108394613Y-101593961D01*
X108375306Y-101789993D01*
X108318123Y-101978498D01*
X108225268Y-102152219D01*
X108100303Y-102304489D01*
X107948033Y-102429454D01*
X107774312Y-102522309D01*
X107774310Y-102522310D01*
X107680059Y-102550901D01*
X107585807Y-102579492D01*
X107438899Y-102593961D01*
X106540651Y-102593961D01*
X106393743Y-102579492D01*
X106299491Y-102550901D01*
X106205240Y-102522310D01*
X106205238Y-102522309D01*
X106031517Y-102429454D01*
X105879247Y-102304489D01*
X105754282Y-102152219D01*
X105661427Y-101978498D01*
X105604244Y-101789993D01*
X105584937Y-101593961D01*
X105604244Y-101397929D01*
X105661427Y-101209424D01*
X105754282Y-101035703D01*
X105879247Y-100883433D01*
X106031517Y-100758468D01*
X106205238Y-100665613D01*
X106205240Y-100665612D01*
X106299490Y-100637022D01*
X106393743Y-100608430D01*
X106540651Y-100593961D01*
X107438899Y-100593961D01*
X107585807Y-100608430D01*
X107585807Y-100608430D01*
G37*
G36*
X122825807Y-100608430D02*
G01*
X122920060Y-100637022D01*
X123014310Y-100665612D01*
X123014312Y-100665613D01*
X123188033Y-100758468D01*
X123340303Y-100883433D01*
X123465268Y-101035703D01*
X123558123Y-101209424D01*
X123615306Y-101397929D01*
X123634613Y-101593961D01*
X123615306Y-101789993D01*
X123558123Y-101978498D01*
X123465268Y-102152219D01*
X123340303Y-102304489D01*
X123188033Y-102429454D01*
X123014312Y-102522309D01*
X123014310Y-102522310D01*
X122920059Y-102550901D01*
X122825807Y-102579492D01*
X122678899Y-102593961D01*
X121780651Y-102593961D01*
X121633743Y-102579492D01*
X121539491Y-102550901D01*
X121445240Y-102522310D01*
X121445238Y-102522309D01*
X121271517Y-102429454D01*
X121119247Y-102304489D01*
X120994282Y-102152219D01*
X120901427Y-101978498D01*
X120844244Y-101789993D01*
X120824937Y-101593961D01*
X120844244Y-101397929D01*
X120901427Y-101209424D01*
X120994282Y-101035703D01*
X121119247Y-100883433D01*
X121271517Y-100758468D01*
X121445238Y-100665613D01*
X121445240Y-100665612D01*
X121539490Y-100637022D01*
X121633743Y-100608430D01*
X121780651Y-100593961D01*
X122678899Y-100593961D01*
X122825807Y-100608430D01*
X122825807Y-100608430D01*
G37*
G36*
X122825807Y-98068430D02*
G01*
X122920060Y-98097022D01*
X123014310Y-98125612D01*
X123014312Y-98125613D01*
X123188033Y-98218468D01*
X123340303Y-98343433D01*
X123465268Y-98495703D01*
X123558123Y-98669424D01*
X123615306Y-98857929D01*
X123634613Y-99053961D01*
X123615306Y-99249993D01*
X123558123Y-99438498D01*
X123465268Y-99612219D01*
X123340303Y-99764489D01*
X123188033Y-99889454D01*
X123014312Y-99982309D01*
X123014310Y-99982310D01*
X122920059Y-100010901D01*
X122825807Y-100039492D01*
X122678899Y-100053961D01*
X121780651Y-100053961D01*
X121633743Y-100039492D01*
X121539491Y-100010901D01*
X121445240Y-99982310D01*
X121445238Y-99982309D01*
X121271517Y-99889454D01*
X121119247Y-99764489D01*
X120994282Y-99612219D01*
X120901427Y-99438498D01*
X120844244Y-99249993D01*
X120824937Y-99053961D01*
X120844244Y-98857929D01*
X120901427Y-98669424D01*
X120994282Y-98495703D01*
X121119247Y-98343433D01*
X121271517Y-98218468D01*
X121445238Y-98125613D01*
X121445240Y-98125612D01*
X121539490Y-98097022D01*
X121633743Y-98068430D01*
X121780651Y-98053961D01*
X122678899Y-98053961D01*
X122825807Y-98068430D01*
X122825807Y-98068430D01*
G37*
G36*
X107585807Y-98068430D02*
G01*
X107680060Y-98097022D01*
X107774310Y-98125612D01*
X107774312Y-98125613D01*
X107948033Y-98218468D01*
X108100303Y-98343433D01*
X108225268Y-98495703D01*
X108318123Y-98669424D01*
X108375306Y-98857929D01*
X108394613Y-99053961D01*
X108375306Y-99249993D01*
X108318123Y-99438498D01*
X108225268Y-99612219D01*
X108100303Y-99764489D01*
X107948033Y-99889454D01*
X107774312Y-99982309D01*
X107774310Y-99982310D01*
X107680059Y-100010901D01*
X107585807Y-100039492D01*
X107438899Y-100053961D01*
X106540651Y-100053961D01*
X106393743Y-100039492D01*
X106299491Y-100010901D01*
X106205240Y-99982310D01*
X106205238Y-99982309D01*
X106031517Y-99889454D01*
X105879247Y-99764489D01*
X105754282Y-99612219D01*
X105661427Y-99438498D01*
X105604244Y-99249993D01*
X105584937Y-99053961D01*
X105604244Y-98857929D01*
X105661427Y-98669424D01*
X105754282Y-98495703D01*
X105879247Y-98343433D01*
X106031517Y-98218468D01*
X106205238Y-98125613D01*
X106205240Y-98125612D01*
X106299490Y-98097022D01*
X106393743Y-98068430D01*
X106540651Y-98053961D01*
X107438899Y-98053961D01*
X107585807Y-98068430D01*
X107585807Y-98068430D01*
G37*
G36*
X107585807Y-95528430D02*
G01*
X107680059Y-95557021D01*
X107774310Y-95585612D01*
X107774312Y-95585613D01*
X107948033Y-95678468D01*
X108100303Y-95803433D01*
X108225268Y-95955703D01*
X108318123Y-96129424D01*
X108375306Y-96317929D01*
X108394613Y-96513961D01*
X108375306Y-96709993D01*
X108318123Y-96898498D01*
X108225268Y-97072219D01*
X108100303Y-97224489D01*
X107948033Y-97349454D01*
X107774312Y-97442309D01*
X107774310Y-97442310D01*
X107680060Y-97470900D01*
X107585807Y-97499492D01*
X107438899Y-97513961D01*
X106540651Y-97513961D01*
X106393743Y-97499492D01*
X106299490Y-97470900D01*
X106205240Y-97442310D01*
X106205238Y-97442309D01*
X106031517Y-97349454D01*
X105879247Y-97224489D01*
X105754282Y-97072219D01*
X105661427Y-96898498D01*
X105604244Y-96709993D01*
X105584937Y-96513961D01*
X105604244Y-96317929D01*
X105661427Y-96129424D01*
X105754282Y-95955703D01*
X105879247Y-95803433D01*
X106031517Y-95678468D01*
X106205238Y-95585613D01*
X106205240Y-95585612D01*
X106299491Y-95557021D01*
X106393743Y-95528430D01*
X106540651Y-95513961D01*
X107438899Y-95513961D01*
X107585807Y-95528430D01*
X107585807Y-95528430D01*
G37*
G36*
X122825807Y-95528430D02*
G01*
X122920059Y-95557021D01*
X123014310Y-95585612D01*
X123014312Y-95585613D01*
X123188033Y-95678468D01*
X123340303Y-95803433D01*
X123465268Y-95955703D01*
X123558123Y-96129424D01*
X123615306Y-96317929D01*
X123634613Y-96513961D01*
X123615306Y-96709993D01*
X123558123Y-96898498D01*
X123465268Y-97072219D01*
X123340303Y-97224489D01*
X123188033Y-97349454D01*
X123014312Y-97442309D01*
X123014310Y-97442310D01*
X122920060Y-97470900D01*
X122825807Y-97499492D01*
X122678899Y-97513961D01*
X121780651Y-97513961D01*
X121633743Y-97499492D01*
X121539490Y-97470900D01*
X121445240Y-97442310D01*
X121445238Y-97442309D01*
X121271517Y-97349454D01*
X121119247Y-97224489D01*
X120994282Y-97072219D01*
X120901427Y-96898498D01*
X120844244Y-96709993D01*
X120824937Y-96513961D01*
X120844244Y-96317929D01*
X120901427Y-96129424D01*
X120994282Y-95955703D01*
X121119247Y-95803433D01*
X121271517Y-95678468D01*
X121445238Y-95585613D01*
X121445240Y-95585612D01*
X121539491Y-95557021D01*
X121633743Y-95528430D01*
X121780651Y-95513961D01*
X122678899Y-95513961D01*
X122825807Y-95528430D01*
X122825807Y-95528430D01*
G37*
G36*
X122825807Y-92988430D02*
G01*
X122920060Y-93017022D01*
X123014310Y-93045612D01*
X123014312Y-93045613D01*
X123188033Y-93138468D01*
X123340303Y-93263433D01*
X123465268Y-93415703D01*
X123558123Y-93589424D01*
X123615306Y-93777929D01*
X123634613Y-93973961D01*
X123615306Y-94169993D01*
X123558123Y-94358498D01*
X123465268Y-94532219D01*
X123340303Y-94684489D01*
X123188033Y-94809454D01*
X123014312Y-94902309D01*
X123014310Y-94902310D01*
X122920059Y-94930901D01*
X122825807Y-94959492D01*
X122678899Y-94973961D01*
X121780651Y-94973961D01*
X121633743Y-94959492D01*
X121539491Y-94930901D01*
X121445240Y-94902310D01*
X121445238Y-94902309D01*
X121271517Y-94809454D01*
X121119247Y-94684489D01*
X120994282Y-94532219D01*
X120901427Y-94358498D01*
X120844244Y-94169993D01*
X120824937Y-93973961D01*
X120844244Y-93777929D01*
X120901427Y-93589424D01*
X120994282Y-93415703D01*
X121119247Y-93263433D01*
X121271517Y-93138468D01*
X121445238Y-93045613D01*
X121445240Y-93045612D01*
X121539490Y-93017022D01*
X121633743Y-92988430D01*
X121780651Y-92973961D01*
X122678899Y-92973961D01*
X122825807Y-92988430D01*
X122825807Y-92988430D01*
G37*
G36*
X107585807Y-92988430D02*
G01*
X107680060Y-93017022D01*
X107774310Y-93045612D01*
X107774312Y-93045613D01*
X107948033Y-93138468D01*
X108100303Y-93263433D01*
X108225268Y-93415703D01*
X108318123Y-93589424D01*
X108375306Y-93777929D01*
X108394613Y-93973961D01*
X108375306Y-94169993D01*
X108318123Y-94358498D01*
X108225268Y-94532219D01*
X108100303Y-94684489D01*
X107948033Y-94809454D01*
X107774312Y-94902309D01*
X107774310Y-94902310D01*
X107680059Y-94930901D01*
X107585807Y-94959492D01*
X107438899Y-94973961D01*
X106540651Y-94973961D01*
X106393743Y-94959492D01*
X106299491Y-94930901D01*
X106205240Y-94902310D01*
X106205238Y-94902309D01*
X106031517Y-94809454D01*
X105879247Y-94684489D01*
X105754282Y-94532219D01*
X105661427Y-94358498D01*
X105604244Y-94169993D01*
X105584937Y-93973961D01*
X105604244Y-93777929D01*
X105661427Y-93589424D01*
X105754282Y-93415703D01*
X105879247Y-93263433D01*
X106031517Y-93138468D01*
X106205238Y-93045613D01*
X106205240Y-93045612D01*
X106299490Y-93017022D01*
X106393743Y-92988430D01*
X106540651Y-92973961D01*
X107438899Y-92973961D01*
X107585807Y-92988430D01*
X107585807Y-92988430D01*
G37*
G36*
X107585807Y-90448430D02*
G01*
X107680060Y-90477022D01*
X107774310Y-90505612D01*
X107774312Y-90505613D01*
X107948033Y-90598468D01*
X108100303Y-90723433D01*
X108225268Y-90875703D01*
X108318123Y-91049424D01*
X108375306Y-91237929D01*
X108394613Y-91433961D01*
X108375306Y-91629993D01*
X108318123Y-91818498D01*
X108225268Y-91992219D01*
X108100303Y-92144489D01*
X107948033Y-92269454D01*
X107774312Y-92362309D01*
X107774310Y-92362310D01*
X107680059Y-92390901D01*
X107585807Y-92419492D01*
X107438899Y-92433961D01*
X106540651Y-92433961D01*
X106393743Y-92419492D01*
X106299491Y-92390901D01*
X106205240Y-92362310D01*
X106205238Y-92362309D01*
X106031517Y-92269454D01*
X105879247Y-92144489D01*
X105754282Y-91992219D01*
X105661427Y-91818498D01*
X105604244Y-91629993D01*
X105584937Y-91433961D01*
X105604244Y-91237929D01*
X105661427Y-91049424D01*
X105754282Y-90875703D01*
X105879247Y-90723433D01*
X106031517Y-90598468D01*
X106205238Y-90505613D01*
X106205240Y-90505612D01*
X106299490Y-90477022D01*
X106393743Y-90448430D01*
X106540651Y-90433961D01*
X107438899Y-90433961D01*
X107585807Y-90448430D01*
X107585807Y-90448430D01*
G37*
G36*
X122825807Y-90448430D02*
G01*
X122920060Y-90477022D01*
X123014310Y-90505612D01*
X123014312Y-90505613D01*
X123188033Y-90598468D01*
X123340303Y-90723433D01*
X123465268Y-90875703D01*
X123558123Y-91049424D01*
X123615306Y-91237929D01*
X123634613Y-91433961D01*
X123615306Y-91629993D01*
X123558123Y-91818498D01*
X123465268Y-91992219D01*
X123340303Y-92144489D01*
X123188033Y-92269454D01*
X123014312Y-92362309D01*
X123014310Y-92362310D01*
X122920059Y-92390901D01*
X122825807Y-92419492D01*
X122678899Y-92433961D01*
X121780651Y-92433961D01*
X121633743Y-92419492D01*
X121539491Y-92390901D01*
X121445240Y-92362310D01*
X121445238Y-92362309D01*
X121271517Y-92269454D01*
X121119247Y-92144489D01*
X120994282Y-91992219D01*
X120901427Y-91818498D01*
X120844244Y-91629993D01*
X120824937Y-91433961D01*
X120844244Y-91237929D01*
X120901427Y-91049424D01*
X120994282Y-90875703D01*
X121119247Y-90723433D01*
X121271517Y-90598468D01*
X121445238Y-90505613D01*
X121445240Y-90505612D01*
X121539490Y-90477022D01*
X121633743Y-90448430D01*
X121780651Y-90433961D01*
X122678899Y-90433961D01*
X122825807Y-90448430D01*
X122825807Y-90448430D01*
G37*
G36*
X122825807Y-87908430D02*
G01*
X122861297Y-87919196D01*
X123014310Y-87965612D01*
X123014312Y-87965613D01*
X123188033Y-88058468D01*
X123340303Y-88183433D01*
X123465268Y-88335703D01*
X123558123Y-88509424D01*
X123615306Y-88697929D01*
X123634613Y-88893961D01*
X123615306Y-89089993D01*
X123558123Y-89278498D01*
X123465268Y-89452219D01*
X123340303Y-89604489D01*
X123188033Y-89729454D01*
X123014312Y-89822309D01*
X123014310Y-89822310D01*
X122920060Y-89850900D01*
X122825807Y-89879492D01*
X122678899Y-89893961D01*
X121780651Y-89893961D01*
X121633743Y-89879492D01*
X121539490Y-89850900D01*
X121445240Y-89822310D01*
X121445238Y-89822309D01*
X121271517Y-89729454D01*
X121119247Y-89604489D01*
X120994282Y-89452219D01*
X120901427Y-89278498D01*
X120844244Y-89089993D01*
X120824937Y-88893961D01*
X120844244Y-88697929D01*
X120901427Y-88509424D01*
X120994282Y-88335703D01*
X121119247Y-88183433D01*
X121271517Y-88058468D01*
X121445238Y-87965613D01*
X121445240Y-87965612D01*
X121598253Y-87919196D01*
X121633743Y-87908430D01*
X121780651Y-87893961D01*
X122678899Y-87893961D01*
X122825807Y-87908430D01*
X122825807Y-87908430D01*
G37*
G36*
X107585807Y-87908430D02*
G01*
X107621297Y-87919196D01*
X107774310Y-87965612D01*
X107774312Y-87965613D01*
X107948033Y-88058468D01*
X108100303Y-88183433D01*
X108225268Y-88335703D01*
X108318123Y-88509424D01*
X108375306Y-88697929D01*
X108394613Y-88893961D01*
X108375306Y-89089993D01*
X108318123Y-89278498D01*
X108225268Y-89452219D01*
X108100303Y-89604489D01*
X107948033Y-89729454D01*
X107774312Y-89822309D01*
X107774310Y-89822310D01*
X107680060Y-89850900D01*
X107585807Y-89879492D01*
X107438899Y-89893961D01*
X106540651Y-89893961D01*
X106393743Y-89879492D01*
X106299490Y-89850900D01*
X106205240Y-89822310D01*
X106205238Y-89822309D01*
X106031517Y-89729454D01*
X105879247Y-89604489D01*
X105754282Y-89452219D01*
X105661427Y-89278498D01*
X105604244Y-89089993D01*
X105584937Y-88893961D01*
X105604244Y-88697929D01*
X105661427Y-88509424D01*
X105754282Y-88335703D01*
X105879247Y-88183433D01*
X106031517Y-88058468D01*
X106205238Y-87965613D01*
X106205240Y-87965612D01*
X106358253Y-87919196D01*
X106393743Y-87908430D01*
X106540651Y-87893961D01*
X107438899Y-87893961D01*
X107585807Y-87908430D01*
X107585807Y-87908430D01*
G37*
G36*
X126919196Y-86289958D02*
G01*
X127155781Y-86387955D01*
X127368702Y-86530224D01*
X127549776Y-86711298D01*
X127692045Y-86924219D01*
X127790042Y-87160804D01*
X127840000Y-87411961D01*
X127840000Y-87668039D01*
X127790042Y-87919196D01*
X127692045Y-88155781D01*
X127549776Y-88368702D01*
X127368702Y-88549776D01*
X127155781Y-88692045D01*
X126919196Y-88790042D01*
X126668040Y-88840000D01*
X126411960Y-88840000D01*
X126160804Y-88790042D01*
X125924219Y-88692045D01*
X125711298Y-88549776D01*
X125530224Y-88368702D01*
X125387955Y-88155781D01*
X125289958Y-87919196D01*
X125240000Y-87668039D01*
X125240000Y-87411961D01*
X125289958Y-87160804D01*
X125387955Y-86924219D01*
X125530224Y-86711298D01*
X125711298Y-86530224D01*
X125924219Y-86387955D01*
X126160804Y-86289958D01*
X126411960Y-86240000D01*
X126668040Y-86240000D01*
X126919196Y-86289958D01*
X126919196Y-86289958D01*
G37*
G36*
X122825807Y-85368430D02*
G01*
X122920060Y-85397022D01*
X123014310Y-85425612D01*
X123014312Y-85425613D01*
X123188033Y-85518468D01*
X123340303Y-85643433D01*
X123465268Y-85795703D01*
X123558123Y-85969424D01*
X123615306Y-86157929D01*
X123634613Y-86353961D01*
X123615306Y-86549993D01*
X123558123Y-86738498D01*
X123465268Y-86912219D01*
X123340303Y-87064489D01*
X123188033Y-87189454D01*
X123014312Y-87282309D01*
X123014310Y-87282310D01*
X122920059Y-87310901D01*
X122825807Y-87339492D01*
X122678899Y-87353961D01*
X121780651Y-87353961D01*
X121633743Y-87339492D01*
X121539491Y-87310901D01*
X121445240Y-87282310D01*
X121445238Y-87282309D01*
X121271517Y-87189454D01*
X121119247Y-87064489D01*
X120994282Y-86912219D01*
X120901427Y-86738498D01*
X120844244Y-86549993D01*
X120824937Y-86353961D01*
X120844244Y-86157929D01*
X120901427Y-85969424D01*
X120994282Y-85795703D01*
X121119247Y-85643433D01*
X121271517Y-85518468D01*
X121445238Y-85425613D01*
X121445240Y-85425612D01*
X121539490Y-85397022D01*
X121633743Y-85368430D01*
X121780651Y-85353961D01*
X122678899Y-85353961D01*
X122825807Y-85368430D01*
X122825807Y-85368430D01*
G37*
G36*
X107585807Y-85368430D02*
G01*
X107680060Y-85397022D01*
X107774310Y-85425612D01*
X107774312Y-85425613D01*
X107948033Y-85518468D01*
X108100303Y-85643433D01*
X108225268Y-85795703D01*
X108318123Y-85969424D01*
X108375306Y-86157929D01*
X108394613Y-86353961D01*
X108375306Y-86549993D01*
X108318123Y-86738498D01*
X108225268Y-86912219D01*
X108100303Y-87064489D01*
X107948033Y-87189454D01*
X107774312Y-87282309D01*
X107774310Y-87282310D01*
X107680059Y-87310901D01*
X107585807Y-87339492D01*
X107438899Y-87353961D01*
X106540651Y-87353961D01*
X106393743Y-87339492D01*
X106299491Y-87310901D01*
X106205240Y-87282310D01*
X106205238Y-87282309D01*
X106031517Y-87189454D01*
X105879247Y-87064489D01*
X105754282Y-86912219D01*
X105661427Y-86738498D01*
X105604244Y-86549993D01*
X105584937Y-86353961D01*
X105604244Y-86157929D01*
X105661427Y-85969424D01*
X105754282Y-85795703D01*
X105879247Y-85643433D01*
X106031517Y-85518468D01*
X106205238Y-85425613D01*
X106205240Y-85425612D01*
X106299490Y-85397022D01*
X106393743Y-85368430D01*
X106540651Y-85353961D01*
X107438899Y-85353961D01*
X107585807Y-85368430D01*
X107585807Y-85368430D01*
G37*
G36*
X122825807Y-82828430D02*
G01*
X122920060Y-82857022D01*
X123014310Y-82885612D01*
X123014312Y-82885613D01*
X123188033Y-82978468D01*
X123340303Y-83103433D01*
X123465268Y-83255703D01*
X123558123Y-83429424D01*
X123615306Y-83617929D01*
X123634613Y-83813961D01*
X123615306Y-84009993D01*
X123558123Y-84198498D01*
X123465268Y-84372219D01*
X123340303Y-84524489D01*
X123188033Y-84649454D01*
X123014312Y-84742309D01*
X123014310Y-84742310D01*
X122920059Y-84770901D01*
X122825807Y-84799492D01*
X122678899Y-84813961D01*
X121780651Y-84813961D01*
X121633743Y-84799492D01*
X121539491Y-84770901D01*
X121445240Y-84742310D01*
X121445238Y-84742309D01*
X121271517Y-84649454D01*
X121119247Y-84524489D01*
X120994282Y-84372219D01*
X120901427Y-84198498D01*
X120844244Y-84009993D01*
X120824937Y-83813961D01*
X120844244Y-83617929D01*
X120901427Y-83429424D01*
X120994282Y-83255703D01*
X121119247Y-83103433D01*
X121271517Y-82978468D01*
X121445238Y-82885613D01*
X121445240Y-82885612D01*
X121539490Y-82857022D01*
X121633743Y-82828430D01*
X121780651Y-82813961D01*
X122678899Y-82813961D01*
X122825807Y-82828430D01*
X122825807Y-82828430D01*
G37*
G36*
X108389775Y-84813961D02*
G01*
X105589775Y-84813961D01*
X105589775Y-82813961D01*
X108389775Y-82813961D01*
X108389775Y-84813961D01*
X108389775Y-84813961D01*
G37*
G36*
X144578687Y-79375027D02*
G01*
X144756274Y-79410350D01*
X144947362Y-79489502D01*
X145119336Y-79604411D01*
X145265589Y-79750664D01*
X145380498Y-79922638D01*
X145459650Y-80113726D01*
X145500000Y-80316584D01*
X145500000Y-80523416D01*
X145459650Y-80726274D01*
X145380498Y-80917362D01*
X145265589Y-81089336D01*
X145119336Y-81235589D01*
X144947362Y-81350498D01*
X144756274Y-81429650D01*
X144578687Y-81464973D01*
X144553417Y-81470000D01*
X144346583Y-81470000D01*
X144321313Y-81464973D01*
X144143726Y-81429650D01*
X143952638Y-81350498D01*
X143780664Y-81235589D01*
X143634411Y-81089336D01*
X143519502Y-80917362D01*
X143440350Y-80726274D01*
X143400000Y-80523416D01*
X143400000Y-80316584D01*
X143440350Y-80113726D01*
X143519502Y-79922638D01*
X143634411Y-79750664D01*
X143780664Y-79604411D01*
X143952638Y-79489502D01*
X144143726Y-79410350D01*
X144321313Y-79375027D01*
X144346583Y-79370000D01*
X144553417Y-79370000D01*
X144578687Y-79375027D01*
X144578687Y-79375027D01*
G37*
G36*
X168468687Y-79345027D02*
G01*
X168646274Y-79380350D01*
X168837362Y-79459502D01*
X169009336Y-79574411D01*
X169155589Y-79720664D01*
X169270498Y-79892638D01*
X169349650Y-80083726D01*
X169390000Y-80286584D01*
X169390000Y-80493416D01*
X169349650Y-80696274D01*
X169270498Y-80887362D01*
X169155589Y-81059336D01*
X169009336Y-81205589D01*
X168837362Y-81320498D01*
X168646274Y-81399650D01*
X168468687Y-81434973D01*
X168443417Y-81440000D01*
X168236583Y-81440000D01*
X168211313Y-81434973D01*
X168033726Y-81399650D01*
X167842638Y-81320498D01*
X167670664Y-81205589D01*
X167524411Y-81059336D01*
X167409502Y-80887362D01*
X167330350Y-80696274D01*
X167290000Y-80493416D01*
X167290000Y-80286584D01*
X167330350Y-80083726D01*
X167409502Y-79892638D01*
X167524411Y-79720664D01*
X167670664Y-79574411D01*
X167842638Y-79459502D01*
X168033726Y-79380350D01*
X168211313Y-79345027D01*
X168236583Y-79340000D01*
X168443417Y-79340000D01*
X168468687Y-79345027D01*
X168468687Y-79345027D01*
G37*
G36*
X144578687Y-72375027D02*
G01*
X144756274Y-72410350D01*
X144947362Y-72489502D01*
X145119336Y-72604411D01*
X145265589Y-72750664D01*
X145380498Y-72922638D01*
X145459650Y-73113726D01*
X145500000Y-73316584D01*
X145500000Y-73523416D01*
X145459650Y-73726274D01*
X145380498Y-73917362D01*
X145265589Y-74089336D01*
X145119336Y-74235589D01*
X144947362Y-74350498D01*
X144756274Y-74429650D01*
X144578687Y-74464973D01*
X144553417Y-74470000D01*
X144346583Y-74470000D01*
X144321313Y-74464973D01*
X144143726Y-74429650D01*
X143952638Y-74350498D01*
X143780664Y-74235589D01*
X143634411Y-74089336D01*
X143519502Y-73917362D01*
X143440350Y-73726274D01*
X143400000Y-73523416D01*
X143400000Y-73316584D01*
X143440350Y-73113726D01*
X143519502Y-72922638D01*
X143634411Y-72750664D01*
X143780664Y-72604411D01*
X143952638Y-72489502D01*
X144143726Y-72410350D01*
X144321313Y-72375027D01*
X144346583Y-72370000D01*
X144553417Y-72370000D01*
X144578687Y-72375027D01*
X144578687Y-72375027D01*
G37*
G36*
X168468687Y-72345027D02*
G01*
X168646274Y-72380350D01*
X168837362Y-72459502D01*
X169009336Y-72574411D01*
X169155589Y-72720664D01*
X169270498Y-72892638D01*
X169349650Y-73083726D01*
X169390000Y-73286584D01*
X169390000Y-73493416D01*
X169349650Y-73696274D01*
X169270498Y-73887362D01*
X169155589Y-74059336D01*
X169009336Y-74205589D01*
X168837362Y-74320498D01*
X168646274Y-74399650D01*
X168468687Y-74434973D01*
X168443417Y-74440000D01*
X168236583Y-74440000D01*
X168211313Y-74434973D01*
X168033726Y-74399650D01*
X167842638Y-74320498D01*
X167670664Y-74205589D01*
X167524411Y-74059336D01*
X167409502Y-73887362D01*
X167330350Y-73696274D01*
X167290000Y-73493416D01*
X167290000Y-73286584D01*
X167330350Y-73083726D01*
X167409502Y-72892638D01*
X167524411Y-72720664D01*
X167670664Y-72574411D01*
X167842638Y-72459502D01*
X168033726Y-72380350D01*
X168211313Y-72345027D01*
X168236583Y-72340000D01*
X168443417Y-72340000D01*
X168468687Y-72345027D01*
X168468687Y-72345027D01*
G37*
G36*
X149397738Y-71436653D02*
G01*
X149439598Y-71444979D01*
X149488596Y-71465275D01*
X149557889Y-71493977D01*
X149557890Y-71493978D01*
X149664351Y-71565112D01*
X149754888Y-71655649D01*
X149775204Y-71686055D01*
X149826023Y-71762111D01*
X149875021Y-71880403D01*
X149900000Y-72005979D01*
X149900000Y-72134021D01*
X149875021Y-72259597D01*
X149826023Y-72377889D01*
X149824378Y-72380351D01*
X149754888Y-72484351D01*
X149664351Y-72574888D01*
X149593216Y-72622418D01*
X149557889Y-72646023D01*
X149488596Y-72674725D01*
X149439598Y-72695021D01*
X149397738Y-72703347D01*
X149314021Y-72720000D01*
X149185979Y-72720000D01*
X149102262Y-72703347D01*
X149060402Y-72695021D01*
X149011404Y-72674725D01*
X148942111Y-72646023D01*
X148906784Y-72622418D01*
X148835649Y-72574888D01*
X148745112Y-72484351D01*
X148675622Y-72380351D01*
X148673977Y-72377889D01*
X148624979Y-72259597D01*
X148600000Y-72134021D01*
X148600000Y-72005979D01*
X148624979Y-71880403D01*
X148673977Y-71762111D01*
X148724796Y-71686055D01*
X148745112Y-71655649D01*
X148835649Y-71565112D01*
X148942110Y-71493978D01*
X148942111Y-71493977D01*
X149011404Y-71465275D01*
X149060402Y-71444979D01*
X149102262Y-71436653D01*
X149185979Y-71420000D01*
X149314021Y-71420000D01*
X149397738Y-71436653D01*
X149397738Y-71436653D01*
G37*
G36*
X180097738Y-71436653D02*
G01*
X180139598Y-71444979D01*
X180188596Y-71465275D01*
X180257889Y-71493977D01*
X180257890Y-71493978D01*
X180364351Y-71565112D01*
X180454888Y-71655649D01*
X180475204Y-71686055D01*
X180526023Y-71762111D01*
X180575021Y-71880403D01*
X180600000Y-72005979D01*
X180600000Y-72134021D01*
X180575021Y-72259597D01*
X180526023Y-72377889D01*
X180524378Y-72380351D01*
X180454888Y-72484351D01*
X180364351Y-72574888D01*
X180293216Y-72622418D01*
X180257889Y-72646023D01*
X180188596Y-72674725D01*
X180139598Y-72695021D01*
X180097738Y-72703347D01*
X180014021Y-72720000D01*
X179885979Y-72720000D01*
X179802262Y-72703347D01*
X179760402Y-72695021D01*
X179711404Y-72674725D01*
X179642111Y-72646023D01*
X179606784Y-72622418D01*
X179535649Y-72574888D01*
X179445112Y-72484351D01*
X179375622Y-72380351D01*
X179373977Y-72377889D01*
X179324979Y-72259597D01*
X179300000Y-72134021D01*
X179300000Y-72005979D01*
X179324979Y-71880403D01*
X179373977Y-71762111D01*
X179424796Y-71686055D01*
X179445112Y-71655649D01*
X179535649Y-71565112D01*
X179642110Y-71493978D01*
X179642111Y-71493977D01*
X179711404Y-71465275D01*
X179760402Y-71444979D01*
X179802262Y-71436653D01*
X179885979Y-71420000D01*
X180014021Y-71420000D01*
X180097738Y-71436653D01*
X180097738Y-71436653D01*
G37*
G36*
X173297738Y-71436653D02*
G01*
X173339598Y-71444979D01*
X173388596Y-71465275D01*
X173457889Y-71493977D01*
X173457890Y-71493978D01*
X173564351Y-71565112D01*
X173654888Y-71655649D01*
X173675204Y-71686055D01*
X173726023Y-71762111D01*
X173775021Y-71880403D01*
X173800000Y-72005979D01*
X173800000Y-72134021D01*
X173775021Y-72259597D01*
X173726023Y-72377889D01*
X173724378Y-72380351D01*
X173654888Y-72484351D01*
X173564351Y-72574888D01*
X173493216Y-72622418D01*
X173457889Y-72646023D01*
X173388596Y-72674725D01*
X173339598Y-72695021D01*
X173297738Y-72703347D01*
X173214021Y-72720000D01*
X173085979Y-72720000D01*
X173002262Y-72703347D01*
X172960402Y-72695021D01*
X172911404Y-72674725D01*
X172842111Y-72646023D01*
X172806784Y-72622418D01*
X172735649Y-72574888D01*
X172645112Y-72484351D01*
X172575622Y-72380351D01*
X172573977Y-72377889D01*
X172524979Y-72259597D01*
X172500000Y-72134021D01*
X172500000Y-72005979D01*
X172524979Y-71880403D01*
X172573977Y-71762111D01*
X172624796Y-71686055D01*
X172645112Y-71655649D01*
X172735649Y-71565112D01*
X172842110Y-71493978D01*
X172842111Y-71493977D01*
X172911404Y-71465275D01*
X172960402Y-71444979D01*
X173002262Y-71436653D01*
X173085979Y-71420000D01*
X173214021Y-71420000D01*
X173297738Y-71436653D01*
X173297738Y-71436653D01*
G37*
G36*
X156197738Y-71436653D02*
G01*
X156239598Y-71444979D01*
X156288596Y-71465275D01*
X156357889Y-71493977D01*
X156357890Y-71493978D01*
X156464351Y-71565112D01*
X156554888Y-71655649D01*
X156575204Y-71686055D01*
X156626023Y-71762111D01*
X156675021Y-71880403D01*
X156700000Y-72005979D01*
X156700000Y-72134021D01*
X156675021Y-72259597D01*
X156626023Y-72377889D01*
X156624378Y-72380351D01*
X156554888Y-72484351D01*
X156464351Y-72574888D01*
X156393216Y-72622418D01*
X156357889Y-72646023D01*
X156288596Y-72674725D01*
X156239598Y-72695021D01*
X156197738Y-72703347D01*
X156114021Y-72720000D01*
X155985979Y-72720000D01*
X155902262Y-72703347D01*
X155860402Y-72695021D01*
X155811404Y-72674725D01*
X155742111Y-72646023D01*
X155706784Y-72622418D01*
X155635649Y-72574888D01*
X155545112Y-72484351D01*
X155475622Y-72380351D01*
X155473977Y-72377889D01*
X155424979Y-72259597D01*
X155400000Y-72134021D01*
X155400000Y-72005979D01*
X155424979Y-71880403D01*
X155473977Y-71762111D01*
X155524796Y-71686055D01*
X155545112Y-71655649D01*
X155635649Y-71565112D01*
X155742110Y-71493978D01*
X155742111Y-71493977D01*
X155811404Y-71465275D01*
X155860402Y-71444979D01*
X155902262Y-71436653D01*
X155985979Y-71420000D01*
X156114021Y-71420000D01*
X156197738Y-71436653D01*
X156197738Y-71436653D01*
G37*
G36*
X169688707Y-69897597D02*
G01*
X169765836Y-69905193D01*
X169963762Y-69965233D01*
X169963765Y-69965234D01*
X170146170Y-70062732D01*
X170306055Y-70193945D01*
X170437268Y-70353830D01*
X170534766Y-70536235D01*
X170534767Y-70536238D01*
X170594807Y-70734164D01*
X170615080Y-70940000D01*
X170594807Y-71145836D01*
X170534767Y-71343762D01*
X170534766Y-71343765D01*
X170437268Y-71526170D01*
X170306055Y-71686055D01*
X170146170Y-71817268D01*
X169963765Y-71914766D01*
X169963762Y-71914767D01*
X169765836Y-71974807D01*
X169688707Y-71982404D01*
X169611580Y-71990000D01*
X169508420Y-71990000D01*
X169431293Y-71982404D01*
X169354164Y-71974807D01*
X169156238Y-71914767D01*
X169156235Y-71914766D01*
X168973830Y-71817268D01*
X168813945Y-71686055D01*
X168682732Y-71526170D01*
X168585234Y-71343765D01*
X168585233Y-71343762D01*
X168525193Y-71145836D01*
X168504920Y-70940000D01*
X168525193Y-70734164D01*
X168585233Y-70536238D01*
X168585234Y-70536235D01*
X168682732Y-70353830D01*
X168813945Y-70193945D01*
X168973830Y-70062732D01*
X169156235Y-69965234D01*
X169156238Y-69965233D01*
X169354164Y-69905193D01*
X169431293Y-69897597D01*
X169508420Y-69890000D01*
X169611580Y-69890000D01*
X169688707Y-69897597D01*
X169688707Y-69897597D01*
G37*
G36*
X168070000Y-71990000D02*
G01*
X165970000Y-71990000D01*
X165970000Y-69890000D01*
X168070000Y-69890000D01*
X168070000Y-71990000D01*
X168070000Y-71990000D01*
G37*
G36*
X145818707Y-69897597D02*
G01*
X145895836Y-69905193D01*
X146093762Y-69965233D01*
X146093765Y-69965234D01*
X146276170Y-70062732D01*
X146436055Y-70193945D01*
X146567268Y-70353830D01*
X146664766Y-70536235D01*
X146664767Y-70536238D01*
X146724807Y-70734164D01*
X146745080Y-70940000D01*
X146724807Y-71145836D01*
X146664767Y-71343762D01*
X146664766Y-71343765D01*
X146567268Y-71526170D01*
X146436055Y-71686055D01*
X146276170Y-71817268D01*
X146093765Y-71914766D01*
X146093762Y-71914767D01*
X145895836Y-71974807D01*
X145818707Y-71982404D01*
X145741580Y-71990000D01*
X145638420Y-71990000D01*
X145561293Y-71982404D01*
X145484164Y-71974807D01*
X145286238Y-71914767D01*
X145286235Y-71914766D01*
X145103830Y-71817268D01*
X144943945Y-71686055D01*
X144812732Y-71526170D01*
X144715234Y-71343765D01*
X144715233Y-71343762D01*
X144655193Y-71145836D01*
X144634920Y-70940000D01*
X144655193Y-70734164D01*
X144715233Y-70536238D01*
X144715234Y-70536235D01*
X144812732Y-70353830D01*
X144943945Y-70193945D01*
X145103830Y-70062732D01*
X145286235Y-69965234D01*
X145286238Y-69965233D01*
X145484164Y-69905193D01*
X145561293Y-69897597D01*
X145638420Y-69890000D01*
X145741580Y-69890000D01*
X145818707Y-69897597D01*
X145818707Y-69897597D01*
G37*
G36*
X144200000Y-71990000D02*
G01*
X142100000Y-71990000D01*
X142100000Y-69890000D01*
X144200000Y-69890000D01*
X144200000Y-71990000D01*
X144200000Y-71990000D01*
G37*
M02*
