M48
; DRILL file {KiCad (5.1.8)-1} date 12/25/20 10:55:47
; FORMAT={-:-/ absolute / inch / decimal}
; #@! TF.CreationDate,2020-12-25T10:55:47+01:00
; #@! TF.GenerationSoftware,Kicad,Pcbnew,(5.1.8)-1
FMAT,2
INCH
T1C0.0157
T2C0.0315
T3C0.0394
T4C0.0354
T5C0.0669
T6C0.0866
%
G90
G05
T1
X4.5236Y-3.2972
X4.561Y-4.4701
X4.5756Y-3.4449
X4.6461Y-3.3576
X4.698Y-4.345
X4.6996Y-4.4478
X4.7087Y-4.2482
X4.7185Y-4.1458
X4.8811Y-3.3996
X4.8821Y-3.6002
X4.8821Y-3.6994
X4.8821Y-3.799
X4.8821Y-3.8962
X4.8821Y-4.0005
X4.8821Y-4.049
X4.8821Y-4.0998
X4.8821Y-4.1494
X4.8822Y-3.5497
X4.8839Y-3.5
X4.8839Y-4.572
X4.8902Y-4.4752
X4.9012Y-4.2505
X4.9195Y-4.3466
X5.0656Y-4.6822
X5.1226Y-4.0978
X5.1404Y-3.9614
X5.1407Y-3.8425
X5.1413Y-4.6161
X5.1421Y-4.5102
X5.1665Y-3.8728
X5.2014Y-4.1628
X5.2014Y-4.2238
X5.2014Y-4.2797
X5.2014Y-4.3399
X5.2014Y-4.399
X5.2014Y-4.4596
X5.2014Y-4.5159
X5.2014Y-4.5765
X5.2014Y-4.6372
X5.2047Y-3.8651
X5.2055Y-3.7504
X5.2057Y-3.9257
X5.2063Y-3.8087
X5.2073Y-3.9854
X5.4925Y-2.8476
X5.4965Y-3.2185
X5.5579Y-3.9465
X5.5717Y-2.8465
X5.574Y-3.2185
X5.5969Y-4.7831
X5.607Y-4.297
X5.6138Y-3.7555
X5.6142Y-3.6063
X5.6217Y-4.7512
X5.6236Y-4.5803
X5.6287Y-4.6902
X5.6335Y-3.3945
X5.712Y-3.946
X5.7154Y-3.4272
X5.7157Y-3.3504
X5.7602Y-4.3386
X5.7602Y-4.802
X5.785Y-4.1
X5.7878Y-4.737
X5.817Y-4.1
X5.8217Y-4.737
X5.824Y-3.089
X5.8414Y-4.124
X5.8567Y-4.743
X5.857Y-4.775
X5.857Y-4.8075
X5.8602Y-3.6115
X5.8602Y-3.7504
X5.866Y-4.0994
X5.876Y-4.214
X5.876Y-4.249
X5.9118Y-2.9189
X5.9118Y-2.9732
X5.9343Y-4.8055
X5.9665Y-3.4713
X5.978Y-3.8409
X5.9843Y-4.8039
X5.986Y-4.315
X6.006Y-3.444
X6.0102Y-2.9185
X6.011Y-2.972
X6.014Y-4.265
X6.0268Y-3.8398
X6.031Y-3.967
X6.0386Y-4.8012
X6.075Y-3.518
X6.0799Y-3.0569
X6.088Y-4.24
X6.0894Y-4.7998
X6.0929Y-4.6673
X6.1094Y-2.9181
X6.1102Y-2.9724
X6.116Y-4.201
X6.122Y-3.5398
X6.1287Y-4.8043
X6.138Y-3.476
X6.1428Y-4.682
X6.1868Y-4.1295
X6.1953Y-4.777
X6.224Y-3.238
X6.2449Y-4.8024
X6.2775Y-3.7475
X6.2775Y-3.8475
X6.315Y-3.565
X6.3325Y-3.19
X6.3776Y-4.0629
X6.388Y-2.964
X6.3882Y-3.6591
X6.409Y-3.382
X6.43Y-4.242
X6.4323Y-2.8469
X6.4331Y-3.2189
X6.462Y-3.994
X6.464Y-3.384
X6.49Y-4.226
X6.5122Y-2.8461
X6.514Y-4.008
X6.5165Y-3.2197
X6.535Y-3.45
X6.563Y-4.8104
X6.6108Y-3.6742
X6.6272Y-4.8028
X6.645Y-3.7125
X6.6579Y-3.3398
X6.6579Y-3.4252
X6.667Y-3.896
X6.68Y-4.534
X6.6835Y-4.0571
X6.6835Y-4.1693
X6.685Y-3.7575
X6.6981Y-4.2504
X6.7087Y-4.4457
X6.715Y-3.6425
X6.7295Y-4.7925
X6.7583Y-3.9465
X6.7583Y-4.1071
X6.7587Y-4.2039
X6.7626Y-3.089
X6.7632Y-4.3232
X6.775Y-3.6675
X6.7752Y-4.7841
X6.797Y-3.432
X6.8132Y-4.4748
X6.832Y-4.572
X6.8366Y-4.8096
X6.852Y-2.9193
X6.8531Y-2.976
X6.8625Y-3.5225
X6.863Y-3.8425
X6.8642Y-4.7839
X6.8673Y-3.5882
X6.8705Y-4.4748
X6.874Y-4.114
X6.8913Y-3.9764
X6.894Y-4.318
X6.8945Y-4.7634
X6.9024Y-4.2189
X6.95Y-2.9713
X6.9512Y-2.9169
X6.9912Y-4.1555
X6.9915Y-3.718
X7.0Y-4.3285
X7.0079Y-3.0512
X7.015Y-3.82
X7.0157Y-4.8067
X7.02Y-4.0201
X7.03Y-3.761
X7.0354Y-4.715
X7.042Y-4.464
X7.05Y-2.9181
X7.052Y-2.9748
X7.0543Y-3.1728
X7.063Y-4.489
X7.0646Y-3.876
X7.0736Y-4.8098
X7.0925Y-3.5245
X7.095Y-4.235
X7.096Y-4.576
X7.122Y-3.761
X7.1232Y-3.4488
X7.128Y-4.594
X7.129Y-3.644
X7.1323Y-4.8157
X7.1398Y-4.0969
X7.1414Y-3.5088
X7.1532Y-4.6129
X7.1685Y-4.7445
X7.1689Y-4.6933
X7.1763Y-4.6343
X7.1843Y-3.9425
X7.2083Y-4.4008
X7.2433Y-3.5146
X7.2661Y-3.1701
X7.28Y-3.525
X7.2823Y-3.8559
X7.2831Y-3.2933
X7.307Y-4.54
X7.3147Y-4.2055
X7.3248Y-4.0594
X7.335Y-3.618
X7.338Y-3.718
X7.3886Y-3.9492
X7.3949Y-3.3823
X7.4035Y-4.5382
X7.4035Y-4.5925
X7.4035Y-4.6488
X7.4035Y-4.7071
X7.4035Y-4.7724
X7.4335Y-4.0811
T2
X4.2122Y-3.2998
X4.2122Y-3.3998
X4.2122Y-3.4998
X4.2122Y-3.5998
X4.2122Y-3.6998
X4.2122Y-3.7998
X4.2122Y-3.8998
X4.2122Y-3.9998
X4.2122Y-4.0998
X4.2122Y-4.1998
X4.2122Y-4.2998
X4.2122Y-4.3998
X4.2122Y-4.4998
X4.2122Y-4.5998
X4.8122Y-3.2998
X4.8122Y-3.3998
X4.8122Y-3.4998
X4.8122Y-3.5998
X4.8122Y-3.6998
X4.8122Y-3.7998
X4.8122Y-3.8998
X4.8122Y-3.9998
X4.8122Y-4.0998
X4.8122Y-4.1998
X4.8122Y-4.2998
X4.8122Y-4.3998
X4.8122Y-4.4998
X4.8122Y-4.5998
T3
X5.6358Y-2.7929
X5.7358Y-2.7929
X6.5756Y-2.7929
X6.6756Y-2.7929
T4
X6.8169Y-2.8374
X7.0846Y-2.8374
X5.876Y-2.8374
X6.1437Y-2.8374
T5
X5.687Y-2.8906
X5.687Y-3.1661
X6.6276Y-2.8894
X6.6276Y-3.165
T6
X4.9819Y-3.4465
X4.9819Y-4.4661
T0
M30
