G04 #@! TF.GenerationSoftware,KiCad,Pcbnew,(5.1.0)-1*
G04 #@! TF.CreationDate,2019-04-20T02:25:45+02:00*
G04 #@! TF.ProjectId,GBDSO,47424453-4f2e-46b6-9963-61645f706362,rev?*
G04 #@! TF.SameCoordinates,Original*
G04 #@! TF.FileFunction,Copper,L2,Bot*
G04 #@! TF.FilePolarity,Positive*
%FSLAX46Y46*%
G04 Gerber Fmt 4.6, Leading zero omitted, Abs format (unit mm)*
G04 Created by KiCad (PCBNEW (5.1.0)-1) date 2019-04-20 02:25:45*
%MOMM*%
%LPD*%
G04 APERTURE LIST*
%ADD10O,2.400000X1.600000*%
%ADD11R,2.400000X1.600000*%
%ADD12R,1.500000X1.000000*%
%ADD13C,0.500000*%
%ADD14C,0.100000*%
%ADD15O,1.700000X1.700000*%
%ADD16R,1.700000X1.700000*%
%ADD17C,0.600000*%
%ADD18C,0.500000*%
%ADD19C,0.250000*%
%ADD20C,0.254000*%
G04 APERTURE END LIST*
D10*
X122229775Y-83813961D03*
X106989775Y-116833961D03*
X122229775Y-86353961D03*
X106989775Y-114293961D03*
X122229775Y-88893961D03*
X106989775Y-111753961D03*
X122229775Y-91433961D03*
X106989775Y-109213961D03*
X122229775Y-93973961D03*
X106989775Y-106673961D03*
X122229775Y-96513961D03*
X106989775Y-104133961D03*
X122229775Y-99053961D03*
X106989775Y-101593961D03*
X122229775Y-101593961D03*
X106989775Y-99053961D03*
X122229775Y-104133961D03*
X106989775Y-96513961D03*
X122229775Y-106673961D03*
X106989775Y-93973961D03*
X122229775Y-109213961D03*
X106989775Y-91433961D03*
X122229775Y-111753961D03*
X106989775Y-88893961D03*
X122229775Y-114293961D03*
X106989775Y-86353961D03*
X122229775Y-116833961D03*
D11*
X106989775Y-83813961D03*
D12*
X145070000Y-118890000D03*
D13*
X145070000Y-117590000D03*
D14*
G36*
X144320602Y-117590000D02*
G01*
X144320602Y-117565466D01*
X144325412Y-117516635D01*
X144334984Y-117468510D01*
X144349228Y-117421555D01*
X144368005Y-117376222D01*
X144391136Y-117332949D01*
X144418396Y-117292150D01*
X144449524Y-117254221D01*
X144484221Y-117219524D01*
X144522150Y-117188396D01*
X144562949Y-117161136D01*
X144606222Y-117138005D01*
X144651555Y-117119228D01*
X144698510Y-117104984D01*
X144746635Y-117095412D01*
X144795466Y-117090602D01*
X144820000Y-117090602D01*
X144820000Y-117090000D01*
X145320000Y-117090000D01*
X145320000Y-117090602D01*
X145344534Y-117090602D01*
X145393365Y-117095412D01*
X145441490Y-117104984D01*
X145488445Y-117119228D01*
X145533778Y-117138005D01*
X145577051Y-117161136D01*
X145617850Y-117188396D01*
X145655779Y-117219524D01*
X145690476Y-117254221D01*
X145721604Y-117292150D01*
X145748864Y-117332949D01*
X145771995Y-117376222D01*
X145790772Y-117421555D01*
X145805016Y-117468510D01*
X145814588Y-117516635D01*
X145819398Y-117565466D01*
X145819398Y-117590000D01*
X145820000Y-117590000D01*
X145820000Y-118140000D01*
X144320000Y-118140000D01*
X144320000Y-117590000D01*
X144320602Y-117590000D01*
X144320602Y-117590000D01*
G37*
D13*
X145070000Y-120190000D03*
D14*
G36*
X145820000Y-119640000D02*
G01*
X145820000Y-120190000D01*
X145819398Y-120190000D01*
X145819398Y-120214534D01*
X145814588Y-120263365D01*
X145805016Y-120311490D01*
X145790772Y-120358445D01*
X145771995Y-120403778D01*
X145748864Y-120447051D01*
X145721604Y-120487850D01*
X145690476Y-120525779D01*
X145655779Y-120560476D01*
X145617850Y-120591604D01*
X145577051Y-120618864D01*
X145533778Y-120641995D01*
X145488445Y-120660772D01*
X145441490Y-120675016D01*
X145393365Y-120684588D01*
X145344534Y-120689398D01*
X145320000Y-120689398D01*
X145320000Y-120690000D01*
X144820000Y-120690000D01*
X144820000Y-120689398D01*
X144795466Y-120689398D01*
X144746635Y-120684588D01*
X144698510Y-120675016D01*
X144651555Y-120660772D01*
X144606222Y-120641995D01*
X144562949Y-120618864D01*
X144522150Y-120591604D01*
X144484221Y-120560476D01*
X144449524Y-120525779D01*
X144418396Y-120487850D01*
X144391136Y-120447051D01*
X144368005Y-120403778D01*
X144349228Y-120358445D01*
X144334984Y-120311490D01*
X144325412Y-120263365D01*
X144320602Y-120214534D01*
X144320602Y-120190000D01*
X144320000Y-120190000D01*
X144320000Y-119640000D01*
X145820000Y-119640000D01*
X145820000Y-119640000D01*
G37*
D15*
X169560000Y-70940000D03*
D16*
X167020000Y-70940000D03*
D15*
X145690000Y-70940000D03*
D16*
X143150000Y-70940000D03*
D17*
X158170000Y-95160000D03*
X160510000Y-95870000D03*
X158180000Y-97920000D03*
X160480000Y-97180000D03*
X165520000Y-81780000D03*
X163400000Y-81760000D03*
X179070000Y-74120000D03*
X179120000Y-75560000D03*
X176530000Y-75470000D03*
X176560000Y-74090000D03*
X181290000Y-91140000D03*
X185920000Y-91860000D03*
X184990000Y-83649998D03*
X174429999Y-91140000D03*
X171660000Y-100240000D03*
X174320000Y-97600010D03*
X171660000Y-104319998D03*
X171670000Y-106780000D03*
X171784990Y-109810000D03*
X169890000Y-114990000D03*
X171780000Y-113729996D03*
X139610000Y-81750000D03*
X141580000Y-81750000D03*
X155180000Y-74120000D03*
X155200000Y-75500000D03*
X152680000Y-75490000D03*
X152660000Y-74130000D03*
X155500000Y-89910000D03*
X158040000Y-82960000D03*
X162260000Y-92940000D03*
X167914996Y-93325000D03*
X166400000Y-108690000D03*
X165450000Y-103140000D03*
X183980000Y-89270000D03*
X181350000Y-104060000D03*
X147850000Y-99210000D03*
X178700002Y-119760000D03*
X151840000Y-97560000D03*
X182240000Y-114640000D03*
X153080000Y-97530000D03*
X181590000Y-114010000D03*
X163590000Y-99550000D03*
X142970000Y-119130000D03*
X181380000Y-97140000D03*
X185792500Y-106820000D03*
X188810000Y-103660000D03*
X163380000Y-72310000D03*
X164225000Y-98395000D03*
X115850000Y-113540000D03*
X148850000Y-95260000D03*
X151550000Y-88170000D03*
X143090000Y-86220000D03*
X153170000Y-87310000D03*
X186430000Y-100320000D03*
X142840000Y-116340000D03*
X141170002Y-100240000D03*
X116220000Y-87500000D03*
X159340000Y-87150000D03*
X141520000Y-72300000D03*
X139510000Y-72330000D03*
X165410000Y-72290000D03*
X161990000Y-75810002D03*
X174944680Y-110524680D03*
X182080000Y-120510000D03*
X184560000Y-80520000D03*
X170400000Y-112920000D03*
X188050000Y-115270000D03*
X182480000Y-100140000D03*
X176500000Y-102110000D03*
X185830000Y-94410000D03*
X180930000Y-87600000D03*
X179180000Y-80590000D03*
X180570000Y-92840000D03*
X186050000Y-103110000D03*
X188050000Y-116650000D03*
X188050000Y-118080000D03*
X188050000Y-119560000D03*
X188050000Y-121220000D03*
X187830000Y-85910000D03*
X174510000Y-113660010D03*
X174330000Y-115440000D03*
X177562500Y-106757500D03*
X161990005Y-103197495D03*
X170130671Y-107959990D03*
X156610000Y-88470000D03*
X179440001Y-98450000D03*
X180400000Y-94410000D03*
X181037500Y-96040000D03*
X162742500Y-90967500D03*
X169120000Y-98430000D03*
X176950000Y-89500000D03*
X180830000Y-90240000D03*
X171460000Y-96130000D03*
X169110000Y-84830000D03*
X169110000Y-87000000D03*
X145170000Y-87050000D03*
X145180000Y-85100000D03*
X174070000Y-75590000D03*
X174040000Y-74150000D03*
X150160000Y-74140000D03*
X150160000Y-75520000D03*
X175320000Y-107160000D03*
X147930000Y-78460000D03*
X171770000Y-78460002D03*
X178000000Y-77500000D03*
X169760000Y-105900000D03*
X154429998Y-77645010D03*
X183090000Y-111780000D03*
X182090002Y-119210000D03*
X169760000Y-103050002D03*
X175040000Y-101000000D03*
X146310000Y-110200000D03*
X142160000Y-121490000D03*
X142590000Y-95390000D03*
X142790000Y-120680000D03*
X142600000Y-91600000D03*
X142640000Y-90390000D03*
X142900000Y-112860000D03*
X144950000Y-101290000D03*
X146310000Y-121970000D03*
X150730002Y-122060000D03*
X148732838Y-122089007D03*
X152000000Y-122020000D03*
X148749551Y-121274976D03*
X153380007Y-121950007D03*
X148760000Y-120475032D03*
X147870011Y-120319747D03*
X154670000Y-121913898D03*
X155670000Y-122030000D03*
X147010000Y-120320000D03*
X158619999Y-121979999D03*
X146909978Y-104219978D03*
X148160000Y-104210000D03*
X157360000Y-121335021D03*
X150180000Y-104130000D03*
X154760000Y-118550000D03*
X149000002Y-105560000D03*
X156028051Y-118921949D03*
X149220000Y-109560000D03*
X166700000Y-122185065D03*
X149220085Y-108620571D03*
X168330000Y-121990000D03*
X143270000Y-94030000D03*
X143900000Y-91590000D03*
X173650000Y-122165010D03*
X170930000Y-121730000D03*
X172280000Y-98520000D03*
X179320000Y-114570000D03*
X172090000Y-121515054D03*
X174350000Y-121510002D03*
X151133051Y-107716949D03*
X175120000Y-120990002D03*
X151133058Y-106833058D03*
X178200000Y-122089998D03*
X157145000Y-104888058D03*
X152870011Y-106208058D03*
X155810000Y-106190000D03*
X179670000Y-122170000D03*
X153580000Y-105583058D03*
X181160000Y-122320000D03*
X155050000Y-104720000D03*
X182190000Y-116010000D03*
X118009775Y-85283961D03*
X128667011Y-118927978D03*
X124004990Y-93963961D03*
X131230000Y-98370000D03*
X124004990Y-98963961D03*
X130565054Y-100620000D03*
X114900000Y-83750000D03*
X132115010Y-117783961D03*
X124210000Y-113668951D03*
X132115010Y-116243961D03*
X119329775Y-110363961D03*
X132115010Y-114703961D03*
X124954990Y-110402676D03*
X132115010Y-113273961D03*
X119599775Y-107903961D03*
X132115010Y-111733961D03*
X124489989Y-107963961D03*
X132115010Y-110233961D03*
X119849775Y-105303961D03*
X132115010Y-108703961D03*
X124004990Y-105393961D03*
X132115010Y-107283961D03*
X124004990Y-102843961D03*
X132115010Y-105733961D03*
X124004990Y-91443961D03*
X130575010Y-97600000D03*
X124004990Y-101613961D03*
X132265076Y-101229874D03*
X124004990Y-96493961D03*
X132225021Y-99713963D03*
X132200000Y-98173997D03*
X124008336Y-90162408D03*
X132240000Y-96740000D03*
X124050000Y-88900000D03*
X132220000Y-95260000D03*
X123980000Y-86350000D03*
X124004990Y-104133961D03*
X130115043Y-104083961D03*
X119369775Y-112973961D03*
X130610000Y-114560000D03*
X124050000Y-116130000D03*
X130590000Y-117250000D03*
D18*
X158170000Y-95160000D02*
X158880000Y-95870000D01*
X160085736Y-95870000D02*
X160510000Y-95870000D01*
X158880000Y-95870000D02*
X160085736Y-95870000D01*
X158180000Y-97920000D02*
X158920000Y-97180000D01*
X158920000Y-97180000D02*
X160055736Y-97180000D01*
X160055736Y-97180000D02*
X160480000Y-97180000D01*
X185920000Y-91860000D02*
X184990000Y-90930000D01*
X184990000Y-90930000D02*
X184990000Y-84074262D01*
X184990000Y-84074262D02*
X184990000Y-83649998D01*
X181290000Y-91140000D02*
X174429999Y-91140000D01*
X174299990Y-97600010D02*
X174320000Y-97600010D01*
X171660000Y-100240000D02*
X174299990Y-97600010D01*
X171660000Y-104319998D02*
X171660000Y-106770000D01*
X171660000Y-106770000D02*
X171670000Y-106780000D01*
X171480001Y-114029995D02*
X171780000Y-113729996D01*
X169890000Y-114990000D02*
X170519996Y-114990000D01*
X171784990Y-113725006D02*
X171780000Y-113729996D01*
X170519996Y-114990000D02*
X171480001Y-114029995D01*
X171784990Y-109810000D02*
X171784990Y-113725006D01*
X155500000Y-85500000D02*
X157740001Y-83259999D01*
X155500000Y-89910000D02*
X155500000Y-85500000D01*
X157740001Y-83259999D02*
X158040000Y-82960000D01*
X162260000Y-92940000D02*
X162645000Y-93325000D01*
X162645000Y-93325000D02*
X167914996Y-93325000D01*
X166390000Y-108680000D02*
X166400000Y-108690000D01*
X165450000Y-103140000D02*
X165450000Y-103140000D01*
X166390000Y-104080000D02*
X166390000Y-108680000D01*
X165450000Y-103140000D02*
X166390000Y-104080000D01*
X183979997Y-89270003D02*
X183980000Y-89270000D01*
X183980000Y-101430000D02*
X183980000Y-89270000D01*
X181350000Y-104060000D02*
X183980000Y-101430000D01*
D19*
X147850000Y-99210000D02*
X150890000Y-102250000D01*
X150890000Y-102250000D02*
X150890000Y-105153049D01*
X150890000Y-105153049D02*
X152340000Y-106603049D01*
X152340000Y-106603049D02*
X152340000Y-111700000D01*
X178299980Y-119359978D02*
X178400003Y-119460001D01*
X178400003Y-119460001D02*
X178700002Y-119760000D01*
X167210022Y-119359978D02*
X178299980Y-119359978D01*
X160850022Y-120210022D02*
X166359978Y-120210022D01*
X166359978Y-120210022D02*
X167210022Y-119359978D01*
X152340000Y-111700000D02*
X160850022Y-120210022D01*
X181940001Y-114939999D02*
X182240000Y-114640000D01*
X158790000Y-110420000D02*
X165863590Y-110420000D01*
X169368610Y-117555021D02*
X179324979Y-117555021D01*
X179324979Y-117555021D02*
X181940001Y-114939999D01*
X157880000Y-103600000D02*
X157880000Y-109510000D01*
X168580000Y-116766411D02*
X169368610Y-117555021D01*
X165863590Y-110420000D02*
X168580000Y-113136410D01*
X157880000Y-109510000D02*
X158790000Y-110420000D01*
X168580000Y-113136410D02*
X168580000Y-116766411D01*
X151840000Y-97560000D02*
X157880000Y-103600000D01*
X153379999Y-97829999D02*
X153080000Y-97530000D01*
X158950000Y-103400000D02*
X153379999Y-97829999D01*
X158950000Y-109930000D02*
X158950000Y-103400000D01*
X158890000Y-109870000D02*
X165950000Y-109870000D01*
X165950000Y-109870000D02*
X169030011Y-112950011D01*
X169030011Y-112950011D02*
X169030011Y-116580011D01*
X181590000Y-114434264D02*
X181590000Y-114010000D01*
X178919253Y-117105011D02*
X181590000Y-114434264D01*
X169030011Y-116580011D02*
X169555011Y-117105011D01*
X169555011Y-117105011D02*
X178919253Y-117105011D01*
D18*
X145070000Y-117590000D02*
X144030000Y-117590000D01*
X142970000Y-118650000D02*
X142970000Y-119130000D01*
X144030000Y-117590000D02*
X142970000Y-118650000D01*
X172539995Y-96840001D02*
X181080001Y-96840001D01*
X163590000Y-99550000D02*
X169829996Y-99550000D01*
X181080001Y-96840001D02*
X181380000Y-97140000D01*
X169829996Y-99550000D02*
X172539995Y-96840001D01*
X185792500Y-106820000D02*
X188140000Y-106820000D01*
X188140000Y-106820000D02*
X188810000Y-106150000D01*
X188810000Y-106150000D02*
X188810000Y-103660000D01*
X116220000Y-113170000D02*
X116220000Y-87500000D01*
X115850000Y-113540000D02*
X116220000Y-113170000D01*
X170130671Y-107959990D02*
X172050010Y-107959990D01*
X179015737Y-98450000D02*
X179440001Y-98450000D01*
X172550000Y-107460000D02*
X172550000Y-100910000D01*
X172550000Y-100910000D02*
X175010000Y-98450000D01*
X175010000Y-98450000D02*
X179015737Y-98450000D01*
X172050010Y-107959990D02*
X172550000Y-107460000D01*
X180400000Y-94410000D02*
X180400000Y-95402500D01*
X180400000Y-95402500D02*
X181037500Y-96040000D01*
D19*
X162750000Y-90960000D02*
X162742500Y-90967500D01*
D18*
X162750000Y-90975000D02*
X162750000Y-90960000D01*
X164115000Y-92340000D02*
X162750000Y-90975000D01*
X168630000Y-92340000D02*
X164115000Y-92340000D01*
X180400000Y-94410000D02*
X170700000Y-94410000D01*
X170700000Y-94410000D02*
X168630000Y-92340000D01*
X160245000Y-88470000D02*
X156610000Y-88470000D01*
X162742500Y-90967500D02*
X160245000Y-88470000D01*
X176950000Y-89500000D02*
X177374264Y-89500000D01*
X177374264Y-89500000D02*
X180090000Y-89500000D01*
X180090000Y-89500000D02*
X180830000Y-90240000D01*
X169120000Y-98430000D02*
X171420000Y-96130000D01*
X171420000Y-96130000D02*
X171460000Y-96130000D01*
X147930000Y-78460000D02*
X171769998Y-78460000D01*
X171769998Y-78460000D02*
X171770000Y-78460002D01*
X175489999Y-99200001D02*
X173830000Y-100860000D01*
X171770000Y-78460002D02*
X172194264Y-78460002D01*
X182160000Y-97450004D02*
X180410003Y-99200001D01*
X180410003Y-99200001D02*
X175489999Y-99200001D01*
X172194266Y-78460000D02*
X179290000Y-78460000D01*
X173830000Y-105670000D02*
X175020001Y-106860001D01*
X182160000Y-81330000D02*
X182160000Y-97450004D01*
X175020001Y-106860001D02*
X175320000Y-107160000D01*
X173830000Y-100860000D02*
X173830000Y-105670000D01*
X179290000Y-78460000D02*
X182160000Y-81330000D01*
X172194264Y-78460002D02*
X172194266Y-78460000D01*
X154575008Y-77500000D02*
X154429998Y-77645010D01*
X178000000Y-77500000D02*
X154575008Y-77500000D01*
X182390001Y-118910001D02*
X182090002Y-119210000D01*
X183090000Y-118210002D02*
X182390001Y-118910001D01*
X183090000Y-111780000D02*
X183090000Y-118210002D01*
X169760000Y-105900000D02*
X169760000Y-103050002D01*
X175464264Y-101000000D02*
X175040000Y-101000000D01*
X180050000Y-77500000D02*
X183020000Y-80470000D01*
X178000000Y-77500000D02*
X180050000Y-77500000D01*
X183020000Y-97579969D02*
X180649969Y-99950000D01*
X183020000Y-80470000D02*
X183020000Y-97579969D01*
X180649969Y-99950000D02*
X176514264Y-99950000D01*
X176514264Y-99950000D02*
X175464264Y-101000000D01*
X146310000Y-110624264D02*
X146310000Y-110200000D01*
X146310000Y-113570000D02*
X146310000Y-110624264D01*
X146890000Y-114150000D02*
X146310000Y-113570000D01*
X146890000Y-118110000D02*
X146890000Y-114150000D01*
X145070000Y-118890000D02*
X146110000Y-118890000D01*
X146110000Y-118890000D02*
X146890000Y-118110000D01*
X142160000Y-121490000D02*
X142160000Y-121480000D01*
D19*
X142290001Y-95689999D02*
X142590000Y-95390000D01*
X139250000Y-98730000D02*
X142290001Y-95689999D01*
X139250000Y-120300000D02*
X139250000Y-98730000D01*
X142160000Y-121480000D02*
X140430000Y-121480000D01*
X140430000Y-121480000D02*
X139250000Y-120300000D01*
D18*
X142790000Y-120680000D02*
X142790000Y-120660000D01*
D19*
X142600000Y-94474998D02*
X142600000Y-92024264D01*
X140760000Y-120660000D02*
X139790000Y-119690000D01*
X142600000Y-92024264D02*
X142600000Y-91600000D01*
X142790000Y-120660000D02*
X140760000Y-120660000D01*
X139790000Y-119690000D02*
X139790000Y-99215002D01*
X139790000Y-99215002D02*
X143215001Y-95790001D01*
X143215001Y-95790001D02*
X143215001Y-95089999D01*
X143215001Y-95089999D02*
X142600000Y-94474998D01*
D18*
X142900000Y-103340000D02*
X144650001Y-101589999D01*
X144950000Y-100865736D02*
X144950000Y-101290000D01*
X144650001Y-101589999D02*
X144950000Y-101290000D01*
X142900000Y-112860000D02*
X142900000Y-103340000D01*
X144950000Y-91200000D02*
X144950000Y-100865736D01*
X144140000Y-90390000D02*
X144950000Y-91200000D01*
X142640000Y-90390000D02*
X144140000Y-90390000D01*
X145070000Y-121110000D02*
X145070000Y-120190000D01*
X146310000Y-121970000D02*
X145930000Y-121970000D01*
X145930000Y-121970000D02*
X145070000Y-121110000D01*
D19*
X150730002Y-122060000D02*
X148761845Y-122060000D01*
X148761845Y-122060000D02*
X148732838Y-122089007D01*
X149173815Y-121274976D02*
X148749551Y-121274976D01*
X151254976Y-121274976D02*
X149173815Y-121274976D01*
X152000000Y-122020000D02*
X151254976Y-121274976D01*
X149184264Y-120475032D02*
X148760000Y-120475032D01*
X151905032Y-120475032D02*
X149184264Y-120475032D01*
X153380007Y-121950007D02*
X151905032Y-120475032D01*
X148339736Y-119850022D02*
X152606124Y-119850022D01*
X152606124Y-119850022D02*
X154370001Y-121613899D01*
X147870011Y-120319747D02*
X148339736Y-119850022D01*
X154370001Y-121613899D02*
X154670000Y-121913898D01*
X147010000Y-119895736D02*
X147010000Y-120320000D01*
X153040011Y-119400011D02*
X147505725Y-119400011D01*
X155670000Y-122030000D02*
X153040011Y-119400011D01*
X147505725Y-119400011D02*
X147010000Y-119895736D01*
X146940001Y-104250001D02*
X146909978Y-104219978D01*
X146940001Y-112339999D02*
X146940001Y-104250001D01*
X158619999Y-121979999D02*
X156580001Y-121979999D01*
X156580001Y-121979999D02*
X146940001Y-112339999D01*
X156580757Y-121335021D02*
X156935736Y-121335021D01*
X153730000Y-118490000D02*
X153735736Y-118490000D01*
X147450000Y-105344264D02*
X147450000Y-112210000D01*
X148160000Y-104210000D02*
X148160000Y-104634264D01*
X147450000Y-112210000D02*
X153730000Y-118490000D01*
X156935736Y-121335021D02*
X157360000Y-121335021D01*
X153735736Y-118490000D02*
X156580757Y-121335021D01*
X148160000Y-104634264D02*
X147450000Y-105344264D01*
X154460001Y-118250001D02*
X154760000Y-118550000D01*
X148010000Y-111800000D02*
X154460001Y-118250001D01*
X148010000Y-105594998D02*
X148010000Y-111800000D01*
X150180000Y-104130000D02*
X149474998Y-104130000D01*
X149474998Y-104130000D02*
X148010000Y-105594998D01*
X155728052Y-118621950D02*
X156028051Y-118921949D01*
X154686102Y-117580000D02*
X155728052Y-118621950D01*
X154686102Y-117566102D02*
X154686102Y-117580000D01*
X148550000Y-111430000D02*
X154686102Y-117566102D01*
X149000002Y-105560000D02*
X148550000Y-106010002D01*
X148550000Y-106010002D02*
X148550000Y-111430000D01*
X149220000Y-111230000D02*
X160175065Y-122185065D01*
X149220000Y-109560000D02*
X149220000Y-111230000D01*
X160175065Y-122185065D02*
X166275736Y-122185065D01*
X166275736Y-122185065D02*
X166700000Y-122185065D01*
X149220085Y-108620571D02*
X149960000Y-109360486D01*
X155296410Y-116670000D02*
X160186465Y-121560055D01*
X155296410Y-116666410D02*
X155296410Y-116670000D01*
X149960000Y-109360486D02*
X149960000Y-111330000D01*
X167900055Y-121560055D02*
X168030001Y-121690001D01*
X160186465Y-121560055D02*
X167900055Y-121560055D01*
X149960000Y-111330000D02*
X155296410Y-116666410D01*
X168030001Y-121690001D02*
X168330000Y-121990000D01*
D18*
X143900000Y-92014264D02*
X143900000Y-91590000D01*
X143900000Y-92600000D02*
X143900000Y-92014264D01*
X143270000Y-94030000D02*
X143270000Y-93230000D01*
X143270000Y-93230000D02*
X143900000Y-92600000D01*
D19*
X171365010Y-122165010D02*
X171229999Y-122029999D01*
X173650000Y-122165010D02*
X171365010Y-122165010D01*
X171229999Y-122029999D02*
X170930000Y-121730000D01*
X178520000Y-116530000D02*
X179320000Y-115730000D01*
X173450000Y-116530000D02*
X178520000Y-116530000D01*
X169734998Y-108870000D02*
X172290000Y-108870000D01*
X170620001Y-100179999D02*
X170620001Y-106250001D01*
X170620001Y-106250001D02*
X169240000Y-107630002D01*
X172290000Y-108870000D02*
X172680000Y-109260000D01*
X179320000Y-115730000D02*
X179320000Y-114570000D01*
X172280000Y-98520000D02*
X170620001Y-100179999D01*
X169240000Y-107630002D02*
X169240000Y-108375002D01*
X169240000Y-108375002D02*
X169734998Y-108870000D01*
X172680000Y-109260000D02*
X172680000Y-115760000D01*
X172680000Y-115760000D02*
X173450000Y-116530000D01*
X174344948Y-121515054D02*
X174350000Y-121510002D01*
X172090000Y-121515054D02*
X174344948Y-121515054D01*
X174399998Y-120270000D02*
X175120000Y-120990002D01*
X167890000Y-120270000D02*
X174399998Y-120270000D01*
X167049956Y-121110044D02*
X167890000Y-120270000D01*
X160390043Y-121110044D02*
X167049956Y-121110044D01*
X151133051Y-107716949D02*
X151133051Y-111853051D01*
X151133051Y-111853051D02*
X160390043Y-121110044D01*
X166863556Y-120660033D02*
X167713600Y-119809989D01*
X151800000Y-107500000D02*
X151800000Y-111883590D01*
X177900001Y-121789999D02*
X178200000Y-122089998D01*
X175919991Y-119809989D02*
X177900001Y-121789999D01*
X167713600Y-119809989D02*
X175919991Y-119809989D01*
X160576443Y-120660033D02*
X166863556Y-120660033D01*
X151800000Y-111883590D02*
X160576443Y-120660033D01*
X151133058Y-106833058D02*
X151800000Y-107500000D01*
X157145000Y-104888058D02*
X155843058Y-106190000D01*
X155843058Y-106190000D02*
X155810000Y-106190000D01*
X179969999Y-121870001D02*
X179670000Y-122170000D01*
X180259999Y-121580001D02*
X179969999Y-121870001D01*
X161110010Y-119760011D02*
X166173579Y-119760011D01*
X179544971Y-118909967D02*
X180259999Y-119624995D01*
X167023622Y-118909967D02*
X179544971Y-118909967D01*
X166173579Y-119760011D02*
X167023622Y-118909967D01*
X152870011Y-111520011D02*
X161110010Y-119760011D01*
X152870011Y-106208058D02*
X152870011Y-111520011D01*
X180259999Y-119624995D02*
X180259999Y-121580001D01*
X181160000Y-121895736D02*
X181160000Y-122320000D01*
X180750000Y-121485736D02*
X181160000Y-121895736D01*
X153580000Y-111593590D02*
X161296410Y-119310000D01*
X180750000Y-119478585D02*
X180750000Y-121485736D01*
X153580000Y-105583058D02*
X153580000Y-111593590D01*
X165987178Y-119310000D02*
X166837222Y-118459956D01*
X166837222Y-118459956D02*
X179731371Y-118459956D01*
X161296410Y-119310000D02*
X165987178Y-119310000D01*
X179731371Y-118459956D02*
X180750000Y-119478585D01*
X165707180Y-110900000D02*
X158550000Y-110900000D01*
X158550000Y-110900000D02*
X155050000Y-107400000D01*
X168080000Y-116880000D02*
X168080000Y-113272820D01*
X168080000Y-113272820D02*
X165707180Y-110900000D01*
X155050000Y-105144264D02*
X155050000Y-104720000D01*
X155050000Y-107400000D02*
X155050000Y-105144264D01*
X168080000Y-116902822D02*
X169182209Y-118005031D01*
X169182209Y-118005031D02*
X180194969Y-118005031D01*
X180194969Y-118005031D02*
X181890001Y-116309999D01*
X181890001Y-116309999D02*
X182190000Y-116010000D01*
X168080000Y-116890000D02*
X168080000Y-116902822D01*
D18*
X128242747Y-118927978D02*
X128667011Y-118927978D01*
X120267978Y-118927978D02*
X128242747Y-118927978D01*
X118009775Y-85283961D02*
X118009775Y-116669775D01*
X118009775Y-116669775D02*
X120267978Y-118927978D01*
D19*
X124004990Y-93963961D02*
X128411029Y-98370000D01*
X128411029Y-98370000D02*
X130805736Y-98370000D01*
X130805736Y-98370000D02*
X131230000Y-98370000D01*
X125661029Y-100620000D02*
X130140790Y-100620000D01*
X130140790Y-100620000D02*
X130565054Y-100620000D01*
X124004990Y-98963961D02*
X125661029Y-100620000D01*
D18*
X131815011Y-118083960D02*
X132115010Y-117783961D01*
X130048971Y-119850000D02*
X131815011Y-118083960D01*
X119400000Y-119850000D02*
X130048971Y-119850000D01*
X116990000Y-117440000D02*
X119400000Y-119850000D01*
X114900000Y-83750000D02*
X116990000Y-85840000D01*
X116990000Y-85840000D02*
X116990000Y-117440000D01*
D19*
X131690746Y-116243961D02*
X132115010Y-116243961D01*
X124210000Y-113668951D02*
X126785010Y-116243961D01*
X126785010Y-116243961D02*
X131690746Y-116243961D01*
X128955010Y-111543961D02*
X131815011Y-114403962D01*
X131815011Y-114403962D02*
X132115010Y-114703961D01*
X125043961Y-111543961D02*
X128955010Y-111543961D01*
X123863961Y-110363961D02*
X125043961Y-111543961D01*
X119329775Y-110363961D02*
X123863961Y-110363961D01*
X129243725Y-110402676D02*
X131815011Y-112973962D01*
X131815011Y-112973962D02*
X132115010Y-113273961D01*
X124954990Y-110402676D02*
X129243725Y-110402676D01*
X129215010Y-108833961D02*
X131815011Y-111433962D01*
X123504985Y-107903961D02*
X124434985Y-108833961D01*
X119599775Y-107903961D02*
X123504985Y-107903961D01*
X124434985Y-108833961D02*
X129215010Y-108833961D01*
X131815011Y-111433962D02*
X132115010Y-111733961D01*
X124489989Y-107963961D02*
X129845010Y-107963961D01*
X129845010Y-107963961D02*
X131815011Y-109933962D01*
X131815011Y-109933962D02*
X132115010Y-110233961D01*
X122989988Y-105303961D02*
X124319988Y-106633961D01*
X131815011Y-108403962D02*
X132115010Y-108703961D01*
X130045010Y-106633961D02*
X131815011Y-108403962D01*
X124319988Y-106633961D02*
X130045010Y-106633961D01*
X119849775Y-105303961D02*
X122989988Y-105303961D01*
X130225010Y-105393961D02*
X131815011Y-106983962D01*
X124004990Y-105393961D02*
X130225010Y-105393961D01*
X131815011Y-106983962D02*
X132115010Y-107283961D01*
X132115010Y-105188924D02*
X132115010Y-105309697D01*
X129770047Y-102843961D02*
X132115010Y-105188924D01*
X124004990Y-102843961D02*
X129770047Y-102843961D01*
X132115010Y-105309697D02*
X132115010Y-105733961D01*
X124004990Y-91443961D02*
X130161029Y-97600000D01*
X130161029Y-97600000D02*
X130575010Y-97600000D01*
X124004990Y-101613961D02*
X131880989Y-101613961D01*
X131965077Y-101529873D02*
X132265076Y-101229874D01*
X131880989Y-101613961D02*
X131965077Y-101529873D01*
X131800757Y-99713963D02*
X132225021Y-99713963D01*
X127224992Y-99713963D02*
X131800757Y-99713963D01*
X124004990Y-96493961D02*
X127224992Y-99713963D01*
X124188411Y-90162408D02*
X124008336Y-90162408D01*
X132200000Y-98173997D02*
X124188411Y-90162408D01*
X124400000Y-88900000D02*
X124050000Y-88900000D01*
X132240000Y-96740000D02*
X124400000Y-88900000D01*
X132220000Y-95260000D02*
X123980000Y-87020000D01*
X123980000Y-87020000D02*
X123980000Y-86774264D01*
X123980000Y-86774264D02*
X123980000Y-86350000D01*
X130065043Y-104133961D02*
X130115043Y-104083961D01*
X124004990Y-104133961D02*
X130065043Y-104133961D01*
X123781037Y-112973961D02*
X124739999Y-112014999D01*
X124739999Y-112014999D02*
X128064999Y-112014999D01*
X128064999Y-112014999D02*
X130310001Y-114260001D01*
X130310001Y-114260001D02*
X130610000Y-114560000D01*
X119369775Y-112973961D02*
X123781037Y-112973961D01*
X125170000Y-117250000D02*
X130165736Y-117250000D01*
X124050000Y-116130000D02*
X125170000Y-117250000D01*
X130165736Y-117250000D02*
X130590000Y-117250000D01*
D20*
G36*
X141665000Y-70654250D02*
G01*
X141823750Y-70813000D01*
X143023000Y-70813000D01*
X143023000Y-70793000D01*
X143277000Y-70793000D01*
X143277000Y-70813000D01*
X143297000Y-70813000D01*
X143297000Y-71067000D01*
X143277000Y-71067000D01*
X143277000Y-72266250D01*
X143390322Y-72379572D01*
X143296525Y-72473368D01*
X143134010Y-72716589D01*
X143022068Y-72986842D01*
X142965000Y-73273740D01*
X142965000Y-73566260D01*
X143022068Y-73853158D01*
X143134010Y-74123411D01*
X143296525Y-74366632D01*
X143503368Y-74573475D01*
X143746589Y-74735990D01*
X144016842Y-74847932D01*
X144303740Y-74905000D01*
X144596260Y-74905000D01*
X144883158Y-74847932D01*
X145153411Y-74735990D01*
X145396632Y-74573475D01*
X145603475Y-74366632D01*
X145765990Y-74123411D01*
X145797262Y-74047911D01*
X149225000Y-74047911D01*
X149225000Y-74232089D01*
X149260932Y-74412729D01*
X149331414Y-74582889D01*
X149433738Y-74736028D01*
X149527710Y-74830000D01*
X149433738Y-74923972D01*
X149331414Y-75077111D01*
X149260932Y-75247271D01*
X149225000Y-75427911D01*
X149225000Y-75612089D01*
X149260932Y-75792729D01*
X149331414Y-75962889D01*
X149433738Y-76116028D01*
X149563972Y-76246262D01*
X149717111Y-76348586D01*
X149887271Y-76419068D01*
X150067911Y-76455000D01*
X150252089Y-76455000D01*
X150432729Y-76419068D01*
X150602889Y-76348586D01*
X150756028Y-76246262D01*
X150886262Y-76116028D01*
X150988586Y-75962889D01*
X151059068Y-75792729D01*
X151095000Y-75612089D01*
X151095000Y-75427911D01*
X151059068Y-75247271D01*
X150988586Y-75077111D01*
X150886262Y-74923972D01*
X150792290Y-74830000D01*
X150886262Y-74736028D01*
X150988586Y-74582889D01*
X151059068Y-74412729D01*
X151095000Y-74232089D01*
X151095000Y-74047911D01*
X151093011Y-74037911D01*
X151725000Y-74037911D01*
X151725000Y-74222089D01*
X151760932Y-74402729D01*
X151831414Y-74572889D01*
X151933738Y-74726028D01*
X152027710Y-74820000D01*
X151953738Y-74893972D01*
X151851414Y-75047111D01*
X151780932Y-75217271D01*
X151745000Y-75397911D01*
X151745000Y-75582089D01*
X151780932Y-75762729D01*
X151851414Y-75932889D01*
X151953738Y-76086028D01*
X152083972Y-76216262D01*
X152237111Y-76318586D01*
X152407271Y-76389068D01*
X152587911Y-76425000D01*
X152772089Y-76425000D01*
X152952729Y-76389068D01*
X153122889Y-76318586D01*
X153276028Y-76216262D01*
X153406262Y-76086028D01*
X153508586Y-75932889D01*
X153579068Y-75762729D01*
X153615000Y-75582089D01*
X153615000Y-75397911D01*
X153579068Y-75217271D01*
X153508586Y-75047111D01*
X153406262Y-74893972D01*
X153312290Y-74800000D01*
X153386262Y-74726028D01*
X153488586Y-74572889D01*
X153559068Y-74402729D01*
X153595000Y-74222089D01*
X153595000Y-74037911D01*
X153593011Y-74027911D01*
X154245000Y-74027911D01*
X154245000Y-74212089D01*
X154280932Y-74392729D01*
X154351414Y-74562889D01*
X154453738Y-74716028D01*
X154557710Y-74820000D01*
X154473738Y-74903972D01*
X154371414Y-75057111D01*
X154300932Y-75227271D01*
X154265000Y-75407911D01*
X154265000Y-75592089D01*
X154300932Y-75772729D01*
X154371414Y-75942889D01*
X154473738Y-76096028D01*
X154603972Y-76226262D01*
X154757111Y-76328586D01*
X154927271Y-76399068D01*
X155107911Y-76435000D01*
X155292089Y-76435000D01*
X155472729Y-76399068D01*
X155642889Y-76328586D01*
X155796028Y-76226262D01*
X155926262Y-76096028D01*
X156028586Y-75942889D01*
X156099068Y-75772729D01*
X156135000Y-75592089D01*
X156135000Y-75407911D01*
X156099068Y-75227271D01*
X156028586Y-75057111D01*
X155926262Y-74903972D01*
X155822290Y-74800000D01*
X155906262Y-74716028D01*
X156008586Y-74562889D01*
X156079068Y-74392729D01*
X156115000Y-74212089D01*
X156115000Y-74027911D01*
X156079068Y-73847271D01*
X156008586Y-73677111D01*
X155906262Y-73523972D01*
X155776028Y-73393738D01*
X155622889Y-73291414D01*
X155452729Y-73220932D01*
X155272089Y-73185000D01*
X155087911Y-73185000D01*
X154907271Y-73220932D01*
X154737111Y-73291414D01*
X154583972Y-73393738D01*
X154453738Y-73523972D01*
X154351414Y-73677111D01*
X154280932Y-73847271D01*
X154245000Y-74027911D01*
X153593011Y-74027911D01*
X153559068Y-73857271D01*
X153488586Y-73687111D01*
X153386262Y-73533972D01*
X153256028Y-73403738D01*
X153102889Y-73301414D01*
X152932729Y-73230932D01*
X152752089Y-73195000D01*
X152567911Y-73195000D01*
X152387271Y-73230932D01*
X152217111Y-73301414D01*
X152063972Y-73403738D01*
X151933738Y-73533972D01*
X151831414Y-73687111D01*
X151760932Y-73857271D01*
X151725000Y-74037911D01*
X151093011Y-74037911D01*
X151059068Y-73867271D01*
X150988586Y-73697111D01*
X150886262Y-73543972D01*
X150756028Y-73413738D01*
X150602889Y-73311414D01*
X150432729Y-73240932D01*
X150252089Y-73205000D01*
X150067911Y-73205000D01*
X149887271Y-73240932D01*
X149717111Y-73311414D01*
X149563972Y-73413738D01*
X149433738Y-73543972D01*
X149331414Y-73697111D01*
X149260932Y-73867271D01*
X149225000Y-74047911D01*
X145797262Y-74047911D01*
X145877932Y-73853158D01*
X145935000Y-73566260D01*
X145935000Y-73273740D01*
X145877932Y-72986842D01*
X145765990Y-72716589D01*
X145603475Y-72473368D01*
X145548340Y-72418233D01*
X145617050Y-72425000D01*
X145762950Y-72425000D01*
X145981111Y-72403513D01*
X146261034Y-72318599D01*
X146519014Y-72180706D01*
X146745134Y-71995134D01*
X146771393Y-71963137D01*
X148165000Y-71963137D01*
X148165000Y-72176863D01*
X148206696Y-72386483D01*
X148288485Y-72583940D01*
X148407225Y-72761647D01*
X148558353Y-72912775D01*
X148736060Y-73031515D01*
X148933517Y-73113304D01*
X149143137Y-73155000D01*
X149356863Y-73155000D01*
X149566483Y-73113304D01*
X149763940Y-73031515D01*
X149941647Y-72912775D01*
X150092775Y-72761647D01*
X150211515Y-72583940D01*
X150293304Y-72386483D01*
X150335000Y-72176863D01*
X150335000Y-71963137D01*
X154965000Y-71963137D01*
X154965000Y-72176863D01*
X155006696Y-72386483D01*
X155088485Y-72583940D01*
X155207225Y-72761647D01*
X155358353Y-72912775D01*
X155536060Y-73031515D01*
X155733517Y-73113304D01*
X155943137Y-73155000D01*
X156156863Y-73155000D01*
X156366483Y-73113304D01*
X156563940Y-73031515D01*
X156741647Y-72912775D01*
X156892775Y-72761647D01*
X157011515Y-72583940D01*
X157093304Y-72386483D01*
X157135000Y-72176863D01*
X157135000Y-71963137D01*
X157100561Y-71790000D01*
X165531928Y-71790000D01*
X165544188Y-71914482D01*
X165580498Y-72034180D01*
X165639463Y-72144494D01*
X165718815Y-72241185D01*
X165815506Y-72320537D01*
X165925820Y-72379502D01*
X166045518Y-72415812D01*
X166170000Y-72428072D01*
X166734250Y-72425000D01*
X166893000Y-72266250D01*
X166893000Y-71067000D01*
X165693750Y-71067000D01*
X165535000Y-71225750D01*
X165531928Y-71790000D01*
X157100561Y-71790000D01*
X157093304Y-71753517D01*
X157011515Y-71556060D01*
X156892775Y-71378353D01*
X156741647Y-71227225D01*
X156563940Y-71108485D01*
X156366483Y-71026696D01*
X156156863Y-70985000D01*
X155943137Y-70985000D01*
X155733517Y-71026696D01*
X155536060Y-71108485D01*
X155358353Y-71227225D01*
X155207225Y-71378353D01*
X155088485Y-71556060D01*
X155006696Y-71753517D01*
X154965000Y-71963137D01*
X150335000Y-71963137D01*
X150293304Y-71753517D01*
X150211515Y-71556060D01*
X150092775Y-71378353D01*
X149941647Y-71227225D01*
X149763940Y-71108485D01*
X149566483Y-71026696D01*
X149356863Y-70985000D01*
X149143137Y-70985000D01*
X148933517Y-71026696D01*
X148736060Y-71108485D01*
X148558353Y-71227225D01*
X148407225Y-71378353D01*
X148288485Y-71556060D01*
X148206696Y-71753517D01*
X148165000Y-71963137D01*
X146771393Y-71963137D01*
X146930706Y-71769014D01*
X147068599Y-71511034D01*
X147153513Y-71231111D01*
X147182185Y-70940000D01*
X147153513Y-70648889D01*
X147068599Y-70368966D01*
X147053116Y-70340000D01*
X165533289Y-70340000D01*
X165535000Y-70654250D01*
X165693750Y-70813000D01*
X166893000Y-70813000D01*
X166893000Y-70793000D01*
X167147000Y-70793000D01*
X167147000Y-70813000D01*
X167167000Y-70813000D01*
X167167000Y-71067000D01*
X167147000Y-71067000D01*
X167147000Y-72266250D01*
X167255322Y-72374572D01*
X167186525Y-72443368D01*
X167024010Y-72686589D01*
X166912068Y-72956842D01*
X166855000Y-73243740D01*
X166855000Y-73536260D01*
X166912068Y-73823158D01*
X167024010Y-74093411D01*
X167186525Y-74336632D01*
X167393368Y-74543475D01*
X167636589Y-74705990D01*
X167906842Y-74817932D01*
X168193740Y-74875000D01*
X168486260Y-74875000D01*
X168773158Y-74817932D01*
X169043411Y-74705990D01*
X169286632Y-74543475D01*
X169493475Y-74336632D01*
X169655990Y-74093411D01*
X169670694Y-74057911D01*
X173105000Y-74057911D01*
X173105000Y-74242089D01*
X173140932Y-74422729D01*
X173211414Y-74592889D01*
X173313738Y-74746028D01*
X173443972Y-74876262D01*
X173454448Y-74883262D01*
X173343738Y-74993972D01*
X173241414Y-75147111D01*
X173170932Y-75317271D01*
X173135000Y-75497911D01*
X173135000Y-75682089D01*
X173170932Y-75862729D01*
X173241414Y-76032889D01*
X173343738Y-76186028D01*
X173473972Y-76316262D01*
X173627111Y-76418586D01*
X173797271Y-76489068D01*
X173977911Y-76525000D01*
X174162089Y-76525000D01*
X174342729Y-76489068D01*
X174512889Y-76418586D01*
X174666028Y-76316262D01*
X174796262Y-76186028D01*
X174898586Y-76032889D01*
X174969068Y-75862729D01*
X175005000Y-75682089D01*
X175005000Y-75497911D01*
X174981131Y-75377911D01*
X175595000Y-75377911D01*
X175595000Y-75562089D01*
X175630932Y-75742729D01*
X175701414Y-75912889D01*
X175803738Y-76066028D01*
X175933972Y-76196262D01*
X176087111Y-76298586D01*
X176257271Y-76369068D01*
X176437911Y-76405000D01*
X176622089Y-76405000D01*
X176802729Y-76369068D01*
X176972889Y-76298586D01*
X177126028Y-76196262D01*
X177256262Y-76066028D01*
X177358586Y-75912889D01*
X177429068Y-75742729D01*
X177465000Y-75562089D01*
X177465000Y-75377911D01*
X177429068Y-75197271D01*
X177358586Y-75027111D01*
X177256262Y-74873972D01*
X177177290Y-74795000D01*
X177286262Y-74686028D01*
X177388586Y-74532889D01*
X177459068Y-74362729D01*
X177495000Y-74182089D01*
X177495000Y-74027911D01*
X178135000Y-74027911D01*
X178135000Y-74212089D01*
X178170932Y-74392729D01*
X178241414Y-74562889D01*
X178343738Y-74716028D01*
X178473972Y-74846262D01*
X178496437Y-74861273D01*
X178393738Y-74963972D01*
X178291414Y-75117111D01*
X178220932Y-75287271D01*
X178185000Y-75467911D01*
X178185000Y-75652089D01*
X178220932Y-75832729D01*
X178291414Y-76002889D01*
X178393738Y-76156028D01*
X178523972Y-76286262D01*
X178677111Y-76388586D01*
X178847271Y-76459068D01*
X179027911Y-76495000D01*
X179212089Y-76495000D01*
X179392729Y-76459068D01*
X179562889Y-76388586D01*
X179716028Y-76286262D01*
X179846262Y-76156028D01*
X179948586Y-76002889D01*
X180019068Y-75832729D01*
X180055000Y-75652089D01*
X180055000Y-75467911D01*
X180019068Y-75287271D01*
X179948586Y-75117111D01*
X179846262Y-74963972D01*
X179716028Y-74833738D01*
X179693563Y-74818727D01*
X179796262Y-74716028D01*
X179898586Y-74562889D01*
X179969068Y-74392729D01*
X180005000Y-74212089D01*
X180005000Y-74027911D01*
X179969068Y-73847271D01*
X179898586Y-73677111D01*
X179796262Y-73523972D01*
X179666028Y-73393738D01*
X179512889Y-73291414D01*
X179342729Y-73220932D01*
X179162089Y-73185000D01*
X178977911Y-73185000D01*
X178797271Y-73220932D01*
X178627111Y-73291414D01*
X178473972Y-73393738D01*
X178343738Y-73523972D01*
X178241414Y-73677111D01*
X178170932Y-73847271D01*
X178135000Y-74027911D01*
X177495000Y-74027911D01*
X177495000Y-73997911D01*
X177459068Y-73817271D01*
X177388586Y-73647111D01*
X177286262Y-73493972D01*
X177156028Y-73363738D01*
X177002889Y-73261414D01*
X176832729Y-73190932D01*
X176652089Y-73155000D01*
X176467911Y-73155000D01*
X176287271Y-73190932D01*
X176117111Y-73261414D01*
X175963972Y-73363738D01*
X175833738Y-73493972D01*
X175731414Y-73647111D01*
X175660932Y-73817271D01*
X175625000Y-73997911D01*
X175625000Y-74182089D01*
X175660932Y-74362729D01*
X175731414Y-74532889D01*
X175833738Y-74686028D01*
X175912710Y-74765000D01*
X175803738Y-74873972D01*
X175701414Y-75027111D01*
X175630932Y-75197271D01*
X175595000Y-75377911D01*
X174981131Y-75377911D01*
X174969068Y-75317271D01*
X174898586Y-75147111D01*
X174796262Y-74993972D01*
X174666028Y-74863738D01*
X174655552Y-74856738D01*
X174766262Y-74746028D01*
X174868586Y-74592889D01*
X174939068Y-74422729D01*
X174975000Y-74242089D01*
X174975000Y-74057911D01*
X174939068Y-73877271D01*
X174868586Y-73707111D01*
X174766262Y-73553972D01*
X174636028Y-73423738D01*
X174482889Y-73321414D01*
X174312729Y-73250932D01*
X174132089Y-73215000D01*
X173947911Y-73215000D01*
X173767271Y-73250932D01*
X173597111Y-73321414D01*
X173443972Y-73423738D01*
X173313738Y-73553972D01*
X173211414Y-73707111D01*
X173140932Y-73877271D01*
X173105000Y-74057911D01*
X169670694Y-74057911D01*
X169767932Y-73823158D01*
X169825000Y-73536260D01*
X169825000Y-73243740D01*
X169767932Y-72956842D01*
X169655990Y-72686589D01*
X169493475Y-72443368D01*
X169473802Y-72423695D01*
X169487050Y-72425000D01*
X169632950Y-72425000D01*
X169851111Y-72403513D01*
X170131034Y-72318599D01*
X170389014Y-72180706D01*
X170615134Y-71995134D01*
X170641393Y-71963137D01*
X172065000Y-71963137D01*
X172065000Y-72176863D01*
X172106696Y-72386483D01*
X172188485Y-72583940D01*
X172307225Y-72761647D01*
X172458353Y-72912775D01*
X172636060Y-73031515D01*
X172833517Y-73113304D01*
X173043137Y-73155000D01*
X173256863Y-73155000D01*
X173466483Y-73113304D01*
X173663940Y-73031515D01*
X173841647Y-72912775D01*
X173992775Y-72761647D01*
X174111515Y-72583940D01*
X174193304Y-72386483D01*
X174235000Y-72176863D01*
X174235000Y-71963137D01*
X178865000Y-71963137D01*
X178865000Y-72176863D01*
X178906696Y-72386483D01*
X178988485Y-72583940D01*
X179107225Y-72761647D01*
X179258353Y-72912775D01*
X179436060Y-73031515D01*
X179633517Y-73113304D01*
X179843137Y-73155000D01*
X180056863Y-73155000D01*
X180266483Y-73113304D01*
X180463940Y-73031515D01*
X180641647Y-72912775D01*
X180792775Y-72761647D01*
X180911515Y-72583940D01*
X180993304Y-72386483D01*
X181035000Y-72176863D01*
X181035000Y-71963137D01*
X180993304Y-71753517D01*
X180911515Y-71556060D01*
X180792775Y-71378353D01*
X180641647Y-71227225D01*
X180463940Y-71108485D01*
X180266483Y-71026696D01*
X180056863Y-70985000D01*
X179843137Y-70985000D01*
X179633517Y-71026696D01*
X179436060Y-71108485D01*
X179258353Y-71227225D01*
X179107225Y-71378353D01*
X178988485Y-71556060D01*
X178906696Y-71753517D01*
X178865000Y-71963137D01*
X174235000Y-71963137D01*
X174193304Y-71753517D01*
X174111515Y-71556060D01*
X173992775Y-71378353D01*
X173841647Y-71227225D01*
X173663940Y-71108485D01*
X173466483Y-71026696D01*
X173256863Y-70985000D01*
X173043137Y-70985000D01*
X172833517Y-71026696D01*
X172636060Y-71108485D01*
X172458353Y-71227225D01*
X172307225Y-71378353D01*
X172188485Y-71556060D01*
X172106696Y-71753517D01*
X172065000Y-71963137D01*
X170641393Y-71963137D01*
X170800706Y-71769014D01*
X170938599Y-71511034D01*
X171023513Y-71231111D01*
X171052185Y-70940000D01*
X171023513Y-70648889D01*
X170938599Y-70368966D01*
X170923116Y-70340000D01*
X183700000Y-70340000D01*
X183700001Y-72595113D01*
X183696565Y-72630000D01*
X183710273Y-72769184D01*
X183750872Y-72903020D01*
X183816800Y-73026363D01*
X183905525Y-73134475D01*
X184013637Y-73223200D01*
X184136980Y-73289128D01*
X184270816Y-73329727D01*
X184375123Y-73340000D01*
X184410000Y-73343435D01*
X184444877Y-73340000D01*
X188700140Y-73340000D01*
X188705902Y-102727389D01*
X188537271Y-102760932D01*
X188367111Y-102831414D01*
X188213972Y-102933738D01*
X188083738Y-103063972D01*
X187981414Y-103217111D01*
X187910932Y-103387271D01*
X187875000Y-103567911D01*
X187875000Y-103752089D01*
X187910932Y-103932729D01*
X187925001Y-103966695D01*
X187925000Y-105783421D01*
X187773422Y-105935000D01*
X186099192Y-105935000D01*
X186065229Y-105920932D01*
X185884589Y-105885000D01*
X185700411Y-105885000D01*
X185519771Y-105920932D01*
X185349611Y-105991414D01*
X185196472Y-106093738D01*
X185066238Y-106223972D01*
X184963914Y-106377111D01*
X184893432Y-106547271D01*
X184857500Y-106727911D01*
X184857500Y-106912089D01*
X184893432Y-107092729D01*
X184963914Y-107262889D01*
X185066238Y-107416028D01*
X185196472Y-107546262D01*
X185349611Y-107648586D01*
X185519771Y-107719068D01*
X185700411Y-107755000D01*
X185884589Y-107755000D01*
X186065229Y-107719068D01*
X186099192Y-107705000D01*
X188096531Y-107705000D01*
X188140000Y-107709281D01*
X188183469Y-107705000D01*
X188183477Y-107705000D01*
X188313490Y-107692195D01*
X188480313Y-107641589D01*
X188634059Y-107559411D01*
X188706838Y-107499683D01*
X188709752Y-122363000D01*
X182095000Y-122363000D01*
X182095000Y-122227911D01*
X182059068Y-122047271D01*
X181988586Y-121877111D01*
X181910303Y-121759952D01*
X181909003Y-121746750D01*
X181865546Y-121603489D01*
X181852991Y-121580001D01*
X181794974Y-121471460D01*
X181700001Y-121355735D01*
X181670998Y-121331933D01*
X181510000Y-121170935D01*
X181510000Y-119946970D01*
X181647113Y-120038586D01*
X181817273Y-120109068D01*
X181997913Y-120145000D01*
X182182091Y-120145000D01*
X182362731Y-120109068D01*
X182532891Y-120038586D01*
X182686030Y-119936262D01*
X182816264Y-119806028D01*
X182918588Y-119652889D01*
X182932657Y-119618923D01*
X183046533Y-119505047D01*
X183685049Y-118866532D01*
X183718817Y-118838819D01*
X183747384Y-118804011D01*
X183820509Y-118714908D01*
X183829411Y-118704061D01*
X183911589Y-118550315D01*
X183962195Y-118383492D01*
X183975000Y-118253479D01*
X183975000Y-118253469D01*
X183979281Y-118210003D01*
X183975000Y-118166536D01*
X183975000Y-112086692D01*
X183989068Y-112052729D01*
X184025000Y-111872089D01*
X184025000Y-111687911D01*
X183989068Y-111507271D01*
X183918586Y-111337111D01*
X183816262Y-111183972D01*
X183686028Y-111053738D01*
X183532889Y-110951414D01*
X183362729Y-110880932D01*
X183182089Y-110845000D01*
X182997911Y-110845000D01*
X182817271Y-110880932D01*
X182647111Y-110951414D01*
X182493972Y-111053738D01*
X182363738Y-111183972D01*
X182261414Y-111337111D01*
X182190932Y-111507271D01*
X182155000Y-111687911D01*
X182155000Y-111872089D01*
X182190932Y-112052729D01*
X182205000Y-112086693D01*
X182205000Y-113302710D01*
X182186028Y-113283738D01*
X182032889Y-113181414D01*
X181862729Y-113110932D01*
X181682089Y-113075000D01*
X181497911Y-113075000D01*
X181317271Y-113110932D01*
X181147111Y-113181414D01*
X180993972Y-113283738D01*
X180863738Y-113413972D01*
X180761414Y-113567111D01*
X180690932Y-113737271D01*
X180655000Y-113917911D01*
X180655000Y-114102089D01*
X180686917Y-114262545D01*
X180246961Y-114702501D01*
X180255000Y-114662089D01*
X180255000Y-114477911D01*
X180219068Y-114297271D01*
X180148586Y-114127111D01*
X180046262Y-113973972D01*
X179916028Y-113843738D01*
X179762889Y-113741414D01*
X179592729Y-113670932D01*
X179412089Y-113635000D01*
X179227911Y-113635000D01*
X179047271Y-113670932D01*
X178877111Y-113741414D01*
X178723972Y-113843738D01*
X178593738Y-113973972D01*
X178491414Y-114127111D01*
X178420932Y-114297271D01*
X178385000Y-114477911D01*
X178385000Y-114662089D01*
X178420932Y-114842729D01*
X178491414Y-115012889D01*
X178560001Y-115115536D01*
X178560000Y-115415198D01*
X178205199Y-115770000D01*
X173764802Y-115770000D01*
X173440000Y-115445198D01*
X173440000Y-109297322D01*
X173443676Y-109259999D01*
X173440000Y-109222676D01*
X173440000Y-109222667D01*
X173429003Y-109111014D01*
X173385546Y-108967753D01*
X173314974Y-108835724D01*
X173220001Y-108719999D01*
X173190998Y-108696197D01*
X172878190Y-108383389D01*
X173145045Y-108116533D01*
X173178817Y-108088817D01*
X173289411Y-107954059D01*
X173325649Y-107886262D01*
X173371589Y-107800314D01*
X173422195Y-107633490D01*
X173426322Y-107591589D01*
X173435000Y-107503477D01*
X173435000Y-107503469D01*
X173439281Y-107460000D01*
X173435000Y-107416531D01*
X173435000Y-106526578D01*
X174424954Y-107516533D01*
X174424960Y-107516538D01*
X174477345Y-107568923D01*
X174491414Y-107602889D01*
X174593738Y-107756028D01*
X174723972Y-107886262D01*
X174877111Y-107988586D01*
X175047271Y-108059068D01*
X175227911Y-108095000D01*
X175412089Y-108095000D01*
X175592729Y-108059068D01*
X175762889Y-107988586D01*
X175916028Y-107886262D01*
X176046262Y-107756028D01*
X176148586Y-107602889D01*
X176219068Y-107432729D01*
X176255000Y-107252089D01*
X176255000Y-107067911D01*
X176219068Y-106887271D01*
X176148586Y-106717111D01*
X176046262Y-106563972D01*
X175916028Y-106433738D01*
X175762889Y-106331414D01*
X175728923Y-106317345D01*
X175676538Y-106264960D01*
X175676533Y-106264954D01*
X174715000Y-105303422D01*
X174715000Y-101877417D01*
X174767271Y-101899068D01*
X174947911Y-101935000D01*
X175132089Y-101935000D01*
X175312729Y-101899068D01*
X175346692Y-101885000D01*
X175420795Y-101885000D01*
X175464264Y-101889281D01*
X175507733Y-101885000D01*
X175507741Y-101885000D01*
X175637754Y-101872195D01*
X175804577Y-101821589D01*
X175958323Y-101739411D01*
X176093081Y-101628817D01*
X176120798Y-101595044D01*
X176880843Y-100835000D01*
X180606500Y-100835000D01*
X180649969Y-100839281D01*
X180693438Y-100835000D01*
X180693446Y-100835000D01*
X180823459Y-100822195D01*
X180990282Y-100771589D01*
X181144028Y-100689411D01*
X181278786Y-100578817D01*
X181306503Y-100545044D01*
X183095000Y-98756548D01*
X183095000Y-101063421D01*
X180941077Y-103217345D01*
X180907111Y-103231414D01*
X180753972Y-103333738D01*
X180623738Y-103463972D01*
X180521414Y-103617111D01*
X180450932Y-103787271D01*
X180415000Y-103967911D01*
X180415000Y-104152089D01*
X180450932Y-104332729D01*
X180521414Y-104502889D01*
X180623738Y-104656028D01*
X180753972Y-104786262D01*
X180907111Y-104888586D01*
X181077271Y-104959068D01*
X181257911Y-104995000D01*
X181442089Y-104995000D01*
X181622729Y-104959068D01*
X181792889Y-104888586D01*
X181946028Y-104786262D01*
X182076262Y-104656028D01*
X182178586Y-104502889D01*
X182192655Y-104468923D01*
X184575050Y-102086529D01*
X184608817Y-102058817D01*
X184643742Y-102016262D01*
X184719411Y-101924059D01*
X184801589Y-101770314D01*
X184852195Y-101603490D01*
X184855835Y-101566532D01*
X184865000Y-101473477D01*
X184865000Y-101473469D01*
X184869281Y-101430000D01*
X184865000Y-101386531D01*
X184865000Y-92056579D01*
X185077345Y-92268924D01*
X185091414Y-92302889D01*
X185193738Y-92456028D01*
X185323972Y-92586262D01*
X185477111Y-92688586D01*
X185647271Y-92759068D01*
X185827911Y-92795000D01*
X186012089Y-92795000D01*
X186192729Y-92759068D01*
X186362889Y-92688586D01*
X186516028Y-92586262D01*
X186646262Y-92456028D01*
X186748586Y-92302889D01*
X186819068Y-92132729D01*
X186855000Y-91952089D01*
X186855000Y-91767911D01*
X186819068Y-91587271D01*
X186748586Y-91417111D01*
X186646262Y-91263972D01*
X186516028Y-91133738D01*
X186362889Y-91031414D01*
X186328924Y-91017345D01*
X185875000Y-90563422D01*
X185875000Y-83956690D01*
X185889068Y-83922727D01*
X185925000Y-83742087D01*
X185925000Y-83557909D01*
X185889068Y-83377269D01*
X185818586Y-83207109D01*
X185716262Y-83053970D01*
X185586028Y-82923736D01*
X185432889Y-82821412D01*
X185262729Y-82750930D01*
X185082089Y-82714998D01*
X184897911Y-82714998D01*
X184717271Y-82750930D01*
X184547111Y-82821412D01*
X184393972Y-82923736D01*
X184263738Y-83053970D01*
X184161414Y-83207109D01*
X184090932Y-83377269D01*
X184055000Y-83557909D01*
X184055000Y-83742087D01*
X184090932Y-83922727D01*
X184105000Y-83956690D01*
X184105000Y-84117738D01*
X184105001Y-84117748D01*
X184105000Y-88341547D01*
X184072089Y-88335000D01*
X183905000Y-88335000D01*
X183905000Y-80513465D01*
X183909281Y-80469999D01*
X183905000Y-80426533D01*
X183905000Y-80426523D01*
X183892195Y-80296510D01*
X183841589Y-80129687D01*
X183759411Y-79975941D01*
X183648817Y-79841183D01*
X183615050Y-79813471D01*
X180706534Y-76904956D01*
X180678817Y-76871183D01*
X180544059Y-76760589D01*
X180390313Y-76678411D01*
X180223490Y-76627805D01*
X180093477Y-76615000D01*
X180093469Y-76615000D01*
X180050000Y-76610719D01*
X180006531Y-76615000D01*
X178306692Y-76615000D01*
X178272729Y-76600932D01*
X178092089Y-76565000D01*
X177907911Y-76565000D01*
X177727271Y-76600932D01*
X177693308Y-76615000D01*
X154618473Y-76615000D01*
X154575007Y-76610719D01*
X154531541Y-76615000D01*
X154531531Y-76615000D01*
X154401518Y-76627805D01*
X154234695Y-76678411D01*
X154080949Y-76760589D01*
X154039211Y-76794843D01*
X153987109Y-76816424D01*
X153833970Y-76918748D01*
X153703736Y-77048982D01*
X153601412Y-77202121D01*
X153530930Y-77372281D01*
X153494998Y-77552921D01*
X153494998Y-77575000D01*
X148236692Y-77575000D01*
X148202729Y-77560932D01*
X148022089Y-77525000D01*
X147837911Y-77525000D01*
X147657271Y-77560932D01*
X147487111Y-77631414D01*
X147333972Y-77733738D01*
X147203738Y-77863972D01*
X147101414Y-78017111D01*
X147030932Y-78187271D01*
X146995000Y-78367911D01*
X146995000Y-78552089D01*
X147030932Y-78732729D01*
X147101414Y-78902889D01*
X147203738Y-79056028D01*
X147333972Y-79186262D01*
X147487111Y-79288586D01*
X147657271Y-79359068D01*
X147837911Y-79395000D01*
X148022089Y-79395000D01*
X148202729Y-79359068D01*
X148236692Y-79345000D01*
X167284893Y-79345000D01*
X167186525Y-79443368D01*
X167024010Y-79686589D01*
X166912068Y-79956842D01*
X166855000Y-80243740D01*
X166855000Y-80536260D01*
X166912068Y-80823158D01*
X167024010Y-81093411D01*
X167186525Y-81336632D01*
X167393368Y-81543475D01*
X167636589Y-81705990D01*
X167906842Y-81817932D01*
X168193740Y-81875000D01*
X168486260Y-81875000D01*
X168773158Y-81817932D01*
X169043411Y-81705990D01*
X169286632Y-81543475D01*
X169493475Y-81336632D01*
X169655990Y-81093411D01*
X169767932Y-80823158D01*
X169825000Y-80536260D01*
X169825000Y-80243740D01*
X169767932Y-79956842D01*
X169655990Y-79686589D01*
X169493475Y-79443368D01*
X169395107Y-79345000D01*
X171463303Y-79345000D01*
X171497271Y-79359070D01*
X171677911Y-79395002D01*
X171862089Y-79395002D01*
X172042729Y-79359070D01*
X172076692Y-79345002D01*
X172150795Y-79345002D01*
X172194264Y-79349283D01*
X172237733Y-79345002D01*
X172237741Y-79345002D01*
X172237761Y-79345000D01*
X178923422Y-79345000D01*
X181275000Y-81696579D01*
X181275001Y-89412825D01*
X181272889Y-89411414D01*
X181238924Y-89397345D01*
X180746534Y-88904956D01*
X180718817Y-88871183D01*
X180584059Y-88760589D01*
X180430313Y-88678411D01*
X180263490Y-88627805D01*
X180133477Y-88615000D01*
X180133469Y-88615000D01*
X180090000Y-88610719D01*
X180046531Y-88615000D01*
X177256692Y-88615000D01*
X177222729Y-88600932D01*
X177042089Y-88565000D01*
X176857911Y-88565000D01*
X176677271Y-88600932D01*
X176507111Y-88671414D01*
X176353972Y-88773738D01*
X176223738Y-88903972D01*
X176121414Y-89057111D01*
X176050932Y-89227271D01*
X176015000Y-89407911D01*
X176015000Y-89592089D01*
X176050932Y-89772729D01*
X176121414Y-89942889D01*
X176223738Y-90096028D01*
X176353972Y-90226262D01*
X176396982Y-90255000D01*
X174736691Y-90255000D01*
X174702728Y-90240932D01*
X174522088Y-90205000D01*
X174337910Y-90205000D01*
X174157270Y-90240932D01*
X173987110Y-90311414D01*
X173833971Y-90413738D01*
X173703737Y-90543972D01*
X173601413Y-90697111D01*
X173530931Y-90867271D01*
X173494999Y-91047911D01*
X173494999Y-91232089D01*
X173530931Y-91412729D01*
X173601413Y-91582889D01*
X173703737Y-91736028D01*
X173833971Y-91866262D01*
X173987110Y-91968586D01*
X174157270Y-92039068D01*
X174337910Y-92075000D01*
X174522088Y-92075000D01*
X174702728Y-92039068D01*
X174736691Y-92025000D01*
X180983308Y-92025000D01*
X181017271Y-92039068D01*
X181197911Y-92075000D01*
X181275001Y-92075000D01*
X181275001Y-94079167D01*
X181228586Y-93967111D01*
X181126262Y-93813972D01*
X180996028Y-93683738D01*
X180842889Y-93581414D01*
X180672729Y-93510932D01*
X180492089Y-93475000D01*
X180307911Y-93475000D01*
X180127271Y-93510932D01*
X180093308Y-93525000D01*
X171066579Y-93525000D01*
X169286534Y-91744956D01*
X169258817Y-91711183D01*
X169124059Y-91600589D01*
X168970313Y-91518411D01*
X168803490Y-91467805D01*
X168673477Y-91455000D01*
X168673469Y-91455000D01*
X168630000Y-91450719D01*
X168586531Y-91455000D01*
X164481579Y-91455000D01*
X163585155Y-90558577D01*
X163571086Y-90524611D01*
X163468762Y-90371472D01*
X163462775Y-90365485D01*
X163591700Y-90403430D01*
X163942604Y-90435365D01*
X164293028Y-90398534D01*
X164629624Y-90294340D01*
X164939572Y-90126752D01*
X165211065Y-89902153D01*
X165433764Y-89629098D01*
X165599184Y-89317988D01*
X165701025Y-88980672D01*
X165735409Y-88630000D01*
X165734705Y-88579590D01*
X165690543Y-88230014D01*
X165579323Y-87895674D01*
X165405281Y-87589304D01*
X165175045Y-87322574D01*
X164897387Y-87105643D01*
X164582880Y-86946774D01*
X164443689Y-86907911D01*
X168175000Y-86907911D01*
X168175000Y-87092089D01*
X168210932Y-87272729D01*
X168281414Y-87442889D01*
X168383738Y-87596028D01*
X168513972Y-87726262D01*
X168667111Y-87828586D01*
X168837271Y-87899068D01*
X169017911Y-87935000D01*
X169202089Y-87935000D01*
X169382729Y-87899068D01*
X169552889Y-87828586D01*
X169706028Y-87726262D01*
X169836262Y-87596028D01*
X169938586Y-87442889D01*
X170009068Y-87272729D01*
X170045000Y-87092089D01*
X170045000Y-86907911D01*
X170009068Y-86727271D01*
X169938586Y-86557111D01*
X169836262Y-86403972D01*
X169706028Y-86273738D01*
X169552889Y-86171414D01*
X169382729Y-86100932D01*
X169202089Y-86065000D01*
X169017911Y-86065000D01*
X168837271Y-86100932D01*
X168667111Y-86171414D01*
X168513972Y-86273738D01*
X168383738Y-86403972D01*
X168281414Y-86557111D01*
X168210932Y-86727271D01*
X168175000Y-86907911D01*
X164443689Y-86907911D01*
X164243506Y-86852019D01*
X163892190Y-86824987D01*
X163542315Y-86866707D01*
X163207206Y-86975590D01*
X162899629Y-87147490D01*
X162631297Y-87375858D01*
X162412433Y-87651995D01*
X162251373Y-87965385D01*
X162154251Y-88304089D01*
X162124767Y-88655207D01*
X162164044Y-89005366D01*
X162225417Y-89198839D01*
X160901534Y-87874956D01*
X160873817Y-87841183D01*
X160739059Y-87730589D01*
X160585313Y-87648411D01*
X160418490Y-87597805D01*
X160288477Y-87585000D01*
X160288469Y-87585000D01*
X160245000Y-87580719D01*
X160201531Y-87585000D01*
X156916692Y-87585000D01*
X156882729Y-87570932D01*
X156702089Y-87535000D01*
X156517911Y-87535000D01*
X156385000Y-87561438D01*
X156385000Y-85866578D01*
X157513667Y-84737911D01*
X168175000Y-84737911D01*
X168175000Y-84922089D01*
X168210932Y-85102729D01*
X168281414Y-85272889D01*
X168383738Y-85426028D01*
X168513972Y-85556262D01*
X168667111Y-85658586D01*
X168837271Y-85729068D01*
X169017911Y-85765000D01*
X169202089Y-85765000D01*
X169382729Y-85729068D01*
X169552889Y-85658586D01*
X169706028Y-85556262D01*
X169836262Y-85426028D01*
X169938586Y-85272889D01*
X170009068Y-85102729D01*
X170045000Y-84922089D01*
X170045000Y-84737911D01*
X170009068Y-84557271D01*
X169938586Y-84387111D01*
X169836262Y-84233972D01*
X169706028Y-84103738D01*
X169552889Y-84001414D01*
X169382729Y-83930932D01*
X169202089Y-83895000D01*
X169017911Y-83895000D01*
X168837271Y-83930932D01*
X168667111Y-84001414D01*
X168513972Y-84103738D01*
X168383738Y-84233972D01*
X168281414Y-84387111D01*
X168210932Y-84557271D01*
X168175000Y-84737911D01*
X157513667Y-84737911D01*
X158396533Y-83855046D01*
X158396538Y-83855040D01*
X158448923Y-83802655D01*
X158482889Y-83788586D01*
X158636028Y-83686262D01*
X158766262Y-83556028D01*
X158868586Y-83402889D01*
X158939068Y-83232729D01*
X158975000Y-83052089D01*
X158975000Y-82867911D01*
X158939068Y-82687271D01*
X158868586Y-82517111D01*
X158766262Y-82363972D01*
X158636028Y-82233738D01*
X158482889Y-82131414D01*
X158312729Y-82060932D01*
X158132089Y-82025000D01*
X157947911Y-82025000D01*
X157767271Y-82060932D01*
X157597111Y-82131414D01*
X157443972Y-82233738D01*
X157313738Y-82363972D01*
X157211414Y-82517111D01*
X157197345Y-82551077D01*
X157144960Y-82603462D01*
X157144954Y-82603467D01*
X154904951Y-84843471D01*
X154871184Y-84871183D01*
X154843471Y-84904951D01*
X154843468Y-84904954D01*
X154760590Y-85005941D01*
X154678412Y-85159687D01*
X154627805Y-85326510D01*
X154610719Y-85500000D01*
X154615001Y-85543479D01*
X154615000Y-89603307D01*
X154600932Y-89637271D01*
X154565000Y-89817911D01*
X154565000Y-90002089D01*
X154600932Y-90182729D01*
X154671414Y-90352889D01*
X154773738Y-90506028D01*
X154903972Y-90636262D01*
X155057111Y-90738586D01*
X155227271Y-90809068D01*
X155407911Y-90845000D01*
X155592089Y-90845000D01*
X155772729Y-90809068D01*
X155942889Y-90738586D01*
X156096028Y-90636262D01*
X156226262Y-90506028D01*
X156328586Y-90352889D01*
X156399068Y-90182729D01*
X156435000Y-90002089D01*
X156435000Y-89817911D01*
X156399068Y-89637271D01*
X156385000Y-89603308D01*
X156385000Y-89378562D01*
X156517911Y-89405000D01*
X156702089Y-89405000D01*
X156882729Y-89369068D01*
X156916692Y-89355000D01*
X159878422Y-89355000D01*
X161899846Y-91376424D01*
X161913914Y-91410389D01*
X162016238Y-91563528D01*
X162146472Y-91693762D01*
X162299611Y-91796086D01*
X162333577Y-91810155D01*
X162586715Y-92063294D01*
X162532729Y-92040932D01*
X162352089Y-92005000D01*
X162167911Y-92005000D01*
X161987271Y-92040932D01*
X161817111Y-92111414D01*
X161663972Y-92213738D01*
X161533738Y-92343972D01*
X161431414Y-92497111D01*
X161360932Y-92667271D01*
X161325000Y-92847911D01*
X161325000Y-93032089D01*
X161360932Y-93212729D01*
X161431414Y-93382889D01*
X161533738Y-93536028D01*
X161663972Y-93666262D01*
X161817111Y-93768586D01*
X161851077Y-93782655D01*
X161988466Y-93920044D01*
X162016183Y-93953817D01*
X162150941Y-94064411D01*
X162304687Y-94146589D01*
X162471510Y-94197195D01*
X162601523Y-94210000D01*
X162601533Y-94210000D01*
X162644999Y-94214281D01*
X162688465Y-94210000D01*
X167608304Y-94210000D01*
X167642267Y-94224068D01*
X167822907Y-94260000D01*
X168007085Y-94260000D01*
X168187725Y-94224068D01*
X168357885Y-94153586D01*
X168511024Y-94051262D01*
X168641258Y-93921028D01*
X168743582Y-93767889D01*
X168761955Y-93723533D01*
X170043470Y-95005049D01*
X170071183Y-95038817D01*
X170104951Y-95066530D01*
X170104953Y-95066532D01*
X170157885Y-95109972D01*
X170205941Y-95149411D01*
X170359687Y-95231589D01*
X170526510Y-95282195D01*
X170656523Y-95295000D01*
X170656533Y-95295000D01*
X170699999Y-95299281D01*
X170743466Y-95295000D01*
X171032596Y-95295000D01*
X171017111Y-95301414D01*
X170863972Y-95403738D01*
X170733738Y-95533972D01*
X170671896Y-95626525D01*
X168711077Y-97587345D01*
X168677111Y-97601414D01*
X168523972Y-97703738D01*
X168393738Y-97833972D01*
X168291414Y-97987111D01*
X168220932Y-98157271D01*
X168185000Y-98337911D01*
X168185000Y-98522089D01*
X168213427Y-98665000D01*
X163896692Y-98665000D01*
X163862729Y-98650932D01*
X163682089Y-98615000D01*
X163497911Y-98615000D01*
X163317271Y-98650932D01*
X163147111Y-98721414D01*
X162993972Y-98823738D01*
X162863738Y-98953972D01*
X162761414Y-99107111D01*
X162690932Y-99277271D01*
X162655000Y-99457911D01*
X162655000Y-99642089D01*
X162690932Y-99822729D01*
X162761414Y-99992889D01*
X162863738Y-100146028D01*
X162993972Y-100276262D01*
X163147111Y-100378586D01*
X163317271Y-100449068D01*
X163497911Y-100485000D01*
X163682089Y-100485000D01*
X163862729Y-100449068D01*
X163896692Y-100435000D01*
X169786527Y-100435000D01*
X169829996Y-100439281D01*
X169860001Y-100436326D01*
X169860001Y-102116576D01*
X169852089Y-102115002D01*
X169667911Y-102115002D01*
X169487271Y-102150934D01*
X169317111Y-102221416D01*
X169163972Y-102323740D01*
X169033738Y-102453974D01*
X168931414Y-102607113D01*
X168860932Y-102777273D01*
X168825000Y-102957913D01*
X168825000Y-103142091D01*
X168860932Y-103322731D01*
X168875001Y-103356697D01*
X168875000Y-105593307D01*
X168860932Y-105627271D01*
X168825000Y-105807911D01*
X168825000Y-105992089D01*
X168860932Y-106172729D01*
X168931414Y-106342889D01*
X169033738Y-106496028D01*
X169163972Y-106626262D01*
X169166949Y-106628251D01*
X168729003Y-107066198D01*
X168699999Y-107090001D01*
X168671027Y-107125304D01*
X168605026Y-107205726D01*
X168567492Y-107275947D01*
X168534454Y-107337756D01*
X168490997Y-107481017D01*
X168480000Y-107592670D01*
X168480000Y-107592680D01*
X168476324Y-107630002D01*
X168480000Y-107667324D01*
X168480000Y-108337680D01*
X168476324Y-108375002D01*
X168480000Y-108412324D01*
X168480000Y-108412335D01*
X168490997Y-108523988D01*
X168518914Y-108616017D01*
X168534454Y-108667248D01*
X168605026Y-108799278D01*
X168676201Y-108886004D01*
X168700000Y-108915003D01*
X168728998Y-108938801D01*
X169171194Y-109380997D01*
X169194997Y-109410001D01*
X169238526Y-109445724D01*
X169310721Y-109504974D01*
X169442751Y-109575546D01*
X169586012Y-109619003D01*
X169697665Y-109630000D01*
X169697675Y-109630000D01*
X169734998Y-109633676D01*
X169772321Y-109630000D01*
X170867477Y-109630000D01*
X170849990Y-109717911D01*
X170849990Y-109902089D01*
X170885922Y-110082729D01*
X170899990Y-110116693D01*
X170899991Y-113358427D01*
X170884960Y-113373458D01*
X170884954Y-113373463D01*
X170166093Y-114092325D01*
X170162729Y-114090932D01*
X169982089Y-114055000D01*
X169797911Y-114055000D01*
X169790011Y-114056571D01*
X169790011Y-112987333D01*
X169793687Y-112950010D01*
X169790011Y-112912687D01*
X169790011Y-112912678D01*
X169779014Y-112801025D01*
X169735557Y-112657764D01*
X169664985Y-112525735D01*
X169570012Y-112410010D01*
X169541015Y-112386213D01*
X166723033Y-109568232D01*
X166842889Y-109518586D01*
X166996028Y-109416262D01*
X167126262Y-109286028D01*
X167228586Y-109132889D01*
X167299068Y-108962729D01*
X167335000Y-108782089D01*
X167335000Y-108597911D01*
X167299068Y-108417271D01*
X167275000Y-108359165D01*
X167275000Y-104123469D01*
X167279281Y-104080000D01*
X167275000Y-104036531D01*
X167275000Y-104036523D01*
X167262195Y-103906510D01*
X167211589Y-103739687D01*
X167129411Y-103585941D01*
X167070725Y-103514432D01*
X167046532Y-103484953D01*
X167046530Y-103484951D01*
X167018817Y-103451183D01*
X166985050Y-103423471D01*
X166292655Y-102731077D01*
X166278586Y-102697111D01*
X166176262Y-102543972D01*
X166046028Y-102413738D01*
X165892889Y-102311414D01*
X165722729Y-102240932D01*
X165542089Y-102205000D01*
X165357911Y-102205000D01*
X165177271Y-102240932D01*
X165007111Y-102311414D01*
X164853972Y-102413738D01*
X164723738Y-102543972D01*
X164621414Y-102697111D01*
X164550932Y-102867271D01*
X164515000Y-103047911D01*
X164515000Y-103232089D01*
X164550932Y-103412729D01*
X164621414Y-103582889D01*
X164723738Y-103736028D01*
X164853972Y-103866262D01*
X165007111Y-103968586D01*
X165041077Y-103982655D01*
X165505000Y-104446579D01*
X165505001Y-108407448D01*
X165500932Y-108417271D01*
X165465000Y-108597911D01*
X165465000Y-108782089D01*
X165500932Y-108962729D01*
X165561933Y-109110000D01*
X159710000Y-109110000D01*
X159710000Y-103437323D01*
X159713676Y-103400000D01*
X159710000Y-103362677D01*
X159710000Y-103362667D01*
X159699003Y-103251014D01*
X159655546Y-103107753D01*
X159630021Y-103059999D01*
X159584974Y-102975723D01*
X159513799Y-102888997D01*
X159490001Y-102859999D01*
X159461003Y-102836201D01*
X154003153Y-97378352D01*
X153979068Y-97257271D01*
X153908586Y-97087111D01*
X153806262Y-96933972D01*
X153676028Y-96803738D01*
X153522889Y-96701414D01*
X153352729Y-96630932D01*
X153172089Y-96595000D01*
X152987911Y-96595000D01*
X152807271Y-96630932D01*
X152637111Y-96701414D01*
X152483972Y-96803738D01*
X152445000Y-96842710D01*
X152436028Y-96833738D01*
X152282889Y-96731414D01*
X152112729Y-96660932D01*
X151932089Y-96625000D01*
X151747911Y-96625000D01*
X151567271Y-96660932D01*
X151397111Y-96731414D01*
X151243972Y-96833738D01*
X151113738Y-96963972D01*
X151011414Y-97117111D01*
X150940932Y-97287271D01*
X150905000Y-97467911D01*
X150905000Y-97652089D01*
X150940932Y-97832729D01*
X151011414Y-98002889D01*
X151113738Y-98156028D01*
X151243972Y-98286262D01*
X151397111Y-98388586D01*
X151567271Y-98459068D01*
X151688352Y-98483153D01*
X157120000Y-103914802D01*
X157120000Y-103953058D01*
X157052911Y-103953058D01*
X156872271Y-103988990D01*
X156702111Y-104059472D01*
X156548972Y-104161796D01*
X156418738Y-104292030D01*
X156316414Y-104445169D01*
X156245932Y-104615329D01*
X156221847Y-104736409D01*
X155937430Y-105020827D01*
X155949068Y-104992729D01*
X155985000Y-104812089D01*
X155985000Y-104627911D01*
X155949068Y-104447271D01*
X155878586Y-104277111D01*
X155776262Y-104123972D01*
X155646028Y-103993738D01*
X155492889Y-103891414D01*
X155322729Y-103820932D01*
X155142089Y-103785000D01*
X154957911Y-103785000D01*
X154777271Y-103820932D01*
X154607111Y-103891414D01*
X154453972Y-103993738D01*
X154323738Y-104123972D01*
X154221414Y-104277111D01*
X154150932Y-104447271D01*
X154115000Y-104627911D01*
X154115000Y-104812089D01*
X154115901Y-104816621D01*
X154022889Y-104754472D01*
X153852729Y-104683990D01*
X153672089Y-104648058D01*
X153487911Y-104648058D01*
X153307271Y-104683990D01*
X153137111Y-104754472D01*
X152983972Y-104856796D01*
X152853738Y-104987030D01*
X152751414Y-105140169D01*
X152689047Y-105290736D01*
X152597282Y-105308990D01*
X152427122Y-105379472D01*
X152285712Y-105473959D01*
X151650000Y-104838248D01*
X151650000Y-102287322D01*
X151653676Y-102249999D01*
X151650000Y-102212676D01*
X151650000Y-102212667D01*
X151639003Y-102101014D01*
X151595546Y-101957753D01*
X151524974Y-101825724D01*
X151430001Y-101709999D01*
X151401004Y-101686202D01*
X148773153Y-99058352D01*
X148749068Y-98937271D01*
X148678586Y-98767111D01*
X148576262Y-98613972D01*
X148446028Y-98483738D01*
X148292889Y-98381414D01*
X148122729Y-98310932D01*
X147942089Y-98275000D01*
X147757911Y-98275000D01*
X147577271Y-98310932D01*
X147407111Y-98381414D01*
X147253972Y-98483738D01*
X147123738Y-98613972D01*
X147021414Y-98767111D01*
X146950932Y-98937271D01*
X146915000Y-99117911D01*
X146915000Y-99302089D01*
X146950932Y-99482729D01*
X147021414Y-99652889D01*
X147123738Y-99806028D01*
X147253972Y-99936262D01*
X147407111Y-100038586D01*
X147577271Y-100109068D01*
X147698352Y-100133153D01*
X150130000Y-102564802D01*
X150130000Y-103195000D01*
X150087911Y-103195000D01*
X149907271Y-103230932D01*
X149737111Y-103301414D01*
X149634465Y-103370000D01*
X149512320Y-103370000D01*
X149474997Y-103366324D01*
X149437674Y-103370000D01*
X149437665Y-103370000D01*
X149326012Y-103380997D01*
X149221404Y-103412729D01*
X149182751Y-103424454D01*
X149050721Y-103495026D01*
X148968301Y-103562667D01*
X148934997Y-103589999D01*
X148911199Y-103618997D01*
X148898263Y-103631933D01*
X148886262Y-103613972D01*
X148756028Y-103483738D01*
X148602889Y-103381414D01*
X148432729Y-103310932D01*
X148252089Y-103275000D01*
X148067911Y-103275000D01*
X147887271Y-103310932D01*
X147717111Y-103381414D01*
X147563972Y-103483738D01*
X147530000Y-103517710D01*
X147506006Y-103493716D01*
X147352867Y-103391392D01*
X147182707Y-103320910D01*
X147002067Y-103284978D01*
X146817889Y-103284978D01*
X146637249Y-103320910D01*
X146467089Y-103391392D01*
X146313950Y-103493716D01*
X146183716Y-103623950D01*
X146081392Y-103777089D01*
X146010910Y-103947249D01*
X145974978Y-104127889D01*
X145974978Y-104312067D01*
X146010910Y-104492707D01*
X146081392Y-104662867D01*
X146180002Y-104810447D01*
X146180001Y-109272541D01*
X146037271Y-109300932D01*
X145867111Y-109371414D01*
X145713972Y-109473738D01*
X145583738Y-109603972D01*
X145481414Y-109757111D01*
X145410932Y-109927271D01*
X145375000Y-110107911D01*
X145375000Y-110292089D01*
X145410932Y-110472729D01*
X145425000Y-110506692D01*
X145425000Y-110667740D01*
X145425001Y-110667750D01*
X145425000Y-113526531D01*
X145420719Y-113570000D01*
X145425000Y-113613469D01*
X145425000Y-113613476D01*
X145437805Y-113743489D01*
X145488411Y-113910312D01*
X145570589Y-114064058D01*
X145681183Y-114198817D01*
X145714956Y-114226534D01*
X146005001Y-114516579D01*
X146005000Y-116683881D01*
X145991691Y-116672958D01*
X145910192Y-116618502D01*
X145799875Y-116559536D01*
X145709319Y-116522027D01*
X145589623Y-116485718D01*
X145493490Y-116466596D01*
X145369009Y-116454336D01*
X145344450Y-116454336D01*
X145320000Y-116451928D01*
X144820000Y-116451928D01*
X144795550Y-116454336D01*
X144770991Y-116454336D01*
X144646510Y-116466596D01*
X144550377Y-116485718D01*
X144430681Y-116522027D01*
X144340125Y-116559536D01*
X144229808Y-116618502D01*
X144148309Y-116672958D01*
X144109266Y-116705000D01*
X144073465Y-116705000D01*
X144029999Y-116700719D01*
X143986533Y-116705000D01*
X143986523Y-116705000D01*
X143856510Y-116717805D01*
X143689687Y-116768411D01*
X143535941Y-116850589D01*
X143507661Y-116873798D01*
X143434953Y-116933468D01*
X143434951Y-116933470D01*
X143401183Y-116961183D01*
X143373470Y-116994951D01*
X142374956Y-117993466D01*
X142341183Y-118021183D01*
X142230589Y-118155942D01*
X142148411Y-118309688D01*
X142114431Y-118421702D01*
X142098881Y-118472965D01*
X142097805Y-118476511D01*
X142085000Y-118606524D01*
X142085000Y-118606531D01*
X142080719Y-118650000D01*
X142085000Y-118693469D01*
X142085000Y-118823308D01*
X142070932Y-118857271D01*
X142035000Y-119037911D01*
X142035000Y-119222089D01*
X142070932Y-119402729D01*
X142141414Y-119572889D01*
X142243738Y-119726028D01*
X142362677Y-119844967D01*
X142347111Y-119851414D01*
X142274397Y-119900000D01*
X141074802Y-119900000D01*
X140550000Y-119375199D01*
X140550000Y-99529803D01*
X143726005Y-96353799D01*
X143755002Y-96330002D01*
X143849975Y-96214277D01*
X143920547Y-96082248D01*
X143964004Y-95938987D01*
X143975001Y-95827334D01*
X143975001Y-95827324D01*
X143978677Y-95790001D01*
X143975001Y-95752678D01*
X143975001Y-95127324D01*
X143978677Y-95089999D01*
X143975001Y-95052674D01*
X143975001Y-95052666D01*
X143964004Y-94941013D01*
X143920547Y-94797752D01*
X143887104Y-94735186D01*
X143996262Y-94626028D01*
X144065000Y-94523154D01*
X144065001Y-100822250D01*
X144065000Y-100822260D01*
X144065000Y-100923422D01*
X144054960Y-100933462D01*
X144054954Y-100933467D01*
X142304951Y-102683471D01*
X142271184Y-102711183D01*
X142243471Y-102744951D01*
X142243468Y-102744954D01*
X142160590Y-102845941D01*
X142078412Y-102999687D01*
X142027805Y-103166510D01*
X142010719Y-103340000D01*
X142015001Y-103383479D01*
X142015000Y-112553307D01*
X142000932Y-112587271D01*
X141965000Y-112767911D01*
X141965000Y-112952089D01*
X142000932Y-113132729D01*
X142071414Y-113302889D01*
X142173738Y-113456028D01*
X142303972Y-113586262D01*
X142457111Y-113688586D01*
X142627271Y-113759068D01*
X142807911Y-113795000D01*
X142992089Y-113795000D01*
X143172729Y-113759068D01*
X143342889Y-113688586D01*
X143496028Y-113586262D01*
X143626262Y-113456028D01*
X143728586Y-113302889D01*
X143799068Y-113132729D01*
X143835000Y-112952089D01*
X143835000Y-112767911D01*
X143799068Y-112587271D01*
X143785000Y-112553308D01*
X143785000Y-103706578D01*
X145306533Y-102185046D01*
X145306538Y-102185040D01*
X145358923Y-102132655D01*
X145392889Y-102118586D01*
X145546028Y-102016262D01*
X145676262Y-101886028D01*
X145778586Y-101732889D01*
X145849068Y-101562729D01*
X145885000Y-101382089D01*
X145885000Y-101197911D01*
X145849068Y-101017271D01*
X145835000Y-100983308D01*
X145835000Y-95067911D01*
X157235000Y-95067911D01*
X157235000Y-95252089D01*
X157270932Y-95432729D01*
X157341414Y-95602889D01*
X157443738Y-95756028D01*
X157573972Y-95886262D01*
X157727111Y-95988586D01*
X157761077Y-96002655D01*
X158223470Y-96465049D01*
X158251183Y-96498817D01*
X158284951Y-96526530D01*
X158284953Y-96526532D01*
X158303087Y-96541414D01*
X158291183Y-96551183D01*
X158263470Y-96584951D01*
X157771077Y-97077345D01*
X157737111Y-97091414D01*
X157583972Y-97193738D01*
X157453738Y-97323972D01*
X157351414Y-97477111D01*
X157280932Y-97647271D01*
X157245000Y-97827911D01*
X157245000Y-98012089D01*
X157280932Y-98192729D01*
X157351414Y-98362889D01*
X157453738Y-98516028D01*
X157583972Y-98646262D01*
X157737111Y-98748586D01*
X157907271Y-98819068D01*
X158087911Y-98855000D01*
X158272089Y-98855000D01*
X158452729Y-98819068D01*
X158622889Y-98748586D01*
X158776028Y-98646262D01*
X158906262Y-98516028D01*
X159008586Y-98362889D01*
X159022655Y-98328923D01*
X159286579Y-98065000D01*
X160173308Y-98065000D01*
X160207271Y-98079068D01*
X160387911Y-98115000D01*
X160572089Y-98115000D01*
X160752729Y-98079068D01*
X160922889Y-98008586D01*
X161076028Y-97906262D01*
X161206262Y-97776028D01*
X161308586Y-97622889D01*
X161379068Y-97452729D01*
X161415000Y-97272089D01*
X161415000Y-97087911D01*
X161379068Y-96907271D01*
X161308586Y-96737111D01*
X161206262Y-96583972D01*
X161162290Y-96540000D01*
X161236262Y-96466028D01*
X161338586Y-96312889D01*
X161409068Y-96142729D01*
X161445000Y-95962089D01*
X161445000Y-95777911D01*
X161409068Y-95597271D01*
X161338586Y-95427111D01*
X161236262Y-95273972D01*
X161106028Y-95143738D01*
X160952889Y-95041414D01*
X160782729Y-94970932D01*
X160602089Y-94935000D01*
X160417911Y-94935000D01*
X160237271Y-94970932D01*
X160203308Y-94985000D01*
X159246579Y-94985000D01*
X159012655Y-94751077D01*
X158998586Y-94717111D01*
X158896262Y-94563972D01*
X158766028Y-94433738D01*
X158612889Y-94331414D01*
X158442729Y-94260932D01*
X158262089Y-94225000D01*
X158077911Y-94225000D01*
X157897271Y-94260932D01*
X157727111Y-94331414D01*
X157573972Y-94433738D01*
X157443738Y-94563972D01*
X157341414Y-94717111D01*
X157270932Y-94887271D01*
X157235000Y-95067911D01*
X145835000Y-95067911D01*
X145835000Y-91243469D01*
X145839281Y-91200000D01*
X145835000Y-91156531D01*
X145835000Y-91156523D01*
X145822195Y-91026510D01*
X145819862Y-91018817D01*
X145802019Y-90960000D01*
X145771589Y-90859687D01*
X145689411Y-90705941D01*
X145664227Y-90675254D01*
X145606532Y-90604953D01*
X145606530Y-90604951D01*
X145578817Y-90571183D01*
X145545050Y-90543471D01*
X144796534Y-89794956D01*
X144768817Y-89761183D01*
X144634059Y-89650589D01*
X144480313Y-89568411D01*
X144313490Y-89517805D01*
X144183477Y-89505000D01*
X144183469Y-89505000D01*
X144140000Y-89500719D01*
X144096531Y-89505000D01*
X142946692Y-89505000D01*
X142912729Y-89490932D01*
X142732089Y-89455000D01*
X142547911Y-89455000D01*
X142367271Y-89490932D01*
X142197111Y-89561414D01*
X142043972Y-89663738D01*
X141913738Y-89793972D01*
X141811414Y-89947111D01*
X141740932Y-90117271D01*
X141705000Y-90297911D01*
X141705000Y-90482089D01*
X141740932Y-90662729D01*
X141811414Y-90832889D01*
X141904904Y-90972806D01*
X141873738Y-91003972D01*
X141771414Y-91157111D01*
X141700932Y-91327271D01*
X141665000Y-91507911D01*
X141665000Y-91692089D01*
X141700932Y-91872729D01*
X141771414Y-92042889D01*
X141840001Y-92145537D01*
X141840000Y-94437675D01*
X141836324Y-94474998D01*
X141840000Y-94512320D01*
X141840000Y-94512330D01*
X141850997Y-94623983D01*
X141879247Y-94717111D01*
X141893526Y-94764184D01*
X141863738Y-94793972D01*
X141761414Y-94947111D01*
X141690932Y-95117271D01*
X141666847Y-95238351D01*
X138814697Y-98090502D01*
X138785324Y-98046293D01*
X138779005Y-98038655D01*
X138777000Y-98036266D01*
X138777000Y-97591913D01*
X138793132Y-97572133D01*
X138828757Y-97518513D01*
X138865099Y-97465436D01*
X138869814Y-97456716D01*
X138961439Y-97284394D01*
X138985951Y-97224924D01*
X139011312Y-97165752D01*
X139014243Y-97156282D01*
X139070652Y-96969446D01*
X139083152Y-96906316D01*
X139096530Y-96843377D01*
X139097566Y-96833519D01*
X139116611Y-96639285D01*
X139120000Y-96604877D01*
X139120000Y-86957911D01*
X144235000Y-86957911D01*
X144235000Y-87142089D01*
X144270932Y-87322729D01*
X144341414Y-87492889D01*
X144443738Y-87646028D01*
X144573972Y-87776262D01*
X144727111Y-87878586D01*
X144897271Y-87949068D01*
X145077911Y-87985000D01*
X145262089Y-87985000D01*
X145442729Y-87949068D01*
X145612889Y-87878586D01*
X145766028Y-87776262D01*
X145896262Y-87646028D01*
X145998586Y-87492889D01*
X146069068Y-87322729D01*
X146105000Y-87142089D01*
X146105000Y-86957911D01*
X146069068Y-86777271D01*
X145998586Y-86607111D01*
X145896262Y-86453972D01*
X145766028Y-86323738D01*
X145612889Y-86221414D01*
X145442729Y-86150932D01*
X145262089Y-86115000D01*
X145077911Y-86115000D01*
X144897271Y-86150932D01*
X144727111Y-86221414D01*
X144573972Y-86323738D01*
X144443738Y-86453972D01*
X144341414Y-86607111D01*
X144270932Y-86777271D01*
X144235000Y-86957911D01*
X139120000Y-86957911D01*
X139120000Y-85007911D01*
X144245000Y-85007911D01*
X144245000Y-85192089D01*
X144280932Y-85372729D01*
X144351414Y-85542889D01*
X144453738Y-85696028D01*
X144583972Y-85826262D01*
X144737111Y-85928586D01*
X144907271Y-85999068D01*
X145087911Y-86035000D01*
X145272089Y-86035000D01*
X145452729Y-85999068D01*
X145622889Y-85928586D01*
X145776028Y-85826262D01*
X145906262Y-85696028D01*
X146008586Y-85542889D01*
X146079068Y-85372729D01*
X146115000Y-85192089D01*
X146115000Y-85007911D01*
X146079068Y-84827271D01*
X146008586Y-84657111D01*
X145906262Y-84503972D01*
X145776028Y-84373738D01*
X145622889Y-84271414D01*
X145452729Y-84200932D01*
X145272089Y-84165000D01*
X145087911Y-84165000D01*
X144907271Y-84200932D01*
X144737111Y-84271414D01*
X144583972Y-84373738D01*
X144453738Y-84503972D01*
X144351414Y-84657111D01*
X144280932Y-84827271D01*
X144245000Y-85007911D01*
X139120000Y-85007911D01*
X139120000Y-82547108D01*
X139167111Y-82578586D01*
X139337271Y-82649068D01*
X139517911Y-82685000D01*
X139702089Y-82685000D01*
X139882729Y-82649068D01*
X140052889Y-82578586D01*
X140206028Y-82476262D01*
X140336262Y-82346028D01*
X140438586Y-82192889D01*
X140509068Y-82022729D01*
X140545000Y-81842089D01*
X140545000Y-81657911D01*
X140645000Y-81657911D01*
X140645000Y-81842089D01*
X140680932Y-82022729D01*
X140751414Y-82192889D01*
X140853738Y-82346028D01*
X140983972Y-82476262D01*
X141137111Y-82578586D01*
X141307271Y-82649068D01*
X141487911Y-82685000D01*
X141672089Y-82685000D01*
X141852729Y-82649068D01*
X142022889Y-82578586D01*
X142176028Y-82476262D01*
X142306262Y-82346028D01*
X142408586Y-82192889D01*
X142479068Y-82022729D01*
X142515000Y-81842089D01*
X142515000Y-81657911D01*
X142479068Y-81477271D01*
X142408586Y-81307111D01*
X142306262Y-81153972D01*
X142176028Y-81023738D01*
X142022889Y-80921414D01*
X141852729Y-80850932D01*
X141672089Y-80815000D01*
X141487911Y-80815000D01*
X141307271Y-80850932D01*
X141137111Y-80921414D01*
X140983972Y-81023738D01*
X140853738Y-81153972D01*
X140751414Y-81307111D01*
X140680932Y-81477271D01*
X140645000Y-81657911D01*
X140545000Y-81657911D01*
X140509068Y-81477271D01*
X140438586Y-81307111D01*
X140336262Y-81153972D01*
X140206028Y-81023738D01*
X140052889Y-80921414D01*
X139882729Y-80850932D01*
X139702089Y-80815000D01*
X139517911Y-80815000D01*
X139337271Y-80850932D01*
X139167111Y-80921414D01*
X139120000Y-80952892D01*
X139120000Y-80273740D01*
X142965000Y-80273740D01*
X142965000Y-80566260D01*
X143022068Y-80853158D01*
X143134010Y-81123411D01*
X143296525Y-81366632D01*
X143503368Y-81573475D01*
X143746589Y-81735990D01*
X144016842Y-81847932D01*
X144303740Y-81905000D01*
X144596260Y-81905000D01*
X144883158Y-81847932D01*
X145153411Y-81735990D01*
X145255298Y-81667911D01*
X162465000Y-81667911D01*
X162465000Y-81852089D01*
X162500932Y-82032729D01*
X162571414Y-82202889D01*
X162673738Y-82356028D01*
X162803972Y-82486262D01*
X162957111Y-82588586D01*
X163127271Y-82659068D01*
X163307911Y-82695000D01*
X163492089Y-82695000D01*
X163672729Y-82659068D01*
X163842889Y-82588586D01*
X163996028Y-82486262D01*
X164126262Y-82356028D01*
X164228586Y-82202889D01*
X164299068Y-82032729D01*
X164335000Y-81852089D01*
X164335000Y-81687911D01*
X164585000Y-81687911D01*
X164585000Y-81872089D01*
X164620932Y-82052729D01*
X164691414Y-82222889D01*
X164793738Y-82376028D01*
X164923972Y-82506262D01*
X165077111Y-82608586D01*
X165247271Y-82679068D01*
X165427911Y-82715000D01*
X165612089Y-82715000D01*
X165792729Y-82679068D01*
X165962889Y-82608586D01*
X166116028Y-82506262D01*
X166246262Y-82376028D01*
X166348586Y-82222889D01*
X166419068Y-82052729D01*
X166455000Y-81872089D01*
X166455000Y-81687911D01*
X166419068Y-81507271D01*
X166348586Y-81337111D01*
X166246262Y-81183972D01*
X166116028Y-81053738D01*
X165962889Y-80951414D01*
X165792729Y-80880932D01*
X165612089Y-80845000D01*
X165427911Y-80845000D01*
X165247271Y-80880932D01*
X165077111Y-80951414D01*
X164923972Y-81053738D01*
X164793738Y-81183972D01*
X164691414Y-81337111D01*
X164620932Y-81507271D01*
X164585000Y-81687911D01*
X164335000Y-81687911D01*
X164335000Y-81667911D01*
X164299068Y-81487271D01*
X164228586Y-81317111D01*
X164126262Y-81163972D01*
X163996028Y-81033738D01*
X163842889Y-80931414D01*
X163672729Y-80860932D01*
X163492089Y-80825000D01*
X163307911Y-80825000D01*
X163127271Y-80860932D01*
X162957111Y-80931414D01*
X162803972Y-81033738D01*
X162673738Y-81163972D01*
X162571414Y-81317111D01*
X162500932Y-81487271D01*
X162465000Y-81667911D01*
X145255298Y-81667911D01*
X145396632Y-81573475D01*
X145603475Y-81366632D01*
X145765990Y-81123411D01*
X145877932Y-80853158D01*
X145935000Y-80566260D01*
X145935000Y-80273740D01*
X145877932Y-79986842D01*
X145765990Y-79716589D01*
X145603475Y-79473368D01*
X145396632Y-79266525D01*
X145153411Y-79104010D01*
X144883158Y-78992068D01*
X144596260Y-78935000D01*
X144303740Y-78935000D01*
X144016842Y-78992068D01*
X143746589Y-79104010D01*
X143503368Y-79266525D01*
X143296525Y-79473368D01*
X143134010Y-79716589D01*
X143022068Y-79986842D01*
X142965000Y-80273740D01*
X139120000Y-80273740D01*
X139120000Y-77455123D01*
X139116515Y-77419738D01*
X139116515Y-77406754D01*
X139115478Y-77396895D01*
X139093723Y-77202945D01*
X139080347Y-77140016D01*
X139067844Y-77076873D01*
X139064913Y-77067403D01*
X139005900Y-76881373D01*
X138980560Y-76822252D01*
X138956028Y-76762733D01*
X138951313Y-76754012D01*
X138857290Y-76582987D01*
X138820940Y-76529900D01*
X138785324Y-76476293D01*
X138779005Y-76468655D01*
X138777000Y-76466266D01*
X138777000Y-76021913D01*
X138793132Y-76002133D01*
X138828757Y-75948513D01*
X138865099Y-75895436D01*
X138869814Y-75886716D01*
X138961439Y-75714394D01*
X138985951Y-75654924D01*
X139011312Y-75595752D01*
X139014243Y-75586282D01*
X139070652Y-75399446D01*
X139083152Y-75336316D01*
X139096530Y-75273377D01*
X139097566Y-75263519D01*
X139116611Y-75069285D01*
X139120000Y-75034877D01*
X139120000Y-71790000D01*
X141661928Y-71790000D01*
X141674188Y-71914482D01*
X141710498Y-72034180D01*
X141769463Y-72144494D01*
X141848815Y-72241185D01*
X141945506Y-72320537D01*
X142055820Y-72379502D01*
X142175518Y-72415812D01*
X142300000Y-72428072D01*
X142864250Y-72425000D01*
X143023000Y-72266250D01*
X143023000Y-71067000D01*
X141823750Y-71067000D01*
X141665000Y-71225750D01*
X141661928Y-71790000D01*
X139120000Y-71790000D01*
X139120000Y-70340000D01*
X141663289Y-70340000D01*
X141665000Y-70654250D01*
X141665000Y-70654250D01*
G37*
X141665000Y-70654250D02*
X141823750Y-70813000D01*
X143023000Y-70813000D01*
X143023000Y-70793000D01*
X143277000Y-70793000D01*
X143277000Y-70813000D01*
X143297000Y-70813000D01*
X143297000Y-71067000D01*
X143277000Y-71067000D01*
X143277000Y-72266250D01*
X143390322Y-72379572D01*
X143296525Y-72473368D01*
X143134010Y-72716589D01*
X143022068Y-72986842D01*
X142965000Y-73273740D01*
X142965000Y-73566260D01*
X143022068Y-73853158D01*
X143134010Y-74123411D01*
X143296525Y-74366632D01*
X143503368Y-74573475D01*
X143746589Y-74735990D01*
X144016842Y-74847932D01*
X144303740Y-74905000D01*
X144596260Y-74905000D01*
X144883158Y-74847932D01*
X145153411Y-74735990D01*
X145396632Y-74573475D01*
X145603475Y-74366632D01*
X145765990Y-74123411D01*
X145797262Y-74047911D01*
X149225000Y-74047911D01*
X149225000Y-74232089D01*
X149260932Y-74412729D01*
X149331414Y-74582889D01*
X149433738Y-74736028D01*
X149527710Y-74830000D01*
X149433738Y-74923972D01*
X149331414Y-75077111D01*
X149260932Y-75247271D01*
X149225000Y-75427911D01*
X149225000Y-75612089D01*
X149260932Y-75792729D01*
X149331414Y-75962889D01*
X149433738Y-76116028D01*
X149563972Y-76246262D01*
X149717111Y-76348586D01*
X149887271Y-76419068D01*
X150067911Y-76455000D01*
X150252089Y-76455000D01*
X150432729Y-76419068D01*
X150602889Y-76348586D01*
X150756028Y-76246262D01*
X150886262Y-76116028D01*
X150988586Y-75962889D01*
X151059068Y-75792729D01*
X151095000Y-75612089D01*
X151095000Y-75427911D01*
X151059068Y-75247271D01*
X150988586Y-75077111D01*
X150886262Y-74923972D01*
X150792290Y-74830000D01*
X150886262Y-74736028D01*
X150988586Y-74582889D01*
X151059068Y-74412729D01*
X151095000Y-74232089D01*
X151095000Y-74047911D01*
X151093011Y-74037911D01*
X151725000Y-74037911D01*
X151725000Y-74222089D01*
X151760932Y-74402729D01*
X151831414Y-74572889D01*
X151933738Y-74726028D01*
X152027710Y-74820000D01*
X151953738Y-74893972D01*
X151851414Y-75047111D01*
X151780932Y-75217271D01*
X151745000Y-75397911D01*
X151745000Y-75582089D01*
X151780932Y-75762729D01*
X151851414Y-75932889D01*
X151953738Y-76086028D01*
X152083972Y-76216262D01*
X152237111Y-76318586D01*
X152407271Y-76389068D01*
X152587911Y-76425000D01*
X152772089Y-76425000D01*
X152952729Y-76389068D01*
X153122889Y-76318586D01*
X153276028Y-76216262D01*
X153406262Y-76086028D01*
X153508586Y-75932889D01*
X153579068Y-75762729D01*
X153615000Y-75582089D01*
X153615000Y-75397911D01*
X153579068Y-75217271D01*
X153508586Y-75047111D01*
X153406262Y-74893972D01*
X153312290Y-74800000D01*
X153386262Y-74726028D01*
X153488586Y-74572889D01*
X153559068Y-74402729D01*
X153595000Y-74222089D01*
X153595000Y-74037911D01*
X153593011Y-74027911D01*
X154245000Y-74027911D01*
X154245000Y-74212089D01*
X154280932Y-74392729D01*
X154351414Y-74562889D01*
X154453738Y-74716028D01*
X154557710Y-74820000D01*
X154473738Y-74903972D01*
X154371414Y-75057111D01*
X154300932Y-75227271D01*
X154265000Y-75407911D01*
X154265000Y-75592089D01*
X154300932Y-75772729D01*
X154371414Y-75942889D01*
X154473738Y-76096028D01*
X154603972Y-76226262D01*
X154757111Y-76328586D01*
X154927271Y-76399068D01*
X155107911Y-76435000D01*
X155292089Y-76435000D01*
X155472729Y-76399068D01*
X155642889Y-76328586D01*
X155796028Y-76226262D01*
X155926262Y-76096028D01*
X156028586Y-75942889D01*
X156099068Y-75772729D01*
X156135000Y-75592089D01*
X156135000Y-75407911D01*
X156099068Y-75227271D01*
X156028586Y-75057111D01*
X155926262Y-74903972D01*
X155822290Y-74800000D01*
X155906262Y-74716028D01*
X156008586Y-74562889D01*
X156079068Y-74392729D01*
X156115000Y-74212089D01*
X156115000Y-74027911D01*
X156079068Y-73847271D01*
X156008586Y-73677111D01*
X155906262Y-73523972D01*
X155776028Y-73393738D01*
X155622889Y-73291414D01*
X155452729Y-73220932D01*
X155272089Y-73185000D01*
X155087911Y-73185000D01*
X154907271Y-73220932D01*
X154737111Y-73291414D01*
X154583972Y-73393738D01*
X154453738Y-73523972D01*
X154351414Y-73677111D01*
X154280932Y-73847271D01*
X154245000Y-74027911D01*
X153593011Y-74027911D01*
X153559068Y-73857271D01*
X153488586Y-73687111D01*
X153386262Y-73533972D01*
X153256028Y-73403738D01*
X153102889Y-73301414D01*
X152932729Y-73230932D01*
X152752089Y-73195000D01*
X152567911Y-73195000D01*
X152387271Y-73230932D01*
X152217111Y-73301414D01*
X152063972Y-73403738D01*
X151933738Y-73533972D01*
X151831414Y-73687111D01*
X151760932Y-73857271D01*
X151725000Y-74037911D01*
X151093011Y-74037911D01*
X151059068Y-73867271D01*
X150988586Y-73697111D01*
X150886262Y-73543972D01*
X150756028Y-73413738D01*
X150602889Y-73311414D01*
X150432729Y-73240932D01*
X150252089Y-73205000D01*
X150067911Y-73205000D01*
X149887271Y-73240932D01*
X149717111Y-73311414D01*
X149563972Y-73413738D01*
X149433738Y-73543972D01*
X149331414Y-73697111D01*
X149260932Y-73867271D01*
X149225000Y-74047911D01*
X145797262Y-74047911D01*
X145877932Y-73853158D01*
X145935000Y-73566260D01*
X145935000Y-73273740D01*
X145877932Y-72986842D01*
X145765990Y-72716589D01*
X145603475Y-72473368D01*
X145548340Y-72418233D01*
X145617050Y-72425000D01*
X145762950Y-72425000D01*
X145981111Y-72403513D01*
X146261034Y-72318599D01*
X146519014Y-72180706D01*
X146745134Y-71995134D01*
X146771393Y-71963137D01*
X148165000Y-71963137D01*
X148165000Y-72176863D01*
X148206696Y-72386483D01*
X148288485Y-72583940D01*
X148407225Y-72761647D01*
X148558353Y-72912775D01*
X148736060Y-73031515D01*
X148933517Y-73113304D01*
X149143137Y-73155000D01*
X149356863Y-73155000D01*
X149566483Y-73113304D01*
X149763940Y-73031515D01*
X149941647Y-72912775D01*
X150092775Y-72761647D01*
X150211515Y-72583940D01*
X150293304Y-72386483D01*
X150335000Y-72176863D01*
X150335000Y-71963137D01*
X154965000Y-71963137D01*
X154965000Y-72176863D01*
X155006696Y-72386483D01*
X155088485Y-72583940D01*
X155207225Y-72761647D01*
X155358353Y-72912775D01*
X155536060Y-73031515D01*
X155733517Y-73113304D01*
X155943137Y-73155000D01*
X156156863Y-73155000D01*
X156366483Y-73113304D01*
X156563940Y-73031515D01*
X156741647Y-72912775D01*
X156892775Y-72761647D01*
X157011515Y-72583940D01*
X157093304Y-72386483D01*
X157135000Y-72176863D01*
X157135000Y-71963137D01*
X157100561Y-71790000D01*
X165531928Y-71790000D01*
X165544188Y-71914482D01*
X165580498Y-72034180D01*
X165639463Y-72144494D01*
X165718815Y-72241185D01*
X165815506Y-72320537D01*
X165925820Y-72379502D01*
X166045518Y-72415812D01*
X166170000Y-72428072D01*
X166734250Y-72425000D01*
X166893000Y-72266250D01*
X166893000Y-71067000D01*
X165693750Y-71067000D01*
X165535000Y-71225750D01*
X165531928Y-71790000D01*
X157100561Y-71790000D01*
X157093304Y-71753517D01*
X157011515Y-71556060D01*
X156892775Y-71378353D01*
X156741647Y-71227225D01*
X156563940Y-71108485D01*
X156366483Y-71026696D01*
X156156863Y-70985000D01*
X155943137Y-70985000D01*
X155733517Y-71026696D01*
X155536060Y-71108485D01*
X155358353Y-71227225D01*
X155207225Y-71378353D01*
X155088485Y-71556060D01*
X155006696Y-71753517D01*
X154965000Y-71963137D01*
X150335000Y-71963137D01*
X150293304Y-71753517D01*
X150211515Y-71556060D01*
X150092775Y-71378353D01*
X149941647Y-71227225D01*
X149763940Y-71108485D01*
X149566483Y-71026696D01*
X149356863Y-70985000D01*
X149143137Y-70985000D01*
X148933517Y-71026696D01*
X148736060Y-71108485D01*
X148558353Y-71227225D01*
X148407225Y-71378353D01*
X148288485Y-71556060D01*
X148206696Y-71753517D01*
X148165000Y-71963137D01*
X146771393Y-71963137D01*
X146930706Y-71769014D01*
X147068599Y-71511034D01*
X147153513Y-71231111D01*
X147182185Y-70940000D01*
X147153513Y-70648889D01*
X147068599Y-70368966D01*
X147053116Y-70340000D01*
X165533289Y-70340000D01*
X165535000Y-70654250D01*
X165693750Y-70813000D01*
X166893000Y-70813000D01*
X166893000Y-70793000D01*
X167147000Y-70793000D01*
X167147000Y-70813000D01*
X167167000Y-70813000D01*
X167167000Y-71067000D01*
X167147000Y-71067000D01*
X167147000Y-72266250D01*
X167255322Y-72374572D01*
X167186525Y-72443368D01*
X167024010Y-72686589D01*
X166912068Y-72956842D01*
X166855000Y-73243740D01*
X166855000Y-73536260D01*
X166912068Y-73823158D01*
X167024010Y-74093411D01*
X167186525Y-74336632D01*
X167393368Y-74543475D01*
X167636589Y-74705990D01*
X167906842Y-74817932D01*
X168193740Y-74875000D01*
X168486260Y-74875000D01*
X168773158Y-74817932D01*
X169043411Y-74705990D01*
X169286632Y-74543475D01*
X169493475Y-74336632D01*
X169655990Y-74093411D01*
X169670694Y-74057911D01*
X173105000Y-74057911D01*
X173105000Y-74242089D01*
X173140932Y-74422729D01*
X173211414Y-74592889D01*
X173313738Y-74746028D01*
X173443972Y-74876262D01*
X173454448Y-74883262D01*
X173343738Y-74993972D01*
X173241414Y-75147111D01*
X173170932Y-75317271D01*
X173135000Y-75497911D01*
X173135000Y-75682089D01*
X173170932Y-75862729D01*
X173241414Y-76032889D01*
X173343738Y-76186028D01*
X173473972Y-76316262D01*
X173627111Y-76418586D01*
X173797271Y-76489068D01*
X173977911Y-76525000D01*
X174162089Y-76525000D01*
X174342729Y-76489068D01*
X174512889Y-76418586D01*
X174666028Y-76316262D01*
X174796262Y-76186028D01*
X174898586Y-76032889D01*
X174969068Y-75862729D01*
X175005000Y-75682089D01*
X175005000Y-75497911D01*
X174981131Y-75377911D01*
X175595000Y-75377911D01*
X175595000Y-75562089D01*
X175630932Y-75742729D01*
X175701414Y-75912889D01*
X175803738Y-76066028D01*
X175933972Y-76196262D01*
X176087111Y-76298586D01*
X176257271Y-76369068D01*
X176437911Y-76405000D01*
X176622089Y-76405000D01*
X176802729Y-76369068D01*
X176972889Y-76298586D01*
X177126028Y-76196262D01*
X177256262Y-76066028D01*
X177358586Y-75912889D01*
X177429068Y-75742729D01*
X177465000Y-75562089D01*
X177465000Y-75377911D01*
X177429068Y-75197271D01*
X177358586Y-75027111D01*
X177256262Y-74873972D01*
X177177290Y-74795000D01*
X177286262Y-74686028D01*
X177388586Y-74532889D01*
X177459068Y-74362729D01*
X177495000Y-74182089D01*
X177495000Y-74027911D01*
X178135000Y-74027911D01*
X178135000Y-74212089D01*
X178170932Y-74392729D01*
X178241414Y-74562889D01*
X178343738Y-74716028D01*
X178473972Y-74846262D01*
X178496437Y-74861273D01*
X178393738Y-74963972D01*
X178291414Y-75117111D01*
X178220932Y-75287271D01*
X178185000Y-75467911D01*
X178185000Y-75652089D01*
X178220932Y-75832729D01*
X178291414Y-76002889D01*
X178393738Y-76156028D01*
X178523972Y-76286262D01*
X178677111Y-76388586D01*
X178847271Y-76459068D01*
X179027911Y-76495000D01*
X179212089Y-76495000D01*
X179392729Y-76459068D01*
X179562889Y-76388586D01*
X179716028Y-76286262D01*
X179846262Y-76156028D01*
X179948586Y-76002889D01*
X180019068Y-75832729D01*
X180055000Y-75652089D01*
X180055000Y-75467911D01*
X180019068Y-75287271D01*
X179948586Y-75117111D01*
X179846262Y-74963972D01*
X179716028Y-74833738D01*
X179693563Y-74818727D01*
X179796262Y-74716028D01*
X179898586Y-74562889D01*
X179969068Y-74392729D01*
X180005000Y-74212089D01*
X180005000Y-74027911D01*
X179969068Y-73847271D01*
X179898586Y-73677111D01*
X179796262Y-73523972D01*
X179666028Y-73393738D01*
X179512889Y-73291414D01*
X179342729Y-73220932D01*
X179162089Y-73185000D01*
X178977911Y-73185000D01*
X178797271Y-73220932D01*
X178627111Y-73291414D01*
X178473972Y-73393738D01*
X178343738Y-73523972D01*
X178241414Y-73677111D01*
X178170932Y-73847271D01*
X178135000Y-74027911D01*
X177495000Y-74027911D01*
X177495000Y-73997911D01*
X177459068Y-73817271D01*
X177388586Y-73647111D01*
X177286262Y-73493972D01*
X177156028Y-73363738D01*
X177002889Y-73261414D01*
X176832729Y-73190932D01*
X176652089Y-73155000D01*
X176467911Y-73155000D01*
X176287271Y-73190932D01*
X176117111Y-73261414D01*
X175963972Y-73363738D01*
X175833738Y-73493972D01*
X175731414Y-73647111D01*
X175660932Y-73817271D01*
X175625000Y-73997911D01*
X175625000Y-74182089D01*
X175660932Y-74362729D01*
X175731414Y-74532889D01*
X175833738Y-74686028D01*
X175912710Y-74765000D01*
X175803738Y-74873972D01*
X175701414Y-75027111D01*
X175630932Y-75197271D01*
X175595000Y-75377911D01*
X174981131Y-75377911D01*
X174969068Y-75317271D01*
X174898586Y-75147111D01*
X174796262Y-74993972D01*
X174666028Y-74863738D01*
X174655552Y-74856738D01*
X174766262Y-74746028D01*
X174868586Y-74592889D01*
X174939068Y-74422729D01*
X174975000Y-74242089D01*
X174975000Y-74057911D01*
X174939068Y-73877271D01*
X174868586Y-73707111D01*
X174766262Y-73553972D01*
X174636028Y-73423738D01*
X174482889Y-73321414D01*
X174312729Y-73250932D01*
X174132089Y-73215000D01*
X173947911Y-73215000D01*
X173767271Y-73250932D01*
X173597111Y-73321414D01*
X173443972Y-73423738D01*
X173313738Y-73553972D01*
X173211414Y-73707111D01*
X173140932Y-73877271D01*
X173105000Y-74057911D01*
X169670694Y-74057911D01*
X169767932Y-73823158D01*
X169825000Y-73536260D01*
X169825000Y-73243740D01*
X169767932Y-72956842D01*
X169655990Y-72686589D01*
X169493475Y-72443368D01*
X169473802Y-72423695D01*
X169487050Y-72425000D01*
X169632950Y-72425000D01*
X169851111Y-72403513D01*
X170131034Y-72318599D01*
X170389014Y-72180706D01*
X170615134Y-71995134D01*
X170641393Y-71963137D01*
X172065000Y-71963137D01*
X172065000Y-72176863D01*
X172106696Y-72386483D01*
X172188485Y-72583940D01*
X172307225Y-72761647D01*
X172458353Y-72912775D01*
X172636060Y-73031515D01*
X172833517Y-73113304D01*
X173043137Y-73155000D01*
X173256863Y-73155000D01*
X173466483Y-73113304D01*
X173663940Y-73031515D01*
X173841647Y-72912775D01*
X173992775Y-72761647D01*
X174111515Y-72583940D01*
X174193304Y-72386483D01*
X174235000Y-72176863D01*
X174235000Y-71963137D01*
X178865000Y-71963137D01*
X178865000Y-72176863D01*
X178906696Y-72386483D01*
X178988485Y-72583940D01*
X179107225Y-72761647D01*
X179258353Y-72912775D01*
X179436060Y-73031515D01*
X179633517Y-73113304D01*
X179843137Y-73155000D01*
X180056863Y-73155000D01*
X180266483Y-73113304D01*
X180463940Y-73031515D01*
X180641647Y-72912775D01*
X180792775Y-72761647D01*
X180911515Y-72583940D01*
X180993304Y-72386483D01*
X181035000Y-72176863D01*
X181035000Y-71963137D01*
X180993304Y-71753517D01*
X180911515Y-71556060D01*
X180792775Y-71378353D01*
X180641647Y-71227225D01*
X180463940Y-71108485D01*
X180266483Y-71026696D01*
X180056863Y-70985000D01*
X179843137Y-70985000D01*
X179633517Y-71026696D01*
X179436060Y-71108485D01*
X179258353Y-71227225D01*
X179107225Y-71378353D01*
X178988485Y-71556060D01*
X178906696Y-71753517D01*
X178865000Y-71963137D01*
X174235000Y-71963137D01*
X174193304Y-71753517D01*
X174111515Y-71556060D01*
X173992775Y-71378353D01*
X173841647Y-71227225D01*
X173663940Y-71108485D01*
X173466483Y-71026696D01*
X173256863Y-70985000D01*
X173043137Y-70985000D01*
X172833517Y-71026696D01*
X172636060Y-71108485D01*
X172458353Y-71227225D01*
X172307225Y-71378353D01*
X172188485Y-71556060D01*
X172106696Y-71753517D01*
X172065000Y-71963137D01*
X170641393Y-71963137D01*
X170800706Y-71769014D01*
X170938599Y-71511034D01*
X171023513Y-71231111D01*
X171052185Y-70940000D01*
X171023513Y-70648889D01*
X170938599Y-70368966D01*
X170923116Y-70340000D01*
X183700000Y-70340000D01*
X183700001Y-72595113D01*
X183696565Y-72630000D01*
X183710273Y-72769184D01*
X183750872Y-72903020D01*
X183816800Y-73026363D01*
X183905525Y-73134475D01*
X184013637Y-73223200D01*
X184136980Y-73289128D01*
X184270816Y-73329727D01*
X184375123Y-73340000D01*
X184410000Y-73343435D01*
X184444877Y-73340000D01*
X188700140Y-73340000D01*
X188705902Y-102727389D01*
X188537271Y-102760932D01*
X188367111Y-102831414D01*
X188213972Y-102933738D01*
X188083738Y-103063972D01*
X187981414Y-103217111D01*
X187910932Y-103387271D01*
X187875000Y-103567911D01*
X187875000Y-103752089D01*
X187910932Y-103932729D01*
X187925001Y-103966695D01*
X187925000Y-105783421D01*
X187773422Y-105935000D01*
X186099192Y-105935000D01*
X186065229Y-105920932D01*
X185884589Y-105885000D01*
X185700411Y-105885000D01*
X185519771Y-105920932D01*
X185349611Y-105991414D01*
X185196472Y-106093738D01*
X185066238Y-106223972D01*
X184963914Y-106377111D01*
X184893432Y-106547271D01*
X184857500Y-106727911D01*
X184857500Y-106912089D01*
X184893432Y-107092729D01*
X184963914Y-107262889D01*
X185066238Y-107416028D01*
X185196472Y-107546262D01*
X185349611Y-107648586D01*
X185519771Y-107719068D01*
X185700411Y-107755000D01*
X185884589Y-107755000D01*
X186065229Y-107719068D01*
X186099192Y-107705000D01*
X188096531Y-107705000D01*
X188140000Y-107709281D01*
X188183469Y-107705000D01*
X188183477Y-107705000D01*
X188313490Y-107692195D01*
X188480313Y-107641589D01*
X188634059Y-107559411D01*
X188706838Y-107499683D01*
X188709752Y-122363000D01*
X182095000Y-122363000D01*
X182095000Y-122227911D01*
X182059068Y-122047271D01*
X181988586Y-121877111D01*
X181910303Y-121759952D01*
X181909003Y-121746750D01*
X181865546Y-121603489D01*
X181852991Y-121580001D01*
X181794974Y-121471460D01*
X181700001Y-121355735D01*
X181670998Y-121331933D01*
X181510000Y-121170935D01*
X181510000Y-119946970D01*
X181647113Y-120038586D01*
X181817273Y-120109068D01*
X181997913Y-120145000D01*
X182182091Y-120145000D01*
X182362731Y-120109068D01*
X182532891Y-120038586D01*
X182686030Y-119936262D01*
X182816264Y-119806028D01*
X182918588Y-119652889D01*
X182932657Y-119618923D01*
X183046533Y-119505047D01*
X183685049Y-118866532D01*
X183718817Y-118838819D01*
X183747384Y-118804011D01*
X183820509Y-118714908D01*
X183829411Y-118704061D01*
X183911589Y-118550315D01*
X183962195Y-118383492D01*
X183975000Y-118253479D01*
X183975000Y-118253469D01*
X183979281Y-118210003D01*
X183975000Y-118166536D01*
X183975000Y-112086692D01*
X183989068Y-112052729D01*
X184025000Y-111872089D01*
X184025000Y-111687911D01*
X183989068Y-111507271D01*
X183918586Y-111337111D01*
X183816262Y-111183972D01*
X183686028Y-111053738D01*
X183532889Y-110951414D01*
X183362729Y-110880932D01*
X183182089Y-110845000D01*
X182997911Y-110845000D01*
X182817271Y-110880932D01*
X182647111Y-110951414D01*
X182493972Y-111053738D01*
X182363738Y-111183972D01*
X182261414Y-111337111D01*
X182190932Y-111507271D01*
X182155000Y-111687911D01*
X182155000Y-111872089D01*
X182190932Y-112052729D01*
X182205000Y-112086693D01*
X182205000Y-113302710D01*
X182186028Y-113283738D01*
X182032889Y-113181414D01*
X181862729Y-113110932D01*
X181682089Y-113075000D01*
X181497911Y-113075000D01*
X181317271Y-113110932D01*
X181147111Y-113181414D01*
X180993972Y-113283738D01*
X180863738Y-113413972D01*
X180761414Y-113567111D01*
X180690932Y-113737271D01*
X180655000Y-113917911D01*
X180655000Y-114102089D01*
X180686917Y-114262545D01*
X180246961Y-114702501D01*
X180255000Y-114662089D01*
X180255000Y-114477911D01*
X180219068Y-114297271D01*
X180148586Y-114127111D01*
X180046262Y-113973972D01*
X179916028Y-113843738D01*
X179762889Y-113741414D01*
X179592729Y-113670932D01*
X179412089Y-113635000D01*
X179227911Y-113635000D01*
X179047271Y-113670932D01*
X178877111Y-113741414D01*
X178723972Y-113843738D01*
X178593738Y-113973972D01*
X178491414Y-114127111D01*
X178420932Y-114297271D01*
X178385000Y-114477911D01*
X178385000Y-114662089D01*
X178420932Y-114842729D01*
X178491414Y-115012889D01*
X178560001Y-115115536D01*
X178560000Y-115415198D01*
X178205199Y-115770000D01*
X173764802Y-115770000D01*
X173440000Y-115445198D01*
X173440000Y-109297322D01*
X173443676Y-109259999D01*
X173440000Y-109222676D01*
X173440000Y-109222667D01*
X173429003Y-109111014D01*
X173385546Y-108967753D01*
X173314974Y-108835724D01*
X173220001Y-108719999D01*
X173190998Y-108696197D01*
X172878190Y-108383389D01*
X173145045Y-108116533D01*
X173178817Y-108088817D01*
X173289411Y-107954059D01*
X173325649Y-107886262D01*
X173371589Y-107800314D01*
X173422195Y-107633490D01*
X173426322Y-107591589D01*
X173435000Y-107503477D01*
X173435000Y-107503469D01*
X173439281Y-107460000D01*
X173435000Y-107416531D01*
X173435000Y-106526578D01*
X174424954Y-107516533D01*
X174424960Y-107516538D01*
X174477345Y-107568923D01*
X174491414Y-107602889D01*
X174593738Y-107756028D01*
X174723972Y-107886262D01*
X174877111Y-107988586D01*
X175047271Y-108059068D01*
X175227911Y-108095000D01*
X175412089Y-108095000D01*
X175592729Y-108059068D01*
X175762889Y-107988586D01*
X175916028Y-107886262D01*
X176046262Y-107756028D01*
X176148586Y-107602889D01*
X176219068Y-107432729D01*
X176255000Y-107252089D01*
X176255000Y-107067911D01*
X176219068Y-106887271D01*
X176148586Y-106717111D01*
X176046262Y-106563972D01*
X175916028Y-106433738D01*
X175762889Y-106331414D01*
X175728923Y-106317345D01*
X175676538Y-106264960D01*
X175676533Y-106264954D01*
X174715000Y-105303422D01*
X174715000Y-101877417D01*
X174767271Y-101899068D01*
X174947911Y-101935000D01*
X175132089Y-101935000D01*
X175312729Y-101899068D01*
X175346692Y-101885000D01*
X175420795Y-101885000D01*
X175464264Y-101889281D01*
X175507733Y-101885000D01*
X175507741Y-101885000D01*
X175637754Y-101872195D01*
X175804577Y-101821589D01*
X175958323Y-101739411D01*
X176093081Y-101628817D01*
X176120798Y-101595044D01*
X176880843Y-100835000D01*
X180606500Y-100835000D01*
X180649969Y-100839281D01*
X180693438Y-100835000D01*
X180693446Y-100835000D01*
X180823459Y-100822195D01*
X180990282Y-100771589D01*
X181144028Y-100689411D01*
X181278786Y-100578817D01*
X181306503Y-100545044D01*
X183095000Y-98756548D01*
X183095000Y-101063421D01*
X180941077Y-103217345D01*
X180907111Y-103231414D01*
X180753972Y-103333738D01*
X180623738Y-103463972D01*
X180521414Y-103617111D01*
X180450932Y-103787271D01*
X180415000Y-103967911D01*
X180415000Y-104152089D01*
X180450932Y-104332729D01*
X180521414Y-104502889D01*
X180623738Y-104656028D01*
X180753972Y-104786262D01*
X180907111Y-104888586D01*
X181077271Y-104959068D01*
X181257911Y-104995000D01*
X181442089Y-104995000D01*
X181622729Y-104959068D01*
X181792889Y-104888586D01*
X181946028Y-104786262D01*
X182076262Y-104656028D01*
X182178586Y-104502889D01*
X182192655Y-104468923D01*
X184575050Y-102086529D01*
X184608817Y-102058817D01*
X184643742Y-102016262D01*
X184719411Y-101924059D01*
X184801589Y-101770314D01*
X184852195Y-101603490D01*
X184855835Y-101566532D01*
X184865000Y-101473477D01*
X184865000Y-101473469D01*
X184869281Y-101430000D01*
X184865000Y-101386531D01*
X184865000Y-92056579D01*
X185077345Y-92268924D01*
X185091414Y-92302889D01*
X185193738Y-92456028D01*
X185323972Y-92586262D01*
X185477111Y-92688586D01*
X185647271Y-92759068D01*
X185827911Y-92795000D01*
X186012089Y-92795000D01*
X186192729Y-92759068D01*
X186362889Y-92688586D01*
X186516028Y-92586262D01*
X186646262Y-92456028D01*
X186748586Y-92302889D01*
X186819068Y-92132729D01*
X186855000Y-91952089D01*
X186855000Y-91767911D01*
X186819068Y-91587271D01*
X186748586Y-91417111D01*
X186646262Y-91263972D01*
X186516028Y-91133738D01*
X186362889Y-91031414D01*
X186328924Y-91017345D01*
X185875000Y-90563422D01*
X185875000Y-83956690D01*
X185889068Y-83922727D01*
X185925000Y-83742087D01*
X185925000Y-83557909D01*
X185889068Y-83377269D01*
X185818586Y-83207109D01*
X185716262Y-83053970D01*
X185586028Y-82923736D01*
X185432889Y-82821412D01*
X185262729Y-82750930D01*
X185082089Y-82714998D01*
X184897911Y-82714998D01*
X184717271Y-82750930D01*
X184547111Y-82821412D01*
X184393972Y-82923736D01*
X184263738Y-83053970D01*
X184161414Y-83207109D01*
X184090932Y-83377269D01*
X184055000Y-83557909D01*
X184055000Y-83742087D01*
X184090932Y-83922727D01*
X184105000Y-83956690D01*
X184105000Y-84117738D01*
X184105001Y-84117748D01*
X184105000Y-88341547D01*
X184072089Y-88335000D01*
X183905000Y-88335000D01*
X183905000Y-80513465D01*
X183909281Y-80469999D01*
X183905000Y-80426533D01*
X183905000Y-80426523D01*
X183892195Y-80296510D01*
X183841589Y-80129687D01*
X183759411Y-79975941D01*
X183648817Y-79841183D01*
X183615050Y-79813471D01*
X180706534Y-76904956D01*
X180678817Y-76871183D01*
X180544059Y-76760589D01*
X180390313Y-76678411D01*
X180223490Y-76627805D01*
X180093477Y-76615000D01*
X180093469Y-76615000D01*
X180050000Y-76610719D01*
X180006531Y-76615000D01*
X178306692Y-76615000D01*
X178272729Y-76600932D01*
X178092089Y-76565000D01*
X177907911Y-76565000D01*
X177727271Y-76600932D01*
X177693308Y-76615000D01*
X154618473Y-76615000D01*
X154575007Y-76610719D01*
X154531541Y-76615000D01*
X154531531Y-76615000D01*
X154401518Y-76627805D01*
X154234695Y-76678411D01*
X154080949Y-76760589D01*
X154039211Y-76794843D01*
X153987109Y-76816424D01*
X153833970Y-76918748D01*
X153703736Y-77048982D01*
X153601412Y-77202121D01*
X153530930Y-77372281D01*
X153494998Y-77552921D01*
X153494998Y-77575000D01*
X148236692Y-77575000D01*
X148202729Y-77560932D01*
X148022089Y-77525000D01*
X147837911Y-77525000D01*
X147657271Y-77560932D01*
X147487111Y-77631414D01*
X147333972Y-77733738D01*
X147203738Y-77863972D01*
X147101414Y-78017111D01*
X147030932Y-78187271D01*
X146995000Y-78367911D01*
X146995000Y-78552089D01*
X147030932Y-78732729D01*
X147101414Y-78902889D01*
X147203738Y-79056028D01*
X147333972Y-79186262D01*
X147487111Y-79288586D01*
X147657271Y-79359068D01*
X147837911Y-79395000D01*
X148022089Y-79395000D01*
X148202729Y-79359068D01*
X148236692Y-79345000D01*
X167284893Y-79345000D01*
X167186525Y-79443368D01*
X167024010Y-79686589D01*
X166912068Y-79956842D01*
X166855000Y-80243740D01*
X166855000Y-80536260D01*
X166912068Y-80823158D01*
X167024010Y-81093411D01*
X167186525Y-81336632D01*
X167393368Y-81543475D01*
X167636589Y-81705990D01*
X167906842Y-81817932D01*
X168193740Y-81875000D01*
X168486260Y-81875000D01*
X168773158Y-81817932D01*
X169043411Y-81705990D01*
X169286632Y-81543475D01*
X169493475Y-81336632D01*
X169655990Y-81093411D01*
X169767932Y-80823158D01*
X169825000Y-80536260D01*
X169825000Y-80243740D01*
X169767932Y-79956842D01*
X169655990Y-79686589D01*
X169493475Y-79443368D01*
X169395107Y-79345000D01*
X171463303Y-79345000D01*
X171497271Y-79359070D01*
X171677911Y-79395002D01*
X171862089Y-79395002D01*
X172042729Y-79359070D01*
X172076692Y-79345002D01*
X172150795Y-79345002D01*
X172194264Y-79349283D01*
X172237733Y-79345002D01*
X172237741Y-79345002D01*
X172237761Y-79345000D01*
X178923422Y-79345000D01*
X181275000Y-81696579D01*
X181275001Y-89412825D01*
X181272889Y-89411414D01*
X181238924Y-89397345D01*
X180746534Y-88904956D01*
X180718817Y-88871183D01*
X180584059Y-88760589D01*
X180430313Y-88678411D01*
X180263490Y-88627805D01*
X180133477Y-88615000D01*
X180133469Y-88615000D01*
X180090000Y-88610719D01*
X180046531Y-88615000D01*
X177256692Y-88615000D01*
X177222729Y-88600932D01*
X177042089Y-88565000D01*
X176857911Y-88565000D01*
X176677271Y-88600932D01*
X176507111Y-88671414D01*
X176353972Y-88773738D01*
X176223738Y-88903972D01*
X176121414Y-89057111D01*
X176050932Y-89227271D01*
X176015000Y-89407911D01*
X176015000Y-89592089D01*
X176050932Y-89772729D01*
X176121414Y-89942889D01*
X176223738Y-90096028D01*
X176353972Y-90226262D01*
X176396982Y-90255000D01*
X174736691Y-90255000D01*
X174702728Y-90240932D01*
X174522088Y-90205000D01*
X174337910Y-90205000D01*
X174157270Y-90240932D01*
X173987110Y-90311414D01*
X173833971Y-90413738D01*
X173703737Y-90543972D01*
X173601413Y-90697111D01*
X173530931Y-90867271D01*
X173494999Y-91047911D01*
X173494999Y-91232089D01*
X173530931Y-91412729D01*
X173601413Y-91582889D01*
X173703737Y-91736028D01*
X173833971Y-91866262D01*
X173987110Y-91968586D01*
X174157270Y-92039068D01*
X174337910Y-92075000D01*
X174522088Y-92075000D01*
X174702728Y-92039068D01*
X174736691Y-92025000D01*
X180983308Y-92025000D01*
X181017271Y-92039068D01*
X181197911Y-92075000D01*
X181275001Y-92075000D01*
X181275001Y-94079167D01*
X181228586Y-93967111D01*
X181126262Y-93813972D01*
X180996028Y-93683738D01*
X180842889Y-93581414D01*
X180672729Y-93510932D01*
X180492089Y-93475000D01*
X180307911Y-93475000D01*
X180127271Y-93510932D01*
X180093308Y-93525000D01*
X171066579Y-93525000D01*
X169286534Y-91744956D01*
X169258817Y-91711183D01*
X169124059Y-91600589D01*
X168970313Y-91518411D01*
X168803490Y-91467805D01*
X168673477Y-91455000D01*
X168673469Y-91455000D01*
X168630000Y-91450719D01*
X168586531Y-91455000D01*
X164481579Y-91455000D01*
X163585155Y-90558577D01*
X163571086Y-90524611D01*
X163468762Y-90371472D01*
X163462775Y-90365485D01*
X163591700Y-90403430D01*
X163942604Y-90435365D01*
X164293028Y-90398534D01*
X164629624Y-90294340D01*
X164939572Y-90126752D01*
X165211065Y-89902153D01*
X165433764Y-89629098D01*
X165599184Y-89317988D01*
X165701025Y-88980672D01*
X165735409Y-88630000D01*
X165734705Y-88579590D01*
X165690543Y-88230014D01*
X165579323Y-87895674D01*
X165405281Y-87589304D01*
X165175045Y-87322574D01*
X164897387Y-87105643D01*
X164582880Y-86946774D01*
X164443689Y-86907911D01*
X168175000Y-86907911D01*
X168175000Y-87092089D01*
X168210932Y-87272729D01*
X168281414Y-87442889D01*
X168383738Y-87596028D01*
X168513972Y-87726262D01*
X168667111Y-87828586D01*
X168837271Y-87899068D01*
X169017911Y-87935000D01*
X169202089Y-87935000D01*
X169382729Y-87899068D01*
X169552889Y-87828586D01*
X169706028Y-87726262D01*
X169836262Y-87596028D01*
X169938586Y-87442889D01*
X170009068Y-87272729D01*
X170045000Y-87092089D01*
X170045000Y-86907911D01*
X170009068Y-86727271D01*
X169938586Y-86557111D01*
X169836262Y-86403972D01*
X169706028Y-86273738D01*
X169552889Y-86171414D01*
X169382729Y-86100932D01*
X169202089Y-86065000D01*
X169017911Y-86065000D01*
X168837271Y-86100932D01*
X168667111Y-86171414D01*
X168513972Y-86273738D01*
X168383738Y-86403972D01*
X168281414Y-86557111D01*
X168210932Y-86727271D01*
X168175000Y-86907911D01*
X164443689Y-86907911D01*
X164243506Y-86852019D01*
X163892190Y-86824987D01*
X163542315Y-86866707D01*
X163207206Y-86975590D01*
X162899629Y-87147490D01*
X162631297Y-87375858D01*
X162412433Y-87651995D01*
X162251373Y-87965385D01*
X162154251Y-88304089D01*
X162124767Y-88655207D01*
X162164044Y-89005366D01*
X162225417Y-89198839D01*
X160901534Y-87874956D01*
X160873817Y-87841183D01*
X160739059Y-87730589D01*
X160585313Y-87648411D01*
X160418490Y-87597805D01*
X160288477Y-87585000D01*
X160288469Y-87585000D01*
X160245000Y-87580719D01*
X160201531Y-87585000D01*
X156916692Y-87585000D01*
X156882729Y-87570932D01*
X156702089Y-87535000D01*
X156517911Y-87535000D01*
X156385000Y-87561438D01*
X156385000Y-85866578D01*
X157513667Y-84737911D01*
X168175000Y-84737911D01*
X168175000Y-84922089D01*
X168210932Y-85102729D01*
X168281414Y-85272889D01*
X168383738Y-85426028D01*
X168513972Y-85556262D01*
X168667111Y-85658586D01*
X168837271Y-85729068D01*
X169017911Y-85765000D01*
X169202089Y-85765000D01*
X169382729Y-85729068D01*
X169552889Y-85658586D01*
X169706028Y-85556262D01*
X169836262Y-85426028D01*
X169938586Y-85272889D01*
X170009068Y-85102729D01*
X170045000Y-84922089D01*
X170045000Y-84737911D01*
X170009068Y-84557271D01*
X169938586Y-84387111D01*
X169836262Y-84233972D01*
X169706028Y-84103738D01*
X169552889Y-84001414D01*
X169382729Y-83930932D01*
X169202089Y-83895000D01*
X169017911Y-83895000D01*
X168837271Y-83930932D01*
X168667111Y-84001414D01*
X168513972Y-84103738D01*
X168383738Y-84233972D01*
X168281414Y-84387111D01*
X168210932Y-84557271D01*
X168175000Y-84737911D01*
X157513667Y-84737911D01*
X158396533Y-83855046D01*
X158396538Y-83855040D01*
X158448923Y-83802655D01*
X158482889Y-83788586D01*
X158636028Y-83686262D01*
X158766262Y-83556028D01*
X158868586Y-83402889D01*
X158939068Y-83232729D01*
X158975000Y-83052089D01*
X158975000Y-82867911D01*
X158939068Y-82687271D01*
X158868586Y-82517111D01*
X158766262Y-82363972D01*
X158636028Y-82233738D01*
X158482889Y-82131414D01*
X158312729Y-82060932D01*
X158132089Y-82025000D01*
X157947911Y-82025000D01*
X157767271Y-82060932D01*
X157597111Y-82131414D01*
X157443972Y-82233738D01*
X157313738Y-82363972D01*
X157211414Y-82517111D01*
X157197345Y-82551077D01*
X157144960Y-82603462D01*
X157144954Y-82603467D01*
X154904951Y-84843471D01*
X154871184Y-84871183D01*
X154843471Y-84904951D01*
X154843468Y-84904954D01*
X154760590Y-85005941D01*
X154678412Y-85159687D01*
X154627805Y-85326510D01*
X154610719Y-85500000D01*
X154615001Y-85543479D01*
X154615000Y-89603307D01*
X154600932Y-89637271D01*
X154565000Y-89817911D01*
X154565000Y-90002089D01*
X154600932Y-90182729D01*
X154671414Y-90352889D01*
X154773738Y-90506028D01*
X154903972Y-90636262D01*
X155057111Y-90738586D01*
X155227271Y-90809068D01*
X155407911Y-90845000D01*
X155592089Y-90845000D01*
X155772729Y-90809068D01*
X155942889Y-90738586D01*
X156096028Y-90636262D01*
X156226262Y-90506028D01*
X156328586Y-90352889D01*
X156399068Y-90182729D01*
X156435000Y-90002089D01*
X156435000Y-89817911D01*
X156399068Y-89637271D01*
X156385000Y-89603308D01*
X156385000Y-89378562D01*
X156517911Y-89405000D01*
X156702089Y-89405000D01*
X156882729Y-89369068D01*
X156916692Y-89355000D01*
X159878422Y-89355000D01*
X161899846Y-91376424D01*
X161913914Y-91410389D01*
X162016238Y-91563528D01*
X162146472Y-91693762D01*
X162299611Y-91796086D01*
X162333577Y-91810155D01*
X162586715Y-92063294D01*
X162532729Y-92040932D01*
X162352089Y-92005000D01*
X162167911Y-92005000D01*
X161987271Y-92040932D01*
X161817111Y-92111414D01*
X161663972Y-92213738D01*
X161533738Y-92343972D01*
X161431414Y-92497111D01*
X161360932Y-92667271D01*
X161325000Y-92847911D01*
X161325000Y-93032089D01*
X161360932Y-93212729D01*
X161431414Y-93382889D01*
X161533738Y-93536028D01*
X161663972Y-93666262D01*
X161817111Y-93768586D01*
X161851077Y-93782655D01*
X161988466Y-93920044D01*
X162016183Y-93953817D01*
X162150941Y-94064411D01*
X162304687Y-94146589D01*
X162471510Y-94197195D01*
X162601523Y-94210000D01*
X162601533Y-94210000D01*
X162644999Y-94214281D01*
X162688465Y-94210000D01*
X167608304Y-94210000D01*
X167642267Y-94224068D01*
X167822907Y-94260000D01*
X168007085Y-94260000D01*
X168187725Y-94224068D01*
X168357885Y-94153586D01*
X168511024Y-94051262D01*
X168641258Y-93921028D01*
X168743582Y-93767889D01*
X168761955Y-93723533D01*
X170043470Y-95005049D01*
X170071183Y-95038817D01*
X170104951Y-95066530D01*
X170104953Y-95066532D01*
X170157885Y-95109972D01*
X170205941Y-95149411D01*
X170359687Y-95231589D01*
X170526510Y-95282195D01*
X170656523Y-95295000D01*
X170656533Y-95295000D01*
X170699999Y-95299281D01*
X170743466Y-95295000D01*
X171032596Y-95295000D01*
X171017111Y-95301414D01*
X170863972Y-95403738D01*
X170733738Y-95533972D01*
X170671896Y-95626525D01*
X168711077Y-97587345D01*
X168677111Y-97601414D01*
X168523972Y-97703738D01*
X168393738Y-97833972D01*
X168291414Y-97987111D01*
X168220932Y-98157271D01*
X168185000Y-98337911D01*
X168185000Y-98522089D01*
X168213427Y-98665000D01*
X163896692Y-98665000D01*
X163862729Y-98650932D01*
X163682089Y-98615000D01*
X163497911Y-98615000D01*
X163317271Y-98650932D01*
X163147111Y-98721414D01*
X162993972Y-98823738D01*
X162863738Y-98953972D01*
X162761414Y-99107111D01*
X162690932Y-99277271D01*
X162655000Y-99457911D01*
X162655000Y-99642089D01*
X162690932Y-99822729D01*
X162761414Y-99992889D01*
X162863738Y-100146028D01*
X162993972Y-100276262D01*
X163147111Y-100378586D01*
X163317271Y-100449068D01*
X163497911Y-100485000D01*
X163682089Y-100485000D01*
X163862729Y-100449068D01*
X163896692Y-100435000D01*
X169786527Y-100435000D01*
X169829996Y-100439281D01*
X169860001Y-100436326D01*
X169860001Y-102116576D01*
X169852089Y-102115002D01*
X169667911Y-102115002D01*
X169487271Y-102150934D01*
X169317111Y-102221416D01*
X169163972Y-102323740D01*
X169033738Y-102453974D01*
X168931414Y-102607113D01*
X168860932Y-102777273D01*
X168825000Y-102957913D01*
X168825000Y-103142091D01*
X168860932Y-103322731D01*
X168875001Y-103356697D01*
X168875000Y-105593307D01*
X168860932Y-105627271D01*
X168825000Y-105807911D01*
X168825000Y-105992089D01*
X168860932Y-106172729D01*
X168931414Y-106342889D01*
X169033738Y-106496028D01*
X169163972Y-106626262D01*
X169166949Y-106628251D01*
X168729003Y-107066198D01*
X168699999Y-107090001D01*
X168671027Y-107125304D01*
X168605026Y-107205726D01*
X168567492Y-107275947D01*
X168534454Y-107337756D01*
X168490997Y-107481017D01*
X168480000Y-107592670D01*
X168480000Y-107592680D01*
X168476324Y-107630002D01*
X168480000Y-107667324D01*
X168480000Y-108337680D01*
X168476324Y-108375002D01*
X168480000Y-108412324D01*
X168480000Y-108412335D01*
X168490997Y-108523988D01*
X168518914Y-108616017D01*
X168534454Y-108667248D01*
X168605026Y-108799278D01*
X168676201Y-108886004D01*
X168700000Y-108915003D01*
X168728998Y-108938801D01*
X169171194Y-109380997D01*
X169194997Y-109410001D01*
X169238526Y-109445724D01*
X169310721Y-109504974D01*
X169442751Y-109575546D01*
X169586012Y-109619003D01*
X169697665Y-109630000D01*
X169697675Y-109630000D01*
X169734998Y-109633676D01*
X169772321Y-109630000D01*
X170867477Y-109630000D01*
X170849990Y-109717911D01*
X170849990Y-109902089D01*
X170885922Y-110082729D01*
X170899990Y-110116693D01*
X170899991Y-113358427D01*
X170884960Y-113373458D01*
X170884954Y-113373463D01*
X170166093Y-114092325D01*
X170162729Y-114090932D01*
X169982089Y-114055000D01*
X169797911Y-114055000D01*
X169790011Y-114056571D01*
X169790011Y-112987333D01*
X169793687Y-112950010D01*
X169790011Y-112912687D01*
X169790011Y-112912678D01*
X169779014Y-112801025D01*
X169735557Y-112657764D01*
X169664985Y-112525735D01*
X169570012Y-112410010D01*
X169541015Y-112386213D01*
X166723033Y-109568232D01*
X166842889Y-109518586D01*
X166996028Y-109416262D01*
X167126262Y-109286028D01*
X167228586Y-109132889D01*
X167299068Y-108962729D01*
X167335000Y-108782089D01*
X167335000Y-108597911D01*
X167299068Y-108417271D01*
X167275000Y-108359165D01*
X167275000Y-104123469D01*
X167279281Y-104080000D01*
X167275000Y-104036531D01*
X167275000Y-104036523D01*
X167262195Y-103906510D01*
X167211589Y-103739687D01*
X167129411Y-103585941D01*
X167070725Y-103514432D01*
X167046532Y-103484953D01*
X167046530Y-103484951D01*
X167018817Y-103451183D01*
X166985050Y-103423471D01*
X166292655Y-102731077D01*
X166278586Y-102697111D01*
X166176262Y-102543972D01*
X166046028Y-102413738D01*
X165892889Y-102311414D01*
X165722729Y-102240932D01*
X165542089Y-102205000D01*
X165357911Y-102205000D01*
X165177271Y-102240932D01*
X165007111Y-102311414D01*
X164853972Y-102413738D01*
X164723738Y-102543972D01*
X164621414Y-102697111D01*
X164550932Y-102867271D01*
X164515000Y-103047911D01*
X164515000Y-103232089D01*
X164550932Y-103412729D01*
X164621414Y-103582889D01*
X164723738Y-103736028D01*
X164853972Y-103866262D01*
X165007111Y-103968586D01*
X165041077Y-103982655D01*
X165505000Y-104446579D01*
X165505001Y-108407448D01*
X165500932Y-108417271D01*
X165465000Y-108597911D01*
X165465000Y-108782089D01*
X165500932Y-108962729D01*
X165561933Y-109110000D01*
X159710000Y-109110000D01*
X159710000Y-103437323D01*
X159713676Y-103400000D01*
X159710000Y-103362677D01*
X159710000Y-103362667D01*
X159699003Y-103251014D01*
X159655546Y-103107753D01*
X159630021Y-103059999D01*
X159584974Y-102975723D01*
X159513799Y-102888997D01*
X159490001Y-102859999D01*
X159461003Y-102836201D01*
X154003153Y-97378352D01*
X153979068Y-97257271D01*
X153908586Y-97087111D01*
X153806262Y-96933972D01*
X153676028Y-96803738D01*
X153522889Y-96701414D01*
X153352729Y-96630932D01*
X153172089Y-96595000D01*
X152987911Y-96595000D01*
X152807271Y-96630932D01*
X152637111Y-96701414D01*
X152483972Y-96803738D01*
X152445000Y-96842710D01*
X152436028Y-96833738D01*
X152282889Y-96731414D01*
X152112729Y-96660932D01*
X151932089Y-96625000D01*
X151747911Y-96625000D01*
X151567271Y-96660932D01*
X151397111Y-96731414D01*
X151243972Y-96833738D01*
X151113738Y-96963972D01*
X151011414Y-97117111D01*
X150940932Y-97287271D01*
X150905000Y-97467911D01*
X150905000Y-97652089D01*
X150940932Y-97832729D01*
X151011414Y-98002889D01*
X151113738Y-98156028D01*
X151243972Y-98286262D01*
X151397111Y-98388586D01*
X151567271Y-98459068D01*
X151688352Y-98483153D01*
X157120000Y-103914802D01*
X157120000Y-103953058D01*
X157052911Y-103953058D01*
X156872271Y-103988990D01*
X156702111Y-104059472D01*
X156548972Y-104161796D01*
X156418738Y-104292030D01*
X156316414Y-104445169D01*
X156245932Y-104615329D01*
X156221847Y-104736409D01*
X155937430Y-105020827D01*
X155949068Y-104992729D01*
X155985000Y-104812089D01*
X155985000Y-104627911D01*
X155949068Y-104447271D01*
X155878586Y-104277111D01*
X155776262Y-104123972D01*
X155646028Y-103993738D01*
X155492889Y-103891414D01*
X155322729Y-103820932D01*
X155142089Y-103785000D01*
X154957911Y-103785000D01*
X154777271Y-103820932D01*
X154607111Y-103891414D01*
X154453972Y-103993738D01*
X154323738Y-104123972D01*
X154221414Y-104277111D01*
X154150932Y-104447271D01*
X154115000Y-104627911D01*
X154115000Y-104812089D01*
X154115901Y-104816621D01*
X154022889Y-104754472D01*
X153852729Y-104683990D01*
X153672089Y-104648058D01*
X153487911Y-104648058D01*
X153307271Y-104683990D01*
X153137111Y-104754472D01*
X152983972Y-104856796D01*
X152853738Y-104987030D01*
X152751414Y-105140169D01*
X152689047Y-105290736D01*
X152597282Y-105308990D01*
X152427122Y-105379472D01*
X152285712Y-105473959D01*
X151650000Y-104838248D01*
X151650000Y-102287322D01*
X151653676Y-102249999D01*
X151650000Y-102212676D01*
X151650000Y-102212667D01*
X151639003Y-102101014D01*
X151595546Y-101957753D01*
X151524974Y-101825724D01*
X151430001Y-101709999D01*
X151401004Y-101686202D01*
X148773153Y-99058352D01*
X148749068Y-98937271D01*
X148678586Y-98767111D01*
X148576262Y-98613972D01*
X148446028Y-98483738D01*
X148292889Y-98381414D01*
X148122729Y-98310932D01*
X147942089Y-98275000D01*
X147757911Y-98275000D01*
X147577271Y-98310932D01*
X147407111Y-98381414D01*
X147253972Y-98483738D01*
X147123738Y-98613972D01*
X147021414Y-98767111D01*
X146950932Y-98937271D01*
X146915000Y-99117911D01*
X146915000Y-99302089D01*
X146950932Y-99482729D01*
X147021414Y-99652889D01*
X147123738Y-99806028D01*
X147253972Y-99936262D01*
X147407111Y-100038586D01*
X147577271Y-100109068D01*
X147698352Y-100133153D01*
X150130000Y-102564802D01*
X150130000Y-103195000D01*
X150087911Y-103195000D01*
X149907271Y-103230932D01*
X149737111Y-103301414D01*
X149634465Y-103370000D01*
X149512320Y-103370000D01*
X149474997Y-103366324D01*
X149437674Y-103370000D01*
X149437665Y-103370000D01*
X149326012Y-103380997D01*
X149221404Y-103412729D01*
X149182751Y-103424454D01*
X149050721Y-103495026D01*
X148968301Y-103562667D01*
X148934997Y-103589999D01*
X148911199Y-103618997D01*
X148898263Y-103631933D01*
X148886262Y-103613972D01*
X148756028Y-103483738D01*
X148602889Y-103381414D01*
X148432729Y-103310932D01*
X148252089Y-103275000D01*
X148067911Y-103275000D01*
X147887271Y-103310932D01*
X147717111Y-103381414D01*
X147563972Y-103483738D01*
X147530000Y-103517710D01*
X147506006Y-103493716D01*
X147352867Y-103391392D01*
X147182707Y-103320910D01*
X147002067Y-103284978D01*
X146817889Y-103284978D01*
X146637249Y-103320910D01*
X146467089Y-103391392D01*
X146313950Y-103493716D01*
X146183716Y-103623950D01*
X146081392Y-103777089D01*
X146010910Y-103947249D01*
X145974978Y-104127889D01*
X145974978Y-104312067D01*
X146010910Y-104492707D01*
X146081392Y-104662867D01*
X146180002Y-104810447D01*
X146180001Y-109272541D01*
X146037271Y-109300932D01*
X145867111Y-109371414D01*
X145713972Y-109473738D01*
X145583738Y-109603972D01*
X145481414Y-109757111D01*
X145410932Y-109927271D01*
X145375000Y-110107911D01*
X145375000Y-110292089D01*
X145410932Y-110472729D01*
X145425000Y-110506692D01*
X145425000Y-110667740D01*
X145425001Y-110667750D01*
X145425000Y-113526531D01*
X145420719Y-113570000D01*
X145425000Y-113613469D01*
X145425000Y-113613476D01*
X145437805Y-113743489D01*
X145488411Y-113910312D01*
X145570589Y-114064058D01*
X145681183Y-114198817D01*
X145714956Y-114226534D01*
X146005001Y-114516579D01*
X146005000Y-116683881D01*
X145991691Y-116672958D01*
X145910192Y-116618502D01*
X145799875Y-116559536D01*
X145709319Y-116522027D01*
X145589623Y-116485718D01*
X145493490Y-116466596D01*
X145369009Y-116454336D01*
X145344450Y-116454336D01*
X145320000Y-116451928D01*
X144820000Y-116451928D01*
X144795550Y-116454336D01*
X144770991Y-116454336D01*
X144646510Y-116466596D01*
X144550377Y-116485718D01*
X144430681Y-116522027D01*
X144340125Y-116559536D01*
X144229808Y-116618502D01*
X144148309Y-116672958D01*
X144109266Y-116705000D01*
X144073465Y-116705000D01*
X144029999Y-116700719D01*
X143986533Y-116705000D01*
X143986523Y-116705000D01*
X143856510Y-116717805D01*
X143689687Y-116768411D01*
X143535941Y-116850589D01*
X143507661Y-116873798D01*
X143434953Y-116933468D01*
X143434951Y-116933470D01*
X143401183Y-116961183D01*
X143373470Y-116994951D01*
X142374956Y-117993466D01*
X142341183Y-118021183D01*
X142230589Y-118155942D01*
X142148411Y-118309688D01*
X142114431Y-118421702D01*
X142098881Y-118472965D01*
X142097805Y-118476511D01*
X142085000Y-118606524D01*
X142085000Y-118606531D01*
X142080719Y-118650000D01*
X142085000Y-118693469D01*
X142085000Y-118823308D01*
X142070932Y-118857271D01*
X142035000Y-119037911D01*
X142035000Y-119222089D01*
X142070932Y-119402729D01*
X142141414Y-119572889D01*
X142243738Y-119726028D01*
X142362677Y-119844967D01*
X142347111Y-119851414D01*
X142274397Y-119900000D01*
X141074802Y-119900000D01*
X140550000Y-119375199D01*
X140550000Y-99529803D01*
X143726005Y-96353799D01*
X143755002Y-96330002D01*
X143849975Y-96214277D01*
X143920547Y-96082248D01*
X143964004Y-95938987D01*
X143975001Y-95827334D01*
X143975001Y-95827324D01*
X143978677Y-95790001D01*
X143975001Y-95752678D01*
X143975001Y-95127324D01*
X143978677Y-95089999D01*
X143975001Y-95052674D01*
X143975001Y-95052666D01*
X143964004Y-94941013D01*
X143920547Y-94797752D01*
X143887104Y-94735186D01*
X143996262Y-94626028D01*
X144065000Y-94523154D01*
X144065001Y-100822250D01*
X144065000Y-100822260D01*
X144065000Y-100923422D01*
X144054960Y-100933462D01*
X144054954Y-100933467D01*
X142304951Y-102683471D01*
X142271184Y-102711183D01*
X142243471Y-102744951D01*
X142243468Y-102744954D01*
X142160590Y-102845941D01*
X142078412Y-102999687D01*
X142027805Y-103166510D01*
X142010719Y-103340000D01*
X142015001Y-103383479D01*
X142015000Y-112553307D01*
X142000932Y-112587271D01*
X141965000Y-112767911D01*
X141965000Y-112952089D01*
X142000932Y-113132729D01*
X142071414Y-113302889D01*
X142173738Y-113456028D01*
X142303972Y-113586262D01*
X142457111Y-113688586D01*
X142627271Y-113759068D01*
X142807911Y-113795000D01*
X142992089Y-113795000D01*
X143172729Y-113759068D01*
X143342889Y-113688586D01*
X143496028Y-113586262D01*
X143626262Y-113456028D01*
X143728586Y-113302889D01*
X143799068Y-113132729D01*
X143835000Y-112952089D01*
X143835000Y-112767911D01*
X143799068Y-112587271D01*
X143785000Y-112553308D01*
X143785000Y-103706578D01*
X145306533Y-102185046D01*
X145306538Y-102185040D01*
X145358923Y-102132655D01*
X145392889Y-102118586D01*
X145546028Y-102016262D01*
X145676262Y-101886028D01*
X145778586Y-101732889D01*
X145849068Y-101562729D01*
X145885000Y-101382089D01*
X145885000Y-101197911D01*
X145849068Y-101017271D01*
X145835000Y-100983308D01*
X145835000Y-95067911D01*
X157235000Y-95067911D01*
X157235000Y-95252089D01*
X157270932Y-95432729D01*
X157341414Y-95602889D01*
X157443738Y-95756028D01*
X157573972Y-95886262D01*
X157727111Y-95988586D01*
X157761077Y-96002655D01*
X158223470Y-96465049D01*
X158251183Y-96498817D01*
X158284951Y-96526530D01*
X158284953Y-96526532D01*
X158303087Y-96541414D01*
X158291183Y-96551183D01*
X158263470Y-96584951D01*
X157771077Y-97077345D01*
X157737111Y-97091414D01*
X157583972Y-97193738D01*
X157453738Y-97323972D01*
X157351414Y-97477111D01*
X157280932Y-97647271D01*
X157245000Y-97827911D01*
X157245000Y-98012089D01*
X157280932Y-98192729D01*
X157351414Y-98362889D01*
X157453738Y-98516028D01*
X157583972Y-98646262D01*
X157737111Y-98748586D01*
X157907271Y-98819068D01*
X158087911Y-98855000D01*
X158272089Y-98855000D01*
X158452729Y-98819068D01*
X158622889Y-98748586D01*
X158776028Y-98646262D01*
X158906262Y-98516028D01*
X159008586Y-98362889D01*
X159022655Y-98328923D01*
X159286579Y-98065000D01*
X160173308Y-98065000D01*
X160207271Y-98079068D01*
X160387911Y-98115000D01*
X160572089Y-98115000D01*
X160752729Y-98079068D01*
X160922889Y-98008586D01*
X161076028Y-97906262D01*
X161206262Y-97776028D01*
X161308586Y-97622889D01*
X161379068Y-97452729D01*
X161415000Y-97272089D01*
X161415000Y-97087911D01*
X161379068Y-96907271D01*
X161308586Y-96737111D01*
X161206262Y-96583972D01*
X161162290Y-96540000D01*
X161236262Y-96466028D01*
X161338586Y-96312889D01*
X161409068Y-96142729D01*
X161445000Y-95962089D01*
X161445000Y-95777911D01*
X161409068Y-95597271D01*
X161338586Y-95427111D01*
X161236262Y-95273972D01*
X161106028Y-95143738D01*
X160952889Y-95041414D01*
X160782729Y-94970932D01*
X160602089Y-94935000D01*
X160417911Y-94935000D01*
X160237271Y-94970932D01*
X160203308Y-94985000D01*
X159246579Y-94985000D01*
X159012655Y-94751077D01*
X158998586Y-94717111D01*
X158896262Y-94563972D01*
X158766028Y-94433738D01*
X158612889Y-94331414D01*
X158442729Y-94260932D01*
X158262089Y-94225000D01*
X158077911Y-94225000D01*
X157897271Y-94260932D01*
X157727111Y-94331414D01*
X157573972Y-94433738D01*
X157443738Y-94563972D01*
X157341414Y-94717111D01*
X157270932Y-94887271D01*
X157235000Y-95067911D01*
X145835000Y-95067911D01*
X145835000Y-91243469D01*
X145839281Y-91200000D01*
X145835000Y-91156531D01*
X145835000Y-91156523D01*
X145822195Y-91026510D01*
X145819862Y-91018817D01*
X145802019Y-90960000D01*
X145771589Y-90859687D01*
X145689411Y-90705941D01*
X145664227Y-90675254D01*
X145606532Y-90604953D01*
X145606530Y-90604951D01*
X145578817Y-90571183D01*
X145545050Y-90543471D01*
X144796534Y-89794956D01*
X144768817Y-89761183D01*
X144634059Y-89650589D01*
X144480313Y-89568411D01*
X144313490Y-89517805D01*
X144183477Y-89505000D01*
X144183469Y-89505000D01*
X144140000Y-89500719D01*
X144096531Y-89505000D01*
X142946692Y-89505000D01*
X142912729Y-89490932D01*
X142732089Y-89455000D01*
X142547911Y-89455000D01*
X142367271Y-89490932D01*
X142197111Y-89561414D01*
X142043972Y-89663738D01*
X141913738Y-89793972D01*
X141811414Y-89947111D01*
X141740932Y-90117271D01*
X141705000Y-90297911D01*
X141705000Y-90482089D01*
X141740932Y-90662729D01*
X141811414Y-90832889D01*
X141904904Y-90972806D01*
X141873738Y-91003972D01*
X141771414Y-91157111D01*
X141700932Y-91327271D01*
X141665000Y-91507911D01*
X141665000Y-91692089D01*
X141700932Y-91872729D01*
X141771414Y-92042889D01*
X141840001Y-92145537D01*
X141840000Y-94437675D01*
X141836324Y-94474998D01*
X141840000Y-94512320D01*
X141840000Y-94512330D01*
X141850997Y-94623983D01*
X141879247Y-94717111D01*
X141893526Y-94764184D01*
X141863738Y-94793972D01*
X141761414Y-94947111D01*
X141690932Y-95117271D01*
X141666847Y-95238351D01*
X138814697Y-98090502D01*
X138785324Y-98046293D01*
X138779005Y-98038655D01*
X138777000Y-98036266D01*
X138777000Y-97591913D01*
X138793132Y-97572133D01*
X138828757Y-97518513D01*
X138865099Y-97465436D01*
X138869814Y-97456716D01*
X138961439Y-97284394D01*
X138985951Y-97224924D01*
X139011312Y-97165752D01*
X139014243Y-97156282D01*
X139070652Y-96969446D01*
X139083152Y-96906316D01*
X139096530Y-96843377D01*
X139097566Y-96833519D01*
X139116611Y-96639285D01*
X139120000Y-96604877D01*
X139120000Y-86957911D01*
X144235000Y-86957911D01*
X144235000Y-87142089D01*
X144270932Y-87322729D01*
X144341414Y-87492889D01*
X144443738Y-87646028D01*
X144573972Y-87776262D01*
X144727111Y-87878586D01*
X144897271Y-87949068D01*
X145077911Y-87985000D01*
X145262089Y-87985000D01*
X145442729Y-87949068D01*
X145612889Y-87878586D01*
X145766028Y-87776262D01*
X145896262Y-87646028D01*
X145998586Y-87492889D01*
X146069068Y-87322729D01*
X146105000Y-87142089D01*
X146105000Y-86957911D01*
X146069068Y-86777271D01*
X145998586Y-86607111D01*
X145896262Y-86453972D01*
X145766028Y-86323738D01*
X145612889Y-86221414D01*
X145442729Y-86150932D01*
X145262089Y-86115000D01*
X145077911Y-86115000D01*
X144897271Y-86150932D01*
X144727111Y-86221414D01*
X144573972Y-86323738D01*
X144443738Y-86453972D01*
X144341414Y-86607111D01*
X144270932Y-86777271D01*
X144235000Y-86957911D01*
X139120000Y-86957911D01*
X139120000Y-85007911D01*
X144245000Y-85007911D01*
X144245000Y-85192089D01*
X144280932Y-85372729D01*
X144351414Y-85542889D01*
X144453738Y-85696028D01*
X144583972Y-85826262D01*
X144737111Y-85928586D01*
X144907271Y-85999068D01*
X145087911Y-86035000D01*
X145272089Y-86035000D01*
X145452729Y-85999068D01*
X145622889Y-85928586D01*
X145776028Y-85826262D01*
X145906262Y-85696028D01*
X146008586Y-85542889D01*
X146079068Y-85372729D01*
X146115000Y-85192089D01*
X146115000Y-85007911D01*
X146079068Y-84827271D01*
X146008586Y-84657111D01*
X145906262Y-84503972D01*
X145776028Y-84373738D01*
X145622889Y-84271414D01*
X145452729Y-84200932D01*
X145272089Y-84165000D01*
X145087911Y-84165000D01*
X144907271Y-84200932D01*
X144737111Y-84271414D01*
X144583972Y-84373738D01*
X144453738Y-84503972D01*
X144351414Y-84657111D01*
X144280932Y-84827271D01*
X144245000Y-85007911D01*
X139120000Y-85007911D01*
X139120000Y-82547108D01*
X139167111Y-82578586D01*
X139337271Y-82649068D01*
X139517911Y-82685000D01*
X139702089Y-82685000D01*
X139882729Y-82649068D01*
X140052889Y-82578586D01*
X140206028Y-82476262D01*
X140336262Y-82346028D01*
X140438586Y-82192889D01*
X140509068Y-82022729D01*
X140545000Y-81842089D01*
X140545000Y-81657911D01*
X140645000Y-81657911D01*
X140645000Y-81842089D01*
X140680932Y-82022729D01*
X140751414Y-82192889D01*
X140853738Y-82346028D01*
X140983972Y-82476262D01*
X141137111Y-82578586D01*
X141307271Y-82649068D01*
X141487911Y-82685000D01*
X141672089Y-82685000D01*
X141852729Y-82649068D01*
X142022889Y-82578586D01*
X142176028Y-82476262D01*
X142306262Y-82346028D01*
X142408586Y-82192889D01*
X142479068Y-82022729D01*
X142515000Y-81842089D01*
X142515000Y-81657911D01*
X142479068Y-81477271D01*
X142408586Y-81307111D01*
X142306262Y-81153972D01*
X142176028Y-81023738D01*
X142022889Y-80921414D01*
X141852729Y-80850932D01*
X141672089Y-80815000D01*
X141487911Y-80815000D01*
X141307271Y-80850932D01*
X141137111Y-80921414D01*
X140983972Y-81023738D01*
X140853738Y-81153972D01*
X140751414Y-81307111D01*
X140680932Y-81477271D01*
X140645000Y-81657911D01*
X140545000Y-81657911D01*
X140509068Y-81477271D01*
X140438586Y-81307111D01*
X140336262Y-81153972D01*
X140206028Y-81023738D01*
X140052889Y-80921414D01*
X139882729Y-80850932D01*
X139702089Y-80815000D01*
X139517911Y-80815000D01*
X139337271Y-80850932D01*
X139167111Y-80921414D01*
X139120000Y-80952892D01*
X139120000Y-80273740D01*
X142965000Y-80273740D01*
X142965000Y-80566260D01*
X143022068Y-80853158D01*
X143134010Y-81123411D01*
X143296525Y-81366632D01*
X143503368Y-81573475D01*
X143746589Y-81735990D01*
X144016842Y-81847932D01*
X144303740Y-81905000D01*
X144596260Y-81905000D01*
X144883158Y-81847932D01*
X145153411Y-81735990D01*
X145255298Y-81667911D01*
X162465000Y-81667911D01*
X162465000Y-81852089D01*
X162500932Y-82032729D01*
X162571414Y-82202889D01*
X162673738Y-82356028D01*
X162803972Y-82486262D01*
X162957111Y-82588586D01*
X163127271Y-82659068D01*
X163307911Y-82695000D01*
X163492089Y-82695000D01*
X163672729Y-82659068D01*
X163842889Y-82588586D01*
X163996028Y-82486262D01*
X164126262Y-82356028D01*
X164228586Y-82202889D01*
X164299068Y-82032729D01*
X164335000Y-81852089D01*
X164335000Y-81687911D01*
X164585000Y-81687911D01*
X164585000Y-81872089D01*
X164620932Y-82052729D01*
X164691414Y-82222889D01*
X164793738Y-82376028D01*
X164923972Y-82506262D01*
X165077111Y-82608586D01*
X165247271Y-82679068D01*
X165427911Y-82715000D01*
X165612089Y-82715000D01*
X165792729Y-82679068D01*
X165962889Y-82608586D01*
X166116028Y-82506262D01*
X166246262Y-82376028D01*
X166348586Y-82222889D01*
X166419068Y-82052729D01*
X166455000Y-81872089D01*
X166455000Y-81687911D01*
X166419068Y-81507271D01*
X166348586Y-81337111D01*
X166246262Y-81183972D01*
X166116028Y-81053738D01*
X165962889Y-80951414D01*
X165792729Y-80880932D01*
X165612089Y-80845000D01*
X165427911Y-80845000D01*
X165247271Y-80880932D01*
X165077111Y-80951414D01*
X164923972Y-81053738D01*
X164793738Y-81183972D01*
X164691414Y-81337111D01*
X164620932Y-81507271D01*
X164585000Y-81687911D01*
X164335000Y-81687911D01*
X164335000Y-81667911D01*
X164299068Y-81487271D01*
X164228586Y-81317111D01*
X164126262Y-81163972D01*
X163996028Y-81033738D01*
X163842889Y-80931414D01*
X163672729Y-80860932D01*
X163492089Y-80825000D01*
X163307911Y-80825000D01*
X163127271Y-80860932D01*
X162957111Y-80931414D01*
X162803972Y-81033738D01*
X162673738Y-81163972D01*
X162571414Y-81317111D01*
X162500932Y-81487271D01*
X162465000Y-81667911D01*
X145255298Y-81667911D01*
X145396632Y-81573475D01*
X145603475Y-81366632D01*
X145765990Y-81123411D01*
X145877932Y-80853158D01*
X145935000Y-80566260D01*
X145935000Y-80273740D01*
X145877932Y-79986842D01*
X145765990Y-79716589D01*
X145603475Y-79473368D01*
X145396632Y-79266525D01*
X145153411Y-79104010D01*
X144883158Y-78992068D01*
X144596260Y-78935000D01*
X144303740Y-78935000D01*
X144016842Y-78992068D01*
X143746589Y-79104010D01*
X143503368Y-79266525D01*
X143296525Y-79473368D01*
X143134010Y-79716589D01*
X143022068Y-79986842D01*
X142965000Y-80273740D01*
X139120000Y-80273740D01*
X139120000Y-77455123D01*
X139116515Y-77419738D01*
X139116515Y-77406754D01*
X139115478Y-77396895D01*
X139093723Y-77202945D01*
X139080347Y-77140016D01*
X139067844Y-77076873D01*
X139064913Y-77067403D01*
X139005900Y-76881373D01*
X138980560Y-76822252D01*
X138956028Y-76762733D01*
X138951313Y-76754012D01*
X138857290Y-76582987D01*
X138820940Y-76529900D01*
X138785324Y-76476293D01*
X138779005Y-76468655D01*
X138777000Y-76466266D01*
X138777000Y-76021913D01*
X138793132Y-76002133D01*
X138828757Y-75948513D01*
X138865099Y-75895436D01*
X138869814Y-75886716D01*
X138961439Y-75714394D01*
X138985951Y-75654924D01*
X139011312Y-75595752D01*
X139014243Y-75586282D01*
X139070652Y-75399446D01*
X139083152Y-75336316D01*
X139096530Y-75273377D01*
X139097566Y-75263519D01*
X139116611Y-75069285D01*
X139120000Y-75034877D01*
X139120000Y-71790000D01*
X141661928Y-71790000D01*
X141674188Y-71914482D01*
X141710498Y-72034180D01*
X141769463Y-72144494D01*
X141848815Y-72241185D01*
X141945506Y-72320537D01*
X142055820Y-72379502D01*
X142175518Y-72415812D01*
X142300000Y-72428072D01*
X142864250Y-72425000D01*
X143023000Y-72266250D01*
X143023000Y-71067000D01*
X141823750Y-71067000D01*
X141665000Y-71225750D01*
X141661928Y-71790000D01*
X139120000Y-71790000D01*
X139120000Y-70340000D01*
X141663289Y-70340000D01*
X141665000Y-70654250D01*
M02*
