G04 #@! TF.GenerationSoftware,KiCad,Pcbnew,(5.0.2)-1*
G04 #@! TF.CreationDate,2019-03-10T02:30:53+01:00*
G04 #@! TF.ProjectId,GBDSO,47424453-4f2e-46b6-9963-61645f706362,rev?*
G04 #@! TF.SameCoordinates,Original*
G04 #@! TF.FileFunction,Legend,Top*
G04 #@! TF.FilePolarity,Positive*
%FSLAX46Y46*%
G04 Gerber Fmt 4.6, Leading zero omitted, Abs format (unit mm)*
G04 Created by KiCad (PCBNEW (5.0.2)-1) date 10/03/2019 02:30:53*
%MOMM*%
%LPD*%
G01*
G04 APERTURE LIST*
%ADD10C,0.200000*%
%ADD11C,0.187500*%
%ADD12C,0.150000*%
%ADD13C,0.120000*%
%ADD14C,0.125000*%
G04 APERTURE END LIST*
D10*
X165233112Y-92630000D02*
G75*
G03X165233112Y-92630000I-1303112J0D01*
G01*
D11*
X107204285Y-81989285D02*
X106775714Y-81989285D01*
X106990000Y-81989285D02*
X106990000Y-81239285D01*
X106918571Y-81346428D01*
X106847142Y-81417857D01*
X106775714Y-81453571D01*
D10*
X167770000Y-115170000D02*
G75*
G03X167770000Y-115170000I-3850000J0D01*
G01*
D12*
G04 #@! TO.C,J1*
X165340000Y-80990000D02*
X165340000Y-73390000D01*
X165340000Y-84390000D02*
X165340000Y-82490000D01*
X166040000Y-80990000D02*
X165340000Y-80990000D01*
X166040000Y-82490000D02*
X166040000Y-80990000D01*
X165340000Y-82490000D02*
X166040000Y-82490000D01*
X165340000Y-70640000D02*
X165340000Y-69890000D01*
X166040000Y-73390000D02*
X165340000Y-73390000D01*
X166040000Y-70640000D02*
X166040000Y-73390000D01*
X165340000Y-70640000D02*
X166040000Y-70640000D01*
X171340000Y-84390000D02*
X165340000Y-84390000D01*
X171340000Y-69890000D02*
X171340000Y-84390000D01*
X170640000Y-69890000D02*
X171340000Y-69890000D01*
X170640000Y-67390000D02*
X170640000Y-69890000D01*
X168340000Y-67390000D02*
X170640000Y-67390000D01*
X166040000Y-69890000D02*
X165340000Y-69890000D01*
X166040000Y-67390000D02*
X166040000Y-69890000D01*
X168340000Y-67390000D02*
X166040000Y-67390000D01*
X171340000Y-73390000D02*
X171340000Y-69890000D01*
G04 #@! TO.C,J2*
X141450000Y-81020000D02*
X141450000Y-73420000D01*
X141450000Y-84420000D02*
X141450000Y-82520000D01*
X142150000Y-81020000D02*
X141450000Y-81020000D01*
X142150000Y-82520000D02*
X142150000Y-81020000D01*
X141450000Y-82520000D02*
X142150000Y-82520000D01*
X141450000Y-70670000D02*
X141450000Y-69920000D01*
X142150000Y-73420000D02*
X141450000Y-73420000D01*
X142150000Y-70670000D02*
X142150000Y-73420000D01*
X141450000Y-70670000D02*
X142150000Y-70670000D01*
X147450000Y-84420000D02*
X141450000Y-84420000D01*
X147450000Y-69920000D02*
X147450000Y-84420000D01*
X146750000Y-69920000D02*
X147450000Y-69920000D01*
X146750000Y-67420000D02*
X146750000Y-69920000D01*
X144450000Y-67420000D02*
X146750000Y-67420000D01*
X142150000Y-69920000D02*
X141450000Y-69920000D01*
X142150000Y-67420000D02*
X142150000Y-69920000D01*
X144450000Y-67420000D02*
X142150000Y-67420000D01*
X147450000Y-73420000D02*
X147450000Y-69920000D01*
D13*
G04 #@! TO.C,C26*
X185557936Y-99280000D02*
X186762064Y-99280000D01*
X185557936Y-97460000D02*
X186762064Y-97460000D01*
G04 #@! TO.C,C23*
X186233922Y-105940000D02*
X186751078Y-105940000D01*
X186233922Y-104520000D02*
X186751078Y-104520000D01*
G04 #@! TO.C,U10*
X115609775Y-82483961D02*
G75*
G02X113609775Y-82483961I-1000000J0D01*
G01*
X113609775Y-82483961D02*
X108549775Y-82483961D01*
X108549775Y-82483961D02*
X108549775Y-118163961D01*
X108549775Y-118163961D02*
X120669775Y-118163961D01*
X120669775Y-118163961D02*
X120669775Y-82483961D01*
X120669775Y-82483961D02*
X115609775Y-82483961D01*
X105549775Y-82423961D02*
X105549775Y-118223961D01*
X105549775Y-118223961D02*
X123669775Y-118223961D01*
X123669775Y-118223961D02*
X123669775Y-82423961D01*
X123669775Y-82423961D02*
X105549775Y-82423961D01*
G04 #@! TO.C,U7*
X144455000Y-103980000D02*
X144455000Y-102525000D01*
X144455000Y-102525000D02*
X145910000Y-102525000D01*
X158645000Y-112720000D02*
X158645000Y-114175000D01*
X158645000Y-114175000D02*
X157190000Y-114175000D01*
X158645000Y-103980000D02*
X158645000Y-102525000D01*
X158645000Y-102525000D02*
X157190000Y-102525000D01*
X144455000Y-112720000D02*
X144455000Y-113002782D01*
X144455000Y-113002782D02*
X145627218Y-114175000D01*
X145627218Y-114175000D02*
X145910000Y-114175000D01*
G04 #@! TO.C,C1*
X165020000Y-78118578D02*
X165020000Y-77601422D01*
X163600000Y-78118578D02*
X163600000Y-77601422D01*
G04 #@! TO.C,C2*
X182010000Y-77868578D02*
X182010000Y-77351422D01*
X180590000Y-77868578D02*
X180590000Y-77351422D01*
G04 #@! TO.C,C3*
X185261078Y-81930000D02*
X184743922Y-81930000D01*
X185261078Y-83350000D02*
X184743922Y-83350000D01*
G04 #@! TO.C,C4*
X179481422Y-96310000D02*
X179998578Y-96310000D01*
X179481422Y-94890000D02*
X179998578Y-94890000D01*
G04 #@! TO.C,C5*
X181528578Y-81930000D02*
X181011422Y-81930000D01*
X181528578Y-83350000D02*
X181011422Y-83350000D01*
G04 #@! TO.C,C6*
X173600000Y-94813922D02*
X173600000Y-95331078D01*
X175020000Y-94813922D02*
X175020000Y-95331078D01*
G04 #@! TO.C,C7*
X169928922Y-114330000D02*
X170446078Y-114330000D01*
X169928922Y-112910000D02*
X170446078Y-112910000D01*
G04 #@! TO.C,C8*
X162751078Y-89070000D02*
X162233922Y-89070000D01*
X162751078Y-90490000D02*
X162233922Y-90490000D01*
G04 #@! TO.C,C9*
X181508578Y-84110000D02*
X180991422Y-84110000D01*
X181508578Y-85530000D02*
X180991422Y-85530000D01*
G04 #@! TO.C,C10*
X140693922Y-86900000D02*
X141211078Y-86900000D01*
X140693922Y-85480000D02*
X141211078Y-85480000D01*
G04 #@! TO.C,C11*
X158070000Y-73001422D02*
X158070000Y-73518578D01*
X159490000Y-73001422D02*
X159490000Y-73518578D01*
G04 #@! TO.C,C12*
X149410000Y-88871422D02*
X149410000Y-89388578D01*
X150830000Y-88871422D02*
X150830000Y-89388578D01*
G04 #@! TO.C,C13*
X158722768Y-77290521D02*
X159239924Y-77290521D01*
X158722768Y-75870521D02*
X159239924Y-75870521D01*
G04 #@! TO.C,C14*
X162810000Y-78128578D02*
X162810000Y-77611422D01*
X161390000Y-78128578D02*
X161390000Y-77611422D01*
G04 #@! TO.C,C15*
X160630000Y-92713922D02*
X160630000Y-93231078D01*
X162050000Y-92713922D02*
X162050000Y-93231078D01*
G04 #@! TO.C,C16*
X170491422Y-116380000D02*
X171008578Y-116380000D01*
X170491422Y-114960000D02*
X171008578Y-114960000D01*
G04 #@! TO.C,C17*
X186363922Y-113195000D02*
X186881078Y-113195000D01*
X186363922Y-111775000D02*
X186881078Y-111775000D01*
G04 #@! TO.C,C18*
X140240000Y-111711422D02*
X140240000Y-112228578D01*
X141660000Y-111711422D02*
X141660000Y-112228578D01*
G04 #@! TO.C,C19*
X162010000Y-105671078D02*
X162010000Y-105153922D01*
X160590000Y-105671078D02*
X160590000Y-105153922D01*
G04 #@! TO.C,C20*
X176381422Y-106260000D02*
X176898578Y-106260000D01*
X176381422Y-104840000D02*
X176898578Y-104840000D01*
G04 #@! TO.C,C21*
X169203922Y-112280000D02*
X169721078Y-112280000D01*
X169203922Y-110860000D02*
X169721078Y-110860000D01*
G04 #@! TO.C,C22*
X185367936Y-108490000D02*
X186572064Y-108490000D01*
X185367936Y-106670000D02*
X186572064Y-106670000D01*
G04 #@! TO.C,C24*
X183280000Y-104642064D02*
X183280000Y-103437936D01*
X181460000Y-104642064D02*
X181460000Y-103437936D01*
G04 #@! TO.C,C25*
X176327064Y-96985000D02*
X175122936Y-96985000D01*
X176327064Y-98805000D02*
X175122936Y-98805000D01*
G04 #@! TO.C,C27*
X179941422Y-100520000D02*
X180458578Y-100520000D01*
X179941422Y-99100000D02*
X180458578Y-99100000D01*
G04 #@! TO.C,C28*
X142270000Y-118352064D02*
X142270000Y-117147936D01*
X140450000Y-118352064D02*
X140450000Y-117147936D01*
G04 #@! TO.C,C29*
X160793922Y-102210000D02*
X161311078Y-102210000D01*
X160793922Y-100790000D02*
X161311078Y-100790000D01*
G04 #@! TO.C,C30*
X148200000Y-92691422D02*
X148200000Y-93208578D01*
X149620000Y-92691422D02*
X149620000Y-93208578D01*
G04 #@! TO.C,C31*
X176810000Y-102312064D02*
X176810000Y-101107936D01*
X174990000Y-102312064D02*
X174990000Y-101107936D01*
G04 #@! TO.C,C33*
X185337936Y-110870000D02*
X186542064Y-110870000D01*
X185337936Y-109050000D02*
X186542064Y-109050000D01*
G04 #@! TO.C,D1*
X186510000Y-96900000D02*
X185050000Y-96900000D01*
X186510000Y-93740000D02*
X183350000Y-93740000D01*
X186510000Y-93740000D02*
X186510000Y-94670000D01*
X186510000Y-96900000D02*
X186510000Y-95970000D01*
G04 #@! TO.C,D2*
X154760000Y-92600000D02*
X153300000Y-92600000D01*
X154760000Y-89440000D02*
X151600000Y-89440000D01*
X154760000Y-89440000D02*
X154760000Y-90370000D01*
X154760000Y-92600000D02*
X154760000Y-91670000D01*
G04 #@! TO.C,D3*
X163590000Y-110610000D02*
X162130000Y-110610000D01*
X163590000Y-107450000D02*
X160430000Y-107450000D01*
X163590000Y-107450000D02*
X163590000Y-108380000D01*
X163590000Y-110610000D02*
X163590000Y-109680000D01*
G04 #@! TO.C,L1*
X180880000Y-104642064D02*
X180880000Y-103437936D01*
X179060000Y-104642064D02*
X179060000Y-103437936D01*
G04 #@! TO.C,L2*
X181832064Y-106670000D02*
X180627936Y-106670000D01*
X181832064Y-108490000D02*
X180627936Y-108490000D01*
G04 #@! TO.C,L3*
X180657936Y-110850000D02*
X181862064Y-110850000D01*
X180657936Y-109030000D02*
X181862064Y-109030000D01*
G04 #@! TO.C,P1*
X176880000Y-77930000D02*
X177460000Y-77930000D01*
X174580000Y-77930000D02*
X175100000Y-77930000D01*
X172220000Y-77930000D02*
X172801000Y-77930000D01*
X176080000Y-83170000D02*
X177460000Y-83170000D01*
X172220000Y-83170000D02*
X173600000Y-83170000D01*
X177460000Y-83170000D02*
X177460000Y-77930000D01*
X172220000Y-83170000D02*
X172220000Y-77930000D01*
G04 #@! TO.C,P2*
X153040000Y-77825000D02*
X153620000Y-77825000D01*
X150740000Y-77825000D02*
X151260000Y-77825000D01*
X148380000Y-77825000D02*
X148961000Y-77825000D01*
X152240000Y-83065000D02*
X153620000Y-83065000D01*
X148380000Y-83065000D02*
X149760000Y-83065000D01*
X153620000Y-83065000D02*
X153620000Y-77825000D01*
X148380000Y-83065000D02*
X148380000Y-77825000D01*
G04 #@! TO.C,R1*
X184150000Y-77868578D02*
X184150000Y-77351422D01*
X182730000Y-77868578D02*
X182730000Y-77351422D01*
G04 #@! TO.C,R2*
X187090000Y-92388922D02*
X187090000Y-92906078D01*
X188510000Y-92388922D02*
X188510000Y-92906078D01*
G04 #@! TO.C,R3*
X185030000Y-88703922D02*
X185030000Y-89221078D01*
X186450000Y-88703922D02*
X186450000Y-89221078D01*
G04 #@! TO.C,R4*
X187110000Y-88723922D02*
X187110000Y-89241078D01*
X188530000Y-88723922D02*
X188530000Y-89241078D01*
G04 #@! TO.C,R5*
X184733922Y-85540000D02*
X185251078Y-85540000D01*
X184733922Y-84120000D02*
X185251078Y-84120000D01*
G04 #@! TO.C,R6*
X172361823Y-102588578D02*
X172361823Y-102071422D01*
X170941823Y-102588578D02*
X170941823Y-102071422D01*
G04 #@! TO.C,R7*
X174440000Y-102566078D02*
X174440000Y-102048922D01*
X173020000Y-102566078D02*
X173020000Y-102048922D01*
G04 #@! TO.C,R8*
X161660000Y-73488578D02*
X161660000Y-72971422D01*
X160240000Y-73488578D02*
X160240000Y-72971422D01*
G04 #@! TO.C,R9*
X155980000Y-80158578D02*
X155980000Y-79641422D01*
X154560000Y-80158578D02*
X154560000Y-79641422D01*
G04 #@! TO.C,R10*
X148413922Y-86660000D02*
X148931078Y-86660000D01*
X148413922Y-85240000D02*
X148931078Y-85240000D01*
G04 #@! TO.C,R11*
X152488578Y-85240000D02*
X151971422Y-85240000D01*
X152488578Y-86660000D02*
X151971422Y-86660000D01*
G04 #@! TO.C,R12*
X159259924Y-77960521D02*
X158742768Y-77960521D01*
X159259924Y-79380521D02*
X158742768Y-79380521D01*
G04 #@! TO.C,R13*
X166053922Y-101105000D02*
X166571078Y-101105000D01*
X166053922Y-99685000D02*
X166571078Y-99685000D01*
G04 #@! TO.C,R14*
X168103922Y-103105000D02*
X168621078Y-103105000D01*
X168103922Y-101685000D02*
X168621078Y-101685000D01*
G04 #@! TO.C,R15*
X164170000Y-105678578D02*
X164170000Y-105161422D01*
X162750000Y-105678578D02*
X162750000Y-105161422D01*
G04 #@! TO.C,R16*
X173296078Y-110860000D02*
X172778922Y-110860000D01*
X173296078Y-112280000D02*
X172778922Y-112280000D01*
G04 #@! TO.C,R17*
X175590000Y-109451422D02*
X175590000Y-109968578D01*
X177010000Y-109451422D02*
X177010000Y-109968578D01*
G04 #@! TO.C,SW1*
X176950000Y-68270000D02*
X176950000Y-68270000D01*
X176150000Y-68270000D02*
X176950000Y-68270000D01*
X175850000Y-68270000D02*
X175850000Y-68270000D01*
X175350000Y-68270000D02*
X175850000Y-68270000D01*
X177250000Y-68270000D02*
X177250000Y-68270000D01*
X177750000Y-68270000D02*
X177250000Y-68270000D01*
X178550000Y-69570000D02*
X178550000Y-69570000D01*
X178550000Y-69070000D02*
X178550000Y-69570000D01*
X174550000Y-69570000D02*
X174550000Y-69570000D01*
X174550000Y-69070000D02*
X174550000Y-69570000D01*
X174550000Y-68770000D02*
X174550000Y-68770000D01*
X174550000Y-68270000D02*
X174550000Y-68770000D01*
X175050000Y-68270000D02*
X175050000Y-68270000D01*
X174550000Y-68270000D02*
X175050000Y-68270000D01*
X178050000Y-68270000D02*
X178050000Y-68270000D01*
X178550000Y-68270000D02*
X178050000Y-68270000D01*
X178550000Y-68770000D02*
X178550000Y-68770000D01*
X178550000Y-68270000D02*
X178550000Y-68770000D01*
X181150000Y-70170000D02*
X181150000Y-70170000D01*
X179450000Y-70170000D02*
X181150000Y-70170000D01*
X179450000Y-69870000D02*
X179450000Y-70170000D01*
X178650000Y-69870000D02*
X179450000Y-69870000D01*
X178650000Y-70170000D02*
X178650000Y-69870000D01*
X176950000Y-70170000D02*
X178650000Y-70170000D01*
X176950000Y-69870000D02*
X176950000Y-70170000D01*
X176150000Y-69870000D02*
X176950000Y-69870000D01*
X176150000Y-70170000D02*
X176150000Y-69870000D01*
X174450000Y-70170000D02*
X176150000Y-70170000D01*
X174450000Y-69870000D02*
X174450000Y-70170000D01*
X173650000Y-69870000D02*
X174450000Y-69870000D01*
X173650000Y-70170000D02*
X173650000Y-69870000D01*
X171950000Y-70170000D02*
X173650000Y-70170000D01*
X178350000Y-73970000D02*
X178350000Y-73970000D01*
X177250000Y-73970000D02*
X178350000Y-73970000D01*
X175850000Y-73970000D02*
X175850000Y-73970000D01*
X174750000Y-73970000D02*
X175850000Y-73970000D01*
X181150000Y-73970000D02*
X179750000Y-73970000D01*
X181150000Y-70170000D02*
X181150000Y-73970000D01*
X171950000Y-73970000D02*
X171950000Y-70170000D01*
X173350000Y-73970000D02*
X171950000Y-73970000D01*
G04 #@! TO.C,SW2*
X153050000Y-68270000D02*
X153050000Y-68270000D01*
X152250000Y-68270000D02*
X153050000Y-68270000D01*
X151950000Y-68270000D02*
X151950000Y-68270000D01*
X151450000Y-68270000D02*
X151950000Y-68270000D01*
X153350000Y-68270000D02*
X153350000Y-68270000D01*
X153850000Y-68270000D02*
X153350000Y-68270000D01*
X154650000Y-69570000D02*
X154650000Y-69570000D01*
X154650000Y-69070000D02*
X154650000Y-69570000D01*
X150650000Y-69570000D02*
X150650000Y-69570000D01*
X150650000Y-69070000D02*
X150650000Y-69570000D01*
X150650000Y-68770000D02*
X150650000Y-68770000D01*
X150650000Y-68270000D02*
X150650000Y-68770000D01*
X151150000Y-68270000D02*
X151150000Y-68270000D01*
X150650000Y-68270000D02*
X151150000Y-68270000D01*
X154150000Y-68270000D02*
X154150000Y-68270000D01*
X154650000Y-68270000D02*
X154150000Y-68270000D01*
X154650000Y-68770000D02*
X154650000Y-68770000D01*
X154650000Y-68270000D02*
X154650000Y-68770000D01*
X157250000Y-70170000D02*
X157250000Y-70170000D01*
X155550000Y-70170000D02*
X157250000Y-70170000D01*
X155550000Y-69870000D02*
X155550000Y-70170000D01*
X154750000Y-69870000D02*
X155550000Y-69870000D01*
X154750000Y-70170000D02*
X154750000Y-69870000D01*
X153050000Y-70170000D02*
X154750000Y-70170000D01*
X153050000Y-69870000D02*
X153050000Y-70170000D01*
X152250000Y-69870000D02*
X153050000Y-69870000D01*
X152250000Y-70170000D02*
X152250000Y-69870000D01*
X150550000Y-70170000D02*
X152250000Y-70170000D01*
X150550000Y-69870000D02*
X150550000Y-70170000D01*
X149750000Y-69870000D02*
X150550000Y-69870000D01*
X149750000Y-70170000D02*
X149750000Y-69870000D01*
X148050000Y-70170000D02*
X149750000Y-70170000D01*
X154450000Y-73970000D02*
X154450000Y-73970000D01*
X153350000Y-73970000D02*
X154450000Y-73970000D01*
X151950000Y-73970000D02*
X151950000Y-73970000D01*
X150850000Y-73970000D02*
X151950000Y-73970000D01*
X157250000Y-73970000D02*
X155850000Y-73970000D01*
X157250000Y-70170000D02*
X157250000Y-73970000D01*
X148050000Y-73970000D02*
X148050000Y-70170000D01*
X149450000Y-73970000D02*
X148050000Y-73970000D01*
D12*
G04 #@! TO.C,U1*
X176900000Y-88290000D02*
X175150000Y-88290000D01*
X176900000Y-94045000D02*
X182400000Y-94045000D01*
X176900000Y-87635000D02*
X182400000Y-87635000D01*
X176900000Y-94045000D02*
X176900000Y-93295000D01*
X182400000Y-94045000D02*
X182400000Y-93295000D01*
X182400000Y-87635000D02*
X182400000Y-88385000D01*
X176900000Y-87635000D02*
X176900000Y-88290000D01*
G04 #@! TO.C,U2*
X167035000Y-88910000D02*
X165660000Y-88910000D01*
X167035000Y-99035000D02*
X171185000Y-99035000D01*
X167035000Y-88885000D02*
X171185000Y-88885000D01*
X167035000Y-99035000D02*
X167035000Y-98930000D01*
X171185000Y-99035000D02*
X171185000Y-98930000D01*
X171185000Y-88885000D02*
X171185000Y-88990000D01*
X167035000Y-88885000D02*
X167035000Y-88910000D01*
G04 #@! TO.C,U3*
X156400000Y-82720000D02*
X154650000Y-82720000D01*
X156400000Y-88475000D02*
X161900000Y-88475000D01*
X156400000Y-82065000D02*
X161900000Y-82065000D01*
X156400000Y-88475000D02*
X156400000Y-87725000D01*
X161900000Y-88475000D02*
X161900000Y-87725000D01*
X161900000Y-82065000D02*
X161900000Y-82815000D01*
X156400000Y-82065000D02*
X156400000Y-82720000D01*
G04 #@! TO.C,U4*
X178775000Y-111970000D02*
X177650000Y-111970000D01*
X178775000Y-120445000D02*
X182925000Y-120445000D01*
X178775000Y-111495000D02*
X182925000Y-111495000D01*
X178775000Y-120445000D02*
X178775000Y-119887500D01*
X182925000Y-120445000D02*
X182925000Y-119887500D01*
X182925000Y-111495000D02*
X182925000Y-112052500D01*
X178775000Y-111495000D02*
X178775000Y-111970000D01*
G04 #@! TO.C,U5*
X160045000Y-94465000D02*
X160045000Y-93090000D01*
X149920000Y-94465000D02*
X149920000Y-98615000D01*
X160070000Y-94465000D02*
X160070000Y-98615000D01*
X149920000Y-94465000D02*
X150025000Y-94465000D01*
X149920000Y-98615000D02*
X150025000Y-98615000D01*
X160070000Y-98615000D02*
X159965000Y-98615000D01*
X160070000Y-94465000D02*
X160045000Y-94465000D01*
G04 #@! TO.C,U6*
X141775000Y-89720000D02*
X140400000Y-89720000D01*
X141775000Y-99845000D02*
X145925000Y-99845000D01*
X141775000Y-89695000D02*
X145925000Y-89695000D01*
X141775000Y-99845000D02*
X141775000Y-99740000D01*
X145925000Y-99845000D02*
X145925000Y-99740000D01*
X145925000Y-89695000D02*
X145925000Y-89800000D01*
X141775000Y-89695000D02*
X141775000Y-89720000D01*
G04 #@! TO.C,U8*
X169000000Y-105270000D02*
X167600000Y-105270000D01*
X169000000Y-110370000D02*
X173150000Y-110370000D01*
X169000000Y-105220000D02*
X173150000Y-105220000D01*
X169000000Y-110370000D02*
X169000000Y-110225000D01*
X173150000Y-110370000D02*
X173150000Y-110225000D01*
X173150000Y-105220000D02*
X173150000Y-105365000D01*
X169000000Y-105220000D02*
X169000000Y-105270000D01*
D13*
G04 #@! TO.C,U9*
X185130000Y-103920000D02*
X187580000Y-103920000D01*
X186930000Y-100700000D02*
X185130000Y-100700000D01*
G04 #@! TO.C,JP2*
X141110000Y-106950000D02*
X139110000Y-106950000D01*
X141110000Y-104150000D02*
X141110000Y-106950000D01*
X139110000Y-104150000D02*
X141110000Y-104150000D01*
X139110000Y-106950000D02*
X139110000Y-104150000D01*
D12*
G04 #@! TO.C,J4*
X133190000Y-129240000D02*
X133190000Y-124240000D01*
X133190000Y-129240000D02*
X128190000Y-129240000D01*
X114690000Y-129240000D02*
X119690000Y-129240000D01*
X114690000Y-129240000D02*
X114690000Y-124240000D01*
X133190000Y-71740000D02*
X128190000Y-71740000D01*
X133190000Y-76740000D02*
X133190000Y-71740000D01*
X114690000Y-76740000D02*
X114690000Y-71740000D01*
X114690000Y-71740000D02*
X119690000Y-71740000D01*
G04 #@! TO.C,J1*
X166240000Y-84759285D02*
X166240000Y-85295000D01*
X166204285Y-85402142D01*
X166132857Y-85473571D01*
X166025714Y-85509285D01*
X165954285Y-85509285D01*
X166990000Y-85509285D02*
X166561428Y-85509285D01*
X166775714Y-85509285D02*
X166775714Y-84759285D01*
X166704285Y-84866428D01*
X166632857Y-84937857D01*
X166561428Y-84973571D01*
G04 #@! TO.C,J2*
X140139285Y-77020000D02*
X140675000Y-77020000D01*
X140782142Y-77055714D01*
X140853571Y-77127142D01*
X140889285Y-77234285D01*
X140889285Y-77305714D01*
X140210714Y-76698571D02*
X140175000Y-76662857D01*
X140139285Y-76591428D01*
X140139285Y-76412857D01*
X140175000Y-76341428D01*
X140210714Y-76305714D01*
X140282142Y-76270000D01*
X140353571Y-76270000D01*
X140460714Y-76305714D01*
X140889285Y-76734285D01*
X140889285Y-76270000D01*
G04 #@! TO.C,C26*
X183707857Y-98802142D02*
X183743571Y-98837857D01*
X183779285Y-98945000D01*
X183779285Y-99016428D01*
X183743571Y-99123571D01*
X183672142Y-99195000D01*
X183600714Y-99230714D01*
X183457857Y-99266428D01*
X183350714Y-99266428D01*
X183207857Y-99230714D01*
X183136428Y-99195000D01*
X183065000Y-99123571D01*
X183029285Y-99016428D01*
X183029285Y-98945000D01*
X183065000Y-98837857D01*
X183100714Y-98802142D01*
X183100714Y-98516428D02*
X183065000Y-98480714D01*
X183029285Y-98409285D01*
X183029285Y-98230714D01*
X183065000Y-98159285D01*
X183100714Y-98123571D01*
X183172142Y-98087857D01*
X183243571Y-98087857D01*
X183350714Y-98123571D01*
X183779285Y-98552142D01*
X183779285Y-98087857D01*
X183029285Y-97445000D02*
X183029285Y-97587857D01*
X183065000Y-97659285D01*
X183100714Y-97695000D01*
X183207857Y-97766428D01*
X183350714Y-97802142D01*
X183636428Y-97802142D01*
X183707857Y-97766428D01*
X183743571Y-97730714D01*
X183779285Y-97659285D01*
X183779285Y-97516428D01*
X183743571Y-97445000D01*
X183707857Y-97409285D01*
X183636428Y-97373571D01*
X183457857Y-97373571D01*
X183386428Y-97409285D01*
X183350714Y-97445000D01*
X183315000Y-97516428D01*
X183315000Y-97659285D01*
X183350714Y-97730714D01*
X183386428Y-97766428D01*
X183457857Y-97802142D01*
G04 #@! TO.C,C23*
X184487857Y-105657142D02*
X184523571Y-105692857D01*
X184559285Y-105800000D01*
X184559285Y-105871428D01*
X184523571Y-105978571D01*
X184452142Y-106050000D01*
X184380714Y-106085714D01*
X184237857Y-106121428D01*
X184130714Y-106121428D01*
X183987857Y-106085714D01*
X183916428Y-106050000D01*
X183845000Y-105978571D01*
X183809285Y-105871428D01*
X183809285Y-105800000D01*
X183845000Y-105692857D01*
X183880714Y-105657142D01*
X183880714Y-105371428D02*
X183845000Y-105335714D01*
X183809285Y-105264285D01*
X183809285Y-105085714D01*
X183845000Y-105014285D01*
X183880714Y-104978571D01*
X183952142Y-104942857D01*
X184023571Y-104942857D01*
X184130714Y-104978571D01*
X184559285Y-105407142D01*
X184559285Y-104942857D01*
X183809285Y-104692857D02*
X183809285Y-104228571D01*
X184095000Y-104478571D01*
X184095000Y-104371428D01*
X184130714Y-104300000D01*
X184166428Y-104264285D01*
X184237857Y-104228571D01*
X184416428Y-104228571D01*
X184487857Y-104264285D01*
X184523571Y-104300000D01*
X184559285Y-104371428D01*
X184559285Y-104585714D01*
X184523571Y-104657142D01*
X184487857Y-104692857D01*
G04 #@! TO.C,U10*
X113751203Y-81363246D02*
X113751203Y-81970389D01*
X113786917Y-82041818D01*
X113822632Y-82077532D01*
X113894060Y-82113246D01*
X114036917Y-82113246D01*
X114108346Y-82077532D01*
X114144060Y-82041818D01*
X114179775Y-81970389D01*
X114179775Y-81363246D01*
X114929775Y-82113246D02*
X114501203Y-82113246D01*
X114715489Y-82113246D02*
X114715489Y-81363246D01*
X114644060Y-81470389D01*
X114572632Y-81541818D01*
X114501203Y-81577532D01*
X115394060Y-81363246D02*
X115465489Y-81363246D01*
X115536917Y-81398961D01*
X115572632Y-81434675D01*
X115608346Y-81506103D01*
X115644060Y-81648961D01*
X115644060Y-81827532D01*
X115608346Y-81970389D01*
X115572632Y-82041818D01*
X115536917Y-82077532D01*
X115465489Y-82113246D01*
X115394060Y-82113246D01*
X115322632Y-82077532D01*
X115286917Y-82041818D01*
X115251203Y-81970389D01*
X115215489Y-81827532D01*
X115215489Y-81648961D01*
X115251203Y-81506103D01*
X115286917Y-81434675D01*
X115322632Y-81398961D01*
X115394060Y-81363246D01*
G04 #@! TO.C,J3*
X162960000Y-121179285D02*
X162960000Y-121715000D01*
X162924285Y-121822142D01*
X162852857Y-121893571D01*
X162745714Y-121929285D01*
X162674285Y-121929285D01*
X163245714Y-121179285D02*
X163710000Y-121179285D01*
X163460000Y-121465000D01*
X163567142Y-121465000D01*
X163638571Y-121500714D01*
X163674285Y-121536428D01*
X163710000Y-121607857D01*
X163710000Y-121786428D01*
X163674285Y-121857857D01*
X163638571Y-121893571D01*
X163567142Y-121929285D01*
X163352857Y-121929285D01*
X163281428Y-121893571D01*
X163245714Y-121857857D01*
G04 #@! TO.C,U7*
X151028571Y-115399285D02*
X151028571Y-116006428D01*
X151064285Y-116077857D01*
X151100000Y-116113571D01*
X151171428Y-116149285D01*
X151314285Y-116149285D01*
X151385714Y-116113571D01*
X151421428Y-116077857D01*
X151457142Y-116006428D01*
X151457142Y-115399285D01*
X151742857Y-115399285D02*
X152242857Y-115399285D01*
X151921428Y-116149285D01*
G04 #@! TO.C,C1*
X164205000Y-80357857D02*
X164169285Y-80393571D01*
X164062142Y-80429285D01*
X163990714Y-80429285D01*
X163883571Y-80393571D01*
X163812142Y-80322142D01*
X163776428Y-80250714D01*
X163740714Y-80107857D01*
X163740714Y-80000714D01*
X163776428Y-79857857D01*
X163812142Y-79786428D01*
X163883571Y-79715000D01*
X163990714Y-79679285D01*
X164062142Y-79679285D01*
X164169285Y-79715000D01*
X164205000Y-79750714D01*
X164919285Y-80429285D02*
X164490714Y-80429285D01*
X164705000Y-80429285D02*
X164705000Y-79679285D01*
X164633571Y-79786428D01*
X164562142Y-79857857D01*
X164490714Y-79893571D01*
G04 #@! TO.C,C2*
X181195000Y-75787857D02*
X181159285Y-75823571D01*
X181052142Y-75859285D01*
X180980714Y-75859285D01*
X180873571Y-75823571D01*
X180802142Y-75752142D01*
X180766428Y-75680714D01*
X180730714Y-75537857D01*
X180730714Y-75430714D01*
X180766428Y-75287857D01*
X180802142Y-75216428D01*
X180873571Y-75145000D01*
X180980714Y-75109285D01*
X181052142Y-75109285D01*
X181159285Y-75145000D01*
X181195000Y-75180714D01*
X181480714Y-75180714D02*
X181516428Y-75145000D01*
X181587857Y-75109285D01*
X181766428Y-75109285D01*
X181837857Y-75145000D01*
X181873571Y-75180714D01*
X181909285Y-75252142D01*
X181909285Y-75323571D01*
X181873571Y-75430714D01*
X181445000Y-75859285D01*
X181909285Y-75859285D01*
G04 #@! TO.C,C3*
X187437857Y-82765000D02*
X187473571Y-82800714D01*
X187509285Y-82907857D01*
X187509285Y-82979285D01*
X187473571Y-83086428D01*
X187402142Y-83157857D01*
X187330714Y-83193571D01*
X187187857Y-83229285D01*
X187080714Y-83229285D01*
X186937857Y-83193571D01*
X186866428Y-83157857D01*
X186795000Y-83086428D01*
X186759285Y-82979285D01*
X186759285Y-82907857D01*
X186795000Y-82800714D01*
X186830714Y-82765000D01*
X186759285Y-82515000D02*
X186759285Y-82050714D01*
X187045000Y-82300714D01*
X187045000Y-82193571D01*
X187080714Y-82122142D01*
X187116428Y-82086428D01*
X187187857Y-82050714D01*
X187366428Y-82050714D01*
X187437857Y-82086428D01*
X187473571Y-82122142D01*
X187509285Y-82193571D01*
X187509285Y-82407857D01*
X187473571Y-82479285D01*
X187437857Y-82515000D01*
G04 #@! TO.C,C4*
X179567500Y-97307857D02*
X179531785Y-97343571D01*
X179424642Y-97379285D01*
X179353214Y-97379285D01*
X179246071Y-97343571D01*
X179174642Y-97272142D01*
X179138928Y-97200714D01*
X179103214Y-97057857D01*
X179103214Y-96950714D01*
X179138928Y-96807857D01*
X179174642Y-96736428D01*
X179246071Y-96665000D01*
X179353214Y-96629285D01*
X179424642Y-96629285D01*
X179531785Y-96665000D01*
X179567500Y-96700714D01*
X180210357Y-96879285D02*
X180210357Y-97379285D01*
X180031785Y-96593571D02*
X179853214Y-97129285D01*
X180317500Y-97129285D01*
G04 #@! TO.C,C5*
X179277857Y-82745000D02*
X179313571Y-82780714D01*
X179349285Y-82887857D01*
X179349285Y-82959285D01*
X179313571Y-83066428D01*
X179242142Y-83137857D01*
X179170714Y-83173571D01*
X179027857Y-83209285D01*
X178920714Y-83209285D01*
X178777857Y-83173571D01*
X178706428Y-83137857D01*
X178635000Y-83066428D01*
X178599285Y-82959285D01*
X178599285Y-82887857D01*
X178635000Y-82780714D01*
X178670714Y-82745000D01*
X178599285Y-82066428D02*
X178599285Y-82423571D01*
X178956428Y-82459285D01*
X178920714Y-82423571D01*
X178885000Y-82352142D01*
X178885000Y-82173571D01*
X178920714Y-82102142D01*
X178956428Y-82066428D01*
X179027857Y-82030714D01*
X179206428Y-82030714D01*
X179277857Y-82066428D01*
X179313571Y-82102142D01*
X179349285Y-82173571D01*
X179349285Y-82352142D01*
X179313571Y-82423571D01*
X179277857Y-82459285D01*
G04 #@! TO.C,C6*
X173815000Y-93217857D02*
X173779285Y-93253571D01*
X173672142Y-93289285D01*
X173600714Y-93289285D01*
X173493571Y-93253571D01*
X173422142Y-93182142D01*
X173386428Y-93110714D01*
X173350714Y-92967857D01*
X173350714Y-92860714D01*
X173386428Y-92717857D01*
X173422142Y-92646428D01*
X173493571Y-92575000D01*
X173600714Y-92539285D01*
X173672142Y-92539285D01*
X173779285Y-92575000D01*
X173815000Y-92610714D01*
X174457857Y-92539285D02*
X174315000Y-92539285D01*
X174243571Y-92575000D01*
X174207857Y-92610714D01*
X174136428Y-92717857D01*
X174100714Y-92860714D01*
X174100714Y-93146428D01*
X174136428Y-93217857D01*
X174172142Y-93253571D01*
X174243571Y-93289285D01*
X174386428Y-93289285D01*
X174457857Y-93253571D01*
X174493571Y-93217857D01*
X174529285Y-93146428D01*
X174529285Y-92967857D01*
X174493571Y-92896428D01*
X174457857Y-92860714D01*
X174386428Y-92825000D01*
X174243571Y-92825000D01*
X174172142Y-92860714D01*
X174136428Y-92896428D01*
X174100714Y-92967857D01*
G04 #@! TO.C,C7*
X172647857Y-113785000D02*
X172683571Y-113820714D01*
X172719285Y-113927857D01*
X172719285Y-113999285D01*
X172683571Y-114106428D01*
X172612142Y-114177857D01*
X172540714Y-114213571D01*
X172397857Y-114249285D01*
X172290714Y-114249285D01*
X172147857Y-114213571D01*
X172076428Y-114177857D01*
X172005000Y-114106428D01*
X171969285Y-113999285D01*
X171969285Y-113927857D01*
X172005000Y-113820714D01*
X172040714Y-113785000D01*
X171969285Y-113535000D02*
X171969285Y-113035000D01*
X172719285Y-113356428D01*
G04 #@! TO.C,C8*
X160587857Y-89935000D02*
X160623571Y-89970714D01*
X160659285Y-90077857D01*
X160659285Y-90149285D01*
X160623571Y-90256428D01*
X160552142Y-90327857D01*
X160480714Y-90363571D01*
X160337857Y-90399285D01*
X160230714Y-90399285D01*
X160087857Y-90363571D01*
X160016428Y-90327857D01*
X159945000Y-90256428D01*
X159909285Y-90149285D01*
X159909285Y-90077857D01*
X159945000Y-89970714D01*
X159980714Y-89935000D01*
X160230714Y-89506428D02*
X160195000Y-89577857D01*
X160159285Y-89613571D01*
X160087857Y-89649285D01*
X160052142Y-89649285D01*
X159980714Y-89613571D01*
X159945000Y-89577857D01*
X159909285Y-89506428D01*
X159909285Y-89363571D01*
X159945000Y-89292142D01*
X159980714Y-89256428D01*
X160052142Y-89220714D01*
X160087857Y-89220714D01*
X160159285Y-89256428D01*
X160195000Y-89292142D01*
X160230714Y-89363571D01*
X160230714Y-89506428D01*
X160266428Y-89577857D01*
X160302142Y-89613571D01*
X160373571Y-89649285D01*
X160516428Y-89649285D01*
X160587857Y-89613571D01*
X160623571Y-89577857D01*
X160659285Y-89506428D01*
X160659285Y-89363571D01*
X160623571Y-89292142D01*
X160587857Y-89256428D01*
X160516428Y-89220714D01*
X160373571Y-89220714D01*
X160302142Y-89256428D01*
X160266428Y-89292142D01*
X160230714Y-89363571D01*
G04 #@! TO.C,C9*
X179327857Y-84955000D02*
X179363571Y-84990714D01*
X179399285Y-85097857D01*
X179399285Y-85169285D01*
X179363571Y-85276428D01*
X179292142Y-85347857D01*
X179220714Y-85383571D01*
X179077857Y-85419285D01*
X178970714Y-85419285D01*
X178827857Y-85383571D01*
X178756428Y-85347857D01*
X178685000Y-85276428D01*
X178649285Y-85169285D01*
X178649285Y-85097857D01*
X178685000Y-84990714D01*
X178720714Y-84955000D01*
X179399285Y-84597857D02*
X179399285Y-84455000D01*
X179363571Y-84383571D01*
X179327857Y-84347857D01*
X179220714Y-84276428D01*
X179077857Y-84240714D01*
X178792142Y-84240714D01*
X178720714Y-84276428D01*
X178685000Y-84312142D01*
X178649285Y-84383571D01*
X178649285Y-84526428D01*
X178685000Y-84597857D01*
X178720714Y-84633571D01*
X178792142Y-84669285D01*
X178970714Y-84669285D01*
X179042142Y-84633571D01*
X179077857Y-84597857D01*
X179113571Y-84526428D01*
X179113571Y-84383571D01*
X179077857Y-84312142D01*
X179042142Y-84276428D01*
X178970714Y-84240714D01*
G04 #@! TO.C,C10*
X140467857Y-87937857D02*
X140432142Y-87973571D01*
X140325000Y-88009285D01*
X140253571Y-88009285D01*
X140146428Y-87973571D01*
X140075000Y-87902142D01*
X140039285Y-87830714D01*
X140003571Y-87687857D01*
X140003571Y-87580714D01*
X140039285Y-87437857D01*
X140075000Y-87366428D01*
X140146428Y-87295000D01*
X140253571Y-87259285D01*
X140325000Y-87259285D01*
X140432142Y-87295000D01*
X140467857Y-87330714D01*
X141182142Y-88009285D02*
X140753571Y-88009285D01*
X140967857Y-88009285D02*
X140967857Y-87259285D01*
X140896428Y-87366428D01*
X140825000Y-87437857D01*
X140753571Y-87473571D01*
X141646428Y-87259285D02*
X141717857Y-87259285D01*
X141789285Y-87295000D01*
X141825000Y-87330714D01*
X141860714Y-87402142D01*
X141896428Y-87545000D01*
X141896428Y-87723571D01*
X141860714Y-87866428D01*
X141825000Y-87937857D01*
X141789285Y-87973571D01*
X141717857Y-88009285D01*
X141646428Y-88009285D01*
X141575000Y-87973571D01*
X141539285Y-87937857D01*
X141503571Y-87866428D01*
X141467857Y-87723571D01*
X141467857Y-87545000D01*
X141503571Y-87402142D01*
X141539285Y-87330714D01*
X141575000Y-87295000D01*
X141646428Y-87259285D01*
G04 #@! TO.C,C11*
X158297857Y-71495357D02*
X158262142Y-71531071D01*
X158155000Y-71566785D01*
X158083571Y-71566785D01*
X157976428Y-71531071D01*
X157905000Y-71459642D01*
X157869285Y-71388214D01*
X157833571Y-71245357D01*
X157833571Y-71138214D01*
X157869285Y-70995357D01*
X157905000Y-70923928D01*
X157976428Y-70852500D01*
X158083571Y-70816785D01*
X158155000Y-70816785D01*
X158262142Y-70852500D01*
X158297857Y-70888214D01*
X159012142Y-71566785D02*
X158583571Y-71566785D01*
X158797857Y-71566785D02*
X158797857Y-70816785D01*
X158726428Y-70923928D01*
X158655000Y-70995357D01*
X158583571Y-71031071D01*
X159726428Y-71566785D02*
X159297857Y-71566785D01*
X159512142Y-71566785D02*
X159512142Y-70816785D01*
X159440714Y-70923928D01*
X159369285Y-70995357D01*
X159297857Y-71031071D01*
G04 #@! TO.C,C12*
X148957857Y-89669642D02*
X148993571Y-89705357D01*
X149029285Y-89812500D01*
X149029285Y-89883928D01*
X148993571Y-89991071D01*
X148922142Y-90062500D01*
X148850714Y-90098214D01*
X148707857Y-90133928D01*
X148600714Y-90133928D01*
X148457857Y-90098214D01*
X148386428Y-90062500D01*
X148315000Y-89991071D01*
X148279285Y-89883928D01*
X148279285Y-89812500D01*
X148315000Y-89705357D01*
X148350714Y-89669642D01*
X149029285Y-88955357D02*
X149029285Y-89383928D01*
X149029285Y-89169642D02*
X148279285Y-89169642D01*
X148386428Y-89241071D01*
X148457857Y-89312500D01*
X148493571Y-89383928D01*
X148350714Y-88669642D02*
X148315000Y-88633928D01*
X148279285Y-88562500D01*
X148279285Y-88383928D01*
X148315000Y-88312500D01*
X148350714Y-88276785D01*
X148422142Y-88241071D01*
X148493571Y-88241071D01*
X148600714Y-88276785D01*
X149029285Y-88705357D01*
X149029285Y-88241071D01*
G04 #@! TO.C,C13*
X157077857Y-77102142D02*
X157113571Y-77137857D01*
X157149285Y-77245000D01*
X157149285Y-77316428D01*
X157113571Y-77423571D01*
X157042142Y-77495000D01*
X156970714Y-77530714D01*
X156827857Y-77566428D01*
X156720714Y-77566428D01*
X156577857Y-77530714D01*
X156506428Y-77495000D01*
X156435000Y-77423571D01*
X156399285Y-77316428D01*
X156399285Y-77245000D01*
X156435000Y-77137857D01*
X156470714Y-77102142D01*
X157149285Y-76387857D02*
X157149285Y-76816428D01*
X157149285Y-76602142D02*
X156399285Y-76602142D01*
X156506428Y-76673571D01*
X156577857Y-76745000D01*
X156613571Y-76816428D01*
X156399285Y-76137857D02*
X156399285Y-75673571D01*
X156685000Y-75923571D01*
X156685000Y-75816428D01*
X156720714Y-75745000D01*
X156756428Y-75709285D01*
X156827857Y-75673571D01*
X157006428Y-75673571D01*
X157077857Y-75709285D01*
X157113571Y-75745000D01*
X157149285Y-75816428D01*
X157149285Y-76030714D01*
X157113571Y-76102142D01*
X157077857Y-76137857D01*
G04 #@! TO.C,C14*
X161557857Y-76037857D02*
X161522142Y-76073571D01*
X161415000Y-76109285D01*
X161343571Y-76109285D01*
X161236428Y-76073571D01*
X161165000Y-76002142D01*
X161129285Y-75930714D01*
X161093571Y-75787857D01*
X161093571Y-75680714D01*
X161129285Y-75537857D01*
X161165000Y-75466428D01*
X161236428Y-75395000D01*
X161343571Y-75359285D01*
X161415000Y-75359285D01*
X161522142Y-75395000D01*
X161557857Y-75430714D01*
X162272142Y-76109285D02*
X161843571Y-76109285D01*
X162057857Y-76109285D02*
X162057857Y-75359285D01*
X161986428Y-75466428D01*
X161915000Y-75537857D01*
X161843571Y-75573571D01*
X162915000Y-75609285D02*
X162915000Y-76109285D01*
X162736428Y-75323571D02*
X162557857Y-75859285D01*
X163022142Y-75859285D01*
G04 #@! TO.C,C15*
X160907857Y-95450357D02*
X160872142Y-95486071D01*
X160765000Y-95521785D01*
X160693571Y-95521785D01*
X160586428Y-95486071D01*
X160515000Y-95414642D01*
X160479285Y-95343214D01*
X160443571Y-95200357D01*
X160443571Y-95093214D01*
X160479285Y-94950357D01*
X160515000Y-94878928D01*
X160586428Y-94807500D01*
X160693571Y-94771785D01*
X160765000Y-94771785D01*
X160872142Y-94807500D01*
X160907857Y-94843214D01*
X161622142Y-95521785D02*
X161193571Y-95521785D01*
X161407857Y-95521785D02*
X161407857Y-94771785D01*
X161336428Y-94878928D01*
X161265000Y-94950357D01*
X161193571Y-94986071D01*
X162300714Y-94771785D02*
X161943571Y-94771785D01*
X161907857Y-95128928D01*
X161943571Y-95093214D01*
X162015000Y-95057500D01*
X162193571Y-95057500D01*
X162265000Y-95093214D01*
X162300714Y-95128928D01*
X162336428Y-95200357D01*
X162336428Y-95378928D01*
X162300714Y-95450357D01*
X162265000Y-95486071D01*
X162193571Y-95521785D01*
X162015000Y-95521785D01*
X161943571Y-95486071D01*
X161907857Y-95450357D01*
G04 #@! TO.C,C16*
X170237857Y-117347857D02*
X170202142Y-117383571D01*
X170095000Y-117419285D01*
X170023571Y-117419285D01*
X169916428Y-117383571D01*
X169845000Y-117312142D01*
X169809285Y-117240714D01*
X169773571Y-117097857D01*
X169773571Y-116990714D01*
X169809285Y-116847857D01*
X169845000Y-116776428D01*
X169916428Y-116705000D01*
X170023571Y-116669285D01*
X170095000Y-116669285D01*
X170202142Y-116705000D01*
X170237857Y-116740714D01*
X170952142Y-117419285D02*
X170523571Y-117419285D01*
X170737857Y-117419285D02*
X170737857Y-116669285D01*
X170666428Y-116776428D01*
X170595000Y-116847857D01*
X170523571Y-116883571D01*
X171595000Y-116669285D02*
X171452142Y-116669285D01*
X171380714Y-116705000D01*
X171345000Y-116740714D01*
X171273571Y-116847857D01*
X171237857Y-116990714D01*
X171237857Y-117276428D01*
X171273571Y-117347857D01*
X171309285Y-117383571D01*
X171380714Y-117419285D01*
X171523571Y-117419285D01*
X171595000Y-117383571D01*
X171630714Y-117347857D01*
X171666428Y-117276428D01*
X171666428Y-117097857D01*
X171630714Y-117026428D01*
X171595000Y-116990714D01*
X171523571Y-116955000D01*
X171380714Y-116955000D01*
X171309285Y-116990714D01*
X171273571Y-117026428D01*
X171237857Y-117097857D01*
G04 #@! TO.C,C17*
X186137857Y-114157857D02*
X186102142Y-114193571D01*
X185995000Y-114229285D01*
X185923571Y-114229285D01*
X185816428Y-114193571D01*
X185745000Y-114122142D01*
X185709285Y-114050714D01*
X185673571Y-113907857D01*
X185673571Y-113800714D01*
X185709285Y-113657857D01*
X185745000Y-113586428D01*
X185816428Y-113515000D01*
X185923571Y-113479285D01*
X185995000Y-113479285D01*
X186102142Y-113515000D01*
X186137857Y-113550714D01*
X186852142Y-114229285D02*
X186423571Y-114229285D01*
X186637857Y-114229285D02*
X186637857Y-113479285D01*
X186566428Y-113586428D01*
X186495000Y-113657857D01*
X186423571Y-113693571D01*
X187102142Y-113479285D02*
X187602142Y-113479285D01*
X187280714Y-114229285D01*
G04 #@! TO.C,C18*
X142867857Y-112452142D02*
X142903571Y-112487857D01*
X142939285Y-112595000D01*
X142939285Y-112666428D01*
X142903571Y-112773571D01*
X142832142Y-112845000D01*
X142760714Y-112880714D01*
X142617857Y-112916428D01*
X142510714Y-112916428D01*
X142367857Y-112880714D01*
X142296428Y-112845000D01*
X142225000Y-112773571D01*
X142189285Y-112666428D01*
X142189285Y-112595000D01*
X142225000Y-112487857D01*
X142260714Y-112452142D01*
X142939285Y-111737857D02*
X142939285Y-112166428D01*
X142939285Y-111952142D02*
X142189285Y-111952142D01*
X142296428Y-112023571D01*
X142367857Y-112095000D01*
X142403571Y-112166428D01*
X142510714Y-111309285D02*
X142475000Y-111380714D01*
X142439285Y-111416428D01*
X142367857Y-111452142D01*
X142332142Y-111452142D01*
X142260714Y-111416428D01*
X142225000Y-111380714D01*
X142189285Y-111309285D01*
X142189285Y-111166428D01*
X142225000Y-111095000D01*
X142260714Y-111059285D01*
X142332142Y-111023571D01*
X142367857Y-111023571D01*
X142439285Y-111059285D01*
X142475000Y-111095000D01*
X142510714Y-111166428D01*
X142510714Y-111309285D01*
X142546428Y-111380714D01*
X142582142Y-111416428D01*
X142653571Y-111452142D01*
X142796428Y-111452142D01*
X142867857Y-111416428D01*
X142903571Y-111380714D01*
X142939285Y-111309285D01*
X142939285Y-111166428D01*
X142903571Y-111095000D01*
X142867857Y-111059285D01*
X142796428Y-111023571D01*
X142653571Y-111023571D01*
X142582142Y-111059285D01*
X142546428Y-111095000D01*
X142510714Y-111166428D01*
G04 #@! TO.C,C19*
X160835857Y-103535857D02*
X160800142Y-103571571D01*
X160693000Y-103607285D01*
X160621571Y-103607285D01*
X160514428Y-103571571D01*
X160443000Y-103500142D01*
X160407285Y-103428714D01*
X160371571Y-103285857D01*
X160371571Y-103178714D01*
X160407285Y-103035857D01*
X160443000Y-102964428D01*
X160514428Y-102893000D01*
X160621571Y-102857285D01*
X160693000Y-102857285D01*
X160800142Y-102893000D01*
X160835857Y-102928714D01*
X161550142Y-103607285D02*
X161121571Y-103607285D01*
X161335857Y-103607285D02*
X161335857Y-102857285D01*
X161264428Y-102964428D01*
X161193000Y-103035857D01*
X161121571Y-103071571D01*
X161907285Y-103607285D02*
X162050142Y-103607285D01*
X162121571Y-103571571D01*
X162157285Y-103535857D01*
X162228714Y-103428714D01*
X162264428Y-103285857D01*
X162264428Y-103000142D01*
X162228714Y-102928714D01*
X162193000Y-102893000D01*
X162121571Y-102857285D01*
X161978714Y-102857285D01*
X161907285Y-102893000D01*
X161871571Y-102928714D01*
X161835857Y-103000142D01*
X161835857Y-103178714D01*
X161871571Y-103250142D01*
X161907285Y-103285857D01*
X161978714Y-103321571D01*
X162121571Y-103321571D01*
X162193000Y-103285857D01*
X162228714Y-103250142D01*
X162264428Y-103178714D01*
G04 #@! TO.C,C20*
X176217857Y-107167857D02*
X176182142Y-107203571D01*
X176075000Y-107239285D01*
X176003571Y-107239285D01*
X175896428Y-107203571D01*
X175825000Y-107132142D01*
X175789285Y-107060714D01*
X175753571Y-106917857D01*
X175753571Y-106810714D01*
X175789285Y-106667857D01*
X175825000Y-106596428D01*
X175896428Y-106525000D01*
X176003571Y-106489285D01*
X176075000Y-106489285D01*
X176182142Y-106525000D01*
X176217857Y-106560714D01*
X176503571Y-106560714D02*
X176539285Y-106525000D01*
X176610714Y-106489285D01*
X176789285Y-106489285D01*
X176860714Y-106525000D01*
X176896428Y-106560714D01*
X176932142Y-106632142D01*
X176932142Y-106703571D01*
X176896428Y-106810714D01*
X176467857Y-107239285D01*
X176932142Y-107239285D01*
X177396428Y-106489285D02*
X177467857Y-106489285D01*
X177539285Y-106525000D01*
X177575000Y-106560714D01*
X177610714Y-106632142D01*
X177646428Y-106775000D01*
X177646428Y-106953571D01*
X177610714Y-107096428D01*
X177575000Y-107167857D01*
X177539285Y-107203571D01*
X177467857Y-107239285D01*
X177396428Y-107239285D01*
X177325000Y-107203571D01*
X177289285Y-107167857D01*
X177253571Y-107096428D01*
X177217857Y-106953571D01*
X177217857Y-106775000D01*
X177253571Y-106632142D01*
X177289285Y-106560714D01*
X177325000Y-106525000D01*
X177396428Y-106489285D01*
G04 #@! TO.C,C21*
X167567857Y-111982142D02*
X167603571Y-112017857D01*
X167639285Y-112125000D01*
X167639285Y-112196428D01*
X167603571Y-112303571D01*
X167532142Y-112375000D01*
X167460714Y-112410714D01*
X167317857Y-112446428D01*
X167210714Y-112446428D01*
X167067857Y-112410714D01*
X166996428Y-112375000D01*
X166925000Y-112303571D01*
X166889285Y-112196428D01*
X166889285Y-112125000D01*
X166925000Y-112017857D01*
X166960714Y-111982142D01*
X166960714Y-111696428D02*
X166925000Y-111660714D01*
X166889285Y-111589285D01*
X166889285Y-111410714D01*
X166925000Y-111339285D01*
X166960714Y-111303571D01*
X167032142Y-111267857D01*
X167103571Y-111267857D01*
X167210714Y-111303571D01*
X167639285Y-111732142D01*
X167639285Y-111267857D01*
X167639285Y-110553571D02*
X167639285Y-110982142D01*
X167639285Y-110767857D02*
X166889285Y-110767857D01*
X166996428Y-110839285D01*
X167067857Y-110910714D01*
X167103571Y-110982142D01*
G04 #@! TO.C,C22*
X189067857Y-108062142D02*
X189103571Y-108097857D01*
X189139285Y-108205000D01*
X189139285Y-108276428D01*
X189103571Y-108383571D01*
X189032142Y-108455000D01*
X188960714Y-108490714D01*
X188817857Y-108526428D01*
X188710714Y-108526428D01*
X188567857Y-108490714D01*
X188496428Y-108455000D01*
X188425000Y-108383571D01*
X188389285Y-108276428D01*
X188389285Y-108205000D01*
X188425000Y-108097857D01*
X188460714Y-108062142D01*
X188460714Y-107776428D02*
X188425000Y-107740714D01*
X188389285Y-107669285D01*
X188389285Y-107490714D01*
X188425000Y-107419285D01*
X188460714Y-107383571D01*
X188532142Y-107347857D01*
X188603571Y-107347857D01*
X188710714Y-107383571D01*
X189139285Y-107812142D01*
X189139285Y-107347857D01*
X188460714Y-107062142D02*
X188425000Y-107026428D01*
X188389285Y-106955000D01*
X188389285Y-106776428D01*
X188425000Y-106705000D01*
X188460714Y-106669285D01*
X188532142Y-106633571D01*
X188603571Y-106633571D01*
X188710714Y-106669285D01*
X189139285Y-107097857D01*
X189139285Y-106633571D01*
G04 #@! TO.C,C24*
X181877857Y-101532857D02*
X181842142Y-101568571D01*
X181735000Y-101604285D01*
X181663571Y-101604285D01*
X181556428Y-101568571D01*
X181485000Y-101497142D01*
X181449285Y-101425714D01*
X181413571Y-101282857D01*
X181413571Y-101175714D01*
X181449285Y-101032857D01*
X181485000Y-100961428D01*
X181556428Y-100890000D01*
X181663571Y-100854285D01*
X181735000Y-100854285D01*
X181842142Y-100890000D01*
X181877857Y-100925714D01*
X182163571Y-100925714D02*
X182199285Y-100890000D01*
X182270714Y-100854285D01*
X182449285Y-100854285D01*
X182520714Y-100890000D01*
X182556428Y-100925714D01*
X182592142Y-100997142D01*
X182592142Y-101068571D01*
X182556428Y-101175714D01*
X182127857Y-101604285D01*
X182592142Y-101604285D01*
X183235000Y-101104285D02*
X183235000Y-101604285D01*
X183056428Y-100818571D02*
X182877857Y-101354285D01*
X183342142Y-101354285D01*
G04 #@! TO.C,C25*
X175987857Y-96597857D02*
X175952142Y-96633571D01*
X175845000Y-96669285D01*
X175773571Y-96669285D01*
X175666428Y-96633571D01*
X175595000Y-96562142D01*
X175559285Y-96490714D01*
X175523571Y-96347857D01*
X175523571Y-96240714D01*
X175559285Y-96097857D01*
X175595000Y-96026428D01*
X175666428Y-95955000D01*
X175773571Y-95919285D01*
X175845000Y-95919285D01*
X175952142Y-95955000D01*
X175987857Y-95990714D01*
X176273571Y-95990714D02*
X176309285Y-95955000D01*
X176380714Y-95919285D01*
X176559285Y-95919285D01*
X176630714Y-95955000D01*
X176666428Y-95990714D01*
X176702142Y-96062142D01*
X176702142Y-96133571D01*
X176666428Y-96240714D01*
X176237857Y-96669285D01*
X176702142Y-96669285D01*
X177380714Y-95919285D02*
X177023571Y-95919285D01*
X176987857Y-96276428D01*
X177023571Y-96240714D01*
X177095000Y-96205000D01*
X177273571Y-96205000D01*
X177345000Y-96240714D01*
X177380714Y-96276428D01*
X177416428Y-96347857D01*
X177416428Y-96526428D01*
X177380714Y-96597857D01*
X177345000Y-96633571D01*
X177273571Y-96669285D01*
X177095000Y-96669285D01*
X177023571Y-96633571D01*
X176987857Y-96597857D01*
G04 #@! TO.C,C27*
X180507857Y-98727857D02*
X180472142Y-98763571D01*
X180365000Y-98799285D01*
X180293571Y-98799285D01*
X180186428Y-98763571D01*
X180115000Y-98692142D01*
X180079285Y-98620714D01*
X180043571Y-98477857D01*
X180043571Y-98370714D01*
X180079285Y-98227857D01*
X180115000Y-98156428D01*
X180186428Y-98085000D01*
X180293571Y-98049285D01*
X180365000Y-98049285D01*
X180472142Y-98085000D01*
X180507857Y-98120714D01*
X180793571Y-98120714D02*
X180829285Y-98085000D01*
X180900714Y-98049285D01*
X181079285Y-98049285D01*
X181150714Y-98085000D01*
X181186428Y-98120714D01*
X181222142Y-98192142D01*
X181222142Y-98263571D01*
X181186428Y-98370714D01*
X180757857Y-98799285D01*
X181222142Y-98799285D01*
X181472142Y-98049285D02*
X181972142Y-98049285D01*
X181650714Y-98799285D01*
G04 #@! TO.C,C28*
X143417857Y-118262142D02*
X143453571Y-118297857D01*
X143489285Y-118405000D01*
X143489285Y-118476428D01*
X143453571Y-118583571D01*
X143382142Y-118655000D01*
X143310714Y-118690714D01*
X143167857Y-118726428D01*
X143060714Y-118726428D01*
X142917857Y-118690714D01*
X142846428Y-118655000D01*
X142775000Y-118583571D01*
X142739285Y-118476428D01*
X142739285Y-118405000D01*
X142775000Y-118297857D01*
X142810714Y-118262142D01*
X142810714Y-117976428D02*
X142775000Y-117940714D01*
X142739285Y-117869285D01*
X142739285Y-117690714D01*
X142775000Y-117619285D01*
X142810714Y-117583571D01*
X142882142Y-117547857D01*
X142953571Y-117547857D01*
X143060714Y-117583571D01*
X143489285Y-118012142D01*
X143489285Y-117547857D01*
X143060714Y-117119285D02*
X143025000Y-117190714D01*
X142989285Y-117226428D01*
X142917857Y-117262142D01*
X142882142Y-117262142D01*
X142810714Y-117226428D01*
X142775000Y-117190714D01*
X142739285Y-117119285D01*
X142739285Y-116976428D01*
X142775000Y-116905000D01*
X142810714Y-116869285D01*
X142882142Y-116833571D01*
X142917857Y-116833571D01*
X142989285Y-116869285D01*
X143025000Y-116905000D01*
X143060714Y-116976428D01*
X143060714Y-117119285D01*
X143096428Y-117190714D01*
X143132142Y-117226428D01*
X143203571Y-117262142D01*
X143346428Y-117262142D01*
X143417857Y-117226428D01*
X143453571Y-117190714D01*
X143489285Y-117119285D01*
X143489285Y-116976428D01*
X143453571Y-116905000D01*
X143417857Y-116869285D01*
X143346428Y-116833571D01*
X143203571Y-116833571D01*
X143132142Y-116869285D01*
X143096428Y-116905000D01*
X143060714Y-116976428D01*
G04 #@! TO.C,C29*
X160907857Y-100387857D02*
X160872142Y-100423571D01*
X160765000Y-100459285D01*
X160693571Y-100459285D01*
X160586428Y-100423571D01*
X160515000Y-100352142D01*
X160479285Y-100280714D01*
X160443571Y-100137857D01*
X160443571Y-100030714D01*
X160479285Y-99887857D01*
X160515000Y-99816428D01*
X160586428Y-99745000D01*
X160693571Y-99709285D01*
X160765000Y-99709285D01*
X160872142Y-99745000D01*
X160907857Y-99780714D01*
X161193571Y-99780714D02*
X161229285Y-99745000D01*
X161300714Y-99709285D01*
X161479285Y-99709285D01*
X161550714Y-99745000D01*
X161586428Y-99780714D01*
X161622142Y-99852142D01*
X161622142Y-99923571D01*
X161586428Y-100030714D01*
X161157857Y-100459285D01*
X161622142Y-100459285D01*
X161979285Y-100459285D02*
X162122142Y-100459285D01*
X162193571Y-100423571D01*
X162229285Y-100387857D01*
X162300714Y-100280714D01*
X162336428Y-100137857D01*
X162336428Y-99852142D01*
X162300714Y-99780714D01*
X162265000Y-99745000D01*
X162193571Y-99709285D01*
X162050714Y-99709285D01*
X161979285Y-99745000D01*
X161943571Y-99780714D01*
X161907857Y-99852142D01*
X161907857Y-100030714D01*
X161943571Y-100102142D01*
X161979285Y-100137857D01*
X162050714Y-100173571D01*
X162193571Y-100173571D01*
X162265000Y-100137857D01*
X162300714Y-100102142D01*
X162336428Y-100030714D01*
G04 #@! TO.C,C30*
X148217857Y-95447857D02*
X148182142Y-95483571D01*
X148075000Y-95519285D01*
X148003571Y-95519285D01*
X147896428Y-95483571D01*
X147825000Y-95412142D01*
X147789285Y-95340714D01*
X147753571Y-95197857D01*
X147753571Y-95090714D01*
X147789285Y-94947857D01*
X147825000Y-94876428D01*
X147896428Y-94805000D01*
X148003571Y-94769285D01*
X148075000Y-94769285D01*
X148182142Y-94805000D01*
X148217857Y-94840714D01*
X148467857Y-94769285D02*
X148932142Y-94769285D01*
X148682142Y-95055000D01*
X148789285Y-95055000D01*
X148860714Y-95090714D01*
X148896428Y-95126428D01*
X148932142Y-95197857D01*
X148932142Y-95376428D01*
X148896428Y-95447857D01*
X148860714Y-95483571D01*
X148789285Y-95519285D01*
X148575000Y-95519285D01*
X148503571Y-95483571D01*
X148467857Y-95447857D01*
X149396428Y-94769285D02*
X149467857Y-94769285D01*
X149539285Y-94805000D01*
X149575000Y-94840714D01*
X149610714Y-94912142D01*
X149646428Y-95055000D01*
X149646428Y-95233571D01*
X149610714Y-95376428D01*
X149575000Y-95447857D01*
X149539285Y-95483571D01*
X149467857Y-95519285D01*
X149396428Y-95519285D01*
X149325000Y-95483571D01*
X149289285Y-95447857D01*
X149253571Y-95376428D01*
X149217857Y-95233571D01*
X149217857Y-95055000D01*
X149253571Y-94912142D01*
X149289285Y-94840714D01*
X149325000Y-94805000D01*
X149396428Y-94769285D01*
G04 #@! TO.C,C31*
D14*
X177787857Y-100742142D02*
X177823571Y-100777857D01*
X177859285Y-100885000D01*
X177859285Y-100956428D01*
X177823571Y-101063571D01*
X177752142Y-101135000D01*
X177680714Y-101170714D01*
X177537857Y-101206428D01*
X177430714Y-101206428D01*
X177287857Y-101170714D01*
X177216428Y-101135000D01*
X177145000Y-101063571D01*
X177109285Y-100956428D01*
X177109285Y-100885000D01*
X177145000Y-100777857D01*
X177180714Y-100742142D01*
X177109285Y-100492142D02*
X177109285Y-100027857D01*
X177395000Y-100277857D01*
X177395000Y-100170714D01*
X177430714Y-100099285D01*
X177466428Y-100063571D01*
X177537857Y-100027857D01*
X177716428Y-100027857D01*
X177787857Y-100063571D01*
X177823571Y-100099285D01*
X177859285Y-100170714D01*
X177859285Y-100385000D01*
X177823571Y-100456428D01*
X177787857Y-100492142D01*
X177859285Y-99313571D02*
X177859285Y-99742142D01*
X177859285Y-99527857D02*
X177109285Y-99527857D01*
X177216428Y-99599285D01*
X177287857Y-99670714D01*
X177323571Y-99742142D01*
G04 #@! TO.C,C33*
D12*
X189027857Y-110442142D02*
X189063571Y-110477857D01*
X189099285Y-110585000D01*
X189099285Y-110656428D01*
X189063571Y-110763571D01*
X188992142Y-110835000D01*
X188920714Y-110870714D01*
X188777857Y-110906428D01*
X188670714Y-110906428D01*
X188527857Y-110870714D01*
X188456428Y-110835000D01*
X188385000Y-110763571D01*
X188349285Y-110656428D01*
X188349285Y-110585000D01*
X188385000Y-110477857D01*
X188420714Y-110442142D01*
X188349285Y-110192142D02*
X188349285Y-109727857D01*
X188635000Y-109977857D01*
X188635000Y-109870714D01*
X188670714Y-109799285D01*
X188706428Y-109763571D01*
X188777857Y-109727857D01*
X188956428Y-109727857D01*
X189027857Y-109763571D01*
X189063571Y-109799285D01*
X189099285Y-109870714D01*
X189099285Y-110085000D01*
X189063571Y-110156428D01*
X189027857Y-110192142D01*
X188349285Y-109477857D02*
X188349285Y-109013571D01*
X188635000Y-109263571D01*
X188635000Y-109156428D01*
X188670714Y-109085000D01*
X188706428Y-109049285D01*
X188777857Y-109013571D01*
X188956428Y-109013571D01*
X189027857Y-109049285D01*
X189063571Y-109085000D01*
X189099285Y-109156428D01*
X189099285Y-109370714D01*
X189063571Y-109442142D01*
X189027857Y-109477857D01*
G04 #@! TO.C,D1*
X187006428Y-96889285D02*
X187006428Y-96139285D01*
X187185000Y-96139285D01*
X187292142Y-96175000D01*
X187363571Y-96246428D01*
X187399285Y-96317857D01*
X187435000Y-96460714D01*
X187435000Y-96567857D01*
X187399285Y-96710714D01*
X187363571Y-96782142D01*
X187292142Y-96853571D01*
X187185000Y-96889285D01*
X187006428Y-96889285D01*
X188149285Y-96889285D02*
X187720714Y-96889285D01*
X187935000Y-96889285D02*
X187935000Y-96139285D01*
X187863571Y-96246428D01*
X187792142Y-96317857D01*
X187720714Y-96353571D01*
G04 #@! TO.C,D2*
X155206428Y-90149285D02*
X155206428Y-89399285D01*
X155385000Y-89399285D01*
X155492142Y-89435000D01*
X155563571Y-89506428D01*
X155599285Y-89577857D01*
X155635000Y-89720714D01*
X155635000Y-89827857D01*
X155599285Y-89970714D01*
X155563571Y-90042142D01*
X155492142Y-90113571D01*
X155385000Y-90149285D01*
X155206428Y-90149285D01*
X155920714Y-89470714D02*
X155956428Y-89435000D01*
X156027857Y-89399285D01*
X156206428Y-89399285D01*
X156277857Y-89435000D01*
X156313571Y-89470714D01*
X156349285Y-89542142D01*
X156349285Y-89613571D01*
X156313571Y-89720714D01*
X155885000Y-90149285D01*
X156349285Y-90149285D01*
G04 #@! TO.C,D3*
X164036428Y-110549285D02*
X164036428Y-109799285D01*
X164215000Y-109799285D01*
X164322142Y-109835000D01*
X164393571Y-109906428D01*
X164429285Y-109977857D01*
X164465000Y-110120714D01*
X164465000Y-110227857D01*
X164429285Y-110370714D01*
X164393571Y-110442142D01*
X164322142Y-110513571D01*
X164215000Y-110549285D01*
X164036428Y-110549285D01*
X164715000Y-109799285D02*
X165179285Y-109799285D01*
X164929285Y-110085000D01*
X165036428Y-110085000D01*
X165107857Y-110120714D01*
X165143571Y-110156428D01*
X165179285Y-110227857D01*
X165179285Y-110406428D01*
X165143571Y-110477857D01*
X165107857Y-110513571D01*
X165036428Y-110549285D01*
X164822142Y-110549285D01*
X164750714Y-110513571D01*
X164715000Y-110477857D01*
G04 #@! TO.C,L1*
X179825000Y-101634285D02*
X179467857Y-101634285D01*
X179467857Y-100884285D01*
X180467857Y-101634285D02*
X180039285Y-101634285D01*
X180253571Y-101634285D02*
X180253571Y-100884285D01*
X180182142Y-100991428D01*
X180110714Y-101062857D01*
X180039285Y-101098571D01*
G04 #@! TO.C,L2*
X178849285Y-107835000D02*
X178849285Y-108192142D01*
X178099285Y-108192142D01*
X178170714Y-107620714D02*
X178135000Y-107585000D01*
X178099285Y-107513571D01*
X178099285Y-107335000D01*
X178135000Y-107263571D01*
X178170714Y-107227857D01*
X178242142Y-107192142D01*
X178313571Y-107192142D01*
X178420714Y-107227857D01*
X178849285Y-107656428D01*
X178849285Y-107192142D01*
G04 #@! TO.C,L3*
X178869285Y-110095000D02*
X178869285Y-110452142D01*
X178119285Y-110452142D01*
X178119285Y-109916428D02*
X178119285Y-109452142D01*
X178405000Y-109702142D01*
X178405000Y-109595000D01*
X178440714Y-109523571D01*
X178476428Y-109487857D01*
X178547857Y-109452142D01*
X178726428Y-109452142D01*
X178797857Y-109487857D01*
X178833571Y-109523571D01*
X178869285Y-109595000D01*
X178869285Y-109809285D01*
X178833571Y-109880714D01*
X178797857Y-109916428D01*
G04 #@! TO.C,P1*
X172416428Y-84279285D02*
X172416428Y-83529285D01*
X172702142Y-83529285D01*
X172773571Y-83565000D01*
X172809285Y-83600714D01*
X172845000Y-83672142D01*
X172845000Y-83779285D01*
X172809285Y-83850714D01*
X172773571Y-83886428D01*
X172702142Y-83922142D01*
X172416428Y-83922142D01*
X173559285Y-84279285D02*
X173130714Y-84279285D01*
X173345000Y-84279285D02*
X173345000Y-83529285D01*
X173273571Y-83636428D01*
X173202142Y-83707857D01*
X173130714Y-83743571D01*
G04 #@! TO.C,P2*
X148476428Y-84129285D02*
X148476428Y-83379285D01*
X148762142Y-83379285D01*
X148833571Y-83415000D01*
X148869285Y-83450714D01*
X148905000Y-83522142D01*
X148905000Y-83629285D01*
X148869285Y-83700714D01*
X148833571Y-83736428D01*
X148762142Y-83772142D01*
X148476428Y-83772142D01*
X149190714Y-83450714D02*
X149226428Y-83415000D01*
X149297857Y-83379285D01*
X149476428Y-83379285D01*
X149547857Y-83415000D01*
X149583571Y-83450714D01*
X149619285Y-83522142D01*
X149619285Y-83593571D01*
X149583571Y-83700714D01*
X149155000Y-84129285D01*
X149619285Y-84129285D01*
G04 #@! TO.C,R1*
X183325000Y-75781785D02*
X183075000Y-75424642D01*
X182896428Y-75781785D02*
X182896428Y-75031785D01*
X183182142Y-75031785D01*
X183253571Y-75067500D01*
X183289285Y-75103214D01*
X183325000Y-75174642D01*
X183325000Y-75281785D01*
X183289285Y-75353214D01*
X183253571Y-75388928D01*
X183182142Y-75424642D01*
X182896428Y-75424642D01*
X184039285Y-75781785D02*
X183610714Y-75781785D01*
X183825000Y-75781785D02*
X183825000Y-75031785D01*
X183753571Y-75138928D01*
X183682142Y-75210357D01*
X183610714Y-75246071D01*
G04 #@! TO.C,R2*
X186759285Y-92780000D02*
X186402142Y-93030000D01*
X186759285Y-93208571D02*
X186009285Y-93208571D01*
X186009285Y-92922857D01*
X186045000Y-92851428D01*
X186080714Y-92815714D01*
X186152142Y-92780000D01*
X186259285Y-92780000D01*
X186330714Y-92815714D01*
X186366428Y-92851428D01*
X186402142Y-92922857D01*
X186402142Y-93208571D01*
X186080714Y-92494285D02*
X186045000Y-92458571D01*
X186009285Y-92387142D01*
X186009285Y-92208571D01*
X186045000Y-92137142D01*
X186080714Y-92101428D01*
X186152142Y-92065714D01*
X186223571Y-92065714D01*
X186330714Y-92101428D01*
X186759285Y-92530000D01*
X186759285Y-92065714D01*
G04 #@! TO.C,R3*
X185635000Y-91459285D02*
X185385000Y-91102142D01*
X185206428Y-91459285D02*
X185206428Y-90709285D01*
X185492142Y-90709285D01*
X185563571Y-90745000D01*
X185599285Y-90780714D01*
X185635000Y-90852142D01*
X185635000Y-90959285D01*
X185599285Y-91030714D01*
X185563571Y-91066428D01*
X185492142Y-91102142D01*
X185206428Y-91102142D01*
X185885000Y-90709285D02*
X186349285Y-90709285D01*
X186099285Y-90995000D01*
X186206428Y-90995000D01*
X186277857Y-91030714D01*
X186313571Y-91066428D01*
X186349285Y-91137857D01*
X186349285Y-91316428D01*
X186313571Y-91387857D01*
X186277857Y-91423571D01*
X186206428Y-91459285D01*
X185992142Y-91459285D01*
X185920714Y-91423571D01*
X185885000Y-91387857D01*
G04 #@! TO.C,R4*
X187675000Y-87144285D02*
X187425000Y-86787142D01*
X187246428Y-87144285D02*
X187246428Y-86394285D01*
X187532142Y-86394285D01*
X187603571Y-86430000D01*
X187639285Y-86465714D01*
X187675000Y-86537142D01*
X187675000Y-86644285D01*
X187639285Y-86715714D01*
X187603571Y-86751428D01*
X187532142Y-86787142D01*
X187246428Y-86787142D01*
X188317857Y-86644285D02*
X188317857Y-87144285D01*
X188139285Y-86358571D02*
X187960714Y-86894285D01*
X188425000Y-86894285D01*
G04 #@! TO.C,R5*
X187419285Y-84955000D02*
X187062142Y-85205000D01*
X187419285Y-85383571D02*
X186669285Y-85383571D01*
X186669285Y-85097857D01*
X186705000Y-85026428D01*
X186740714Y-84990714D01*
X186812142Y-84955000D01*
X186919285Y-84955000D01*
X186990714Y-84990714D01*
X187026428Y-85026428D01*
X187062142Y-85097857D01*
X187062142Y-85383571D01*
X186669285Y-84276428D02*
X186669285Y-84633571D01*
X187026428Y-84669285D01*
X186990714Y-84633571D01*
X186955000Y-84562142D01*
X186955000Y-84383571D01*
X186990714Y-84312142D01*
X187026428Y-84276428D01*
X187097857Y-84240714D01*
X187276428Y-84240714D01*
X187347857Y-84276428D01*
X187383571Y-84312142D01*
X187419285Y-84383571D01*
X187419285Y-84562142D01*
X187383571Y-84633571D01*
X187347857Y-84669285D01*
G04 #@! TO.C,R6*
X170465000Y-100599285D02*
X170215000Y-100242142D01*
X170036428Y-100599285D02*
X170036428Y-99849285D01*
X170322142Y-99849285D01*
X170393571Y-99885000D01*
X170429285Y-99920714D01*
X170465000Y-99992142D01*
X170465000Y-100099285D01*
X170429285Y-100170714D01*
X170393571Y-100206428D01*
X170322142Y-100242142D01*
X170036428Y-100242142D01*
X171107857Y-99849285D02*
X170965000Y-99849285D01*
X170893571Y-99885000D01*
X170857857Y-99920714D01*
X170786428Y-100027857D01*
X170750714Y-100170714D01*
X170750714Y-100456428D01*
X170786428Y-100527857D01*
X170822142Y-100563571D01*
X170893571Y-100599285D01*
X171036428Y-100599285D01*
X171107857Y-100563571D01*
X171143571Y-100527857D01*
X171179285Y-100456428D01*
X171179285Y-100277857D01*
X171143571Y-100206428D01*
X171107857Y-100170714D01*
X171036428Y-100135000D01*
X170893571Y-100135000D01*
X170822142Y-100170714D01*
X170786428Y-100206428D01*
X170750714Y-100277857D01*
G04 #@! TO.C,R7*
X173595000Y-100459285D02*
X173345000Y-100102142D01*
X173166428Y-100459285D02*
X173166428Y-99709285D01*
X173452142Y-99709285D01*
X173523571Y-99745000D01*
X173559285Y-99780714D01*
X173595000Y-99852142D01*
X173595000Y-99959285D01*
X173559285Y-100030714D01*
X173523571Y-100066428D01*
X173452142Y-100102142D01*
X173166428Y-100102142D01*
X173845000Y-99709285D02*
X174345000Y-99709285D01*
X174023571Y-100459285D01*
G04 #@! TO.C,R8*
X160815000Y-71531785D02*
X160565000Y-71174642D01*
X160386428Y-71531785D02*
X160386428Y-70781785D01*
X160672142Y-70781785D01*
X160743571Y-70817500D01*
X160779285Y-70853214D01*
X160815000Y-70924642D01*
X160815000Y-71031785D01*
X160779285Y-71103214D01*
X160743571Y-71138928D01*
X160672142Y-71174642D01*
X160386428Y-71174642D01*
X161243571Y-71103214D02*
X161172142Y-71067500D01*
X161136428Y-71031785D01*
X161100714Y-70960357D01*
X161100714Y-70924642D01*
X161136428Y-70853214D01*
X161172142Y-70817500D01*
X161243571Y-70781785D01*
X161386428Y-70781785D01*
X161457857Y-70817500D01*
X161493571Y-70853214D01*
X161529285Y-70924642D01*
X161529285Y-70960357D01*
X161493571Y-71031785D01*
X161457857Y-71067500D01*
X161386428Y-71103214D01*
X161243571Y-71103214D01*
X161172142Y-71138928D01*
X161136428Y-71174642D01*
X161100714Y-71246071D01*
X161100714Y-71388928D01*
X161136428Y-71460357D01*
X161172142Y-71496071D01*
X161243571Y-71531785D01*
X161386428Y-71531785D01*
X161457857Y-71496071D01*
X161493571Y-71460357D01*
X161529285Y-71388928D01*
X161529285Y-71246071D01*
X161493571Y-71174642D01*
X161457857Y-71138928D01*
X161386428Y-71103214D01*
G04 #@! TO.C,R9*
X157039285Y-80085000D02*
X156682142Y-80335000D01*
X157039285Y-80513571D02*
X156289285Y-80513571D01*
X156289285Y-80227857D01*
X156325000Y-80156428D01*
X156360714Y-80120714D01*
X156432142Y-80085000D01*
X156539285Y-80085000D01*
X156610714Y-80120714D01*
X156646428Y-80156428D01*
X156682142Y-80227857D01*
X156682142Y-80513571D01*
X157039285Y-79727857D02*
X157039285Y-79585000D01*
X157003571Y-79513571D01*
X156967857Y-79477857D01*
X156860714Y-79406428D01*
X156717857Y-79370714D01*
X156432142Y-79370714D01*
X156360714Y-79406428D01*
X156325000Y-79442142D01*
X156289285Y-79513571D01*
X156289285Y-79656428D01*
X156325000Y-79727857D01*
X156360714Y-79763571D01*
X156432142Y-79799285D01*
X156610714Y-79799285D01*
X156682142Y-79763571D01*
X156717857Y-79727857D01*
X156753571Y-79656428D01*
X156753571Y-79513571D01*
X156717857Y-79442142D01*
X156682142Y-79406428D01*
X156610714Y-79370714D01*
G04 #@! TO.C,R10*
X147197857Y-87729285D02*
X146947857Y-87372142D01*
X146769285Y-87729285D02*
X146769285Y-86979285D01*
X147055000Y-86979285D01*
X147126428Y-87015000D01*
X147162142Y-87050714D01*
X147197857Y-87122142D01*
X147197857Y-87229285D01*
X147162142Y-87300714D01*
X147126428Y-87336428D01*
X147055000Y-87372142D01*
X146769285Y-87372142D01*
X147912142Y-87729285D02*
X147483571Y-87729285D01*
X147697857Y-87729285D02*
X147697857Y-86979285D01*
X147626428Y-87086428D01*
X147555000Y-87157857D01*
X147483571Y-87193571D01*
X148376428Y-86979285D02*
X148447857Y-86979285D01*
X148519285Y-87015000D01*
X148555000Y-87050714D01*
X148590714Y-87122142D01*
X148626428Y-87265000D01*
X148626428Y-87443571D01*
X148590714Y-87586428D01*
X148555000Y-87657857D01*
X148519285Y-87693571D01*
X148447857Y-87729285D01*
X148376428Y-87729285D01*
X148305000Y-87693571D01*
X148269285Y-87657857D01*
X148233571Y-87586428D01*
X148197857Y-87443571D01*
X148197857Y-87265000D01*
X148233571Y-87122142D01*
X148269285Y-87050714D01*
X148305000Y-87015000D01*
X148376428Y-86979285D01*
G04 #@! TO.C,R11*
X151837857Y-84839285D02*
X151587857Y-84482142D01*
X151409285Y-84839285D02*
X151409285Y-84089285D01*
X151695000Y-84089285D01*
X151766428Y-84125000D01*
X151802142Y-84160714D01*
X151837857Y-84232142D01*
X151837857Y-84339285D01*
X151802142Y-84410714D01*
X151766428Y-84446428D01*
X151695000Y-84482142D01*
X151409285Y-84482142D01*
X152552142Y-84839285D02*
X152123571Y-84839285D01*
X152337857Y-84839285D02*
X152337857Y-84089285D01*
X152266428Y-84196428D01*
X152195000Y-84267857D01*
X152123571Y-84303571D01*
X153266428Y-84839285D02*
X152837857Y-84839285D01*
X153052142Y-84839285D02*
X153052142Y-84089285D01*
X152980714Y-84196428D01*
X152909285Y-84267857D01*
X152837857Y-84303571D01*
G04 #@! TO.C,R12*
X158507857Y-80439285D02*
X158257857Y-80082142D01*
X158079285Y-80439285D02*
X158079285Y-79689285D01*
X158365000Y-79689285D01*
X158436428Y-79725000D01*
X158472142Y-79760714D01*
X158507857Y-79832142D01*
X158507857Y-79939285D01*
X158472142Y-80010714D01*
X158436428Y-80046428D01*
X158365000Y-80082142D01*
X158079285Y-80082142D01*
X159222142Y-80439285D02*
X158793571Y-80439285D01*
X159007857Y-80439285D02*
X159007857Y-79689285D01*
X158936428Y-79796428D01*
X158865000Y-79867857D01*
X158793571Y-79903571D01*
X159507857Y-79760714D02*
X159543571Y-79725000D01*
X159615000Y-79689285D01*
X159793571Y-79689285D01*
X159865000Y-79725000D01*
X159900714Y-79760714D01*
X159936428Y-79832142D01*
X159936428Y-79903571D01*
X159900714Y-80010714D01*
X159472142Y-80439285D01*
X159936428Y-80439285D01*
G04 #@! TO.C,R13*
X164539285Y-100862142D02*
X164182142Y-101112142D01*
X164539285Y-101290714D02*
X163789285Y-101290714D01*
X163789285Y-101005000D01*
X163825000Y-100933571D01*
X163860714Y-100897857D01*
X163932142Y-100862142D01*
X164039285Y-100862142D01*
X164110714Y-100897857D01*
X164146428Y-100933571D01*
X164182142Y-101005000D01*
X164182142Y-101290714D01*
X164539285Y-100147857D02*
X164539285Y-100576428D01*
X164539285Y-100362142D02*
X163789285Y-100362142D01*
X163896428Y-100433571D01*
X163967857Y-100505000D01*
X164003571Y-100576428D01*
X163789285Y-99897857D02*
X163789285Y-99433571D01*
X164075000Y-99683571D01*
X164075000Y-99576428D01*
X164110714Y-99505000D01*
X164146428Y-99469285D01*
X164217857Y-99433571D01*
X164396428Y-99433571D01*
X164467857Y-99469285D01*
X164503571Y-99505000D01*
X164539285Y-99576428D01*
X164539285Y-99790714D01*
X164503571Y-99862142D01*
X164467857Y-99897857D01*
G04 #@! TO.C,R14*
X167917857Y-104199285D02*
X167667857Y-103842142D01*
X167489285Y-104199285D02*
X167489285Y-103449285D01*
X167775000Y-103449285D01*
X167846428Y-103485000D01*
X167882142Y-103520714D01*
X167917857Y-103592142D01*
X167917857Y-103699285D01*
X167882142Y-103770714D01*
X167846428Y-103806428D01*
X167775000Y-103842142D01*
X167489285Y-103842142D01*
X168632142Y-104199285D02*
X168203571Y-104199285D01*
X168417857Y-104199285D02*
X168417857Y-103449285D01*
X168346428Y-103556428D01*
X168275000Y-103627857D01*
X168203571Y-103663571D01*
X169275000Y-103699285D02*
X169275000Y-104199285D01*
X169096428Y-103413571D02*
X168917857Y-103949285D01*
X169382142Y-103949285D01*
G04 #@! TO.C,R15*
X163067857Y-103649285D02*
X162817857Y-103292142D01*
X162639285Y-103649285D02*
X162639285Y-102899285D01*
X162925000Y-102899285D01*
X162996428Y-102935000D01*
X163032142Y-102970714D01*
X163067857Y-103042142D01*
X163067857Y-103149285D01*
X163032142Y-103220714D01*
X162996428Y-103256428D01*
X162925000Y-103292142D01*
X162639285Y-103292142D01*
X163782142Y-103649285D02*
X163353571Y-103649285D01*
X163567857Y-103649285D02*
X163567857Y-102899285D01*
X163496428Y-103006428D01*
X163425000Y-103077857D01*
X163353571Y-103113571D01*
X164460714Y-102899285D02*
X164103571Y-102899285D01*
X164067857Y-103256428D01*
X164103571Y-103220714D01*
X164175000Y-103185000D01*
X164353571Y-103185000D01*
X164425000Y-103220714D01*
X164460714Y-103256428D01*
X164496428Y-103327857D01*
X164496428Y-103506428D01*
X164460714Y-103577857D01*
X164425000Y-103613571D01*
X164353571Y-103649285D01*
X164175000Y-103649285D01*
X164103571Y-103613571D01*
X164067857Y-103577857D01*
G04 #@! TO.C,R16*
X173647857Y-113399285D02*
X173397857Y-113042142D01*
X173219285Y-113399285D02*
X173219285Y-112649285D01*
X173505000Y-112649285D01*
X173576428Y-112685000D01*
X173612142Y-112720714D01*
X173647857Y-112792142D01*
X173647857Y-112899285D01*
X173612142Y-112970714D01*
X173576428Y-113006428D01*
X173505000Y-113042142D01*
X173219285Y-113042142D01*
X174362142Y-113399285D02*
X173933571Y-113399285D01*
X174147857Y-113399285D02*
X174147857Y-112649285D01*
X174076428Y-112756428D01*
X174005000Y-112827857D01*
X173933571Y-112863571D01*
X175005000Y-112649285D02*
X174862142Y-112649285D01*
X174790714Y-112685000D01*
X174755000Y-112720714D01*
X174683571Y-112827857D01*
X174647857Y-112970714D01*
X174647857Y-113256428D01*
X174683571Y-113327857D01*
X174719285Y-113363571D01*
X174790714Y-113399285D01*
X174933571Y-113399285D01*
X175005000Y-113363571D01*
X175040714Y-113327857D01*
X175076428Y-113256428D01*
X175076428Y-113077857D01*
X175040714Y-113006428D01*
X175005000Y-112970714D01*
X174933571Y-112935000D01*
X174790714Y-112935000D01*
X174719285Y-112970714D01*
X174683571Y-113006428D01*
X174647857Y-113077857D01*
G04 #@! TO.C,R17*
X175847857Y-112254285D02*
X175597857Y-111897142D01*
X175419285Y-112254285D02*
X175419285Y-111504285D01*
X175705000Y-111504285D01*
X175776428Y-111540000D01*
X175812142Y-111575714D01*
X175847857Y-111647142D01*
X175847857Y-111754285D01*
X175812142Y-111825714D01*
X175776428Y-111861428D01*
X175705000Y-111897142D01*
X175419285Y-111897142D01*
X176562142Y-112254285D02*
X176133571Y-112254285D01*
X176347857Y-112254285D02*
X176347857Y-111504285D01*
X176276428Y-111611428D01*
X176205000Y-111682857D01*
X176133571Y-111718571D01*
X176812142Y-111504285D02*
X177312142Y-111504285D01*
X176990714Y-112254285D01*
G04 #@! TO.C,SW1*
X172763571Y-76490000D02*
X172799285Y-76382857D01*
X172799285Y-76204285D01*
X172763571Y-76132857D01*
X172727857Y-76097142D01*
X172656428Y-76061428D01*
X172585000Y-76061428D01*
X172513571Y-76097142D01*
X172477857Y-76132857D01*
X172442142Y-76204285D01*
X172406428Y-76347142D01*
X172370714Y-76418571D01*
X172335000Y-76454285D01*
X172263571Y-76490000D01*
X172192142Y-76490000D01*
X172120714Y-76454285D01*
X172085000Y-76418571D01*
X172049285Y-76347142D01*
X172049285Y-76168571D01*
X172085000Y-76061428D01*
X172049285Y-75811428D02*
X172799285Y-75632857D01*
X172263571Y-75490000D01*
X172799285Y-75347142D01*
X172049285Y-75168571D01*
X172799285Y-74490000D02*
X172799285Y-74918571D01*
X172799285Y-74704285D02*
X172049285Y-74704285D01*
X172156428Y-74775714D01*
X172227857Y-74847142D01*
X172263571Y-74918571D01*
G04 #@! TO.C,SW2*
X148873571Y-76450000D02*
X148909285Y-76342857D01*
X148909285Y-76164285D01*
X148873571Y-76092857D01*
X148837857Y-76057142D01*
X148766428Y-76021428D01*
X148695000Y-76021428D01*
X148623571Y-76057142D01*
X148587857Y-76092857D01*
X148552142Y-76164285D01*
X148516428Y-76307142D01*
X148480714Y-76378571D01*
X148445000Y-76414285D01*
X148373571Y-76450000D01*
X148302142Y-76450000D01*
X148230714Y-76414285D01*
X148195000Y-76378571D01*
X148159285Y-76307142D01*
X148159285Y-76128571D01*
X148195000Y-76021428D01*
X148159285Y-75771428D02*
X148909285Y-75592857D01*
X148373571Y-75450000D01*
X148909285Y-75307142D01*
X148159285Y-75128571D01*
X148230714Y-74878571D02*
X148195000Y-74842857D01*
X148159285Y-74771428D01*
X148159285Y-74592857D01*
X148195000Y-74521428D01*
X148230714Y-74485714D01*
X148302142Y-74450000D01*
X148373571Y-74450000D01*
X148480714Y-74485714D01*
X148909285Y-74914285D01*
X148909285Y-74450000D01*
G04 #@! TO.C,U1*
X179108571Y-86649285D02*
X179108571Y-87256428D01*
X179144285Y-87327857D01*
X179180000Y-87363571D01*
X179251428Y-87399285D01*
X179394285Y-87399285D01*
X179465714Y-87363571D01*
X179501428Y-87327857D01*
X179537142Y-87256428D01*
X179537142Y-86649285D01*
X180287142Y-87399285D02*
X179858571Y-87399285D01*
X180072857Y-87399285D02*
X180072857Y-86649285D01*
X180001428Y-86756428D01*
X179930000Y-86827857D01*
X179858571Y-86863571D01*
G04 #@! TO.C,U2*
X168538571Y-87549285D02*
X168538571Y-88156428D01*
X168574285Y-88227857D01*
X168610000Y-88263571D01*
X168681428Y-88299285D01*
X168824285Y-88299285D01*
X168895714Y-88263571D01*
X168931428Y-88227857D01*
X168967142Y-88156428D01*
X168967142Y-87549285D01*
X169288571Y-87620714D02*
X169324285Y-87585000D01*
X169395714Y-87549285D01*
X169574285Y-87549285D01*
X169645714Y-87585000D01*
X169681428Y-87620714D01*
X169717142Y-87692142D01*
X169717142Y-87763571D01*
X169681428Y-87870714D01*
X169252857Y-88299285D01*
X169717142Y-88299285D01*
G04 #@! TO.C,U3*
X160548571Y-80979285D02*
X160548571Y-81586428D01*
X160584285Y-81657857D01*
X160620000Y-81693571D01*
X160691428Y-81729285D01*
X160834285Y-81729285D01*
X160905714Y-81693571D01*
X160941428Y-81657857D01*
X160977142Y-81586428D01*
X160977142Y-80979285D01*
X161262857Y-80979285D02*
X161727142Y-80979285D01*
X161477142Y-81265000D01*
X161584285Y-81265000D01*
X161655714Y-81300714D01*
X161691428Y-81336428D01*
X161727142Y-81407857D01*
X161727142Y-81586428D01*
X161691428Y-81657857D01*
X161655714Y-81693571D01*
X161584285Y-81729285D01*
X161370000Y-81729285D01*
X161298571Y-81693571D01*
X161262857Y-81657857D01*
G04 #@! TO.C,U4*
X180288571Y-120619285D02*
X180288571Y-121226428D01*
X180324285Y-121297857D01*
X180360000Y-121333571D01*
X180431428Y-121369285D01*
X180574285Y-121369285D01*
X180645714Y-121333571D01*
X180681428Y-121297857D01*
X180717142Y-121226428D01*
X180717142Y-120619285D01*
X181395714Y-120869285D02*
X181395714Y-121369285D01*
X181217142Y-120583571D02*
X181038571Y-121119285D01*
X181502857Y-121119285D01*
G04 #@! TO.C,U5*
X157678571Y-91809285D02*
X157678571Y-92416428D01*
X157714285Y-92487857D01*
X157750000Y-92523571D01*
X157821428Y-92559285D01*
X157964285Y-92559285D01*
X158035714Y-92523571D01*
X158071428Y-92487857D01*
X158107142Y-92416428D01*
X158107142Y-91809285D01*
X158821428Y-91809285D02*
X158464285Y-91809285D01*
X158428571Y-92166428D01*
X158464285Y-92130714D01*
X158535714Y-92095000D01*
X158714285Y-92095000D01*
X158785714Y-92130714D01*
X158821428Y-92166428D01*
X158857142Y-92237857D01*
X158857142Y-92416428D01*
X158821428Y-92487857D01*
X158785714Y-92523571D01*
X158714285Y-92559285D01*
X158535714Y-92559285D01*
X158464285Y-92523571D01*
X158428571Y-92487857D01*
G04 #@! TO.C,U6*
X143278571Y-88359285D02*
X143278571Y-88966428D01*
X143314285Y-89037857D01*
X143350000Y-89073571D01*
X143421428Y-89109285D01*
X143564285Y-89109285D01*
X143635714Y-89073571D01*
X143671428Y-89037857D01*
X143707142Y-88966428D01*
X143707142Y-88359285D01*
X144385714Y-88359285D02*
X144242857Y-88359285D01*
X144171428Y-88395000D01*
X144135714Y-88430714D01*
X144064285Y-88537857D01*
X144028571Y-88680714D01*
X144028571Y-88966428D01*
X144064285Y-89037857D01*
X144100000Y-89073571D01*
X144171428Y-89109285D01*
X144314285Y-89109285D01*
X144385714Y-89073571D01*
X144421428Y-89037857D01*
X144457142Y-88966428D01*
X144457142Y-88787857D01*
X144421428Y-88716428D01*
X144385714Y-88680714D01*
X144314285Y-88645000D01*
X144171428Y-88645000D01*
X144100000Y-88680714D01*
X144064285Y-88716428D01*
X144028571Y-88787857D01*
G04 #@! TO.C,U8*
X173198571Y-104149285D02*
X173198571Y-104756428D01*
X173234285Y-104827857D01*
X173270000Y-104863571D01*
X173341428Y-104899285D01*
X173484285Y-104899285D01*
X173555714Y-104863571D01*
X173591428Y-104827857D01*
X173627142Y-104756428D01*
X173627142Y-104149285D01*
X174091428Y-104470714D02*
X174020000Y-104435000D01*
X173984285Y-104399285D01*
X173948571Y-104327857D01*
X173948571Y-104292142D01*
X173984285Y-104220714D01*
X174020000Y-104185000D01*
X174091428Y-104149285D01*
X174234285Y-104149285D01*
X174305714Y-104185000D01*
X174341428Y-104220714D01*
X174377142Y-104292142D01*
X174377142Y-104327857D01*
X174341428Y-104399285D01*
X174305714Y-104435000D01*
X174234285Y-104470714D01*
X174091428Y-104470714D01*
X174020000Y-104506428D01*
X173984285Y-104542142D01*
X173948571Y-104613571D01*
X173948571Y-104756428D01*
X173984285Y-104827857D01*
X174020000Y-104863571D01*
X174091428Y-104899285D01*
X174234285Y-104899285D01*
X174305714Y-104863571D01*
X174341428Y-104827857D01*
X174377142Y-104756428D01*
X174377142Y-104613571D01*
X174341428Y-104542142D01*
X174305714Y-104506428D01*
X174234285Y-104470714D01*
G04 #@! TO.C,U9*
X185448571Y-99739285D02*
X185448571Y-100346428D01*
X185484285Y-100417857D01*
X185520000Y-100453571D01*
X185591428Y-100489285D01*
X185734285Y-100489285D01*
X185805714Y-100453571D01*
X185841428Y-100417857D01*
X185877142Y-100346428D01*
X185877142Y-99739285D01*
X186270000Y-100489285D02*
X186412857Y-100489285D01*
X186484285Y-100453571D01*
X186520000Y-100417857D01*
X186591428Y-100310714D01*
X186627142Y-100167857D01*
X186627142Y-99882142D01*
X186591428Y-99810714D01*
X186555714Y-99775000D01*
X186484285Y-99739285D01*
X186341428Y-99739285D01*
X186270000Y-99775000D01*
X186234285Y-99810714D01*
X186198571Y-99882142D01*
X186198571Y-100060714D01*
X186234285Y-100132142D01*
X186270000Y-100167857D01*
X186341428Y-100203571D01*
X186484285Y-100203571D01*
X186555714Y-100167857D01*
X186591428Y-100132142D01*
X186627142Y-100060714D01*
G04 #@! TO.C,JP2*
X141559285Y-106265000D02*
X142095000Y-106265000D01*
X142202142Y-106300714D01*
X142273571Y-106372142D01*
X142309285Y-106479285D01*
X142309285Y-106550714D01*
X142309285Y-105907857D02*
X141559285Y-105907857D01*
X141559285Y-105622142D01*
X141595000Y-105550714D01*
X141630714Y-105515000D01*
X141702142Y-105479285D01*
X141809285Y-105479285D01*
X141880714Y-105515000D01*
X141916428Y-105550714D01*
X141952142Y-105622142D01*
X141952142Y-105907857D01*
X141630714Y-105193571D02*
X141595000Y-105157857D01*
X141559285Y-105086428D01*
X141559285Y-104907857D01*
X141595000Y-104836428D01*
X141630714Y-104800714D01*
X141702142Y-104765000D01*
X141773571Y-104765000D01*
X141880714Y-104800714D01*
X142309285Y-105229285D01*
X142309285Y-104765000D01*
G04 #@! TO.C,J4*
X134170000Y-75389285D02*
X134170000Y-75925000D01*
X134134285Y-76032142D01*
X134062857Y-76103571D01*
X133955714Y-76139285D01*
X133884285Y-76139285D01*
X134848571Y-75639285D02*
X134848571Y-76139285D01*
X134670000Y-75353571D02*
X134491428Y-75889285D01*
X134955714Y-75889285D01*
G04 #@! TD*
M02*
