G04 #@! TF.GenerationSoftware,KiCad,Pcbnew,(5.0.2)-1*
G04 #@! TF.CreationDate,2019-03-06T19:46:35+01:00*
G04 #@! TF.ProjectId,GBDSO,47424453-4f2e-46b6-9963-61645f706362,rev?*
G04 #@! TF.SameCoordinates,Original*
G04 #@! TF.FileFunction,Other,Comment*
%FSLAX46Y46*%
G04 Gerber Fmt 4.6, Leading zero omitted, Abs format (unit mm)*
G04 Created by KiCad (PCBNEW (5.0.2)-1) date 06/03/2019 19:46:35*
%MOMM*%
%LPD*%
G01*
G04 APERTURE LIST*
%ADD10C,0.300000*%
G04 APERTURE END LIST*
D10*
X45866995Y-98617621D02*
X46152709Y-98617939D01*
X46295646Y-98546669D01*
X46367153Y-98475320D01*
X46510249Y-98261193D01*
X46581995Y-97975558D01*
X46582629Y-97404130D01*
X46511360Y-97261193D01*
X46440011Y-97189686D01*
X46297233Y-97118098D01*
X46011519Y-97117781D01*
X45868582Y-97189051D01*
X45797074Y-97260400D01*
X45725487Y-97403177D01*
X45725090Y-97760320D01*
X45796360Y-97903256D01*
X45867709Y-97974764D01*
X46010487Y-98046352D01*
X46296201Y-98046669D01*
X46439137Y-97975399D01*
X46510645Y-97904050D01*
X46582233Y-97761272D01*
X47224296Y-98476272D02*
X47295645Y-98547780D01*
X47224137Y-98619129D01*
X47152788Y-98547621D01*
X47224296Y-98476272D01*
X47224137Y-98619129D01*
X48225803Y-97120241D02*
X48368660Y-97120400D01*
X48511438Y-97191987D01*
X48582787Y-97263495D01*
X48654057Y-97406431D01*
X48725168Y-97692225D01*
X48724771Y-98049368D01*
X48653025Y-98335002D01*
X48581438Y-98477780D01*
X48509930Y-98549129D01*
X48366993Y-98620399D01*
X48224136Y-98620240D01*
X48081359Y-98548653D01*
X48010010Y-98477145D01*
X47938740Y-98334209D01*
X47867629Y-98048415D01*
X47868025Y-97691272D01*
X47939771Y-97405638D01*
X48011359Y-97262860D01*
X48082867Y-97191511D01*
X48225803Y-97120241D01*
X49654374Y-97121828D02*
X49797231Y-97121987D01*
X49940008Y-97193574D01*
X50011358Y-97265082D01*
X50082627Y-97408019D01*
X50153738Y-97693812D01*
X50153342Y-98050955D01*
X50081596Y-98336590D01*
X50010008Y-98479367D01*
X49938500Y-98550716D01*
X49795564Y-98621986D01*
X49652707Y-98621827D01*
X49509929Y-98550240D01*
X49438580Y-98478732D01*
X49367310Y-98335796D01*
X49296199Y-98050002D01*
X49296596Y-97692860D01*
X49368342Y-97407225D01*
X49439929Y-97264447D01*
X49511437Y-97193098D01*
X49654374Y-97121828D01*
X51082944Y-97123416D02*
X51225801Y-97123574D01*
X51368579Y-97195162D01*
X51439928Y-97266670D01*
X51511198Y-97409606D01*
X51582309Y-97695399D01*
X51581912Y-98052542D01*
X51510166Y-98338177D01*
X51438579Y-98480955D01*
X51367071Y-98552304D01*
X51224135Y-98623574D01*
X51081277Y-98623415D01*
X50938500Y-98551828D01*
X50867151Y-98480320D01*
X50795881Y-98337383D01*
X50724770Y-98051590D01*
X50725167Y-97694447D01*
X50796913Y-97408812D01*
X50868500Y-97266035D01*
X50940008Y-97194686D01*
X51082944Y-97123416D01*
X53366990Y-98625954D02*
X53368101Y-97625955D01*
X53367943Y-97768812D02*
X53439451Y-97697463D01*
X53582387Y-97626193D01*
X53796673Y-97626431D01*
X53939450Y-97698019D01*
X54010720Y-97840955D01*
X54009847Y-98626669D01*
X54010720Y-97840955D02*
X54082307Y-97698177D01*
X54225244Y-97626907D01*
X54439529Y-97627146D01*
X54582307Y-97698733D01*
X54653577Y-97841669D01*
X54652704Y-98627383D01*
X55366989Y-98628177D02*
X55368100Y-97628177D01*
X55367941Y-97771034D02*
X55439449Y-97699685D01*
X55582386Y-97628415D01*
X55796671Y-97628653D01*
X55939449Y-97700241D01*
X56010719Y-97843177D01*
X56009846Y-98628891D01*
X56010719Y-97843177D02*
X56082306Y-97700399D01*
X56225243Y-97629130D01*
X56439528Y-97629368D01*
X56582306Y-97700955D01*
X56653576Y-97843891D01*
X56652703Y-98629605D01*
X55722556Y-100050002D02*
X46722556Y-100040002D01*
X55720000Y-102350000D02*
X55723207Y-99463582D01*
X46720000Y-102340000D02*
X46723207Y-99453582D01*
X46722556Y-100040002D02*
X47849711Y-99454833D01*
X46722556Y-100040002D02*
X47848407Y-100627674D01*
X55722556Y-100050002D02*
X54596705Y-99462330D01*
X55722556Y-100050002D02*
X54595401Y-100635171D01*
X42638204Y-115566383D02*
X42638680Y-116494954D01*
X42066995Y-115995247D01*
X42067105Y-116209533D01*
X41995749Y-116352427D01*
X41924357Y-116423892D01*
X41781537Y-116495394D01*
X41424394Y-116495577D01*
X41281500Y-116424222D01*
X41210035Y-116352830D01*
X41138533Y-116210009D01*
X41138314Y-115781438D01*
X41209669Y-115638544D01*
X41281061Y-115567079D01*
X41139046Y-117210009D02*
X41139193Y-117495723D01*
X41210695Y-117638544D01*
X41282160Y-117709936D01*
X41496519Y-117852683D01*
X41782270Y-117923965D01*
X42353698Y-117923672D01*
X42496519Y-117852170D01*
X42567910Y-117780705D01*
X42639266Y-117637811D01*
X42639119Y-117352097D01*
X42567617Y-117209276D01*
X42496152Y-117137884D01*
X42353259Y-117066529D01*
X41996116Y-117066712D01*
X41853295Y-117138214D01*
X41781903Y-117209679D01*
X41710548Y-117352573D01*
X41710694Y-117638287D01*
X41782196Y-117781108D01*
X41853661Y-117852500D01*
X41996555Y-117923855D01*
X41282599Y-118567078D02*
X41211207Y-118638544D01*
X41139742Y-118567152D01*
X41211134Y-118495686D01*
X41282599Y-118567078D01*
X41139742Y-118567152D01*
X42640255Y-119566382D02*
X42640328Y-119709239D01*
X42568973Y-119852133D01*
X42497581Y-119923598D01*
X42354760Y-119995100D01*
X42069083Y-120066675D01*
X41711940Y-120066858D01*
X41426189Y-119995576D01*
X41283295Y-119924221D01*
X41211830Y-119852829D01*
X41140328Y-119710009D01*
X41140255Y-119567152D01*
X41211610Y-119424258D01*
X41283002Y-119352793D01*
X41425823Y-119281291D01*
X41711500Y-119209716D01*
X42068643Y-119209532D01*
X42354394Y-119280815D01*
X42497288Y-119352170D01*
X42568753Y-119423562D01*
X42640255Y-119566382D01*
X42640987Y-120994954D02*
X42641061Y-121137811D01*
X42569705Y-121280704D01*
X42498313Y-121352170D01*
X42355493Y-121423671D01*
X42069815Y-121495246D01*
X41712673Y-121495430D01*
X41426922Y-121424148D01*
X41284028Y-121352792D01*
X41212563Y-121281400D01*
X41141061Y-121138580D01*
X41140988Y-120995723D01*
X41212343Y-120852829D01*
X41283735Y-120781364D01*
X41426555Y-120709862D01*
X41712233Y-120638287D01*
X42069376Y-120638104D01*
X42355127Y-120709386D01*
X42498020Y-120780741D01*
X42569486Y-120852133D01*
X42640987Y-120994954D01*
X42641720Y-122423525D02*
X42641793Y-122566382D01*
X42570438Y-122709276D01*
X42499046Y-122780741D01*
X42356226Y-122852243D01*
X42070548Y-122923818D01*
X41713405Y-122924001D01*
X41427654Y-122852719D01*
X41284760Y-122781364D01*
X41213295Y-122709972D01*
X41141793Y-122567151D01*
X41141720Y-122424294D01*
X41213076Y-122281400D01*
X41284467Y-122209935D01*
X41427288Y-122138433D01*
X41712966Y-122066858D01*
X42070108Y-122066675D01*
X42355859Y-122137957D01*
X42498753Y-122209312D01*
X42570218Y-122280704D01*
X42641720Y-122423525D01*
X41142892Y-124710008D02*
X42142892Y-124709495D01*
X42000035Y-124709568D02*
X42071500Y-124780960D01*
X42143002Y-124923781D01*
X42143112Y-125138067D01*
X42071757Y-125280960D01*
X41928936Y-125352462D01*
X41143222Y-125352865D01*
X41928936Y-125352462D02*
X42071830Y-125423817D01*
X42143332Y-125566638D01*
X42143442Y-125780924D01*
X42072086Y-125923817D01*
X41929266Y-125995319D01*
X41143552Y-125995722D01*
X41143918Y-126710008D02*
X42143918Y-126709495D01*
X42001061Y-126709568D02*
X42072526Y-126780960D01*
X42144028Y-126923781D01*
X42144138Y-127138066D01*
X42072782Y-127280960D01*
X41929962Y-127352462D01*
X41144248Y-127352865D01*
X41929962Y-127352462D02*
X42072856Y-127423817D01*
X42144357Y-127566638D01*
X42144467Y-127780923D01*
X42073112Y-127923817D01*
X41930292Y-127995319D01*
X41144577Y-127995722D01*
X43929999Y-141351441D02*
X43909999Y-102351441D01*
X46740000Y-141350000D02*
X43343579Y-141351742D01*
X46720000Y-102350000D02*
X43323579Y-102351742D01*
X43909999Y-102351441D02*
X44496997Y-103477644D01*
X43909999Y-102351441D02*
X43324156Y-103478245D01*
X43929999Y-141351441D02*
X44515842Y-140224637D01*
X43929999Y-141351441D02*
X43343001Y-140225238D01*
X49811122Y-141250168D02*
X49811097Y-140393025D01*
X49811109Y-140821597D02*
X51311109Y-140821554D01*
X51096819Y-140678703D01*
X50953958Y-140535850D01*
X50882525Y-140392994D01*
X51311148Y-142178696D02*
X51311152Y-142321554D01*
X51239728Y-142464413D01*
X51168302Y-142535843D01*
X51025446Y-142607276D01*
X50739734Y-142678713D01*
X50382591Y-142678723D01*
X50096875Y-142607303D01*
X49954016Y-142535878D01*
X49882585Y-142464452D01*
X49811152Y-142321597D01*
X49811148Y-142178740D01*
X49882573Y-142035880D01*
X49953999Y-141964450D01*
X50096854Y-141893017D01*
X50382567Y-141821580D01*
X50739709Y-141821570D01*
X51025426Y-141892990D01*
X51168285Y-141964415D01*
X51239716Y-142035841D01*
X51311148Y-142178696D01*
X49954038Y-143321593D02*
X49882612Y-143393023D01*
X49811181Y-143321597D01*
X49882608Y-143250166D01*
X49954038Y-143321593D01*
X49811181Y-143321597D01*
X51311223Y-144750125D02*
X51311202Y-144035839D01*
X50596914Y-143964431D01*
X50668345Y-144035858D01*
X50739777Y-144178713D01*
X50739788Y-144535856D01*
X50668363Y-144678715D01*
X50596937Y-144750146D01*
X50454082Y-144821578D01*
X50096939Y-144821589D01*
X49954080Y-144750164D01*
X49882649Y-144678738D01*
X49811216Y-144535883D01*
X49811206Y-144178740D01*
X49882630Y-144035880D01*
X49954057Y-143964450D01*
X51311251Y-145750125D02*
X51311255Y-145892982D01*
X51239831Y-146035841D01*
X51168405Y-146107272D01*
X51025549Y-146178705D01*
X50739837Y-146250141D01*
X50382694Y-146250152D01*
X50096978Y-146178731D01*
X49954119Y-146107307D01*
X49882688Y-146035880D01*
X49811255Y-145893025D01*
X49811251Y-145750168D01*
X49882676Y-145607309D01*
X49954102Y-145535878D01*
X50096957Y-145464446D01*
X50382670Y-145393009D01*
X50739812Y-145392999D01*
X51025529Y-145464419D01*
X51168388Y-145535843D01*
X51239819Y-145607270D01*
X51311251Y-145750125D01*
X51311293Y-147178696D02*
X51311297Y-147321554D01*
X51239872Y-147464413D01*
X51168446Y-147535843D01*
X51025591Y-147607276D01*
X50739878Y-147678713D01*
X50382736Y-147678723D01*
X50097019Y-147607303D01*
X49954160Y-147535878D01*
X49882729Y-147464452D01*
X49811297Y-147321597D01*
X49811293Y-147178740D01*
X49882717Y-147035880D01*
X49954144Y-146964450D01*
X50096999Y-146893017D01*
X50382711Y-146821580D01*
X50739854Y-146821570D01*
X51025570Y-146892990D01*
X51168429Y-146964415D01*
X51239860Y-147035841D01*
X51311293Y-147178696D01*
X49811358Y-149464454D02*
X50811358Y-149464425D01*
X50668501Y-149464429D02*
X50739932Y-149535856D01*
X50811365Y-149678711D01*
X50811371Y-149892997D01*
X50739946Y-150035856D01*
X50597091Y-150107288D01*
X49811377Y-150107311D01*
X50597091Y-150107288D02*
X50739951Y-150178713D01*
X50811383Y-150321568D01*
X50811389Y-150535854D01*
X50739965Y-150678713D01*
X50597110Y-150750146D01*
X49811396Y-150750168D01*
X49811416Y-151464454D02*
X50811416Y-151464425D01*
X50668559Y-151464429D02*
X50739990Y-151535856D01*
X50811422Y-151678711D01*
X50811429Y-151892997D01*
X50740004Y-152035856D01*
X50597149Y-152107288D01*
X49811435Y-152107311D01*
X50597149Y-152107288D02*
X50740008Y-152178713D01*
X50811441Y-152321568D01*
X50811447Y-152535854D01*
X50740023Y-152678713D01*
X50597168Y-152750146D01*
X49811453Y-152750168D01*
X52590000Y-151860091D02*
X52589697Y-141354371D01*
X55740000Y-151860000D02*
X52003579Y-151860108D01*
X55739697Y-141354280D02*
X52003276Y-141354388D01*
X52589697Y-141354371D02*
X53176150Y-142480858D01*
X52589697Y-141354371D02*
X52003309Y-142480892D01*
X52590000Y-151860091D02*
X53176388Y-150733570D01*
X52590000Y-151860091D02*
X52003547Y-150733604D01*
X61034035Y-155727437D02*
X61105495Y-155656040D01*
X61248383Y-155584673D01*
X61605526Y-155584829D01*
X61748352Y-155656319D01*
X61819750Y-155727779D01*
X61891116Y-155870667D01*
X61891054Y-156013524D01*
X61819532Y-156227779D01*
X60962017Y-157084549D01*
X61890588Y-157084953D01*
X62391240Y-155585170D02*
X63319812Y-155585574D01*
X62819563Y-156156785D01*
X63033849Y-156156878D01*
X63176675Y-156228369D01*
X63248072Y-156299829D01*
X63319439Y-156442717D01*
X63319284Y-156799860D01*
X63247793Y-156942686D01*
X63176333Y-157014083D01*
X63033445Y-157085450D01*
X62604874Y-157085263D01*
X62462048Y-157013773D01*
X62390650Y-156942313D01*
X63962079Y-156942996D02*
X64033476Y-157014456D01*
X63962016Y-157085853D01*
X63890619Y-157014394D01*
X63962079Y-156942996D01*
X63962016Y-157085853D01*
X64962669Y-155586288D02*
X65105526Y-155586350D01*
X65248352Y-155657841D01*
X65319749Y-155729301D01*
X65391116Y-155872189D01*
X65462420Y-156157934D01*
X65462265Y-156515077D01*
X65390712Y-156800760D01*
X65319221Y-156943586D01*
X65247762Y-157014984D01*
X65104874Y-157086350D01*
X64962016Y-157086288D01*
X64819190Y-157014797D01*
X64747793Y-156943338D01*
X64676426Y-156800450D01*
X64605122Y-156514704D01*
X64605277Y-156157561D01*
X64676830Y-155871878D01*
X64748321Y-155729052D01*
X64819780Y-155657655D01*
X64962669Y-155586288D01*
X66391240Y-155586909D02*
X66534097Y-155586971D01*
X66676923Y-155658462D01*
X66748321Y-155729922D01*
X66819687Y-155872810D01*
X66890991Y-156158555D01*
X66890836Y-156515698D01*
X66819283Y-156801381D01*
X66747793Y-156944207D01*
X66676333Y-157015605D01*
X66533445Y-157086971D01*
X66390588Y-157086909D01*
X66247762Y-157015419D01*
X66176364Y-156943959D01*
X66104998Y-156801071D01*
X66033693Y-156515325D01*
X66033849Y-156158183D01*
X66105401Y-155872499D01*
X66176892Y-155729673D01*
X66248352Y-155658276D01*
X66391240Y-155586909D01*
X67819811Y-155587530D02*
X67962668Y-155587593D01*
X68105494Y-155659083D01*
X68176892Y-155730543D01*
X68248258Y-155873431D01*
X68319563Y-156159176D01*
X68319407Y-156516319D01*
X68247855Y-156802002D01*
X68176364Y-156944828D01*
X68104904Y-157016226D01*
X67962016Y-157087592D01*
X67819159Y-157087530D01*
X67676333Y-157016040D01*
X67604935Y-156944580D01*
X67533569Y-156801692D01*
X67462265Y-156515947D01*
X67462420Y-156158804D01*
X67533973Y-155873120D01*
X67605463Y-155730294D01*
X67676923Y-155658897D01*
X67819811Y-155587530D01*
X70104873Y-157088524D02*
X70105308Y-156088524D01*
X70105246Y-156231381D02*
X70176705Y-156159984D01*
X70319594Y-156088617D01*
X70533879Y-156088711D01*
X70676705Y-156160201D01*
X70748072Y-156303089D01*
X70747730Y-157088804D01*
X70748072Y-156303089D02*
X70819562Y-156160263D01*
X70962451Y-156088897D01*
X71176736Y-156088990D01*
X71319562Y-156160481D01*
X71390929Y-156303369D01*
X71390587Y-157089083D01*
X72104873Y-157089394D02*
X72105308Y-156089394D01*
X72105246Y-156232251D02*
X72176705Y-156160853D01*
X72319593Y-156089487D01*
X72533879Y-156089580D01*
X72676705Y-156161071D01*
X72748072Y-156303959D01*
X72747730Y-157089673D01*
X72748072Y-156303959D02*
X72819562Y-156161133D01*
X72962450Y-156089766D01*
X73176736Y-156089860D01*
X73319562Y-156161350D01*
X73390929Y-156304238D01*
X73390587Y-157089953D01*
X78748939Y-154313711D02*
X55748939Y-154303711D01*
X78750000Y-151873711D02*
X78748684Y-154900131D01*
X55750000Y-151863711D02*
X55748684Y-154890131D01*
X55748939Y-154303711D02*
X56875698Y-153717780D01*
X55748939Y-154303711D02*
X56875188Y-154890621D01*
X78748939Y-154313711D02*
X77622690Y-153726801D01*
X78748939Y-154313711D02*
X77622180Y-154899642D01*
X74260000Y-84131428D02*
X74331428Y-84060000D01*
X74474285Y-83988571D01*
X74831428Y-83988571D01*
X74974285Y-84060000D01*
X75045714Y-84131428D01*
X75117142Y-84274285D01*
X75117142Y-84417142D01*
X75045714Y-84631428D01*
X74188571Y-85488571D01*
X75117142Y-85488571D01*
X75760000Y-85345714D02*
X75831428Y-85417142D01*
X75760000Y-85488571D01*
X75688571Y-85417142D01*
X75760000Y-85345714D01*
X75760000Y-85488571D01*
X76760000Y-83988571D02*
X76902857Y-83988571D01*
X77045714Y-84060000D01*
X77117142Y-84131428D01*
X77188571Y-84274285D01*
X77260000Y-84560000D01*
X77260000Y-84917142D01*
X77188571Y-85202857D01*
X77117142Y-85345714D01*
X77045714Y-85417142D01*
X76902857Y-85488571D01*
X76760000Y-85488571D01*
X76617142Y-85417142D01*
X76545714Y-85345714D01*
X76474285Y-85202857D01*
X76402857Y-84917142D01*
X76402857Y-84560000D01*
X76474285Y-84274285D01*
X76545714Y-84131428D01*
X76617142Y-84060000D01*
X76760000Y-83988571D01*
X78188571Y-83988571D02*
X78331428Y-83988571D01*
X78474285Y-84060000D01*
X78545714Y-84131428D01*
X78617142Y-84274285D01*
X78688571Y-84560000D01*
X78688571Y-84917142D01*
X78617142Y-85202857D01*
X78545714Y-85345714D01*
X78474285Y-85417142D01*
X78331428Y-85488571D01*
X78188571Y-85488571D01*
X78045714Y-85417142D01*
X77974285Y-85345714D01*
X77902857Y-85202857D01*
X77831428Y-84917142D01*
X77831428Y-84560000D01*
X77902857Y-84274285D01*
X77974285Y-84131428D01*
X78045714Y-84060000D01*
X78188571Y-83988571D01*
X79617142Y-83988571D02*
X79760000Y-83988571D01*
X79902857Y-84060000D01*
X79974285Y-84131428D01*
X80045714Y-84274285D01*
X80117142Y-84560000D01*
X80117142Y-84917142D01*
X80045714Y-85202857D01*
X79974285Y-85345714D01*
X79902857Y-85417142D01*
X79760000Y-85488571D01*
X79617142Y-85488571D01*
X79474285Y-85417142D01*
X79402857Y-85345714D01*
X79331428Y-85202857D01*
X79260000Y-84917142D01*
X79260000Y-84560000D01*
X79331428Y-84274285D01*
X79402857Y-84131428D01*
X79474285Y-84060000D01*
X79617142Y-83988571D01*
X81902857Y-85488571D02*
X81902857Y-84488571D01*
X81902857Y-84631428D02*
X81974285Y-84560000D01*
X82117142Y-84488571D01*
X82331428Y-84488571D01*
X82474285Y-84560000D01*
X82545714Y-84702857D01*
X82545714Y-85488571D01*
X82545714Y-84702857D02*
X82617142Y-84560000D01*
X82760000Y-84488571D01*
X82974285Y-84488571D01*
X83117142Y-84560000D01*
X83188571Y-84702857D01*
X83188571Y-85488571D01*
X83902857Y-85488571D02*
X83902857Y-84488571D01*
X83902857Y-84631428D02*
X83974285Y-84560000D01*
X84117142Y-84488571D01*
X84331428Y-84488571D01*
X84474285Y-84560000D01*
X84545714Y-84702857D01*
X84545714Y-85488571D01*
X84545714Y-84702857D02*
X84617142Y-84560000D01*
X84760000Y-84488571D01*
X84974285Y-84488571D01*
X85117142Y-84560000D01*
X85188571Y-84702857D01*
X85188571Y-85488571D01*
X80760000Y-86910000D02*
X78760000Y-86910000D01*
X80760000Y-91850000D02*
X80760000Y-86323579D01*
X78760000Y-91850000D02*
X78760000Y-86323579D01*
X78760000Y-86910000D02*
X79886504Y-86323579D01*
X78760000Y-86910000D02*
X79886504Y-87496421D01*
X80760000Y-86910000D02*
X79633496Y-86323579D01*
X80760000Y-86910000D02*
X79633496Y-87496421D01*
X135031243Y-127159619D02*
X135031243Y-127445333D01*
X135102672Y-127588190D01*
X135174100Y-127659619D01*
X135388386Y-127802476D01*
X135674100Y-127873904D01*
X136245529Y-127873904D01*
X136388386Y-127802476D01*
X136459814Y-127731047D01*
X136531243Y-127588190D01*
X136531243Y-127302476D01*
X136459814Y-127159619D01*
X136388386Y-127088190D01*
X136245529Y-127016761D01*
X135888386Y-127016761D01*
X135745529Y-127088190D01*
X135674100Y-127159619D01*
X135602672Y-127302476D01*
X135602672Y-127588190D01*
X135674100Y-127731047D01*
X135745529Y-127802476D01*
X135888386Y-127873904D01*
X136531243Y-125588190D02*
X136531243Y-126445333D01*
X136531243Y-126016761D02*
X135031243Y-126016761D01*
X135245529Y-126159619D01*
X135388386Y-126302476D01*
X135459814Y-126445333D01*
X136388386Y-124945333D02*
X136459814Y-124873904D01*
X136531243Y-124945333D01*
X136459814Y-125016761D01*
X136388386Y-124945333D01*
X136531243Y-124945333D01*
X135031243Y-123945333D02*
X135031243Y-123802476D01*
X135102672Y-123659619D01*
X135174100Y-123588190D01*
X135316957Y-123516761D01*
X135602672Y-123445333D01*
X135959814Y-123445333D01*
X136245529Y-123516761D01*
X136388386Y-123588190D01*
X136459814Y-123659619D01*
X136531243Y-123802476D01*
X136531243Y-123945333D01*
X136459814Y-124088190D01*
X136388386Y-124159619D01*
X136245529Y-124231047D01*
X135959814Y-124302476D01*
X135602672Y-124302476D01*
X135316957Y-124231047D01*
X135174100Y-124159619D01*
X135102672Y-124088190D01*
X135031243Y-123945333D01*
X135031243Y-122516761D02*
X135031243Y-122373904D01*
X135102672Y-122231047D01*
X135174100Y-122159619D01*
X135316957Y-122088190D01*
X135602672Y-122016761D01*
X135959814Y-122016761D01*
X136245529Y-122088190D01*
X136388386Y-122159619D01*
X136459814Y-122231047D01*
X136531243Y-122373904D01*
X136531243Y-122516761D01*
X136459814Y-122659619D01*
X136388386Y-122731047D01*
X136245529Y-122802476D01*
X135959814Y-122873904D01*
X135602672Y-122873904D01*
X135316957Y-122802476D01*
X135174100Y-122731047D01*
X135102672Y-122659619D01*
X135031243Y-122516761D01*
X135031243Y-121088190D02*
X135031243Y-120945333D01*
X135102672Y-120802476D01*
X135174100Y-120731047D01*
X135316957Y-120659619D01*
X135602672Y-120588190D01*
X135959814Y-120588190D01*
X136245529Y-120659619D01*
X136388386Y-120731047D01*
X136459814Y-120802476D01*
X136531243Y-120945333D01*
X136531243Y-121088190D01*
X136459814Y-121231047D01*
X136388386Y-121302476D01*
X136245529Y-121373904D01*
X135959814Y-121445333D01*
X135602672Y-121445333D01*
X135316957Y-121373904D01*
X135174100Y-121302476D01*
X135102672Y-121231047D01*
X135031243Y-121088190D01*
X136531243Y-118802476D02*
X135531243Y-118802476D01*
X135674100Y-118802476D02*
X135602672Y-118731047D01*
X135531243Y-118588190D01*
X135531243Y-118373904D01*
X135602672Y-118231047D01*
X135745529Y-118159619D01*
X136531243Y-118159619D01*
X135745529Y-118159619D02*
X135602672Y-118088190D01*
X135531243Y-117945333D01*
X135531243Y-117731047D01*
X135602672Y-117588190D01*
X135745529Y-117516761D01*
X136531243Y-117516761D01*
X136531243Y-116802476D02*
X135531243Y-116802476D01*
X135674100Y-116802476D02*
X135602672Y-116731047D01*
X135531243Y-116588190D01*
X135531243Y-116373904D01*
X135602672Y-116231047D01*
X135745529Y-116159619D01*
X136531243Y-116159619D01*
X135745529Y-116159619D02*
X135602672Y-116088190D01*
X135531243Y-115945333D01*
X135531243Y-115731047D01*
X135602672Y-115588190D01*
X135745529Y-115516761D01*
X136531243Y-115516761D01*
X133752672Y-152159619D02*
X133752672Y-91159619D01*
X131752672Y-152159619D02*
X134339093Y-152159619D01*
X131752672Y-91159619D02*
X134339093Y-91159619D01*
X133752672Y-91159619D02*
X134339093Y-92286123D01*
X133752672Y-91159619D02*
X133166251Y-92286123D01*
X133752672Y-152159619D02*
X134339093Y-151033115D01*
X133752672Y-152159619D02*
X133166251Y-151033115D01*
X100831428Y-85738571D02*
X100117142Y-85738571D01*
X100045714Y-86452857D01*
X100117142Y-86381428D01*
X100260000Y-86310000D01*
X100617142Y-86310000D01*
X100760000Y-86381428D01*
X100831428Y-86452857D01*
X100902857Y-86595714D01*
X100902857Y-86952857D01*
X100831428Y-87095714D01*
X100760000Y-87167142D01*
X100617142Y-87238571D01*
X100260000Y-87238571D01*
X100117142Y-87167142D01*
X100045714Y-87095714D01*
X102331428Y-87238571D02*
X101474285Y-87238571D01*
X101902857Y-87238571D02*
X101902857Y-85738571D01*
X101760000Y-85952857D01*
X101617142Y-86095714D01*
X101474285Y-86167142D01*
X102974285Y-87095714D02*
X103045714Y-87167142D01*
X102974285Y-87238571D01*
X102902857Y-87167142D01*
X102974285Y-87095714D01*
X102974285Y-87238571D01*
X103974285Y-85738571D02*
X104117142Y-85738571D01*
X104260000Y-85810000D01*
X104331428Y-85881428D01*
X104402857Y-86024285D01*
X104474285Y-86310000D01*
X104474285Y-86667142D01*
X104402857Y-86952857D01*
X104331428Y-87095714D01*
X104260000Y-87167142D01*
X104117142Y-87238571D01*
X103974285Y-87238571D01*
X103831428Y-87167142D01*
X103760000Y-87095714D01*
X103688571Y-86952857D01*
X103617142Y-86667142D01*
X103617142Y-86310000D01*
X103688571Y-86024285D01*
X103760000Y-85881428D01*
X103831428Y-85810000D01*
X103974285Y-85738571D01*
X105402857Y-85738571D02*
X105545714Y-85738571D01*
X105688571Y-85810000D01*
X105760000Y-85881428D01*
X105831428Y-86024285D01*
X105902857Y-86310000D01*
X105902857Y-86667142D01*
X105831428Y-86952857D01*
X105760000Y-87095714D01*
X105688571Y-87167142D01*
X105545714Y-87238571D01*
X105402857Y-87238571D01*
X105260000Y-87167142D01*
X105188571Y-87095714D01*
X105117142Y-86952857D01*
X105045714Y-86667142D01*
X105045714Y-86310000D01*
X105117142Y-86024285D01*
X105188571Y-85881428D01*
X105260000Y-85810000D01*
X105402857Y-85738571D01*
X106831428Y-85738571D02*
X106974285Y-85738571D01*
X107117142Y-85810000D01*
X107188571Y-85881428D01*
X107260000Y-86024285D01*
X107331428Y-86310000D01*
X107331428Y-86667142D01*
X107260000Y-86952857D01*
X107188571Y-87095714D01*
X107117142Y-87167142D01*
X106974285Y-87238571D01*
X106831428Y-87238571D01*
X106688571Y-87167142D01*
X106617142Y-87095714D01*
X106545714Y-86952857D01*
X106474285Y-86667142D01*
X106474285Y-86310000D01*
X106545714Y-86024285D01*
X106617142Y-85881428D01*
X106688571Y-85810000D01*
X106831428Y-85738571D01*
X109117142Y-87238571D02*
X109117142Y-86238571D01*
X109117142Y-86381428D02*
X109188571Y-86310000D01*
X109331428Y-86238571D01*
X109545714Y-86238571D01*
X109688571Y-86310000D01*
X109760000Y-86452857D01*
X109760000Y-87238571D01*
X109760000Y-86452857D02*
X109831428Y-86310000D01*
X109974285Y-86238571D01*
X110188571Y-86238571D01*
X110331428Y-86310000D01*
X110402857Y-86452857D01*
X110402857Y-87238571D01*
X111117142Y-87238571D02*
X111117142Y-86238571D01*
X111117142Y-86381428D02*
X111188571Y-86310000D01*
X111331428Y-86238571D01*
X111545714Y-86238571D01*
X111688571Y-86310000D01*
X111760000Y-86452857D01*
X111760000Y-87238571D01*
X111760000Y-86452857D02*
X111831428Y-86310000D01*
X111974285Y-86238571D01*
X112188571Y-86238571D01*
X112331428Y-86310000D01*
X112402857Y-86452857D01*
X112402857Y-87238571D01*
X80760000Y-88660000D02*
X131760000Y-88660000D01*
X80760000Y-91160000D02*
X80760000Y-88073579D01*
X131760000Y-91160000D02*
X131760000Y-88073579D01*
X131760000Y-88660000D02*
X130633496Y-89246421D01*
X131760000Y-88660000D02*
X130633496Y-88073579D01*
X80760000Y-88660000D02*
X81886504Y-89246421D01*
X80760000Y-88660000D02*
X81886504Y-88073579D01*
M02*
