M48
; DRILL file {KiCad (5.1.0)-1} date 20/04/2019 02:26:07
; FORMAT={-:-/ absolute / metric / decimal}
; #@! TF.CreationDate,2019-04-20T02:26:07+02:00
; #@! TF.GenerationSoftware,Kicad,Pcbnew,(5.1.0)-1
FMAT,2
METRIC
T1C0.400
T2C0.800
T3C1.000
T4C0.900
T5C1.700
T6C2.200
%
G90
G05
T1
X114.9Y-83.75
X115.85Y-113.54
X116.22Y-87.5
X118.01Y-85.284
X119.33Y-110.364
X119.37Y-112.974
X119.6Y-107.904
X119.85Y-105.304
X123.98Y-86.35
X124.005Y-91.444
X124.005Y-93.964
X124.005Y-96.494
X124.005Y-98.964
X124.005Y-101.614
X124.005Y-102.844
X124.005Y-104.134
X124.005Y-105.394
X124.008Y-90.162
X124.05Y-88.9
X124.05Y-116.13
X124.21Y-113.669
X124.49Y-107.964
X124.955Y-110.403
X128.667Y-118.928
X130.115Y-104.084
X130.565Y-100.62
X130.575Y-97.6
X130.59Y-117.25
X130.61Y-114.56
X131.23Y-98.37
X132.115Y-105.734
X132.115Y-107.284
X132.115Y-108.704
X132.115Y-110.234
X132.115Y-111.734
X132.115Y-113.274
X132.115Y-114.704
X132.115Y-116.244
X132.115Y-117.784
X132.2Y-98.174
X132.22Y-95.26
X132.225Y-99.714
X132.24Y-96.74
X132.265Y-101.23
X139.51Y-72.33
X139.61Y-81.75
X141.17Y-100.24
X141.52Y-72.3
X141.58Y-81.75
X142.16Y-121.49
X142.59Y-95.39
X142.6Y-91.6
X142.64Y-90.39
X142.79Y-120.68
X142.84Y-116.34
X142.9Y-112.86
X142.97Y-119.13
X143.09Y-86.22
X143.27Y-94.03
X143.9Y-91.59
X144.95Y-101.29
X145.17Y-87.05
X145.18Y-85.1
X146.31Y-110.2
X146.31Y-121.97
X146.91Y-104.22
X147.01Y-120.32
X147.85Y-99.21
X147.87Y-120.32
X147.93Y-78.46
X148.16Y-104.21
X148.733Y-122.089
X148.75Y-121.275
X148.76Y-120.475
X148.85Y-95.26
X149.0Y-105.56
X149.22Y-109.56
X149.22Y-108.621
X150.16Y-74.14
X150.16Y-75.52
X150.18Y-104.13
X150.73Y-122.06
X151.133Y-107.717
X151.133Y-106.833
X151.55Y-88.17
X151.84Y-97.56
X152.0Y-122.02
X152.66Y-74.13
X152.68Y-75.49
X152.87Y-106.208
X153.08Y-97.53
X153.17Y-87.31
X153.38Y-121.95
X153.58Y-105.583
X154.43Y-77.645
X154.67Y-121.914
X154.76Y-118.55
X155.05Y-104.72
X155.18Y-74.12
X155.2Y-75.5
X155.5Y-89.91
X155.67Y-122.03
X155.81Y-106.19
X156.028Y-118.922
X156.61Y-88.47
X157.145Y-104.888
X157.36Y-121.335
X158.04Y-82.96
X158.17Y-95.16
X158.18Y-97.92
X158.62Y-121.98
X159.34Y-87.15
X160.48Y-97.18
X160.51Y-95.87
X161.99Y-75.81
X161.99Y-103.197
X162.26Y-92.94
X162.743Y-90.968
X163.38Y-72.31
X163.4Y-81.76
X163.59Y-99.55
X164.225Y-98.395
X165.41Y-72.29
X165.45Y-103.14
X165.52Y-81.78
X166.4Y-108.69
X166.7Y-122.185
X167.915Y-93.325
X168.33Y-121.99
X169.11Y-84.83
X169.11Y-87.0
X169.12Y-98.43
X169.76Y-103.05
X169.76Y-105.9
X169.89Y-114.99
X170.131Y-107.96
X170.4Y-112.92
X170.93Y-121.73
X171.46Y-96.13
X171.66Y-100.24
X171.66Y-104.32
X171.67Y-106.78
X171.77Y-78.46
X171.78Y-113.73
X171.785Y-109.81
X172.09Y-121.515
X172.28Y-98.52
X173.65Y-122.165
X174.04Y-74.15
X174.07Y-75.59
X174.32Y-97.6
X174.33Y-115.44
X174.35Y-121.51
X174.43Y-91.14
X174.51Y-113.66
X174.945Y-110.525
X175.04Y-101.0
X175.12Y-120.99
X175.32Y-107.16
X176.5Y-102.11
X176.53Y-75.47
X176.56Y-74.09
X176.95Y-89.5
X177.562Y-106.757
X178.0Y-77.5
X178.2Y-122.09
X178.7Y-119.76
X179.07Y-74.12
X179.12Y-75.56
X179.18Y-80.59
X179.32Y-114.57
X179.44Y-98.45
X179.67Y-122.17
X180.4Y-94.41
X180.57Y-92.84
X180.83Y-90.24
X180.93Y-87.6
X181.037Y-96.04
X181.16Y-122.32
X181.29Y-91.14
X181.35Y-104.06
X181.38Y-97.14
X181.59Y-114.01
X182.08Y-120.51
X182.09Y-119.21
X182.19Y-116.01
X182.24Y-114.64
X182.48Y-100.14
X183.09Y-111.78
X183.98Y-89.27
X184.56Y-80.52
X184.99Y-83.65
X185.792Y-106.82
X185.83Y-94.41
X185.92Y-91.86
X186.05Y-103.11
X186.43Y-100.32
X187.83Y-85.91
X188.05Y-115.27
X188.05Y-116.65
X188.05Y-118.08
X188.05Y-119.56
X188.05Y-121.22
X188.81Y-103.66
T2
X106.99Y-83.814
X106.99Y-86.354
X106.99Y-88.894
X106.99Y-91.434
X106.99Y-93.974
X106.99Y-96.514
X106.99Y-99.054
X106.99Y-101.594
X106.99Y-104.134
X106.99Y-106.674
X106.99Y-109.214
X106.99Y-111.754
X106.99Y-114.294
X106.99Y-116.834
X122.23Y-83.814
X122.23Y-86.354
X122.23Y-88.894
X122.23Y-91.434
X122.23Y-93.974
X122.23Y-96.514
X122.23Y-99.054
X122.23Y-101.594
X122.23Y-104.134
X122.23Y-106.674
X122.23Y-109.214
X122.23Y-111.754
X122.23Y-114.294
X122.23Y-116.834
T3
X143.15Y-70.94
X145.69Y-70.94
X167.02Y-70.94
X169.56Y-70.94
T4
X173.15Y-72.07
X179.95Y-72.07
X149.25Y-72.07
X156.05Y-72.07
T5
X168.34Y-73.39
X168.34Y-80.39
X144.45Y-73.42
X144.45Y-80.42
T6
X126.54Y-87.54
X126.54Y-113.44
T0
M30
