M48
;DRILL file {KiCad (5.0.2)-1} date 06/03/2019 19:46:40
;FORMAT={-:-/ absolute / metric / decimal}
FMAT,2
METRIC,TZ
T1C0.400
T2C0.800
T3C0.900
T4C1.500
T5C2.200
%
G90
G05
T1
X57.25Y-105.28
X58.18Y-109.07
X58.2Y-135.07
X60.36Y-106.814
X61.68Y-131.894
X61.72Y-134.504
X61.95Y-129.434
X62.2Y-126.834
X66.33Y-107.88
X66.355Y-112.974
X66.355Y-115.494
X66.355Y-118.024
X66.355Y-120.494
X66.355Y-123.144
X66.355Y-124.374
X66.355Y-125.664
X66.355Y-126.924
X66.358Y-111.692
X66.4Y-110.43
X66.4Y-137.66
X66.56Y-135.199
X66.84Y-129.494
X67.305Y-131.933
X71.017Y-140.458
X72.465Y-125.614
X72.915Y-122.15
X72.925Y-119.13
X72.94Y-138.78
X72.96Y-136.09
X73.58Y-119.9
X74.465Y-127.264
X74.465Y-128.814
X74.465Y-130.234
X74.465Y-131.764
X74.465Y-133.264
X74.465Y-134.804
X74.465Y-136.234
X74.465Y-137.774
X74.465Y-139.314
X74.55Y-119.704
X74.57Y-116.79
X74.575Y-121.244
X74.59Y-118.27
X74.615Y-122.76
X83.4Y-95.5
X84.44Y-122.07
X84.51Y-143.02
X84.78Y-134.43
X84.94Y-116.92
X84.95Y-113.13
X84.99Y-111.92
X85.14Y-142.21
X85.32Y-140.66
X85.62Y-115.56
X85.71Y-137.34
X86.28Y-113.05
X87.29Y-123.11
X88.66Y-131.73
X88.66Y-143.5
X89.26Y-125.75
X89.36Y-141.85
X90.22Y-141.85
X90.51Y-125.74
X90.64Y-121.46
X91.083Y-143.619
X91.1Y-142.805
X91.11Y-142.005
X91.35Y-127.09
X91.5Y-105.9
X91.57Y-131.09
X91.57Y-130.151
X92.53Y-125.66
X92.625Y-115.4
X93.08Y-143.59
X93.39Y-101.97
X93.483Y-129.247
X93.483Y-128.363
X94.35Y-143.55
X94.86Y-119.49
X95.22Y-127.738
X95.73Y-143.48
X95.89Y-103.97
X95.93Y-127.113
X96.78Y-119.54
X96.825Y-106.75
X97.02Y-143.444
X97.11Y-140.08
X97.4Y-126.25
X97.95Y-100.275
X98.02Y-143.56
X98.16Y-127.72
X98.378Y-140.452
X98.49Y-110.7
X99.495Y-126.418
X99.71Y-142.865
X100.97Y-143.51
X101.05Y-92.8
X101.2Y-116.72
X101.21Y-119.48
X102.375Y-97.475
X102.89Y-130.3
X103.575Y-124.6
X103.81Y-106.75
X104.45Y-120.05
X104.677Y-113.838
X104.84Y-111.95
X105.94Y-121.08
X106.493Y-114.587
X106.54Y-117.405
X106.55Y-118.69
X106.575Y-119.925
X106.58Y-130.34
X106.6Y-116.135
X106.67Y-112.
X107.175Y-108.
X107.37Y-105.7
X108.15Y-123.52
X108.17Y-130.37
X109.05Y-143.615
X109.38Y-113.59
X110.125Y-95.5
X110.54Y-109.88
X110.54Y-112.04
X110.68Y-143.52
X111.57Y-116.41
X111.57Y-118.155
X111.61Y-125.07
X111.61Y-126.64
X112.06Y-120.78
X112.481Y-129.49
X112.55Y-135.97
X113.28Y-143.26
X113.98Y-122.35
X114.01Y-126.42
X114.05Y-128.29
X114.14Y-131.15
X114.44Y-143.03
X114.71Y-135.29
X114.93Y-114.24
X115.07Y-117.47
X115.13Y-137.18
X116.Y-143.695
X116.1Y-112.9
X117.04Y-98.69
X117.24Y-115.29
X117.32Y-123.34
X117.51Y-143.64
X117.67Y-128.69
X118.225Y-109.725
X119.01Y-143.64
X119.41Y-141.405
X119.425Y-134.
X119.9Y-125.45
X120.13Y-123.82
X120.32Y-132.06
X120.34Y-128.97
X120.55Y-143.62
X121.25Y-116.14
X122.02Y-143.63
X122.07Y-137.91
X122.35Y-110.16
X122.41Y-117.71
X122.87Y-140.99
X123.26Y-102.49
X123.49Y-143.67
X124.3Y-115.6
X124.41Y-135.28
X124.43Y-136.55
X125.14Y-104.025
X125.16Y-108.91
X125.785Y-108.21
X126.3Y-118.6
X127.07Y-133.08
X127.18Y-141.74
X127.28Y-139.25
X127.48Y-101.04
X127.575Y-123.5
X127.65Y-134.9
X128.51Y-101.01
X128.87Y-131.58
X129.Y-110.175
X129.45Y-95.175
X129.63Y-133.1
X130.38Y-142.95
X130.41Y-135.92
T2
X49.34Y-105.344
X49.34Y-107.884
X49.34Y-110.424
X49.34Y-112.964
X49.34Y-115.504
X49.34Y-118.044
X49.34Y-120.584
X49.34Y-123.124
X49.34Y-125.664
X49.34Y-128.204
X49.34Y-130.744
X49.34Y-133.284
X49.34Y-135.824
X49.34Y-138.364
X64.58Y-105.344
X64.58Y-107.884
X64.58Y-110.424
X64.58Y-112.964
X64.58Y-115.504
X64.58Y-118.044
X64.58Y-120.584
X64.58Y-123.124
X64.58Y-125.664
X64.58Y-128.204
X64.58Y-130.744
X64.58Y-133.284
X64.58Y-135.824
X64.58Y-138.364
T3
X92.1Y-93.3
X98.9Y-93.3
X118.9Y-93.3
X125.7Y-93.3
T4
X113.525Y-94.95
X113.525Y-101.95
X86.8Y-94.95
X86.8Y-101.95
T5
X68.89Y-109.07
X68.89Y-134.97
T0
M30
